<?xml version="1.0" encoding="utf-8" standalone="no"?>
<!DOCTYPE svg PUBLIC "-//W3C//DTD SVG 1.1//EN"
  "http://www.w3.org/Graphics/SVG/1.1/DTD/svg11.dtd">
<svg xmlns:xlink="http://www.w3.org/1999/xlink" width="576pt" height="432pt" viewBox="0 0 576 432" xmlns="http://www.w3.org/2000/svg" version="1.1">
 <metadata>
  <rdf:RDF xmlns:dc="http://purl.org/dc/elements/1.1/" xmlns:cc="http://creativecommons.org/ns#" xmlns:rdf="http://www.w3.org/1999/02/22-rdf-syntax-ns#">
   <cc:Work>
    <dc:type rdf:resource="http://purl.org/dc/dcmitype/StillImage"/>
    <dc:date>2023-11-06T20:58:48.892321</dc:date>
    <dc:format>image/svg+xml</dc:format>
    <dc:creator>
     <cc:Agent>
      <dc:title>Matplotlib v3.7.2, https://matplotlib.org/</dc:title>
     </cc:Agent>
    </dc:creator>
   </cc:Work>
  </rdf:RDF>
 </metadata>
 <defs>
  <style type="text/css">*{stroke-linejoin: round; stroke-linecap: butt}</style>
 </defs>
 <g id="figure_1">
  <g id="patch_1">
   <path d="M 0 432 
L 576 432 
L 576 0 
L 0 0 
z
" style="fill: #ffffff"/>
  </g>
  <g id="axes_1">
   <g id="patch_2">
    <path d="M 72 384.48 
L 518.4 384.48 
L 518.4 51.84 
L 72 51.84 
z
" style="fill: #ffffff"/>
   </g>
   <g id="PathCollection_1"/>
   <g id="PathCollection_2"/>
   <g id="matplotlib.axis_1">
    <g id="xtick_1">
     <g id="line2d_1">
      <defs>
       <path id="mb5c485a111" d="M 0 0 
L 0 3.5 
" style="stroke: #000000; stroke-width: 0.8"/>
      </defs>
      <g>
       <use xlink:href="#mb5c485a111" x="183.6" y="384.48" style="stroke: #000000; stroke-width: 0.8"/>
      </g>
     </g>
     <g id="text_1">
      <!-- Alive -->
      <g transform="translate(172.7625 398.653437) scale(0.1 -0.1)">
       <defs>
        <path id="Helvetica-41" d="M 2844 1881 
L 2147 3909 
L 1406 1881 
L 2844 1881 
z
M 1822 4591 
L 2525 4591 
L 4191 0 
L 3509 0 
L 3044 1375 
L 1228 1375 
L 731 0 
L 94 0 
L 1822 4591 
z
" transform="scale(0.015625)"/>
        <path id="Helvetica-6c" d="M 428 4591 
L 991 4591 
L 991 0 
L 428 0 
L 428 4591 
z
" transform="scale(0.015625)"/>
        <path id="Helvetica-69" d="M 413 3331 
L 984 3331 
L 984 0 
L 413 0 
L 413 3331 
z
M 413 4591 
L 984 4591 
L 984 3953 
L 413 3953 
L 413 4591 
z
" transform="scale(0.015625)"/>
        <path id="Helvetica-76" d="M 688 3347 
L 1581 622 
L 2516 3347 
L 3131 3347 
L 1869 0 
L 1269 0 
L 34 3347 
L 688 3347 
z
" transform="scale(0.015625)"/>
        <path id="Helvetica-65" d="M 1806 3422 
Q 2163 3422 2497 3255 
Q 2831 3088 3006 2822 
Q 3175 2569 3231 2231 
Q 3281 2000 3281 1494 
L 828 1494 
Q 844 984 1069 676 
Q 1294 369 1766 369 
Q 2206 369 2469 659 
Q 2619 828 2681 1050 
L 3234 1050 
Q 3213 866 3089 639 
Q 2966 413 2813 269 
Q 2556 19 2178 -69 
Q 1975 -119 1719 -119 
Q 1094 -119 659 336 
Q 225 791 225 1609 
Q 225 2416 662 2919 
Q 1100 3422 1806 3422 
z
M 2703 1941 
Q 2669 2306 2544 2525 
Q 2313 2931 1772 2931 
Q 1384 2931 1121 2651 
Q 859 2372 844 1941 
L 2703 1941 
z
M 1753 3428 
L 1753 3428 
z
" transform="scale(0.015625)"/>
       </defs>
       <use xlink:href="#Helvetica-41"/>
       <use xlink:href="#Helvetica-6c" x="66.699219"/>
       <use xlink:href="#Helvetica-69" x="88.916016"/>
       <use xlink:href="#Helvetica-76" x="111.132812"/>
       <use xlink:href="#Helvetica-65" x="161.132812"/>
      </g>
     </g>
    </g>
    <g id="xtick_2">
     <g id="line2d_2">
      <g>
       <use xlink:href="#mb5c485a111" x="406.8" y="384.48" style="stroke: #000000; stroke-width: 0.8"/>
      </g>
     </g>
     <g id="text_2">
      <!-- Deceased -->
      <g transform="translate(384.286719 398.653437) scale(0.1 -0.1)">
       <defs>
        <path id="Helvetica-44" d="M 2250 531 
Q 2566 531 2769 597 
Q 3131 719 3363 1066 
Q 3547 1344 3628 1778 
Q 3675 2038 3675 2259 
Q 3675 3113 3336 3584 
Q 2997 4056 2244 4056 
L 1141 4056 
L 1141 531 
L 2250 531 
z
M 516 4591 
L 2375 4591 
Q 3322 4591 3844 3919 
Q 4309 3313 4309 2366 
Q 4309 1634 4034 1044 
Q 3550 0 2369 0 
L 516 0 
L 516 4591 
z
" transform="scale(0.015625)"/>
        <path id="Helvetica-63" d="M 1703 3444 
Q 2269 3444 2623 3169 
Q 2978 2894 3050 2222 
L 2503 2222 
Q 2453 2531 2275 2736 
Q 2097 2941 1703 2941 
Q 1166 2941 934 2416 
Q 784 2075 784 1575 
Q 784 1072 996 728 
Q 1209 384 1666 384 
Q 2016 384 2220 598 
Q 2425 813 2503 1184 
L 3050 1184 
Q 2956 519 2581 211 
Q 2206 -97 1622 -97 
Q 966 -97 575 383 
Q 184 863 184 1581 
Q 184 2463 612 2953 
Q 1041 3444 1703 3444 
z
M 1616 3428 
L 1616 3428 
z
" transform="scale(0.015625)"/>
        <path id="Helvetica-61" d="M 844 891 
Q 844 647 1022 506 
Q 1200 366 1444 366 
Q 1741 366 2019 503 
Q 2488 731 2488 1250 
L 2488 1703 
Q 2384 1638 2221 1594 
Q 2059 1550 1903 1531 
L 1563 1488 
Q 1256 1447 1103 1359 
Q 844 1213 844 891 
z
M 2206 2028 
Q 2400 2053 2466 2191 
Q 2503 2266 2503 2406 
Q 2503 2694 2298 2823 
Q 2094 2953 1713 2953 
Q 1272 2953 1088 2716 
Q 984 2584 953 2325 
L 428 2325 
Q 444 2944 830 3186 
Q 1216 3428 1725 3428 
Q 2316 3428 2684 3203 
Q 3050 2978 3050 2503 
L 3050 575 
Q 3050 488 3086 434 
Q 3122 381 3238 381 
Q 3275 381 3322 386 
Q 3369 391 3422 400 
L 3422 -16 
Q 3291 -53 3222 -62 
Q 3153 -72 3034 -72 
Q 2744 -72 2613 134 
Q 2544 244 2516 444 
Q 2344 219 2022 53 
Q 1700 -113 1313 -113 
Q 847 -113 551 170 
Q 256 453 256 878 
Q 256 1344 547 1600 
Q 838 1856 1309 1916 
L 2206 2028 
z
M 1741 3428 
L 1741 3428 
z
" transform="scale(0.015625)"/>
        <path id="Helvetica-73" d="M 747 1050 
Q 772 769 888 619 
Q 1100 347 1625 347 
Q 1938 347 2175 483 
Q 2413 619 2413 903 
Q 2413 1119 2222 1231 
Q 2100 1300 1741 1391 
L 1294 1503 
Q 866 1609 663 1741 
Q 300 1969 300 2372 
Q 300 2847 642 3140 
Q 984 3434 1563 3434 
Q 2319 3434 2653 2991 
Q 2863 2709 2856 2384 
L 2325 2384 
Q 2309 2575 2191 2731 
Q 1997 2953 1519 2953 
Q 1200 2953 1036 2831 
Q 872 2709 872 2509 
Q 872 2291 1088 2159 
Q 1213 2081 1456 2022 
L 1828 1931 
Q 2434 1784 2641 1647 
Q 2969 1431 2969 969 
Q 2969 522 2630 197 
Q 2291 -128 1597 -128 
Q 850 -128 539 211 
Q 228 550 206 1050 
L 747 1050 
z
M 1578 3428 
L 1578 3428 
z
" transform="scale(0.015625)"/>
        <path id="Helvetica-64" d="M 769 1634 
Q 769 1097 997 734 
Q 1225 372 1728 372 
Q 2119 372 2370 708 
Q 2622 1044 2622 1672 
Q 2622 2306 2362 2611 
Q 2103 2916 1722 2916 
Q 1297 2916 1033 2591 
Q 769 2266 769 1634 
z
M 1616 3406 
Q 2000 3406 2259 3244 
Q 2409 3150 2600 2916 
L 2600 4606 
L 3141 4606 
L 3141 0 
L 2634 0 
L 2634 466 
Q 2438 156 2169 18 
Q 1900 -119 1553 -119 
Q 994 -119 584 351 
Q 175 822 175 1603 
Q 175 2334 548 2870 
Q 922 3406 1616 3406 
z
" transform="scale(0.015625)"/>
       </defs>
       <use xlink:href="#Helvetica-44"/>
       <use xlink:href="#Helvetica-65" x="72.216797"/>
       <use xlink:href="#Helvetica-63" x="127.832031"/>
       <use xlink:href="#Helvetica-65" x="177.832031"/>
       <use xlink:href="#Helvetica-61" x="233.447266"/>
       <use xlink:href="#Helvetica-73" x="289.0625"/>
       <use xlink:href="#Helvetica-65" x="339.0625"/>
       <use xlink:href="#Helvetica-64" x="394.677734"/>
      </g>
     </g>
    </g>
    <g id="text_3">
     <!-- Mortality -->
     <g transform="translate(276.309375 411.91125) scale(0.1 -0.1)">
      <defs>
       <path id="Helvetica-4d" d="M 472 4591 
L 1363 4591 
L 2681 709 
L 3991 4591 
L 4872 4591 
L 4872 0 
L 4281 0 
L 4281 2709 
Q 4281 2850 4287 3175 
Q 4294 3500 4294 3872 
L 2984 0 
L 2369 0 
L 1050 3872 
L 1050 3731 
Q 1050 3563 1058 3217 
Q 1066 2872 1066 2709 
L 1066 0 
L 472 0 
L 472 4591 
z
" transform="scale(0.015625)"/>
       <path id="Helvetica-6f" d="M 1741 363 
Q 2300 363 2508 786 
Q 2716 1209 2716 1728 
Q 2716 2197 2566 2491 
Q 2328 2953 1747 2953 
Q 1231 2953 997 2559 
Q 763 2166 763 1609 
Q 763 1075 997 719 
Q 1231 363 1741 363 
z
M 1763 3444 
Q 2409 3444 2856 3012 
Q 3303 2581 3303 1744 
Q 3303 934 2909 406 
Q 2516 -122 1688 -122 
Q 997 -122 590 345 
Q 184 813 184 1600 
Q 184 2444 612 2944 
Q 1041 3444 1763 3444 
z
M 1744 3428 
L 1744 3428 
z
" transform="scale(0.015625)"/>
       <path id="Helvetica-72" d="M 428 3347 
L 963 3347 
L 963 2769 
Q 1028 2938 1284 3180 
Q 1541 3422 1875 3422 
Q 1891 3422 1928 3419 
Q 1966 3416 2056 3406 
L 2056 2813 
Q 2006 2822 1964 2825 
Q 1922 2828 1872 2828 
Q 1447 2828 1219 2554 
Q 991 2281 991 1925 
L 991 0 
L 428 0 
L 428 3347 
z
" transform="scale(0.015625)"/>
       <path id="Helvetica-74" d="M 525 4281 
L 1094 4281 
L 1094 3347 
L 1628 3347 
L 1628 2888 
L 1094 2888 
L 1094 703 
Q 1094 528 1213 469 
Q 1278 434 1431 434 
Q 1472 434 1519 436 
Q 1566 438 1628 444 
L 1628 0 
Q 1531 -28 1426 -40 
Q 1322 -53 1200 -53 
Q 806 -53 665 148 
Q 525 350 525 672 
L 525 2888 
L 72 2888 
L 72 3347 
L 525 3347 
L 525 4281 
z
" transform="scale(0.015625)"/>
       <path id="Helvetica-79" d="M 2503 3347 
L 3125 3347 
Q 3006 3025 2597 1878 
Q 2291 1016 2084 472 
Q 1597 -809 1397 -1090 
Q 1197 -1372 709 -1372 
Q 591 -1372 527 -1362 
Q 463 -1353 369 -1328 
L 369 -816 
Q 516 -856 581 -865 
Q 647 -875 697 -875 
Q 853 -875 926 -823 
Q 1000 -772 1050 -697 
Q 1066 -672 1162 -440 
Q 1259 -209 1303 -97 
L 66 3347 
L 703 3347 
L 1600 622 
L 2503 3347 
z
M 1597 3428 
L 1597 3428 
z
" transform="scale(0.015625)"/>
      </defs>
      <use xlink:href="#Helvetica-4d"/>
      <use xlink:href="#Helvetica-6f" x="83.300781"/>
      <use xlink:href="#Helvetica-72" x="138.916016"/>
      <use xlink:href="#Helvetica-74" x="172.216797"/>
      <use xlink:href="#Helvetica-61" x="200"/>
      <use xlink:href="#Helvetica-6c" x="255.615234"/>
      <use xlink:href="#Helvetica-69" x="277.832031"/>
      <use xlink:href="#Helvetica-74" x="300.048828"/>
      <use xlink:href="#Helvetica-79" x="327.832031"/>
     </g>
    </g>
   </g>
   <g id="matplotlib.axis_2">
    <g id="ytick_1">
     <g id="line2d_3">
      <defs>
       <path id="m7720f94409" d="M 0 0 
L -3.5 0 
" style="stroke: #000000; stroke-width: 0.8"/>
      </defs>
      <g>
       <use xlink:href="#m7720f94409" x="72" y="369.616796" style="stroke: #000000; stroke-width: 0.8"/>
      </g>
     </g>
     <g id="text_4">
      <!-- 0 -->
      <g transform="translate(59.439062 373.203515) scale(0.1 -0.1)">
       <defs>
        <path id="Helvetica-30" d="M 1731 4475 
Q 2600 4475 2988 3759 
Q 3288 3206 3288 2244 
Q 3288 1331 3016 734 
Q 2622 -122 1728 -122 
Q 922 -122 528 578 
Q 200 1163 200 2147 
Q 200 2909 397 3456 
Q 766 4475 1731 4475 
z
M 1725 391 
Q 2163 391 2422 778 
Q 2681 1166 2681 2222 
Q 2681 2984 2493 3476 
Q 2306 3969 1766 3969 
Q 1269 3969 1039 3501 
Q 809 3034 809 2125 
Q 809 1441 956 1025 
Q 1181 391 1725 391 
z
" transform="scale(0.015625)"/>
       </defs>
       <use xlink:href="#Helvetica-30"/>
      </g>
     </g>
    </g>
    <g id="ytick_2">
     <g id="line2d_4">
      <g>
       <use xlink:href="#m7720f94409" x="72" y="306.147706" style="stroke: #000000; stroke-width: 0.8"/>
      </g>
     </g>
     <g id="text_5">
      <!-- 50000 -->
      <g transform="translate(37.195312 309.734425) scale(0.1 -0.1)">
       <defs>
        <path id="Helvetica-35" d="M 791 1141 
Q 847 659 1238 475 
Q 1438 381 1700 381 
Q 2200 381 2440 700 
Q 2681 1019 2681 1406 
Q 2681 1875 2395 2131 
Q 2109 2388 1709 2388 
Q 1419 2388 1211 2275 
Q 1003 2163 856 1963 
L 369 1991 
L 709 4400 
L 3034 4400 
L 3034 3856 
L 1131 3856 
L 941 2613 
Q 1097 2731 1238 2791 
Q 1488 2894 1816 2894 
Q 2431 2894 2859 2497 
Q 3288 2100 3288 1491 
Q 3288 856 2895 371 
Q 2503 -113 1644 -113 
Q 1097 -113 676 195 
Q 256 503 206 1141 
L 791 1141 
z
" transform="scale(0.015625)"/>
       </defs>
       <use xlink:href="#Helvetica-35"/>
       <use xlink:href="#Helvetica-30" x="55.615234"/>
       <use xlink:href="#Helvetica-30" x="111.230469"/>
       <use xlink:href="#Helvetica-30" x="166.845703"/>
       <use xlink:href="#Helvetica-30" x="222.460938"/>
      </g>
     </g>
    </g>
    <g id="ytick_3">
     <g id="line2d_5">
      <g>
       <use xlink:href="#m7720f94409" x="72" y="242.678617" style="stroke: #000000; stroke-width: 0.8"/>
      </g>
     </g>
     <g id="text_6">
      <!-- 100000 -->
      <g transform="translate(31.634375 246.265336) scale(0.1 -0.1)">
       <defs>
        <path id="Helvetica-31" d="M 613 3169 
L 613 3600 
Q 1222 3659 1462 3798 
Q 1703 3938 1822 4456 
L 2266 4456 
L 2266 0 
L 1666 0 
L 1666 3169 
L 613 3169 
z
" transform="scale(0.015625)"/>
       </defs>
       <use xlink:href="#Helvetica-31"/>
       <use xlink:href="#Helvetica-30" x="55.615234"/>
       <use xlink:href="#Helvetica-30" x="111.230469"/>
       <use xlink:href="#Helvetica-30" x="166.845703"/>
       <use xlink:href="#Helvetica-30" x="222.460938"/>
       <use xlink:href="#Helvetica-30" x="278.076172"/>
      </g>
     </g>
    </g>
    <g id="ytick_4">
     <g id="line2d_6">
      <g>
       <use xlink:href="#m7720f94409" x="72" y="179.209528" style="stroke: #000000; stroke-width: 0.8"/>
      </g>
     </g>
     <g id="text_7">
      <!-- 150000 -->
      <g transform="translate(31.634375 182.796246) scale(0.1 -0.1)">
       <use xlink:href="#Helvetica-31"/>
       <use xlink:href="#Helvetica-35" x="55.615234"/>
       <use xlink:href="#Helvetica-30" x="111.230469"/>
       <use xlink:href="#Helvetica-30" x="166.845703"/>
       <use xlink:href="#Helvetica-30" x="222.460938"/>
       <use xlink:href="#Helvetica-30" x="278.076172"/>
      </g>
     </g>
    </g>
    <g id="ytick_5">
     <g id="line2d_7">
      <g>
       <use xlink:href="#m7720f94409" x="72" y="115.740438" style="stroke: #000000; stroke-width: 0.8"/>
      </g>
     </g>
     <g id="text_8">
      <!-- 200000 -->
      <g transform="translate(31.634375 119.327157) scale(0.1 -0.1)">
       <defs>
        <path id="Helvetica-32" d="M 200 0 
Q 231 578 439 1006 
Q 647 1434 1250 1784 
L 1850 2131 
Q 2253 2366 2416 2531 
Q 2672 2791 2672 3125 
Q 2672 3516 2437 3745 
Q 2203 3975 1813 3975 
Q 1234 3975 1013 3538 
Q 894 3303 881 2888 
L 309 2888 
Q 319 3472 525 3841 
Q 891 4491 1816 4491 
Q 2584 4491 2939 4075 
Q 3294 3659 3294 3150 
Q 3294 2613 2916 2231 
Q 2697 2009 2131 1694 
L 1703 1456 
Q 1397 1288 1222 1134 
Q 909 863 828 531 
L 3272 531 
L 3272 0 
L 200 0 
z
" transform="scale(0.015625)"/>
       </defs>
       <use xlink:href="#Helvetica-32"/>
       <use xlink:href="#Helvetica-30" x="55.615234"/>
       <use xlink:href="#Helvetica-30" x="111.230469"/>
       <use xlink:href="#Helvetica-30" x="166.845703"/>
       <use xlink:href="#Helvetica-30" x="222.460938"/>
       <use xlink:href="#Helvetica-30" x="278.076172"/>
      </g>
     </g>
    </g>
    <g id="ytick_6">
     <g id="line2d_8">
      <g>
       <use xlink:href="#m7720f94409" x="72" y="52.271349" style="stroke: #000000; stroke-width: 0.8"/>
      </g>
     </g>
     <g id="text_9">
      <!-- 250000 -->
      <g transform="translate(31.634375 55.858067) scale(0.1 -0.1)">
       <use xlink:href="#Helvetica-32"/>
       <use xlink:href="#Helvetica-35" x="55.615234"/>
       <use xlink:href="#Helvetica-30" x="111.230469"/>
       <use xlink:href="#Helvetica-30" x="166.845703"/>
       <use xlink:href="#Helvetica-30" x="222.460938"/>
       <use xlink:href="#Helvetica-30" x="278.076172"/>
      </g>
     </g>
    </g>
    <g id="text_10">
     <!-- Ddimer Conc (ng/mL) -->
     <g transform="translate(25.421875 265.9475) rotate(-90) scale(0.1 -0.1)">
      <defs>
       <path id="Helvetica-6d" d="M 413 3347 
L 969 3347 
L 969 2872 
Q 1169 3119 1331 3231 
Q 1609 3422 1963 3422 
Q 2363 3422 2606 3225 
Q 2744 3113 2856 2894 
Q 3044 3163 3297 3292 
Q 3550 3422 3866 3422 
Q 4541 3422 4784 2934 
Q 4916 2672 4916 2228 
L 4916 0 
L 4331 0 
L 4331 2325 
Q 4331 2659 4164 2784 
Q 3997 2909 3756 2909 
Q 3425 2909 3186 2687 
Q 2947 2466 2947 1947 
L 2947 0 
L 2375 0 
L 2375 2184 
Q 2375 2525 2294 2681 
Q 2166 2916 1816 2916 
Q 1497 2916 1236 2669 
Q 975 2422 975 1775 
L 975 0 
L 413 0 
L 413 3347 
z
" transform="scale(0.015625)"/>
       <path id="Helvetica-20" transform="scale(0.015625)"/>
       <path id="Helvetica-43" d="M 2422 4716 
Q 3294 4716 3775 4256 
Q 4256 3797 4309 3213 
L 3703 3213 
Q 3600 3656 3292 3915 
Q 2984 4175 2428 4175 
Q 1750 4175 1333 3698 
Q 916 3222 916 2238 
Q 916 1431 1292 929 
Q 1669 428 2416 428 
Q 3103 428 3463 956 
Q 3653 1234 3747 1688 
L 4353 1688 
Q 4272 963 3816 472 
Q 3269 -119 2341 -119 
Q 1541 -119 997 366 
Q 281 1006 281 2344 
Q 281 3359 819 4009 
Q 1400 4716 2422 4716 
z
M 2297 4716 
L 2297 4716 
z
" transform="scale(0.015625)"/>
       <path id="Helvetica-6e" d="M 413 3347 
L 947 3347 
L 947 2872 
Q 1184 3166 1450 3294 
Q 1716 3422 2041 3422 
Q 2753 3422 3003 2925 
Q 3141 2653 3141 2147 
L 3141 0 
L 2569 0 
L 2569 2109 
Q 2569 2416 2478 2603 
Q 2328 2916 1934 2916 
Q 1734 2916 1606 2875 
Q 1375 2806 1200 2600 
Q 1059 2434 1017 2257 
Q 975 2081 975 1753 
L 975 0 
L 413 0 
L 413 3347 
z
M 1734 3428 
L 1734 3428 
z
" transform="scale(0.015625)"/>
       <path id="Helvetica-28" d="M 1894 4666 
Q 1403 3713 1256 3263 
Q 1034 2578 1034 1681 
Q 1034 775 1288 25 
Q 1444 -438 1903 -1306 
L 1525 -1306 
Q 1069 -594 959 -397 
Q 850 -200 722 138 
Q 547 600 478 1125 
Q 444 1397 444 1644 
Q 444 2569 734 3291 
Q 919 3750 1503 4666 
L 1894 4666 
z
" transform="scale(0.015625)"/>
       <path id="Helvetica-67" d="M 1594 3406 
Q 1988 3406 2281 3213 
Q 2441 3103 2606 2894 
L 2606 3316 
L 3125 3316 
L 3125 272 
Q 3125 -366 2938 -734 
Q 2588 -1416 1616 -1416 
Q 1075 -1416 706 -1173 
Q 338 -931 294 -416 
L 866 -416 
Q 906 -641 1028 -763 
Q 1219 -950 1628 -950 
Q 2275 -950 2475 -494 
Q 2594 -225 2584 466 
Q 2416 209 2178 84 
Q 1941 -41 1550 -41 
Q 1006 -41 598 345 
Q 191 731 191 1622 
Q 191 2463 602 2934 
Q 1013 3406 1594 3406 
z
M 2606 1688 
Q 2606 2309 2350 2609 
Q 2094 2909 1697 2909 
Q 1103 2909 884 2353 
Q 769 2056 769 1575 
Q 769 1009 998 714 
Q 1228 419 1616 419 
Q 2222 419 2469 966 
Q 2606 1275 2606 1688 
z
M 1659 3428 
L 1659 3428 
z
" transform="scale(0.015625)"/>
       <path id="Helvetica-2f" d="M 1456 4591 
L 1931 4591 
L 475 0 
L 0 0 
L 1456 4591 
z
" transform="scale(0.015625)"/>
       <path id="Helvetica-4c" d="M 488 4591 
L 1109 4591 
L 1109 547 
L 3434 547 
L 3434 0 
L 488 0 
L 488 4591 
z
" transform="scale(0.015625)"/>
       <path id="Helvetica-29" d="M 222 -1306 
Q 719 -338 863 106 
Q 1081 778 1081 1681 
Q 1081 2584 828 3334 
Q 672 3797 213 4666 
L 591 4666 
Q 1072 3897 1173 3717 
Q 1275 3538 1394 3222 
Q 1544 2831 1608 2450 
Q 1672 2069 1672 1716 
Q 1672 791 1378 66 
Q 1194 -400 613 -1306 
L 222 -1306 
z
" transform="scale(0.015625)"/>
      </defs>
      <use xlink:href="#Helvetica-44"/>
      <use xlink:href="#Helvetica-64" x="72.216797"/>
      <use xlink:href="#Helvetica-69" x="127.832031"/>
      <use xlink:href="#Helvetica-6d" x="150.048828"/>
      <use xlink:href="#Helvetica-65" x="233.349609"/>
      <use xlink:href="#Helvetica-72" x="288.964844"/>
      <use xlink:href="#Helvetica-20" x="322.265625"/>
      <use xlink:href="#Helvetica-43" x="350.048828"/>
      <use xlink:href="#Helvetica-6f" x="422.265625"/>
      <use xlink:href="#Helvetica-6e" x="477.880859"/>
      <use xlink:href="#Helvetica-63" x="533.496094"/>
      <use xlink:href="#Helvetica-20" x="583.496094"/>
      <use xlink:href="#Helvetica-28" x="611.279297"/>
      <use xlink:href="#Helvetica-6e" x="644.580078"/>
      <use xlink:href="#Helvetica-67" x="700.195312"/>
      <use xlink:href="#Helvetica-2f" x="755.810547"/>
      <use xlink:href="#Helvetica-6d" x="783.59375"/>
      <use xlink:href="#Helvetica-4c" x="866.894531"/>
      <use xlink:href="#Helvetica-29" x="922.509766"/>
     </g>
    </g>
   </g>
   <g id="patch_3">
    <path d="M 72 384.48 
L 72 51.84 
" style="fill: none; stroke: #000000; stroke-width: 0.8; stroke-linejoin: miter; stroke-linecap: square"/>
   </g>
   <g id="patch_4">
    <path d="M 518.4 384.48 
L 518.4 51.84 
" style="fill: none; stroke: #000000; stroke-width: 0.8; stroke-linejoin: miter; stroke-linecap: square"/>
   </g>
   <g id="patch_5">
    <path d="M 72 384.48 
L 518.4 384.48 
" style="fill: none; stroke: #000000; stroke-width: 0.8; stroke-linejoin: miter; stroke-linecap: square"/>
   </g>
   <g id="patch_6">
    <path d="M 72 51.84 
L 518.4 51.84 
" style="fill: none; stroke: #000000; stroke-width: 0.8; stroke-linejoin: miter; stroke-linecap: square"/>
   </g>
   <g id="PathCollection_3">
    <defs>
     <path id="C0_0_e45e68ae2c" d="M 0 3 
C 0.795609 3 1.55874 2.683901 2.12132 2.12132 
C 2.683901 1.55874 3 0.795609 3 -0 
C 3 -0.795609 2.683901 -1.55874 2.12132 -2.12132 
C 1.55874 -2.683901 0.795609 -3 0 -3 
C -0.795609 -3 -1.55874 -2.683901 -2.12132 -2.12132 
C -2.683901 -1.55874 -3 -0.795609 -3 0 
C -3 0.795609 -2.683901 1.55874 -2.12132 2.12132 
C -1.55874 2.683901 -0.795609 3 0 3 
z
"/>
    </defs>
    <g clip-path="url(#p54028285c8)">
     <use xlink:href="#C0_0_e45e68ae2c" x="127.285776" y="364.714443" style="fill: #87ceeb"/>
    </g>
    <g clip-path="url(#p54028285c8)">
     <use xlink:href="#C0_0_e45e68ae2c" x="177.3" y="369.357842" style="fill: #87ceeb"/>
    </g>
    <g clip-path="url(#p54028285c8)">
     <use xlink:href="#C0_0_e45e68ae2c" x="171.018056" y="368.903911" style="fill: #87ceeb"/>
    </g>
    <g clip-path="url(#p54028285c8)">
     <use xlink:href="#C0_0_e45e68ae2c" x="189.228106" y="360.082469" style="fill: #87ceeb"/>
    </g>
    <g clip-path="url(#p54028285c8)">
     <use xlink:href="#C0_0_e45e68ae2c" x="183.6" y="356.171504" style="fill: #87ceeb"/>
    </g>
    <g clip-path="url(#p54028285c8)">
     <use xlink:href="#C0_0_e45e68ae2c" x="183.6" y="369.36" style="fill: #87ceeb"/>
    </g>
    <g clip-path="url(#p54028285c8)">
     <use xlink:href="#C0_0_e45e68ae2c" x="183.6" y="342.330165" style="fill: #87ceeb"/>
    </g>
    <g clip-path="url(#p54028285c8)">
     <use xlink:href="#C0_0_e45e68ae2c" x="215.025424" y="367.721609" style="fill: #87ceeb"/>
    </g>
    <g clip-path="url(#p54028285c8)">
     <use xlink:href="#C0_0_e45e68ae2c" x="189.896248" y="369.152964" style="fill: #87ceeb"/>
    </g>
    <g clip-path="url(#p54028285c8)">
     <use xlink:href="#C0_0_e45e68ae2c" x="233.677172" y="365.054638" style="fill: #87ceeb"/>
    </g>
    <g clip-path="url(#p54028285c8)">
     <use xlink:href="#C0_0_e45e68ae2c" x="194.779407" y="344.362445" style="fill: #87ceeb"/>
    </g>
    <g clip-path="url(#p54028285c8)">
     <use xlink:href="#C0_0_e45e68ae2c" x="145.893322" y="367.449961" style="fill: #87ceeb"/>
    </g>
    <g clip-path="url(#p54028285c8)">
     <use xlink:href="#C0_0_e45e68ae2c" x="194.940467" y="351.011467" style="fill: #87ceeb"/>
    </g>
    <g clip-path="url(#p54028285c8)">
     <use xlink:href="#C0_0_e45e68ae2c" x="208.725438" y="367.734303" style="fill: #87ceeb"/>
    </g>
    <g clip-path="url(#p54028285c8)">
     <use xlink:href="#C0_0_e45e68ae2c" x="152.186244" y="367.734303" style="fill: #87ceeb"/>
    </g>
    <g clip-path="url(#p54028285c8)">
     <use xlink:href="#C0_0_e45e68ae2c" x="158.482168" y="367.950098" style="fill: #87ceeb"/>
    </g>
    <g clip-path="url(#p54028285c8)">
     <use xlink:href="#C0_0_e45e68ae2c" x="239.956238" y="364.565926" style="fill: #87ceeb"/>
    </g>
    <g clip-path="url(#p54028285c8)">
     <use xlink:href="#C0_0_e45e68ae2c" x="133.474871" y="365.835308" style="fill: #87ceeb"/>
    </g>
    <g clip-path="url(#p54028285c8)">
     <use xlink:href="#C0_0_e45e68ae2c" x="164.781173" y="368.056726" style="fill: #87ceeb"/>
    </g>
    <g clip-path="url(#p54028285c8)">
     <use xlink:href="#C0_0_e45e68ae2c" x="177.64009" y="347.544785" style="fill: #87ceeb"/>
    </g>
    <g clip-path="url(#p54028285c8)">
     <use xlink:href="#C0_0_e45e68ae2c" x="172.129212" y="352.693398" style="fill: #87ceeb"/>
    </g>
    <g clip-path="url(#p54028285c8)">
     <use xlink:href="#C0_0_e45e68ae2c" x="188.71443" y="345.985985" style="fill: #87ceeb"/>
    </g>
    <g clip-path="url(#p54028285c8)">
     <use xlink:href="#C0_0_e45e68ae2c" x="183.6" y="332.704443" style="fill: #87ceeb"/>
    </g>
    <g clip-path="url(#p54028285c8)">
     <use xlink:href="#C0_0_e45e68ae2c" x="183.6" y="304.583828" style="fill: #87ceeb"/>
    </g>
    <g clip-path="url(#p54028285c8)">
     <use xlink:href="#C0_0_e45e68ae2c" x="177.300226" y="356.120729" style="fill: #87ceeb"/>
    </g>
    <g clip-path="url(#p54028285c8)">
     <use xlink:href="#C0_0_e45e68ae2c" x="187.685614" y="337.762929" style="fill: #87ceeb"/>
    </g>
    <g clip-path="url(#p54028285c8)">
     <use xlink:href="#C0_0_e45e68ae2c" x="189.872645" y="332.145915" style="fill: #87ceeb"/>
    </g>
    <g clip-path="url(#p54028285c8)">
     <use xlink:href="#C0_0_e45e68ae2c" x="185.640114" y="318.239837" style="fill: #87ceeb"/>
    </g>
    <g clip-path="url(#p54028285c8)">
     <use xlink:href="#C0_0_e45e68ae2c" x="189.077606" y="353.207498" style="fill: #87ceeb"/>
    </g>
    <g clip-path="url(#p54028285c8)">
     <use xlink:href="#C0_0_e45e68ae2c" x="139.596754" y="367.251938" style="fill: #87ceeb"/>
    </g>
    <g clip-path="url(#p54028285c8)">
     <use xlink:href="#C0_0_e45e68ae2c" x="183.6" y="349.489478" style="fill: #87ceeb"/>
    </g>
    <g clip-path="url(#p54028285c8)">
     <use xlink:href="#C0_0_e45e68ae2c" x="227.460481" y="366.027164" style="fill: #87ceeb"/>
    </g>
    <g clip-path="url(#p54028285c8)">
     <use xlink:href="#C0_0_e45e68ae2c" x="183.6" y="263.992807" style="fill: #87ceeb"/>
    </g>
    <g clip-path="url(#p54028285c8)">
     <use xlink:href="#C0_0_e45e68ae2c" x="202.432204" y="368.012297" style="fill: #87ceeb"/>
    </g>
    <g clip-path="url(#p54028285c8)">
     <use xlink:href="#C0_0_e45e68ae2c" x="183.6" y="324.213548" style="fill: #87ceeb"/>
    </g>
    <g clip-path="url(#p54028285c8)">
     <use xlink:href="#C0_0_e45e68ae2c" x="183.6" y="362.778636" style="fill: #87ceeb"/>
    </g>
    <g clip-path="url(#p54028285c8)">
     <use xlink:href="#C0_0_e45e68ae2c" x="183.6" y="285.574836" style="fill: #87ceeb"/>
    </g>
    <g clip-path="url(#p54028285c8)">
     <use xlink:href="#C0_0_e45e68ae2c" x="191.936321" y="318.031659" style="fill: #87ceeb"/>
    </g>
    <g clip-path="url(#p54028285c8)">
     <use xlink:href="#C0_0_e45e68ae2c" x="183.6" y="157.630037" style="fill: #87ceeb"/>
    </g>
    <g clip-path="url(#p54028285c8)">
     <use xlink:href="#C0_0_e45e68ae2c" x="221.312481" y="367.337198" style="fill: #87ceeb"/>
    </g>
    <g clip-path="url(#p54028285c8)">
     <use xlink:href="#C0_0_e45e68ae2c" x="196.184138" y="368.78112" style="fill: #87ceeb"/>
    </g>
    <g clip-path="url(#p54028285c8)">
     <use xlink:href="#C0_0_e45e68ae2c" x="183.6" y="235.823955" style="fill: #87ceeb"/>
    </g>
    <g clip-path="url(#p54028285c8)">
     <use xlink:href="#C0_0_e45e68ae2c" x="179.515434" y="319.645462" style="fill: #87ceeb"/>
    </g>
    <g clip-path="url(#p54028285c8)">
     <use xlink:href="#C0_0_e45e68ae2c" x="183.6" y="226.864278" style="fill: #87ceeb"/>
    </g>
    <g clip-path="url(#p54028285c8)">
     <use xlink:href="#C0_0_e45e68ae2c" x="176.5946" y="341.627981" style="fill: #87ceeb"/>
    </g>
   </g>
   <g id="PathCollection_4">
    <defs>
     <path id="C1_0_401edfa380" d="M 0 3 
C 0.795609 3 1.55874 2.683901 2.12132 2.12132 
C 2.683901 1.55874 3 0.795609 3 -0 
C 3 -0.795609 2.683901 -1.55874 2.12132 -2.12132 
C 1.55874 -2.683901 0.795609 -3 0 -3 
C -0.795609 -3 -1.55874 -2.683901 -2.12132 -2.12132 
C -2.683901 -1.55874 -3 -0.795609 -3 0 
C -3 0.795609 -2.683901 1.55874 -2.12132 2.12132 
C -1.55874 2.683901 -0.795609 3 0 3 
z
"/>
    </defs>
    <g clip-path="url(#p54028285c8)">
     <use xlink:href="#C1_0_401edfa380" x="406.8" y="207.135927" style="fill: #fa8072"/>
    </g>
    <g clip-path="url(#p54028285c8)">
     <use xlink:href="#C1_0_401edfa380" x="406.8" y="298.268654" style="fill: #fa8072"/>
    </g>
    <g clip-path="url(#p54028285c8)">
     <use xlink:href="#C1_0_401edfa380" x="406.8" y="213.239115" style="fill: #fa8072"/>
    </g>
    <g clip-path="url(#p54028285c8)">
     <use xlink:href="#C1_0_401edfa380" x="401.899006" y="328.059775" style="fill: #fa8072"/>
    </g>
    <g clip-path="url(#p54028285c8)">
     <use xlink:href="#C1_0_401edfa380" x="406.8" y="310.010435" style="fill: #fa8072"/>
    </g>
    <g clip-path="url(#p54028285c8)">
     <use xlink:href="#C1_0_401edfa380" x="406.8" y="356.133423" style="fill: #fa8072"/>
    </g>
    <g clip-path="url(#p54028285c8)">
     <use xlink:href="#C1_0_401edfa380" x="400.512787" y="355.751339" style="fill: #fa8072"/>
    </g>
    <g clip-path="url(#p54028285c8)">
     <use xlink:href="#C1_0_401edfa380" x="403.542911" y="293.132735" style="fill: #fa8072"/>
    </g>
    <g clip-path="url(#p54028285c8)">
     <use xlink:href="#C1_0_401edfa380" x="408.494311" y="316.155513" style="fill: #fa8072"/>
    </g>
    <g clip-path="url(#p54028285c8)">
     <use xlink:href="#C1_0_401edfa380" x="413.099573" y="324.142463" style="fill: #fa8072"/>
    </g>
    <g clip-path="url(#p54028285c8)">
     <use xlink:href="#C1_0_401edfa380" x="401.431065" y="306.871254" style="fill: #fa8072"/>
    </g>
    <g clip-path="url(#p54028285c8)">
     <use xlink:href="#C1_0_401edfa380" x="406.8" y="324.212279" style="fill: #fa8072"/>
    </g>
    <g clip-path="url(#p54028285c8)">
     <use xlink:href="#C1_0_401edfa380" x="406.8" y="331.829839" style="fill: #fa8072"/>
    </g>
    <g clip-path="url(#p54028285c8)">
     <use xlink:href="#C1_0_401edfa380" x="403.145146" y="319.325159" style="fill: #fa8072"/>
    </g>
    <g clip-path="url(#p54028285c8)">
     <use xlink:href="#C1_0_401edfa380" x="406.8" y="284.094737" style="fill: #fa8072"/>
    </g>
    <g clip-path="url(#p54028285c8)">
     <use xlink:href="#C1_0_401edfa380" x="406.8" y="226.128417" style="fill: #fa8072"/>
    </g>
    <g clip-path="url(#p54028285c8)">
     <use xlink:href="#C1_0_401edfa380" x="406.8" y="66.96" style="fill: #fa8072"/>
    </g>
    <g clip-path="url(#p54028285c8)">
     <use xlink:href="#C1_0_401edfa380" x="401.074477" y="281.591516" style="fill: #fa8072"/>
    </g>
   </g>
   <g id="legend_1">
    <g id="patch_7">
     <path d="M 434.373437 102.672812 
L 511.4 102.672812 
Q 513.4 102.672812 513.4 100.672812 
L 513.4 58.84 
Q 513.4 56.84 511.4 56.84 
L 434.373437 56.84 
Q 432.373437 56.84 432.373437 58.84 
L 432.373437 100.672812 
Q 432.373437 102.672812 434.373437 102.672812 
z
" style="fill: #ffffff; opacity: 0.8; stroke: #cccccc; stroke-linejoin: miter"/>
    </g>
    <g id="text_11">
     <!-- Mortality -->
     <g transform="translate(453.996094 68.013437) scale(0.1 -0.1)">
      <use xlink:href="#Helvetica-4d"/>
      <use xlink:href="#Helvetica-6f" x="83.300781"/>
      <use xlink:href="#Helvetica-72" x="138.916016"/>
      <use xlink:href="#Helvetica-74" x="172.216797"/>
      <use xlink:href="#Helvetica-61" x="200"/>
      <use xlink:href="#Helvetica-6c" x="255.615234"/>
      <use xlink:href="#Helvetica-69" x="277.832031"/>
      <use xlink:href="#Helvetica-74" x="300.048828"/>
      <use xlink:href="#Helvetica-79" x="327.832031"/>
     </g>
    </g>
    <g id="PathCollection_5">
     <path d="M 446.373437 82.705625 
C 447.169047 82.705625 447.932177 82.389526 448.494758 81.826945 
C 449.057339 81.264365 449.373437 80.501234 449.373437 79.705625 
C 449.373437 78.910016 449.057339 78.146885 448.494758 77.584305 
C 447.932177 77.021724 447.169047 76.705625 446.373437 76.705625 
C 445.577828 76.705625 444.814698 77.021724 444.252117 77.584305 
C 443.689536 78.146885 443.373437 78.910016 443.373437 79.705625 
C 443.373437 80.501234 443.689536 81.264365 444.252117 81.826945 
C 444.814698 82.389526 445.577828 82.705625 446.373437 82.705625 
z
" style="fill: #87ceeb"/>
    </g>
    <g id="text_12">
     <!-- Alive -->
     <g transform="translate(464.373437 82.330625) scale(0.1 -0.1)">
      <use xlink:href="#Helvetica-41"/>
      <use xlink:href="#Helvetica-6c" x="66.699219"/>
      <use xlink:href="#Helvetica-69" x="88.916016"/>
      <use xlink:href="#Helvetica-76" x="111.132812"/>
      <use xlink:href="#Helvetica-65" x="161.132812"/>
     </g>
    </g>
    <g id="PathCollection_6">
     <path d="M 446.373437 96.963437 
C 447.169047 96.963437 447.932177 96.647339 448.494758 96.084758 
C 449.057339 95.522177 449.373437 94.759047 449.373437 93.963437 
C 449.373437 93.167828 449.057339 92.404698 448.494758 91.842117 
C 447.932177 91.279536 447.169047 90.963437 446.373437 90.963437 
C 445.577828 90.963437 444.814698 91.279536 444.252117 91.842117 
C 443.689536 92.404698 443.373437 93.167828 443.373437 93.963437 
C 443.373437 94.759047 443.689536 95.522177 444.252117 96.084758 
C 444.814698 96.647339 445.577828 96.963437 446.373437 96.963437 
z
" style="fill: #fa8072"/>
    </g>
    <g id="text_13">
     <!-- Deceased -->
     <g transform="translate(464.373437 96.588437) scale(0.1 -0.1)">
      <use xlink:href="#Helvetica-44"/>
      <use xlink:href="#Helvetica-65" x="72.216797"/>
      <use xlink:href="#Helvetica-63" x="127.832031"/>
      <use xlink:href="#Helvetica-65" x="177.832031"/>
      <use xlink:href="#Helvetica-61" x="233.447266"/>
      <use xlink:href="#Helvetica-73" x="289.0625"/>
      <use xlink:href="#Helvetica-65" x="339.0625"/>
      <use xlink:href="#Helvetica-64" x="394.677734"/>
     </g>
    </g>
   </g>
  </g>
 </g>
 <defs>
  <clipPath id="p54028285c8">
   <rect x="72" y="51.84" width="446.4" height="332.64"/>
  </clipPath>
 </defs>
</svg>
