<?xml version="1.0" encoding="utf-8" standalone="no"?>
<!DOCTYPE svg PUBLIC "-//W3C//DTD SVG 1.1//EN"
  "http://www.w3.org/Graphics/SVG/1.1/DTD/svg11.dtd">
<svg xmlns:xlink="http://www.w3.org/1999/xlink" width="576pt" height="432pt" viewBox="0 0 576 432" xmlns="http://www.w3.org/2000/svg" version="1.1">
 <metadata>
  <rdf:RDF xmlns:dc="http://purl.org/dc/elements/1.1/" xmlns:cc="http://creativecommons.org/ns#" xmlns:rdf="http://www.w3.org/1999/02/22-rdf-syntax-ns#">
   <cc:Work>
    <dc:type rdf:resource="http://purl.org/dc/dcmitype/StillImage"/>
    <dc:date>2023-11-06T20:58:55.701589</dc:date>
    <dc:format>image/svg+xml</dc:format>
    <dc:creator>
     <cc:Agent>
      <dc:title>Matplotlib v3.7.2, https://matplotlib.org/</dc:title>
     </cc:Agent>
    </dc:creator>
   </cc:Work>
  </rdf:RDF>
 </metadata>
 <defs>
  <style type="text/css">*{stroke-linejoin: round; stroke-linecap: butt}</style>
 </defs>
 <g id="figure_1">
  <g id="patch_1">
   <path d="M 0 432 
L 576 432 
L 576 0 
L 0 0 
z
" style="fill: #ffffff"/>
  </g>
  <g id="axes_1">
   <g id="patch_2">
    <path d="M 72 384.48 
L 518.4 384.48 
L 518.4 51.84 
L 72 51.84 
z
" style="fill: #ffffff"/>
   </g>
   <g id="PathCollection_1"/>
   <g id="PathCollection_2"/>
   <g id="matplotlib.axis_1">
    <g id="xtick_1">
     <g id="line2d_1">
      <defs>
       <path id="mcdfbebd73e" d="M 0 0 
L 0 3.5 
" style="stroke: #000000; stroke-width: 0.8"/>
      </defs>
      <g>
       <use xlink:href="#mcdfbebd73e" x="183.6" y="384.48" style="stroke: #000000; stroke-width: 0.8"/>
      </g>
     </g>
     <g id="text_1">
      <!-- Alive -->
      <g transform="translate(172.7625 398.653437) scale(0.1 -0.1)">
       <defs>
        <path id="Helvetica-41" d="M 2844 1881 
L 2147 3909 
L 1406 1881 
L 2844 1881 
z
M 1822 4591 
L 2525 4591 
L 4191 0 
L 3509 0 
L 3044 1375 
L 1228 1375 
L 731 0 
L 94 0 
L 1822 4591 
z
" transform="scale(0.015625)"/>
        <path id="Helvetica-6c" d="M 428 4591 
L 991 4591 
L 991 0 
L 428 0 
L 428 4591 
z
" transform="scale(0.015625)"/>
        <path id="Helvetica-69" d="M 413 3331 
L 984 3331 
L 984 0 
L 413 0 
L 413 3331 
z
M 413 4591 
L 984 4591 
L 984 3953 
L 413 3953 
L 413 4591 
z
" transform="scale(0.015625)"/>
        <path id="Helvetica-76" d="M 688 3347 
L 1581 622 
L 2516 3347 
L 3131 3347 
L 1869 0 
L 1269 0 
L 34 3347 
L 688 3347 
z
" transform="scale(0.015625)"/>
        <path id="Helvetica-65" d="M 1806 3422 
Q 2163 3422 2497 3255 
Q 2831 3088 3006 2822 
Q 3175 2569 3231 2231 
Q 3281 2000 3281 1494 
L 828 1494 
Q 844 984 1069 676 
Q 1294 369 1766 369 
Q 2206 369 2469 659 
Q 2619 828 2681 1050 
L 3234 1050 
Q 3213 866 3089 639 
Q 2966 413 2813 269 
Q 2556 19 2178 -69 
Q 1975 -119 1719 -119 
Q 1094 -119 659 336 
Q 225 791 225 1609 
Q 225 2416 662 2919 
Q 1100 3422 1806 3422 
z
M 2703 1941 
Q 2669 2306 2544 2525 
Q 2313 2931 1772 2931 
Q 1384 2931 1121 2651 
Q 859 2372 844 1941 
L 2703 1941 
z
M 1753 3428 
L 1753 3428 
z
" transform="scale(0.015625)"/>
       </defs>
       <use xlink:href="#Helvetica-41"/>
       <use xlink:href="#Helvetica-6c" x="66.699219"/>
       <use xlink:href="#Helvetica-69" x="88.916016"/>
       <use xlink:href="#Helvetica-76" x="111.132812"/>
       <use xlink:href="#Helvetica-65" x="161.132812"/>
      </g>
     </g>
    </g>
    <g id="xtick_2">
     <g id="line2d_2">
      <g>
       <use xlink:href="#mcdfbebd73e" x="406.8" y="384.48" style="stroke: #000000; stroke-width: 0.8"/>
      </g>
     </g>
     <g id="text_2">
      <!-- Deceased -->
      <g transform="translate(384.286719 398.653437) scale(0.1 -0.1)">
       <defs>
        <path id="Helvetica-44" d="M 2250 531 
Q 2566 531 2769 597 
Q 3131 719 3363 1066 
Q 3547 1344 3628 1778 
Q 3675 2038 3675 2259 
Q 3675 3113 3336 3584 
Q 2997 4056 2244 4056 
L 1141 4056 
L 1141 531 
L 2250 531 
z
M 516 4591 
L 2375 4591 
Q 3322 4591 3844 3919 
Q 4309 3313 4309 2366 
Q 4309 1634 4034 1044 
Q 3550 0 2369 0 
L 516 0 
L 516 4591 
z
" transform="scale(0.015625)"/>
        <path id="Helvetica-63" d="M 1703 3444 
Q 2269 3444 2623 3169 
Q 2978 2894 3050 2222 
L 2503 2222 
Q 2453 2531 2275 2736 
Q 2097 2941 1703 2941 
Q 1166 2941 934 2416 
Q 784 2075 784 1575 
Q 784 1072 996 728 
Q 1209 384 1666 384 
Q 2016 384 2220 598 
Q 2425 813 2503 1184 
L 3050 1184 
Q 2956 519 2581 211 
Q 2206 -97 1622 -97 
Q 966 -97 575 383 
Q 184 863 184 1581 
Q 184 2463 612 2953 
Q 1041 3444 1703 3444 
z
M 1616 3428 
L 1616 3428 
z
" transform="scale(0.015625)"/>
        <path id="Helvetica-61" d="M 844 891 
Q 844 647 1022 506 
Q 1200 366 1444 366 
Q 1741 366 2019 503 
Q 2488 731 2488 1250 
L 2488 1703 
Q 2384 1638 2221 1594 
Q 2059 1550 1903 1531 
L 1563 1488 
Q 1256 1447 1103 1359 
Q 844 1213 844 891 
z
M 2206 2028 
Q 2400 2053 2466 2191 
Q 2503 2266 2503 2406 
Q 2503 2694 2298 2823 
Q 2094 2953 1713 2953 
Q 1272 2953 1088 2716 
Q 984 2584 953 2325 
L 428 2325 
Q 444 2944 830 3186 
Q 1216 3428 1725 3428 
Q 2316 3428 2684 3203 
Q 3050 2978 3050 2503 
L 3050 575 
Q 3050 488 3086 434 
Q 3122 381 3238 381 
Q 3275 381 3322 386 
Q 3369 391 3422 400 
L 3422 -16 
Q 3291 -53 3222 -62 
Q 3153 -72 3034 -72 
Q 2744 -72 2613 134 
Q 2544 244 2516 444 
Q 2344 219 2022 53 
Q 1700 -113 1313 -113 
Q 847 -113 551 170 
Q 256 453 256 878 
Q 256 1344 547 1600 
Q 838 1856 1309 1916 
L 2206 2028 
z
M 1741 3428 
L 1741 3428 
z
" transform="scale(0.015625)"/>
        <path id="Helvetica-73" d="M 747 1050 
Q 772 769 888 619 
Q 1100 347 1625 347 
Q 1938 347 2175 483 
Q 2413 619 2413 903 
Q 2413 1119 2222 1231 
Q 2100 1300 1741 1391 
L 1294 1503 
Q 866 1609 663 1741 
Q 300 1969 300 2372 
Q 300 2847 642 3140 
Q 984 3434 1563 3434 
Q 2319 3434 2653 2991 
Q 2863 2709 2856 2384 
L 2325 2384 
Q 2309 2575 2191 2731 
Q 1997 2953 1519 2953 
Q 1200 2953 1036 2831 
Q 872 2709 872 2509 
Q 872 2291 1088 2159 
Q 1213 2081 1456 2022 
L 1828 1931 
Q 2434 1784 2641 1647 
Q 2969 1431 2969 969 
Q 2969 522 2630 197 
Q 2291 -128 1597 -128 
Q 850 -128 539 211 
Q 228 550 206 1050 
L 747 1050 
z
M 1578 3428 
L 1578 3428 
z
" transform="scale(0.015625)"/>
        <path id="Helvetica-64" d="M 769 1634 
Q 769 1097 997 734 
Q 1225 372 1728 372 
Q 2119 372 2370 708 
Q 2622 1044 2622 1672 
Q 2622 2306 2362 2611 
Q 2103 2916 1722 2916 
Q 1297 2916 1033 2591 
Q 769 2266 769 1634 
z
M 1616 3406 
Q 2000 3406 2259 3244 
Q 2409 3150 2600 2916 
L 2600 4606 
L 3141 4606 
L 3141 0 
L 2634 0 
L 2634 466 
Q 2438 156 2169 18 
Q 1900 -119 1553 -119 
Q 994 -119 584 351 
Q 175 822 175 1603 
Q 175 2334 548 2870 
Q 922 3406 1616 3406 
z
" transform="scale(0.015625)"/>
       </defs>
       <use xlink:href="#Helvetica-44"/>
       <use xlink:href="#Helvetica-65" x="72.216797"/>
       <use xlink:href="#Helvetica-63" x="127.832031"/>
       <use xlink:href="#Helvetica-65" x="177.832031"/>
       <use xlink:href="#Helvetica-61" x="233.447266"/>
       <use xlink:href="#Helvetica-73" x="289.0625"/>
       <use xlink:href="#Helvetica-65" x="339.0625"/>
       <use xlink:href="#Helvetica-64" x="394.677734"/>
      </g>
     </g>
    </g>
    <g id="text_3">
     <!-- Mortality -->
     <g transform="translate(276.309375 411.91125) scale(0.1 -0.1)">
      <defs>
       <path id="Helvetica-4d" d="M 472 4591 
L 1363 4591 
L 2681 709 
L 3991 4591 
L 4872 4591 
L 4872 0 
L 4281 0 
L 4281 2709 
Q 4281 2850 4287 3175 
Q 4294 3500 4294 3872 
L 2984 0 
L 2369 0 
L 1050 3872 
L 1050 3731 
Q 1050 3563 1058 3217 
Q 1066 2872 1066 2709 
L 1066 0 
L 472 0 
L 472 4591 
z
" transform="scale(0.015625)"/>
       <path id="Helvetica-6f" d="M 1741 363 
Q 2300 363 2508 786 
Q 2716 1209 2716 1728 
Q 2716 2197 2566 2491 
Q 2328 2953 1747 2953 
Q 1231 2953 997 2559 
Q 763 2166 763 1609 
Q 763 1075 997 719 
Q 1231 363 1741 363 
z
M 1763 3444 
Q 2409 3444 2856 3012 
Q 3303 2581 3303 1744 
Q 3303 934 2909 406 
Q 2516 -122 1688 -122 
Q 997 -122 590 345 
Q 184 813 184 1600 
Q 184 2444 612 2944 
Q 1041 3444 1763 3444 
z
M 1744 3428 
L 1744 3428 
z
" transform="scale(0.015625)"/>
       <path id="Helvetica-72" d="M 428 3347 
L 963 3347 
L 963 2769 
Q 1028 2938 1284 3180 
Q 1541 3422 1875 3422 
Q 1891 3422 1928 3419 
Q 1966 3416 2056 3406 
L 2056 2813 
Q 2006 2822 1964 2825 
Q 1922 2828 1872 2828 
Q 1447 2828 1219 2554 
Q 991 2281 991 1925 
L 991 0 
L 428 0 
L 428 3347 
z
" transform="scale(0.015625)"/>
       <path id="Helvetica-74" d="M 525 4281 
L 1094 4281 
L 1094 3347 
L 1628 3347 
L 1628 2888 
L 1094 2888 
L 1094 703 
Q 1094 528 1213 469 
Q 1278 434 1431 434 
Q 1472 434 1519 436 
Q 1566 438 1628 444 
L 1628 0 
Q 1531 -28 1426 -40 
Q 1322 -53 1200 -53 
Q 806 -53 665 148 
Q 525 350 525 672 
L 525 2888 
L 72 2888 
L 72 3347 
L 525 3347 
L 525 4281 
z
" transform="scale(0.015625)"/>
       <path id="Helvetica-79" d="M 2503 3347 
L 3125 3347 
Q 3006 3025 2597 1878 
Q 2291 1016 2084 472 
Q 1597 -809 1397 -1090 
Q 1197 -1372 709 -1372 
Q 591 -1372 527 -1362 
Q 463 -1353 369 -1328 
L 369 -816 
Q 516 -856 581 -865 
Q 647 -875 697 -875 
Q 853 -875 926 -823 
Q 1000 -772 1050 -697 
Q 1066 -672 1162 -440 
Q 1259 -209 1303 -97 
L 66 3347 
L 703 3347 
L 1600 622 
L 2503 3347 
z
M 1597 3428 
L 1597 3428 
z
" transform="scale(0.015625)"/>
      </defs>
      <use xlink:href="#Helvetica-4d"/>
      <use xlink:href="#Helvetica-6f" x="83.300781"/>
      <use xlink:href="#Helvetica-72" x="138.916016"/>
      <use xlink:href="#Helvetica-74" x="172.216797"/>
      <use xlink:href="#Helvetica-61" x="200"/>
      <use xlink:href="#Helvetica-6c" x="255.615234"/>
      <use xlink:href="#Helvetica-69" x="277.832031"/>
      <use xlink:href="#Helvetica-74" x="300.048828"/>
      <use xlink:href="#Helvetica-79" x="327.832031"/>
     </g>
    </g>
   </g>
   <g id="matplotlib.axis_2">
    <g id="ytick_1">
     <g id="line2d_3">
      <defs>
       <path id="me89d11de33" d="M 0 0 
L -3.5 0 
" style="stroke: #000000; stroke-width: 0.8"/>
      </defs>
      <g>
       <use xlink:href="#me89d11de33" x="72" y="381.855868" style="stroke: #000000; stroke-width: 0.8"/>
      </g>
     </g>
     <g id="text_4">
      <!-- 0 -->
      <g transform="translate(59.439062 385.442587) scale(0.1 -0.1)">
       <defs>
        <path id="Helvetica-30" d="M 1731 4475 
Q 2600 4475 2988 3759 
Q 3288 3206 3288 2244 
Q 3288 1331 3016 734 
Q 2622 -122 1728 -122 
Q 922 -122 528 578 
Q 200 1163 200 2147 
Q 200 2909 397 3456 
Q 766 4475 1731 4475 
z
M 1725 391 
Q 2163 391 2422 778 
Q 2681 1166 2681 2222 
Q 2681 2984 2493 3476 
Q 2306 3969 1766 3969 
Q 1269 3969 1039 3501 
Q 809 3034 809 2125 
Q 809 1441 956 1025 
Q 1181 391 1725 391 
z
" transform="scale(0.015625)"/>
       </defs>
       <use xlink:href="#Helvetica-30"/>
      </g>
     </g>
    </g>
    <g id="ytick_2">
     <g id="line2d_4">
      <g>
       <use xlink:href="#me89d11de33" x="72" y="331.872397" style="stroke: #000000; stroke-width: 0.8"/>
      </g>
     </g>
     <g id="text_5">
      <!-- 2 -->
      <g transform="translate(59.439062 335.459115) scale(0.1 -0.1)">
       <defs>
        <path id="Helvetica-32" d="M 200 0 
Q 231 578 439 1006 
Q 647 1434 1250 1784 
L 1850 2131 
Q 2253 2366 2416 2531 
Q 2672 2791 2672 3125 
Q 2672 3516 2437 3745 
Q 2203 3975 1813 3975 
Q 1234 3975 1013 3538 
Q 894 3303 881 2888 
L 309 2888 
Q 319 3472 525 3841 
Q 891 4491 1816 4491 
Q 2584 4491 2939 4075 
Q 3294 3659 3294 3150 
Q 3294 2613 2916 2231 
Q 2697 2009 2131 1694 
L 1703 1456 
Q 1397 1288 1222 1134 
Q 909 863 828 531 
L 3272 531 
L 3272 0 
L 200 0 
z
" transform="scale(0.015625)"/>
       </defs>
       <use xlink:href="#Helvetica-32"/>
      </g>
     </g>
    </g>
    <g id="ytick_3">
     <g id="line2d_5">
      <g>
       <use xlink:href="#me89d11de33" x="72" y="281.888926" style="stroke: #000000; stroke-width: 0.8"/>
      </g>
     </g>
     <g id="text_6">
      <!-- 4 -->
      <g transform="translate(59.439062 285.475644) scale(0.1 -0.1)">
       <defs>
        <path id="Helvetica-34" d="M 2116 1584 
L 2116 3613 
L 681 1584 
L 2116 1584 
z
M 2125 0 
L 2125 1094 
L 163 1094 
L 163 1644 
L 2213 4488 
L 2688 4488 
L 2688 1584 
L 3347 1584 
L 3347 1094 
L 2688 1094 
L 2688 0 
L 2125 0 
z
" transform="scale(0.015625)"/>
       </defs>
       <use xlink:href="#Helvetica-34"/>
      </g>
     </g>
    </g>
    <g id="ytick_4">
     <g id="line2d_6">
      <g>
       <use xlink:href="#me89d11de33" x="72" y="231.905455" style="stroke: #000000; stroke-width: 0.8"/>
      </g>
     </g>
     <g id="text_7">
      <!-- 6 -->
      <g transform="translate(59.439062 235.492173) scale(0.1 -0.1)">
       <defs>
        <path id="Helvetica-36" d="M 1872 4494 
Q 2622 4494 2917 4105 
Q 3213 3716 3213 3303 
L 2656 3303 
Q 2606 3569 2497 3719 
Q 2294 4000 1881 4000 
Q 1409 4000 1131 3564 
Q 853 3128 822 2316 
Q 1016 2600 1309 2741 
Q 1578 2866 1909 2866 
Q 2472 2866 2890 2506 
Q 3309 2147 3309 1434 
Q 3309 825 2912 354 
Q 2516 -116 1781 -116 
Q 1153 -116 697 361 
Q 241 838 241 1966 
Q 241 2800 444 3381 
Q 834 4494 1872 4494 
z
M 1831 384 
Q 2275 384 2495 682 
Q 2716 981 2716 1388 
Q 2716 1731 2519 2042 
Q 2322 2353 1803 2353 
Q 1441 2353 1167 2112 
Q 894 1872 894 1388 
Q 894 963 1142 673 
Q 1391 384 1831 384 
z
" transform="scale(0.015625)"/>
       </defs>
       <use xlink:href="#Helvetica-36"/>
      </g>
     </g>
    </g>
    <g id="ytick_5">
     <g id="line2d_7">
      <g>
       <use xlink:href="#me89d11de33" x="72" y="181.921983" style="stroke: #000000; stroke-width: 0.8"/>
      </g>
     </g>
     <g id="text_8">
      <!-- 8 -->
      <g transform="translate(59.439062 185.508702) scale(0.1 -0.1)">
       <defs>
        <path id="Helvetica-38" d="M 1741 2600 
Q 2113 2600 2322 2808 
Q 2531 3016 2531 3303 
Q 2531 3553 2331 3762 
Q 2131 3972 1722 3972 
Q 1316 3972 1134 3762 
Q 953 3553 953 3272 
Q 953 2956 1187 2778 
Q 1422 2600 1741 2600 
z
M 1775 384 
Q 2166 384 2423 595 
Q 2681 806 2681 1225 
Q 2681 1659 2415 1884 
Q 2150 2109 1734 2109 
Q 1331 2109 1076 1879 
Q 822 1650 822 1244 
Q 822 894 1055 639 
Q 1288 384 1775 384 
z
M 975 2384 
Q 741 2484 609 2619 
Q 363 2869 363 3269 
Q 363 3769 725 4128 
Q 1088 4488 1753 4488 
Q 2397 4488 2762 4148 
Q 3128 3809 3128 3356 
Q 3128 2938 2916 2678 
Q 2797 2531 2547 2391 
Q 2825 2263 2984 2097 
Q 3281 1784 3281 1284 
Q 3281 694 2884 283 
Q 2488 -128 1763 -128 
Q 1109 -128 657 226 
Q 206 581 206 1256 
Q 206 1653 400 1942 
Q 594 2231 975 2384 
z
" transform="scale(0.015625)"/>
       </defs>
       <use xlink:href="#Helvetica-38"/>
      </g>
     </g>
    </g>
    <g id="ytick_6">
     <g id="line2d_8">
      <g>
       <use xlink:href="#me89d11de33" x="72" y="131.938512" style="stroke: #000000; stroke-width: 0.8"/>
      </g>
     </g>
     <g id="text_9">
      <!-- 10 -->
      <g transform="translate(53.878125 135.525231) scale(0.1 -0.1)">
       <defs>
        <path id="Helvetica-31" d="M 613 3169 
L 613 3600 
Q 1222 3659 1462 3798 
Q 1703 3938 1822 4456 
L 2266 4456 
L 2266 0 
L 1666 0 
L 1666 3169 
L 613 3169 
z
" transform="scale(0.015625)"/>
       </defs>
       <use xlink:href="#Helvetica-31"/>
       <use xlink:href="#Helvetica-30" x="55.615234"/>
      </g>
     </g>
    </g>
    <g id="ytick_7">
     <g id="line2d_9">
      <g>
       <use xlink:href="#me89d11de33" x="72" y="81.955041" style="stroke: #000000; stroke-width: 0.8"/>
      </g>
     </g>
     <g id="text_10">
      <!-- 12 -->
      <g transform="translate(53.878125 85.54176) scale(0.1 -0.1)">
       <use xlink:href="#Helvetica-31"/>
       <use xlink:href="#Helvetica-32" x="55.615234"/>
      </g>
     </g>
    </g>
    <g id="text_11">
     <!-- Lactate -->
     <g transform="translate(47.79375 234.56) rotate(-90) scale(0.1 -0.1)">
      <defs>
       <path id="Helvetica-4c" d="M 488 4591 
L 1109 4591 
L 1109 547 
L 3434 547 
L 3434 0 
L 488 0 
L 488 4591 
z
" transform="scale(0.015625)"/>
      </defs>
      <use xlink:href="#Helvetica-4c"/>
      <use xlink:href="#Helvetica-61" x="55.615234"/>
      <use xlink:href="#Helvetica-63" x="111.230469"/>
      <use xlink:href="#Helvetica-74" x="161.230469"/>
      <use xlink:href="#Helvetica-61" x="189.013672"/>
      <use xlink:href="#Helvetica-74" x="244.628906"/>
      <use xlink:href="#Helvetica-65" x="272.412109"/>
     </g>
    </g>
   </g>
   <g id="patch_3">
    <path d="M 72 384.48 
L 72 51.84 
" style="fill: none; stroke: #000000; stroke-width: 0.8; stroke-linejoin: miter; stroke-linecap: square"/>
   </g>
   <g id="patch_4">
    <path d="M 518.4 384.48 
L 518.4 51.84 
" style="fill: none; stroke: #000000; stroke-width: 0.8; stroke-linejoin: miter; stroke-linecap: square"/>
   </g>
   <g id="patch_5">
    <path d="M 72 384.48 
L 518.4 384.48 
" style="fill: none; stroke: #000000; stroke-width: 0.8; stroke-linejoin: miter; stroke-linecap: square"/>
   </g>
   <g id="patch_6">
    <path d="M 72 51.84 
L 518.4 51.84 
" style="fill: none; stroke: #000000; stroke-width: 0.8; stroke-linejoin: miter; stroke-linecap: square"/>
   </g>
   <g id="PathCollection_3">
    <defs>
     <path id="C0_0_3c8fc75492" d="M 0 3 
C 0.795609 3 1.55874 2.683901 2.12132 2.12132 
C 2.683901 1.55874 3 0.795609 3 -0 
C 3 -0.795609 2.683901 -1.55874 2.12132 -2.12132 
C 1.55874 -2.683901 0.795609 -3 0 -3 
C -0.795609 -3 -1.55874 -2.683901 -2.12132 -2.12132 
C -2.683901 -1.55874 -3 -0.795609 -3 0 
C -3 0.795609 -2.683901 1.55874 -2.12132 2.12132 
C -1.55874 2.683901 -0.795609 3 0 3 
z
"/>
    </defs>
    <g clip-path="url(#p5fea2b1fac)">
     <use xlink:href="#C0_0_3c8fc75492" x="202.5" y="284.388099" style="fill: #87ceeb"/>
    </g>
    <g clip-path="url(#p5fea2b1fac)">
     <use xlink:href="#C0_0_3c8fc75492" x="208.8" y="284.388099" style="fill: #87ceeb"/>
    </g>
    <g clip-path="url(#p5fea2b1fac)">
     <use xlink:href="#C0_0_3c8fc75492" x="152.1" y="284.388099" style="fill: #87ceeb"/>
    </g>
    <g clip-path="url(#p5fea2b1fac)">
     <use xlink:href="#C0_0_3c8fc75492" x="215.1" y="284.388099" style="fill: #87ceeb"/>
    </g>
    <g clip-path="url(#p5fea2b1fac)">
     <use xlink:href="#C0_0_3c8fc75492" x="145.8" y="284.388099" style="fill: #87ceeb"/>
    </g>
    <g clip-path="url(#p5fea2b1fac)">
     <use xlink:href="#C0_0_3c8fc75492" x="221.4" y="284.388099" style="fill: #87ceeb"/>
    </g>
    <g clip-path="url(#p5fea2b1fac)">
     <use xlink:href="#C0_0_3c8fc75492" x="187.085071" y="316.877355" style="fill: #87ceeb"/>
    </g>
    <g clip-path="url(#p5fea2b1fac)">
     <use xlink:href="#C0_0_3c8fc75492" x="139.5" y="284.388099" style="fill: #87ceeb"/>
    </g>
    <g clip-path="url(#p5fea2b1fac)">
     <use xlink:href="#C0_0_3c8fc75492" x="227.7" y="284.388099" style="fill: #87ceeb"/>
    </g>
    <g clip-path="url(#p5fea2b1fac)">
     <use xlink:href="#C0_0_3c8fc75492" x="133.2" y="284.388099" style="fill: #87ceeb"/>
    </g>
    <g clip-path="url(#p5fea2b1fac)">
     <use xlink:href="#C0_0_3c8fc75492" x="126.9" y="284.388099" style="fill: #87ceeb"/>
    </g>
    <g clip-path="url(#p5fea2b1fac)">
     <use xlink:href="#C0_0_3c8fc75492" x="183.6" y="276.890579" style="fill: #87ceeb"/>
    </g>
    <g clip-path="url(#p5fea2b1fac)">
     <use xlink:href="#C0_0_3c8fc75492" x="120.6" y="284.388099" style="fill: #87ceeb"/>
    </g>
    <g clip-path="url(#p5fea2b1fac)">
     <use xlink:href="#C0_0_3c8fc75492" x="246.6" y="284.388099" style="fill: #87ceeb"/>
    </g>
    <g clip-path="url(#p5fea2b1fac)">
     <use xlink:href="#C0_0_3c8fc75492" x="114.3" y="284.388099" style="fill: #87ceeb"/>
    </g>
    <g clip-path="url(#p5fea2b1fac)">
     <use xlink:href="#C0_0_3c8fc75492" x="252.9" y="284.388099" style="fill: #87ceeb"/>
    </g>
    <g clip-path="url(#p5fea2b1fac)">
     <use xlink:href="#C0_0_3c8fc75492" x="158.4" y="284.388099" style="fill: #87ceeb"/>
    </g>
    <g clip-path="url(#p5fea2b1fac)">
     <use xlink:href="#C0_0_3c8fc75492" x="177.872528" y="349.366612" style="fill: #87ceeb"/>
    </g>
    <g clip-path="url(#p5fea2b1fac)">
     <use xlink:href="#C0_0_3c8fc75492" x="190.570142" y="311.879008" style="fill: #87ceeb"/>
    </g>
    <g clip-path="url(#p5fea2b1fac)">
     <use xlink:href="#C0_0_3c8fc75492" x="234" y="284.388099" style="fill: #87ceeb"/>
    </g>
    <g clip-path="url(#p5fea2b1fac)">
     <use xlink:href="#C0_0_3c8fc75492" x="183.6" y="321.875702" style="fill: #87ceeb"/>
    </g>
    <g clip-path="url(#p5fea2b1fac)">
     <use xlink:href="#C0_0_3c8fc75492" x="171" y="284.388099" style="fill: #87ceeb"/>
    </g>
    <g clip-path="url(#p5fea2b1fac)">
     <use xlink:href="#C0_0_3c8fc75492" x="240.3" y="284.388099" style="fill: #87ceeb"/>
    </g>
    <g clip-path="url(#p5fea2b1fac)">
     <use xlink:href="#C0_0_3c8fc75492" x="177.872528" y="319.376529" style="fill: #87ceeb"/>
    </g>
    <g clip-path="url(#p5fea2b1fac)">
     <use xlink:href="#C0_0_3c8fc75492" x="108.572528" y="281.888926" style="fill: #87ceeb"/>
    </g>
    <g clip-path="url(#p5fea2b1fac)">
     <use xlink:href="#C0_0_3c8fc75492" x="177.3" y="284.388099" style="fill: #87ceeb"/>
    </g>
    <g clip-path="url(#p5fea2b1fac)">
     <use xlink:href="#C0_0_3c8fc75492" x="183.6" y="344.368264" style="fill: #87ceeb"/>
    </g>
    <g clip-path="url(#p5fea2b1fac)">
     <use xlink:href="#C0_0_3c8fc75492" x="183.6" y="259.396364" style="fill: #87ceeb"/>
    </g>
    <g clip-path="url(#p5fea2b1fac)">
     <use xlink:href="#C0_0_3c8fc75492" x="181.3576" y="314.378182" style="fill: #87ceeb"/>
    </g>
    <g clip-path="url(#p5fea2b1fac)">
     <use xlink:href="#C0_0_3c8fc75492" x="177.872528" y="241.902149" style="fill: #87ceeb"/>
    </g>
    <g clip-path="url(#p5fea2b1fac)">
     <use xlink:href="#C0_0_3c8fc75492" x="177.3" y="231.905455" style="fill: #87ceeb"/>
    </g>
    <g clip-path="url(#p5fea2b1fac)">
     <use xlink:href="#C0_0_3c8fc75492" x="183.6" y="284.388099" style="fill: #87ceeb"/>
    </g>
    <g clip-path="url(#p5fea2b1fac)">
     <use xlink:href="#C0_0_3c8fc75492" x="177.872528" y="274.391405" style="fill: #87ceeb"/>
    </g>
    <g clip-path="url(#p5fea2b1fac)">
     <use xlink:href="#C0_0_3c8fc75492" x="183.6" y="294.384793" style="fill: #87ceeb"/>
    </g>
    <g clip-path="url(#p5fea2b1fac)">
     <use xlink:href="#C0_0_3c8fc75492" x="164.7" y="284.388099" style="fill: #87ceeb"/>
    </g>
    <g clip-path="url(#p5fea2b1fac)">
     <use xlink:href="#C0_0_3c8fc75492" x="183.6" y="334.37157" style="fill: #87ceeb"/>
    </g>
    <g clip-path="url(#p5fea2b1fac)">
     <use xlink:href="#C0_0_3c8fc75492" x="183.6" y="301.882314" style="fill: #87ceeb"/>
    </g>
    <g clip-path="url(#p5fea2b1fac)">
     <use xlink:href="#C0_0_3c8fc75492" x="177.872528" y="291.88562" style="fill: #87ceeb"/>
    </g>
    <g clip-path="url(#p5fea2b1fac)">
     <use xlink:href="#C0_0_3c8fc75492" x="183.6" y="231.905455" style="fill: #87ceeb"/>
    </g>
    <g clip-path="url(#p5fea2b1fac)">
     <use xlink:href="#C0_0_3c8fc75492" x="183.6" y="351.865785" style="fill: #87ceeb"/>
    </g>
    <g clip-path="url(#p5fea2b1fac)">
     <use xlink:href="#C0_0_3c8fc75492" x="189.9" y="284.388099" style="fill: #87ceeb"/>
    </g>
    <g clip-path="url(#p5fea2b1fac)">
     <use xlink:href="#C0_0_3c8fc75492" x="196.2" y="284.388099" style="fill: #87ceeb"/>
    </g>
    <g clip-path="url(#p5fea2b1fac)">
     <use xlink:href="#C0_0_3c8fc75492" x="183.6" y="244.401322" style="fill: #87ceeb"/>
    </g>
    <g clip-path="url(#p5fea2b1fac)">
     <use xlink:href="#C0_0_3c8fc75492" x="183.6" y="199.416198" style="fill: #87ceeb"/>
    </g>
    <g clip-path="url(#p5fea2b1fac)">
     <use xlink:href="#C0_0_3c8fc75492" x="183.6" y="369.36" style="fill: #87ceeb"/>
    </g>
   </g>
   <g id="PathCollection_4">
    <defs>
     <path id="C1_0_dad5ed9632" d="M 0 3 
C 0.795609 3 1.55874 2.683901 2.12132 2.12132 
C 2.683901 1.55874 3 0.795609 3 -0 
C 3 -0.795609 2.683901 -1.55874 2.12132 -2.12132 
C 1.55874 -2.683901 0.795609 -3 0 -3 
C -0.795609 -3 -1.55874 -2.683901 -2.12132 -2.12132 
C -2.683901 -1.55874 -3 -0.795609 -3 0 
C -3 0.795609 -2.683901 1.55874 -2.12132 2.12132 
C -1.55874 2.683901 -0.795609 3 0 3 
z
"/>
    </defs>
    <g clip-path="url(#p5fea2b1fac)">
     <use xlink:href="#C1_0_dad5ed9632" x="406.8" y="284.388099" style="fill: #fa8072"/>
    </g>
    <g clip-path="url(#p5fea2b1fac)">
     <use xlink:href="#C1_0_dad5ed9632" x="400.5" y="284.388099" style="fill: #fa8072"/>
    </g>
    <g clip-path="url(#p5fea2b1fac)">
     <use xlink:href="#C1_0_dad5ed9632" x="413.1" y="284.388099" style="fill: #fa8072"/>
    </g>
    <g clip-path="url(#p5fea2b1fac)">
     <use xlink:href="#C1_0_dad5ed9632" x="406.8" y="314.378182" style="fill: #fa8072"/>
    </g>
    <g clip-path="url(#p5fea2b1fac)">
     <use xlink:href="#C1_0_dad5ed9632" x="394.2" y="284.388099" style="fill: #fa8072"/>
    </g>
    <g clip-path="url(#p5fea2b1fac)">
     <use xlink:href="#C1_0_dad5ed9632" x="406.8" y="236.903802" style="fill: #fa8072"/>
    </g>
    <g clip-path="url(#p5fea2b1fac)">
     <use xlink:href="#C1_0_dad5ed9632" x="406.8" y="266.893884" style="fill: #fa8072"/>
    </g>
    <g clip-path="url(#p5fea2b1fac)">
     <use xlink:href="#C1_0_dad5ed9632" x="390.714929" y="279.389752" style="fill: #fa8072"/>
    </g>
    <g clip-path="url(#p5fea2b1fac)">
     <use xlink:href="#C1_0_dad5ed9632" x="406.8" y="119.442645" style="fill: #fa8072"/>
    </g>
    <g clip-path="url(#p5fea2b1fac)">
     <use xlink:href="#C1_0_dad5ed9632" x="406.8" y="306.880661" style="fill: #fa8072"/>
    </g>
    <g clip-path="url(#p5fea2b1fac)">
     <use xlink:href="#C1_0_dad5ed9632" x="401.072528" y="331.872397" style="fill: #fa8072"/>
    </g>
    <g clip-path="url(#p5fea2b1fac)">
     <use xlink:href="#C1_0_dad5ed9632" x="401.072528" y="234.404628" style="fill: #fa8072"/>
    </g>
    <g clip-path="url(#p5fea2b1fac)">
     <use xlink:href="#C1_0_dad5ed9632" x="406.8" y="111.945124" style="fill: #fa8072"/>
    </g>
    <g clip-path="url(#p5fea2b1fac)">
     <use xlink:href="#C1_0_dad5ed9632" x="406.8" y="66.96" style="fill: #fa8072"/>
    </g>
    <g clip-path="url(#p5fea2b1fac)">
     <use xlink:href="#C1_0_dad5ed9632" x="406.8" y="149.432727" style="fill: #fa8072"/>
    </g>
    <g clip-path="url(#p5fea2b1fac)">
     <use xlink:href="#C1_0_dad5ed9632" x="406.8" y="334.37157" style="fill: #fa8072"/>
    </g>
    <g clip-path="url(#p5fea2b1fac)">
     <use xlink:href="#C1_0_dad5ed9632" x="403.314929" y="301.882314" style="fill: #fa8072"/>
    </g>
    <g clip-path="url(#p5fea2b1fac)">
     <use xlink:href="#C1_0_dad5ed9632" x="418.827472" y="281.888926" style="fill: #fa8072"/>
    </g>
   </g>
   <g id="legend_1">
    <g id="patch_7">
     <path d="M 434.373437 102.672812 
L 511.4 102.672812 
Q 513.4 102.672812 513.4 100.672812 
L 513.4 58.84 
Q 513.4 56.84 511.4 56.84 
L 434.373437 56.84 
Q 432.373437 56.84 432.373437 58.84 
L 432.373437 100.672812 
Q 432.373437 102.672812 434.373437 102.672812 
z
" style="fill: #ffffff; opacity: 0.8; stroke: #cccccc; stroke-linejoin: miter"/>
    </g>
    <g id="text_12">
     <!-- Mortality -->
     <g transform="translate(453.996094 68.013437) scale(0.1 -0.1)">
      <use xlink:href="#Helvetica-4d"/>
      <use xlink:href="#Helvetica-6f" x="83.300781"/>
      <use xlink:href="#Helvetica-72" x="138.916016"/>
      <use xlink:href="#Helvetica-74" x="172.216797"/>
      <use xlink:href="#Helvetica-61" x="200"/>
      <use xlink:href="#Helvetica-6c" x="255.615234"/>
      <use xlink:href="#Helvetica-69" x="277.832031"/>
      <use xlink:href="#Helvetica-74" x="300.048828"/>
      <use xlink:href="#Helvetica-79" x="327.832031"/>
     </g>
    </g>
    <g id="PathCollection_5">
     <path d="M 446.373437 82.705625 
C 447.169047 82.705625 447.932177 82.389526 448.494758 81.826945 
C 449.057339 81.264365 449.373437 80.501234 449.373437 79.705625 
C 449.373437 78.910016 449.057339 78.146885 448.494758 77.584305 
C 447.932177 77.021724 447.169047 76.705625 446.373437 76.705625 
C 445.577828 76.705625 444.814698 77.021724 444.252117 77.584305 
C 443.689536 78.146885 443.373437 78.910016 443.373437 79.705625 
C 443.373437 80.501234 443.689536 81.264365 444.252117 81.826945 
C 444.814698 82.389526 445.577828 82.705625 446.373437 82.705625 
z
" style="fill: #87ceeb"/>
    </g>
    <g id="text_13">
     <!-- Alive -->
     <g transform="translate(464.373437 82.330625) scale(0.1 -0.1)">
      <use xlink:href="#Helvetica-41"/>
      <use xlink:href="#Helvetica-6c" x="66.699219"/>
      <use xlink:href="#Helvetica-69" x="88.916016"/>
      <use xlink:href="#Helvetica-76" x="111.132812"/>
      <use xlink:href="#Helvetica-65" x="161.132812"/>
     </g>
    </g>
    <g id="PathCollection_6">
     <path d="M 446.373437 96.963437 
C 447.169047 96.963437 447.932177 96.647339 448.494758 96.084758 
C 449.057339 95.522177 449.373437 94.759047 449.373437 93.963437 
C 449.373437 93.167828 449.057339 92.404698 448.494758 91.842117 
C 447.932177 91.279536 447.169047 90.963437 446.373437 90.963437 
C 445.577828 90.963437 444.814698 91.279536 444.252117 91.842117 
C 443.689536 92.404698 443.373437 93.167828 443.373437 93.963437 
C 443.373437 94.759047 443.689536 95.522177 444.252117 96.084758 
C 444.814698 96.647339 445.577828 96.963437 446.373437 96.963437 
z
" style="fill: #fa8072"/>
    </g>
    <g id="text_14">
     <!-- Deceased -->
     <g transform="translate(464.373437 96.588437) scale(0.1 -0.1)">
      <use xlink:href="#Helvetica-44"/>
      <use xlink:href="#Helvetica-65" x="72.216797"/>
      <use xlink:href="#Helvetica-63" x="127.832031"/>
      <use xlink:href="#Helvetica-65" x="177.832031"/>
      <use xlink:href="#Helvetica-61" x="233.447266"/>
      <use xlink:href="#Helvetica-73" x="289.0625"/>
      <use xlink:href="#Helvetica-65" x="339.0625"/>
      <use xlink:href="#Helvetica-64" x="394.677734"/>
     </g>
    </g>
   </g>
  </g>
 </g>
 <defs>
  <clipPath id="p5fea2b1fac">
   <rect x="72" y="51.84" width="446.4" height="332.64"/>
  </clipPath>
 </defs>
</svg>
