<?xml version="1.0" encoding="utf-8" standalone="no"?>
<!DOCTYPE svg PUBLIC "-//W3C//DTD SVG 1.1//EN"
  "http://www.w3.org/Graphics/SVG/1.1/DTD/svg11.dtd">
<svg xmlns:xlink="http://www.w3.org/1999/xlink" width="576pt" height="432pt" viewBox="0 0 576 432" xmlns="http://www.w3.org/2000/svg" version="1.1">
 <metadata>
  <rdf:RDF xmlns:dc="http://purl.org/dc/elements/1.1/" xmlns:cc="http://creativecommons.org/ns#" xmlns:rdf="http://www.w3.org/1999/02/22-rdf-syntax-ns#">
   <cc:Work>
    <dc:type rdf:resource="http://purl.org/dc/dcmitype/StillImage"/>
    <dc:date>2023-11-06T20:58:52.744979</dc:date>
    <dc:format>image/svg+xml</dc:format>
    <dc:creator>
     <cc:Agent>
      <dc:title>Matplotlib v3.7.2, https://matplotlib.org/</dc:title>
     </cc:Agent>
    </dc:creator>
   </cc:Work>
  </rdf:RDF>
 </metadata>
 <defs>
  <style type="text/css">*{stroke-linejoin: round; stroke-linecap: butt}</style>
 </defs>
 <g id="figure_1">
  <g id="patch_1">
   <path d="M 0 432 
L 576 432 
L 576 0 
L 0 0 
z
" style="fill: #ffffff"/>
  </g>
  <g id="axes_1">
   <g id="patch_2">
    <path d="M 72 384.48 
L 518.4 384.48 
L 518.4 51.84 
L 72 51.84 
z
" style="fill: #ffffff"/>
   </g>
   <g id="PathCollection_1"/>
   <g id="PathCollection_2"/>
   <g id="matplotlib.axis_1">
    <g id="xtick_1">
     <g id="line2d_1">
      <defs>
       <path id="me1fcdf408b" d="M 0 0 
L 0 3.5 
" style="stroke: #000000; stroke-width: 0.8"/>
      </defs>
      <g>
       <use xlink:href="#me1fcdf408b" x="183.6" y="384.48" style="stroke: #000000; stroke-width: 0.8"/>
      </g>
     </g>
     <g id="text_1">
      <!-- Alive -->
      <g transform="translate(172.7625 398.653437) scale(0.1 -0.1)">
       <defs>
        <path id="Helvetica-41" d="M 2844 1881 
L 2147 3909 
L 1406 1881 
L 2844 1881 
z
M 1822 4591 
L 2525 4591 
L 4191 0 
L 3509 0 
L 3044 1375 
L 1228 1375 
L 731 0 
L 94 0 
L 1822 4591 
z
" transform="scale(0.015625)"/>
        <path id="Helvetica-6c" d="M 428 4591 
L 991 4591 
L 991 0 
L 428 0 
L 428 4591 
z
" transform="scale(0.015625)"/>
        <path id="Helvetica-69" d="M 413 3331 
L 984 3331 
L 984 0 
L 413 0 
L 413 3331 
z
M 413 4591 
L 984 4591 
L 984 3953 
L 413 3953 
L 413 4591 
z
" transform="scale(0.015625)"/>
        <path id="Helvetica-76" d="M 688 3347 
L 1581 622 
L 2516 3347 
L 3131 3347 
L 1869 0 
L 1269 0 
L 34 3347 
L 688 3347 
z
" transform="scale(0.015625)"/>
        <path id="Helvetica-65" d="M 1806 3422 
Q 2163 3422 2497 3255 
Q 2831 3088 3006 2822 
Q 3175 2569 3231 2231 
Q 3281 2000 3281 1494 
L 828 1494 
Q 844 984 1069 676 
Q 1294 369 1766 369 
Q 2206 369 2469 659 
Q 2619 828 2681 1050 
L 3234 1050 
Q 3213 866 3089 639 
Q 2966 413 2813 269 
Q 2556 19 2178 -69 
Q 1975 -119 1719 -119 
Q 1094 -119 659 336 
Q 225 791 225 1609 
Q 225 2416 662 2919 
Q 1100 3422 1806 3422 
z
M 2703 1941 
Q 2669 2306 2544 2525 
Q 2313 2931 1772 2931 
Q 1384 2931 1121 2651 
Q 859 2372 844 1941 
L 2703 1941 
z
M 1753 3428 
L 1753 3428 
z
" transform="scale(0.015625)"/>
       </defs>
       <use xlink:href="#Helvetica-41"/>
       <use xlink:href="#Helvetica-6c" x="66.699219"/>
       <use xlink:href="#Helvetica-69" x="88.916016"/>
       <use xlink:href="#Helvetica-76" x="111.132812"/>
       <use xlink:href="#Helvetica-65" x="161.132812"/>
      </g>
     </g>
    </g>
    <g id="xtick_2">
     <g id="line2d_2">
      <g>
       <use xlink:href="#me1fcdf408b" x="406.8" y="384.48" style="stroke: #000000; stroke-width: 0.8"/>
      </g>
     </g>
     <g id="text_2">
      <!-- Deceased -->
      <g transform="translate(384.286719 398.653437) scale(0.1 -0.1)">
       <defs>
        <path id="Helvetica-44" d="M 2250 531 
Q 2566 531 2769 597 
Q 3131 719 3363 1066 
Q 3547 1344 3628 1778 
Q 3675 2038 3675 2259 
Q 3675 3113 3336 3584 
Q 2997 4056 2244 4056 
L 1141 4056 
L 1141 531 
L 2250 531 
z
M 516 4591 
L 2375 4591 
Q 3322 4591 3844 3919 
Q 4309 3313 4309 2366 
Q 4309 1634 4034 1044 
Q 3550 0 2369 0 
L 516 0 
L 516 4591 
z
" transform="scale(0.015625)"/>
        <path id="Helvetica-63" d="M 1703 3444 
Q 2269 3444 2623 3169 
Q 2978 2894 3050 2222 
L 2503 2222 
Q 2453 2531 2275 2736 
Q 2097 2941 1703 2941 
Q 1166 2941 934 2416 
Q 784 2075 784 1575 
Q 784 1072 996 728 
Q 1209 384 1666 384 
Q 2016 384 2220 598 
Q 2425 813 2503 1184 
L 3050 1184 
Q 2956 519 2581 211 
Q 2206 -97 1622 -97 
Q 966 -97 575 383 
Q 184 863 184 1581 
Q 184 2463 612 2953 
Q 1041 3444 1703 3444 
z
M 1616 3428 
L 1616 3428 
z
" transform="scale(0.015625)"/>
        <path id="Helvetica-61" d="M 844 891 
Q 844 647 1022 506 
Q 1200 366 1444 366 
Q 1741 366 2019 503 
Q 2488 731 2488 1250 
L 2488 1703 
Q 2384 1638 2221 1594 
Q 2059 1550 1903 1531 
L 1563 1488 
Q 1256 1447 1103 1359 
Q 844 1213 844 891 
z
M 2206 2028 
Q 2400 2053 2466 2191 
Q 2503 2266 2503 2406 
Q 2503 2694 2298 2823 
Q 2094 2953 1713 2953 
Q 1272 2953 1088 2716 
Q 984 2584 953 2325 
L 428 2325 
Q 444 2944 830 3186 
Q 1216 3428 1725 3428 
Q 2316 3428 2684 3203 
Q 3050 2978 3050 2503 
L 3050 575 
Q 3050 488 3086 434 
Q 3122 381 3238 381 
Q 3275 381 3322 386 
Q 3369 391 3422 400 
L 3422 -16 
Q 3291 -53 3222 -62 
Q 3153 -72 3034 -72 
Q 2744 -72 2613 134 
Q 2544 244 2516 444 
Q 2344 219 2022 53 
Q 1700 -113 1313 -113 
Q 847 -113 551 170 
Q 256 453 256 878 
Q 256 1344 547 1600 
Q 838 1856 1309 1916 
L 2206 2028 
z
M 1741 3428 
L 1741 3428 
z
" transform="scale(0.015625)"/>
        <path id="Helvetica-73" d="M 747 1050 
Q 772 769 888 619 
Q 1100 347 1625 347 
Q 1938 347 2175 483 
Q 2413 619 2413 903 
Q 2413 1119 2222 1231 
Q 2100 1300 1741 1391 
L 1294 1503 
Q 866 1609 663 1741 
Q 300 1969 300 2372 
Q 300 2847 642 3140 
Q 984 3434 1563 3434 
Q 2319 3434 2653 2991 
Q 2863 2709 2856 2384 
L 2325 2384 
Q 2309 2575 2191 2731 
Q 1997 2953 1519 2953 
Q 1200 2953 1036 2831 
Q 872 2709 872 2509 
Q 872 2291 1088 2159 
Q 1213 2081 1456 2022 
L 1828 1931 
Q 2434 1784 2641 1647 
Q 2969 1431 2969 969 
Q 2969 522 2630 197 
Q 2291 -128 1597 -128 
Q 850 -128 539 211 
Q 228 550 206 1050 
L 747 1050 
z
M 1578 3428 
L 1578 3428 
z
" transform="scale(0.015625)"/>
        <path id="Helvetica-64" d="M 769 1634 
Q 769 1097 997 734 
Q 1225 372 1728 372 
Q 2119 372 2370 708 
Q 2622 1044 2622 1672 
Q 2622 2306 2362 2611 
Q 2103 2916 1722 2916 
Q 1297 2916 1033 2591 
Q 769 2266 769 1634 
z
M 1616 3406 
Q 2000 3406 2259 3244 
Q 2409 3150 2600 2916 
L 2600 4606 
L 3141 4606 
L 3141 0 
L 2634 0 
L 2634 466 
Q 2438 156 2169 18 
Q 1900 -119 1553 -119 
Q 994 -119 584 351 
Q 175 822 175 1603 
Q 175 2334 548 2870 
Q 922 3406 1616 3406 
z
" transform="scale(0.015625)"/>
       </defs>
       <use xlink:href="#Helvetica-44"/>
       <use xlink:href="#Helvetica-65" x="72.216797"/>
       <use xlink:href="#Helvetica-63" x="127.832031"/>
       <use xlink:href="#Helvetica-65" x="177.832031"/>
       <use xlink:href="#Helvetica-61" x="233.447266"/>
       <use xlink:href="#Helvetica-73" x="289.0625"/>
       <use xlink:href="#Helvetica-65" x="339.0625"/>
       <use xlink:href="#Helvetica-64" x="394.677734"/>
      </g>
     </g>
    </g>
    <g id="text_3">
     <!-- Mortality -->
     <g transform="translate(276.309375 411.91125) scale(0.1 -0.1)">
      <defs>
       <path id="Helvetica-4d" d="M 472 4591 
L 1363 4591 
L 2681 709 
L 3991 4591 
L 4872 4591 
L 4872 0 
L 4281 0 
L 4281 2709 
Q 4281 2850 4287 3175 
Q 4294 3500 4294 3872 
L 2984 0 
L 2369 0 
L 1050 3872 
L 1050 3731 
Q 1050 3563 1058 3217 
Q 1066 2872 1066 2709 
L 1066 0 
L 472 0 
L 472 4591 
z
" transform="scale(0.015625)"/>
       <path id="Helvetica-6f" d="M 1741 363 
Q 2300 363 2508 786 
Q 2716 1209 2716 1728 
Q 2716 2197 2566 2491 
Q 2328 2953 1747 2953 
Q 1231 2953 997 2559 
Q 763 2166 763 1609 
Q 763 1075 997 719 
Q 1231 363 1741 363 
z
M 1763 3444 
Q 2409 3444 2856 3012 
Q 3303 2581 3303 1744 
Q 3303 934 2909 406 
Q 2516 -122 1688 -122 
Q 997 -122 590 345 
Q 184 813 184 1600 
Q 184 2444 612 2944 
Q 1041 3444 1763 3444 
z
M 1744 3428 
L 1744 3428 
z
" transform="scale(0.015625)"/>
       <path id="Helvetica-72" d="M 428 3347 
L 963 3347 
L 963 2769 
Q 1028 2938 1284 3180 
Q 1541 3422 1875 3422 
Q 1891 3422 1928 3419 
Q 1966 3416 2056 3406 
L 2056 2813 
Q 2006 2822 1964 2825 
Q 1922 2828 1872 2828 
Q 1447 2828 1219 2554 
Q 991 2281 991 1925 
L 991 0 
L 428 0 
L 428 3347 
z
" transform="scale(0.015625)"/>
       <path id="Helvetica-74" d="M 525 4281 
L 1094 4281 
L 1094 3347 
L 1628 3347 
L 1628 2888 
L 1094 2888 
L 1094 703 
Q 1094 528 1213 469 
Q 1278 434 1431 434 
Q 1472 434 1519 436 
Q 1566 438 1628 444 
L 1628 0 
Q 1531 -28 1426 -40 
Q 1322 -53 1200 -53 
Q 806 -53 665 148 
Q 525 350 525 672 
L 525 2888 
L 72 2888 
L 72 3347 
L 525 3347 
L 525 4281 
z
" transform="scale(0.015625)"/>
       <path id="Helvetica-79" d="M 2503 3347 
L 3125 3347 
Q 3006 3025 2597 1878 
Q 2291 1016 2084 472 
Q 1597 -809 1397 -1090 
Q 1197 -1372 709 -1372 
Q 591 -1372 527 -1362 
Q 463 -1353 369 -1328 
L 369 -816 
Q 516 -856 581 -865 
Q 647 -875 697 -875 
Q 853 -875 926 -823 
Q 1000 -772 1050 -697 
Q 1066 -672 1162 -440 
Q 1259 -209 1303 -97 
L 66 3347 
L 703 3347 
L 1600 622 
L 2503 3347 
z
M 1597 3428 
L 1597 3428 
z
" transform="scale(0.015625)"/>
      </defs>
      <use xlink:href="#Helvetica-4d"/>
      <use xlink:href="#Helvetica-6f" x="83.300781"/>
      <use xlink:href="#Helvetica-72" x="138.916016"/>
      <use xlink:href="#Helvetica-74" x="172.216797"/>
      <use xlink:href="#Helvetica-61" x="200"/>
      <use xlink:href="#Helvetica-6c" x="255.615234"/>
      <use xlink:href="#Helvetica-69" x="277.832031"/>
      <use xlink:href="#Helvetica-74" x="300.048828"/>
      <use xlink:href="#Helvetica-79" x="327.832031"/>
     </g>
    </g>
   </g>
   <g id="matplotlib.axis_2">
    <g id="ytick_1">
     <g id="line2d_3">
      <defs>
       <path id="m070313afa5" d="M 0 0 
L -3.5 0 
" style="stroke: #000000; stroke-width: 0.8"/>
      </defs>
      <g>
       <use xlink:href="#m070313afa5" x="72" y="371.012459" style="stroke: #000000; stroke-width: 0.8"/>
      </g>
     </g>
     <g id="text_4">
      <!-- 25 -->
      <g transform="translate(53.878125 374.599178) scale(0.1 -0.1)">
       <defs>
        <path id="Helvetica-32" d="M 200 0 
Q 231 578 439 1006 
Q 647 1434 1250 1784 
L 1850 2131 
Q 2253 2366 2416 2531 
Q 2672 2791 2672 3125 
Q 2672 3516 2437 3745 
Q 2203 3975 1813 3975 
Q 1234 3975 1013 3538 
Q 894 3303 881 2888 
L 309 2888 
Q 319 3472 525 3841 
Q 891 4491 1816 4491 
Q 2584 4491 2939 4075 
Q 3294 3659 3294 3150 
Q 3294 2613 2916 2231 
Q 2697 2009 2131 1694 
L 1703 1456 
Q 1397 1288 1222 1134 
Q 909 863 828 531 
L 3272 531 
L 3272 0 
L 200 0 
z
" transform="scale(0.015625)"/>
        <path id="Helvetica-35" d="M 791 1141 
Q 847 659 1238 475 
Q 1438 381 1700 381 
Q 2200 381 2440 700 
Q 2681 1019 2681 1406 
Q 2681 1875 2395 2131 
Q 2109 2388 1709 2388 
Q 1419 2388 1211 2275 
Q 1003 2163 856 1963 
L 369 1991 
L 709 4400 
L 3034 4400 
L 3034 3856 
L 1131 3856 
L 941 2613 
Q 1097 2731 1238 2791 
Q 1488 2894 1816 2894 
Q 2431 2894 2859 2497 
Q 3288 2100 3288 1491 
Q 3288 856 2895 371 
Q 2503 -113 1644 -113 
Q 1097 -113 676 195 
Q 256 503 206 1141 
L 791 1141 
z
" transform="scale(0.015625)"/>
       </defs>
       <use xlink:href="#Helvetica-32"/>
       <use xlink:href="#Helvetica-35" x="55.615234"/>
      </g>
     </g>
    </g>
    <g id="ytick_2">
     <g id="line2d_4">
      <g>
       <use xlink:href="#m070313afa5" x="72" y="329.700984" style="stroke: #000000; stroke-width: 0.8"/>
      </g>
     </g>
     <g id="text_5">
      <!-- 50 -->
      <g transform="translate(53.878125 333.287702) scale(0.1 -0.1)">
       <defs>
        <path id="Helvetica-30" d="M 1731 4475 
Q 2600 4475 2988 3759 
Q 3288 3206 3288 2244 
Q 3288 1331 3016 734 
Q 2622 -122 1728 -122 
Q 922 -122 528 578 
Q 200 1163 200 2147 
Q 200 2909 397 3456 
Q 766 4475 1731 4475 
z
M 1725 391 
Q 2163 391 2422 778 
Q 2681 1166 2681 2222 
Q 2681 2984 2493 3476 
Q 2306 3969 1766 3969 
Q 1269 3969 1039 3501 
Q 809 3034 809 2125 
Q 809 1441 956 1025 
Q 1181 391 1725 391 
z
" transform="scale(0.015625)"/>
       </defs>
       <use xlink:href="#Helvetica-35"/>
       <use xlink:href="#Helvetica-30" x="55.615234"/>
      </g>
     </g>
    </g>
    <g id="ytick_3">
     <g id="line2d_5">
      <g>
       <use xlink:href="#m070313afa5" x="72" y="288.389508" style="stroke: #000000; stroke-width: 0.8"/>
      </g>
     </g>
     <g id="text_6">
      <!-- 75 -->
      <g transform="translate(53.878125 291.976227) scale(0.1 -0.1)">
       <defs>
        <path id="Helvetica-37" d="M 3347 4400 
L 3347 3909 
Q 3131 3700 2773 3181 
Q 2416 2663 2141 2063 
Q 1869 1478 1728 997 
Q 1638 688 1494 0 
L 872 0 
Q 1084 1281 1809 2550 
Q 2238 3294 2709 3834 
L 234 3834 
L 234 4400 
L 3347 4400 
z
" transform="scale(0.015625)"/>
       </defs>
       <use xlink:href="#Helvetica-37"/>
       <use xlink:href="#Helvetica-35" x="55.615234"/>
      </g>
     </g>
    </g>
    <g id="ytick_4">
     <g id="line2d_6">
      <g>
       <use xlink:href="#m070313afa5" x="72" y="247.078033" style="stroke: #000000; stroke-width: 0.8"/>
      </g>
     </g>
     <g id="text_7">
      <!-- 100 -->
      <g transform="translate(48.317188 250.664752) scale(0.1 -0.1)">
       <defs>
        <path id="Helvetica-31" d="M 613 3169 
L 613 3600 
Q 1222 3659 1462 3798 
Q 1703 3938 1822 4456 
L 2266 4456 
L 2266 0 
L 1666 0 
L 1666 3169 
L 613 3169 
z
" transform="scale(0.015625)"/>
       </defs>
       <use xlink:href="#Helvetica-31"/>
       <use xlink:href="#Helvetica-30" x="55.615234"/>
       <use xlink:href="#Helvetica-30" x="111.230469"/>
      </g>
     </g>
    </g>
    <g id="ytick_5">
     <g id="line2d_7">
      <g>
       <use xlink:href="#m070313afa5" x="72" y="205.766557" style="stroke: #000000; stroke-width: 0.8"/>
      </g>
     </g>
     <g id="text_8">
      <!-- 125 -->
      <g transform="translate(48.317188 209.353276) scale(0.1 -0.1)">
       <use xlink:href="#Helvetica-31"/>
       <use xlink:href="#Helvetica-32" x="55.615234"/>
       <use xlink:href="#Helvetica-35" x="111.230469"/>
      </g>
     </g>
    </g>
    <g id="ytick_6">
     <g id="line2d_8">
      <g>
       <use xlink:href="#m070313afa5" x="72" y="164.455082" style="stroke: #000000; stroke-width: 0.8"/>
      </g>
     </g>
     <g id="text_9">
      <!-- 150 -->
      <g transform="translate(48.317188 168.041801) scale(0.1 -0.1)">
       <use xlink:href="#Helvetica-31"/>
       <use xlink:href="#Helvetica-35" x="55.615234"/>
       <use xlink:href="#Helvetica-30" x="111.230469"/>
      </g>
     </g>
    </g>
    <g id="ytick_7">
     <g id="line2d_9">
      <g>
       <use xlink:href="#m070313afa5" x="72" y="123.143607" style="stroke: #000000; stroke-width: 0.8"/>
      </g>
     </g>
     <g id="text_10">
      <!-- 175 -->
      <g transform="translate(48.317188 126.730325) scale(0.1 -0.1)">
       <use xlink:href="#Helvetica-31"/>
       <use xlink:href="#Helvetica-37" x="55.615234"/>
       <use xlink:href="#Helvetica-35" x="111.230469"/>
      </g>
     </g>
    </g>
    <g id="ytick_8">
     <g id="line2d_10">
      <g>
       <use xlink:href="#m070313afa5" x="72" y="81.832131" style="stroke: #000000; stroke-width: 0.8"/>
      </g>
     </g>
     <g id="text_11">
      <!-- 200 -->
      <g transform="translate(48.317188 85.41885) scale(0.1 -0.1)">
       <use xlink:href="#Helvetica-32"/>
       <use xlink:href="#Helvetica-30" x="55.615234"/>
       <use xlink:href="#Helvetica-30" x="111.230469"/>
      </g>
     </g>
    </g>
    <g id="text_12">
     <!-- Spontaneous Bacterial Peritonitis (SBP) -->
     <g transform="translate(42.232812 306.535) rotate(-90) scale(0.1 -0.1)">
      <defs>
       <path id="Helvetica-53" d="M 894 1481 
Q 916 1091 1078 847 
Q 1388 391 2169 391 
Q 2519 391 2806 491 
Q 3363 684 3363 1184 
Q 3363 1559 3128 1719 
Q 2891 1875 2384 1991 
L 1763 2131 
Q 1153 2269 900 2434 
Q 463 2722 463 3294 
Q 463 3913 891 4309 
Q 1319 4706 2103 4706 
Q 2825 4706 3329 4357 
Q 3834 4009 3834 3244 
L 3250 3244 
Q 3203 3613 3050 3809 
Q 2766 4169 2084 4169 
Q 1534 4169 1293 3937 
Q 1053 3706 1053 3400 
Q 1053 3063 1334 2906 
Q 1519 2806 2169 2656 
L 2813 2509 
Q 3278 2403 3531 2219 
Q 3969 1897 3969 1284 
Q 3969 522 3414 194 
Q 2859 -134 2125 -134 
Q 1269 -134 784 303 
Q 300 738 309 1481 
L 894 1481 
z
M 2150 4716 
L 2150 4716 
z
" transform="scale(0.015625)"/>
       <path id="Helvetica-70" d="M 1825 378 
Q 2219 378 2480 708 
Q 2741 1038 2741 1694 
Q 2741 2094 2625 2381 
Q 2406 2934 1825 2934 
Q 1241 2934 1025 2350 
Q 909 2038 909 1556 
Q 909 1169 1025 897 
Q 1244 378 1825 378 
z
M 369 3331 
L 916 3331 
L 916 2888 
Q 1084 3116 1284 3241 
Q 1569 3428 1953 3428 
Q 2522 3428 2919 2992 
Q 3316 2556 3316 1747 
Q 3316 653 2744 184 
Q 2381 -113 1900 -113 
Q 1522 -113 1266 53 
Q 1116 147 931 375 
L 931 -1334 
L 369 -1334 
L 369 3331 
z
" transform="scale(0.015625)"/>
       <path id="Helvetica-6e" d="M 413 3347 
L 947 3347 
L 947 2872 
Q 1184 3166 1450 3294 
Q 1716 3422 2041 3422 
Q 2753 3422 3003 2925 
Q 3141 2653 3141 2147 
L 3141 0 
L 2569 0 
L 2569 2109 
Q 2569 2416 2478 2603 
Q 2328 2916 1934 2916 
Q 1734 2916 1606 2875 
Q 1375 2806 1200 2600 
Q 1059 2434 1017 2257 
Q 975 2081 975 1753 
L 975 0 
L 413 0 
L 413 3347 
z
M 1734 3428 
L 1734 3428 
z
" transform="scale(0.015625)"/>
       <path id="Helvetica-75" d="M 975 3347 
L 975 1125 
Q 975 869 1056 706 
Q 1206 406 1616 406 
Q 2203 406 2416 931 
Q 2531 1213 2531 1703 
L 2531 3347 
L 3094 3347 
L 3094 0 
L 2563 0 
L 2569 494 
Q 2459 303 2297 172 
Q 1975 -91 1516 -91 
Q 800 -91 541 388 
Q 400 644 400 1072 
L 400 3347 
L 975 3347 
z
M 1747 3428 
L 1747 3428 
z
" transform="scale(0.015625)"/>
       <path id="Helvetica-20" transform="scale(0.015625)"/>
       <path id="Helvetica-42" d="M 2213 2650 
Q 2606 2650 2825 2759 
Q 3169 2931 3169 3378 
Q 3169 3828 2803 3984 
Q 2597 4072 2191 4072 
L 1081 4072 
L 1081 2650 
L 2213 2650 
z
M 2422 531 
Q 2994 531 3238 863 
Q 3391 1072 3391 1369 
Q 3391 1869 2944 2050 
Q 2706 2147 2316 2147 
L 1081 2147 
L 1081 531 
L 2422 531 
z
M 472 4591 
L 2444 4591 
Q 3250 4591 3591 4109 
Q 3791 3825 3791 3453 
Q 3791 3019 3544 2741 
Q 3416 2594 3175 2472 
Q 3528 2338 3703 2169 
Q 4013 1869 4013 1341 
Q 4013 897 3734 538 
Q 3319 0 2413 0 
L 472 0 
L 472 4591 
z
" transform="scale(0.015625)"/>
       <path id="Helvetica-50" d="M 547 4591 
L 2613 4591 
Q 3225 4591 3600 4245 
Q 3975 3900 3975 3275 
Q 3975 2738 3640 2339 
Q 3306 1941 2613 1941 
L 1169 1941 
L 1169 0 
L 547 0 
L 547 4591 
z
M 3347 3272 
Q 3347 3778 2972 3959 
Q 2766 4056 2406 4056 
L 1169 4056 
L 1169 2466 
L 2406 2466 
Q 2825 2466 3086 2644 
Q 3347 2822 3347 3272 
z
" transform="scale(0.015625)"/>
       <path id="Helvetica-28" d="M 1894 4666 
Q 1403 3713 1256 3263 
Q 1034 2578 1034 1681 
Q 1034 775 1288 25 
Q 1444 -438 1903 -1306 
L 1525 -1306 
Q 1069 -594 959 -397 
Q 850 -200 722 138 
Q 547 600 478 1125 
Q 444 1397 444 1644 
Q 444 2569 734 3291 
Q 919 3750 1503 4666 
L 1894 4666 
z
" transform="scale(0.015625)"/>
       <path id="Helvetica-29" d="M 222 -1306 
Q 719 -338 863 106 
Q 1081 778 1081 1681 
Q 1081 2584 828 3334 
Q 672 3797 213 4666 
L 591 4666 
Q 1072 3897 1173 3717 
Q 1275 3538 1394 3222 
Q 1544 2831 1608 2450 
Q 1672 2069 1672 1716 
Q 1672 791 1378 66 
Q 1194 -400 613 -1306 
L 222 -1306 
z
" transform="scale(0.015625)"/>
      </defs>
      <use xlink:href="#Helvetica-53"/>
      <use xlink:href="#Helvetica-70" x="66.699219"/>
      <use xlink:href="#Helvetica-6f" x="122.314453"/>
      <use xlink:href="#Helvetica-6e" x="177.929688"/>
      <use xlink:href="#Helvetica-74" x="233.544922"/>
      <use xlink:href="#Helvetica-61" x="261.328125"/>
      <use xlink:href="#Helvetica-6e" x="316.943359"/>
      <use xlink:href="#Helvetica-65" x="372.558594"/>
      <use xlink:href="#Helvetica-6f" x="428.173828"/>
      <use xlink:href="#Helvetica-75" x="483.789062"/>
      <use xlink:href="#Helvetica-73" x="539.404297"/>
      <use xlink:href="#Helvetica-20" x="589.404297"/>
      <use xlink:href="#Helvetica-42" x="617.1875"/>
      <use xlink:href="#Helvetica-61" x="683.886719"/>
      <use xlink:href="#Helvetica-63" x="739.501953"/>
      <use xlink:href="#Helvetica-74" x="789.501953"/>
      <use xlink:href="#Helvetica-65" x="817.285156"/>
      <use xlink:href="#Helvetica-72" x="872.900391"/>
      <use xlink:href="#Helvetica-69" x="906.201172"/>
      <use xlink:href="#Helvetica-61" x="928.417969"/>
      <use xlink:href="#Helvetica-6c" x="984.033203"/>
      <use xlink:href="#Helvetica-20" x="1006.25"/>
      <use xlink:href="#Helvetica-50" x="1034.033203"/>
      <use xlink:href="#Helvetica-65" x="1100.732422"/>
      <use xlink:href="#Helvetica-72" x="1156.347656"/>
      <use xlink:href="#Helvetica-69" x="1189.648438"/>
      <use xlink:href="#Helvetica-74" x="1211.865234"/>
      <use xlink:href="#Helvetica-6f" x="1239.648438"/>
      <use xlink:href="#Helvetica-6e" x="1295.263672"/>
      <use xlink:href="#Helvetica-69" x="1350.878906"/>
      <use xlink:href="#Helvetica-74" x="1373.095703"/>
      <use xlink:href="#Helvetica-69" x="1400.878906"/>
      <use xlink:href="#Helvetica-73" x="1423.095703"/>
      <use xlink:href="#Helvetica-20" x="1473.095703"/>
      <use xlink:href="#Helvetica-28" x="1500.878906"/>
      <use xlink:href="#Helvetica-53" x="1534.179688"/>
      <use xlink:href="#Helvetica-42" x="1600.878906"/>
      <use xlink:href="#Helvetica-50" x="1667.578125"/>
      <use xlink:href="#Helvetica-29" x="1734.277344"/>
     </g>
    </g>
   </g>
   <g id="patch_3">
    <path d="M 72 384.48 
L 72 51.84 
" style="fill: none; stroke: #000000; stroke-width: 0.8; stroke-linejoin: miter; stroke-linecap: square"/>
   </g>
   <g id="patch_4">
    <path d="M 518.4 384.48 
L 518.4 51.84 
" style="fill: none; stroke: #000000; stroke-width: 0.8; stroke-linejoin: miter; stroke-linecap: square"/>
   </g>
   <g id="patch_5">
    <path d="M 72 384.48 
L 518.4 384.48 
" style="fill: none; stroke: #000000; stroke-width: 0.8; stroke-linejoin: miter; stroke-linecap: square"/>
   </g>
   <g id="patch_6">
    <path d="M 72 51.84 
L 518.4 51.84 
" style="fill: none; stroke: #000000; stroke-width: 0.8; stroke-linejoin: miter; stroke-linecap: square"/>
   </g>
   <g id="PathCollection_3">
    <defs>
     <path id="C0_0_9787f40bee" d="M 0 3 
C 0.795609 3 1.55874 2.683901 2.12132 2.12132 
C 2.683901 1.55874 3 0.795609 3 -0 
C 3 -0.795609 2.683901 -1.55874 2.12132 -2.12132 
C 1.55874 -2.683901 0.795609 -3 0 -3 
C -0.795609 -3 -1.55874 -2.683901 -2.12132 -2.12132 
C -2.683901 -1.55874 -3 -0.795609 -3 0 
C -3 0.795609 -2.683901 1.55874 -2.12132 2.12132 
C -1.55874 2.683901 -0.795609 3 0 3 
z
"/>
    </defs>
    <g clip-path="url(#p95dc3d2c7d)">
     <use xlink:href="#C0_0_9787f40bee" x="181.092642" y="214.028852" style="fill: #87ceeb"/>
    </g>
    <g clip-path="url(#p95dc3d2c7d)">
     <use xlink:href="#C0_0_9787f40bee" x="202.012719" y="204.114098" style="fill: #87ceeb"/>
    </g>
    <g clip-path="url(#p95dc3d2c7d)">
     <use xlink:href="#C0_0_9787f40bee" x="177.54364" y="164.455082" style="fill: #87ceeb"/>
    </g>
    <g clip-path="url(#p95dc3d2c7d)">
     <use xlink:href="#C0_0_9787f40bee" x="177.3" y="124.796066" style="fill: #87ceeb"/>
    </g>
    <g clip-path="url(#p95dc3d2c7d)">
     <use xlink:href="#C0_0_9787f40bee" x="183.6" y="230.553443" style="fill: #87ceeb"/>
    </g>
    <g clip-path="url(#p95dc3d2c7d)">
     <use xlink:href="#C0_0_9787f40bee" x="187.149002" y="215.681311" style="fill: #87ceeb"/>
    </g>
    <g clip-path="url(#p95dc3d2c7d)">
     <use xlink:href="#C0_0_9787f40bee" x="183.6" y="256.992787" style="fill: #87ceeb"/>
    </g>
    <g clip-path="url(#p95dc3d2c7d)">
     <use xlink:href="#C0_0_9787f40bee" x="177.3" y="207.419016" style="fill: #87ceeb"/>
    </g>
    <g clip-path="url(#p95dc3d2c7d)">
     <use xlink:href="#C0_0_9787f40bee" x="177.3" y="230.553443" style="fill: #87ceeb"/>
    </g>
    <g clip-path="url(#p95dc3d2c7d)">
     <use xlink:href="#C0_0_9787f40bee" x="183.6" y="220.638689" style="fill: #87ceeb"/>
    </g>
    <g clip-path="url(#p95dc3d2c7d)">
     <use xlink:href="#C0_0_9787f40bee" x="183.6" y="200.80918" style="fill: #87ceeb"/>
    </g>
    <g clip-path="url(#p95dc3d2c7d)">
     <use xlink:href="#C0_0_9787f40bee" x="171.24364" y="205.766557" style="fill: #87ceeb"/>
    </g>
    <g clip-path="url(#p95dc3d2c7d)">
     <use xlink:href="#C0_0_9787f40bee" x="183.6" y="131.405902" style="fill: #87ceeb"/>
    </g>
    <g clip-path="url(#p95dc3d2c7d)">
     <use xlink:href="#C0_0_9787f40bee" x="193.205362" y="214.028852" style="fill: #87ceeb"/>
    </g>
    <g clip-path="url(#p95dc3d2c7d)">
     <use xlink:href="#C0_0_9787f40bee" x="183.6" y="166.107541" style="fill: #87ceeb"/>
    </g>
    <g clip-path="url(#p95dc3d2c7d)">
     <use xlink:href="#C0_0_9787f40bee" x="189.65636" y="205.766557" style="fill: #87ceeb"/>
    </g>
    <g clip-path="url(#p95dc3d2c7d)">
     <use xlink:href="#C0_0_9787f40bee" x="165.187281" y="204.114098" style="fill: #87ceeb"/>
    </g>
    <g clip-path="url(#p95dc3d2c7d)">
     <use xlink:href="#C0_0_9787f40bee" x="187.149002" y="171.064918" style="fill: #87ceeb"/>
    </g>
    <g clip-path="url(#p95dc3d2c7d)">
     <use xlink:href="#C0_0_9787f40bee" x="177.54364" y="199.156721" style="fill: #87ceeb"/>
    </g>
    <g clip-path="url(#p95dc3d2c7d)">
     <use xlink:href="#C0_0_9787f40bee" x="189.65636" y="123.143607" style="fill: #87ceeb"/>
    </g>
    <g clip-path="url(#p95dc3d2c7d)">
     <use xlink:href="#C0_0_9787f40bee" x="183.6" y="184.28459" style="fill: #87ceeb"/>
    </g>
    <g clip-path="url(#p95dc3d2c7d)">
     <use xlink:href="#C0_0_9787f40bee" x="178.341867" y="172.717377" style="fill: #87ceeb"/>
    </g>
    <g clip-path="url(#p95dc3d2c7d)">
     <use xlink:href="#C0_0_9787f40bee" x="188.858133" y="162.802623" style="fill: #87ceeb"/>
    </g>
    <g clip-path="url(#p95dc3d2c7d)">
     <use xlink:href="#C0_0_9787f40bee" x="202.012719" y="190.894426" style="fill: #87ceeb"/>
    </g>
    <g clip-path="url(#p95dc3d2c7d)">
     <use xlink:href="#C0_0_9787f40bee" x="183.6" y="263.602623" style="fill: #87ceeb"/>
    </g>
    <g clip-path="url(#p95dc3d2c7d)">
     <use xlink:href="#C0_0_9787f40bee" x="174.792642" y="214.028852" style="fill: #87ceeb"/>
    </g>
    <g clip-path="url(#p95dc3d2c7d)">
     <use xlink:href="#C0_0_9787f40bee" x="189.9" y="194.199344" style="fill: #87ceeb"/>
    </g>
    <g clip-path="url(#p95dc3d2c7d)">
     <use xlink:href="#C0_0_9787f40bee" x="178.341867" y="154.540328" style="fill: #87ceeb"/>
    </g>
    <g clip-path="url(#p95dc3d2c7d)">
     <use xlink:href="#C0_0_9787f40bee" x="195.95636" y="192.546885" style="fill: #87ceeb"/>
    </g>
    <g clip-path="url(#p95dc3d2c7d)">
     <use xlink:href="#C0_0_9787f40bee" x="183.6" y="207.419016" style="fill: #87ceeb"/>
    </g>
    <g clip-path="url(#p95dc3d2c7d)">
     <use xlink:href="#C0_0_9787f40bee" x="183.6" y="296.651803" style="fill: #87ceeb"/>
    </g>
    <g clip-path="url(#p95dc3d2c7d)">
     <use xlink:href="#C0_0_9787f40bee" x="177.3" y="220.638689" style="fill: #87ceeb"/>
    </g>
    <g clip-path="url(#p95dc3d2c7d)">
     <use xlink:href="#C0_0_9787f40bee" x="177.3" y="256.992787" style="fill: #87ceeb"/>
    </g>
    <g clip-path="url(#p95dc3d2c7d)">
     <use xlink:href="#C0_0_9787f40bee" x="183.6" y="141.320656" style="fill: #87ceeb"/>
    </g>
    <g clip-path="url(#p95dc3d2c7d)">
     <use xlink:href="#C0_0_9787f40bee" x="168.736506" y="190.894426" style="fill: #87ceeb"/>
    </g>
    <g clip-path="url(#p95dc3d2c7d)">
     <use xlink:href="#C0_0_9787f40bee" x="183.6" y="124.796066" style="fill: #87ceeb"/>
    </g>
    <g clip-path="url(#p95dc3d2c7d)">
     <use xlink:href="#C0_0_9787f40bee" x="178.341867" y="138.015738" style="fill: #87ceeb"/>
    </g>
    <g clip-path="url(#p95dc3d2c7d)">
     <use xlink:href="#C0_0_9787f40bee" x="183.6" y="157.845246" style="fill: #87ceeb"/>
    </g>
    <g clip-path="url(#p95dc3d2c7d)">
     <use xlink:href="#C0_0_9787f40bee" x="173.994638" y="194.199344" style="fill: #87ceeb"/>
    </g>
    <g clip-path="url(#p95dc3d2c7d)">
     <use xlink:href="#C0_0_9787f40bee" x="195.95636" y="205.766557" style="fill: #87ceeb"/>
    </g>
    <g clip-path="url(#p95dc3d2c7d)">
     <use xlink:href="#C0_0_9787f40bee" x="183.6" y="194.199344" style="fill: #87ceeb"/>
    </g>
    <g clip-path="url(#p95dc3d2c7d)">
     <use xlink:href="#C0_0_9787f40bee" x="183.6" y="270.212459" style="fill: #87ceeb"/>
    </g>
    <g clip-path="url(#p95dc3d2c7d)">
     <use xlink:href="#C0_0_9787f40bee" x="187.149002" y="152.887869" style="fill: #87ceeb"/>
    </g>
    <g clip-path="url(#p95dc3d2c7d)">
     <use xlink:href="#C0_0_9787f40bee" x="177.3" y="184.28459" style="fill: #87ceeb"/>
    </g>
    <g clip-path="url(#p95dc3d2c7d)">
     <use xlink:href="#C0_0_9787f40bee" x="183.6" y="176.022295" style="fill: #87ceeb"/>
    </g>
   </g>
   <g id="PathCollection_4">
    <defs>
     <path id="C1_0_36d8c12ac9" d="M 0 3 
C 0.795609 3 1.55874 2.683901 2.12132 2.12132 
C 2.683901 1.55874 3 0.795609 3 -0 
C 3 -0.795609 2.683901 -1.55874 2.12132 -2.12132 
C 1.55874 -2.683901 0.795609 -3 0 -3 
C -0.795609 -3 -1.55874 -2.683901 -2.12132 -2.12132 
C -2.683901 -1.55874 -3 -0.795609 -3 0 
C -3 0.795609 -2.683901 1.55874 -2.12132 2.12132 
C -1.55874 2.683901 -0.795609 3 0 3 
z
"/>
    </defs>
    <g clip-path="url(#p95dc3d2c7d)">
     <use xlink:href="#C1_0_36d8c12ac9" x="406.8" y="263.602623" style="fill: #fa8072"/>
    </g>
    <g clip-path="url(#p95dc3d2c7d)">
     <use xlink:href="#C1_0_36d8c12ac9" x="406.8" y="190.894426" style="fill: #fa8072"/>
    </g>
    <g clip-path="url(#p95dc3d2c7d)">
     <use xlink:href="#C1_0_36d8c12ac9" x="401.541867" y="187.589508" style="fill: #fa8072"/>
    </g>
    <g clip-path="url(#p95dc3d2c7d)">
     <use xlink:href="#C1_0_36d8c12ac9" x="403.250998" y="280.127213" style="fill: #fa8072"/>
    </g>
    <g clip-path="url(#p95dc3d2c7d)">
     <use xlink:href="#C1_0_36d8c12ac9" x="406.8" y="212.376393" style="fill: #fa8072"/>
    </g>
    <g clip-path="url(#p95dc3d2c7d)">
     <use xlink:href="#C1_0_36d8c12ac9" x="406.8" y="232.205902" style="fill: #fa8072"/>
    </g>
    <g clip-path="url(#p95dc3d2c7d)">
     <use xlink:href="#C1_0_36d8c12ac9" x="406.8" y="111.576393" style="fill: #fa8072"/>
    </g>
    <g clip-path="url(#p95dc3d2c7d)">
     <use xlink:href="#C1_0_36d8c12ac9" x="406.8" y="184.28459" style="fill: #fa8072"/>
    </g>
    <g clip-path="url(#p95dc3d2c7d)">
     <use xlink:href="#C1_0_36d8c12ac9" x="406.8" y="85.137049" style="fill: #fa8072"/>
    </g>
    <g clip-path="url(#p95dc3d2c7d)">
     <use xlink:href="#C1_0_36d8c12ac9" x="406.8" y="151.23541" style="fill: #fa8072"/>
    </g>
    <g clip-path="url(#p95dc3d2c7d)">
     <use xlink:href="#C1_0_36d8c12ac9" x="406.8" y="66.96" style="fill: #fa8072"/>
    </g>
    <g clip-path="url(#p95dc3d2c7d)">
     <use xlink:href="#C1_0_36d8c12ac9" x="406.8" y="252.03541" style="fill: #fa8072"/>
    </g>
    <g clip-path="url(#p95dc3d2c7d)">
     <use xlink:href="#C1_0_36d8c12ac9" x="408.509131" y="276.822295" style="fill: #fa8072"/>
    </g>
    <g clip-path="url(#p95dc3d2c7d)">
     <use xlink:href="#C1_0_36d8c12ac9" x="406.8" y="369.36" style="fill: #fa8072"/>
    </g>
    <g clip-path="url(#p95dc3d2c7d)">
     <use xlink:href="#C1_0_36d8c12ac9" x="406.8" y="296.651803" style="fill: #fa8072"/>
    </g>
    <g clip-path="url(#p95dc3d2c7d)">
     <use xlink:href="#C1_0_36d8c12ac9" x="401.541867" y="180.979672" style="fill: #fa8072"/>
    </g>
    <g clip-path="url(#p95dc3d2c7d)">
     <use xlink:href="#C1_0_36d8c12ac9" x="406.8" y="285.08459" style="fill: #fa8072"/>
    </g>
    <g clip-path="url(#p95dc3d2c7d)">
     <use xlink:href="#C1_0_36d8c12ac9" x="401.541867" y="147.930492" style="fill: #fa8072"/>
    </g>
   </g>
   <g id="legend_1">
    <g id="patch_7">
     <path d="M 434.373437 102.672812 
L 511.4 102.672812 
Q 513.4 102.672812 513.4 100.672812 
L 513.4 58.84 
Q 513.4 56.84 511.4 56.84 
L 434.373437 56.84 
Q 432.373437 56.84 432.373437 58.84 
L 432.373437 100.672812 
Q 432.373437 102.672812 434.373437 102.672812 
z
" style="fill: #ffffff; opacity: 0.8; stroke: #cccccc; stroke-linejoin: miter"/>
    </g>
    <g id="text_13">
     <!-- Mortality -->
     <g transform="translate(453.996094 68.013437) scale(0.1 -0.1)">
      <use xlink:href="#Helvetica-4d"/>
      <use xlink:href="#Helvetica-6f" x="83.300781"/>
      <use xlink:href="#Helvetica-72" x="138.916016"/>
      <use xlink:href="#Helvetica-74" x="172.216797"/>
      <use xlink:href="#Helvetica-61" x="200"/>
      <use xlink:href="#Helvetica-6c" x="255.615234"/>
      <use xlink:href="#Helvetica-69" x="277.832031"/>
      <use xlink:href="#Helvetica-74" x="300.048828"/>
      <use xlink:href="#Helvetica-79" x="327.832031"/>
     </g>
    </g>
    <g id="PathCollection_5">
     <path d="M 446.373437 82.705625 
C 447.169047 82.705625 447.932177 82.389526 448.494758 81.826945 
C 449.057339 81.264365 449.373437 80.501234 449.373437 79.705625 
C 449.373437 78.910016 449.057339 78.146885 448.494758 77.584305 
C 447.932177 77.021724 447.169047 76.705625 446.373437 76.705625 
C 445.577828 76.705625 444.814698 77.021724 444.252117 77.584305 
C 443.689536 78.146885 443.373437 78.910016 443.373437 79.705625 
C 443.373437 80.501234 443.689536 81.264365 444.252117 81.826945 
C 444.814698 82.389526 445.577828 82.705625 446.373437 82.705625 
z
" style="fill: #87ceeb"/>
    </g>
    <g id="text_14">
     <!-- Alive -->
     <g transform="translate(464.373437 82.330625) scale(0.1 -0.1)">
      <use xlink:href="#Helvetica-41"/>
      <use xlink:href="#Helvetica-6c" x="66.699219"/>
      <use xlink:href="#Helvetica-69" x="88.916016"/>
      <use xlink:href="#Helvetica-76" x="111.132812"/>
      <use xlink:href="#Helvetica-65" x="161.132812"/>
     </g>
    </g>
    <g id="PathCollection_6">
     <path d="M 446.373437 96.963437 
C 447.169047 96.963437 447.932177 96.647339 448.494758 96.084758 
C 449.057339 95.522177 449.373437 94.759047 449.373437 93.963437 
C 449.373437 93.167828 449.057339 92.404698 448.494758 91.842117 
C 447.932177 91.279536 447.169047 90.963437 446.373437 90.963437 
C 445.577828 90.963437 444.814698 91.279536 444.252117 91.842117 
C 443.689536 92.404698 443.373437 93.167828 443.373437 93.963437 
C 443.373437 94.759047 443.689536 95.522177 444.252117 96.084758 
C 444.814698 96.647339 445.577828 96.963437 446.373437 96.963437 
z
" style="fill: #fa8072"/>
    </g>
    <g id="text_15">
     <!-- Deceased -->
     <g transform="translate(464.373437 96.588437) scale(0.1 -0.1)">
      <use xlink:href="#Helvetica-44"/>
      <use xlink:href="#Helvetica-65" x="72.216797"/>
      <use xlink:href="#Helvetica-63" x="127.832031"/>
      <use xlink:href="#Helvetica-65" x="177.832031"/>
      <use xlink:href="#Helvetica-61" x="233.447266"/>
      <use xlink:href="#Helvetica-73" x="289.0625"/>
      <use xlink:href="#Helvetica-65" x="339.0625"/>
      <use xlink:href="#Helvetica-64" x="394.677734"/>
     </g>
    </g>
   </g>
  </g>
 </g>
 <defs>
  <clipPath id="p95dc3d2c7d">
   <rect x="72" y="51.84" width="446.4" height="332.64"/>
  </clipPath>
 </defs>
</svg>
