<?xml version="1.0" encoding="utf-8" standalone="no"?>
<!DOCTYPE svg PUBLIC "-//W3C//DTD SVG 1.1//EN"
  "http://www.w3.org/Graphics/SVG/1.1/DTD/svg11.dtd">
<svg xmlns:xlink="http://www.w3.org/1999/xlink" width="576pt" height="432pt" viewBox="0 0 576 432" xmlns="http://www.w3.org/2000/svg" version="1.1">
 <metadata>
  <rdf:RDF xmlns:dc="http://purl.org/dc/elements/1.1/" xmlns:cc="http://creativecommons.org/ns#" xmlns:rdf="http://www.w3.org/1999/02/22-rdf-syntax-ns#">
   <cc:Work>
    <dc:type rdf:resource="http://purl.org/dc/dcmitype/StillImage"/>
    <dc:date>2023-11-06T20:58:53.325181</dc:date>
    <dc:format>image/svg+xml</dc:format>
    <dc:creator>
     <cc:Agent>
      <dc:title>Matplotlib v3.7.2, https://matplotlib.org/</dc:title>
     </cc:Agent>
    </dc:creator>
   </cc:Work>
  </rdf:RDF>
 </metadata>
 <defs>
  <style type="text/css">*{stroke-linejoin: round; stroke-linecap: butt}</style>
 </defs>
 <g id="figure_1">
  <g id="patch_1">
   <path d="M 0 432 
L 576 432 
L 576 0 
L 0 0 
z
" style="fill: #ffffff"/>
  </g>
  <g id="axes_1">
   <g id="patch_2">
    <path d="M 72 384.48 
L 518.4 384.48 
L 518.4 51.84 
L 72 51.84 
z
" style="fill: #ffffff"/>
   </g>
   <g id="PathCollection_1"/>
   <g id="PathCollection_2"/>
   <g id="matplotlib.axis_1">
    <g id="xtick_1">
     <g id="line2d_1">
      <defs>
       <path id="m0f22107103" d="M 0 0 
L 0 3.5 
" style="stroke: #000000; stroke-width: 0.8"/>
      </defs>
      <g>
       <use xlink:href="#m0f22107103" x="183.6" y="384.48" style="stroke: #000000; stroke-width: 0.8"/>
      </g>
     </g>
     <g id="text_1">
      <!-- Alive -->
      <g transform="translate(172.7625 398.653437) scale(0.1 -0.1)">
       <defs>
        <path id="Helvetica-41" d="M 2844 1881 
L 2147 3909 
L 1406 1881 
L 2844 1881 
z
M 1822 4591 
L 2525 4591 
L 4191 0 
L 3509 0 
L 3044 1375 
L 1228 1375 
L 731 0 
L 94 0 
L 1822 4591 
z
" transform="scale(0.015625)"/>
        <path id="Helvetica-6c" d="M 428 4591 
L 991 4591 
L 991 0 
L 428 0 
L 428 4591 
z
" transform="scale(0.015625)"/>
        <path id="Helvetica-69" d="M 413 3331 
L 984 3331 
L 984 0 
L 413 0 
L 413 3331 
z
M 413 4591 
L 984 4591 
L 984 3953 
L 413 3953 
L 413 4591 
z
" transform="scale(0.015625)"/>
        <path id="Helvetica-76" d="M 688 3347 
L 1581 622 
L 2516 3347 
L 3131 3347 
L 1869 0 
L 1269 0 
L 34 3347 
L 688 3347 
z
" transform="scale(0.015625)"/>
        <path id="Helvetica-65" d="M 1806 3422 
Q 2163 3422 2497 3255 
Q 2831 3088 3006 2822 
Q 3175 2569 3231 2231 
Q 3281 2000 3281 1494 
L 828 1494 
Q 844 984 1069 676 
Q 1294 369 1766 369 
Q 2206 369 2469 659 
Q 2619 828 2681 1050 
L 3234 1050 
Q 3213 866 3089 639 
Q 2966 413 2813 269 
Q 2556 19 2178 -69 
Q 1975 -119 1719 -119 
Q 1094 -119 659 336 
Q 225 791 225 1609 
Q 225 2416 662 2919 
Q 1100 3422 1806 3422 
z
M 2703 1941 
Q 2669 2306 2544 2525 
Q 2313 2931 1772 2931 
Q 1384 2931 1121 2651 
Q 859 2372 844 1941 
L 2703 1941 
z
M 1753 3428 
L 1753 3428 
z
" transform="scale(0.015625)"/>
       </defs>
       <use xlink:href="#Helvetica-41"/>
       <use xlink:href="#Helvetica-6c" x="66.699219"/>
       <use xlink:href="#Helvetica-69" x="88.916016"/>
       <use xlink:href="#Helvetica-76" x="111.132812"/>
       <use xlink:href="#Helvetica-65" x="161.132812"/>
      </g>
     </g>
    </g>
    <g id="xtick_2">
     <g id="line2d_2">
      <g>
       <use xlink:href="#m0f22107103" x="406.8" y="384.48" style="stroke: #000000; stroke-width: 0.8"/>
      </g>
     </g>
     <g id="text_2">
      <!-- Deceased -->
      <g transform="translate(384.286719 398.653437) scale(0.1 -0.1)">
       <defs>
        <path id="Helvetica-44" d="M 2250 531 
Q 2566 531 2769 597 
Q 3131 719 3363 1066 
Q 3547 1344 3628 1778 
Q 3675 2038 3675 2259 
Q 3675 3113 3336 3584 
Q 2997 4056 2244 4056 
L 1141 4056 
L 1141 531 
L 2250 531 
z
M 516 4591 
L 2375 4591 
Q 3322 4591 3844 3919 
Q 4309 3313 4309 2366 
Q 4309 1634 4034 1044 
Q 3550 0 2369 0 
L 516 0 
L 516 4591 
z
" transform="scale(0.015625)"/>
        <path id="Helvetica-63" d="M 1703 3444 
Q 2269 3444 2623 3169 
Q 2978 2894 3050 2222 
L 2503 2222 
Q 2453 2531 2275 2736 
Q 2097 2941 1703 2941 
Q 1166 2941 934 2416 
Q 784 2075 784 1575 
Q 784 1072 996 728 
Q 1209 384 1666 384 
Q 2016 384 2220 598 
Q 2425 813 2503 1184 
L 3050 1184 
Q 2956 519 2581 211 
Q 2206 -97 1622 -97 
Q 966 -97 575 383 
Q 184 863 184 1581 
Q 184 2463 612 2953 
Q 1041 3444 1703 3444 
z
M 1616 3428 
L 1616 3428 
z
" transform="scale(0.015625)"/>
        <path id="Helvetica-61" d="M 844 891 
Q 844 647 1022 506 
Q 1200 366 1444 366 
Q 1741 366 2019 503 
Q 2488 731 2488 1250 
L 2488 1703 
Q 2384 1638 2221 1594 
Q 2059 1550 1903 1531 
L 1563 1488 
Q 1256 1447 1103 1359 
Q 844 1213 844 891 
z
M 2206 2028 
Q 2400 2053 2466 2191 
Q 2503 2266 2503 2406 
Q 2503 2694 2298 2823 
Q 2094 2953 1713 2953 
Q 1272 2953 1088 2716 
Q 984 2584 953 2325 
L 428 2325 
Q 444 2944 830 3186 
Q 1216 3428 1725 3428 
Q 2316 3428 2684 3203 
Q 3050 2978 3050 2503 
L 3050 575 
Q 3050 488 3086 434 
Q 3122 381 3238 381 
Q 3275 381 3322 386 
Q 3369 391 3422 400 
L 3422 -16 
Q 3291 -53 3222 -62 
Q 3153 -72 3034 -72 
Q 2744 -72 2613 134 
Q 2544 244 2516 444 
Q 2344 219 2022 53 
Q 1700 -113 1313 -113 
Q 847 -113 551 170 
Q 256 453 256 878 
Q 256 1344 547 1600 
Q 838 1856 1309 1916 
L 2206 2028 
z
M 1741 3428 
L 1741 3428 
z
" transform="scale(0.015625)"/>
        <path id="Helvetica-73" d="M 747 1050 
Q 772 769 888 619 
Q 1100 347 1625 347 
Q 1938 347 2175 483 
Q 2413 619 2413 903 
Q 2413 1119 2222 1231 
Q 2100 1300 1741 1391 
L 1294 1503 
Q 866 1609 663 1741 
Q 300 1969 300 2372 
Q 300 2847 642 3140 
Q 984 3434 1563 3434 
Q 2319 3434 2653 2991 
Q 2863 2709 2856 2384 
L 2325 2384 
Q 2309 2575 2191 2731 
Q 1997 2953 1519 2953 
Q 1200 2953 1036 2831 
Q 872 2709 872 2509 
Q 872 2291 1088 2159 
Q 1213 2081 1456 2022 
L 1828 1931 
Q 2434 1784 2641 1647 
Q 2969 1431 2969 969 
Q 2969 522 2630 197 
Q 2291 -128 1597 -128 
Q 850 -128 539 211 
Q 228 550 206 1050 
L 747 1050 
z
M 1578 3428 
L 1578 3428 
z
" transform="scale(0.015625)"/>
        <path id="Helvetica-64" d="M 769 1634 
Q 769 1097 997 734 
Q 1225 372 1728 372 
Q 2119 372 2370 708 
Q 2622 1044 2622 1672 
Q 2622 2306 2362 2611 
Q 2103 2916 1722 2916 
Q 1297 2916 1033 2591 
Q 769 2266 769 1634 
z
M 1616 3406 
Q 2000 3406 2259 3244 
Q 2409 3150 2600 2916 
L 2600 4606 
L 3141 4606 
L 3141 0 
L 2634 0 
L 2634 466 
Q 2438 156 2169 18 
Q 1900 -119 1553 -119 
Q 994 -119 584 351 
Q 175 822 175 1603 
Q 175 2334 548 2870 
Q 922 3406 1616 3406 
z
" transform="scale(0.015625)"/>
       </defs>
       <use xlink:href="#Helvetica-44"/>
       <use xlink:href="#Helvetica-65" x="72.216797"/>
       <use xlink:href="#Helvetica-63" x="127.832031"/>
       <use xlink:href="#Helvetica-65" x="177.832031"/>
       <use xlink:href="#Helvetica-61" x="233.447266"/>
       <use xlink:href="#Helvetica-73" x="289.0625"/>
       <use xlink:href="#Helvetica-65" x="339.0625"/>
       <use xlink:href="#Helvetica-64" x="394.677734"/>
      </g>
     </g>
    </g>
    <g id="text_3">
     <!-- Mortality -->
     <g transform="translate(276.309375 411.91125) scale(0.1 -0.1)">
      <defs>
       <path id="Helvetica-4d" d="M 472 4591 
L 1363 4591 
L 2681 709 
L 3991 4591 
L 4872 4591 
L 4872 0 
L 4281 0 
L 4281 2709 
Q 4281 2850 4287 3175 
Q 4294 3500 4294 3872 
L 2984 0 
L 2369 0 
L 1050 3872 
L 1050 3731 
Q 1050 3563 1058 3217 
Q 1066 2872 1066 2709 
L 1066 0 
L 472 0 
L 472 4591 
z
" transform="scale(0.015625)"/>
       <path id="Helvetica-6f" d="M 1741 363 
Q 2300 363 2508 786 
Q 2716 1209 2716 1728 
Q 2716 2197 2566 2491 
Q 2328 2953 1747 2953 
Q 1231 2953 997 2559 
Q 763 2166 763 1609 
Q 763 1075 997 719 
Q 1231 363 1741 363 
z
M 1763 3444 
Q 2409 3444 2856 3012 
Q 3303 2581 3303 1744 
Q 3303 934 2909 406 
Q 2516 -122 1688 -122 
Q 997 -122 590 345 
Q 184 813 184 1600 
Q 184 2444 612 2944 
Q 1041 3444 1763 3444 
z
M 1744 3428 
L 1744 3428 
z
" transform="scale(0.015625)"/>
       <path id="Helvetica-72" d="M 428 3347 
L 963 3347 
L 963 2769 
Q 1028 2938 1284 3180 
Q 1541 3422 1875 3422 
Q 1891 3422 1928 3419 
Q 1966 3416 2056 3406 
L 2056 2813 
Q 2006 2822 1964 2825 
Q 1922 2828 1872 2828 
Q 1447 2828 1219 2554 
Q 991 2281 991 1925 
L 991 0 
L 428 0 
L 428 3347 
z
" transform="scale(0.015625)"/>
       <path id="Helvetica-74" d="M 525 4281 
L 1094 4281 
L 1094 3347 
L 1628 3347 
L 1628 2888 
L 1094 2888 
L 1094 703 
Q 1094 528 1213 469 
Q 1278 434 1431 434 
Q 1472 434 1519 436 
Q 1566 438 1628 444 
L 1628 0 
Q 1531 -28 1426 -40 
Q 1322 -53 1200 -53 
Q 806 -53 665 148 
Q 525 350 525 672 
L 525 2888 
L 72 2888 
L 72 3347 
L 525 3347 
L 525 4281 
z
" transform="scale(0.015625)"/>
       <path id="Helvetica-79" d="M 2503 3347 
L 3125 3347 
Q 3006 3025 2597 1878 
Q 2291 1016 2084 472 
Q 1597 -809 1397 -1090 
Q 1197 -1372 709 -1372 
Q 591 -1372 527 -1362 
Q 463 -1353 369 -1328 
L 369 -816 
Q 516 -856 581 -865 
Q 647 -875 697 -875 
Q 853 -875 926 -823 
Q 1000 -772 1050 -697 
Q 1066 -672 1162 -440 
Q 1259 -209 1303 -97 
L 66 3347 
L 703 3347 
L 1600 622 
L 2503 3347 
z
M 1597 3428 
L 1597 3428 
z
" transform="scale(0.015625)"/>
      </defs>
      <use xlink:href="#Helvetica-4d"/>
      <use xlink:href="#Helvetica-6f" x="83.300781"/>
      <use xlink:href="#Helvetica-72" x="138.916016"/>
      <use xlink:href="#Helvetica-74" x="172.216797"/>
      <use xlink:href="#Helvetica-61" x="200"/>
      <use xlink:href="#Helvetica-6c" x="255.615234"/>
      <use xlink:href="#Helvetica-69" x="277.832031"/>
      <use xlink:href="#Helvetica-74" x="300.048828"/>
      <use xlink:href="#Helvetica-79" x="327.832031"/>
     </g>
    </g>
   </g>
   <g id="matplotlib.axis_2">
    <g id="ytick_1">
     <g id="line2d_3">
      <defs>
       <path id="m17ee496e9f" d="M 0 0 
L -3.5 0 
" style="stroke: #000000; stroke-width: 0.8"/>
      </defs>
      <g>
       <use xlink:href="#m17ee496e9f" x="72" y="365.946907" style="stroke: #000000; stroke-width: 0.8"/>
      </g>
     </g>
     <g id="text_4">
      <!-- 15 -->
      <g transform="translate(53.878125 369.533626) scale(0.1 -0.1)">
       <defs>
        <path id="Helvetica-31" d="M 613 3169 
L 613 3600 
Q 1222 3659 1462 3798 
Q 1703 3938 1822 4456 
L 2266 4456 
L 2266 0 
L 1666 0 
L 1666 3169 
L 613 3169 
z
" transform="scale(0.015625)"/>
        <path id="Helvetica-35" d="M 791 1141 
Q 847 659 1238 475 
Q 1438 381 1700 381 
Q 2200 381 2440 700 
Q 2681 1019 2681 1406 
Q 2681 1875 2395 2131 
Q 2109 2388 1709 2388 
Q 1419 2388 1211 2275 
Q 1003 2163 856 1963 
L 369 1991 
L 709 4400 
L 3034 4400 
L 3034 3856 
L 1131 3856 
L 941 2613 
Q 1097 2731 1238 2791 
Q 1488 2894 1816 2894 
Q 2431 2894 2859 2497 
Q 3288 2100 3288 1491 
Q 3288 856 2895 371 
Q 2503 -113 1644 -113 
Q 1097 -113 676 195 
Q 256 503 206 1141 
L 791 1141 
z
" transform="scale(0.015625)"/>
       </defs>
       <use xlink:href="#Helvetica-31"/>
       <use xlink:href="#Helvetica-35" x="55.615234"/>
      </g>
     </g>
    </g>
    <g id="ytick_2">
     <g id="line2d_4">
      <g>
       <use xlink:href="#m17ee496e9f" x="72" y="309.062032" style="stroke: #000000; stroke-width: 0.8"/>
      </g>
     </g>
     <g id="text_5">
      <!-- 20 -->
      <g transform="translate(53.878125 312.64875) scale(0.1 -0.1)">
       <defs>
        <path id="Helvetica-32" d="M 200 0 
Q 231 578 439 1006 
Q 647 1434 1250 1784 
L 1850 2131 
Q 2253 2366 2416 2531 
Q 2672 2791 2672 3125 
Q 2672 3516 2437 3745 
Q 2203 3975 1813 3975 
Q 1234 3975 1013 3538 
Q 894 3303 881 2888 
L 309 2888 
Q 319 3472 525 3841 
Q 891 4491 1816 4491 
Q 2584 4491 2939 4075 
Q 3294 3659 3294 3150 
Q 3294 2613 2916 2231 
Q 2697 2009 2131 1694 
L 1703 1456 
Q 1397 1288 1222 1134 
Q 909 863 828 531 
L 3272 531 
L 3272 0 
L 200 0 
z
" transform="scale(0.015625)"/>
        <path id="Helvetica-30" d="M 1731 4475 
Q 2600 4475 2988 3759 
Q 3288 3206 3288 2244 
Q 3288 1331 3016 734 
Q 2622 -122 1728 -122 
Q 922 -122 528 578 
Q 200 1163 200 2147 
Q 200 2909 397 3456 
Q 766 4475 1731 4475 
z
M 1725 391 
Q 2163 391 2422 778 
Q 2681 1166 2681 2222 
Q 2681 2984 2493 3476 
Q 2306 3969 1766 3969 
Q 1269 3969 1039 3501 
Q 809 3034 809 2125 
Q 809 1441 956 1025 
Q 1181 391 1725 391 
z
" transform="scale(0.015625)"/>
       </defs>
       <use xlink:href="#Helvetica-32"/>
       <use xlink:href="#Helvetica-30" x="55.615234"/>
      </g>
     </g>
    </g>
    <g id="ytick_3">
     <g id="line2d_5">
      <g>
       <use xlink:href="#m17ee496e9f" x="72" y="252.177156" style="stroke: #000000; stroke-width: 0.8"/>
      </g>
     </g>
     <g id="text_6">
      <!-- 25 -->
      <g transform="translate(53.878125 255.763875) scale(0.1 -0.1)">
       <use xlink:href="#Helvetica-32"/>
       <use xlink:href="#Helvetica-35" x="55.615234"/>
      </g>
     </g>
    </g>
    <g id="ytick_4">
     <g id="line2d_6">
      <g>
       <use xlink:href="#m17ee496e9f" x="72" y="195.29228" style="stroke: #000000; stroke-width: 0.8"/>
      </g>
     </g>
     <g id="text_7">
      <!-- 30 -->
      <g transform="translate(53.878125 198.878999) scale(0.1 -0.1)">
       <defs>
        <path id="Helvetica-33" d="M 1663 -122 
Q 869 -122 511 314 
Q 153 750 153 1375 
L 741 1375 
Q 778 941 903 744 
Q 1122 391 1694 391 
Q 2138 391 2406 628 
Q 2675 866 2675 1241 
Q 2675 1703 2392 1887 
Q 2109 2072 1606 2072 
Q 1550 2072 1492 2070 
Q 1434 2069 1375 2066 
L 1375 2563 
Q 1463 2553 1522 2550 
Q 1581 2547 1650 2547 
Q 1966 2547 2169 2647 
Q 2525 2822 2525 3272 
Q 2525 3606 2287 3787 
Q 2050 3969 1734 3969 
Q 1172 3969 956 3594 
Q 838 3388 822 3006 
L 266 3006 
Q 266 3506 466 3856 
Q 809 4481 1675 4481 
Q 2359 4481 2734 4176 
Q 3109 3872 3109 3294 
Q 3109 2881 2888 2625 
Q 2750 2466 2531 2375 
Q 2884 2278 3082 2001 
Q 3281 1725 3281 1325 
Q 3281 684 2859 281 
Q 2438 -122 1663 -122 
z
" transform="scale(0.015625)"/>
       </defs>
       <use xlink:href="#Helvetica-33"/>
       <use xlink:href="#Helvetica-30" x="55.615234"/>
      </g>
     </g>
    </g>
    <g id="ytick_5">
     <g id="line2d_7">
      <g>
       <use xlink:href="#m17ee496e9f" x="72" y="138.407404" style="stroke: #000000; stroke-width: 0.8"/>
      </g>
     </g>
     <g id="text_8">
      <!-- 35 -->
      <g transform="translate(53.878125 141.994123) scale(0.1 -0.1)">
       <use xlink:href="#Helvetica-33"/>
       <use xlink:href="#Helvetica-35" x="55.615234"/>
      </g>
     </g>
    </g>
    <g id="ytick_6">
     <g id="line2d_8">
      <g>
       <use xlink:href="#m17ee496e9f" x="72" y="81.522528" style="stroke: #000000; stroke-width: 0.8"/>
      </g>
     </g>
     <g id="text_9">
      <!-- 40 -->
      <g transform="translate(53.878125 85.109247) scale(0.1 -0.1)">
       <defs>
        <path id="Helvetica-34" d="M 2116 1584 
L 2116 3613 
L 681 1584 
L 2116 1584 
z
M 2125 0 
L 2125 1094 
L 163 1094 
L 163 1644 
L 2213 4488 
L 2688 4488 
L 2688 1584 
L 3347 1584 
L 3347 1094 
L 2688 1094 
L 2688 0 
L 2125 0 
z
" transform="scale(0.015625)"/>
       </defs>
       <use xlink:href="#Helvetica-34"/>
       <use xlink:href="#Helvetica-30" x="55.615234"/>
      </g>
     </g>
    </g>
    <g id="text_10">
     <!-- % Area -->
     <g transform="translate(47.79375 234.556094) rotate(-90) scale(0.1 -0.1)">
      <defs>
       <path id="Helvetica-25" d="M 4363 2175 
Q 4813 2175 5131 1856 
Q 5450 1538 5450 1088 
Q 5450 638 5131 319 
Q 4813 0 4363 0 
Q 3909 0 3590 319 
Q 3272 638 3272 1088 
Q 3272 1538 3590 1856 
Q 3909 2175 4363 2175 
z
M 3909 4456 
L 4256 4456 
L 1753 -119 
L 1406 -119 
L 3909 4456 
z
M 1294 2606 
Q 1563 2606 1752 2795 
Q 1941 2984 1941 3250 
Q 1941 3516 1752 3705 
Q 1563 3894 1294 3894 
Q 1028 3894 839 3706 
Q 650 3519 650 3250 
Q 650 2984 839 2795 
Q 1028 2606 1294 2606 
z
M 1294 4341 
Q 1747 4341 2065 4020 
Q 2384 3700 2384 3250 
Q 2384 2800 2065 2481 
Q 1747 2163 1294 2163 
Q 844 2163 525 2481 
Q 206 2800 206 3250 
Q 206 3700 525 4020 
Q 844 4341 1294 4341 
z
M 4363 444 
Q 4628 444 4817 633 
Q 5006 822 5006 1088 
Q 5006 1353 4817 1542 
Q 4628 1731 4363 1731 
Q 4094 1731 3905 1542 
Q 3716 1353 3716 1088 
Q 3716 822 3905 633 
Q 4094 444 4363 444 
z
" transform="scale(0.015625)"/>
       <path id="Helvetica-20" transform="scale(0.015625)"/>
      </defs>
      <use xlink:href="#Helvetica-25"/>
      <use xlink:href="#Helvetica-20" x="88.916016"/>
      <use xlink:href="#Helvetica-41" x="116.699219"/>
      <use xlink:href="#Helvetica-72" x="183.398438"/>
      <use xlink:href="#Helvetica-65" x="216.699219"/>
      <use xlink:href="#Helvetica-61" x="272.314453"/>
     </g>
    </g>
   </g>
   <g id="patch_3">
    <path d="M 72 384.48 
L 72 51.84 
" style="fill: none; stroke: #000000; stroke-width: 0.8; stroke-linejoin: miter; stroke-linecap: square"/>
   </g>
   <g id="patch_4">
    <path d="M 518.4 384.48 
L 518.4 51.84 
" style="fill: none; stroke: #000000; stroke-width: 0.8; stroke-linejoin: miter; stroke-linecap: square"/>
   </g>
   <g id="patch_5">
    <path d="M 72 384.48 
L 518.4 384.48 
" style="fill: none; stroke: #000000; stroke-width: 0.8; stroke-linejoin: miter; stroke-linecap: square"/>
   </g>
   <g id="patch_6">
    <path d="M 72 51.84 
L 518.4 51.84 
" style="fill: none; stroke: #000000; stroke-width: 0.8; stroke-linejoin: miter; stroke-linecap: square"/>
   </g>
   <g id="PathCollection_3">
    <defs>
     <path id="C0_0_87ee9390e6" d="M 0 3 
C 0.795609 3 1.55874 2.683901 2.12132 2.12132 
C 2.683901 1.55874 3 0.795609 3 -0 
C 3 -0.795609 2.683901 -1.55874 2.12132 -2.12132 
C 1.55874 -2.683901 0.795609 -3 0 -3 
C -0.795609 -3 -1.55874 -2.683901 -2.12132 -2.12132 
C -2.683901 -1.55874 -3 -0.795609 -3 0 
C -3 0.795609 -2.683901 1.55874 -2.12132 2.12132 
C -1.55874 2.683901 -0.795609 3 0 3 
z
"/>
    </defs>
    <g clip-path="url(#p8eb26f4110)">
     <use xlink:href="#C0_0_87ee9390e6" x="179.637466" y="132.036298" style="fill: #87ceeb"/>
    </g>
    <g clip-path="url(#p8eb26f4110)">
     <use xlink:href="#C0_0_87ee9390e6" x="177.414293" y="203.597472" style="fill: #87ceeb"/>
    </g>
    <g clip-path="url(#p8eb26f4110)">
     <use xlink:href="#C0_0_87ee9390e6" x="183.6" y="272.086862" style="fill: #87ceeb"/>
    </g>
    <g clip-path="url(#p8eb26f4110)">
     <use xlink:href="#C0_0_87ee9390e6" x="183.6" y="121.114402" style="fill: #87ceeb"/>
    </g>
    <g clip-path="url(#p8eb26f4110)">
     <use xlink:href="#C0_0_87ee9390e6" x="178.503308" y="192.675576" style="fill: #87ceeb"/>
    </g>
    <g clip-path="url(#p8eb26f4110)">
     <use xlink:href="#C0_0_87ee9390e6" x="183.6" y="235.339233" style="fill: #87ceeb"/>
    </g>
    <g clip-path="url(#p8eb26f4110)">
     <use xlink:href="#C0_0_87ee9390e6" x="188.25503" y="241.824108" style="fill: #87ceeb"/>
    </g>
    <g clip-path="url(#p8eb26f4110)">
     <use xlink:href="#C0_0_87ee9390e6" x="189.011744" y="285.511693" style="fill: #87ceeb"/>
    </g>
    <g clip-path="url(#p8eb26f4110)">
     <use xlink:href="#C0_0_87ee9390e6" x="184.976203" y="128.850745" style="fill: #87ceeb"/>
    </g>
    <g clip-path="url(#p8eb26f4110)">
     <use xlink:href="#C0_0_87ee9390e6" x="183.6" y="301.098149" style="fill: #87ceeb"/>
    </g>
    <g clip-path="url(#p8eb26f4110)">
     <use xlink:href="#C0_0_87ee9390e6" x="180.990154" y="254.452551" style="fill: #87ceeb"/>
    </g>
    <g clip-path="url(#p8eb26f4110)">
     <use xlink:href="#C0_0_87ee9390e6" x="183.6" y="259.913499" style="fill: #87ceeb"/>
    </g>
    <g clip-path="url(#p8eb26f4110)">
     <use xlink:href="#C0_0_87ee9390e6" x="183.6" y="196.202438" style="fill: #87ceeb"/>
    </g>
    <g clip-path="url(#p8eb26f4110)">
     <use xlink:href="#C0_0_87ee9390e6" x="183.6" y="221.800632" style="fill: #87ceeb"/>
    </g>
    <g clip-path="url(#p8eb26f4110)">
     <use xlink:href="#C0_0_87ee9390e6" x="187.073148" y="318.277381" style="fill: #87ceeb"/>
    </g>
    <g clip-path="url(#p8eb26f4110)">
     <use xlink:href="#C0_0_87ee9390e6" x="183.6" y="66.96" style="fill: #87ceeb"/>
    </g>
    <g clip-path="url(#p8eb26f4110)">
     <use xlink:href="#C0_0_87ee9390e6" x="188.513387" y="227.48912" style="fill: #87ceeb"/>
    </g>
    <g clip-path="url(#p8eb26f4110)">
     <use xlink:href="#C0_0_87ee9390e6" x="183.6" y="280.050745" style="fill: #87ceeb"/>
    </g>
    <g clip-path="url(#p8eb26f4110)">
     <use xlink:href="#C0_0_87ee9390e6" x="183.6" y="288.583476" style="fill: #87ceeb"/>
    </g>
    <g clip-path="url(#p8eb26f4110)">
     <use xlink:href="#C0_0_87ee9390e6" x="187.41015" y="116.336072" style="fill: #87ceeb"/>
    </g>
    <g clip-path="url(#p8eb26f4110)">
     <use xlink:href="#C0_0_87ee9390e6" x="183.6" y="153.538781" style="fill: #87ceeb"/>
    </g>
    <g clip-path="url(#p8eb26f4110)">
     <use xlink:href="#C0_0_87ee9390e6" x="183.6" y="188.807404" style="fill: #87ceeb"/>
    </g>
    <g clip-path="url(#p8eb26f4110)">
     <use xlink:href="#C0_0_87ee9390e6" x="189.378997" y="219.411467" style="fill: #87ceeb"/>
    </g>
    <g clip-path="url(#p8eb26f4110)">
     <use xlink:href="#C0_0_87ee9390e6" x="183.6" y="180.843521" style="fill: #87ceeb"/>
    </g>
    <g clip-path="url(#p8eb26f4110)">
     <use xlink:href="#C0_0_87ee9390e6" x="182.549673" y="229.423205" style="fill: #87ceeb"/>
    </g>
    <g clip-path="url(#p8eb26f4110)">
     <use xlink:href="#C0_0_87ee9390e6" x="178.443876" y="224.872415" style="fill: #87ceeb"/>
    </g>
    <g clip-path="url(#p8eb26f4110)">
     <use xlink:href="#C0_0_87ee9390e6" x="183.6" y="211.447585" style="fill: #87ceeb"/>
    </g>
    <g clip-path="url(#p8eb26f4110)">
     <use xlink:href="#C0_0_87ee9390e6" x="177.930694" y="298.481445" style="fill: #87ceeb"/>
    </g>
    <g clip-path="url(#p8eb26f4110)">
     <use xlink:href="#C0_0_87ee9390e6" x="177.678308" y="321.235395" style="fill: #87ceeb"/>
    </g>
    <g clip-path="url(#p8eb26f4110)">
     <use xlink:href="#C0_0_87ee9390e6" x="183.6" y="136.700858" style="fill: #87ceeb"/>
    </g>
    <g clip-path="url(#p8eb26f4110)">
     <use xlink:href="#C0_0_87ee9390e6" x="183.6" y="248.308984" style="fill: #87ceeb"/>
    </g>
    <g clip-path="url(#p8eb26f4110)">
     <use xlink:href="#C0_0_87ee9390e6" x="178.188256" y="276.978962" style="fill: #87ceeb"/>
    </g>
    <g clip-path="url(#p8eb26f4110)">
     <use xlink:href="#C0_0_87ee9390e6" x="183.6" y="204.735169" style="fill: #87ceeb"/>
    </g>
    <g clip-path="url(#p8eb26f4110)">
     <use xlink:href="#C0_0_87ee9390e6" x="177.304532" y="312.247585" style="fill: #87ceeb"/>
    </g>
    <g clip-path="url(#p8eb26f4110)">
     <use xlink:href="#C0_0_87ee9390e6" x="187.217248" y="253.542393" style="fill: #87ceeb"/>
    </g>
    <g clip-path="url(#p8eb26f4110)">
     <use xlink:href="#C0_0_87ee9390e6" x="177.392415" y="287.559549" style="fill: #87ceeb"/>
    </g>
    <g clip-path="url(#p8eb26f4110)">
     <use xlink:href="#C0_0_87ee9390e6" x="177.874339" y="269.583928" style="fill: #87ceeb"/>
    </g>
    <g clip-path="url(#p8eb26f4110)">
     <use xlink:href="#C0_0_87ee9390e6" x="183.6" y="146.826366" style="fill: #87ceeb"/>
    </g>
    <g clip-path="url(#p8eb26f4110)">
     <use xlink:href="#C0_0_87ee9390e6" x="181.995935" y="242.506727" style="fill: #87ceeb"/>
    </g>
    <g clip-path="url(#p8eb26f4110)">
     <use xlink:href="#C0_0_87ee9390e6" x="183.6" y="312.475124" style="fill: #87ceeb"/>
    </g>
    <g clip-path="url(#p8eb26f4110)">
     <use xlink:href="#C0_0_87ee9390e6" x="183.6" y="323.283251" style="fill: #87ceeb"/>
    </g>
    <g clip-path="url(#p8eb26f4110)">
     <use xlink:href="#C0_0_87ee9390e6" x="183.6" y="347.516208" style="fill: #87ceeb"/>
    </g>
    <g clip-path="url(#p8eb26f4110)">
     <use xlink:href="#C0_0_87ee9390e6" x="177.310201" y="211.106275" style="fill: #87ceeb"/>
    </g>
    <g clip-path="url(#p8eb26f4110)">
     <use xlink:href="#C0_0_87ee9390e6" x="177.3" y="121.114402" style="fill: #87ceeb"/>
    </g>
    <g clip-path="url(#p8eb26f4110)">
     <use xlink:href="#C0_0_87ee9390e6" x="183.6" y="369.36" style="fill: #87ceeb"/>
    </g>
   </g>
   <g id="PathCollection_4">
    <defs>
     <path id="C1_0_d8eccfb892" d="M 0 3 
C 0.795609 3 1.55874 2.683901 2.12132 2.12132 
C 2.683901 1.55874 3 0.795609 3 -0 
C 3 -0.795609 2.683901 -1.55874 2.12132 -2.12132 
C 1.55874 -2.683901 0.795609 -3 0 -3 
C -0.795609 -3 -1.55874 -2.683901 -2.12132 -2.12132 
C -2.683901 -1.55874 -3 -0.795609 -3 0 
C -3 0.795609 -2.683901 1.55874 -2.12132 2.12132 
C -1.55874 2.683901 -0.795609 3 0 3 
z
"/>
    </defs>
    <g clip-path="url(#p8eb26f4110)">
     <use xlink:href="#C1_0_d8eccfb892" x="406.8" y="317.367223" style="fill: #fa8072"/>
    </g>
    <g clip-path="url(#p8eb26f4110)">
     <use xlink:href="#C1_0_d8eccfb892" x="406.8" y="270.494086" style="fill: #fa8072"/>
    </g>
    <g clip-path="url(#p8eb26f4110)">
     <use xlink:href="#C1_0_d8eccfb892" x="406.8" y="245.919819" style="fill: #fa8072"/>
    </g>
    <g clip-path="url(#p8eb26f4110)">
     <use xlink:href="#C1_0_d8eccfb892" x="411.714232" y="266.739684" style="fill: #fa8072"/>
    </g>
    <g clip-path="url(#p8eb26f4110)">
     <use xlink:href="#C1_0_d8eccfb892" x="400.923059" y="257.069255" style="fill: #fa8072"/>
    </g>
    <g clip-path="url(#p8eb26f4110)">
     <use xlink:href="#C1_0_d8eccfb892" x="403.326852" y="240.91395" style="fill: #fa8072"/>
    </g>
    <g clip-path="url(#p8eb26f4110)">
     <use xlink:href="#C1_0_d8eccfb892" x="406.8" y="170.262935" style="fill: #fa8072"/>
    </g>
    <g clip-path="url(#p8eb26f4110)">
     <use xlink:href="#C1_0_d8eccfb892" x="406.8" y="285.056614" style="fill: #fa8072"/>
    </g>
    <g clip-path="url(#p8eb26f4110)">
     <use xlink:href="#C1_0_d8eccfb892" x="406.8" y="259.23088" style="fill: #fa8072"/>
    </g>
    <g clip-path="url(#p8eb26f4110)">
     <use xlink:href="#C1_0_d8eccfb892" x="409.553946" y="240.003792" style="fill: #fa8072"/>
    </g>
    <g clip-path="url(#p8eb26f4110)">
     <use xlink:href="#C1_0_d8eccfb892" x="406.8" y="158.54465" style="fill: #fa8072"/>
    </g>
    <g clip-path="url(#p8eb26f4110)">
     <use xlink:href="#C1_0_d8eccfb892" x="400.572906" y="269.583928" style="fill: #fa8072"/>
    </g>
    <g clip-path="url(#p8eb26f4110)">
     <use xlink:href="#C1_0_d8eccfb892" x="406.8" y="293.475576" style="fill: #fa8072"/>
    </g>
    <g clip-path="url(#p8eb26f4110)">
     <use xlink:href="#C1_0_d8eccfb892" x="406.8" y="324.876027" style="fill: #fa8072"/>
    </g>
    <g clip-path="url(#p8eb26f4110)">
     <use xlink:href="#C1_0_d8eccfb892" x="406.8" y="229.423205" style="fill: #fa8072"/>
    </g>
    <g clip-path="url(#p8eb26f4110)">
     <use xlink:href="#C1_0_d8eccfb892" x="406.8" y="310.996117" style="fill: #fa8072"/>
    </g>
    <g clip-path="url(#p8eb26f4110)">
     <use xlink:href="#C1_0_d8eccfb892" x="406.8" y="331.815982" style="fill: #fa8072"/>
    </g>
    <g clip-path="url(#p8eb26f4110)">
     <use xlink:href="#C1_0_d8eccfb892" x="406.8" y="181.867449" style="fill: #fa8072"/>
    </g>
   </g>
   <g id="legend_1">
    <g id="patch_7">
     <path d="M 434.373437 102.672812 
L 511.4 102.672812 
Q 513.4 102.672812 513.4 100.672812 
L 513.4 58.84 
Q 513.4 56.84 511.4 56.84 
L 434.373437 56.84 
Q 432.373437 56.84 432.373437 58.84 
L 432.373437 100.672812 
Q 432.373437 102.672812 434.373437 102.672812 
z
" style="fill: #ffffff; opacity: 0.8; stroke: #cccccc; stroke-linejoin: miter"/>
    </g>
    <g id="text_11">
     <!-- Mortality -->
     <g transform="translate(453.996094 68.013437) scale(0.1 -0.1)">
      <use xlink:href="#Helvetica-4d"/>
      <use xlink:href="#Helvetica-6f" x="83.300781"/>
      <use xlink:href="#Helvetica-72" x="138.916016"/>
      <use xlink:href="#Helvetica-74" x="172.216797"/>
      <use xlink:href="#Helvetica-61" x="200"/>
      <use xlink:href="#Helvetica-6c" x="255.615234"/>
      <use xlink:href="#Helvetica-69" x="277.832031"/>
      <use xlink:href="#Helvetica-74" x="300.048828"/>
      <use xlink:href="#Helvetica-79" x="327.832031"/>
     </g>
    </g>
    <g id="PathCollection_5">
     <path d="M 446.373437 82.705625 
C 447.169047 82.705625 447.932177 82.389526 448.494758 81.826945 
C 449.057339 81.264365 449.373437 80.501234 449.373437 79.705625 
C 449.373437 78.910016 449.057339 78.146885 448.494758 77.584305 
C 447.932177 77.021724 447.169047 76.705625 446.373437 76.705625 
C 445.577828 76.705625 444.814698 77.021724 444.252117 77.584305 
C 443.689536 78.146885 443.373437 78.910016 443.373437 79.705625 
C 443.373437 80.501234 443.689536 81.264365 444.252117 81.826945 
C 444.814698 82.389526 445.577828 82.705625 446.373437 82.705625 
z
" style="fill: #87ceeb"/>
    </g>
    <g id="text_12">
     <!-- Alive -->
     <g transform="translate(464.373437 82.330625) scale(0.1 -0.1)">
      <use xlink:href="#Helvetica-41"/>
      <use xlink:href="#Helvetica-6c" x="66.699219"/>
      <use xlink:href="#Helvetica-69" x="88.916016"/>
      <use xlink:href="#Helvetica-76" x="111.132812"/>
      <use xlink:href="#Helvetica-65" x="161.132812"/>
     </g>
    </g>
    <g id="PathCollection_6">
     <path d="M 446.373437 96.963437 
C 447.169047 96.963437 447.932177 96.647339 448.494758 96.084758 
C 449.057339 95.522177 449.373437 94.759047 449.373437 93.963437 
C 449.373437 93.167828 449.057339 92.404698 448.494758 91.842117 
C 447.932177 91.279536 447.169047 90.963437 446.373437 90.963437 
C 445.577828 90.963437 444.814698 91.279536 444.252117 91.842117 
C 443.689536 92.404698 443.373437 93.167828 443.373437 93.963437 
C 443.373437 94.759047 443.689536 95.522177 444.252117 96.084758 
C 444.814698 96.647339 445.577828 96.963437 446.373437 96.963437 
z
" style="fill: #fa8072"/>
    </g>
    <g id="text_13">
     <!-- Deceased -->
     <g transform="translate(464.373437 96.588437) scale(0.1 -0.1)">
      <use xlink:href="#Helvetica-44"/>
      <use xlink:href="#Helvetica-65" x="72.216797"/>
      <use xlink:href="#Helvetica-63" x="127.832031"/>
      <use xlink:href="#Helvetica-65" x="177.832031"/>
      <use xlink:href="#Helvetica-61" x="233.447266"/>
      <use xlink:href="#Helvetica-73" x="289.0625"/>
      <use xlink:href="#Helvetica-65" x="339.0625"/>
      <use xlink:href="#Helvetica-64" x="394.677734"/>
     </g>
    </g>
   </g>
  </g>
 </g>
 <defs>
  <clipPath id="p8eb26f4110">
   <rect x="72" y="51.84" width="446.4" height="332.64"/>
  </clipPath>
 </defs>
</svg>
