<?xml version="1.0" encoding="utf-8" standalone="no"?>
<!DOCTYPE svg PUBLIC "-//W3C//DTD SVG 1.1//EN"
  "http://www.w3.org/Graphics/SVG/1.1/DTD/svg11.dtd">
<svg xmlns:xlink="http://www.w3.org/1999/xlink" width="1154.865646pt" height="696.96pt" viewBox="0 0 1154.865646 696.96" xmlns="http://www.w3.org/2000/svg" version="1.1">
 <metadata>
  <rdf:RDF xmlns:dc="http://purl.org/dc/elements/1.1/" xmlns:cc="http://creativecommons.org/ns#" xmlns:rdf="http://www.w3.org/1999/02/22-rdf-syntax-ns#">
   <cc:Work>
    <dc:type rdf:resource="http://purl.org/dc/dcmitype/StillImage"/>
    <dc:date>2023-11-08T14:09:10.525408</dc:date>
    <dc:format>image/svg+xml</dc:format>
    <dc:creator>
     <cc:Agent>
      <dc:title>Matplotlib v3.7.2, https://matplotlib.org/</dc:title>
     </cc:Agent>
    </dc:creator>
   </cc:Work>
  </rdf:RDF>
 </metadata>
 <defs>
  <style type="text/css">*{stroke-linejoin: round; stroke-linecap: butt}</style>
 </defs>
 <g id="figure_1">
  <g id="patch_1">
   <path d="M 0 696.96 
L 1154.865646 696.96 
L 1154.865646 0 
L 0 0 
z
" style="fill: #ffffff"/>
  </g>
  <g id="axes_1">
   <g id="patch_2">
    <path d="M 756.246047 323.45044 
C 751.542354 269.686989 729.467815 218.887254 693.373978 178.76409 
C 657.28014 138.640927 609.091073 111.333197 556.123257 100.986996 
L 508.434595 345.131133 
z
" style="fill: #f1a811"/>
   </g>
   <g id="patch_3">
    <path d="M 551.738041 99.386757 
C 524.713765 94.108106 496.99962 93.352868 469.727968 97.151899 
C 442.456317 100.950931 416.003714 109.251777 391.450979 121.715276 
L 504.049379 343.530894 
z
" style="fill: #f1a811"/>
   </g>
   <g id="patch_4">
    <path d="M 388.621187 123.123137 
C 365.26952 134.976947 343.935525 150.444269 325.408581 168.952794 
C 306.881637 187.461319 291.393104 208.77992 279.516073 232.119784 
L 501.219587 344.938754 
z
" style="fill: #f1a811"/>
   </g>
   <g id="patch_5">
    <path d="M 278.372361 233.89673 
C 274.127926 242.237582 270.357565 250.811315 267.079264 259.577032 
C 263.800964 268.342748 261.019945 277.286487 258.749475 286.365584 
L 500.075875 346.7157 
z
" style="fill: #f1a811"/>
   </g>
   <g id="patch_6">
    <path d="M 258.477674 287.452433 
C 256.207383 296.530808 254.451175 305.730063 253.217425 315.006322 
C 251.983675 324.28258 251.274348 333.621071 251.092827 342.977255 
L 499.804074 347.802549 
z
" style="fill: #f1a811"/>
   </g>
   <g id="patch_7">
    <path d="M 251.064849 344.024963 
C 250.906824 352.17009 251.149015 360.318065 251.790547 368.439426 
C 252.432079 376.560787 253.472178 384.645734 254.907083 392.66503 
L 499.776096 348.850257 
z
" style="fill: #f1a811"/>
   </g>
   <g id="patch_8">
    <path d="M 255.070352 393.594751 
C 256.411168 401.088212 258.095249 408.516177 260.117277 415.855193 
C 262.139305 423.194208 264.49715 430.436539 267.183366 437.559319 
L 499.939365 349.779978 
z
" style="fill: #f1a811"/>
   </g>
   <g id="patch_9">
    <path d="M 267.535101 438.473169 
C 270.618271 446.648513 274.130028 454.655743 278.055769 462.461558 
C 281.98151 470.267373 286.315784 477.860938 291.040566 485.210674 
L 500.291101 350.693828 
z
" style="fill: #1985de"/>
   </g>
   <g id="patch_10">
    <path d="M 291.606654 486.091174 
C 296.335659 493.447477 301.449297 500.54929 306.926265 507.367026 
C 312.403233 514.184761 318.235913 520.708938 324.400007 526.912375 
L 500.857189 351.574327 
z
" style="fill: #1985de"/>
   </g>
   <g id="patch_11">
    <path d="M 325.139679 527.656475 
C 331.326833 533.88312 337.839233 539.777914 344.649543 545.316115 
C 351.459853 550.854315 358.558532 556.028163 365.915784 560.815942 
L 501.596861 352.318427 
z
" style="fill: #1985de"/>
   </g>
   <g id="patch_12">
    <path d="M 366.819536 561.400775 
C 374.532978 566.420346 382.519032 571.00801 390.740859 575.142603 
C 398.962685 579.277197 407.407622 582.952352 416.036713 586.151116 
L 502.500612 352.90326 
z
" style="fill: #1985de"/>
   </g>
   <g id="patch_13">
    <path d="M 417.127308 586.548035 
C 426.681746 590.089821 436.444785 593.041201 446.361228 595.38549 
C 456.277671 597.729779 466.328794 599.462549 476.457772 600.574005 
L 503.591208 353.30018 
z
" style="fill: #1985de"/>
   </g>
   <g id="patch_14">
    <path d="M 477.815449 600.702895 
C 490.36111 602.079534 502.993366 602.499406 515.60275 601.958873 
C 528.212134 601.418339 540.762116 599.918966 553.143943 597.473746 
L 504.948884 353.42907 
z
" style="fill: #1985de"/>
   </g>
   <g id="patch_15">
    <path d="M 554.679735 597.160798 
C 568.046126 594.521142 581.173092 590.787821 593.928122 585.998521 
C 606.683152 581.20922 619.023184 575.38011 630.823651 568.570031 
L 506.484676 353.116121 
z
" style="fill: #1985de"/>
   </g>
   <g id="patch_16">
    <path d="M 632.411063 567.603109 
C 647.621009 558.825413 661.858796 548.461723 674.886117 536.685504 
C 687.913438 524.909286 699.657202 511.786609 709.920847 497.537117 
L 508.072088 352.1492 
z
" style="fill: #1985de"/>
   </g>
   <g id="patch_17">
    <path d="M 711.381505 495.166089 
C 728.666807 471.168107 741.534686 444.278715 749.379694 415.763093 
C 757.224701 387.247471 759.921836 357.559979 757.344195 328.09745 
L 509.532746 349.778172 
z
" style="fill: #1985de"/>
   </g>
   <g id="matplotlib.axis_1"/>
   <g id="matplotlib.axis_2"/>
   <g id="text_1">
    <!-- DDIMER CONC (NG/ML) -->
    <g transform="translate(730.361854 150.148182) scale(0.18 -0.18)">
     <defs>
      <path id="Arial-BoldMT-44" d="M 463 4581 
L 2153 4581 
Q 2725 4581 3025 4494 
Q 3428 4375 3715 4072 
Q 4003 3769 4153 3330 
Q 4303 2891 4303 2247 
Q 4303 1681 4163 1272 
Q 3991 772 3672 463 
Q 3431 228 3022 97 
Q 2716 0 2203 0 
L 463 0 
L 463 4581 
z
M 1388 3806 
L 1388 772 
L 2078 772 
Q 2466 772 2638 816 
Q 2863 872 3011 1006 
Q 3159 1141 3253 1448 
Q 3347 1756 3347 2288 
Q 3347 2819 3253 3103 
Q 3159 3388 2990 3547 
Q 2822 3706 2563 3763 
Q 2369 3806 1803 3806 
L 1388 3806 
z
" transform="scale(0.015625)"/>
      <path id="Arial-BoldMT-49" d="M 438 0 
L 438 4581 
L 1363 4581 
L 1363 0 
L 438 0 
z
" transform="scale(0.015625)"/>
      <path id="Arial-BoldMT-4d" d="M 453 0 
L 453 4581 
L 1838 4581 
L 2669 1456 
L 3491 4581 
L 4878 4581 
L 4878 0 
L 4019 0 
L 4019 3606 
L 3109 0 
L 2219 0 
L 1313 3606 
L 1313 0 
L 453 0 
z
" transform="scale(0.015625)"/>
      <path id="Arial-BoldMT-45" d="M 466 0 
L 466 4581 
L 3863 4581 
L 3863 3806 
L 1391 3806 
L 1391 2791 
L 3691 2791 
L 3691 2019 
L 1391 2019 
L 1391 772 
L 3950 772 
L 3950 0 
L 466 0 
z
" transform="scale(0.015625)"/>
      <path id="Arial-BoldMT-52" d="M 469 0 
L 469 4581 
L 2416 4581 
Q 3150 4581 3483 4457 
Q 3816 4334 4016 4018 
Q 4216 3703 4216 3297 
Q 4216 2781 3912 2445 
Q 3609 2109 3006 2022 
Q 3306 1847 3501 1637 
Q 3697 1428 4028 894 
L 4588 0 
L 3481 0 
L 2813 997 
Q 2456 1531 2325 1670 
Q 2194 1809 2047 1861 
Q 1900 1913 1581 1913 
L 1394 1913 
L 1394 0 
L 469 0 
z
M 1394 2644 
L 2078 2644 
Q 2744 2644 2909 2700 
Q 3075 2756 3169 2893 
Q 3263 3031 3263 3238 
Q 3263 3469 3139 3611 
Q 3016 3753 2791 3791 
Q 2678 3806 2116 3806 
L 1394 3806 
L 1394 2644 
z
" transform="scale(0.015625)"/>
      <path id="Arial-BoldMT-20" transform="scale(0.015625)"/>
      <path id="Arial-BoldMT-43" d="M 3397 1684 
L 4294 1400 
Q 4088 650 3608 286 
Q 3128 -78 2391 -78 
Q 1478 -78 890 545 
Q 303 1169 303 2250 
Q 303 3394 893 4026 
Q 1484 4659 2447 4659 
Q 3288 4659 3813 4163 
Q 4125 3869 4281 3319 
L 3366 3100 
Q 3284 3456 3026 3662 
Q 2769 3869 2400 3869 
Q 1891 3869 1573 3503 
Q 1256 3138 1256 2319 
Q 1256 1450 1568 1081 
Q 1881 713 2381 713 
Q 2750 713 3015 947 
Q 3281 1181 3397 1684 
z
" transform="scale(0.015625)"/>
      <path id="Arial-BoldMT-4f" d="M 278 2263 
Q 278 2963 488 3438 
Q 644 3788 914 4066 
Q 1184 4344 1506 4478 
Q 1934 4659 2494 4659 
Q 3506 4659 4114 4031 
Q 4722 3403 4722 2284 
Q 4722 1175 4119 548 
Q 3516 -78 2506 -78 
Q 1484 -78 881 545 
Q 278 1169 278 2263 
z
M 1231 2294 
Q 1231 1516 1590 1114 
Q 1950 713 2503 713 
Q 3056 713 3411 1111 
Q 3766 1509 3766 2306 
Q 3766 3094 3420 3481 
Q 3075 3869 2503 3869 
Q 1931 3869 1581 3476 
Q 1231 3084 1231 2294 
z
" transform="scale(0.015625)"/>
      <path id="Arial-BoldMT-4e" d="M 475 0 
L 475 4581 
L 1375 4581 
L 3250 1522 
L 3250 4581 
L 4109 4581 
L 4109 0 
L 3181 0 
L 1334 2988 
L 1334 0 
L 475 0 
z
" transform="scale(0.015625)"/>
      <path id="Arial-BoldMT-28" d="M 1916 -1347 
L 1313 -1347 
Q 834 -625 584 153 
Q 334 931 334 1659 
Q 334 2563 644 3369 
Q 913 4069 1325 4659 
L 1925 4659 
Q 1497 3713 1336 3048 
Q 1175 2384 1175 1641 
Q 1175 1128 1270 590 
Q 1366 53 1531 -431 
Q 1641 -750 1916 -1347 
z
" transform="scale(0.015625)"/>
      <path id="Arial-BoldMT-47" d="M 2597 1684 
L 2597 2456 
L 4591 2456 
L 4591 631 
Q 4300 350 3748 136 
Q 3197 -78 2631 -78 
Q 1913 -78 1378 223 
Q 844 525 575 1086 
Q 306 1647 306 2306 
Q 306 3022 606 3578 
Q 906 4134 1484 4431 
Q 1925 4659 2581 4659 
Q 3434 4659 3914 4301 
Q 4394 3944 4531 3313 
L 3613 3141 
Q 3516 3478 3248 3673 
Q 2981 3869 2581 3869 
Q 1975 3869 1617 3484 
Q 1259 3100 1259 2344 
Q 1259 1528 1621 1120 
Q 1984 713 2572 713 
Q 2863 713 3155 827 
Q 3447 941 3656 1103 
L 3656 1684 
L 2597 1684 
z
" transform="scale(0.015625)"/>
      <path id="Arial-BoldMT-2f" d="M -9 -78 
L 1125 4659 
L 1784 4659 
L 638 -78 
L -9 -78 
z
" transform="scale(0.015625)"/>
      <path id="Arial-BoldMT-4c" d="M 491 0 
L 491 4544 
L 1416 4544 
L 1416 772 
L 3716 772 
L 3716 0 
L 491 0 
z
" transform="scale(0.015625)"/>
      <path id="Arial-BoldMT-29" d="M 216 -1347 
Q 475 -791 581 -494 
Q 688 -197 778 190 
Q 869 578 912 926 
Q 956 1275 956 1641 
Q 956 2384 797 3048 
Q 638 3713 209 4659 
L 806 4659 
Q 1278 3988 1539 3234 
Q 1800 2481 1800 1706 
Q 1800 1053 1594 306 
Q 1359 -531 822 -1347 
L 216 -1347 
z
" transform="scale(0.015625)"/>
     </defs>
     <use xlink:href="#Arial-BoldMT-44"/>
     <use xlink:href="#Arial-BoldMT-44" x="72.216797"/>
     <use xlink:href="#Arial-BoldMT-49" x="144.433594"/>
     <use xlink:href="#Arial-BoldMT-4d" x="172.216797"/>
     <use xlink:href="#Arial-BoldMT-45" x="255.517578"/>
     <use xlink:href="#Arial-BoldMT-52" x="322.216797"/>
     <use xlink:href="#Arial-BoldMT-20" x="394.433594"/>
     <use xlink:href="#Arial-BoldMT-43" x="422.216797"/>
     <use xlink:href="#Arial-BoldMT-4f" x="494.433594"/>
     <use xlink:href="#Arial-BoldMT-4e" x="572.216797"/>
     <use xlink:href="#Arial-BoldMT-43" x="644.433594"/>
     <use xlink:href="#Arial-BoldMT-20" x="716.650391"/>
     <use xlink:href="#Arial-BoldMT-28" x="744.433594"/>
     <use xlink:href="#Arial-BoldMT-4e" x="777.734375"/>
     <use xlink:href="#Arial-BoldMT-47" x="849.951172"/>
     <use xlink:href="#Arial-BoldMT-2f" x="927.734375"/>
     <use xlink:href="#Arial-BoldMT-4d" x="955.517578"/>
     <use xlink:href="#Arial-BoldMT-4c" x="1038.818359"/>
     <use xlink:href="#Arial-BoldMT-29" x="1099.902344"/>
    </g>
   </g>
   <g id="text_2">
    <!-- 21% -->
    <g transform="translate(638.373445 216.703436) scale(0.18 -0.18)">
     <defs>
      <path id="Arial-BoldMT-32" d="M 3238 816 
L 3238 0 
L 159 0 
Q 209 463 459 877 
Q 709 1291 1447 1975 
Q 2041 2528 2175 2725 
Q 2356 2997 2356 3263 
Q 2356 3556 2198 3714 
Q 2041 3872 1763 3872 
Q 1488 3872 1325 3706 
Q 1163 3541 1138 3156 
L 263 3244 
Q 341 3969 753 4284 
Q 1166 4600 1784 4600 
Q 2463 4600 2850 4234 
Q 3238 3869 3238 3325 
Q 3238 3016 3127 2736 
Q 3016 2456 2775 2150 
Q 2616 1947 2200 1565 
Q 1784 1184 1673 1059 
Q 1563 934 1494 816 
L 3238 816 
z
" transform="scale(0.015625)"/>
      <path id="Arial-BoldMT-31" d="M 2519 0 
L 1641 0 
L 1641 3309 
Q 1159 2859 506 2644 
L 506 3441 
Q 850 3553 1253 3867 
Q 1656 4181 1806 4600 
L 2519 4600 
L 2519 0 
z
" transform="scale(0.015625)"/>
      <path id="Arial-BoldMT-25" d="M 278 3450 
Q 278 4066 548 4362 
Q 819 4659 1281 4659 
Q 1759 4659 2029 4364 
Q 2300 4069 2300 3450 
Q 2300 2834 2029 2537 
Q 1759 2241 1297 2241 
Q 819 2241 548 2536 
Q 278 2831 278 3450 
z
M 963 3456 
Q 963 3009 1066 2856 
Q 1144 2744 1281 2744 
Q 1422 2744 1500 2856 
Q 1600 3009 1600 3456 
Q 1600 3903 1500 4053 
Q 1422 4169 1281 4169 
Q 1144 4169 1066 4056 
Q 963 3903 963 3456 
z
M 1950 -175 
L 1300 -175 
L 3741 4659 
L 4372 4659 
L 1950 -175 
z
M 3369 1028 
Q 3369 1644 3639 1941 
Q 3909 2238 4378 2238 
Q 4850 2238 5120 1941 
Q 5391 1644 5391 1028 
Q 5391 409 5120 112 
Q 4850 -184 4388 -184 
Q 3909 -184 3639 112 
Q 3369 409 3369 1028 
z
M 4053 1031 
Q 4053 584 4156 434 
Q 4234 319 4372 319 
Q 4513 319 4588 431 
Q 4691 584 4691 1031 
Q 4691 1478 4591 1631 
Q 4513 1744 4372 1744 
Q 4231 1744 4156 1631 
Q 4053 1478 4053 1031 
z
" transform="scale(0.015625)"/>
     </defs>
     <use xlink:href="#Arial-BoldMT-32"/>
     <use xlink:href="#Arial-BoldMT-31" x="55.615234"/>
     <use xlink:href="#Arial-BoldMT-25" x="111.230469"/>
    </g>
   </g>
   <g id="text_3">
    <!-- POLYMERIZATION RATE (PA/S) -->
    <g transform="translate(194.492124 52.5336) scale(0.18 -0.18)">
     <defs>
      <path id="Arial-BoldMT-50" d="M 466 0 
L 466 4581 
L 1950 4581 
Q 2794 4581 3050 4513 
Q 3444 4409 3709 4064 
Q 3975 3719 3975 3172 
Q 3975 2750 3822 2462 
Q 3669 2175 3433 2011 
Q 3197 1847 2953 1794 
Q 2622 1728 1994 1728 
L 1391 1728 
L 1391 0 
L 466 0 
z
M 1391 3806 
L 1391 2506 
L 1897 2506 
Q 2444 2506 2628 2578 
Q 2813 2650 2917 2803 
Q 3022 2956 3022 3159 
Q 3022 3409 2875 3571 
Q 2728 3734 2503 3775 
Q 2338 3806 1838 3806 
L 1391 3806 
z
" transform="scale(0.015625)"/>
      <path id="Arial-BoldMT-59" d="M 1669 0 
L 1669 1928 
L -9 4581 
L 1075 4581 
L 2153 2769 
L 3209 4581 
L 4275 4581 
L 2591 1922 
L 2591 0 
L 1669 0 
z
" transform="scale(0.015625)"/>
      <path id="Arial-BoldMT-5a" d="M 69 0 
L 69 834 
L 2475 3806 
L 341 3806 
L 341 4581 
L 3694 4581 
L 3694 3863 
L 1184 772 
L 3791 772 
L 3791 0 
L 69 0 
z
" transform="scale(0.015625)"/>
      <path id="Arial-BoldMT-41" d="M 4597 0 
L 3591 0 
L 3191 1041 
L 1359 1041 
L 981 0 
L 0 0 
L 1784 4581 
L 2763 4581 
L 4597 0 
z
M 2894 1813 
L 2263 3513 
L 1644 1813 
L 2894 1813 
z
" transform="scale(0.015625)"/>
      <path id="Arial-BoldMT-54" d="M 1497 0 
L 1497 3806 
L 138 3806 
L 138 4581 
L 3778 4581 
L 3778 3806 
L 2422 3806 
L 2422 0 
L 1497 0 
z
" transform="scale(0.015625)"/>
      <path id="Arial-BoldMT-53" d="M 231 1491 
L 1131 1578 
Q 1213 1125 1461 912 
Q 1709 700 2131 700 
Q 2578 700 2804 889 
Q 3031 1078 3031 1331 
Q 3031 1494 2936 1608 
Q 2841 1722 2603 1806 
Q 2441 1863 1863 2006 
Q 1119 2191 819 2459 
Q 397 2838 397 3381 
Q 397 3731 595 4036 
Q 794 4341 1167 4500 
Q 1541 4659 2069 4659 
Q 2931 4659 3367 4281 
Q 3803 3903 3825 3272 
L 2900 3231 
Q 2841 3584 2645 3739 
Q 2450 3894 2059 3894 
Q 1656 3894 1428 3728 
Q 1281 3622 1281 3444 
Q 1281 3281 1419 3166 
Q 1594 3019 2269 2859 
Q 2944 2700 3267 2529 
Q 3591 2359 3773 2064 
Q 3956 1769 3956 1334 
Q 3956 941 3737 597 
Q 3519 253 3119 86 
Q 2719 -81 2122 -81 
Q 1253 -81 787 320 
Q 322 722 231 1491 
z
" transform="scale(0.015625)"/>
     </defs>
     <use xlink:href="#Arial-BoldMT-50"/>
     <use xlink:href="#Arial-BoldMT-4f" x="66.699219"/>
     <use xlink:href="#Arial-BoldMT-4c" x="144.482422"/>
     <use xlink:href="#Arial-BoldMT-59" x="196.441406"/>
     <use xlink:href="#Arial-BoldMT-4d" x="263.140625"/>
     <use xlink:href="#Arial-BoldMT-45" x="346.441406"/>
     <use xlink:href="#Arial-BoldMT-52" x="413.140625"/>
     <use xlink:href="#Arial-BoldMT-49" x="485.357422"/>
     <use xlink:href="#Arial-BoldMT-5a" x="513.140625"/>
     <use xlink:href="#Arial-BoldMT-41" x="574.224609"/>
     <use xlink:href="#Arial-BoldMT-54" x="639.066406"/>
     <use xlink:href="#Arial-BoldMT-49" x="700.150391"/>
     <use xlink:href="#Arial-BoldMT-4f" x="727.933594"/>
     <use xlink:href="#Arial-BoldMT-4e" x="805.716797"/>
     <use xlink:href="#Arial-BoldMT-20" x="877.933594"/>
     <use xlink:href="#Arial-BoldMT-52" x="905.716797"/>
     <use xlink:href="#Arial-BoldMT-41" x="977.933594"/>
     <use xlink:href="#Arial-BoldMT-54" x="1042.775391"/>
     <use xlink:href="#Arial-BoldMT-45" x="1103.859375"/>
     <use xlink:href="#Arial-BoldMT-20" x="1170.558594"/>
     <use xlink:href="#Arial-BoldMT-28" x="1198.341797"/>
     <use xlink:href="#Arial-BoldMT-50" x="1231.642578"/>
     <use xlink:href="#Arial-BoldMT-41" x="1290.966797"/>
     <use xlink:href="#Arial-BoldMT-2f" x="1363.183594"/>
     <use xlink:href="#Arial-BoldMT-53" x="1390.966797"/>
     <use xlink:href="#Arial-BoldMT-29" x="1457.666016"/>
    </g>
   </g>
   <g id="text_4">
    <!-- 11% -->
    <g transform="translate(459.074594 151.093636) scale(0.18 -0.18)">
     <use xlink:href="#Arial-BoldMT-31"/>
     <use xlink:href="#Arial-BoldMT-31" x="50.115234"/>
     <use xlink:href="#Arial-BoldMT-25" x="105.730469"/>
    </g>
   </g>
   <g id="text_5">
    <!-- FIBRINOGEN (MG/ML) -->
    <g transform="translate(100.276068 138.413102) scale(0.18 -0.18)">
     <defs>
      <path id="Arial-BoldMT-46" d="M 472 0 
L 472 4581 
L 3613 4581 
L 3613 3806 
L 1397 3806 
L 1397 2722 
L 3309 2722 
L 3309 1947 
L 1397 1947 
L 1397 0 
L 472 0 
z
" transform="scale(0.015625)"/>
      <path id="Arial-BoldMT-42" d="M 469 4581 
L 2300 4581 
Q 2844 4581 3111 4536 
Q 3378 4491 3589 4347 
Q 3800 4203 3940 3964 
Q 4081 3725 4081 3428 
Q 4081 3106 3907 2837 
Q 3734 2569 3438 2434 
Q 3856 2313 4081 2019 
Q 4306 1725 4306 1328 
Q 4306 1016 4161 720 
Q 4016 425 3764 248 
Q 3513 72 3144 31 
Q 2913 6 2028 0 
L 469 0 
L 469 4581 
z
M 1394 3819 
L 1394 2759 
L 2000 2759 
Q 2541 2759 2672 2775 
Q 2909 2803 3045 2939 
Q 3181 3075 3181 3297 
Q 3181 3509 3064 3642 
Q 2947 3775 2716 3803 
Q 2578 3819 1925 3819 
L 1394 3819 
z
M 1394 1997 
L 1394 772 
L 2250 772 
Q 2750 772 2884 800 
Q 3091 838 3220 983 
Q 3350 1128 3350 1372 
Q 3350 1578 3250 1722 
Q 3150 1866 2961 1931 
Q 2772 1997 2141 1997 
L 1394 1997 
z
" transform="scale(0.015625)"/>
     </defs>
     <use xlink:href="#Arial-BoldMT-46"/>
     <use xlink:href="#Arial-BoldMT-49" x="61.083984"/>
     <use xlink:href="#Arial-BoldMT-42" x="88.867188"/>
     <use xlink:href="#Arial-BoldMT-52" x="161.083984"/>
     <use xlink:href="#Arial-BoldMT-49" x="233.300781"/>
     <use xlink:href="#Arial-BoldMT-4e" x="261.083984"/>
     <use xlink:href="#Arial-BoldMT-4f" x="333.300781"/>
     <use xlink:href="#Arial-BoldMT-47" x="411.083984"/>
     <use xlink:href="#Arial-BoldMT-45" x="488.867188"/>
     <use xlink:href="#Arial-BoldMT-4e" x="555.566406"/>
     <use xlink:href="#Arial-BoldMT-20" x="627.783203"/>
     <use xlink:href="#Arial-BoldMT-28" x="655.566406"/>
     <use xlink:href="#Arial-BoldMT-4d" x="688.867188"/>
     <use xlink:href="#Arial-BoldMT-47" x="772.167969"/>
     <use xlink:href="#Arial-BoldMT-2f" x="849.951172"/>
     <use xlink:href="#Arial-BoldMT-4d" x="877.734375"/>
     <use xlink:href="#Arial-BoldMT-4c" x="961.035156"/>
     <use xlink:href="#Arial-BoldMT-29" x="1022.119141"/>
    </g>
   </g>
   <g id="text_6">
    <!-- 10% -->
    <g transform="translate(342.558126 208.815923) scale(0.18 -0.18)">
     <defs>
      <path id="Arial-BoldMT-30" d="M 1756 4600 
Q 2422 4600 2797 4125 
Q 3244 3563 3244 2259 
Q 3244 959 2794 391 
Q 2422 -78 1756 -78 
Q 1088 -78 678 436 
Q 269 950 269 2269 
Q 269 3563 719 4131 
Q 1091 4600 1756 4600 
z
M 1756 3872 
Q 1597 3872 1472 3770 
Q 1347 3669 1278 3406 
Q 1188 3066 1188 2259 
Q 1188 1453 1269 1151 
Q 1350 850 1473 750 
Q 1597 650 1756 650 
Q 1916 650 2041 751 
Q 2166 853 2234 1116 
Q 2325 1453 2325 2259 
Q 2325 3066 2244 3367 
Q 2163 3669 2039 3770 
Q 1916 3872 1756 3872 
z
" transform="scale(0.015625)"/>
     </defs>
     <use xlink:href="#Arial-BoldMT-31"/>
     <use xlink:href="#Arial-BoldMT-30" x="55.615234"/>
     <use xlink:href="#Arial-BoldMT-25" x="111.230469"/>
    </g>
   </g>
   <g id="text_7">
    <!-- % AREA -->
    <g transform="translate(149.143692 246.815236) scale(0.18 -0.18)">
     <use xlink:href="#Arial-BoldMT-25"/>
     <use xlink:href="#Arial-BoldMT-20" x="88.916016"/>
     <use xlink:href="#Arial-BoldMT-41" x="112.949219"/>
     <use xlink:href="#Arial-BoldMT-52" x="185.166016"/>
     <use xlink:href="#Arial-BoldMT-45" x="257.382812"/>
     <use xlink:href="#Arial-BoldMT-41" x="324.082031"/>
    </g>
   </g>
   <g id="text_8">
    <!-- 4% -->
    <g transform="translate(300.670774 281.670703) scale(0.18 -0.18)">
     <defs>
      <path id="Arial-BoldMT-34" d="M 1994 0 
L 1994 922 
L 119 922 
L 119 1691 
L 2106 4600 
L 2844 4600 
L 2844 1694 
L 3413 1694 
L 3413 922 
L 2844 922 
L 2844 0 
L 1994 0 
z
M 1994 1694 
L 1994 3259 
L 941 1694 
L 1994 1694 
z
" transform="scale(0.015625)"/>
     </defs>
     <use xlink:href="#Arial-BoldMT-34"/>
     <use xlink:href="#Arial-BoldMT-25" x="55.615234"/>
    </g>
   </g>
   <g id="text_9">
    <!-- MAX PA -->
    <g transform="translate(135.221658 313.113014) scale(0.18 -0.18)">
     <defs>
      <path id="Arial-BoldMT-58" d="M 0 0 
L 1566 2391 
L 147 4581 
L 1228 4581 
L 2147 3109 
L 3047 4581 
L 4119 4581 
L 2694 2356 
L 4259 0 
L 3144 0 
L 2128 1584 
L 1109 0 
L 0 0 
z
" transform="scale(0.015625)"/>
     </defs>
     <use xlink:href="#Arial-BoldMT-4d"/>
     <use xlink:href="#Arial-BoldMT-41" x="83.300781"/>
     <use xlink:href="#Arial-BoldMT-58" x="155.517578"/>
     <use xlink:href="#Arial-BoldMT-20" x="222.216797"/>
     <use xlink:href="#Arial-BoldMT-50" x="250"/>
     <use xlink:href="#Arial-BoldMT-41" x="309.324219"/>
    </g>
   </g>
   <g id="text_10">
    <!-- 4% -->
    <g transform="translate(289.526942 326.231505) scale(0.18 -0.18)">
     <use xlink:href="#Arial-BoldMT-34"/>
     <use xlink:href="#Arial-BoldMT-25" x="55.615234"/>
    </g>
   </g>
   <g id="text_11">
    <!-- PORE DIAMETER (UM) -->
    <g transform="translate(7.2 377.01476) scale(0.18 -0.18)">
     <defs>
      <path id="Arial-BoldMT-55" d="M 459 4581 
L 1384 4581 
L 1384 2100 
Q 1384 1509 1419 1334 
Q 1478 1053 1701 883 
Q 1925 713 2313 713 
Q 2706 713 2906 873 
Q 3106 1034 3147 1268 
Q 3188 1503 3188 2047 
L 3188 4581 
L 4113 4581 
L 4113 2175 
Q 4113 1350 4038 1009 
Q 3963 669 3761 434 
Q 3559 200 3221 61 
Q 2884 -78 2341 -78 
Q 1684 -78 1345 73 
Q 1006 225 809 467 
Q 613 709 550 975 
Q 459 1369 459 2138 
L 459 4581 
z
" transform="scale(0.015625)"/>
     </defs>
     <use xlink:href="#Arial-BoldMT-50"/>
     <use xlink:href="#Arial-BoldMT-4f" x="66.699219"/>
     <use xlink:href="#Arial-BoldMT-52" x="144.482422"/>
     <use xlink:href="#Arial-BoldMT-45" x="216.699219"/>
     <use xlink:href="#Arial-BoldMT-20" x="283.398438"/>
     <use xlink:href="#Arial-BoldMT-44" x="311.181641"/>
     <use xlink:href="#Arial-BoldMT-49" x="383.398438"/>
     <use xlink:href="#Arial-BoldMT-41" x="411.181641"/>
     <use xlink:href="#Arial-BoldMT-4d" x="483.398438"/>
     <use xlink:href="#Arial-BoldMT-45" x="566.699219"/>
     <use xlink:href="#Arial-BoldMT-54" x="633.398438"/>
     <use xlink:href="#Arial-BoldMT-45" x="694.482422"/>
     <use xlink:href="#Arial-BoldMT-52" x="761.181641"/>
     <use xlink:href="#Arial-BoldMT-20" x="833.398438"/>
     <use xlink:href="#Arial-BoldMT-28" x="861.181641"/>
     <use xlink:href="#Arial-BoldMT-55" x="894.482422"/>
     <use xlink:href="#Arial-BoldMT-4d" x="966.699219"/>
     <use xlink:href="#Arial-BoldMT-29" x="1050"/>
    </g>
   </g>
   <g id="text_12">
    <!-- 3% -->
    <g transform="translate(288.379845 369.18753) scale(0.18 -0.18)">
     <defs>
      <path id="Arial-BoldMT-33" d="M 241 1216 
L 1091 1319 
Q 1131 994 1309 822 
Q 1488 650 1741 650 
Q 2013 650 2198 856 
Q 2384 1063 2384 1413 
Q 2384 1744 2206 1937 
Q 2028 2131 1772 2131 
Q 1603 2131 1369 2066 
L 1466 2781 
Q 1822 2772 2009 2936 
Q 2197 3100 2197 3372 
Q 2197 3603 2059 3740 
Q 1922 3878 1694 3878 
Q 1469 3878 1309 3722 
Q 1150 3566 1116 3266 
L 306 3403 
Q 391 3819 561 4067 
Q 731 4316 1036 4458 
Q 1341 4600 1719 4600 
Q 2366 4600 2756 4188 
Q 3078 3850 3078 3425 
Q 3078 2822 2419 2463 
Q 2813 2378 3048 2084 
Q 3284 1791 3284 1375 
Q 3284 772 2843 347 
Q 2403 -78 1747 -78 
Q 1125 -78 715 280 
Q 306 638 241 1216 
z
" transform="scale(0.015625)"/>
     </defs>
     <use xlink:href="#Arial-BoldMT-33"/>
     <use xlink:href="#Arial-BoldMT-25" x="55.615234"/>
    </g>
   </g>
   <g id="text_13">
    <!-- T TO HALF MAX (S) -->
    <g transform="translate(44.496922 433.727735) scale(0.18 -0.18)">
     <defs>
      <path id="Arial-BoldMT-48" d="M 469 0 
L 469 4581 
L 1394 4581 
L 1394 2778 
L 3206 2778 
L 3206 4581 
L 4131 4581 
L 4131 0 
L 3206 0 
L 3206 2003 
L 1394 2003 
L 1394 0 
L 469 0 
z
" transform="scale(0.015625)"/>
     </defs>
     <use xlink:href="#Arial-BoldMT-54"/>
     <use xlink:href="#Arial-BoldMT-20" x="61.083984"/>
     <use xlink:href="#Arial-BoldMT-54" x="88.867188"/>
     <use xlink:href="#Arial-BoldMT-4f" x="148.201172"/>
     <use xlink:href="#Arial-BoldMT-20" x="225.984375"/>
     <use xlink:href="#Arial-BoldMT-48" x="253.767578"/>
     <use xlink:href="#Arial-BoldMT-41" x="325.984375"/>
     <use xlink:href="#Arial-BoldMT-4c" x="398.201172"/>
     <use xlink:href="#Arial-BoldMT-46" x="459.285156"/>
     <use xlink:href="#Arial-BoldMT-20" x="520.369141"/>
     <use xlink:href="#Arial-BoldMT-4d" x="548.152344"/>
     <use xlink:href="#Arial-BoldMT-41" x="631.453125"/>
     <use xlink:href="#Arial-BoldMT-58" x="703.669922"/>
     <use xlink:href="#Arial-BoldMT-20" x="770.369141"/>
     <use xlink:href="#Arial-BoldMT-28" x="798.152344"/>
     <use xlink:href="#Arial-BoldMT-53" x="831.453125"/>
     <use xlink:href="#Arial-BoldMT-29" x="898.152344"/>
    </g>
   </g>
   <g id="text_14">
    <!-- 3% -->
    <g transform="translate(295.073882 407.306087) scale(0.18 -0.18)">
     <use xlink:href="#Arial-BoldMT-33"/>
     <use xlink:href="#Arial-BoldMT-25" x="55.615234"/>
    </g>
   </g>
   <g id="text_15">
    <!-- RETURN TO SPORT -->
    <g transform="translate(61.922453 489.481041) scale(0.18 -0.18)">
     <use xlink:href="#Arial-BoldMT-52"/>
     <use xlink:href="#Arial-BoldMT-45" x="72.216797"/>
     <use xlink:href="#Arial-BoldMT-54" x="138.916016"/>
     <use xlink:href="#Arial-BoldMT-55" x="200"/>
     <use xlink:href="#Arial-BoldMT-52" x="272.216797"/>
     <use xlink:href="#Arial-BoldMT-4e" x="344.433594"/>
     <use xlink:href="#Arial-BoldMT-20" x="416.650391"/>
     <use xlink:href="#Arial-BoldMT-54" x="444.433594"/>
     <use xlink:href="#Arial-BoldMT-4f" x="503.767578"/>
     <use xlink:href="#Arial-BoldMT-20" x="581.550781"/>
     <use xlink:href="#Arial-BoldMT-53" x="609.333984"/>
     <use xlink:href="#Arial-BoldMT-50" x="676.033203"/>
     <use xlink:href="#Arial-BoldMT-4f" x="742.732422"/>
     <use xlink:href="#Arial-BoldMT-52" x="820.515625"/>
     <use xlink:href="#Arial-BoldMT-54" x="892.732422"/>
    </g>
   </g>
   <g id="text_16">
    <!-- 3% -->
    <g transform="translate(309.495023 444.773949) scale(0.18 -0.18)">
     <use xlink:href="#Arial-BoldMT-33"/>
     <use xlink:href="#Arial-BoldMT-25" x="55.615234"/>
    </g>
   </g>
   <g id="text_17">
    <!-- LACTATE -->
    <g transform="translate(186.808205 543.191503) scale(0.18 -0.18)">
     <use xlink:href="#Arial-BoldMT-4c"/>
     <use xlink:href="#Arial-BoldMT-41" x="61.083984"/>
     <use xlink:href="#Arial-BoldMT-43" x="133.300781"/>
     <use xlink:href="#Arial-BoldMT-54" x="205.517578"/>
     <use xlink:href="#Arial-BoldMT-41" x="259.226562"/>
     <use xlink:href="#Arial-BoldMT-54" x="324.068359"/>
     <use xlink:href="#Arial-BoldMT-45" x="385.152344"/>
    </g>
   </g>
   <g id="text_18">
    <!-- 3% -->
    <g transform="translate(332.704637 480.874424) scale(0.18 -0.18)">
     <use xlink:href="#Arial-BoldMT-33"/>
     <use xlink:href="#Arial-BoldMT-25" x="55.615234"/>
    </g>
   </g>
   <g id="text_19">
    <!-- TEMP -->
    <g transform="translate(263.259454 588.58159) scale(0.18 -0.18)">
     <use xlink:href="#Arial-BoldMT-54"/>
     <use xlink:href="#Arial-BoldMT-45" x="61.083984"/>
     <use xlink:href="#Arial-BoldMT-4d" x="127.783203"/>
     <use xlink:href="#Arial-BoldMT-50" x="211.083984"/>
    </g>
   </g>
   <g id="text_20">
    <!-- 3% -->
    <g transform="translate(363.031194 511.382515) scale(0.18 -0.18)">
     <use xlink:href="#Arial-BoldMT-33"/>
     <use xlink:href="#Arial-BoldMT-25" x="55.615234"/>
    </g>
   </g>
   <g id="text_21">
    <!-- DIASTOLIC BP -->
    <g transform="translate(241.702658 624.256409) scale(0.18 -0.18)">
     <use xlink:href="#Arial-BoldMT-44"/>
     <use xlink:href="#Arial-BoldMT-49" x="72.216797"/>
     <use xlink:href="#Arial-BoldMT-41" x="100"/>
     <use xlink:href="#Arial-BoldMT-53" x="172.216797"/>
     <use xlink:href="#Arial-BoldMT-54" x="238.916016"/>
     <use xlink:href="#Arial-BoldMT-4f" x="298.25"/>
     <use xlink:href="#Arial-BoldMT-4c" x="376.033203"/>
     <use xlink:href="#Arial-BoldMT-49" x="437.117188"/>
     <use xlink:href="#Arial-BoldMT-43" x="464.900391"/>
     <use xlink:href="#Arial-BoldMT-20" x="537.117188"/>
     <use xlink:href="#Arial-BoldMT-42" x="564.900391"/>
     <use xlink:href="#Arial-BoldMT-50" x="637.117188"/>
    </g>
   </g>
   <g id="text_22">
    <!-- 4% -->
    <g transform="translate(400.084997 535.360672) scale(0.18 -0.18)">
     <use xlink:href="#Arial-BoldMT-34"/>
     <use xlink:href="#Arial-BoldMT-25" x="55.615234"/>
    </g>
   </g>
   <g id="text_23">
    <!-- SPONTANEOUS BACTERIAL PERITONITIS (SBP) -->
    <g transform="translate(16.85117 648.460052) scale(0.18 -0.18)">
     <use xlink:href="#Arial-BoldMT-53"/>
     <use xlink:href="#Arial-BoldMT-50" x="66.699219"/>
     <use xlink:href="#Arial-BoldMT-4f" x="133.398438"/>
     <use xlink:href="#Arial-BoldMT-4e" x="211.181641"/>
     <use xlink:href="#Arial-BoldMT-54" x="283.398438"/>
     <use xlink:href="#Arial-BoldMT-41" x="337.107422"/>
     <use xlink:href="#Arial-BoldMT-4e" x="409.324219"/>
     <use xlink:href="#Arial-BoldMT-45" x="481.541016"/>
     <use xlink:href="#Arial-BoldMT-4f" x="548.240234"/>
     <use xlink:href="#Arial-BoldMT-55" x="626.023438"/>
     <use xlink:href="#Arial-BoldMT-53" x="698.240234"/>
     <use xlink:href="#Arial-BoldMT-20" x="764.939453"/>
     <use xlink:href="#Arial-BoldMT-42" x="792.722656"/>
     <use xlink:href="#Arial-BoldMT-41" x="864.939453"/>
     <use xlink:href="#Arial-BoldMT-43" x="937.15625"/>
     <use xlink:href="#Arial-BoldMT-54" x="1009.373047"/>
     <use xlink:href="#Arial-BoldMT-45" x="1070.457031"/>
     <use xlink:href="#Arial-BoldMT-52" x="1137.15625"/>
     <use xlink:href="#Arial-BoldMT-49" x="1209.373047"/>
     <use xlink:href="#Arial-BoldMT-41" x="1237.15625"/>
     <use xlink:href="#Arial-BoldMT-4c" x="1309.373047"/>
     <use xlink:href="#Arial-BoldMT-20" x="1368.707031"/>
     <use xlink:href="#Arial-BoldMT-50" x="1396.490234"/>
     <use xlink:href="#Arial-BoldMT-45" x="1463.189453"/>
     <use xlink:href="#Arial-BoldMT-52" x="1529.888672"/>
     <use xlink:href="#Arial-BoldMT-49" x="1602.105469"/>
     <use xlink:href="#Arial-BoldMT-54" x="1629.888672"/>
     <use xlink:href="#Arial-BoldMT-4f" x="1689.222656"/>
     <use xlink:href="#Arial-BoldMT-4e" x="1767.005859"/>
     <use xlink:href="#Arial-BoldMT-49" x="1839.222656"/>
     <use xlink:href="#Arial-BoldMT-54" x="1867.005859"/>
     <use xlink:href="#Arial-BoldMT-49" x="1928.089844"/>
     <use xlink:href="#Arial-BoldMT-53" x="1955.873047"/>
     <use xlink:href="#Arial-BoldMT-20" x="2022.572266"/>
     <use xlink:href="#Arial-BoldMT-28" x="2050.355469"/>
     <use xlink:href="#Arial-BoldMT-53" x="2083.65625"/>
     <use xlink:href="#Arial-BoldMT-42" x="2150.355469"/>
     <use xlink:href="#Arial-BoldMT-50" x="2222.572266"/>
     <use xlink:href="#Arial-BoldMT-29" x="2289.271484"/>
    </g>
   </g>
   <g id="text_24">
    <!-- 4% -->
    <g transform="translate(444.799411 551.634365) scale(0.18 -0.18)">
     <use xlink:href="#Arial-BoldMT-34"/>
     <use xlink:href="#Arial-BoldMT-25" x="55.615234"/>
    </g>
   </g>
   <g id="text_25">
    <!-- INJURY SEVERITY SCORE (ISS) -->
    <g transform="translate(517.733523 656.322334) scale(0.18 -0.18)">
     <defs>
      <path id="Arial-BoldMT-4a" d="M 2119 4581 
L 3041 4581 
L 3041 1681 
Q 3041 1113 2941 806 
Q 2806 406 2453 164 
Q 2100 -78 1522 -78 
Q 844 -78 478 301 
Q 113 681 109 1416 
L 981 1516 
Q 997 1122 1097 959 
Q 1247 713 1553 713 
Q 1863 713 1991 889 
Q 2119 1066 2119 1622 
L 2119 4581 
z
" transform="scale(0.015625)"/>
      <path id="Arial-BoldMT-56" d="M 1634 0 
L -3 4581 
L 1000 4581 
L 2159 1191 
L 3281 4581 
L 4263 4581 
L 2622 0 
L 1634 0 
z
" transform="scale(0.015625)"/>
     </defs>
     <use xlink:href="#Arial-BoldMT-49"/>
     <use xlink:href="#Arial-BoldMT-4e" x="27.783203"/>
     <use xlink:href="#Arial-BoldMT-4a" x="100"/>
     <use xlink:href="#Arial-BoldMT-55" x="155.615234"/>
     <use xlink:href="#Arial-BoldMT-52" x="227.832031"/>
     <use xlink:href="#Arial-BoldMT-59" x="296.298828"/>
     <use xlink:href="#Arial-BoldMT-20" x="361.248047"/>
     <use xlink:href="#Arial-BoldMT-53" x="389.03125"/>
     <use xlink:href="#Arial-BoldMT-45" x="455.730469"/>
     <use xlink:href="#Arial-BoldMT-56" x="522.429688"/>
     <use xlink:href="#Arial-BoldMT-45" x="589.128906"/>
     <use xlink:href="#Arial-BoldMT-52" x="655.828125"/>
     <use xlink:href="#Arial-BoldMT-49" x="728.044922"/>
     <use xlink:href="#Arial-BoldMT-54" x="755.828125"/>
     <use xlink:href="#Arial-BoldMT-59" x="816.912109"/>
     <use xlink:href="#Arial-BoldMT-20" x="881.861328"/>
     <use xlink:href="#Arial-BoldMT-53" x="909.644531"/>
     <use xlink:href="#Arial-BoldMT-43" x="976.34375"/>
     <use xlink:href="#Arial-BoldMT-4f" x="1048.560547"/>
     <use xlink:href="#Arial-BoldMT-52" x="1126.34375"/>
     <use xlink:href="#Arial-BoldMT-45" x="1198.560547"/>
     <use xlink:href="#Arial-BoldMT-20" x="1265.259766"/>
     <use xlink:href="#Arial-BoldMT-28" x="1293.042969"/>
     <use xlink:href="#Arial-BoldMT-49" x="1326.34375"/>
     <use xlink:href="#Arial-BoldMT-53" x="1354.126953"/>
     <use xlink:href="#Arial-BoldMT-53" x="1420.826172"/>
     <use xlink:href="#Arial-BoldMT-29" x="1487.525391"/>
    </g>
   </g>
   <g id="text_26">
    <!-- 5% -->
    <g transform="translate(500.464164 556.91885) scale(0.18 -0.18)">
     <defs>
      <path id="Arial-BoldMT-35" d="M 284 1178 
L 1159 1269 
Q 1197 972 1381 798 
Q 1566 625 1806 625 
Q 2081 625 2272 848 
Q 2463 1072 2463 1522 
Q 2463 1944 2273 2155 
Q 2084 2366 1781 2366 
Q 1403 2366 1103 2031 
L 391 2134 
L 841 4519 
L 3163 4519 
L 3163 3697 
L 1506 3697 
L 1369 2919 
Q 1663 3066 1969 3066 
Q 2553 3066 2959 2641 
Q 3366 2216 3366 1538 
Q 3366 972 3038 528 
Q 2591 -78 1797 -78 
Q 1163 -78 763 262 
Q 363 603 284 1178 
z
" transform="scale(0.015625)"/>
     </defs>
     <use xlink:href="#Arial-BoldMT-35"/>
     <use xlink:href="#Arial-BoldMT-25" x="55.615234"/>
    </g>
   </g>
   <g id="text_27">
    <!-- PROTHROMBIN TIME (PT) -->
    <g transform="translate(611.416811 637.2325) scale(0.18 -0.18)">
     <use xlink:href="#Arial-BoldMT-50"/>
     <use xlink:href="#Arial-BoldMT-52" x="66.699219"/>
     <use xlink:href="#Arial-BoldMT-4f" x="138.916016"/>
     <use xlink:href="#Arial-BoldMT-54" x="216.699219"/>
     <use xlink:href="#Arial-BoldMT-48" x="277.783203"/>
     <use xlink:href="#Arial-BoldMT-52" x="350"/>
     <use xlink:href="#Arial-BoldMT-4f" x="422.216797"/>
     <use xlink:href="#Arial-BoldMT-4d" x="500"/>
     <use xlink:href="#Arial-BoldMT-42" x="583.300781"/>
     <use xlink:href="#Arial-BoldMT-49" x="655.517578"/>
     <use xlink:href="#Arial-BoldMT-4e" x="683.300781"/>
     <use xlink:href="#Arial-BoldMT-20" x="755.517578"/>
     <use xlink:href="#Arial-BoldMT-54" x="783.300781"/>
     <use xlink:href="#Arial-BoldMT-49" x="844.384766"/>
     <use xlink:href="#Arial-BoldMT-4d" x="872.167969"/>
     <use xlink:href="#Arial-BoldMT-45" x="955.46875"/>
     <use xlink:href="#Arial-BoldMT-20" x="1022.167969"/>
     <use xlink:href="#Arial-BoldMT-28" x="1049.951172"/>
     <use xlink:href="#Arial-BoldMT-50" x="1083.251953"/>
     <use xlink:href="#Arial-BoldMT-54" x="1149.951172"/>
     <use xlink:href="#Arial-BoldMT-29" x="1211.035156"/>
    </g>
   </g>
   <g id="text_28">
    <!-- 5% -->
    <g transform="translate(563.43162 544.087978) scale(0.18 -0.18)">
     <use xlink:href="#Arial-BoldMT-35"/>
     <use xlink:href="#Arial-BoldMT-25" x="55.615234"/>
    </g>
   </g>
   <g id="text_29">
    <!-- ABBREVIATED INJURY SCALE HEAD -->
    <g transform="translate(708.248923 578.258703) scale(0.18 -0.18)">
     <use xlink:href="#Arial-BoldMT-41"/>
     <use xlink:href="#Arial-BoldMT-42" x="72.216797"/>
     <use xlink:href="#Arial-BoldMT-42" x="144.433594"/>
     <use xlink:href="#Arial-BoldMT-52" x="216.650391"/>
     <use xlink:href="#Arial-BoldMT-45" x="288.867188"/>
     <use xlink:href="#Arial-BoldMT-56" x="355.566406"/>
     <use xlink:href="#Arial-BoldMT-49" x="422.265625"/>
     <use xlink:href="#Arial-BoldMT-41" x="450.048828"/>
     <use xlink:href="#Arial-BoldMT-54" x="514.890625"/>
     <use xlink:href="#Arial-BoldMT-45" x="575.974609"/>
     <use xlink:href="#Arial-BoldMT-44" x="642.673828"/>
     <use xlink:href="#Arial-BoldMT-20" x="714.890625"/>
     <use xlink:href="#Arial-BoldMT-49" x="742.673828"/>
     <use xlink:href="#Arial-BoldMT-4e" x="770.457031"/>
     <use xlink:href="#Arial-BoldMT-4a" x="842.673828"/>
     <use xlink:href="#Arial-BoldMT-55" x="898.289062"/>
     <use xlink:href="#Arial-BoldMT-52" x="970.505859"/>
     <use xlink:href="#Arial-BoldMT-59" x="1038.972656"/>
     <use xlink:href="#Arial-BoldMT-20" x="1103.921875"/>
     <use xlink:href="#Arial-BoldMT-53" x="1131.705078"/>
     <use xlink:href="#Arial-BoldMT-43" x="1198.404297"/>
     <use xlink:href="#Arial-BoldMT-41" x="1270.621094"/>
     <use xlink:href="#Arial-BoldMT-4c" x="1342.837891"/>
     <use xlink:href="#Arial-BoldMT-45" x="1403.921875"/>
     <use xlink:href="#Arial-BoldMT-20" x="1470.621094"/>
     <use xlink:href="#Arial-BoldMT-48" x="1498.404297"/>
     <use xlink:href="#Arial-BoldMT-45" x="1570.621094"/>
     <use xlink:href="#Arial-BoldMT-41" x="1637.320312"/>
     <use xlink:href="#Arial-BoldMT-44" x="1709.537109"/>
    </g>
   </g>
   <g id="text_30">
    <!-- 7% -->
    <g transform="translate(628.515499 504.444181) scale(0.18 -0.18)">
     <defs>
      <path id="Arial-BoldMT-37" d="M 272 3703 
L 272 4519 
L 3275 4519 
L 3275 3881 
Q 2903 3516 2518 2831 
Q 2134 2147 1932 1376 
Q 1731 606 1734 0 
L 888 0 
Q 909 950 1279 1937 
Q 1650 2925 2269 3703 
L 272 3703 
z
" transform="scale(0.015625)"/>
     </defs>
     <use xlink:href="#Arial-BoldMT-37"/>
     <use xlink:href="#Arial-BoldMT-25" x="55.615234"/>
    </g>
   </g>
   <g id="text_31">
    <!-- PARTIAL THROMBOPLASTIN TIME (PTT) -->
    <g transform="translate(797.349083 433.617577) scale(0.18 -0.18)">
     <use xlink:href="#Arial-BoldMT-50"/>
     <use xlink:href="#Arial-BoldMT-41" x="59.324219"/>
     <use xlink:href="#Arial-BoldMT-52" x="131.541016"/>
     <use xlink:href="#Arial-BoldMT-54" x="203.757812"/>
     <use xlink:href="#Arial-BoldMT-49" x="264.841797"/>
     <use xlink:href="#Arial-BoldMT-41" x="292.625"/>
     <use xlink:href="#Arial-BoldMT-4c" x="364.841797"/>
     <use xlink:href="#Arial-BoldMT-20" x="424.175781"/>
     <use xlink:href="#Arial-BoldMT-54" x="451.958984"/>
     <use xlink:href="#Arial-BoldMT-48" x="513.042969"/>
     <use xlink:href="#Arial-BoldMT-52" x="585.259766"/>
     <use xlink:href="#Arial-BoldMT-4f" x="657.476562"/>
     <use xlink:href="#Arial-BoldMT-4d" x="735.259766"/>
     <use xlink:href="#Arial-BoldMT-42" x="818.560547"/>
     <use xlink:href="#Arial-BoldMT-4f" x="890.777344"/>
     <use xlink:href="#Arial-BoldMT-50" x="968.560547"/>
     <use xlink:href="#Arial-BoldMT-4c" x="1035.259766"/>
     <use xlink:href="#Arial-BoldMT-41" x="1096.34375"/>
     <use xlink:href="#Arial-BoldMT-53" x="1168.560547"/>
     <use xlink:href="#Arial-BoldMT-54" x="1235.259766"/>
     <use xlink:href="#Arial-BoldMT-49" x="1296.34375"/>
     <use xlink:href="#Arial-BoldMT-4e" x="1324.126953"/>
     <use xlink:href="#Arial-BoldMT-20" x="1396.34375"/>
     <use xlink:href="#Arial-BoldMT-54" x="1424.126953"/>
     <use xlink:href="#Arial-BoldMT-49" x="1485.210938"/>
     <use xlink:href="#Arial-BoldMT-4d" x="1512.994141"/>
     <use xlink:href="#Arial-BoldMT-45" x="1596.294922"/>
     <use xlink:href="#Arial-BoldMT-20" x="1662.994141"/>
     <use xlink:href="#Arial-BoldMT-28" x="1690.777344"/>
     <use xlink:href="#Arial-BoldMT-50" x="1724.078125"/>
     <use xlink:href="#Arial-BoldMT-54" x="1790.777344"/>
     <use xlink:href="#Arial-BoldMT-54" x="1851.861328"/>
     <use xlink:href="#Arial-BoldMT-29" x="1912.945312"/>
    </g>
   </g>
   <g id="text_32">
    <!-- 11% -->
    <g transform="translate(683.892648 407.232046) scale(0.18 -0.18)">
     <use xlink:href="#Arial-BoldMT-31"/>
     <use xlink:href="#Arial-BoldMT-31" x="50.115234"/>
     <use xlink:href="#Arial-BoldMT-25" x="105.730469"/>
    </g>
   </g>
   <g id="legend_1">
    <g id="patch_18">
     <path d="M 806.054409 123.24 
L 995.574409 123.24 
Q 1001.974409 123.24 1001.974409 116.84 
L 1001.974409 29.6 
Q 1001.974409 23.2 995.574409 23.2 
L 806.054409 23.2 
Q 799.654409 23.2 799.654409 29.6 
L 799.654409 116.84 
Q 799.654409 123.24 806.054409 123.24 
z
" style="fill: #ffffff; opacity: 0.8; stroke: #cccccc; stroke-linejoin: miter"/>
    </g>
    <g id="patch_19">
     <path d="M 812.454409 58.905 
L 876.454409 58.905 
L 876.454409 36.505 
L 812.454409 36.505 
z
" style="fill: #f1a811; stroke: #f1a811; stroke-linejoin: miter"/>
    </g>
    <g id="text_33">
     <!-- Lab -->
     <g transform="translate(902.054409 58.905) scale(0.32 -0.32)">
      <defs>
       <path id="Arial-BoldMT-61" d="M 1116 2306 
L 319 2450 
Q 453 2931 781 3162 
Q 1109 3394 1756 3394 
Q 2344 3394 2631 3255 
Q 2919 3116 3036 2902 
Q 3153 2688 3153 2116 
L 3144 1091 
Q 3144 653 3186 445 
Q 3228 238 3344 0 
L 2475 0 
Q 2441 88 2391 259 
Q 2369 338 2359 363 
Q 2134 144 1878 34 
Q 1622 -75 1331 -75 
Q 819 -75 523 203 
Q 228 481 228 906 
Q 228 1188 362 1408 
Q 497 1628 739 1745 
Q 981 1863 1438 1950 
Q 2053 2066 2291 2166 
L 2291 2253 
Q 2291 2506 2166 2614 
Q 2041 2722 1694 2722 
Q 1459 2722 1328 2630 
Q 1197 2538 1116 2306 
z
M 2291 1594 
Q 2122 1538 1756 1459 
Q 1391 1381 1278 1306 
Q 1106 1184 1106 997 
Q 1106 813 1243 678 
Q 1381 544 1594 544 
Q 1831 544 2047 700 
Q 2206 819 2256 991 
Q 2291 1103 2291 1419 
L 2291 1594 
z
" transform="scale(0.015625)"/>
       <path id="Arial-BoldMT-62" d="M 422 0 
L 422 4581 
L 1300 4581 
L 1300 2931 
Q 1706 3394 2263 3394 
Q 2869 3394 3266 2955 
Q 3663 2516 3663 1694 
Q 3663 844 3258 384 
Q 2853 -75 2275 -75 
Q 1991 -75 1714 67 
Q 1438 209 1238 488 
L 1238 0 
L 422 0 
z
M 1294 1731 
Q 1294 1216 1456 969 
Q 1684 619 2063 619 
Q 2353 619 2558 867 
Q 2763 1116 2763 1650 
Q 2763 2219 2556 2470 
Q 2350 2722 2028 2722 
Q 1713 2722 1503 2476 
Q 1294 2231 1294 1731 
z
" transform="scale(0.015625)"/>
      </defs>
      <use xlink:href="#Arial-BoldMT-4c"/>
      <use xlink:href="#Arial-BoldMT-61" x="61.083984"/>
      <use xlink:href="#Arial-BoldMT-62" x="116.699219"/>
     </g>
    </g>
    <g id="patch_20">
     <path d="M 812.454409 104.125 
L 876.454409 104.125 
L 876.454409 81.725 
L 812.454409 81.725 
z
" style="fill: #1985de; stroke: #1985de; stroke-linejoin: miter"/>
    </g>
    <g id="text_34">
     <!-- Clinic -->
     <g transform="translate(902.054409 104.125) scale(0.32 -0.32)">
      <defs>
       <path id="Arial-BoldMT-6c" d="M 459 0 
L 459 4581 
L 1338 4581 
L 1338 0 
L 459 0 
z
" transform="scale(0.015625)"/>
       <path id="Arial-BoldMT-69" d="M 459 3769 
L 459 4581 
L 1338 4581 
L 1338 3769 
L 459 3769 
z
M 459 0 
L 459 3319 
L 1338 3319 
L 1338 0 
L 459 0 
z
" transform="scale(0.015625)"/>
       <path id="Arial-BoldMT-6e" d="M 3478 0 
L 2600 0 
L 2600 1694 
Q 2600 2231 2544 2389 
Q 2488 2547 2361 2634 
Q 2234 2722 2056 2722 
Q 1828 2722 1647 2597 
Q 1466 2472 1398 2265 
Q 1331 2059 1331 1503 
L 1331 0 
L 453 0 
L 453 3319 
L 1269 3319 
L 1269 2831 
Q 1703 3394 2363 3394 
Q 2653 3394 2893 3289 
Q 3134 3184 3257 3021 
Q 3381 2859 3429 2653 
Q 3478 2447 3478 2063 
L 3478 0 
z
" transform="scale(0.015625)"/>
       <path id="Arial-BoldMT-63" d="M 3353 2338 
L 2488 2181 
Q 2444 2441 2289 2572 
Q 2134 2703 1888 2703 
Q 1559 2703 1364 2476 
Q 1169 2250 1169 1719 
Q 1169 1128 1367 884 
Q 1566 641 1900 641 
Q 2150 641 2309 783 
Q 2469 925 2534 1272 
L 3397 1125 
Q 3263 531 2881 228 
Q 2500 -75 1859 -75 
Q 1131 -75 698 384 
Q 266 844 266 1656 
Q 266 2478 700 2936 
Q 1134 3394 1875 3394 
Q 2481 3394 2839 3133 
Q 3197 2872 3353 2338 
z
" transform="scale(0.015625)"/>
      </defs>
      <use xlink:href="#Arial-BoldMT-43"/>
      <use xlink:href="#Arial-BoldMT-6c" x="72.216797"/>
      <use xlink:href="#Arial-BoldMT-69" x="100"/>
      <use xlink:href="#Arial-BoldMT-6e" x="127.783203"/>
      <use xlink:href="#Arial-BoldMT-69" x="188.867188"/>
      <use xlink:href="#Arial-BoldMT-63" x="216.650391"/>
     </g>
    </g>
   </g>
  </g>
 </g>
</svg>
