<?xml version="1.0" encoding="utf-8" standalone="no"?>
<!DOCTYPE svg PUBLIC "-//W3C//DTD SVG 1.1//EN"
  "http://www.w3.org/Graphics/SVG/1.1/DTD/svg11.dtd">
<svg xmlns:xlink="http://www.w3.org/1999/xlink" width="1440pt" height="720pt" viewBox="0 0 1440 720" xmlns="http://www.w3.org/2000/svg" version="1.1">
 <metadata>
  <rdf:RDF xmlns:dc="http://purl.org/dc/elements/1.1/" xmlns:cc="http://creativecommons.org/ns#" xmlns:rdf="http://www.w3.org/1999/02/22-rdf-syntax-ns#">
   <cc:Work>
    <dc:type rdf:resource="http://purl.org/dc/dcmitype/StillImage"/>
    <dc:date>2023-11-06T18:19:55.604796</dc:date>
    <dc:format>image/svg+xml</dc:format>
    <dc:creator>
     <cc:Agent>
      <dc:title>Matplotlib v3.7.2, https://matplotlib.org/</dc:title>
     </cc:Agent>
    </dc:creator>
   </cc:Work>
  </rdf:RDF>
 </metadata>
 <defs>
  <style type="text/css">*{stroke-linejoin: round; stroke-linecap: butt}</style>
 </defs>
 <g id="figure_1">
  <g id="patch_1">
   <path d="M 0 720 
L 1440 720 
L 1440 0 
L 0 0 
z
" style="fill: #ffffff"/>
  </g>
  <g id="axes_1">
   <g id="patch_2">
    <path d="M 180 640.8 
L 1296 640.8 
L 1296 86.4 
L 180 86.4 
z
" style="fill: #ffffff"/>
   </g>
   <g id="patch_3">
    <path d="M 180 90.096 
L 1242.857143 90.096 
L 1242.857143 119.664 
L 180 119.664 
z
" clip-path="url(#p51e9f98ae2)" style="fill: #381784"/>
   </g>
   <g id="patch_4">
    <path d="M 180 127.056 
L 765.910304 127.056 
L 765.910304 156.624 
L 180 156.624 
z
" clip-path="url(#p51e9f98ae2)" style="fill: #4e168d"/>
   </g>
   <g id="patch_5">
    <path d="M 180 164.016 
L 725.683027 164.016 
L 725.683027 193.584 
L 180 193.584 
z
" clip-path="url(#p51e9f98ae2)" style="fill: #611592"/>
   </g>
   <g id="patch_6">
    <path d="M 180 200.976 
L 699.102564 200.976 
L 699.102564 230.544 
L 180 230.544 
z
" clip-path="url(#p51e9f98ae2)" style="fill: #741893"/>
   </g>
   <g id="patch_7">
    <path d="M 180 237.936 
L 528.494582 237.936 
L 528.494582 267.504 
L 180 267.504 
z
" clip-path="url(#p51e9f98ae2)" style="fill: #86238f"/>
   </g>
   <g id="patch_8">
    <path d="M 180 274.896 
L 450.471789 274.896 
L 450.471789 304.464 
L 180 304.464 
z
" clip-path="url(#p51e9f98ae2)" style="fill: #99348a"/>
   </g>
   <g id="patch_9">
    <path d="M 180 311.856 
L 430.567467 311.856 
L 430.567467 341.424 
L 180 341.424 
z
" clip-path="url(#p51e9f98ae2)" style="fill: #ab4683"/>
   </g>
   <g id="patch_10">
    <path d="M 180 348.816 
L 382.333927 348.816 
L 382.333927 378.384 
L 180 378.384 
z
" clip-path="url(#p51e9f98ae2)" style="fill: #bb587c"/>
   </g>
   <g id="patch_11">
    <path d="M 180 385.776 
L 365.844577 385.776 
L 365.844577 415.344 
L 180 415.344 
z
" clip-path="url(#p51e9f98ae2)" style="fill: #ca6a76"/>
   </g>
   <g id="patch_12">
    <path d="M 180 422.736 
L 365.827397 422.736 
L 365.827397 452.304 
L 180 452.304 
z
" clip-path="url(#p51e9f98ae2)" style="fill: #d57a6d"/>
   </g>
   <g id="patch_13">
    <path d="M 180 459.696 
L 362.753282 459.696 
L 362.753282 489.264 
L 180 489.264 
z
" clip-path="url(#p51e9f98ae2)" style="fill: #dc8862"/>
   </g>
   <g id="patch_14">
    <path d="M 180 496.656 
L 354.315268 496.656 
L 354.315268 526.224 
L 180 526.224 
z
" clip-path="url(#p51e9f98ae2)" style="fill: #e19757"/>
   </g>
   <g id="patch_15">
    <path d="M 180 533.616 
L 353.666363 533.616 
L 353.666363 563.184 
L 180 563.184 
z
" clip-path="url(#p51e9f98ae2)" style="fill: #e4a74c"/>
   </g>
   <g id="patch_16">
    <path d="M 180 570.576 
L 353.510591 570.576 
L 353.510591 600.144 
L 180 600.144 
z
" clip-path="url(#p51e9f98ae2)" style="fill: #e3b842"/>
   </g>
   <g id="patch_17">
    <path d="M 180 607.536 
L 341.787111 607.536 
L 341.787111 637.104 
L 180 637.104 
z
" clip-path="url(#p51e9f98ae2)" style="fill: #decb3f"/>
   </g>
   <g id="matplotlib.axis_1">
    <g id="xtick_1">
     <g id="line2d_1">
      <defs>
       <path id="m00cf244a0c" d="M 0 0 
L 0 3.5 
" style="stroke: #000000; stroke-width: 0.8"/>
      </defs>
      <g>
       <use xlink:href="#m00cf244a0c" x="180" y="640.8" style="stroke: #000000; stroke-width: 0.8"/>
      </g>
     </g>
     <g id="text_1">
      <!-- 0 -->
      <g transform="translate(177.5 654.74375) scale(0.1 -0.1)">
       <defs>
        <path id="TimesNewRomanPSMT-30" d="M 231 2094 
Q 231 2819 450 3342 
Q 669 3866 1031 4122 
Q 1313 4325 1613 4325 
Q 2100 4325 2488 3828 
Q 2972 3213 2972 2159 
Q 2972 1422 2759 906 
Q 2547 391 2217 158 
Q 1888 -75 1581 -75 
Q 975 -75 572 641 
Q 231 1244 231 2094 
z
M 844 2016 
Q 844 1141 1059 588 
Q 1238 122 1591 122 
Q 1759 122 1940 273 
Q 2122 425 2216 781 
Q 2359 1319 2359 2297 
Q 2359 3022 2209 3506 
Q 2097 3866 1919 4016 
Q 1791 4119 1609 4119 
Q 1397 4119 1231 3928 
Q 1006 3669 925 3112 
Q 844 2556 844 2016 
z
" transform="scale(0.015625)"/>
       </defs>
       <use xlink:href="#TimesNewRomanPSMT-30"/>
      </g>
     </g>
    </g>
    <g id="xtick_2">
     <g id="line2d_2">
      <g>
       <use xlink:href="#m00cf244a0c" x="327.594066" y="640.8" style="stroke: #000000; stroke-width: 0.8"/>
      </g>
     </g>
     <g id="text_2">
      <!-- 200 -->
      <g transform="translate(320.094066 654.74375) scale(0.1 -0.1)">
       <defs>
        <path id="TimesNewRomanPSMT-32" d="M 2934 816 
L 2638 0 
L 138 0 
L 138 116 
Q 1241 1122 1691 1759 
Q 2141 2397 2141 2925 
Q 2141 3328 1894 3587 
Q 1647 3847 1303 3847 
Q 991 3847 742 3664 
Q 494 3481 375 3128 
L 259 3128 
Q 338 3706 661 4015 
Q 984 4325 1469 4325 
Q 1984 4325 2329 3994 
Q 2675 3663 2675 3213 
Q 2675 2891 2525 2569 
Q 2294 2063 1775 1497 
Q 997 647 803 472 
L 1909 472 
Q 2247 472 2383 497 
Q 2519 522 2628 598 
Q 2738 675 2819 816 
L 2934 816 
z
" transform="scale(0.015625)"/>
       </defs>
       <use xlink:href="#TimesNewRomanPSMT-32"/>
       <use xlink:href="#TimesNewRomanPSMT-30" x="50"/>
       <use xlink:href="#TimesNewRomanPSMT-30" x="100"/>
      </g>
     </g>
    </g>
    <g id="xtick_3">
     <g id="line2d_3">
      <g>
       <use xlink:href="#m00cf244a0c" x="475.188133" y="640.8" style="stroke: #000000; stroke-width: 0.8"/>
      </g>
     </g>
     <g id="text_3">
      <!-- 400 -->
      <g transform="translate(467.688133 654.74375) scale(0.1 -0.1)">
       <defs>
        <path id="TimesNewRomanPSMT-34" d="M 2978 1563 
L 2978 1119 
L 2409 1119 
L 2409 0 
L 1894 0 
L 1894 1119 
L 100 1119 
L 100 1519 
L 2066 4325 
L 2409 4325 
L 2409 1563 
L 2978 1563 
z
M 1894 1563 
L 1894 3666 
L 406 1563 
L 1894 1563 
z
" transform="scale(0.015625)"/>
       </defs>
       <use xlink:href="#TimesNewRomanPSMT-34"/>
       <use xlink:href="#TimesNewRomanPSMT-30" x="50"/>
       <use xlink:href="#TimesNewRomanPSMT-30" x="100"/>
      </g>
     </g>
    </g>
    <g id="xtick_4">
     <g id="line2d_4">
      <g>
       <use xlink:href="#m00cf244a0c" x="622.782199" y="640.8" style="stroke: #000000; stroke-width: 0.8"/>
      </g>
     </g>
     <g id="text_4">
      <!-- 600 -->
      <g transform="translate(615.282199 654.74375) scale(0.1 -0.1)">
       <defs>
        <path id="TimesNewRomanPSMT-36" d="M 2869 4325 
L 2869 4209 
Q 2456 4169 2195 4045 
Q 1934 3922 1679 3669 
Q 1425 3416 1258 3105 
Q 1091 2794 978 2366 
Q 1428 2675 1881 2675 
Q 2316 2675 2634 2325 
Q 2953 1975 2953 1425 
Q 2953 894 2631 456 
Q 2244 -75 1606 -75 
Q 1172 -75 869 213 
Q 275 772 275 1663 
Q 275 2231 503 2743 
Q 731 3256 1154 3653 
Q 1578 4050 1965 4187 
Q 2353 4325 2688 4325 
L 2869 4325 
z
M 925 2138 
Q 869 1716 869 1456 
Q 869 1156 980 804 
Q 1091 453 1309 247 
Q 1469 100 1697 100 
Q 1969 100 2183 356 
Q 2397 613 2397 1088 
Q 2397 1622 2184 2012 
Q 1972 2403 1581 2403 
Q 1463 2403 1327 2353 
Q 1191 2303 925 2138 
z
" transform="scale(0.015625)"/>
       </defs>
       <use xlink:href="#TimesNewRomanPSMT-36"/>
       <use xlink:href="#TimesNewRomanPSMT-30" x="50"/>
       <use xlink:href="#TimesNewRomanPSMT-30" x="100"/>
      </g>
     </g>
    </g>
    <g id="xtick_5">
     <g id="line2d_5">
      <g>
       <use xlink:href="#m00cf244a0c" x="770.376265" y="640.8" style="stroke: #000000; stroke-width: 0.8"/>
      </g>
     </g>
     <g id="text_5">
      <!-- 800 -->
      <g transform="translate(762.876265 654.74375) scale(0.1 -0.1)">
       <defs>
        <path id="TimesNewRomanPSMT-38" d="M 1228 2134 
Q 725 2547 579 2797 
Q 434 3047 434 3316 
Q 434 3728 753 4026 
Q 1072 4325 1600 4325 
Q 2113 4325 2425 4047 
Q 2738 3769 2738 3413 
Q 2738 3175 2569 2928 
Q 2400 2681 1866 2347 
Q 2416 1922 2594 1678 
Q 2831 1359 2831 1006 
Q 2831 559 2490 242 
Q 2150 -75 1597 -75 
Q 994 -75 656 303 
Q 388 606 388 966 
Q 388 1247 577 1523 
Q 766 1800 1228 2134 
z
M 1719 2469 
Q 2094 2806 2194 3001 
Q 2294 3197 2294 3444 
Q 2294 3772 2109 3958 
Q 1925 4144 1606 4144 
Q 1288 4144 1088 3959 
Q 888 3775 888 3528 
Q 888 3366 970 3203 
Q 1053 3041 1206 2894 
L 1719 2469 
z
M 1375 2016 
Q 1116 1797 991 1539 
Q 866 1281 866 981 
Q 866 578 1086 336 
Q 1306 94 1647 94 
Q 1984 94 2187 284 
Q 2391 475 2391 747 
Q 2391 972 2272 1150 
Q 2050 1481 1375 2016 
z
" transform="scale(0.015625)"/>
       </defs>
       <use xlink:href="#TimesNewRomanPSMT-38"/>
       <use xlink:href="#TimesNewRomanPSMT-30" x="50"/>
       <use xlink:href="#TimesNewRomanPSMT-30" x="100"/>
      </g>
     </g>
    </g>
    <g id="xtick_6">
     <g id="line2d_6">
      <g>
       <use xlink:href="#m00cf244a0c" x="917.970331" y="640.8" style="stroke: #000000; stroke-width: 0.8"/>
      </g>
     </g>
     <g id="text_6">
      <!-- 1000 -->
      <g transform="translate(907.970331 654.74375) scale(0.1 -0.1)">
       <defs>
        <path id="TimesNewRomanPSMT-31" d="M 750 3822 
L 1781 4325 
L 1884 4325 
L 1884 747 
Q 1884 391 1914 303 
Q 1944 216 2037 169 
Q 2131 122 2419 116 
L 2419 0 
L 825 0 
L 825 116 
Q 1125 122 1212 167 
Q 1300 213 1334 289 
Q 1369 366 1369 747 
L 1369 3034 
Q 1369 3497 1338 3628 
Q 1316 3728 1258 3775 
Q 1200 3822 1119 3822 
Q 1003 3822 797 3725 
L 750 3822 
z
" transform="scale(0.015625)"/>
       </defs>
       <use xlink:href="#TimesNewRomanPSMT-31"/>
       <use xlink:href="#TimesNewRomanPSMT-30" x="50"/>
       <use xlink:href="#TimesNewRomanPSMT-30" x="100"/>
       <use xlink:href="#TimesNewRomanPSMT-30" x="150"/>
      </g>
     </g>
    </g>
    <g id="xtick_7">
     <g id="line2d_7">
      <g>
       <use xlink:href="#m00cf244a0c" x="1065.564398" y="640.8" style="stroke: #000000; stroke-width: 0.8"/>
      </g>
     </g>
     <g id="text_7">
      <!-- 1200 -->
      <g transform="translate(1055.564398 654.74375) scale(0.1 -0.1)">
       <use xlink:href="#TimesNewRomanPSMT-31"/>
       <use xlink:href="#TimesNewRomanPSMT-32" x="50"/>
       <use xlink:href="#TimesNewRomanPSMT-30" x="100"/>
       <use xlink:href="#TimesNewRomanPSMT-30" x="150"/>
      </g>
     </g>
    </g>
    <g id="xtick_8">
     <g id="line2d_8">
      <g>
       <use xlink:href="#m00cf244a0c" x="1213.158464" y="640.8" style="stroke: #000000; stroke-width: 0.8"/>
      </g>
     </g>
     <g id="text_8">
      <!-- 1400 -->
      <g transform="translate(1203.158464 654.74375) scale(0.1 -0.1)">
       <use xlink:href="#TimesNewRomanPSMT-31"/>
       <use xlink:href="#TimesNewRomanPSMT-34" x="50"/>
       <use xlink:href="#TimesNewRomanPSMT-30" x="100"/>
       <use xlink:href="#TimesNewRomanPSMT-30" x="150"/>
      </g>
     </g>
    </g>
    <g id="text_9">
     <!-- Feature Importance(%) -->
     <g transform="translate(691.496094 667.826563) scale(0.1 -0.1)">
      <defs>
       <path id="TimesNewRomanPSMT-46" d="M 1309 4006 
L 1309 2341 
L 2081 2341 
Q 2347 2341 2470 2458 
Q 2594 2575 2634 2922 
L 2750 2922 
L 2750 1488 
L 2634 1488 
Q 2631 1734 2570 1850 
Q 2509 1966 2401 2023 
Q 2294 2081 2081 2081 
L 1309 2081 
L 1309 750 
Q 1309 428 1350 325 
Q 1381 247 1481 191 
Q 1619 116 1769 116 
L 1922 116 
L 1922 0 
L 103 0 
L 103 116 
L 253 116 
Q 516 116 634 269 
Q 709 369 709 750 
L 709 3488 
Q 709 3809 669 3913 
Q 638 3991 541 4047 
Q 406 4122 253 4122 
L 103 4122 
L 103 4238 
L 3256 4238 
L 3297 3306 
L 3188 3306 
Q 3106 3603 2998 3742 
Q 2891 3881 2733 3943 
Q 2575 4006 2244 4006 
L 1309 4006 
z
" transform="scale(0.015625)"/>
       <path id="TimesNewRomanPSMT-65" d="M 681 1784 
Q 678 1147 991 784 
Q 1303 422 1725 422 
Q 2006 422 2214 576 
Q 2422 731 2563 1106 
L 2659 1044 
Q 2594 616 2278 264 
Q 1963 -88 1488 -88 
Q 972 -88 605 314 
Q 238 716 238 1394 
Q 238 2128 614 2539 
Q 991 2950 1559 2950 
Q 2041 2950 2350 2633 
Q 2659 2316 2659 1784 
L 681 1784 
z
M 681 1966 
L 2006 1966 
Q 1991 2241 1941 2353 
Q 1863 2528 1708 2628 
Q 1553 2728 1384 2728 
Q 1125 2728 920 2526 
Q 716 2325 681 1966 
z
" transform="scale(0.015625)"/>
       <path id="TimesNewRomanPSMT-61" d="M 1822 413 
Q 1381 72 1269 19 
Q 1100 -59 909 -59 
Q 613 -59 420 144 
Q 228 347 228 678 
Q 228 888 322 1041 
Q 450 1253 767 1440 
Q 1084 1628 1822 1897 
L 1822 2009 
Q 1822 2438 1686 2597 
Q 1550 2756 1291 2756 
Q 1094 2756 978 2650 
Q 859 2544 859 2406 
L 866 2225 
Q 866 2081 792 2003 
Q 719 1925 600 1925 
Q 484 1925 411 2006 
Q 338 2088 338 2228 
Q 338 2497 613 2722 
Q 888 2947 1384 2947 
Q 1766 2947 2009 2819 
Q 2194 2722 2281 2516 
Q 2338 2381 2338 1966 
L 2338 994 
Q 2338 584 2353 492 
Q 2369 400 2405 369 
Q 2441 338 2488 338 
Q 2538 338 2575 359 
Q 2641 400 2828 588 
L 2828 413 
Q 2478 -56 2159 -56 
Q 2006 -56 1915 50 
Q 1825 156 1822 413 
z
M 1822 616 
L 1822 1706 
Q 1350 1519 1213 1441 
Q 966 1303 859 1153 
Q 753 1003 753 825 
Q 753 600 887 451 
Q 1022 303 1197 303 
Q 1434 303 1822 616 
z
" transform="scale(0.015625)"/>
       <path id="TimesNewRomanPSMT-74" d="M 1031 3803 
L 1031 2863 
L 1700 2863 
L 1700 2644 
L 1031 2644 
L 1031 788 
Q 1031 509 1111 412 
Q 1191 316 1316 316 
Q 1419 316 1516 380 
Q 1613 444 1666 569 
L 1788 569 
Q 1678 263 1478 108 
Q 1278 -47 1066 -47 
Q 922 -47 784 33 
Q 647 113 581 261 
Q 516 409 516 719 
L 516 2644 
L 63 2644 
L 63 2747 
Q 234 2816 414 2980 
Q 594 3144 734 3369 
Q 806 3488 934 3803 
L 1031 3803 
z
" transform="scale(0.015625)"/>
       <path id="TimesNewRomanPSMT-75" d="M 2709 2863 
L 2709 1128 
Q 2709 631 2732 520 
Q 2756 409 2807 365 
Q 2859 322 2928 322 
Q 3025 322 3147 375 
L 3191 266 
L 2334 -88 
L 2194 -88 
L 2194 519 
Q 1825 119 1631 15 
Q 1438 -88 1222 -88 
Q 981 -88 804 51 
Q 628 191 559 409 
Q 491 628 491 1028 
L 491 2306 
Q 491 2509 447 2587 
Q 403 2666 317 2708 
Q 231 2750 6 2747 
L 6 2863 
L 1009 2863 
L 1009 947 
Q 1009 547 1148 422 
Q 1288 297 1484 297 
Q 1619 297 1789 381 
Q 1959 466 2194 703 
L 2194 2325 
Q 2194 2569 2105 2655 
Q 2016 2741 1734 2747 
L 1734 2863 
L 2709 2863 
z
" transform="scale(0.015625)"/>
       <path id="TimesNewRomanPSMT-72" d="M 1038 2947 
L 1038 2303 
Q 1397 2947 1775 2947 
Q 1947 2947 2059 2842 
Q 2172 2738 2172 2600 
Q 2172 2478 2090 2393 
Q 2009 2309 1897 2309 
Q 1788 2309 1652 2417 
Q 1516 2525 1450 2525 
Q 1394 2525 1328 2463 
Q 1188 2334 1038 2041 
L 1038 669 
Q 1038 431 1097 309 
Q 1138 225 1241 169 
Q 1344 113 1538 113 
L 1538 0 
L 72 0 
L 72 113 
Q 291 113 397 181 
Q 475 231 506 341 
Q 522 394 522 644 
L 522 1753 
Q 522 2253 501 2348 
Q 481 2444 426 2487 
Q 372 2531 291 2531 
Q 194 2531 72 2484 
L 41 2597 
L 906 2947 
L 1038 2947 
z
" transform="scale(0.015625)"/>
       <path id="TimesNewRomanPSMT-20" transform="scale(0.015625)"/>
       <path id="TimesNewRomanPSMT-49" d="M 1975 116 
L 1975 0 
L 159 0 
L 159 116 
L 309 116 
Q 572 116 691 269 
Q 766 369 766 750 
L 766 3488 
Q 766 3809 725 3913 
Q 694 3991 597 4047 
Q 459 4122 309 4122 
L 159 4122 
L 159 4238 
L 1975 4238 
L 1975 4122 
L 1822 4122 
Q 1563 4122 1444 3969 
Q 1366 3869 1366 3488 
L 1366 750 
Q 1366 428 1406 325 
Q 1438 247 1538 191 
Q 1672 116 1822 116 
L 1975 116 
z
" transform="scale(0.015625)"/>
       <path id="TimesNewRomanPSMT-6d" d="M 1050 2338 
Q 1363 2650 1419 2697 
Q 1559 2816 1721 2881 
Q 1884 2947 2044 2947 
Q 2313 2947 2506 2790 
Q 2700 2634 2766 2338 
Q 3088 2713 3309 2830 
Q 3531 2947 3766 2947 
Q 3994 2947 4170 2830 
Q 4347 2713 4450 2447 
Q 4519 2266 4519 1878 
L 4519 647 
Q 4519 378 4559 278 
Q 4591 209 4675 161 
Q 4759 113 4950 113 
L 4950 0 
L 3538 0 
L 3538 113 
L 3597 113 
Q 3781 113 3884 184 
Q 3956 234 3988 344 
Q 4000 397 4000 647 
L 4000 1878 
Q 4000 2228 3916 2372 
Q 3794 2572 3525 2572 
Q 3359 2572 3192 2489 
Q 3025 2406 2788 2181 
L 2781 2147 
L 2788 2013 
L 2788 647 
Q 2788 353 2820 281 
Q 2853 209 2943 161 
Q 3034 113 3253 113 
L 3253 0 
L 1806 0 
L 1806 113 
Q 2044 113 2133 169 
Q 2222 225 2256 338 
Q 2272 391 2272 647 
L 2272 1878 
Q 2272 2228 2169 2381 
Q 2031 2581 1784 2581 
Q 1616 2581 1450 2491 
Q 1191 2353 1050 2181 
L 1050 647 
Q 1050 366 1089 281 
Q 1128 197 1204 155 
Q 1281 113 1516 113 
L 1516 0 
L 100 0 
L 100 113 
Q 297 113 375 155 
Q 453 197 493 289 
Q 534 381 534 647 
L 534 1741 
Q 534 2213 506 2350 
Q 484 2453 437 2492 
Q 391 2531 309 2531 
Q 222 2531 100 2484 
L 53 2597 
L 916 2947 
L 1050 2947 
L 1050 2338 
z
" transform="scale(0.015625)"/>
       <path id="TimesNewRomanPSMT-70" d="M -6 2578 
L 875 2934 
L 994 2934 
L 994 2266 
Q 1216 2644 1439 2795 
Q 1663 2947 1909 2947 
Q 2341 2947 2628 2609 
Q 2981 2197 2981 1534 
Q 2981 794 2556 309 
Q 2206 -88 1675 -88 
Q 1444 -88 1275 -22 
Q 1150 25 994 166 
L 994 -706 
Q 994 -1000 1030 -1079 
Q 1066 -1159 1155 -1206 
Q 1244 -1253 1478 -1253 
L 1478 -1369 
L -22 -1369 
L -22 -1253 
L 56 -1253 
Q 228 -1256 350 -1188 
Q 409 -1153 442 -1076 
Q 475 -1000 475 -688 
L 475 2019 
Q 475 2297 450 2372 
Q 425 2447 370 2484 
Q 316 2522 222 2522 
Q 147 2522 31 2478 
L -6 2578 
z
M 994 2081 
L 994 1013 
Q 994 666 1022 556 
Q 1066 375 1236 237 
Q 1406 100 1666 100 
Q 1978 100 2172 344 
Q 2425 663 2425 1241 
Q 2425 1897 2138 2250 
Q 1938 2494 1663 2494 
Q 1513 2494 1366 2419 
Q 1253 2363 994 2081 
z
" transform="scale(0.015625)"/>
       <path id="TimesNewRomanPSMT-6f" d="M 1600 2947 
Q 2250 2947 2644 2453 
Q 2978 2031 2978 1484 
Q 2978 1100 2793 706 
Q 2609 313 2286 112 
Q 1963 -88 1566 -88 
Q 919 -88 538 428 
Q 216 863 216 1403 
Q 216 1797 411 2186 
Q 606 2575 925 2761 
Q 1244 2947 1600 2947 
z
M 1503 2744 
Q 1338 2744 1170 2645 
Q 1003 2547 900 2300 
Q 797 2053 797 1666 
Q 797 1041 1045 587 
Q 1294 134 1700 134 
Q 2003 134 2200 384 
Q 2397 634 2397 1244 
Q 2397 2006 2069 2444 
Q 1847 2744 1503 2744 
z
" transform="scale(0.015625)"/>
       <path id="TimesNewRomanPSMT-6e" d="M 1034 2341 
Q 1538 2947 1994 2947 
Q 2228 2947 2397 2830 
Q 2566 2713 2666 2444 
Q 2734 2256 2734 1869 
L 2734 647 
Q 2734 375 2778 278 
Q 2813 200 2889 156 
Q 2966 113 3172 113 
L 3172 0 
L 1756 0 
L 1756 113 
L 1816 113 
Q 2016 113 2095 173 
Q 2175 234 2206 353 
Q 2219 400 2219 647 
L 2219 1819 
Q 2219 2209 2117 2386 
Q 2016 2563 1775 2563 
Q 1403 2563 1034 2156 
L 1034 647 
Q 1034 356 1069 288 
Q 1113 197 1189 155 
Q 1266 113 1500 113 
L 1500 0 
L 84 0 
L 84 113 
L 147 113 
Q 366 113 442 223 
Q 519 334 519 647 
L 519 1709 
Q 519 2225 495 2337 
Q 472 2450 423 2490 
Q 375 2531 294 2531 
Q 206 2531 84 2484 
L 38 2597 
L 900 2947 
L 1034 2947 
L 1034 2341 
z
" transform="scale(0.015625)"/>
       <path id="TimesNewRomanPSMT-63" d="M 2631 1088 
Q 2516 522 2178 217 
Q 1841 -88 1431 -88 
Q 944 -88 581 321 
Q 219 731 219 1428 
Q 219 2103 620 2525 
Q 1022 2947 1584 2947 
Q 2006 2947 2278 2723 
Q 2550 2500 2550 2259 
Q 2550 2141 2473 2067 
Q 2397 1994 2259 1994 
Q 2075 1994 1981 2113 
Q 1928 2178 1911 2362 
Q 1894 2547 1784 2644 
Q 1675 2738 1481 2738 
Q 1169 2738 978 2506 
Q 725 2200 725 1697 
Q 725 1184 976 792 
Q 1228 400 1656 400 
Q 1963 400 2206 609 
Q 2378 753 2541 1131 
L 2631 1088 
z
" transform="scale(0.015625)"/>
       <path id="TimesNewRomanPSMT-28" d="M 1988 -1253 
L 1988 -1369 
Q 1516 -1131 1200 -813 
Q 750 -359 506 256 
Q 263 872 263 1534 
Q 263 2503 741 3301 
Q 1219 4100 1988 4444 
L 1988 4313 
Q 1603 4100 1356 3731 
Q 1109 3363 987 2797 
Q 866 2231 866 1616 
Q 866 947 969 400 
Q 1050 -31 1165 -292 
Q 1281 -553 1476 -793 
Q 1672 -1034 1988 -1253 
z
" transform="scale(0.015625)"/>
       <path id="TimesNewRomanPSMT-25" d="M 4350 4334 
L 1263 -175 
L 984 -175 
L 4072 4334 
L 4350 4334 
z
M 1138 4334 
Q 1559 4334 1792 3984 
Q 2025 3634 2025 3181 
Q 2025 2638 1762 2341 
Q 1500 2044 1131 2044 
Q 884 2044 678 2180 
Q 472 2316 348 2584 
Q 225 2853 225 3181 
Q 225 3509 350 3786 
Q 475 4063 692 4198 
Q 909 4334 1138 4334 
z
M 1128 4159 
Q 969 4159 845 3971 
Q 722 3784 722 3184 
Q 722 2750 791 2522 
Q 844 2350 956 2256 
Q 1022 2200 1119 2200 
Q 1269 2200 1375 2363 
Q 1531 2603 1531 3166 
Q 1531 3759 1378 4000 
Q 1278 4159 1128 4159 
z
M 4206 2103 
Q 4428 2103 4648 1962 
Q 4869 1822 4989 1553 
Q 5109 1284 5109 963 
Q 5109 409 4843 117 
Q 4578 -175 4216 -175 
Q 3988 -175 3773 -34 
Q 3559 106 3436 367 
Q 3313 628 3313 963 
Q 3313 1291 3436 1562 
Q 3559 1834 3773 1968 
Q 3988 2103 4206 2103 
z
M 4209 1938 
Q 4059 1938 3950 1769 
Q 3809 1550 3809 941 
Q 3809 381 3953 159 
Q 4059 0 4209 0 
Q 4353 0 4466 172 
Q 4616 400 4616 956 
Q 4616 1544 4466 1778 
Q 4363 1938 4209 1938 
z
" transform="scale(0.015625)"/>
       <path id="TimesNewRomanPSMT-29" d="M 144 4313 
L 144 4444 
Q 619 4209 934 3891 
Q 1381 3434 1625 2820 
Q 1869 2206 1869 1541 
Q 1869 572 1392 -226 
Q 916 -1025 144 -1369 
L 144 -1253 
Q 528 -1038 776 -670 
Q 1025 -303 1145 264 
Q 1266 831 1266 1447 
Q 1266 2113 1163 2663 
Q 1084 3094 967 3353 
Q 850 3613 656 3853 
Q 463 4094 144 4313 
z
" transform="scale(0.015625)"/>
      </defs>
      <use xlink:href="#TimesNewRomanPSMT-46"/>
      <use xlink:href="#TimesNewRomanPSMT-65" x="55.615234"/>
      <use xlink:href="#TimesNewRomanPSMT-61" x="100"/>
      <use xlink:href="#TimesNewRomanPSMT-74" x="144.384766"/>
      <use xlink:href="#TimesNewRomanPSMT-75" x="172.167969"/>
      <use xlink:href="#TimesNewRomanPSMT-72" x="222.167969"/>
      <use xlink:href="#TimesNewRomanPSMT-65" x="255.46875"/>
      <use xlink:href="#TimesNewRomanPSMT-20" x="299.853516"/>
      <use xlink:href="#TimesNewRomanPSMT-49" x="324.853516"/>
      <use xlink:href="#TimesNewRomanPSMT-6d" x="358.154297"/>
      <use xlink:href="#TimesNewRomanPSMT-70" x="435.9375"/>
      <use xlink:href="#TimesNewRomanPSMT-6f" x="485.9375"/>
      <use xlink:href="#TimesNewRomanPSMT-72" x="535.9375"/>
      <use xlink:href="#TimesNewRomanPSMT-74" x="569.238281"/>
      <use xlink:href="#TimesNewRomanPSMT-61" x="597.021484"/>
      <use xlink:href="#TimesNewRomanPSMT-6e" x="641.40625"/>
      <use xlink:href="#TimesNewRomanPSMT-63" x="691.40625"/>
      <use xlink:href="#TimesNewRomanPSMT-65" x="735.791016"/>
      <use xlink:href="#TimesNewRomanPSMT-28" x="780.175781"/>
      <use xlink:href="#TimesNewRomanPSMT-25" x="813.476562"/>
      <use xlink:href="#TimesNewRomanPSMT-29" x="896.777344"/>
     </g>
    </g>
   </g>
   <g id="matplotlib.axis_2">
    <g id="ytick_1">
     <g id="line2d_9">
      <defs>
       <path id="m12561c85b1" d="M 0 0 
L -3.5 0 
" style="stroke: #000000; stroke-width: 0.8"/>
      </defs>
      <g>
       <use xlink:href="#m12561c85b1" x="180" y="104.88" style="stroke: #000000; stroke-width: 0.8"/>
      </g>
     </g>
     <g id="text_10">
      <!-- DDIMER CONC (NG/ML) -->
      <g transform="translate(61.890625 108.351875) scale(0.1 -0.1)">
       <defs>
        <path id="TimesNewRomanPSMT-44" d="M 109 0 
L 109 116 
L 269 116 
Q 538 116 650 288 
Q 719 391 719 750 
L 719 3488 
Q 719 3884 631 3984 
Q 509 4122 269 4122 
L 109 4122 
L 109 4238 
L 1834 4238 
Q 2784 4238 3279 4022 
Q 3775 3806 4076 3303 
Q 4378 2800 4378 2141 
Q 4378 1256 3841 663 
Q 3238 0 2003 0 
L 109 0 
z
M 1319 306 
Q 1716 219 1984 219 
Q 2709 219 3187 728 
Q 3666 1238 3666 2109 
Q 3666 2988 3187 3494 
Q 2709 4000 1959 4000 
Q 1678 4000 1319 3909 
L 1319 306 
z
" transform="scale(0.015625)"/>
        <path id="TimesNewRomanPSMT-4d" d="M 2619 0 
L 981 3566 
L 981 734 
Q 981 344 1066 247 
Q 1181 116 1431 116 
L 1581 116 
L 1581 0 
L 106 0 
L 106 116 
L 256 116 
Q 525 116 638 278 
Q 706 378 706 734 
L 706 3503 
Q 706 3784 644 3909 
Q 600 4000 483 4061 
Q 366 4122 106 4122 
L 106 4238 
L 1306 4238 
L 2844 922 
L 4356 4238 
L 5556 4238 
L 5556 4122 
L 5409 4122 
Q 5138 4122 5025 3959 
Q 4956 3859 4956 3503 
L 4956 734 
Q 4956 344 5044 247 
Q 5159 116 5409 116 
L 5556 116 
L 5556 0 
L 3756 0 
L 3756 116 
L 3906 116 
Q 4178 116 4288 278 
Q 4356 378 4356 734 
L 4356 3566 
L 2722 0 
L 2619 0 
z
" transform="scale(0.015625)"/>
        <path id="TimesNewRomanPSMT-45" d="M 1338 4006 
L 1338 2331 
L 2269 2331 
Q 2631 2331 2753 2441 
Q 2916 2584 2934 2947 
L 3050 2947 
L 3050 1472 
L 2934 1472 
Q 2891 1781 2847 1869 
Q 2791 1978 2662 2040 
Q 2534 2103 2269 2103 
L 1338 2103 
L 1338 706 
Q 1338 425 1363 364 
Q 1388 303 1450 267 
Q 1513 231 1688 231 
L 2406 231 
Q 2766 231 2928 281 
Q 3091 331 3241 478 
Q 3434 672 3638 1063 
L 3763 1063 
L 3397 0 
L 131 0 
L 131 116 
L 281 116 
Q 431 116 566 188 
Q 666 238 702 338 
Q 738 438 738 747 
L 738 3500 
Q 738 3903 656 3997 
Q 544 4122 281 4122 
L 131 4122 
L 131 4238 
L 3397 4238 
L 3444 3309 
L 3322 3309 
Q 3256 3644 3176 3769 
Q 3097 3894 2941 3959 
Q 2816 4006 2500 4006 
L 1338 4006 
z
" transform="scale(0.015625)"/>
        <path id="TimesNewRomanPSMT-52" d="M 4325 0 
L 3194 0 
L 1759 1981 
Q 1600 1975 1500 1975 
Q 1459 1975 1412 1976 
Q 1366 1978 1316 1981 
L 1316 750 
Q 1316 350 1403 253 
Q 1522 116 1759 116 
L 1925 116 
L 1925 0 
L 109 0 
L 109 116 
L 269 116 
Q 538 116 653 291 
Q 719 388 719 750 
L 719 3488 
Q 719 3888 631 3984 
Q 509 4122 269 4122 
L 109 4122 
L 109 4238 
L 1653 4238 
Q 2328 4238 2648 4139 
Q 2969 4041 3192 3777 
Q 3416 3513 3416 3147 
Q 3416 2756 3161 2468 
Q 2906 2181 2372 2063 
L 3247 847 
Q 3547 428 3762 290 
Q 3978 153 4325 116 
L 4325 0 
z
M 1316 2178 
Q 1375 2178 1419 2176 
Q 1463 2175 1491 2175 
Q 2097 2175 2405 2437 
Q 2713 2700 2713 3106 
Q 2713 3503 2464 3751 
Q 2216 4000 1806 4000 
Q 1625 4000 1316 3941 
L 1316 2178 
z
" transform="scale(0.015625)"/>
        <path id="TimesNewRomanPSMT-43" d="M 3853 4334 
L 3950 2894 
L 3853 2894 
Q 3659 3541 3300 3825 
Q 2941 4109 2438 4109 
Q 2016 4109 1675 3895 
Q 1334 3681 1139 3212 
Q 944 2744 944 2047 
Q 944 1472 1128 1050 
Q 1313 628 1683 403 
Q 2053 178 2528 178 
Q 2941 178 3256 354 
Q 3572 531 3950 1056 
L 4047 994 
Q 3728 428 3303 165 
Q 2878 -97 2294 -97 
Q 1241 -97 663 684 
Q 231 1266 231 2053 
Q 231 2688 515 3219 
Q 800 3750 1298 4042 
Q 1797 4334 2388 4334 
Q 2847 4334 3294 4109 
Q 3425 4041 3481 4041 
Q 3566 4041 3628 4100 
Q 3709 4184 3744 4334 
L 3853 4334 
z
" transform="scale(0.015625)"/>
        <path id="TimesNewRomanPSMT-4f" d="M 2341 4334 
Q 3166 4334 3770 3707 
Q 4375 3081 4375 2144 
Q 4375 1178 3765 540 
Q 3156 -97 2291 -97 
Q 1416 -97 820 525 
Q 225 1147 225 2134 
Q 225 3144 913 3781 
Q 1509 4334 2341 4334 
z
M 2281 4106 
Q 1713 4106 1369 3684 
Q 941 3159 941 2147 
Q 941 1109 1384 550 
Q 1725 125 2284 125 
Q 2881 125 3270 590 
Q 3659 1056 3659 2059 
Q 3659 3147 3231 3681 
Q 2888 4106 2281 4106 
z
" transform="scale(0.015625)"/>
        <path id="TimesNewRomanPSMT-4e" d="M -84 4238 
L 1066 4238 
L 3656 1059 
L 3656 3503 
Q 3656 3894 3569 3991 
Q 3453 4122 3203 4122 
L 3056 4122 
L 3056 4238 
L 4531 4238 
L 4531 4122 
L 4381 4122 
Q 4113 4122 4000 3959 
Q 3931 3859 3931 3503 
L 3931 -69 
L 3819 -69 
L 1025 3344 
L 1025 734 
Q 1025 344 1109 247 
Q 1228 116 1475 116 
L 1625 116 
L 1625 0 
L 150 0 
L 150 116 
L 297 116 
Q 569 116 681 278 
Q 750 378 750 734 
L 750 3681 
Q 566 3897 470 3965 
Q 375 4034 191 4094 
Q 100 4122 -84 4122 
L -84 4238 
z
" transform="scale(0.015625)"/>
        <path id="TimesNewRomanPSMT-47" d="M 3928 4334 
L 4038 2997 
L 3928 2997 
Q 3763 3497 3500 3750 
Q 3122 4116 2528 4116 
Q 1719 4116 1297 3475 
Q 944 2934 944 2188 
Q 944 1581 1178 1081 
Q 1413 581 1792 348 
Q 2172 116 2572 116 
Q 2806 116 3025 175 
Q 3244 234 3447 350 
L 3447 1575 
Q 3447 1894 3398 1992 
Q 3350 2091 3248 2142 
Q 3147 2194 2891 2194 
L 2891 2313 
L 4531 2313 
L 4531 2194 
L 4453 2194 
Q 4209 2194 4119 2031 
Q 4056 1916 4056 1575 
L 4056 278 
Q 3697 84 3347 -6 
Q 2997 -97 2569 -97 
Q 1341 -97 703 691 
Q 225 1281 225 2053 
Q 225 2613 494 3125 
Q 813 3734 1369 4063 
Q 1834 4334 2469 4334 
Q 2700 4334 2889 4296 
Q 3078 4259 3425 4131 
Q 3600 4066 3659 4066 
Q 3719 4066 3761 4120 
Q 3803 4175 3813 4334 
L 3928 4334 
z
" transform="scale(0.015625)"/>
        <path id="TimesNewRomanPSMT-2f" d="M 1794 4444 
L 259 -88 
L 9 -88 
L 1544 4444 
L 1794 4444 
z
" transform="scale(0.015625)"/>
        <path id="TimesNewRomanPSMT-4c" d="M 3669 1172 
L 3772 1150 
L 3409 0 
L 128 0 
L 128 116 
L 288 116 
Q 556 116 672 291 
Q 738 391 738 753 
L 738 3488 
Q 738 3884 650 3984 
Q 528 4122 288 4122 
L 128 4122 
L 128 4238 
L 2047 4238 
L 2047 4122 
Q 1709 4125 1573 4059 
Q 1438 3994 1388 3894 
Q 1338 3794 1338 3416 
L 1338 753 
Q 1338 494 1388 397 
Q 1425 331 1503 300 
Q 1581 269 1991 269 
L 2300 269 
Q 2788 269 2984 341 
Q 3181 413 3343 595 
Q 3506 778 3669 1172 
z
" transform="scale(0.015625)"/>
       </defs>
       <use xlink:href="#TimesNewRomanPSMT-44"/>
       <use xlink:href="#TimesNewRomanPSMT-44" x="72.216797"/>
       <use xlink:href="#TimesNewRomanPSMT-49" x="144.433594"/>
       <use xlink:href="#TimesNewRomanPSMT-4d" x="177.734375"/>
       <use xlink:href="#TimesNewRomanPSMT-45" x="266.650391"/>
       <use xlink:href="#TimesNewRomanPSMT-52" x="327.734375"/>
       <use xlink:href="#TimesNewRomanPSMT-20" x="394.433594"/>
       <use xlink:href="#TimesNewRomanPSMT-43" x="419.433594"/>
       <use xlink:href="#TimesNewRomanPSMT-4f" x="486.132812"/>
       <use xlink:href="#TimesNewRomanPSMT-4e" x="558.349609"/>
       <use xlink:href="#TimesNewRomanPSMT-43" x="630.566406"/>
       <use xlink:href="#TimesNewRomanPSMT-20" x="697.265625"/>
       <use xlink:href="#TimesNewRomanPSMT-28" x="722.265625"/>
       <use xlink:href="#TimesNewRomanPSMT-4e" x="755.566406"/>
       <use xlink:href="#TimesNewRomanPSMT-47" x="827.783203"/>
       <use xlink:href="#TimesNewRomanPSMT-2f" x="900"/>
       <use xlink:href="#TimesNewRomanPSMT-4d" x="927.783203"/>
       <use xlink:href="#TimesNewRomanPSMT-4c" x="1016.699219"/>
       <use xlink:href="#TimesNewRomanPSMT-29" x="1077.783203"/>
      </g>
     </g>
    </g>
    <g id="ytick_2">
     <g id="line2d_10">
      <g>
       <use xlink:href="#m12561c85b1" x="180" y="141.84" style="stroke: #000000; stroke-width: 0.8"/>
      </g>
     </g>
     <g id="text_11">
      <!-- PARTIAL THROMBOPLASTIN TIME (PTT) -->
      <g transform="translate(-14.473438 145.311875) scale(0.1 -0.1)">
       <defs>
        <path id="TimesNewRomanPSMT-50" d="M 1313 1984 
L 1313 750 
Q 1313 350 1400 253 
Q 1519 116 1759 116 
L 1922 116 
L 1922 0 
L 106 0 
L 106 116 
L 266 116 
Q 534 116 650 291 
Q 713 388 713 750 
L 713 3488 
Q 713 3888 628 3984 
Q 506 4122 266 4122 
L 106 4122 
L 106 4238 
L 1659 4238 
Q 2228 4238 2556 4120 
Q 2884 4003 3109 3725 
Q 3334 3447 3334 3066 
Q 3334 2547 2992 2222 
Q 2650 1897 2025 1897 
Q 1872 1897 1694 1919 
Q 1516 1941 1313 1984 
z
M 1313 2163 
Q 1478 2131 1606 2115 
Q 1734 2100 1825 2100 
Q 2150 2100 2386 2351 
Q 2622 2603 2622 3003 
Q 2622 3278 2509 3514 
Q 2397 3750 2190 3867 
Q 1984 3984 1722 3984 
Q 1563 3984 1313 3925 
L 1313 2163 
z
" transform="scale(0.015625)"/>
        <path id="TimesNewRomanPSMT-41" d="M 2928 1419 
L 1288 1419 
L 1000 750 
Q 894 503 894 381 
Q 894 284 986 211 
Q 1078 138 1384 116 
L 1384 0 
L 50 0 
L 50 116 
Q 316 163 394 238 
Q 553 388 747 847 
L 2238 4334 
L 2347 4334 
L 3822 809 
Q 4000 384 4145 257 
Q 4291 131 4550 116 
L 4550 0 
L 2878 0 
L 2878 116 
Q 3131 128 3220 200 
Q 3309 272 3309 375 
Q 3309 513 3184 809 
L 2928 1419 
z
M 2841 1650 
L 2122 3363 
L 1384 1650 
L 2841 1650 
z
" transform="scale(0.015625)"/>
        <path id="TimesNewRomanPSMT-54" d="M 3703 4238 
L 3750 3244 
L 3631 3244 
Q 3597 3506 3538 3619 
Q 3441 3800 3280 3886 
Q 3119 3972 2856 3972 
L 2259 3972 
L 2259 734 
Q 2259 344 2344 247 
Q 2463 116 2709 116 
L 2856 116 
L 2856 0 
L 1059 0 
L 1059 116 
L 1209 116 
Q 1478 116 1591 278 
Q 1659 378 1659 734 
L 1659 3972 
L 1150 3972 
Q 853 3972 728 3928 
Q 566 3869 450 3700 
Q 334 3531 313 3244 
L 194 3244 
L 244 4238 
L 3703 4238 
z
" transform="scale(0.015625)"/>
        <path id="TimesNewRomanPSMT-48" d="M 1316 2272 
L 3284 2272 
L 3284 3484 
Q 3284 3809 3244 3913 
Q 3213 3991 3113 4047 
Q 2978 4122 2828 4122 
L 2678 4122 
L 2678 4238 
L 4491 4238 
L 4491 4122 
L 4341 4122 
Q 4191 4122 4056 4050 
Q 3956 4000 3920 3898 
Q 3884 3797 3884 3484 
L 3884 750 
Q 3884 428 3925 325 
Q 3956 247 4053 191 
Q 4191 116 4341 116 
L 4491 116 
L 4491 0 
L 2678 0 
L 2678 116 
L 2828 116 
Q 3088 116 3206 269 
Q 3284 369 3284 750 
L 3284 2041 
L 1316 2041 
L 1316 750 
Q 1316 428 1356 325 
Q 1388 247 1488 191 
Q 1622 116 1772 116 
L 1925 116 
L 1925 0 
L 109 0 
L 109 116 
L 259 116 
Q 522 116 641 269 
Q 716 369 716 750 
L 716 3484 
Q 716 3809 675 3913 
Q 644 3991 547 4047 
Q 409 4122 259 4122 
L 109 4122 
L 109 4238 
L 1925 4238 
L 1925 4122 
L 1772 4122 
Q 1622 4122 1488 4050 
Q 1391 4000 1353 3898 
Q 1316 3797 1316 3484 
L 1316 2272 
z
" transform="scale(0.015625)"/>
        <path id="TimesNewRomanPSMT-42" d="M 2956 2163 
Q 3397 2069 3616 1863 
Q 3919 1575 3919 1159 
Q 3919 844 3719 555 
Q 3519 266 3170 133 
Q 2822 0 2106 0 
L 106 0 
L 106 116 
L 266 116 
Q 531 116 647 284 
Q 719 394 719 750 
L 719 3488 
Q 719 3881 628 3984 
Q 506 4122 266 4122 
L 106 4122 
L 106 4238 
L 1938 4238 
Q 2450 4238 2759 4163 
Q 3228 4050 3475 3764 
Q 3722 3478 3722 3106 
Q 3722 2788 3528 2536 
Q 3334 2284 2956 2163 
z
M 1319 2331 
Q 1434 2309 1582 2298 
Q 1731 2288 1909 2288 
Q 2366 2288 2595 2386 
Q 2825 2484 2947 2687 
Q 3069 2891 3069 3131 
Q 3069 3503 2766 3765 
Q 2463 4028 1881 4028 
Q 1569 4028 1319 3959 
L 1319 2331 
z
M 1319 306 
Q 1681 222 2034 222 
Q 2600 222 2897 476 
Q 3194 731 3194 1106 
Q 3194 1353 3059 1581 
Q 2925 1809 2622 1940 
Q 2319 2072 1872 2072 
Q 1678 2072 1540 2065 
Q 1403 2059 1319 2044 
L 1319 306 
z
" transform="scale(0.015625)"/>
        <path id="TimesNewRomanPSMT-53" d="M 2934 4334 
L 2934 2869 
L 2819 2869 
Q 2763 3291 2617 3541 
Q 2472 3791 2203 3937 
Q 1934 4084 1647 4084 
Q 1322 4084 1109 3886 
Q 897 3688 897 3434 
Q 897 3241 1031 3081 
Q 1225 2847 1953 2456 
Q 2547 2138 2764 1967 
Q 2981 1797 3098 1565 
Q 3216 1334 3216 1081 
Q 3216 600 2842 251 
Q 2469 -97 1881 -97 
Q 1697 -97 1534 -69 
Q 1438 -53 1133 45 
Q 828 144 747 144 
Q 669 144 623 97 
Q 578 50 556 -97 
L 441 -97 
L 441 1356 
L 556 1356 
Q 638 900 775 673 
Q 913 447 1195 297 
Q 1478 147 1816 147 
Q 2206 147 2432 353 
Q 2659 559 2659 841 
Q 2659 997 2573 1156 
Q 2488 1316 2306 1453 
Q 2184 1547 1640 1851 
Q 1097 2156 867 2337 
Q 638 2519 519 2737 
Q 400 2956 400 3219 
Q 400 3675 750 4004 
Q 1100 4334 1641 4334 
Q 1978 4334 2356 4169 
Q 2531 4091 2603 4091 
Q 2684 4091 2736 4139 
Q 2788 4188 2819 4334 
L 2934 4334 
z
" transform="scale(0.015625)"/>
       </defs>
       <use xlink:href="#TimesNewRomanPSMT-50"/>
       <use xlink:href="#TimesNewRomanPSMT-41" x="46.490234"/>
       <use xlink:href="#TimesNewRomanPSMT-52" x="118.707031"/>
       <use xlink:href="#TimesNewRomanPSMT-54" x="179.40625"/>
       <use xlink:href="#TimesNewRomanPSMT-49" x="240.490234"/>
       <use xlink:href="#TimesNewRomanPSMT-41" x="273.791016"/>
       <use xlink:href="#TimesNewRomanPSMT-4c" x="346.007812"/>
       <use xlink:href="#TimesNewRomanPSMT-20" x="403.341797"/>
       <use xlink:href="#TimesNewRomanPSMT-54" x="426.591797"/>
       <use xlink:href="#TimesNewRomanPSMT-48" x="487.675781"/>
       <use xlink:href="#TimesNewRomanPSMT-52" x="559.892578"/>
       <use xlink:href="#TimesNewRomanPSMT-4f" x="626.591797"/>
       <use xlink:href="#TimesNewRomanPSMT-4d" x="698.808594"/>
       <use xlink:href="#TimesNewRomanPSMT-42" x="787.724609"/>
       <use xlink:href="#TimesNewRomanPSMT-4f" x="854.423828"/>
       <use xlink:href="#TimesNewRomanPSMT-50" x="926.640625"/>
       <use xlink:href="#TimesNewRomanPSMT-4c" x="982.255859"/>
       <use xlink:href="#TimesNewRomanPSMT-41" x="1043.339844"/>
       <use xlink:href="#TimesNewRomanPSMT-53" x="1115.556641"/>
       <use xlink:href="#TimesNewRomanPSMT-54" x="1171.171875"/>
       <use xlink:href="#TimesNewRomanPSMT-49" x="1232.255859"/>
       <use xlink:href="#TimesNewRomanPSMT-4e" x="1265.556641"/>
       <use xlink:href="#TimesNewRomanPSMT-20" x="1337.773438"/>
       <use xlink:href="#TimesNewRomanPSMT-54" x="1361.023438"/>
       <use xlink:href="#TimesNewRomanPSMT-49" x="1422.107422"/>
       <use xlink:href="#TimesNewRomanPSMT-4d" x="1455.408203"/>
       <use xlink:href="#TimesNewRomanPSMT-45" x="1544.324219"/>
       <use xlink:href="#TimesNewRomanPSMT-20" x="1605.408203"/>
       <use xlink:href="#TimesNewRomanPSMT-28" x="1630.408203"/>
       <use xlink:href="#TimesNewRomanPSMT-50" x="1663.708984"/>
       <use xlink:href="#TimesNewRomanPSMT-54" x="1719.324219"/>
       <use xlink:href="#TimesNewRomanPSMT-54" x="1780.408203"/>
       <use xlink:href="#TimesNewRomanPSMT-29" x="1841.492188"/>
      </g>
     </g>
    </g>
    <g id="ytick_3">
     <g id="line2d_11">
      <g>
       <use xlink:href="#m12561c85b1" x="180" y="178.8" style="stroke: #000000; stroke-width: 0.8"/>
      </g>
     </g>
     <g id="text_12">
      <!-- POLYM RATE (PA/S) -->
      <g transform="translate(82.13125 182.271875) scale(0.1 -0.1)">
       <defs>
        <path id="TimesNewRomanPSMT-59" d="M 3050 4238 
L 4528 4238 
L 4528 4122 
L 4447 4122 
Q 4366 4122 4209 4050 
Q 4053 3978 3925 3843 
Q 3797 3709 3609 3406 
L 2588 1797 
L 2588 734 
Q 2588 344 2675 247 
Q 2794 116 3050 116 
L 3188 116 
L 3188 0 
L 1388 0 
L 1388 116 
L 1538 116 
Q 1806 116 1919 278 
Q 1988 378 1988 734 
L 1988 1738 
L 825 3513 
Q 619 3825 545 3903 
Q 472 3981 241 4091 
Q 178 4122 59 4122 
L 59 4238 
L 1872 4238 
L 1872 4122 
L 1778 4122 
Q 1631 4122 1507 4053 
Q 1384 3984 1384 3847 
Q 1384 3734 1575 3441 
L 2459 2075 
L 3291 3381 
Q 3478 3675 3478 3819 
Q 3478 3906 3433 3975 
Q 3388 4044 3303 4083 
Q 3219 4122 3050 4122 
L 3050 4238 
z
" transform="scale(0.015625)"/>
       </defs>
       <use xlink:href="#TimesNewRomanPSMT-50"/>
       <use xlink:href="#TimesNewRomanPSMT-4f" x="55.615234"/>
       <use xlink:href="#TimesNewRomanPSMT-4c" x="127.832031"/>
       <use xlink:href="#TimesNewRomanPSMT-59" x="178.916016"/>
       <use xlink:href="#TimesNewRomanPSMT-4d" x="251.132812"/>
       <use xlink:href="#TimesNewRomanPSMT-20" x="340.048828"/>
       <use xlink:href="#TimesNewRomanPSMT-52" x="365.048828"/>
       <use xlink:href="#TimesNewRomanPSMT-41" x="431.748047"/>
       <use xlink:href="#TimesNewRomanPSMT-54" x="492.839844"/>
       <use xlink:href="#TimesNewRomanPSMT-45" x="553.923828"/>
       <use xlink:href="#TimesNewRomanPSMT-20" x="615.007812"/>
       <use xlink:href="#TimesNewRomanPSMT-28" x="640.007812"/>
       <use xlink:href="#TimesNewRomanPSMT-50" x="673.308594"/>
       <use xlink:href="#TimesNewRomanPSMT-41" x="719.798828"/>
       <use xlink:href="#TimesNewRomanPSMT-2f" x="792.015625"/>
       <use xlink:href="#TimesNewRomanPSMT-53" x="819.798828"/>
       <use xlink:href="#TimesNewRomanPSMT-29" x="875.414062"/>
      </g>
     </g>
    </g>
    <g id="ytick_4">
     <g id="line2d_12">
      <g>
       <use xlink:href="#m12561c85b1" x="180" y="215.76" style="stroke: #000000; stroke-width: 0.8"/>
      </g>
     </g>
     <g id="text_13">
      <!-- FIBRINOGEN (MG/ML) -->
      <g transform="translate(69.392187 219.231875) scale(0.1 -0.1)">
       <use xlink:href="#TimesNewRomanPSMT-46"/>
       <use xlink:href="#TimesNewRomanPSMT-49" x="55.615234"/>
       <use xlink:href="#TimesNewRomanPSMT-42" x="88.916016"/>
       <use xlink:href="#TimesNewRomanPSMT-52" x="155.615234"/>
       <use xlink:href="#TimesNewRomanPSMT-49" x="222.314453"/>
       <use xlink:href="#TimesNewRomanPSMT-4e" x="255.615234"/>
       <use xlink:href="#TimesNewRomanPSMT-4f" x="327.832031"/>
       <use xlink:href="#TimesNewRomanPSMT-47" x="400.048828"/>
       <use xlink:href="#TimesNewRomanPSMT-45" x="472.265625"/>
       <use xlink:href="#TimesNewRomanPSMT-4e" x="533.349609"/>
       <use xlink:href="#TimesNewRomanPSMT-20" x="605.566406"/>
       <use xlink:href="#TimesNewRomanPSMT-28" x="630.566406"/>
       <use xlink:href="#TimesNewRomanPSMT-4d" x="663.867188"/>
       <use xlink:href="#TimesNewRomanPSMT-47" x="752.783203"/>
       <use xlink:href="#TimesNewRomanPSMT-2f" x="825"/>
       <use xlink:href="#TimesNewRomanPSMT-4d" x="852.783203"/>
       <use xlink:href="#TimesNewRomanPSMT-4c" x="941.699219"/>
       <use xlink:href="#TimesNewRomanPSMT-29" x="1002.783203"/>
      </g>
     </g>
    </g>
    <g id="ytick_5">
     <g id="line2d_13">
      <g>
       <use xlink:href="#m12561c85b1" x="180" y="252.72" style="stroke: #000000; stroke-width: 0.8"/>
      </g>
     </g>
     <g id="text_14">
      <!-- ABBREVIATED INJURY SCALE HEAD -->
      <g transform="translate(1.985937 256.191875) scale(0.1 -0.1)">
       <defs>
        <path id="TimesNewRomanPSMT-56" d="M 4544 4238 
L 4544 4122 
Q 4319 4081 4203 3978 
Q 4038 3825 3909 3509 
L 2431 -97 
L 2316 -97 
L 728 3556 
Q 606 3838 556 3900 
Q 478 3997 364 4051 
Q 250 4106 56 4122 
L 56 4238 
L 1788 4238 
L 1788 4122 
Q 1494 4094 1406 4022 
Q 1319 3950 1319 3838 
Q 1319 3681 1463 3350 
L 2541 866 
L 3541 3319 
Q 3688 3681 3688 3822 
Q 3688 3913 3597 3995 
Q 3506 4078 3291 4113 
Q 3275 4116 3238 4122 
L 3238 4238 
L 4544 4238 
z
" transform="scale(0.015625)"/>
        <path id="TimesNewRomanPSMT-4a" d="M 638 4122 
L 638 4238 
L 2453 4238 
L 2453 4122 
L 2300 4122 
Q 2041 4122 1922 3969 
Q 1847 3869 1847 3488 
L 1847 1416 
Q 1847 938 1742 641 
Q 1638 344 1381 123 
Q 1125 -97 763 -97 
Q 469 -97 300 48 
Q 131 194 131 381 
Q 131 534 209 613 
Q 313 709 450 709 
Q 550 709 629 643 
Q 709 578 831 294 
Q 903 125 1016 125 
Q 1100 125 1173 228 
Q 1247 331 1247 594 
L 1247 3488 
Q 1247 3809 1206 3913 
Q 1175 3991 1075 4047 
Q 941 4122 791 4122 
L 638 4122 
z
" transform="scale(0.015625)"/>
        <path id="TimesNewRomanPSMT-55" d="M 3053 4122 
L 3053 4238 
L 4553 4238 
L 4553 4122 
L 4394 4122 
Q 4144 4122 4009 3913 
Q 3944 3816 3944 3463 
L 3944 1744 
Q 3944 1106 3817 754 
Q 3691 403 3320 151 
Q 2950 -100 2313 -100 
Q 1619 -100 1259 140 
Q 900 381 750 788 
Q 650 1066 650 1831 
L 650 3488 
Q 650 3878 542 4000 
Q 434 4122 194 4122 
L 34 4122 
L 34 4238 
L 1866 4238 
L 1866 4122 
L 1703 4122 
Q 1441 4122 1328 3956 
Q 1250 3844 1250 3488 
L 1250 1641 
Q 1250 1394 1295 1075 
Q 1341 756 1459 578 
Q 1578 400 1801 284 
Q 2025 169 2350 169 
Q 2766 169 3094 350 
Q 3422 531 3542 814 
Q 3663 1097 3663 1772 
L 3663 3488 
Q 3663 3884 3575 3984 
Q 3453 4122 3213 4122 
L 3053 4122 
z
" transform="scale(0.015625)"/>
       </defs>
       <use xlink:href="#TimesNewRomanPSMT-41"/>
       <use xlink:href="#TimesNewRomanPSMT-42" x="72.216797"/>
       <use xlink:href="#TimesNewRomanPSMT-42" x="138.916016"/>
       <use xlink:href="#TimesNewRomanPSMT-52" x="205.615234"/>
       <use xlink:href="#TimesNewRomanPSMT-45" x="272.314453"/>
       <use xlink:href="#TimesNewRomanPSMT-56" x="333.398438"/>
       <use xlink:href="#TimesNewRomanPSMT-49" x="405.615234"/>
       <use xlink:href="#TimesNewRomanPSMT-41" x="438.916016"/>
       <use xlink:href="#TimesNewRomanPSMT-54" x="500.007812"/>
       <use xlink:href="#TimesNewRomanPSMT-45" x="561.091797"/>
       <use xlink:href="#TimesNewRomanPSMT-44" x="622.175781"/>
       <use xlink:href="#TimesNewRomanPSMT-20" x="694.392578"/>
       <use xlink:href="#TimesNewRomanPSMT-49" x="719.392578"/>
       <use xlink:href="#TimesNewRomanPSMT-4e" x="752.693359"/>
       <use xlink:href="#TimesNewRomanPSMT-4a" x="824.910156"/>
       <use xlink:href="#TimesNewRomanPSMT-55" x="863.826172"/>
       <use xlink:href="#TimesNewRomanPSMT-52" x="936.042969"/>
       <use xlink:href="#TimesNewRomanPSMT-59" x="997.242188"/>
       <use xlink:href="#TimesNewRomanPSMT-20" x="1065.708984"/>
       <use xlink:href="#TimesNewRomanPSMT-53" x="1090.708984"/>
       <use xlink:href="#TimesNewRomanPSMT-43" x="1146.324219"/>
       <use xlink:href="#TimesNewRomanPSMT-41" x="1213.023438"/>
       <use xlink:href="#TimesNewRomanPSMT-4c" x="1285.240234"/>
       <use xlink:href="#TimesNewRomanPSMT-45" x="1346.324219"/>
       <use xlink:href="#TimesNewRomanPSMT-20" x="1407.408203"/>
       <use xlink:href="#TimesNewRomanPSMT-48" x="1432.408203"/>
       <use xlink:href="#TimesNewRomanPSMT-45" x="1504.625"/>
       <use xlink:href="#TimesNewRomanPSMT-41" x="1565.708984"/>
       <use xlink:href="#TimesNewRomanPSMT-44" x="1637.925781"/>
      </g>
     </g>
    </g>
    <g id="ytick_6">
     <g id="line2d_14">
      <g>
       <use xlink:href="#m12561c85b1" x="180" y="289.68" style="stroke: #000000; stroke-width: 0.8"/>
      </g>
     </g>
     <g id="text_15">
      <!-- PROTHROMBIN TIME (PT) -->
      <g transform="translate(52.620312 293.151875) scale(0.1 -0.1)">
       <use xlink:href="#TimesNewRomanPSMT-50"/>
       <use xlink:href="#TimesNewRomanPSMT-52" x="55.615234"/>
       <use xlink:href="#TimesNewRomanPSMT-4f" x="122.314453"/>
       <use xlink:href="#TimesNewRomanPSMT-54" x="194.53125"/>
       <use xlink:href="#TimesNewRomanPSMT-48" x="255.615234"/>
       <use xlink:href="#TimesNewRomanPSMT-52" x="327.832031"/>
       <use xlink:href="#TimesNewRomanPSMT-4f" x="394.53125"/>
       <use xlink:href="#TimesNewRomanPSMT-4d" x="466.748047"/>
       <use xlink:href="#TimesNewRomanPSMT-42" x="555.664062"/>
       <use xlink:href="#TimesNewRomanPSMT-49" x="622.363281"/>
       <use xlink:href="#TimesNewRomanPSMT-4e" x="655.664062"/>
       <use xlink:href="#TimesNewRomanPSMT-20" x="727.880859"/>
       <use xlink:href="#TimesNewRomanPSMT-54" x="751.130859"/>
       <use xlink:href="#TimesNewRomanPSMT-49" x="812.214844"/>
       <use xlink:href="#TimesNewRomanPSMT-4d" x="845.515625"/>
       <use xlink:href="#TimesNewRomanPSMT-45" x="934.431641"/>
       <use xlink:href="#TimesNewRomanPSMT-20" x="995.515625"/>
       <use xlink:href="#TimesNewRomanPSMT-28" x="1020.515625"/>
       <use xlink:href="#TimesNewRomanPSMT-50" x="1053.816406"/>
       <use xlink:href="#TimesNewRomanPSMT-54" x="1109.431641"/>
       <use xlink:href="#TimesNewRomanPSMT-29" x="1170.515625"/>
      </g>
     </g>
    </g>
    <g id="ytick_7">
     <g id="line2d_15">
      <g>
       <use xlink:href="#m12561c85b1" x="180" y="326.64" style="stroke: #000000; stroke-width: 0.8"/>
      </g>
     </g>
     <g id="text_16">
      <!-- INJURY SEVERITY SCORE (ISS) -->
      <g transform="translate(29.571875 330.111875) scale(0.1 -0.1)">
       <use xlink:href="#TimesNewRomanPSMT-49"/>
       <use xlink:href="#TimesNewRomanPSMT-4e" x="33.300781"/>
       <use xlink:href="#TimesNewRomanPSMT-4a" x="105.517578"/>
       <use xlink:href="#TimesNewRomanPSMT-55" x="144.433594"/>
       <use xlink:href="#TimesNewRomanPSMT-52" x="216.650391"/>
       <use xlink:href="#TimesNewRomanPSMT-59" x="277.849609"/>
       <use xlink:href="#TimesNewRomanPSMT-20" x="346.316406"/>
       <use xlink:href="#TimesNewRomanPSMT-53" x="371.316406"/>
       <use xlink:href="#TimesNewRomanPSMT-45" x="426.931641"/>
       <use xlink:href="#TimesNewRomanPSMT-56" x="488.015625"/>
       <use xlink:href="#TimesNewRomanPSMT-45" x="560.232422"/>
       <use xlink:href="#TimesNewRomanPSMT-52" x="621.316406"/>
       <use xlink:href="#TimesNewRomanPSMT-49" x="688.015625"/>
       <use xlink:href="#TimesNewRomanPSMT-54" x="721.316406"/>
       <use xlink:href="#TimesNewRomanPSMT-59" x="782.400391"/>
       <use xlink:href="#TimesNewRomanPSMT-20" x="850.867188"/>
       <use xlink:href="#TimesNewRomanPSMT-53" x="875.867188"/>
       <use xlink:href="#TimesNewRomanPSMT-43" x="931.482422"/>
       <use xlink:href="#TimesNewRomanPSMT-4f" x="998.181641"/>
       <use xlink:href="#TimesNewRomanPSMT-52" x="1070.398438"/>
       <use xlink:href="#TimesNewRomanPSMT-45" x="1137.097656"/>
       <use xlink:href="#TimesNewRomanPSMT-20" x="1198.181641"/>
       <use xlink:href="#TimesNewRomanPSMT-28" x="1223.181641"/>
       <use xlink:href="#TimesNewRomanPSMT-49" x="1256.482422"/>
       <use xlink:href="#TimesNewRomanPSMT-53" x="1289.783203"/>
       <use xlink:href="#TimesNewRomanPSMT-53" x="1345.398438"/>
       <use xlink:href="#TimesNewRomanPSMT-29" x="1401.013672"/>
      </g>
     </g>
    </g>
    <g id="ytick_8">
     <g id="line2d_16">
      <g>
       <use xlink:href="#m12561c85b1" x="180" y="363.6" style="stroke: #000000; stroke-width: 0.8"/>
      </g>
     </g>
     <g id="text_17">
      <!-- SPONTANEOUS BACTERIAL PERITONITIS (SBP) -->
      <g transform="translate(-46.4875 367.071875) scale(0.1 -0.1)">
       <use xlink:href="#TimesNewRomanPSMT-53"/>
       <use xlink:href="#TimesNewRomanPSMT-50" x="55.615234"/>
       <use xlink:href="#TimesNewRomanPSMT-4f" x="111.230469"/>
       <use xlink:href="#TimesNewRomanPSMT-4e" x="183.447266"/>
       <use xlink:href="#TimesNewRomanPSMT-54" x="255.664062"/>
       <use xlink:href="#TimesNewRomanPSMT-41" x="308.748047"/>
       <use xlink:href="#TimesNewRomanPSMT-4e" x="380.964844"/>
       <use xlink:href="#TimesNewRomanPSMT-45" x="453.181641"/>
       <use xlink:href="#TimesNewRomanPSMT-4f" x="514.265625"/>
       <use xlink:href="#TimesNewRomanPSMT-55" x="586.482422"/>
       <use xlink:href="#TimesNewRomanPSMT-53" x="658.699219"/>
       <use xlink:href="#TimesNewRomanPSMT-20" x="714.314453"/>
       <use xlink:href="#TimesNewRomanPSMT-42" x="739.314453"/>
       <use xlink:href="#TimesNewRomanPSMT-41" x="806.013672"/>
       <use xlink:href="#TimesNewRomanPSMT-43" x="878.230469"/>
       <use xlink:href="#TimesNewRomanPSMT-54" x="944.929688"/>
       <use xlink:href="#TimesNewRomanPSMT-45" x="1006.013672"/>
       <use xlink:href="#TimesNewRomanPSMT-52" x="1067.097656"/>
       <use xlink:href="#TimesNewRomanPSMT-49" x="1133.796875"/>
       <use xlink:href="#TimesNewRomanPSMT-41" x="1167.097656"/>
       <use xlink:href="#TimesNewRomanPSMT-4c" x="1239.314453"/>
       <use xlink:href="#TimesNewRomanPSMT-20" x="1296.648438"/>
       <use xlink:href="#TimesNewRomanPSMT-50" x="1321.648438"/>
       <use xlink:href="#TimesNewRomanPSMT-45" x="1377.263672"/>
       <use xlink:href="#TimesNewRomanPSMT-52" x="1438.347656"/>
       <use xlink:href="#TimesNewRomanPSMT-49" x="1505.046875"/>
       <use xlink:href="#TimesNewRomanPSMT-54" x="1538.347656"/>
       <use xlink:href="#TimesNewRomanPSMT-4f" x="1597.681641"/>
       <use xlink:href="#TimesNewRomanPSMT-4e" x="1669.898438"/>
       <use xlink:href="#TimesNewRomanPSMT-49" x="1742.115234"/>
       <use xlink:href="#TimesNewRomanPSMT-54" x="1775.416016"/>
       <use xlink:href="#TimesNewRomanPSMT-49" x="1836.5"/>
       <use xlink:href="#TimesNewRomanPSMT-53" x="1869.800781"/>
       <use xlink:href="#TimesNewRomanPSMT-20" x="1925.416016"/>
       <use xlink:href="#TimesNewRomanPSMT-28" x="1950.416016"/>
       <use xlink:href="#TimesNewRomanPSMT-53" x="1983.716797"/>
       <use xlink:href="#TimesNewRomanPSMT-42" x="2039.332031"/>
       <use xlink:href="#TimesNewRomanPSMT-50" x="2106.03125"/>
       <use xlink:href="#TimesNewRomanPSMT-29" x="2161.646484"/>
      </g>
     </g>
    </g>
    <g id="ytick_9">
     <g id="line2d_17">
      <g>
       <use xlink:href="#m12561c85b1" x="180" y="400.56" style="stroke: #000000; stroke-width: 0.8"/>
      </g>
     </g>
     <g id="text_18">
      <!-- % AREA -->
      <g transform="translate(135.498437 404.031875) scale(0.1 -0.1)">
       <use xlink:href="#TimesNewRomanPSMT-25"/>
       <use xlink:href="#TimesNewRomanPSMT-20" x="83.300781"/>
       <use xlink:href="#TimesNewRomanPSMT-41" x="102.800781"/>
       <use xlink:href="#TimesNewRomanPSMT-52" x="175.017578"/>
       <use xlink:href="#TimesNewRomanPSMT-45" x="241.716797"/>
       <use xlink:href="#TimesNewRomanPSMT-41" x="302.800781"/>
      </g>
     </g>
    </g>
    <g id="ytick_10">
     <g id="line2d_18">
      <g>
       <use xlink:href="#m12561c85b1" x="180" y="437.52" style="stroke: #000000; stroke-width: 0.8"/>
      </g>
     </g>
     <g id="text_19">
      <!-- MAX PA -->
      <g transform="translate(135.29375 440.991875) scale(0.1 -0.1)">
       <defs>
        <path id="TimesNewRomanPSMT-58" d="M 2613 2347 
L 3522 991 
Q 3900 428 4083 279 
Q 4266 131 4547 116 
L 4547 0 
L 2728 0 
L 2728 116 
Q 2909 119 2997 153 
Q 3063 181 3105 239 
Q 3147 297 3147 356 
Q 3147 428 3119 500 
Q 3097 553 2947 775 
L 2228 1863 
L 1341 725 
Q 1200 544 1172 483 
Q 1144 422 1144 356 
Q 1144 256 1228 190 
Q 1313 125 1550 116 
L 1550 0 
L 47 0 
L 47 116 
Q 206 131 322 181 
Q 516 263 691 400 
Q 866 538 1091 822 
L 2091 2084 
L 1256 3306 
Q 916 3803 678 3958 
Q 441 4113 131 4122 
L 131 4238 
L 2091 4238 
L 2091 4122 
Q 1841 4113 1748 4041 
Q 1656 3969 1656 3881 
Q 1656 3766 1806 3544 
L 2456 2572 
L 3209 3525 
Q 3341 3694 3370 3756 
Q 3400 3819 3400 3884 
Q 3400 3950 3363 4000 
Q 3316 4066 3244 4092 
Q 3172 4119 2947 4122 
L 2947 4238 
L 4450 4238 
L 4450 4122 
Q 4272 4113 4159 4066 
Q 3991 3994 3850 3872 
Q 3709 3750 3453 3422 
L 2613 2347 
z
" transform="scale(0.015625)"/>
       </defs>
       <use xlink:href="#TimesNewRomanPSMT-4d"/>
       <use xlink:href="#TimesNewRomanPSMT-41" x="88.916016"/>
       <use xlink:href="#TimesNewRomanPSMT-58" x="161.132812"/>
       <use xlink:href="#TimesNewRomanPSMT-20" x="233.349609"/>
       <use xlink:href="#TimesNewRomanPSMT-50" x="258.349609"/>
       <use xlink:href="#TimesNewRomanPSMT-41" x="304.839844"/>
      </g>
     </g>
    </g>
    <g id="ytick_11">
     <g id="line2d_19">
      <g>
       <use xlink:href="#m12561c85b1" x="180" y="474.48" style="stroke: #000000; stroke-width: 0.8"/>
      </g>
     </g>
     <g id="text_20">
      <!-- DIASTOLIC BP -->
      <g transform="translate(105.671875 477.951875) scale(0.1 -0.1)">
       <use xlink:href="#TimesNewRomanPSMT-44"/>
       <use xlink:href="#TimesNewRomanPSMT-49" x="72.216797"/>
       <use xlink:href="#TimesNewRomanPSMT-41" x="105.517578"/>
       <use xlink:href="#TimesNewRomanPSMT-53" x="177.734375"/>
       <use xlink:href="#TimesNewRomanPSMT-54" x="233.349609"/>
       <use xlink:href="#TimesNewRomanPSMT-4f" x="292.683594"/>
       <use xlink:href="#TimesNewRomanPSMT-4c" x="364.900391"/>
       <use xlink:href="#TimesNewRomanPSMT-49" x="425.984375"/>
       <use xlink:href="#TimesNewRomanPSMT-43" x="459.285156"/>
       <use xlink:href="#TimesNewRomanPSMT-20" x="525.984375"/>
       <use xlink:href="#TimesNewRomanPSMT-42" x="550.984375"/>
       <use xlink:href="#TimesNewRomanPSMT-50" x="617.683594"/>
      </g>
     </g>
    </g>
    <g id="ytick_12">
     <g id="line2d_20">
      <g>
       <use xlink:href="#m12561c85b1" x="180" y="511.44" style="stroke: #000000; stroke-width: 0.8"/>
      </g>
     </g>
     <g id="text_21">
      <!-- TEMPERATURE -->
      <g transform="translate(101.335938 514.911875) scale(0.1 -0.1)">
       <use xlink:href="#TimesNewRomanPSMT-54"/>
       <use xlink:href="#TimesNewRomanPSMT-45" x="61.083984"/>
       <use xlink:href="#TimesNewRomanPSMT-4d" x="122.167969"/>
       <use xlink:href="#TimesNewRomanPSMT-50" x="211.083984"/>
       <use xlink:href="#TimesNewRomanPSMT-45" x="266.699219"/>
       <use xlink:href="#TimesNewRomanPSMT-52" x="327.783203"/>
       <use xlink:href="#TimesNewRomanPSMT-41" x="394.482422"/>
       <use xlink:href="#TimesNewRomanPSMT-54" x="455.574219"/>
       <use xlink:href="#TimesNewRomanPSMT-55" x="516.658203"/>
       <use xlink:href="#TimesNewRomanPSMT-52" x="588.875"/>
       <use xlink:href="#TimesNewRomanPSMT-45" x="655.574219"/>
      </g>
     </g>
    </g>
    <g id="ytick_13">
     <g id="line2d_21">
      <g>
       <use xlink:href="#m12561c85b1" x="180" y="548.4" style="stroke: #000000; stroke-width: 0.8"/>
      </g>
     </g>
     <g id="text_22">
      <!-- LACTATE -->
      <g transform="translate(129.367188 551.871875) scale(0.1 -0.1)">
       <use xlink:href="#TimesNewRomanPSMT-4c"/>
       <use xlink:href="#TimesNewRomanPSMT-41" x="61.083984"/>
       <use xlink:href="#TimesNewRomanPSMT-43" x="133.300781"/>
       <use xlink:href="#TimesNewRomanPSMT-54" x="200"/>
       <use xlink:href="#TimesNewRomanPSMT-41" x="253.083984"/>
       <use xlink:href="#TimesNewRomanPSMT-54" x="314.175781"/>
       <use xlink:href="#TimesNewRomanPSMT-45" x="375.259766"/>
      </g>
     </g>
    </g>
    <g id="ytick_14">
     <g id="line2d_22">
      <g>
       <use xlink:href="#m12561c85b1" x="180" y="585.36" style="stroke: #000000; stroke-width: 0.8"/>
      </g>
     </g>
     <g id="text_23">
      <!-- RETURN TO SPORT -->
      <g transform="translate(84.498437 588.831875) scale(0.1 -0.1)">
       <use xlink:href="#TimesNewRomanPSMT-52"/>
       <use xlink:href="#TimesNewRomanPSMT-45" x="66.699219"/>
       <use xlink:href="#TimesNewRomanPSMT-54" x="127.783203"/>
       <use xlink:href="#TimesNewRomanPSMT-55" x="188.867188"/>
       <use xlink:href="#TimesNewRomanPSMT-52" x="261.083984"/>
       <use xlink:href="#TimesNewRomanPSMT-4e" x="327.783203"/>
       <use xlink:href="#TimesNewRomanPSMT-20" x="400"/>
       <use xlink:href="#TimesNewRomanPSMT-54" x="423.25"/>
       <use xlink:href="#TimesNewRomanPSMT-4f" x="482.583984"/>
       <use xlink:href="#TimesNewRomanPSMT-20" x="554.800781"/>
       <use xlink:href="#TimesNewRomanPSMT-53" x="579.800781"/>
       <use xlink:href="#TimesNewRomanPSMT-50" x="635.416016"/>
       <use xlink:href="#TimesNewRomanPSMT-4f" x="691.03125"/>
       <use xlink:href="#TimesNewRomanPSMT-52" x="763.248047"/>
       <use xlink:href="#TimesNewRomanPSMT-54" x="823.947266"/>
      </g>
     </g>
    </g>
    <g id="ytick_15">
     <g id="line2d_23">
      <g>
       <use xlink:href="#m12561c85b1" x="180" y="622.32" style="stroke: #000000; stroke-width: 0.8"/>
      </g>
     </g>
     <g id="text_24">
      <!-- PORE DIAMETER (UM) -->
      <g transform="translate(68.00625 625.791875) scale(0.1 -0.1)">
       <use xlink:href="#TimesNewRomanPSMT-50"/>
       <use xlink:href="#TimesNewRomanPSMT-4f" x="55.615234"/>
       <use xlink:href="#TimesNewRomanPSMT-52" x="127.832031"/>
       <use xlink:href="#TimesNewRomanPSMT-45" x="194.53125"/>
       <use xlink:href="#TimesNewRomanPSMT-20" x="255.615234"/>
       <use xlink:href="#TimesNewRomanPSMT-44" x="280.615234"/>
       <use xlink:href="#TimesNewRomanPSMT-49" x="352.832031"/>
       <use xlink:href="#TimesNewRomanPSMT-41" x="386.132812"/>
       <use xlink:href="#TimesNewRomanPSMT-4d" x="458.349609"/>
       <use xlink:href="#TimesNewRomanPSMT-45" x="547.265625"/>
       <use xlink:href="#TimesNewRomanPSMT-54" x="608.349609"/>
       <use xlink:href="#TimesNewRomanPSMT-45" x="669.433594"/>
       <use xlink:href="#TimesNewRomanPSMT-52" x="730.517578"/>
       <use xlink:href="#TimesNewRomanPSMT-20" x="797.216797"/>
       <use xlink:href="#TimesNewRomanPSMT-28" x="822.216797"/>
       <use xlink:href="#TimesNewRomanPSMT-55" x="855.517578"/>
       <use xlink:href="#TimesNewRomanPSMT-4d" x="927.734375"/>
       <use xlink:href="#TimesNewRomanPSMT-29" x="1016.650391"/>
      </g>
     </g>
    </g>
    <g id="text_25">
     <!-- Feature Name -->
     <g transform="translate(-52.626563 391.782031) rotate(-90) scale(0.1 -0.1)">
      <use xlink:href="#TimesNewRomanPSMT-46"/>
      <use xlink:href="#TimesNewRomanPSMT-65" x="55.615234"/>
      <use xlink:href="#TimesNewRomanPSMT-61" x="100"/>
      <use xlink:href="#TimesNewRomanPSMT-74" x="144.384766"/>
      <use xlink:href="#TimesNewRomanPSMT-75" x="172.167969"/>
      <use xlink:href="#TimesNewRomanPSMT-72" x="222.167969"/>
      <use xlink:href="#TimesNewRomanPSMT-65" x="255.46875"/>
      <use xlink:href="#TimesNewRomanPSMT-20" x="299.853516"/>
      <use xlink:href="#TimesNewRomanPSMT-4e" x="324.853516"/>
      <use xlink:href="#TimesNewRomanPSMT-61" x="397.070312"/>
      <use xlink:href="#TimesNewRomanPSMT-6d" x="441.455078"/>
      <use xlink:href="#TimesNewRomanPSMT-65" x="519.238281"/>
     </g>
    </g>
   </g>
   <g id="line2d_24">
    <path clip-path="url(#p51e9f98ae2)" style="fill: none; stroke: #424242; stroke-width: 2.7; stroke-linecap: square"/>
   </g>
   <g id="line2d_25">
    <path clip-path="url(#p51e9f98ae2)" style="fill: none; stroke: #424242; stroke-width: 2.7; stroke-linecap: square"/>
   </g>
   <g id="line2d_26">
    <path clip-path="url(#p51e9f98ae2)" style="fill: none; stroke: #424242; stroke-width: 2.7; stroke-linecap: square"/>
   </g>
   <g id="line2d_27">
    <path clip-path="url(#p51e9f98ae2)" style="fill: none; stroke: #424242; stroke-width: 2.7; stroke-linecap: square"/>
   </g>
   <g id="line2d_28">
    <path clip-path="url(#p51e9f98ae2)" style="fill: none; stroke: #424242; stroke-width: 2.7; stroke-linecap: square"/>
   </g>
   <g id="line2d_29">
    <path clip-path="url(#p51e9f98ae2)" style="fill: none; stroke: #424242; stroke-width: 2.7; stroke-linecap: square"/>
   </g>
   <g id="line2d_30">
    <path clip-path="url(#p51e9f98ae2)" style="fill: none; stroke: #424242; stroke-width: 2.7; stroke-linecap: square"/>
   </g>
   <g id="line2d_31">
    <path clip-path="url(#p51e9f98ae2)" style="fill: none; stroke: #424242; stroke-width: 2.7; stroke-linecap: square"/>
   </g>
   <g id="line2d_32">
    <path clip-path="url(#p51e9f98ae2)" style="fill: none; stroke: #424242; stroke-width: 2.7; stroke-linecap: square"/>
   </g>
   <g id="line2d_33">
    <path clip-path="url(#p51e9f98ae2)" style="fill: none; stroke: #424242; stroke-width: 2.7; stroke-linecap: square"/>
   </g>
   <g id="line2d_34">
    <path clip-path="url(#p51e9f98ae2)" style="fill: none; stroke: #424242; stroke-width: 2.7; stroke-linecap: square"/>
   </g>
   <g id="line2d_35">
    <path clip-path="url(#p51e9f98ae2)" style="fill: none; stroke: #424242; stroke-width: 2.7; stroke-linecap: square"/>
   </g>
   <g id="line2d_36">
    <path clip-path="url(#p51e9f98ae2)" style="fill: none; stroke: #424242; stroke-width: 2.7; stroke-linecap: square"/>
   </g>
   <g id="line2d_37">
    <path clip-path="url(#p51e9f98ae2)" style="fill: none; stroke: #424242; stroke-width: 2.7; stroke-linecap: square"/>
   </g>
   <g id="line2d_38">
    <path clip-path="url(#p51e9f98ae2)" style="fill: none; stroke: #424242; stroke-width: 2.7; stroke-linecap: square"/>
   </g>
   <g id="patch_18">
    <path d="M 180 640.8 
L 180 86.4 
" style="fill: none; stroke: #000000; stroke-width: 0.8; stroke-linejoin: miter; stroke-linecap: square"/>
   </g>
   <g id="patch_19">
    <path d="M 1296 640.8 
L 1296 86.4 
" style="fill: none; stroke: #000000; stroke-width: 0.8; stroke-linejoin: miter; stroke-linecap: square"/>
   </g>
   <g id="patch_20">
    <path d="M 180 640.8 
L 1296 640.8 
" style="fill: none; stroke: #000000; stroke-width: 0.8; stroke-linejoin: miter; stroke-linecap: square"/>
   </g>
   <g id="patch_21">
    <path d="M 180 86.4 
L 1296 86.4 
" style="fill: none; stroke: #000000; stroke-width: 0.8; stroke-linejoin: miter; stroke-linecap: square"/>
   </g>
   <g id="text_26">
    <!-- Top 15 Features for Diagnosing Mortality -->
    <g transform="translate(637.603125 80.4) scale(0.12 -0.12)">
     <defs>
      <path id="TimesNewRomanPSMT-35" d="M 2778 4238 
L 2534 3706 
L 1259 3706 
L 981 3138 
Q 1809 3016 2294 2522 
Q 2709 2097 2709 1522 
Q 2709 1188 2573 903 
Q 2438 619 2231 419 
Q 2025 219 1772 97 
Q 1413 -75 1034 -75 
Q 653 -75 479 54 
Q 306 184 306 341 
Q 306 428 378 495 
Q 450 563 559 563 
Q 641 563 702 538 
Q 763 513 909 409 
Q 1144 247 1384 247 
Q 1750 247 2026 523 
Q 2303 800 2303 1197 
Q 2303 1581 2056 1914 
Q 1809 2247 1375 2428 
Q 1034 2569 447 2591 
L 1259 4238 
L 2778 4238 
z
" transform="scale(0.015625)"/>
      <path id="TimesNewRomanPSMT-73" d="M 2050 2947 
L 2050 1972 
L 1947 1972 
Q 1828 2431 1642 2597 
Q 1456 2763 1169 2763 
Q 950 2763 815 2647 
Q 681 2531 681 2391 
Q 681 2216 781 2091 
Q 878 1963 1175 1819 
L 1631 1597 
Q 2266 1288 2266 781 
Q 2266 391 1970 151 
Q 1675 -88 1309 -88 
Q 1047 -88 709 6 
Q 606 38 541 38 
Q 469 38 428 -44 
L 325 -44 
L 325 978 
L 428 978 
Q 516 541 762 319 
Q 1009 97 1316 97 
Q 1531 97 1667 223 
Q 1803 350 1803 528 
Q 1803 744 1651 891 
Q 1500 1038 1047 1263 
Q 594 1488 453 1669 
Q 313 1847 313 2119 
Q 313 2472 555 2709 
Q 797 2947 1181 2947 
Q 1350 2947 1591 2875 
Q 1750 2828 1803 2828 
Q 1853 2828 1881 2850 
Q 1909 2872 1947 2947 
L 2050 2947 
z
" transform="scale(0.015625)"/>
      <path id="TimesNewRomanPSMT-66" d="M 1319 2638 
L 1319 756 
Q 1319 356 1406 250 
Q 1522 113 1716 113 
L 1975 113 
L 1975 0 
L 266 0 
L 266 113 
L 394 113 
Q 519 113 622 175 
Q 725 238 764 344 
Q 803 450 803 756 
L 803 2638 
L 247 2638 
L 247 2863 
L 803 2863 
L 803 3050 
Q 803 3478 940 3775 
Q 1078 4072 1361 4255 
Q 1644 4438 1997 4438 
Q 2325 4438 2600 4225 
Q 2781 4084 2781 3909 
Q 2781 3816 2700 3733 
Q 2619 3650 2525 3650 
Q 2453 3650 2373 3701 
Q 2294 3753 2178 3923 
Q 2063 4094 1966 4153 
Q 1869 4213 1750 4213 
Q 1606 4213 1506 4136 
Q 1406 4059 1362 3898 
Q 1319 3738 1319 3069 
L 1319 2863 
L 2056 2863 
L 2056 2638 
L 1319 2638 
z
" transform="scale(0.015625)"/>
      <path id="TimesNewRomanPSMT-69" d="M 928 4444 
Q 1059 4444 1151 4351 
Q 1244 4259 1244 4128 
Q 1244 3997 1151 3903 
Q 1059 3809 928 3809 
Q 797 3809 703 3903 
Q 609 3997 609 4128 
Q 609 4259 701 4351 
Q 794 4444 928 4444 
z
M 1188 2947 
L 1188 647 
Q 1188 378 1227 289 
Q 1266 200 1342 156 
Q 1419 113 1622 113 
L 1622 0 
L 231 0 
L 231 113 
Q 441 113 512 153 
Q 584 194 626 287 
Q 669 381 669 647 
L 669 1750 
Q 669 2216 641 2353 
Q 619 2453 572 2492 
Q 525 2531 444 2531 
Q 356 2531 231 2484 
L 188 2597 
L 1050 2947 
L 1188 2947 
z
" transform="scale(0.015625)"/>
      <path id="TimesNewRomanPSMT-67" d="M 966 1044 
Q 703 1172 562 1401 
Q 422 1631 422 1909 
Q 422 2334 742 2640 
Q 1063 2947 1563 2947 
Q 1972 2947 2272 2747 
L 2878 2747 
Q 3013 2747 3034 2739 
Q 3056 2731 3066 2713 
Q 3084 2684 3084 2613 
Q 3084 2531 3069 2500 
Q 3059 2484 3036 2475 
Q 3013 2466 2878 2466 
L 2506 2466 
Q 2681 2241 2681 1891 
Q 2681 1491 2375 1206 
Q 2069 922 1553 922 
Q 1341 922 1119 984 
Q 981 866 932 777 
Q 884 688 884 625 
Q 884 572 936 522 
Q 988 472 1138 450 
Q 1225 438 1575 428 
Q 2219 413 2409 384 
Q 2700 344 2873 169 
Q 3047 -6 3047 -263 
Q 3047 -616 2716 -925 
Q 2228 -1381 1444 -1381 
Q 841 -1381 425 -1109 
Q 191 -953 191 -784 
Q 191 -709 225 -634 
Q 278 -519 444 -313 
Q 466 -284 763 25 
Q 600 122 533 198 
Q 466 275 466 372 
Q 466 481 555 628 
Q 644 775 966 1044 
z
M 1509 2797 
Q 1278 2797 1122 2612 
Q 966 2428 966 2047 
Q 966 1553 1178 1281 
Q 1341 1075 1591 1075 
Q 1828 1075 1981 1253 
Q 2134 1431 2134 1813 
Q 2134 2309 1919 2591 
Q 1759 2797 1509 2797 
z
M 934 0 
Q 788 -159 713 -296 
Q 638 -434 638 -550 
Q 638 -700 819 -813 
Q 1131 -1006 1722 -1006 
Q 2284 -1006 2551 -807 
Q 2819 -609 2819 -384 
Q 2819 -222 2659 -153 
Q 2497 -84 2016 -72 
Q 1313 -53 934 0 
z
" transform="scale(0.015625)"/>
      <path id="TimesNewRomanPSMT-6c" d="M 1184 4444 
L 1184 647 
Q 1184 378 1223 290 
Q 1263 203 1344 158 
Q 1425 113 1647 113 
L 1647 0 
L 244 0 
L 244 113 
Q 441 113 512 153 
Q 584 194 625 287 
Q 666 381 666 647 
L 666 3247 
Q 666 3731 644 3842 
Q 622 3953 573 3993 
Q 525 4034 450 4034 
Q 369 4034 244 3984 
L 191 4094 
L 1044 4444 
L 1184 4444 
z
" transform="scale(0.015625)"/>
      <path id="TimesNewRomanPSMT-79" d="M 38 2863 
L 1372 2863 
L 1372 2747 
L 1306 2747 
Q 1166 2747 1095 2686 
Q 1025 2625 1025 2534 
Q 1025 2413 1128 2197 
L 1825 753 
L 2466 2334 
Q 2519 2463 2519 2588 
Q 2519 2644 2497 2672 
Q 2472 2706 2419 2726 
Q 2366 2747 2231 2747 
L 2231 2863 
L 3163 2863 
L 3163 2747 
Q 3047 2734 2984 2696 
Q 2922 2659 2847 2556 
Q 2819 2513 2741 2316 
L 1575 -541 
Q 1406 -956 1132 -1168 
Q 859 -1381 606 -1381 
Q 422 -1381 303 -1275 
Q 184 -1169 184 -1031 
Q 184 -900 270 -820 
Q 356 -741 506 -741 
Q 609 -741 788 -809 
Q 913 -856 944 -856 
Q 1038 -856 1148 -759 
Q 1259 -663 1372 -384 
L 1575 113 
L 547 2272 
Q 500 2369 397 2513 
Q 319 2622 269 2659 
Q 197 2709 38 2747 
L 38 2863 
z
" transform="scale(0.015625)"/>
     </defs>
     <use xlink:href="#TimesNewRomanPSMT-54"/>
     <use xlink:href="#TimesNewRomanPSMT-6f" x="54.083984"/>
     <use xlink:href="#TimesNewRomanPSMT-70" x="104.083984"/>
     <use xlink:href="#TimesNewRomanPSMT-20" x="154.083984"/>
     <use xlink:href="#TimesNewRomanPSMT-31" x="179.083984"/>
     <use xlink:href="#TimesNewRomanPSMT-35" x="229.083984"/>
     <use xlink:href="#TimesNewRomanPSMT-20" x="279.083984"/>
     <use xlink:href="#TimesNewRomanPSMT-46" x="304.083984"/>
     <use xlink:href="#TimesNewRomanPSMT-65" x="359.699219"/>
     <use xlink:href="#TimesNewRomanPSMT-61" x="404.083984"/>
     <use xlink:href="#TimesNewRomanPSMT-74" x="448.46875"/>
     <use xlink:href="#TimesNewRomanPSMT-75" x="476.251953"/>
     <use xlink:href="#TimesNewRomanPSMT-72" x="526.251953"/>
     <use xlink:href="#TimesNewRomanPSMT-65" x="559.552734"/>
     <use xlink:href="#TimesNewRomanPSMT-73" x="603.9375"/>
     <use xlink:href="#TimesNewRomanPSMT-20" x="642.853516"/>
     <use xlink:href="#TimesNewRomanPSMT-66" x="667.853516"/>
     <use xlink:href="#TimesNewRomanPSMT-6f" x="701.154297"/>
     <use xlink:href="#TimesNewRomanPSMT-72" x="751.154297"/>
     <use xlink:href="#TimesNewRomanPSMT-20" x="784.455078"/>
     <use xlink:href="#TimesNewRomanPSMT-44" x="809.455078"/>
     <use xlink:href="#TimesNewRomanPSMT-69" x="881.671875"/>
     <use xlink:href="#TimesNewRomanPSMT-61" x="909.455078"/>
     <use xlink:href="#TimesNewRomanPSMT-67" x="953.839844"/>
     <use xlink:href="#TimesNewRomanPSMT-6e" x="1003.839844"/>
     <use xlink:href="#TimesNewRomanPSMT-6f" x="1053.839844"/>
     <use xlink:href="#TimesNewRomanPSMT-73" x="1103.839844"/>
     <use xlink:href="#TimesNewRomanPSMT-69" x="1142.755859"/>
     <use xlink:href="#TimesNewRomanPSMT-6e" x="1170.539062"/>
     <use xlink:href="#TimesNewRomanPSMT-67" x="1220.539062"/>
     <use xlink:href="#TimesNewRomanPSMT-20" x="1270.539062"/>
     <use xlink:href="#TimesNewRomanPSMT-4d" x="1295.539062"/>
     <use xlink:href="#TimesNewRomanPSMT-6f" x="1384.455078"/>
     <use xlink:href="#TimesNewRomanPSMT-72" x="1434.455078"/>
     <use xlink:href="#TimesNewRomanPSMT-74" x="1467.755859"/>
     <use xlink:href="#TimesNewRomanPSMT-61" x="1495.539062"/>
     <use xlink:href="#TimesNewRomanPSMT-6c" x="1539.923828"/>
     <use xlink:href="#TimesNewRomanPSMT-69" x="1567.707031"/>
     <use xlink:href="#TimesNewRomanPSMT-74" x="1595.490234"/>
     <use xlink:href="#TimesNewRomanPSMT-79" x="1623.273438"/>
    </g>
   </g>
  </g>
 </g>
 <defs>
  <clipPath id="p51e9f98ae2">
   <rect x="180" y="86.4" width="1116" height="554.4"/>
  </clipPath>
 </defs>
</svg>
