<?xml version="1.0" encoding="utf-8" standalone="no"?>
<!DOCTYPE svg PUBLIC "-//W3C//DTD SVG 1.1//EN"
  "http://www.w3.org/Graphics/SVG/1.1/DTD/svg11.dtd">
<svg xmlns:xlink="http://www.w3.org/1999/xlink" width="576pt" height="432pt" viewBox="0 0 576 432" xmlns="http://www.w3.org/2000/svg" version="1.1">
 <metadata>
  <rdf:RDF xmlns:dc="http://purl.org/dc/elements/1.1/" xmlns:cc="http://creativecommons.org/ns#" xmlns:rdf="http://www.w3.org/1999/02/22-rdf-syntax-ns#">
   <cc:Work>
    <dc:type rdf:resource="http://purl.org/dc/dcmitype/StillImage"/>
    <dc:date>2023-11-06T21:01:25.906140</dc:date>
    <dc:format>image/svg+xml</dc:format>
    <dc:creator>
     <cc:Agent>
      <dc:title>Matplotlib v3.7.2, https://matplotlib.org/</dc:title>
     </cc:Agent>
    </dc:creator>
   </cc:Work>
  </rdf:RDF>
 </metadata>
 <defs>
  <style type="text/css">*{stroke-linejoin: round; stroke-linecap: butt}</style>
 </defs>
 <g id="figure_1">
  <g id="patch_1">
   <path d="M 0 432 
L 576 432 
L 576 0 
L 0 0 
z
" style="fill: #ffffff"/>
  </g>
  <g id="axes_1">
   <g id="patch_2">
    <path d="M 72 384.48 
L 518.4 384.48 
L 518.4 51.84 
L 72 51.84 
z
" style="fill: #ffffff"/>
   </g>
   <g id="PolyCollection_1">
    <defs>
     <path id="m48ad1112af" d="M 125.333357 -49.290606 
L 125.333357 -47.52 
L 126.636386 -47.52 
L 127.939415 -47.52 
L 129.242444 -47.52 
L 130.545473 -47.52 
L 131.848502 -47.52 
L 133.151531 -47.52 
L 134.45456 -47.52 
L 135.757589 -47.52 
L 137.060618 -47.52 
L 138.363647 -47.52 
L 139.666676 -47.52 
L 140.969705 -47.52 
L 142.272733 -47.52 
L 143.575762 -47.52 
L 144.878791 -47.52 
L 146.18182 -47.52 
L 147.484849 -47.52 
L 148.787878 -47.52 
L 150.090907 -47.52 
L 151.393936 -47.52 
L 152.696965 -47.52 
L 153.999994 -47.52 
L 155.303023 -47.52 
L 156.606052 -47.52 
L 157.909081 -47.52 
L 159.21211 -47.52 
L 160.515139 -47.52 
L 161.818168 -47.52 
L 163.121197 -47.52 
L 164.424226 -47.52 
L 165.727254 -47.52 
L 167.030283 -47.52 
L 168.333312 -47.52 
L 169.636341 -47.52 
L 170.93937 -47.52 
L 172.242399 -47.52 
L 173.545428 -47.52 
L 174.848457 -47.52 
L 176.151486 -47.52 
L 177.454515 -47.52 
L 178.757544 -47.52 
L 180.060573 -47.52 
L 181.363602 -47.52 
L 182.666631 -47.52 
L 183.96966 -47.52 
L 185.272689 -47.52 
L 186.575718 -47.52 
L 187.878747 -47.52 
L 189.181776 -47.52 
L 190.484804 -47.52 
L 191.787833 -47.52 
L 193.090862 -47.52 
L 194.393891 -47.52 
L 195.69692 -47.52 
L 196.999949 -47.52 
L 198.302978 -47.52 
L 199.606007 -47.52 
L 200.909036 -47.52 
L 202.212065 -47.52 
L 203.515094 -47.52 
L 204.818123 -47.52 
L 206.121152 -47.52 
L 207.424181 -47.52 
L 208.72721 -47.52 
L 210.030239 -47.52 
L 211.333268 -47.52 
L 212.636297 -47.52 
L 213.939326 -47.52 
L 215.242354 -47.52 
L 216.545383 -47.52 
L 217.848412 -47.52 
L 219.151441 -47.52 
L 220.45447 -47.52 
L 221.757499 -47.52 
L 223.060528 -47.52 
L 224.363557 -47.52 
L 225.666586 -47.52 
L 226.969615 -47.52 
L 228.272644 -47.52 
L 229.575673 -47.52 
L 230.878702 -47.52 
L 232.181731 -47.52 
L 233.48476 -47.52 
L 234.787789 -47.52 
L 236.090818 -47.52 
L 237.393847 -47.52 
L 238.696875 -47.52 
L 239.999904 -47.52 
L 241.302933 -47.52 
L 242.605962 -47.52 
L 243.908991 -47.52 
L 245.21202 -47.52 
L 246.515049 -47.52 
L 247.818078 -47.52 
L 249.121107 -47.52 
L 250.424136 -47.52 
L 251.727165 -47.52 
L 253.030194 -47.52 
L 254.333223 -47.52 
L 255.636252 -47.52 
L 256.939281 -47.52 
L 258.24231 -47.52 
L 259.545339 -47.52 
L 260.848368 -47.52 
L 262.151397 -47.52 
L 263.454425 -47.52 
L 264.757454 -47.52 
L 266.060483 -47.52 
L 267.363512 -47.52 
L 268.666541 -47.52 
L 269.96957 -47.52 
L 271.272599 -47.52 
L 272.575628 -47.52 
L 273.878657 -47.52 
L 275.181686 -47.52 
L 276.484715 -47.52 
L 277.787744 -47.52 
L 279.090773 -47.52 
L 280.393802 -47.52 
L 281.696831 -47.52 
L 282.99986 -47.52 
L 284.302889 -47.52 
L 285.605918 -47.52 
L 286.908947 -47.52 
L 288.211975 -47.52 
L 289.515004 -47.52 
L 290.818033 -47.52 
L 292.121062 -47.52 
L 293.424091 -47.52 
L 294.72712 -47.52 
L 296.030149 -47.52 
L 297.333178 -47.52 
L 298.636207 -47.52 
L 299.939236 -47.52 
L 301.242265 -47.52 
L 302.545294 -47.52 
L 303.848323 -47.52 
L 305.151352 -47.52 
L 306.454381 -47.52 
L 307.75741 -47.52 
L 309.060439 -47.52 
L 310.363468 -47.52 
L 311.666496 -47.52 
L 312.969525 -47.52 
L 314.272554 -47.52 
L 315.575583 -47.52 
L 316.878612 -47.52 
L 318.181641 -47.52 
L 319.48467 -47.52 
L 320.787699 -47.52 
L 322.090728 -47.52 
L 323.393757 -47.52 
L 324.696786 -47.52 
L 325.999815 -47.52 
L 327.302844 -47.52 
L 328.605873 -47.52 
L 329.908902 -47.52 
L 331.211931 -47.52 
L 332.51496 -47.52 
L 333.817989 -47.52 
L 335.121018 -47.52 
L 336.424046 -47.52 
L 337.727075 -47.52 
L 339.030104 -47.52 
L 340.333133 -47.52 
L 341.636162 -47.52 
L 342.939191 -47.52 
L 344.24222 -47.52 
L 345.545249 -47.52 
L 346.848278 -47.52 
L 348.151307 -47.52 
L 349.454336 -47.52 
L 350.757365 -47.52 
L 352.060394 -47.52 
L 353.363423 -47.52 
L 354.666452 -47.52 
L 355.969481 -47.52 
L 357.27251 -47.52 
L 358.575539 -47.52 
L 359.878568 -47.52 
L 361.181596 -47.52 
L 362.484625 -47.52 
L 363.787654 -47.52 
L 365.090683 -47.52 
L 366.393712 -47.52 
L 367.696741 -47.52 
L 368.99977 -47.52 
L 370.302799 -47.52 
L 371.605828 -47.52 
L 372.908857 -47.52 
L 374.211886 -47.52 
L 375.514915 -47.52 
L 376.817944 -47.52 
L 378.120973 -47.52 
L 379.424002 -47.52 
L 380.727031 -47.52 
L 382.03006 -47.52 
L 383.333089 -47.52 
L 384.636117 -47.52 
L 384.636117 -47.632959 
L 384.636117 -47.632959 
L 383.333089 -47.66396 
L 382.03006 -47.702241 
L 380.727031 -47.749157 
L 379.424002 -47.806222 
L 378.120973 -47.875104 
L 376.817944 -47.957615 
L 375.514915 -48.055686 
L 374.211886 -48.171347 
L 372.908857 -48.306678 
L 371.605828 -48.463767 
L 370.302799 -48.644645 
L 368.99977 -48.851217 
L 367.696741 -49.085184 
L 366.393712 -49.347954 
L 365.090683 -49.640548 
L 363.787654 -49.96351 
L 362.484625 -50.316814 
L 361.181596 -50.699775 
L 359.878568 -51.11098 
L 358.575539 -51.548222 
L 357.27251 -52.008468 
L 355.969481 -52.487838 
L 354.666452 -52.981626 
L 353.363423 -53.484341 
L 352.060394 -53.989787 
L 350.757365 -54.491172 
L 349.454336 -54.981252 
L 348.151307 -55.452499 
L 346.848278 -55.897295 
L 345.545249 -56.308146 
L 344.24222 -56.677897 
L 342.939191 -56.999961 
L 341.636162 -57.268531 
L 340.333133 -57.478787 
L 339.030104 -57.627067 
L 337.727075 -57.71102 
L 336.424046 -57.729715 
L 335.121018 -57.683707 
L 333.817989 -57.575071 
L 332.51496 -57.407375 
L 331.211931 -57.185627 
L 329.908902 -56.916166 
L 328.605873 -56.606533 
L 327.302844 -56.2653 
L 325.999815 -55.901887 
L 324.696786 -55.526353 
L 323.393757 -55.149187 
L 322.090728 -54.781092 
L 320.787699 -54.432776 
L 319.48467 -54.114744 
L 318.181641 -53.837111 
L 316.878612 -53.609422 
L 315.575583 -53.440487 
L 314.272554 -53.338239 
L 312.969525 -53.309597 
L 311.666496 -53.360347 
L 310.363468 -53.495041 
L 309.060439 -53.7169 
L 307.75741 -54.027744 
L 306.454381 -54.427922 
L 305.151352 -54.916269 
L 303.848323 -55.49008 
L 302.545294 -56.145107 
L 301.242265 -56.875581 
L 299.939236 -57.674268 
L 298.636207 -58.532558 
L 297.333178 -59.44059 
L 296.030149 -60.387421 
L 294.72712 -61.361226 
L 293.424091 -62.34954 
L 292.121062 -63.339528 
L 290.818033 -64.318287 
L 289.515004 -65.273155 
L 288.211975 -66.192038 
L 286.908947 -67.063721 
L 285.605918 -67.878172 
L 284.302889 -68.626807 
L 282.99986 -69.302722 
L 281.696831 -69.90087 
L 280.393802 -70.418179 
L 279.090773 -70.853606 
L 277.787744 -71.208126 
L 276.484715 -71.484653 
L 275.181686 -71.687899 
L 273.878657 -71.824187 
L 272.575628 -71.901213 
L 271.272599 -71.927777 
L 269.96957 -71.913505 
L 268.666541 -71.868559 
L 267.363512 -71.803362 
L 266.060483 -71.728352 
L 264.757454 -71.653764 
L 263.454425 -71.589459 
L 262.151397 -71.544811 
L 260.848368 -71.528636 
L 259.545339 -71.54918 
L 258.24231 -71.614165 
L 256.939281 -71.730864 
L 255.636252 -71.906228 
L 254.333223 -72.14703 
L 253.030194 -72.460031 
L 251.727165 -72.852149 
L 250.424136 -73.330618 
L 249.121107 -73.90314 
L 247.818078 -74.578004 
L 246.515049 -75.364173 
L 245.21202 -76.271342 
L 243.908991 -77.309943 
L 242.605962 -78.491119 
L 241.302933 -79.826657 
L 239.999904 -81.328885 
L 238.696875 -83.010541 
L 237.393847 -84.884623 
L 236.090818 -86.964222 
L 234.787789 -89.262363 
L 233.48476 -91.791841 
L 232.181731 -94.56508 
L 230.878702 -97.594016 
L 229.575673 -100.890009 
L 228.272644 -104.463786 
L 226.969615 -108.325417 
L 225.666586 -112.484328 
L 224.363557 -116.949329 
L 223.060528 -121.728662 
L 221.757499 -126.830044 
L 220.45447 -132.260701 
L 219.151441 -138.027355 
L 217.848412 -144.136174 
L 216.545383 -150.592628 
L 215.242354 -157.401266 
L 213.939326 -164.56538 
L 212.636297 -172.08655 
L 211.333268 -179.964057 
L 210.030239 -188.194182 
L 208.72721 -196.769382 
L 207.424181 -205.677371 
L 206.121152 -214.900134 
L 204.818123 -224.412904 
L 203.515094 -234.183159 
L 202.212065 -244.169672 
L 200.909036 -254.321701 
L 199.606007 -264.578349 
L 198.302978 -274.868179 
L 196.999949 -285.109131 
L 195.69692 -295.208799 
L 194.393891 -305.065107 
L 193.090862 -314.567413 
L 191.787833 -323.598057 
L 190.484804 -332.034339 
L 189.181776 -339.750906 
L 187.878747 -346.622488 
L 186.575718 -352.526924 
L 185.272689 -357.348373 
L 183.96966 -360.980611 
L 182.666631 -363.330284 
L 181.363602 -364.32 
L 180.060573 -363.891113 
L 178.757544 -362.006093 
L 177.454515 -358.650352 
L 176.151486 -353.833449 
L 174.848457 -347.589585 
L 173.545428 -339.977362 
L 172.242399 -331.078796 
L 170.93937 -320.99759 
L 169.636341 -309.856747 
L 168.333312 -297.795596 
L 167.030283 -284.966339 
L 165.727254 -271.530258 
L 164.424226 -257.653734 
L 163.121197 -243.504205 
L 161.818168 -229.246244 
L 160.515139 -215.037864 
L 159.21211 -201.027205 
L 157.909081 -187.349679 
L 156.606052 -174.125668 
L 155.303023 -161.458816 
L 153.999994 -149.434937 
L 152.696965 -138.121534 
L 151.393936 -127.567892 
L 150.090907 -117.805698 
L 148.787878 -108.850112 
L 147.484849 -100.701204 
L 146.18182 -93.345677 
L 144.878791 -86.75877 
L 143.575762 -80.906263 
L 142.272733 -75.746497 
L 140.969705 -71.232334 
L 139.666676 -67.313007 
L 138.363647 -63.935795 
L 137.060618 -61.047506 
L 135.757589 -58.595737 
L 134.45456 -56.529912 
L 133.151531 -54.802085 
L 131.848502 -53.367535 
L 130.545473 -52.185163 
L 129.242444 -51.217711 
L 127.939415 -50.431836 
L 126.636386 -49.798057 
L 125.333357 -49.290606 
z
" style="stroke: #87ceeb"/>
    </defs>
    <g clip-path="url(#p753a4b45a7)">
     <use xlink:href="#m48ad1112af" x="0" y="432" style="fill: #87ceeb; fill-opacity: 0.25; stroke: #87ceeb"/>
    </g>
   </g>
   <g id="PolyCollection_2">
    <defs>
     <path id="m04c284d16e" d="M 92.290909 -47.877145 
L 92.290909 -47.52 
L 94.330196 -47.52 
L 96.369484 -47.52 
L 98.408771 -47.52 
L 100.448058 -47.52 
L 102.487346 -47.52 
L 104.526633 -47.52 
L 106.565921 -47.52 
L 108.605208 -47.52 
L 110.644495 -47.52 
L 112.683783 -47.52 
L 114.72307 -47.52 
L 116.762357 -47.52 
L 118.801645 -47.52 
L 120.840932 -47.52 
L 122.880219 -47.52 
L 124.919507 -47.52 
L 126.958794 -47.52 
L 128.998081 -47.52 
L 131.037369 -47.52 
L 133.076656 -47.52 
L 135.115943 -47.52 
L 137.155231 -47.52 
L 139.194518 -47.52 
L 141.233805 -47.52 
L 143.273093 -47.52 
L 145.31238 -47.52 
L 147.351667 -47.52 
L 149.390955 -47.52 
L 151.430242 -47.52 
L 153.469529 -47.52 
L 155.508817 -47.52 
L 157.548104 -47.52 
L 159.587392 -47.52 
L 161.626679 -47.52 
L 163.665966 -47.52 
L 165.705254 -47.52 
L 167.744541 -47.52 
L 169.783828 -47.52 
L 171.823116 -47.52 
L 173.862403 -47.52 
L 175.90169 -47.52 
L 177.940978 -47.52 
L 179.980265 -47.52 
L 182.019552 -47.52 
L 184.05884 -47.52 
L 186.098127 -47.52 
L 188.137414 -47.52 
L 190.176702 -47.52 
L 192.215989 -47.52 
L 194.255276 -47.52 
L 196.294564 -47.52 
L 198.333851 -47.52 
L 200.373138 -47.52 
L 202.412426 -47.52 
L 204.451713 -47.52 
L 206.491 -47.52 
L 208.530288 -47.52 
L 210.569575 -47.52 
L 212.608862 -47.52 
L 214.64815 -47.52 
L 216.687437 -47.52 
L 218.726725 -47.52 
L 220.766012 -47.52 
L 222.805299 -47.52 
L 224.844587 -47.52 
L 226.883874 -47.52 
L 228.923161 -47.52 
L 230.962449 -47.52 
L 233.001736 -47.52 
L 235.041023 -47.52 
L 237.080311 -47.52 
L 239.119598 -47.52 
L 241.158885 -47.52 
L 243.198173 -47.52 
L 245.23746 -47.52 
L 247.276747 -47.52 
L 249.316035 -47.52 
L 251.355322 -47.52 
L 253.394609 -47.52 
L 255.433897 -47.52 
L 257.473184 -47.52 
L 259.512471 -47.52 
L 261.551759 -47.52 
L 263.591046 -47.52 
L 265.630333 -47.52 
L 267.669621 -47.52 
L 269.708908 -47.52 
L 271.748196 -47.52 
L 273.787483 -47.52 
L 275.82677 -47.52 
L 277.866058 -47.52 
L 279.905345 -47.52 
L 281.944632 -47.52 
L 283.98392 -47.52 
L 286.023207 -47.52 
L 288.062494 -47.52 
L 290.101782 -47.52 
L 292.141069 -47.52 
L 294.180356 -47.52 
L 296.219644 -47.52 
L 298.258931 -47.52 
L 300.298218 -47.52 
L 302.337506 -47.52 
L 304.376793 -47.52 
L 306.41608 -47.52 
L 308.455368 -47.52 
L 310.494655 -47.52 
L 312.533942 -47.52 
L 314.57323 -47.52 
L 316.612517 -47.52 
L 318.651804 -47.52 
L 320.691092 -47.52 
L 322.730379 -47.52 
L 324.769667 -47.52 
L 326.808954 -47.52 
L 328.848241 -47.52 
L 330.887529 -47.52 
L 332.926816 -47.52 
L 334.966103 -47.52 
L 337.005391 -47.52 
L 339.044678 -47.52 
L 341.083965 -47.52 
L 343.123253 -47.52 
L 345.16254 -47.52 
L 347.201827 -47.52 
L 349.241115 -47.52 
L 351.280402 -47.52 
L 353.319689 -47.52 
L 355.358977 -47.52 
L 357.398264 -47.52 
L 359.437551 -47.52 
L 361.476839 -47.52 
L 363.516126 -47.52 
L 365.555413 -47.52 
L 367.594701 -47.52 
L 369.633988 -47.52 
L 371.673275 -47.52 
L 373.712563 -47.52 
L 375.75185 -47.52 
L 377.791138 -47.52 
L 379.830425 -47.52 
L 381.869712 -47.52 
L 383.909 -47.52 
L 385.948287 -47.52 
L 387.987574 -47.52 
L 390.026862 -47.52 
L 392.066149 -47.52 
L 394.105436 -47.52 
L 396.144724 -47.52 
L 398.184011 -47.52 
L 400.223298 -47.52 
L 402.262586 -47.52 
L 404.301873 -47.52 
L 406.34116 -47.52 
L 408.380448 -47.52 
L 410.419735 -47.52 
L 412.459022 -47.52 
L 414.49831 -47.52 
L 416.537597 -47.52 
L 418.576884 -47.52 
L 420.616172 -47.52 
L 422.655459 -47.52 
L 424.694746 -47.52 
L 426.734034 -47.52 
L 428.773321 -47.52 
L 430.812608 -47.52 
L 432.851896 -47.52 
L 434.891183 -47.52 
L 436.930471 -47.52 
L 438.969758 -47.52 
L 441.009045 -47.52 
L 443.048333 -47.52 
L 445.08762 -47.52 
L 447.126907 -47.52 
L 449.166195 -47.52 
L 451.205482 -47.52 
L 453.244769 -47.52 
L 455.284057 -47.52 
L 457.323344 -47.52 
L 459.362631 -47.52 
L 461.401919 -47.52 
L 463.441206 -47.52 
L 465.480493 -47.52 
L 467.519781 -47.52 
L 469.559068 -47.52 
L 471.598355 -47.52 
L 473.637643 -47.52 
L 475.67693 -47.52 
L 477.716217 -47.52 
L 479.755505 -47.52 
L 481.794792 -47.52 
L 483.834079 -47.52 
L 485.873367 -47.52 
L 487.912654 -47.52 
L 489.951942 -47.52 
L 491.991229 -47.52 
L 494.030516 -47.52 
L 496.069804 -47.52 
L 498.109091 -47.52 
L 498.109091 -47.668051 
L 498.109091 -47.668051 
L 496.069804 -47.700735 
L 494.030516 -47.739639 
L 491.991229 -47.785713 
L 489.951942 -47.840001 
L 487.912654 -47.903642 
L 485.873367 -47.977865 
L 483.834079 -48.063983 
L 481.794792 -48.163382 
L 479.755505 -48.27751 
L 477.716217 -48.40786 
L 475.67693 -48.555945 
L 473.637643 -48.723276 
L 471.598355 -48.911329 
L 469.559068 -49.121513 
L 467.519781 -49.355133 
L 465.480493 -49.613345 
L 463.441206 -49.897115 
L 461.401919 -50.207175 
L 459.362631 -50.543973 
L 457.323344 -50.907632 
L 455.284057 -51.297903 
L 453.244769 -51.71413 
L 451.205482 -52.15521 
L 449.166195 -52.619568 
L 447.126907 -53.10514 
L 445.08762 -53.609359 
L 443.048333 -54.129155 
L 441.009045 -54.660975 
L 438.969758 -55.2008 
L 436.930471 -55.744191 
L 434.891183 -56.286337 
L 432.851896 -56.822121 
L 430.812608 -57.346193 
L 428.773321 -57.853064 
L 426.734034 -58.337194 
L 424.694746 -58.7931 
L 422.655459 -59.21546 
L 420.616172 -59.599223 
L 418.576884 -59.939717 
L 416.537597 -60.232751 
L 414.49831 -60.474714 
L 412.459022 -60.662663 
L 410.419735 -60.794399 
L 408.380448 -60.868531 
L 406.34116 -60.884522 
L 404.301873 -60.84272 
L 402.262586 -60.744377 
L 400.223298 -60.591641 
L 398.184011 -60.387538 
L 396.144724 -60.135938 
L 394.105436 -59.841508 
L 392.066149 -59.509643 
L 390.026862 -59.146403 
L 387.987574 -58.758426 
L 385.948287 -58.352846 
L 383.909 -57.937198 
L 381.869712 -57.519333 
L 379.830425 -57.107322 
L 377.791138 -56.709371 
L 375.75185 -56.333732 
L 373.712563 -55.988623 
L 371.673275 -55.682154 
L 369.633988 -55.422251 
L 367.594701 -55.21659 
L 365.555413 -55.072532 
L 363.516126 -54.997064 
L 361.476839 -54.996738 
L 359.437551 -55.077614 
L 357.398264 -55.2452 
L 355.358977 -55.504398 
L 353.319689 -55.859441 
L 351.280402 -56.313836 
L 349.241115 -56.870301 
L 347.201827 -57.530715 
L 345.16254 -58.296053 
L 343.123253 -59.166342 
L 341.083965 -60.140619 
L 339.044678 -61.216896 
L 337.005391 -62.392143 
L 334.966103 -63.662294 
L 332.926816 -65.022257 
L 330.887529 -66.46597 
L 328.848241 -67.986462 
L 326.808954 -69.575959 
L 324.769667 -71.226011 
L 322.730379 -72.927646 
L 320.691092 -74.671565 
L 318.651804 -76.448345 
L 316.612517 -78.248683 
L 314.57323 -80.063646 
L 312.533942 -81.884934 
L 310.494655 -83.705156 
L 308.455368 -85.518091 
L 306.41608 -87.318948 
L 304.376793 -89.104597 
L 302.337506 -90.873774 
L 300.298218 -92.627243 
L 298.258931 -94.367919 
L 296.219644 -96.100923 
L 294.180356 -97.833587 
L 292.141069 -99.575385 
L 290.101782 -101.337801 
L 288.062494 -103.134128 
L 286.023207 -104.979189 
L 283.98392 -106.889006 
L 281.944632 -108.880401 
L 279.905345 -110.970554 
L 277.866058 -113.176508 
L 275.82677 -115.514657 
L 273.787483 -118.00021 
L 271.748196 -120.646652 
L 269.708908 -123.465219 
L 267.669621 -126.464398 
L 265.630333 -129.649466 
L 263.591046 -133.022087 
L 261.551759 -136.579971 
L 259.512471 -140.316614 
L 257.473184 -144.221125 
L 255.433897 -148.278146 
L 253.394609 -152.46787 
L 251.355322 -156.766162 
L 249.316035 -161.14478 
L 247.276747 -165.571692 
L 245.23746 -170.011489 
L 243.198173 -174.425874 
L 241.158885 -178.774236 
L 239.119598 -183.014276 
L 237.080311 -187.102689 
L 235.041023 -190.995873 
L 233.001736 -194.650661 
L 230.962449 -198.025055 
L 228.923161 -201.078938 
L 226.883874 -203.774769 
L 224.844587 -206.078223 
L 222.805299 -207.958775 
L 220.766012 -209.39022 
L 218.726725 -210.3511 
L 216.687437 -210.825054 
L 214.64815 -210.801066 
L 212.608862 -210.273617 
L 210.569575 -209.242733 
L 208.530288 -207.713938 
L 206.491 -205.698108 
L 204.451713 -203.211237 
L 202.412426 -200.274116 
L 200.373138 -196.91194 
L 198.333851 -193.153852 
L 196.294564 -189.03243 
L 194.255276 -184.583139 
L 192.215989 -179.843749 
L 190.176702 -174.853745 
L 188.137414 -169.653728 
L 186.098127 -164.284828 
L 184.05884 -158.788133 
L 182.019552 -153.204153 
L 179.980265 -147.572322 
L 177.940978 -141.930537 
L 175.90169 -136.314758 
L 173.862403 -130.75866 
L 171.823116 -125.293345 
L 169.783828 -119.947109 
L 167.744541 -114.745271 
L 165.705254 -109.710067 
L 163.665966 -104.860589 
L 161.626679 -100.212783 
L 159.587392 -95.779493 
L 157.548104 -91.570554 
L 155.508817 -87.592915 
L 153.469529 -83.850797 
L 151.430242 -80.345886 
L 149.390955 -77.077536 
L 147.351667 -74.042993 
L 145.31238 -71.237632 
L 143.273093 -68.655191 
L 141.233805 -66.288016 
L 139.194518 -64.127292 
L 137.155231 -62.163276 
L 135.115943 -60.385513 
L 133.076656 -58.783039 
L 131.037369 -57.344575 
L 128.998081 -56.058695 
L 126.958794 -54.913985 
L 124.919507 -53.899177 
L 122.880219 -53.003266 
L 120.840932 -52.215612 
L 118.801645 -51.526017 
L 116.762357 -50.924794 
L 114.72307 -50.402809 
L 112.683783 -49.951518 
L 110.644495 -49.562988 
L 108.605208 -49.229899 
L 106.565921 -48.945547 
L 104.526633 -48.703831 
L 102.487346 -48.49923 
L 100.448058 -48.326784 
L 98.408771 -48.182062 
L 96.369484 -48.061127 
L 94.330196 -47.960505 
L 92.290909 -47.877145 
z
" style="stroke: #fa8072"/>
    </defs>
    <g clip-path="url(#p753a4b45a7)">
     <use xlink:href="#m04c284d16e" x="0" y="432" style="fill: #fa8072; fill-opacity: 0.25; stroke: #fa8072"/>
    </g>
   </g>
   <g id="matplotlib.axis_1">
    <g id="xtick_1">
     <g id="line2d_1">
      <defs>
       <path id="m7cd3b8686e" d="M 0 0 
L 0 3.5 
" style="stroke: #000000; stroke-width: 0.8"/>
      </defs>
      <g>
       <use xlink:href="#m7cd3b8686e" x="74.563702" y="384.48" style="stroke: #000000; stroke-width: 0.8"/>
      </g>
     </g>
     <g id="text_1">
      <!-- −100000 -->
      <g transform="translate(54.960577 398.653437) scale(0.1 -0.1)">
       <defs>
        <path id="Helvetica-2212" d="M 3547 1894 
L 3547 1369 
L 288 1369 
L 288 1894 
L 3547 1894 
z
" transform="scale(0.015625)"/>
        <path id="Helvetica-31" d="M 613 3169 
L 613 3600 
Q 1222 3659 1462 3798 
Q 1703 3938 1822 4456 
L 2266 4456 
L 2266 0 
L 1666 0 
L 1666 3169 
L 613 3169 
z
" transform="scale(0.015625)"/>
        <path id="Helvetica-30" d="M 1731 4475 
Q 2600 4475 2988 3759 
Q 3288 3206 3288 2244 
Q 3288 1331 3016 734 
Q 2622 -122 1728 -122 
Q 922 -122 528 578 
Q 200 1163 200 2147 
Q 200 2909 397 3456 
Q 766 4475 1731 4475 
z
M 1725 391 
Q 2163 391 2422 778 
Q 2681 1166 2681 2222 
Q 2681 2984 2493 3476 
Q 2306 3969 1766 3969 
Q 1269 3969 1039 3501 
Q 809 3034 809 2125 
Q 809 1441 956 1025 
Q 1181 391 1725 391 
z
" transform="scale(0.015625)"/>
       </defs>
       <use xlink:href="#Helvetica-2212"/>
       <use xlink:href="#Helvetica-31" x="58.398438"/>
       <use xlink:href="#Helvetica-30" x="114.013672"/>
       <use xlink:href="#Helvetica-30" x="169.628906"/>
       <use xlink:href="#Helvetica-30" x="225.244141"/>
       <use xlink:href="#Helvetica-30" x="280.859375"/>
       <use xlink:href="#Helvetica-30" x="336.474609"/>
      </g>
     </g>
    </g>
    <g id="xtick_2">
     <g id="line2d_2">
      <g>
       <use xlink:href="#m7cd3b8686e" x="172.831624" y="384.48" style="stroke: #000000; stroke-width: 0.8"/>
      </g>
     </g>
     <g id="text_2">
      <!-- 0 -->
      <g transform="translate(170.051156 398.653437) scale(0.1 -0.1)">
       <use xlink:href="#Helvetica-30"/>
      </g>
     </g>
    </g>
    <g id="xtick_3">
     <g id="line2d_3">
      <g>
       <use xlink:href="#m7cd3b8686e" x="271.099546" y="384.48" style="stroke: #000000; stroke-width: 0.8"/>
      </g>
     </g>
     <g id="text_3">
      <!-- 100000 -->
      <g transform="translate(254.416734 398.653437) scale(0.1 -0.1)">
       <use xlink:href="#Helvetica-31"/>
       <use xlink:href="#Helvetica-30" x="55.615234"/>
       <use xlink:href="#Helvetica-30" x="111.230469"/>
       <use xlink:href="#Helvetica-30" x="166.845703"/>
       <use xlink:href="#Helvetica-30" x="222.460938"/>
       <use xlink:href="#Helvetica-30" x="278.076172"/>
      </g>
     </g>
    </g>
    <g id="xtick_4">
     <g id="line2d_4">
      <g>
       <use xlink:href="#m7cd3b8686e" x="369.367468" y="384.48" style="stroke: #000000; stroke-width: 0.8"/>
      </g>
     </g>
     <g id="text_4">
      <!-- 200000 -->
      <g transform="translate(352.684656 398.653437) scale(0.1 -0.1)">
       <defs>
        <path id="Helvetica-32" d="M 200 0 
Q 231 578 439 1006 
Q 647 1434 1250 1784 
L 1850 2131 
Q 2253 2366 2416 2531 
Q 2672 2791 2672 3125 
Q 2672 3516 2437 3745 
Q 2203 3975 1813 3975 
Q 1234 3975 1013 3538 
Q 894 3303 881 2888 
L 309 2888 
Q 319 3472 525 3841 
Q 891 4491 1816 4491 
Q 2584 4491 2939 4075 
Q 3294 3659 3294 3150 
Q 3294 2613 2916 2231 
Q 2697 2009 2131 1694 
L 1703 1456 
Q 1397 1288 1222 1134 
Q 909 863 828 531 
L 3272 531 
L 3272 0 
L 200 0 
z
" transform="scale(0.015625)"/>
       </defs>
       <use xlink:href="#Helvetica-32"/>
       <use xlink:href="#Helvetica-30" x="55.615234"/>
       <use xlink:href="#Helvetica-30" x="111.230469"/>
       <use xlink:href="#Helvetica-30" x="166.845703"/>
       <use xlink:href="#Helvetica-30" x="222.460938"/>
       <use xlink:href="#Helvetica-30" x="278.076172"/>
      </g>
     </g>
    </g>
    <g id="xtick_5">
     <g id="line2d_5">
      <g>
       <use xlink:href="#m7cd3b8686e" x="467.635391" y="384.48" style="stroke: #000000; stroke-width: 0.8"/>
      </g>
     </g>
     <g id="text_5">
      <!-- 300000 -->
      <g transform="translate(450.952578 398.653437) scale(0.1 -0.1)">
       <defs>
        <path id="Helvetica-33" d="M 1663 -122 
Q 869 -122 511 314 
Q 153 750 153 1375 
L 741 1375 
Q 778 941 903 744 
Q 1122 391 1694 391 
Q 2138 391 2406 628 
Q 2675 866 2675 1241 
Q 2675 1703 2392 1887 
Q 2109 2072 1606 2072 
Q 1550 2072 1492 2070 
Q 1434 2069 1375 2066 
L 1375 2563 
Q 1463 2553 1522 2550 
Q 1581 2547 1650 2547 
Q 1966 2547 2169 2647 
Q 2525 2822 2525 3272 
Q 2525 3606 2287 3787 
Q 2050 3969 1734 3969 
Q 1172 3969 956 3594 
Q 838 3388 822 3006 
L 266 3006 
Q 266 3506 466 3856 
Q 809 4481 1675 4481 
Q 2359 4481 2734 4176 
Q 3109 3872 3109 3294 
Q 3109 2881 2888 2625 
Q 2750 2466 2531 2375 
Q 2884 2278 3082 2001 
Q 3281 1725 3281 1325 
Q 3281 684 2859 281 
Q 2438 -122 1663 -122 
z
" transform="scale(0.015625)"/>
       </defs>
       <use xlink:href="#Helvetica-33"/>
       <use xlink:href="#Helvetica-30" x="55.615234"/>
       <use xlink:href="#Helvetica-30" x="111.230469"/>
       <use xlink:href="#Helvetica-30" x="166.845703"/>
       <use xlink:href="#Helvetica-30" x="222.460938"/>
       <use xlink:href="#Helvetica-30" x="278.076172"/>
      </g>
     </g>
    </g>
    <g id="text_6">
     <!-- Ddimer Conc (ng/mL) -->
     <g transform="translate(247.4125 412.106562) scale(0.1 -0.1)">
      <defs>
       <path id="Helvetica-44" d="M 2250 531 
Q 2566 531 2769 597 
Q 3131 719 3363 1066 
Q 3547 1344 3628 1778 
Q 3675 2038 3675 2259 
Q 3675 3113 3336 3584 
Q 2997 4056 2244 4056 
L 1141 4056 
L 1141 531 
L 2250 531 
z
M 516 4591 
L 2375 4591 
Q 3322 4591 3844 3919 
Q 4309 3313 4309 2366 
Q 4309 1634 4034 1044 
Q 3550 0 2369 0 
L 516 0 
L 516 4591 
z
" transform="scale(0.015625)"/>
       <path id="Helvetica-64" d="M 769 1634 
Q 769 1097 997 734 
Q 1225 372 1728 372 
Q 2119 372 2370 708 
Q 2622 1044 2622 1672 
Q 2622 2306 2362 2611 
Q 2103 2916 1722 2916 
Q 1297 2916 1033 2591 
Q 769 2266 769 1634 
z
M 1616 3406 
Q 2000 3406 2259 3244 
Q 2409 3150 2600 2916 
L 2600 4606 
L 3141 4606 
L 3141 0 
L 2634 0 
L 2634 466 
Q 2438 156 2169 18 
Q 1900 -119 1553 -119 
Q 994 -119 584 351 
Q 175 822 175 1603 
Q 175 2334 548 2870 
Q 922 3406 1616 3406 
z
" transform="scale(0.015625)"/>
       <path id="Helvetica-69" d="M 413 3331 
L 984 3331 
L 984 0 
L 413 0 
L 413 3331 
z
M 413 4591 
L 984 4591 
L 984 3953 
L 413 3953 
L 413 4591 
z
" transform="scale(0.015625)"/>
       <path id="Helvetica-6d" d="M 413 3347 
L 969 3347 
L 969 2872 
Q 1169 3119 1331 3231 
Q 1609 3422 1963 3422 
Q 2363 3422 2606 3225 
Q 2744 3113 2856 2894 
Q 3044 3163 3297 3292 
Q 3550 3422 3866 3422 
Q 4541 3422 4784 2934 
Q 4916 2672 4916 2228 
L 4916 0 
L 4331 0 
L 4331 2325 
Q 4331 2659 4164 2784 
Q 3997 2909 3756 2909 
Q 3425 2909 3186 2687 
Q 2947 2466 2947 1947 
L 2947 0 
L 2375 0 
L 2375 2184 
Q 2375 2525 2294 2681 
Q 2166 2916 1816 2916 
Q 1497 2916 1236 2669 
Q 975 2422 975 1775 
L 975 0 
L 413 0 
L 413 3347 
z
" transform="scale(0.015625)"/>
       <path id="Helvetica-65" d="M 1806 3422 
Q 2163 3422 2497 3255 
Q 2831 3088 3006 2822 
Q 3175 2569 3231 2231 
Q 3281 2000 3281 1494 
L 828 1494 
Q 844 984 1069 676 
Q 1294 369 1766 369 
Q 2206 369 2469 659 
Q 2619 828 2681 1050 
L 3234 1050 
Q 3213 866 3089 639 
Q 2966 413 2813 269 
Q 2556 19 2178 -69 
Q 1975 -119 1719 -119 
Q 1094 -119 659 336 
Q 225 791 225 1609 
Q 225 2416 662 2919 
Q 1100 3422 1806 3422 
z
M 2703 1941 
Q 2669 2306 2544 2525 
Q 2313 2931 1772 2931 
Q 1384 2931 1121 2651 
Q 859 2372 844 1941 
L 2703 1941 
z
M 1753 3428 
L 1753 3428 
z
" transform="scale(0.015625)"/>
       <path id="Helvetica-72" d="M 428 3347 
L 963 3347 
L 963 2769 
Q 1028 2938 1284 3180 
Q 1541 3422 1875 3422 
Q 1891 3422 1928 3419 
Q 1966 3416 2056 3406 
L 2056 2813 
Q 2006 2822 1964 2825 
Q 1922 2828 1872 2828 
Q 1447 2828 1219 2554 
Q 991 2281 991 1925 
L 991 0 
L 428 0 
L 428 3347 
z
" transform="scale(0.015625)"/>
       <path id="Helvetica-20" transform="scale(0.015625)"/>
       <path id="Helvetica-43" d="M 2422 4716 
Q 3294 4716 3775 4256 
Q 4256 3797 4309 3213 
L 3703 3213 
Q 3600 3656 3292 3915 
Q 2984 4175 2428 4175 
Q 1750 4175 1333 3698 
Q 916 3222 916 2238 
Q 916 1431 1292 929 
Q 1669 428 2416 428 
Q 3103 428 3463 956 
Q 3653 1234 3747 1688 
L 4353 1688 
Q 4272 963 3816 472 
Q 3269 -119 2341 -119 
Q 1541 -119 997 366 
Q 281 1006 281 2344 
Q 281 3359 819 4009 
Q 1400 4716 2422 4716 
z
M 2297 4716 
L 2297 4716 
z
" transform="scale(0.015625)"/>
       <path id="Helvetica-6f" d="M 1741 363 
Q 2300 363 2508 786 
Q 2716 1209 2716 1728 
Q 2716 2197 2566 2491 
Q 2328 2953 1747 2953 
Q 1231 2953 997 2559 
Q 763 2166 763 1609 
Q 763 1075 997 719 
Q 1231 363 1741 363 
z
M 1763 3444 
Q 2409 3444 2856 3012 
Q 3303 2581 3303 1744 
Q 3303 934 2909 406 
Q 2516 -122 1688 -122 
Q 997 -122 590 345 
Q 184 813 184 1600 
Q 184 2444 612 2944 
Q 1041 3444 1763 3444 
z
M 1744 3428 
L 1744 3428 
z
" transform="scale(0.015625)"/>
       <path id="Helvetica-6e" d="M 413 3347 
L 947 3347 
L 947 2872 
Q 1184 3166 1450 3294 
Q 1716 3422 2041 3422 
Q 2753 3422 3003 2925 
Q 3141 2653 3141 2147 
L 3141 0 
L 2569 0 
L 2569 2109 
Q 2569 2416 2478 2603 
Q 2328 2916 1934 2916 
Q 1734 2916 1606 2875 
Q 1375 2806 1200 2600 
Q 1059 2434 1017 2257 
Q 975 2081 975 1753 
L 975 0 
L 413 0 
L 413 3347 
z
M 1734 3428 
L 1734 3428 
z
" transform="scale(0.015625)"/>
       <path id="Helvetica-63" d="M 1703 3444 
Q 2269 3444 2623 3169 
Q 2978 2894 3050 2222 
L 2503 2222 
Q 2453 2531 2275 2736 
Q 2097 2941 1703 2941 
Q 1166 2941 934 2416 
Q 784 2075 784 1575 
Q 784 1072 996 728 
Q 1209 384 1666 384 
Q 2016 384 2220 598 
Q 2425 813 2503 1184 
L 3050 1184 
Q 2956 519 2581 211 
Q 2206 -97 1622 -97 
Q 966 -97 575 383 
Q 184 863 184 1581 
Q 184 2463 612 2953 
Q 1041 3444 1703 3444 
z
M 1616 3428 
L 1616 3428 
z
" transform="scale(0.015625)"/>
       <path id="Helvetica-28" d="M 1894 4666 
Q 1403 3713 1256 3263 
Q 1034 2578 1034 1681 
Q 1034 775 1288 25 
Q 1444 -438 1903 -1306 
L 1525 -1306 
Q 1069 -594 959 -397 
Q 850 -200 722 138 
Q 547 600 478 1125 
Q 444 1397 444 1644 
Q 444 2569 734 3291 
Q 919 3750 1503 4666 
L 1894 4666 
z
" transform="scale(0.015625)"/>
       <path id="Helvetica-67" d="M 1594 3406 
Q 1988 3406 2281 3213 
Q 2441 3103 2606 2894 
L 2606 3316 
L 3125 3316 
L 3125 272 
Q 3125 -366 2938 -734 
Q 2588 -1416 1616 -1416 
Q 1075 -1416 706 -1173 
Q 338 -931 294 -416 
L 866 -416 
Q 906 -641 1028 -763 
Q 1219 -950 1628 -950 
Q 2275 -950 2475 -494 
Q 2594 -225 2584 466 
Q 2416 209 2178 84 
Q 1941 -41 1550 -41 
Q 1006 -41 598 345 
Q 191 731 191 1622 
Q 191 2463 602 2934 
Q 1013 3406 1594 3406 
z
M 2606 1688 
Q 2606 2309 2350 2609 
Q 2094 2909 1697 2909 
Q 1103 2909 884 2353 
Q 769 2056 769 1575 
Q 769 1009 998 714 
Q 1228 419 1616 419 
Q 2222 419 2469 966 
Q 2606 1275 2606 1688 
z
M 1659 3428 
L 1659 3428 
z
" transform="scale(0.015625)"/>
       <path id="Helvetica-2f" d="M 1456 4591 
L 1931 4591 
L 475 0 
L 0 0 
L 1456 4591 
z
" transform="scale(0.015625)"/>
       <path id="Helvetica-4c" d="M 488 4591 
L 1109 4591 
L 1109 547 
L 3434 547 
L 3434 0 
L 488 0 
L 488 4591 
z
" transform="scale(0.015625)"/>
       <path id="Helvetica-29" d="M 222 -1306 
Q 719 -338 863 106 
Q 1081 778 1081 1681 
Q 1081 2584 828 3334 
Q 672 3797 213 4666 
L 591 4666 
Q 1072 3897 1173 3717 
Q 1275 3538 1394 3222 
Q 1544 2831 1608 2450 
Q 1672 2069 1672 1716 
Q 1672 791 1378 66 
Q 1194 -400 613 -1306 
L 222 -1306 
z
" transform="scale(0.015625)"/>
      </defs>
      <use xlink:href="#Helvetica-44"/>
      <use xlink:href="#Helvetica-64" x="72.216797"/>
      <use xlink:href="#Helvetica-69" x="127.832031"/>
      <use xlink:href="#Helvetica-6d" x="150.048828"/>
      <use xlink:href="#Helvetica-65" x="233.349609"/>
      <use xlink:href="#Helvetica-72" x="288.964844"/>
      <use xlink:href="#Helvetica-20" x="322.265625"/>
      <use xlink:href="#Helvetica-43" x="350.048828"/>
      <use xlink:href="#Helvetica-6f" x="422.265625"/>
      <use xlink:href="#Helvetica-6e" x="477.880859"/>
      <use xlink:href="#Helvetica-63" x="533.496094"/>
      <use xlink:href="#Helvetica-20" x="583.496094"/>
      <use xlink:href="#Helvetica-28" x="611.279297"/>
      <use xlink:href="#Helvetica-6e" x="644.580078"/>
      <use xlink:href="#Helvetica-67" x="700.195312"/>
      <use xlink:href="#Helvetica-2f" x="755.810547"/>
      <use xlink:href="#Helvetica-6d" x="783.59375"/>
      <use xlink:href="#Helvetica-4c" x="866.894531"/>
      <use xlink:href="#Helvetica-29" x="922.509766"/>
     </g>
    </g>
   </g>
   <g id="matplotlib.axis_2">
    <g id="ytick_1">
     <g id="line2d_6">
      <defs>
       <path id="mdd44222860" d="M 0 0 
L -3.5 0 
" style="stroke: #000000; stroke-width: 0.8"/>
      </defs>
      <g>
       <use xlink:href="#mdd44222860" x="72" y="384.48" style="stroke: #000000; stroke-width: 0.8"/>
      </g>
     </g>
     <g id="text_7">
      <!-- 0.0 -->
      <g transform="translate(51.1 388.066719) scale(0.1 -0.1)">
       <defs>
        <path id="Helvetica-2e" d="M 547 681 
L 1200 681 
L 1200 0 
L 547 0 
L 547 681 
z
" transform="scale(0.015625)"/>
       </defs>
       <use xlink:href="#Helvetica-30"/>
       <use xlink:href="#Helvetica-2e" x="55.615234"/>
       <use xlink:href="#Helvetica-30" x="83.398438"/>
      </g>
     </g>
    </g>
    <g id="ytick_2">
     <g id="line2d_7">
      <g>
       <use xlink:href="#mdd44222860" x="72" y="347.366096" style="stroke: #000000; stroke-width: 0.8"/>
      </g>
     </g>
     <g id="text_8">
      <!-- 0.2 -->
      <g transform="translate(51.1 350.952814) scale(0.1 -0.1)">
       <use xlink:href="#Helvetica-30"/>
       <use xlink:href="#Helvetica-2e" x="55.615234"/>
       <use xlink:href="#Helvetica-32" x="83.398438"/>
      </g>
     </g>
    </g>
    <g id="ytick_3">
     <g id="line2d_8">
      <g>
       <use xlink:href="#mdd44222860" x="72" y="310.252191" style="stroke: #000000; stroke-width: 0.8"/>
      </g>
     </g>
     <g id="text_9">
      <!-- 0.4 -->
      <g transform="translate(51.1 313.83891) scale(0.1 -0.1)">
       <defs>
        <path id="Helvetica-34" d="M 2116 1584 
L 2116 3613 
L 681 1584 
L 2116 1584 
z
M 2125 0 
L 2125 1094 
L 163 1094 
L 163 1644 
L 2213 4488 
L 2688 4488 
L 2688 1584 
L 3347 1584 
L 3347 1094 
L 2688 1094 
L 2688 0 
L 2125 0 
z
" transform="scale(0.015625)"/>
       </defs>
       <use xlink:href="#Helvetica-30"/>
       <use xlink:href="#Helvetica-2e" x="55.615234"/>
       <use xlink:href="#Helvetica-34" x="83.398438"/>
      </g>
     </g>
    </g>
    <g id="ytick_4">
     <g id="line2d_9">
      <g>
       <use xlink:href="#mdd44222860" x="72" y="273.138287" style="stroke: #000000; stroke-width: 0.8"/>
      </g>
     </g>
     <g id="text_10">
      <!-- 0.6 -->
      <g transform="translate(51.1 276.725006) scale(0.1 -0.1)">
       <defs>
        <path id="Helvetica-36" d="M 1872 4494 
Q 2622 4494 2917 4105 
Q 3213 3716 3213 3303 
L 2656 3303 
Q 2606 3569 2497 3719 
Q 2294 4000 1881 4000 
Q 1409 4000 1131 3564 
Q 853 3128 822 2316 
Q 1016 2600 1309 2741 
Q 1578 2866 1909 2866 
Q 2472 2866 2890 2506 
Q 3309 2147 3309 1434 
Q 3309 825 2912 354 
Q 2516 -116 1781 -116 
Q 1153 -116 697 361 
Q 241 838 241 1966 
Q 241 2800 444 3381 
Q 834 4494 1872 4494 
z
M 1831 384 
Q 2275 384 2495 682 
Q 2716 981 2716 1388 
Q 2716 1731 2519 2042 
Q 2322 2353 1803 2353 
Q 1441 2353 1167 2112 
Q 894 1872 894 1388 
Q 894 963 1142 673 
Q 1391 384 1831 384 
z
" transform="scale(0.015625)"/>
       </defs>
       <use xlink:href="#Helvetica-30"/>
       <use xlink:href="#Helvetica-2e" x="55.615234"/>
       <use xlink:href="#Helvetica-36" x="83.398438"/>
      </g>
     </g>
    </g>
    <g id="ytick_5">
     <g id="line2d_10">
      <g>
       <use xlink:href="#mdd44222860" x="72" y="236.024383" style="stroke: #000000; stroke-width: 0.8"/>
      </g>
     </g>
     <g id="text_11">
      <!-- 0.8 -->
      <g transform="translate(51.1 239.611101) scale(0.1 -0.1)">
       <defs>
        <path id="Helvetica-38" d="M 1741 2600 
Q 2113 2600 2322 2808 
Q 2531 3016 2531 3303 
Q 2531 3553 2331 3762 
Q 2131 3972 1722 3972 
Q 1316 3972 1134 3762 
Q 953 3553 953 3272 
Q 953 2956 1187 2778 
Q 1422 2600 1741 2600 
z
M 1775 384 
Q 2166 384 2423 595 
Q 2681 806 2681 1225 
Q 2681 1659 2415 1884 
Q 2150 2109 1734 2109 
Q 1331 2109 1076 1879 
Q 822 1650 822 1244 
Q 822 894 1055 639 
Q 1288 384 1775 384 
z
M 975 2384 
Q 741 2484 609 2619 
Q 363 2869 363 3269 
Q 363 3769 725 4128 
Q 1088 4488 1753 4488 
Q 2397 4488 2762 4148 
Q 3128 3809 3128 3356 
Q 3128 2938 2916 2678 
Q 2797 2531 2547 2391 
Q 2825 2263 2984 2097 
Q 3281 1784 3281 1284 
Q 3281 694 2884 283 
Q 2488 -128 1763 -128 
Q 1109 -128 657 226 
Q 206 581 206 1256 
Q 206 1653 400 1942 
Q 594 2231 975 2384 
z
" transform="scale(0.015625)"/>
       </defs>
       <use xlink:href="#Helvetica-30"/>
       <use xlink:href="#Helvetica-2e" x="55.615234"/>
       <use xlink:href="#Helvetica-38" x="83.398438"/>
      </g>
     </g>
    </g>
    <g id="ytick_6">
     <g id="line2d_11">
      <g>
       <use xlink:href="#mdd44222860" x="72" y="198.910478" style="stroke: #000000; stroke-width: 0.8"/>
      </g>
     </g>
     <g id="text_12">
      <!-- 1.0 -->
      <g transform="translate(51.1 202.497197) scale(0.1 -0.1)">
       <use xlink:href="#Helvetica-31"/>
       <use xlink:href="#Helvetica-2e" x="55.615234"/>
       <use xlink:href="#Helvetica-30" x="83.398438"/>
      </g>
     </g>
    </g>
    <g id="ytick_7">
     <g id="line2d_12">
      <g>
       <use xlink:href="#mdd44222860" x="72" y="161.796574" style="stroke: #000000; stroke-width: 0.8"/>
      </g>
     </g>
     <g id="text_13">
      <!-- 1.2 -->
      <g transform="translate(51.1 165.383293) scale(0.1 -0.1)">
       <use xlink:href="#Helvetica-31"/>
       <use xlink:href="#Helvetica-2e" x="55.615234"/>
       <use xlink:href="#Helvetica-32" x="83.398438"/>
      </g>
     </g>
    </g>
    <g id="ytick_8">
     <g id="line2d_13">
      <g>
       <use xlink:href="#mdd44222860" x="72" y="124.682669" style="stroke: #000000; stroke-width: 0.8"/>
      </g>
     </g>
     <g id="text_14">
      <!-- 1.4 -->
      <g transform="translate(51.1 128.269388) scale(0.1 -0.1)">
       <use xlink:href="#Helvetica-31"/>
       <use xlink:href="#Helvetica-2e" x="55.615234"/>
       <use xlink:href="#Helvetica-34" x="83.398438"/>
      </g>
     </g>
    </g>
    <g id="ytick_9">
     <g id="line2d_14">
      <g>
       <use xlink:href="#mdd44222860" x="72" y="87.568765" style="stroke: #000000; stroke-width: 0.8"/>
      </g>
     </g>
     <g id="text_15">
      <!-- 1.6 -->
      <g transform="translate(51.1 91.155484) scale(0.1 -0.1)">
       <use xlink:href="#Helvetica-31"/>
       <use xlink:href="#Helvetica-2e" x="55.615234"/>
       <use xlink:href="#Helvetica-36" x="83.398438"/>
      </g>
     </g>
    </g>
    <g id="text_16">
     <!-- Density -->
     <g transform="translate(44.95625 234.831875) rotate(-90) scale(0.1 -0.1)">
      <defs>
       <path id="Helvetica-73" d="M 747 1050 
Q 772 769 888 619 
Q 1100 347 1625 347 
Q 1938 347 2175 483 
Q 2413 619 2413 903 
Q 2413 1119 2222 1231 
Q 2100 1300 1741 1391 
L 1294 1503 
Q 866 1609 663 1741 
Q 300 1969 300 2372 
Q 300 2847 642 3140 
Q 984 3434 1563 3434 
Q 2319 3434 2653 2991 
Q 2863 2709 2856 2384 
L 2325 2384 
Q 2309 2575 2191 2731 
Q 1997 2953 1519 2953 
Q 1200 2953 1036 2831 
Q 872 2709 872 2509 
Q 872 2291 1088 2159 
Q 1213 2081 1456 2022 
L 1828 1931 
Q 2434 1784 2641 1647 
Q 2969 1431 2969 969 
Q 2969 522 2630 197 
Q 2291 -128 1597 -128 
Q 850 -128 539 211 
Q 228 550 206 1050 
L 747 1050 
z
M 1578 3428 
L 1578 3428 
z
" transform="scale(0.015625)"/>
       <path id="Helvetica-74" d="M 525 4281 
L 1094 4281 
L 1094 3347 
L 1628 3347 
L 1628 2888 
L 1094 2888 
L 1094 703 
Q 1094 528 1213 469 
Q 1278 434 1431 434 
Q 1472 434 1519 436 
Q 1566 438 1628 444 
L 1628 0 
Q 1531 -28 1426 -40 
Q 1322 -53 1200 -53 
Q 806 -53 665 148 
Q 525 350 525 672 
L 525 2888 
L 72 2888 
L 72 3347 
L 525 3347 
L 525 4281 
z
" transform="scale(0.015625)"/>
       <path id="Helvetica-79" d="M 2503 3347 
L 3125 3347 
Q 3006 3025 2597 1878 
Q 2291 1016 2084 472 
Q 1597 -809 1397 -1090 
Q 1197 -1372 709 -1372 
Q 591 -1372 527 -1362 
Q 463 -1353 369 -1328 
L 369 -816 
Q 516 -856 581 -865 
Q 647 -875 697 -875 
Q 853 -875 926 -823 
Q 1000 -772 1050 -697 
Q 1066 -672 1162 -440 
Q 1259 -209 1303 -97 
L 66 3347 
L 703 3347 
L 1600 622 
L 2503 3347 
z
M 1597 3428 
L 1597 3428 
z
" transform="scale(0.015625)"/>
      </defs>
      <use xlink:href="#Helvetica-44"/>
      <use xlink:href="#Helvetica-65" x="72.216797"/>
      <use xlink:href="#Helvetica-6e" x="127.832031"/>
      <use xlink:href="#Helvetica-73" x="183.447266"/>
      <use xlink:href="#Helvetica-69" x="233.447266"/>
      <use xlink:href="#Helvetica-74" x="255.664062"/>
      <use xlink:href="#Helvetica-79" x="283.447266"/>
     </g>
    </g>
    <g id="text_17">
     <!-- 1e−5 -->
     <g transform="translate(72 48.84) scale(0.1 -0.1)">
      <defs>
       <path id="Helvetica-35" d="M 791 1141 
Q 847 659 1238 475 
Q 1438 381 1700 381 
Q 2200 381 2440 700 
Q 2681 1019 2681 1406 
Q 2681 1875 2395 2131 
Q 2109 2388 1709 2388 
Q 1419 2388 1211 2275 
Q 1003 2163 856 1963 
L 369 1991 
L 709 4400 
L 3034 4400 
L 3034 3856 
L 1131 3856 
L 941 2613 
Q 1097 2731 1238 2791 
Q 1488 2894 1816 2894 
Q 2431 2894 2859 2497 
Q 3288 2100 3288 1491 
Q 3288 856 2895 371 
Q 2503 -113 1644 -113 
Q 1097 -113 676 195 
Q 256 503 206 1141 
L 791 1141 
z
" transform="scale(0.015625)"/>
      </defs>
      <use xlink:href="#Helvetica-31"/>
      <use xlink:href="#Helvetica-65" x="55.615234"/>
      <use xlink:href="#Helvetica-2212" x="111.230469"/>
      <use xlink:href="#Helvetica-35" x="169.628906"/>
     </g>
    </g>
   </g>
   <g id="patch_3">
    <path d="M 72 384.48 
L 72 51.84 
" style="fill: none; stroke: #000000; stroke-width: 0.8; stroke-linejoin: miter; stroke-linecap: square"/>
   </g>
   <g id="patch_4">
    <path d="M 518.4 384.48 
L 518.4 51.84 
" style="fill: none; stroke: #000000; stroke-width: 0.8; stroke-linejoin: miter; stroke-linecap: square"/>
   </g>
   <g id="patch_5">
    <path d="M 72 384.48 
L 518.4 384.48 
" style="fill: none; stroke: #000000; stroke-width: 0.8; stroke-linejoin: miter; stroke-linecap: square"/>
   </g>
   <g id="patch_6">
    <path d="M 72 51.84 
L 518.4 51.84 
" style="fill: none; stroke: #000000; stroke-width: 0.8; stroke-linejoin: miter; stroke-linecap: square"/>
   </g>
   <g id="legend_1">
    <g id="patch_7">
     <path d="M 434.373437 88.355625 
L 511.4 88.355625 
Q 513.4 88.355625 513.4 86.355625 
L 513.4 58.84 
Q 513.4 56.84 511.4 56.84 
L 434.373437 56.84 
Q 432.373437 56.84 432.373437 58.84 
L 432.373437 86.355625 
Q 432.373437 88.355625 434.373437 88.355625 
z
" style="fill: #ffffff; opacity: 0.8; stroke: #cccccc; stroke-linejoin: miter"/>
    </g>
    <g id="patch_8">
     <path d="M 436.373437 68.013437 
L 456.373437 68.013437 
L 456.373437 61.013437 
L 436.373437 61.013437 
z
" style="fill: #87ceeb; fill-opacity: 0.25; stroke: #87ceeb; stroke-linejoin: miter"/>
    </g>
    <g id="text_18">
     <!-- Alive -->
     <g transform="translate(464.373437 68.013437) scale(0.1 -0.1)">
      <defs>
       <path id="Helvetica-41" d="M 2844 1881 
L 2147 3909 
L 1406 1881 
L 2844 1881 
z
M 1822 4591 
L 2525 4591 
L 4191 0 
L 3509 0 
L 3044 1375 
L 1228 1375 
L 731 0 
L 94 0 
L 1822 4591 
z
" transform="scale(0.015625)"/>
       <path id="Helvetica-6c" d="M 428 4591 
L 991 4591 
L 991 0 
L 428 0 
L 428 4591 
z
" transform="scale(0.015625)"/>
       <path id="Helvetica-76" d="M 688 3347 
L 1581 622 
L 2516 3347 
L 3131 3347 
L 1869 0 
L 1269 0 
L 34 3347 
L 688 3347 
z
" transform="scale(0.015625)"/>
      </defs>
      <use xlink:href="#Helvetica-41"/>
      <use xlink:href="#Helvetica-6c" x="66.699219"/>
      <use xlink:href="#Helvetica-69" x="88.916016"/>
      <use xlink:href="#Helvetica-76" x="111.132812"/>
      <use xlink:href="#Helvetica-65" x="161.132812"/>
     </g>
    </g>
    <g id="patch_9">
     <path d="M 436.373437 82.27125 
L 456.373437 82.27125 
L 456.373437 75.27125 
L 436.373437 75.27125 
z
" style="fill: #fa8072; fill-opacity: 0.25; stroke: #fa8072; stroke-linejoin: miter"/>
    </g>
    <g id="text_19">
     <!-- Deceased -->
     <g transform="translate(464.373437 82.27125) scale(0.1 -0.1)">
      <defs>
       <path id="Helvetica-61" d="M 844 891 
Q 844 647 1022 506 
Q 1200 366 1444 366 
Q 1741 366 2019 503 
Q 2488 731 2488 1250 
L 2488 1703 
Q 2384 1638 2221 1594 
Q 2059 1550 1903 1531 
L 1563 1488 
Q 1256 1447 1103 1359 
Q 844 1213 844 891 
z
M 2206 2028 
Q 2400 2053 2466 2191 
Q 2503 2266 2503 2406 
Q 2503 2694 2298 2823 
Q 2094 2953 1713 2953 
Q 1272 2953 1088 2716 
Q 984 2584 953 2325 
L 428 2325 
Q 444 2944 830 3186 
Q 1216 3428 1725 3428 
Q 2316 3428 2684 3203 
Q 3050 2978 3050 2503 
L 3050 575 
Q 3050 488 3086 434 
Q 3122 381 3238 381 
Q 3275 381 3322 386 
Q 3369 391 3422 400 
L 3422 -16 
Q 3291 -53 3222 -62 
Q 3153 -72 3034 -72 
Q 2744 -72 2613 134 
Q 2544 244 2516 444 
Q 2344 219 2022 53 
Q 1700 -113 1313 -113 
Q 847 -113 551 170 
Q 256 453 256 878 
Q 256 1344 547 1600 
Q 838 1856 1309 1916 
L 2206 2028 
z
M 1741 3428 
L 1741 3428 
z
" transform="scale(0.015625)"/>
      </defs>
      <use xlink:href="#Helvetica-44"/>
      <use xlink:href="#Helvetica-65" x="72.216797"/>
      <use xlink:href="#Helvetica-63" x="127.832031"/>
      <use xlink:href="#Helvetica-65" x="177.832031"/>
      <use xlink:href="#Helvetica-61" x="233.447266"/>
      <use xlink:href="#Helvetica-73" x="289.0625"/>
      <use xlink:href="#Helvetica-65" x="339.0625"/>
      <use xlink:href="#Helvetica-64" x="394.677734"/>
     </g>
    </g>
   </g>
  </g>
 </g>
 <defs>
  <clipPath id="p753a4b45a7">
   <rect x="72" y="51.84" width="446.4" height="332.64"/>
  </clipPath>
 </defs>
</svg>
