<?xml version="1.0" encoding="utf-8" standalone="no"?>
<!DOCTYPE svg PUBLIC "-//W3C//DTD SVG 1.1//EN"
  "http://www.w3.org/Graphics/SVG/1.1/DTD/svg11.dtd">
<svg xmlns:xlink="http://www.w3.org/1999/xlink" width="576pt" height="432pt" viewBox="0 0 576 432" xmlns="http://www.w3.org/2000/svg" version="1.1">
 <metadata>
  <rdf:RDF xmlns:dc="http://purl.org/dc/elements/1.1/" xmlns:cc="http://creativecommons.org/ns#" xmlns:rdf="http://www.w3.org/1999/02/22-rdf-syntax-ns#">
   <cc:Work>
    <dc:type rdf:resource="http://purl.org/dc/dcmitype/StillImage"/>
    <dc:date>2023-11-06T21:01:32.035439</dc:date>
    <dc:format>image/svg+xml</dc:format>
    <dc:creator>
     <cc:Agent>
      <dc:title>Matplotlib v3.7.2, https://matplotlib.org/</dc:title>
     </cc:Agent>
    </dc:creator>
   </cc:Work>
  </rdf:RDF>
 </metadata>
 <defs>
  <style type="text/css">*{stroke-linejoin: round; stroke-linecap: butt}</style>
 </defs>
 <g id="figure_1">
  <g id="patch_1">
   <path d="M 0 432 
L 576 432 
L 576 0 
L 0 0 
z
" style="fill: #ffffff"/>
  </g>
  <g id="axes_1">
   <g id="patch_2">
    <path d="M 72 384.48 
L 518.4 384.48 
L 518.4 51.84 
L 72 51.84 
z
" style="fill: #ffffff"/>
   </g>
   <g id="PolyCollection_1">
    <defs>
     <path id="m0c36d9746c" d="M 198.965795 -47.691809 
L 198.965795 -47.52 
L 200.060413 -47.52 
L 201.155031 -47.52 
L 202.249649 -47.52 
L 203.344267 -47.52 
L 204.438886 -47.52 
L 205.533504 -47.52 
L 206.628122 -47.52 
L 207.72274 -47.52 
L 208.817358 -47.52 
L 209.911977 -47.52 
L 211.006595 -47.52 
L 212.101213 -47.52 
L 213.195831 -47.52 
L 214.290449 -47.52 
L 215.385068 -47.52 
L 216.479686 -47.52 
L 217.574304 -47.52 
L 218.668922 -47.52 
L 219.76354 -47.52 
L 220.858158 -47.52 
L 221.952777 -47.52 
L 223.047395 -47.52 
L 224.142013 -47.52 
L 225.236631 -47.52 
L 226.331249 -47.52 
L 227.425868 -47.52 
L 228.520486 -47.52 
L 229.615104 -47.52 
L 230.709722 -47.52 
L 231.80434 -47.52 
L 232.898959 -47.52 
L 233.993577 -47.52 
L 235.088195 -47.52 
L 236.182813 -47.52 
L 237.277431 -47.52 
L 238.37205 -47.52 
L 239.466668 -47.52 
L 240.561286 -47.52 
L 241.655904 -47.52 
L 242.750522 -47.52 
L 243.845141 -47.52 
L 244.939759 -47.52 
L 246.034377 -47.52 
L 247.128995 -47.52 
L 248.223613 -47.52 
L 249.318231 -47.52 
L 250.41285 -47.52 
L 251.507468 -47.52 
L 252.602086 -47.52 
L 253.696704 -47.52 
L 254.791322 -47.52 
L 255.885941 -47.52 
L 256.980559 -47.52 
L 258.075177 -47.52 
L 259.169795 -47.52 
L 260.264413 -47.52 
L 261.359032 -47.52 
L 262.45365 -47.52 
L 263.548268 -47.52 
L 264.642886 -47.52 
L 265.737504 -47.52 
L 266.832123 -47.52 
L 267.926741 -47.52 
L 269.021359 -47.52 
L 270.115977 -47.52 
L 271.210595 -47.52 
L 272.305214 -47.52 
L 273.399832 -47.52 
L 274.49445 -47.52 
L 275.589068 -47.52 
L 276.683686 -47.52 
L 277.778304 -47.52 
L 278.872923 -47.52 
L 279.967541 -47.52 
L 281.062159 -47.52 
L 282.156777 -47.52 
L 283.251395 -47.52 
L 284.346014 -47.52 
L 285.440632 -47.52 
L 286.53525 -47.52 
L 287.629868 -47.52 
L 288.724486 -47.52 
L 289.819105 -47.52 
L 290.913723 -47.52 
L 292.008341 -47.52 
L 293.102959 -47.52 
L 294.197577 -47.52 
L 295.292196 -47.52 
L 296.386814 -47.52 
L 297.481432 -47.52 
L 298.57605 -47.52 
L 299.670668 -47.52 
L 300.765287 -47.52 
L 301.859905 -47.52 
L 302.954523 -47.52 
L 304.049141 -47.52 
L 305.143759 -47.52 
L 306.238377 -47.52 
L 307.332996 -47.52 
L 308.427614 -47.52 
L 309.522232 -47.52 
L 310.61685 -47.52 
L 311.711468 -47.52 
L 312.806087 -47.52 
L 313.900705 -47.52 
L 314.995323 -47.52 
L 316.089941 -47.52 
L 317.184559 -47.52 
L 318.279178 -47.52 
L 319.373796 -47.52 
L 320.468414 -47.52 
L 321.563032 -47.52 
L 322.65765 -47.52 
L 323.752269 -47.52 
L 324.846887 -47.52 
L 325.941505 -47.52 
L 327.036123 -47.52 
L 328.130741 -47.52 
L 329.22536 -47.52 
L 330.319978 -47.52 
L 331.414596 -47.52 
L 332.509214 -47.52 
L 333.603832 -47.52 
L 334.69845 -47.52 
L 335.793069 -47.52 
L 336.887687 -47.52 
L 337.982305 -47.52 
L 339.076923 -47.52 
L 340.171541 -47.52 
L 341.26616 -47.52 
L 342.360778 -47.52 
L 343.455396 -47.52 
L 344.550014 -47.52 
L 345.644632 -47.52 
L 346.739251 -47.52 
L 347.833869 -47.52 
L 348.928487 -47.52 
L 350.023105 -47.52 
L 351.117723 -47.52 
L 352.212342 -47.52 
L 353.30696 -47.52 
L 354.401578 -47.52 
L 355.496196 -47.52 
L 356.590814 -47.52 
L 357.685433 -47.52 
L 358.780051 -47.52 
L 359.874669 -47.52 
L 360.969287 -47.52 
L 362.063905 -47.52 
L 363.158523 -47.52 
L 364.253142 -47.52 
L 365.34776 -47.52 
L 366.442378 -47.52 
L 367.536996 -47.52 
L 368.631614 -47.52 
L 369.726233 -47.52 
L 370.820851 -47.52 
L 371.915469 -47.52 
L 373.010087 -47.52 
L 374.104705 -47.52 
L 375.199324 -47.52 
L 376.293942 -47.52 
L 377.38856 -47.52 
L 378.483178 -47.52 
L 379.577796 -47.52 
L 380.672415 -47.52 
L 381.767033 -47.52 
L 382.861651 -47.52 
L 383.956269 -47.52 
L 385.050887 -47.52 
L 386.145506 -47.52 
L 387.240124 -47.52 
L 388.334742 -47.52 
L 389.42936 -47.52 
L 390.523978 -47.52 
L 391.618596 -47.52 
L 392.713215 -47.52 
L 393.807833 -47.52 
L 394.902451 -47.52 
L 395.997069 -47.52 
L 397.091687 -47.52 
L 398.186306 -47.52 
L 399.280924 -47.52 
L 400.375542 -47.52 
L 401.47016 -47.52 
L 402.564778 -47.52 
L 403.659397 -47.52 
L 404.754015 -47.52 
L 405.848633 -47.52 
L 406.943251 -47.52 
L 408.037869 -47.52 
L 409.132488 -47.52 
L 410.227106 -47.52 
L 411.321724 -47.52 
L 412.416342 -47.52 
L 413.51096 -47.52 
L 414.605579 -47.52 
L 415.700197 -47.52 
L 416.794815 -47.52 
L 416.794815 -47.704947 
L 416.794815 -47.704947 
L 415.700197 -47.75838 
L 414.605579 -47.825246 
L 413.51096 -47.908339 
L 412.416342 -48.010876 
L 411.321724 -48.136532 
L 410.227106 -48.289463 
L 409.132488 -48.474322 
L 408.037869 -48.696272 
L 406.943251 -48.960981 
L 405.848633 -49.274614 
L 404.754015 -49.643813 
L 403.659397 -50.075664 
L 402.564778 -50.577659 
L 401.47016 -51.157648 
L 400.375542 -51.823788 
L 399.280924 -52.584488 
L 398.186306 -53.448359 
L 397.091687 -54.424167 
L 395.997069 -55.520793 
L 394.902451 -56.747212 
L 393.807833 -58.112477 
L 392.713215 -59.625729 
L 391.618596 -61.29621 
L 390.523978 -63.133299 
L 389.42936 -65.146549 
L 388.334742 -67.345738 
L 387.240124 -69.740896 
L 386.145506 -72.342341 
L 385.050887 -75.16067 
L 383.956269 -78.206726 
L 382.861651 -81.491524 
L 381.767033 -85.026112 
L 380.672415 -88.821385 
L 379.577796 -92.887831 
L 378.483178 -97.235221 
L 377.38856 -101.872239 
L 376.293942 -106.806072 
L 375.199324 -112.041966 
L 374.104705 -117.582767 
L 373.010087 -123.428478 
L 371.915469 -129.575837 
L 370.820851 -136.017966 
L 369.726233 -142.744086 
L 368.631614 -149.739345 
L 367.536996 -156.984762 
L 366.442378 -164.457304 
L 365.34776 -172.130109 
L 364.253142 -179.972842 
L 363.158523 -187.952198 
L 362.063905 -196.032511 
L 360.969287 -204.176478 
L 359.874669 -212.345946 
L 358.780051 -220.502745 
L 357.685433 -228.609534 
L 356.590814 -236.63061 
L 355.496196 -244.532663 
L 354.401578 -252.285426 
L 353.30696 -259.862206 
L 352.212342 -267.240257 
L 351.117723 -274.400987 
L 350.023105 -281.329977 
L 348.928487 -288.016827 
L 347.833869 -294.454808 
L 346.739251 -300.64036 
L 345.644632 -306.572439 
L 344.550014 -312.251748 
L 343.455396 -317.679885 
L 342.360778 -322.858447 
L 341.26616 -327.788136 
L 340.171541 -332.467898 
L 339.076923 -336.894158 
L 337.982305 -341.060172 
L 336.887687 -344.955547 
L 335.793069 -348.565947 
L 334.69845 -351.873023 
L 333.603832 -354.854566 
L 332.509214 -357.484895 
L 331.414596 -359.735469 
L 330.319978 -361.57571 
L 329.22536 -362.974 
L 328.130741 -363.898823 
L 327.036123 -364.32 
L 325.941505 -364.209967 
L 324.846887 -363.54504 
L 323.752269 -362.306611 
L 322.65765 -360.482212 
L 321.563032 -358.066413 
L 320.468414 -355.061486 
L 319.373796 -351.477817 
L 318.279178 -347.334044 
L 317.184559 -342.656891 
L 316.089941 -337.480721 
L 314.995323 -331.846807 
L 313.900705 -325.802363 
L 312.806087 -319.399358 
L 311.711468 -312.69318 
L 310.61685 -305.741186 
L 309.522232 -298.601219 
L 308.427614 -291.330135 
L 307.332996 -283.982417 
L 306.238377 -276.608916 
L 305.143759 -269.255781 
L 304.049141 -261.963611 
L 302.954523 -254.766851 
L 301.859905 -247.693465 
L 300.765287 -240.764862 
L 299.670668 -233.996094 
L 298.57605 -227.396273 
L 297.481432 -220.969195 
L 296.386814 -214.714125 
L 295.292196 -208.626683 
L 294.197577 -202.699794 
L 293.102959 -196.924646 
L 292.008341 -191.2916 
L 290.913723 -185.791018 
L 289.819105 -180.413971 
L 288.724486 -175.1528 
L 287.629868 -170.001503 
L 286.53525 -164.955969 
L 285.440632 -160.014034 
L 284.346014 -155.175403 
L 283.251395 -150.441434 
L 282.156777 -145.81484 
L 281.062159 -141.299322 
L 279.967541 -136.89918 
L 278.872923 -132.618929 
L 277.778304 -128.46295 
L 276.683686 -124.435206 
L 275.589068 -120.539034 
L 274.49445 -116.777021 
L 273.399832 -113.150975 
L 272.305214 -109.661976 
L 271.210595 -106.310495 
L 270.115977 -103.096567 
L 269.021359 -100.019993 
L 267.926741 -97.080548 
L 266.832123 -94.27817 
L 265.737504 -91.613113 
L 264.642886 -89.086043 
L 263.548268 -86.69806 
L 262.45365 -84.450656 
L 261.359032 -82.345583 
L 260.264413 -80.384664 
L 259.169795 -78.569533 
L 258.075177 -76.901348 
L 256.980559 -75.380465 
L 255.885941 -74.00613 
L 254.791322 -72.776178 
L 253.696704 -71.686789 
L 252.602086 -70.732303 
L 251.507468 -69.905119 
L 250.41285 -69.195679 
L 249.318231 -68.592554 
L 248.223613 -68.08263 
L 247.128995 -67.651376 
L 246.034377 -67.283199 
L 244.939759 -66.961857 
L 243.845141 -66.670923 
L 242.750522 -66.394261 
L 241.655904 -66.11651 
L 240.561286 -65.823535 
L 239.466668 -65.502841 
L 238.37205 -65.143911 
L 237.277431 -64.738476 
L 236.182813 -64.280681 
L 235.088195 -63.767171 
L 233.993577 -63.197062 
L 232.898959 -62.571837 
L 231.80434 -61.895144 
L 230.709722 -61.172533 
L 229.615104 -60.411133 
L 228.520486 -59.619289 
L 227.425868 -58.806185 
L 226.331249 -57.981456 
L 225.236631 -57.154822 
L 224.142013 -56.335747 
L 223.047395 -55.533138 
L 221.952777 -54.755096 
L 220.858158 -54.008723 
L 219.76354 -53.299984 
L 218.668922 -52.633627 
L 217.574304 -52.013163 
L 216.479686 -51.440882 
L 215.385068 -50.917927 
L 214.290449 -50.444383 
L 213.195831 -50.019411 
L 212.101213 -49.64138 
L 211.006595 -49.308017 
L 209.911977 -49.016557 
L 208.817358 -48.763885 
L 207.72274 -48.546666 
L 206.628122 -48.361469 
L 205.533504 -48.204865 
L 204.438886 -48.073513 
L 203.344267 -47.964228 
L 202.249649 -47.874028 
L 201.155031 -47.80017 
L 200.060413 -47.74017 
L 198.965795 -47.691809 
z
" style="stroke: #87ceeb"/>
    </defs>
    <g clip-path="url(#pe905853664)">
     <use xlink:href="#m0c36d9746c" x="0" y="432" style="fill: #87ceeb; fill-opacity: 0.25; stroke: #87ceeb"/>
    </g>
   </g>
   <g id="PolyCollection_2">
    <defs>
     <path id="m6fc9dbd41e" d="M 92.290909 -47.701144 
L 92.290909 -47.52 
L 94.330196 -47.52 
L 96.369484 -47.52 
L 98.408771 -47.52 
L 100.448058 -47.52 
L 102.487346 -47.52 
L 104.526633 -47.52 
L 106.565921 -47.52 
L 108.605208 -47.52 
L 110.644495 -47.52 
L 112.683783 -47.52 
L 114.72307 -47.52 
L 116.762357 -47.52 
L 118.801645 -47.52 
L 120.840932 -47.52 
L 122.880219 -47.52 
L 124.919507 -47.52 
L 126.958794 -47.52 
L 128.998081 -47.52 
L 131.037369 -47.52 
L 133.076656 -47.52 
L 135.115943 -47.52 
L 137.155231 -47.52 
L 139.194518 -47.52 
L 141.233805 -47.52 
L 143.273093 -47.52 
L 145.31238 -47.52 
L 147.351667 -47.52 
L 149.390955 -47.52 
L 151.430242 -47.52 
L 153.469529 -47.52 
L 155.508817 -47.52 
L 157.548104 -47.52 
L 159.587392 -47.52 
L 161.626679 -47.52 
L 163.665966 -47.52 
L 165.705254 -47.52 
L 167.744541 -47.52 
L 169.783828 -47.52 
L 171.823116 -47.52 
L 173.862403 -47.52 
L 175.90169 -47.52 
L 177.940978 -47.52 
L 179.980265 -47.52 
L 182.019552 -47.52 
L 184.05884 -47.52 
L 186.098127 -47.52 
L 188.137414 -47.52 
L 190.176702 -47.52 
L 192.215989 -47.52 
L 194.255276 -47.52 
L 196.294564 -47.52 
L 198.333851 -47.52 
L 200.373138 -47.52 
L 202.412426 -47.52 
L 204.451713 -47.52 
L 206.491 -47.52 
L 208.530288 -47.52 
L 210.569575 -47.52 
L 212.608862 -47.52 
L 214.64815 -47.52 
L 216.687437 -47.52 
L 218.726725 -47.52 
L 220.766012 -47.52 
L 222.805299 -47.52 
L 224.844587 -47.52 
L 226.883874 -47.52 
L 228.923161 -47.52 
L 230.962449 -47.52 
L 233.001736 -47.52 
L 235.041023 -47.52 
L 237.080311 -47.52 
L 239.119598 -47.52 
L 241.158885 -47.52 
L 243.198173 -47.52 
L 245.23746 -47.52 
L 247.276747 -47.52 
L 249.316035 -47.52 
L 251.355322 -47.52 
L 253.394609 -47.52 
L 255.433897 -47.52 
L 257.473184 -47.52 
L 259.512471 -47.52 
L 261.551759 -47.52 
L 263.591046 -47.52 
L 265.630333 -47.52 
L 267.669621 -47.52 
L 269.708908 -47.52 
L 271.748196 -47.52 
L 273.787483 -47.52 
L 275.82677 -47.52 
L 277.866058 -47.52 
L 279.905345 -47.52 
L 281.944632 -47.52 
L 283.98392 -47.52 
L 286.023207 -47.52 
L 288.062494 -47.52 
L 290.101782 -47.52 
L 292.141069 -47.52 
L 294.180356 -47.52 
L 296.219644 -47.52 
L 298.258931 -47.52 
L 300.298218 -47.52 
L 302.337506 -47.52 
L 304.376793 -47.52 
L 306.41608 -47.52 
L 308.455368 -47.52 
L 310.494655 -47.52 
L 312.533942 -47.52 
L 314.57323 -47.52 
L 316.612517 -47.52 
L 318.651804 -47.52 
L 320.691092 -47.52 
L 322.730379 -47.52 
L 324.769667 -47.52 
L 326.808954 -47.52 
L 328.848241 -47.52 
L 330.887529 -47.52 
L 332.926816 -47.52 
L 334.966103 -47.52 
L 337.005391 -47.52 
L 339.044678 -47.52 
L 341.083965 -47.52 
L 343.123253 -47.52 
L 345.16254 -47.52 
L 347.201827 -47.52 
L 349.241115 -47.52 
L 351.280402 -47.52 
L 353.319689 -47.52 
L 355.358977 -47.52 
L 357.398264 -47.52 
L 359.437551 -47.52 
L 361.476839 -47.52 
L 363.516126 -47.52 
L 365.555413 -47.52 
L 367.594701 -47.52 
L 369.633988 -47.52 
L 371.673275 -47.52 
L 373.712563 -47.52 
L 375.75185 -47.52 
L 377.791138 -47.52 
L 379.830425 -47.52 
L 381.869712 -47.52 
L 383.909 -47.52 
L 385.948287 -47.52 
L 387.987574 -47.52 
L 390.026862 -47.52 
L 392.066149 -47.52 
L 394.105436 -47.52 
L 396.144724 -47.52 
L 398.184011 -47.52 
L 400.223298 -47.52 
L 402.262586 -47.52 
L 404.301873 -47.52 
L 406.34116 -47.52 
L 408.380448 -47.52 
L 410.419735 -47.52 
L 412.459022 -47.52 
L 414.49831 -47.52 
L 416.537597 -47.52 
L 418.576884 -47.52 
L 420.616172 -47.52 
L 422.655459 -47.52 
L 424.694746 -47.52 
L 426.734034 -47.52 
L 428.773321 -47.52 
L 430.812608 -47.52 
L 432.851896 -47.52 
L 434.891183 -47.52 
L 436.930471 -47.52 
L 438.969758 -47.52 
L 441.009045 -47.52 
L 443.048333 -47.52 
L 445.08762 -47.52 
L 447.126907 -47.52 
L 449.166195 -47.52 
L 451.205482 -47.52 
L 453.244769 -47.52 
L 455.284057 -47.52 
L 457.323344 -47.52 
L 459.362631 -47.52 
L 461.401919 -47.52 
L 463.441206 -47.52 
L 465.480493 -47.52 
L 467.519781 -47.52 
L 469.559068 -47.52 
L 471.598355 -47.52 
L 473.637643 -47.52 
L 475.67693 -47.52 
L 477.716217 -47.52 
L 479.755505 -47.52 
L 481.794792 -47.52 
L 483.834079 -47.52 
L 485.873367 -47.52 
L 487.912654 -47.52 
L 489.951942 -47.52 
L 491.991229 -47.52 
L 494.030516 -47.52 
L 496.069804 -47.52 
L 498.109091 -47.52 
L 498.109091 -47.797599 
L 498.109091 -47.797599 
L 496.069804 -47.859114 
L 494.030516 -47.932505 
L 491.991229 -48.019651 
L 489.951942 -48.122646 
L 487.912654 -48.243796 
L 485.873367 -48.38563 
L 483.834079 -48.550888 
L 481.794792 -48.742523 
L 479.755505 -48.963684 
L 477.716217 -49.217695 
L 475.67693 -49.508032 
L 473.637643 -49.838286 
L 471.598355 -50.212124 
L 469.559068 -50.633237 
L 467.519781 -51.105285 
L 465.480493 -51.631833 
L 463.441206 -52.21628 
L 461.401919 -52.861784 
L 459.362631 -53.571185 
L 457.323344 -54.346922 
L 455.284057 -55.190955 
L 453.244769 -56.104689 
L 451.205482 -57.0889 
L 449.166195 -58.143675 
L 447.126907 -59.268355 
L 445.08762 -60.461501 
L 443.048333 -61.720868 
L 441.009045 -63.0434 
L 438.969758 -64.425252 
L 436.930471 -65.861819 
L 434.891183 -67.347803 
L 432.851896 -68.877292 
L 430.812608 -70.443863 
L 428.773321 -72.04071 
L 426.734034 -73.660781 
L 424.694746 -75.296941 
L 422.655459 -76.942135 
L 420.616172 -78.589566 
L 418.576884 -80.232872 
L 416.537597 -81.866299 
L 414.49831 -83.484872 
L 412.459022 -85.084542 
L 410.419735 -86.662325 
L 408.380448 -88.216414 
L 406.34116 -89.746264 
L 404.301873 -91.252647 
L 402.262586 -92.737676 
L 400.223298 -94.204797 
L 398.184011 -95.658743 
L 396.144724 -97.105455 
L 394.105436 -98.551978 
L 392.066149 -100.006319 
L 390.026862 -101.477284 
L 387.987574 -102.974292 
L 385.948287 -104.507171 
L 383.909 -106.085944 
L 381.869712 -107.720601 
L 379.830425 -109.420879 
L 377.791138 -111.196029 
L 375.75185 -113.054609 
L 373.712563 -115.004269 
L 371.673275 -117.051565 
L 369.633988 -119.201786 
L 367.594701 -121.458799 
L 365.555413 -123.824925 
L 363.516126 -126.300835 
L 361.476839 -128.885473 
L 359.437551 -131.576008 
L 357.398264 -134.367817 
L 355.358977 -137.254492 
L 353.319689 -140.227879 
L 351.280402 -143.278142 
L 349.241115 -146.393863 
L 347.201827 -149.562157 
L 345.16254 -152.76882 
L 343.123253 -155.998501 
L 341.083965 -159.234891 
L 339.044678 -162.460934 
L 337.005391 -165.659051 
L 334.966103 -168.811372 
L 332.926816 -171.899986 
L 330.887529 -174.907175 
L 328.848241 -177.815662 
L 326.808954 -180.608836 
L 324.769667 -183.270974 
L 322.730379 -185.78743 
L 320.691092 -188.144812 
L 318.651804 -190.331117 
L 316.612517 -192.335845 
L 314.57323 -194.150062 
L 312.533942 -195.766439 
L 310.494655 -197.179241 
L 308.455368 -198.384286 
L 306.41608 -199.378867 
L 304.376793 -200.161638 
L 302.337506 -200.73248 
L 300.298218 -201.092342 
L 298.258931 -201.243068 
L 296.219644 -201.18722 
L 294.180356 -200.9279 
L 292.141069 -200.468581 
L 290.101782 -199.812956 
L 288.062494 -198.964804 
L 286.023207 -197.92789 
L 283.98392 -196.705893 
L 281.944632 -195.302372 
L 279.905345 -193.720761 
L 277.866058 -191.964409 
L 275.82677 -190.036646 
L 273.787483 -187.940882 
L 271.748196 -185.680726 
L 269.708908 -183.260132 
L 267.669621 -180.683546 
L 265.630333 -177.956064 
L 263.591046 -175.083579 
L 261.551759 -172.072924 
L 259.512471 -168.931983 
L 257.473184 -165.66979 
L 255.433897 -162.296579 
L 253.394609 -158.823815 
L 251.355322 -155.264168 
L 249.316035 -151.631457 
L 247.276747 -147.94055 
L 245.23746 -144.207221 
L 243.198173 -140.447974 
L 241.158885 -136.679835 
L 239.119598 -132.920112 
L 237.080311 -129.186145 
L 235.041023 -125.495037 
L 233.001736 -121.863379 
L 230.962449 -118.306987 
L 228.923161 -114.840641 
L 226.883874 -111.477848 
L 224.844587 -108.230629 
L 222.805299 -105.109341 
L 220.766012 -102.122529 
L 218.726725 -99.276823 
L 216.687437 -96.576879 
L 214.64815 -94.025361 
L 212.608862 -91.622965 
L 210.569575 -89.368493 
L 208.530288 -87.258957 
L 206.491 -85.289728 
L 204.451713 -83.45471 
L 202.412426 -81.74654 
L 200.373138 -80.156815 
L 198.333851 -78.676322 
L 196.294564 -77.295283 
L 194.255276 -76.003594 
L 192.215989 -74.791062 
L 190.176702 -73.64763 
L 188.137414 -72.563582 
L 186.098127 -71.529727 
L 184.05884 -70.537557 
L 182.019552 -69.579382 
L 179.980265 -68.648427 
L 177.940978 -67.7389 
L 175.90169 -66.846037 
L 173.862403 -65.966104 
L 171.823116 -65.096384 
L 169.783828 -64.235131 
L 167.744541 -63.381501 
L 165.705254 -62.535474 
L 163.665966 -61.697749 
L 161.626679 -60.869635 
L 159.587392 -60.052938 
L 157.548104 -59.249838 
L 155.508817 -58.462775 
L 153.469529 -57.694331 
L 151.430242 -56.947127 
L 149.390955 -56.223728 
L 147.351667 -55.526553 
L 145.31238 -54.857807 
L 143.273093 -54.219422 
L 141.233805 -53.613013 
L 139.194518 -53.039845 
L 137.155231 -52.50082 
L 135.115943 -51.996468 
L 133.076656 -51.526955 
L 131.037369 -51.092098 
L 128.998081 -50.691389 
L 126.958794 -50.324023 
L 124.919507 -49.988935 
L 122.880219 -49.684837 
L 120.840932 -49.410254 
L 118.801645 -49.16357 
L 116.762357 -48.943059 
L 114.72307 -48.746928 
L 112.683783 -48.573349 
L 110.644495 -48.420489 
L 108.605208 -48.286537 
L 106.565921 -48.169732 
L 104.526633 -48.068376 
L 102.487346 -47.980853 
L 100.448058 -47.905643 
L 98.408771 -47.841325 
L 96.369484 -47.786587 
L 94.330196 -47.740224 
L 92.290909 -47.701144 
z
" style="stroke: #fa8072"/>
    </defs>
    <g clip-path="url(#pe905853664)">
     <use xlink:href="#m6fc9dbd41e" x="0" y="432" style="fill: #fa8072; fill-opacity: 0.25; stroke: #fa8072"/>
    </g>
   </g>
   <g id="matplotlib.axis_1">
    <g id="xtick_1">
     <g id="line2d_1">
      <defs>
       <path id="mb07fcfc3f0" d="M 0 0 
L 0 3.5 
" style="stroke: #000000; stroke-width: 0.8"/>
      </defs>
      <g>
       <use xlink:href="#mb07fcfc3f0" x="100.76866" y="384.48" style="stroke: #000000; stroke-width: 0.8"/>
      </g>
     </g>
     <g id="text_1">
      <!-- −25 -->
      <g transform="translate(92.28741 398.653437) scale(0.1 -0.1)">
       <defs>
        <path id="Helvetica-2212" d="M 3547 1894 
L 3547 1369 
L 288 1369 
L 288 1894 
L 3547 1894 
z
" transform="scale(0.015625)"/>
        <path id="Helvetica-32" d="M 200 0 
Q 231 578 439 1006 
Q 647 1434 1250 1784 
L 1850 2131 
Q 2253 2366 2416 2531 
Q 2672 2791 2672 3125 
Q 2672 3516 2437 3745 
Q 2203 3975 1813 3975 
Q 1234 3975 1013 3538 
Q 894 3303 881 2888 
L 309 2888 
Q 319 3472 525 3841 
Q 891 4491 1816 4491 
Q 2584 4491 2939 4075 
Q 3294 3659 3294 3150 
Q 3294 2613 2916 2231 
Q 2697 2009 2131 1694 
L 1703 1456 
Q 1397 1288 1222 1134 
Q 909 863 828 531 
L 3272 531 
L 3272 0 
L 200 0 
z
" transform="scale(0.015625)"/>
        <path id="Helvetica-35" d="M 791 1141 
Q 847 659 1238 475 
Q 1438 381 1700 381 
Q 2200 381 2440 700 
Q 2681 1019 2681 1406 
Q 2681 1875 2395 2131 
Q 2109 2388 1709 2388 
Q 1419 2388 1211 2275 
Q 1003 2163 856 1963 
L 369 1991 
L 709 4400 
L 3034 4400 
L 3034 3856 
L 1131 3856 
L 941 2613 
Q 1097 2731 1238 2791 
Q 1488 2894 1816 2894 
Q 2431 2894 2859 2497 
Q 3288 2100 3288 1491 
Q 3288 856 2895 371 
Q 2503 -113 1644 -113 
Q 1097 -113 676 195 
Q 256 503 206 1141 
L 791 1141 
z
" transform="scale(0.015625)"/>
       </defs>
       <use xlink:href="#Helvetica-2212"/>
       <use xlink:href="#Helvetica-32" x="58.398438"/>
       <use xlink:href="#Helvetica-35" x="114.013672"/>
      </g>
     </g>
    </g>
    <g id="xtick_2">
     <g id="line2d_2">
      <g>
       <use xlink:href="#mb07fcfc3f0" x="153.603263" y="384.48" style="stroke: #000000; stroke-width: 0.8"/>
      </g>
     </g>
     <g id="text_2">
      <!-- 0 -->
      <g transform="translate(150.822795 398.653437) scale(0.1 -0.1)">
       <defs>
        <path id="Helvetica-30" d="M 1731 4475 
Q 2600 4475 2988 3759 
Q 3288 3206 3288 2244 
Q 3288 1331 3016 734 
Q 2622 -122 1728 -122 
Q 922 -122 528 578 
Q 200 1163 200 2147 
Q 200 2909 397 3456 
Q 766 4475 1731 4475 
z
M 1725 391 
Q 2163 391 2422 778 
Q 2681 1166 2681 2222 
Q 2681 2984 2493 3476 
Q 2306 3969 1766 3969 
Q 1269 3969 1039 3501 
Q 809 3034 809 2125 
Q 809 1441 956 1025 
Q 1181 391 1725 391 
z
" transform="scale(0.015625)"/>
       </defs>
       <use xlink:href="#Helvetica-30"/>
      </g>
     </g>
    </g>
    <g id="xtick_3">
     <g id="line2d_3">
      <g>
       <use xlink:href="#mb07fcfc3f0" x="206.437867" y="384.48" style="stroke: #000000; stroke-width: 0.8"/>
      </g>
     </g>
     <g id="text_3">
      <!-- 25 -->
      <g transform="translate(200.876929 398.653437) scale(0.1 -0.1)">
       <use xlink:href="#Helvetica-32"/>
       <use xlink:href="#Helvetica-35" x="55.615234"/>
      </g>
     </g>
    </g>
    <g id="xtick_4">
     <g id="line2d_4">
      <g>
       <use xlink:href="#mb07fcfc3f0" x="259.27247" y="384.48" style="stroke: #000000; stroke-width: 0.8"/>
      </g>
     </g>
     <g id="text_4">
      <!-- 50 -->
      <g transform="translate(253.711532 398.653437) scale(0.1 -0.1)">
       <use xlink:href="#Helvetica-35"/>
       <use xlink:href="#Helvetica-30" x="55.615234"/>
      </g>
     </g>
    </g>
    <g id="xtick_5">
     <g id="line2d_5">
      <g>
       <use xlink:href="#mb07fcfc3f0" x="312.107073" y="384.48" style="stroke: #000000; stroke-width: 0.8"/>
      </g>
     </g>
     <g id="text_5">
      <!-- 75 -->
      <g transform="translate(306.546136 398.653437) scale(0.1 -0.1)">
       <defs>
        <path id="Helvetica-37" d="M 3347 4400 
L 3347 3909 
Q 3131 3700 2773 3181 
Q 2416 2663 2141 2063 
Q 1869 1478 1728 997 
Q 1638 688 1494 0 
L 872 0 
Q 1084 1281 1809 2550 
Q 2238 3294 2709 3834 
L 234 3834 
L 234 4400 
L 3347 4400 
z
" transform="scale(0.015625)"/>
       </defs>
       <use xlink:href="#Helvetica-37"/>
       <use xlink:href="#Helvetica-35" x="55.615234"/>
      </g>
     </g>
    </g>
    <g id="xtick_6">
     <g id="line2d_6">
      <g>
       <use xlink:href="#mb07fcfc3f0" x="364.941676" y="384.48" style="stroke: #000000; stroke-width: 0.8"/>
      </g>
     </g>
     <g id="text_6">
      <!-- 100 -->
      <g transform="translate(356.60027 398.653437) scale(0.1 -0.1)">
       <defs>
        <path id="Helvetica-31" d="M 613 3169 
L 613 3600 
Q 1222 3659 1462 3798 
Q 1703 3938 1822 4456 
L 2266 4456 
L 2266 0 
L 1666 0 
L 1666 3169 
L 613 3169 
z
" transform="scale(0.015625)"/>
       </defs>
       <use xlink:href="#Helvetica-31"/>
       <use xlink:href="#Helvetica-30" x="55.615234"/>
       <use xlink:href="#Helvetica-30" x="111.230469"/>
      </g>
     </g>
    </g>
    <g id="xtick_7">
     <g id="line2d_7">
      <g>
       <use xlink:href="#mb07fcfc3f0" x="417.776279" y="384.48" style="stroke: #000000; stroke-width: 0.8"/>
      </g>
     </g>
     <g id="text_7">
      <!-- 125 -->
      <g transform="translate(409.434873 398.653437) scale(0.1 -0.1)">
       <use xlink:href="#Helvetica-31"/>
       <use xlink:href="#Helvetica-32" x="55.615234"/>
       <use xlink:href="#Helvetica-35" x="111.230469"/>
      </g>
     </g>
    </g>
    <g id="xtick_8">
     <g id="line2d_8">
      <g>
       <use xlink:href="#mb07fcfc3f0" x="470.610883" y="384.48" style="stroke: #000000; stroke-width: 0.8"/>
      </g>
     </g>
     <g id="text_8">
      <!-- 150 -->
      <g transform="translate(462.269476 398.653437) scale(0.1 -0.1)">
       <use xlink:href="#Helvetica-31"/>
       <use xlink:href="#Helvetica-35" x="55.615234"/>
       <use xlink:href="#Helvetica-30" x="111.230469"/>
      </g>
     </g>
    </g>
    <g id="text_9">
     <!-- Diastolic BP -->
     <g transform="translate(268.246875 411.91125) scale(0.1 -0.1)">
      <defs>
       <path id="Helvetica-44" d="M 2250 531 
Q 2566 531 2769 597 
Q 3131 719 3363 1066 
Q 3547 1344 3628 1778 
Q 3675 2038 3675 2259 
Q 3675 3113 3336 3584 
Q 2997 4056 2244 4056 
L 1141 4056 
L 1141 531 
L 2250 531 
z
M 516 4591 
L 2375 4591 
Q 3322 4591 3844 3919 
Q 4309 3313 4309 2366 
Q 4309 1634 4034 1044 
Q 3550 0 2369 0 
L 516 0 
L 516 4591 
z
" transform="scale(0.015625)"/>
       <path id="Helvetica-69" d="M 413 3331 
L 984 3331 
L 984 0 
L 413 0 
L 413 3331 
z
M 413 4591 
L 984 4591 
L 984 3953 
L 413 3953 
L 413 4591 
z
" transform="scale(0.015625)"/>
       <path id="Helvetica-61" d="M 844 891 
Q 844 647 1022 506 
Q 1200 366 1444 366 
Q 1741 366 2019 503 
Q 2488 731 2488 1250 
L 2488 1703 
Q 2384 1638 2221 1594 
Q 2059 1550 1903 1531 
L 1563 1488 
Q 1256 1447 1103 1359 
Q 844 1213 844 891 
z
M 2206 2028 
Q 2400 2053 2466 2191 
Q 2503 2266 2503 2406 
Q 2503 2694 2298 2823 
Q 2094 2953 1713 2953 
Q 1272 2953 1088 2716 
Q 984 2584 953 2325 
L 428 2325 
Q 444 2944 830 3186 
Q 1216 3428 1725 3428 
Q 2316 3428 2684 3203 
Q 3050 2978 3050 2503 
L 3050 575 
Q 3050 488 3086 434 
Q 3122 381 3238 381 
Q 3275 381 3322 386 
Q 3369 391 3422 400 
L 3422 -16 
Q 3291 -53 3222 -62 
Q 3153 -72 3034 -72 
Q 2744 -72 2613 134 
Q 2544 244 2516 444 
Q 2344 219 2022 53 
Q 1700 -113 1313 -113 
Q 847 -113 551 170 
Q 256 453 256 878 
Q 256 1344 547 1600 
Q 838 1856 1309 1916 
L 2206 2028 
z
M 1741 3428 
L 1741 3428 
z
" transform="scale(0.015625)"/>
       <path id="Helvetica-73" d="M 747 1050 
Q 772 769 888 619 
Q 1100 347 1625 347 
Q 1938 347 2175 483 
Q 2413 619 2413 903 
Q 2413 1119 2222 1231 
Q 2100 1300 1741 1391 
L 1294 1503 
Q 866 1609 663 1741 
Q 300 1969 300 2372 
Q 300 2847 642 3140 
Q 984 3434 1563 3434 
Q 2319 3434 2653 2991 
Q 2863 2709 2856 2384 
L 2325 2384 
Q 2309 2575 2191 2731 
Q 1997 2953 1519 2953 
Q 1200 2953 1036 2831 
Q 872 2709 872 2509 
Q 872 2291 1088 2159 
Q 1213 2081 1456 2022 
L 1828 1931 
Q 2434 1784 2641 1647 
Q 2969 1431 2969 969 
Q 2969 522 2630 197 
Q 2291 -128 1597 -128 
Q 850 -128 539 211 
Q 228 550 206 1050 
L 747 1050 
z
M 1578 3428 
L 1578 3428 
z
" transform="scale(0.015625)"/>
       <path id="Helvetica-74" d="M 525 4281 
L 1094 4281 
L 1094 3347 
L 1628 3347 
L 1628 2888 
L 1094 2888 
L 1094 703 
Q 1094 528 1213 469 
Q 1278 434 1431 434 
Q 1472 434 1519 436 
Q 1566 438 1628 444 
L 1628 0 
Q 1531 -28 1426 -40 
Q 1322 -53 1200 -53 
Q 806 -53 665 148 
Q 525 350 525 672 
L 525 2888 
L 72 2888 
L 72 3347 
L 525 3347 
L 525 4281 
z
" transform="scale(0.015625)"/>
       <path id="Helvetica-6f" d="M 1741 363 
Q 2300 363 2508 786 
Q 2716 1209 2716 1728 
Q 2716 2197 2566 2491 
Q 2328 2953 1747 2953 
Q 1231 2953 997 2559 
Q 763 2166 763 1609 
Q 763 1075 997 719 
Q 1231 363 1741 363 
z
M 1763 3444 
Q 2409 3444 2856 3012 
Q 3303 2581 3303 1744 
Q 3303 934 2909 406 
Q 2516 -122 1688 -122 
Q 997 -122 590 345 
Q 184 813 184 1600 
Q 184 2444 612 2944 
Q 1041 3444 1763 3444 
z
M 1744 3428 
L 1744 3428 
z
" transform="scale(0.015625)"/>
       <path id="Helvetica-6c" d="M 428 4591 
L 991 4591 
L 991 0 
L 428 0 
L 428 4591 
z
" transform="scale(0.015625)"/>
       <path id="Helvetica-63" d="M 1703 3444 
Q 2269 3444 2623 3169 
Q 2978 2894 3050 2222 
L 2503 2222 
Q 2453 2531 2275 2736 
Q 2097 2941 1703 2941 
Q 1166 2941 934 2416 
Q 784 2075 784 1575 
Q 784 1072 996 728 
Q 1209 384 1666 384 
Q 2016 384 2220 598 
Q 2425 813 2503 1184 
L 3050 1184 
Q 2956 519 2581 211 
Q 2206 -97 1622 -97 
Q 966 -97 575 383 
Q 184 863 184 1581 
Q 184 2463 612 2953 
Q 1041 3444 1703 3444 
z
M 1616 3428 
L 1616 3428 
z
" transform="scale(0.015625)"/>
       <path id="Helvetica-20" transform="scale(0.015625)"/>
       <path id="Helvetica-42" d="M 2213 2650 
Q 2606 2650 2825 2759 
Q 3169 2931 3169 3378 
Q 3169 3828 2803 3984 
Q 2597 4072 2191 4072 
L 1081 4072 
L 1081 2650 
L 2213 2650 
z
M 2422 531 
Q 2994 531 3238 863 
Q 3391 1072 3391 1369 
Q 3391 1869 2944 2050 
Q 2706 2147 2316 2147 
L 1081 2147 
L 1081 531 
L 2422 531 
z
M 472 4591 
L 2444 4591 
Q 3250 4591 3591 4109 
Q 3791 3825 3791 3453 
Q 3791 3019 3544 2741 
Q 3416 2594 3175 2472 
Q 3528 2338 3703 2169 
Q 4013 1869 4013 1341 
Q 4013 897 3734 538 
Q 3319 0 2413 0 
L 472 0 
L 472 4591 
z
" transform="scale(0.015625)"/>
       <path id="Helvetica-50" d="M 547 4591 
L 2613 4591 
Q 3225 4591 3600 4245 
Q 3975 3900 3975 3275 
Q 3975 2738 3640 2339 
Q 3306 1941 2613 1941 
L 1169 1941 
L 1169 0 
L 547 0 
L 547 4591 
z
M 3347 3272 
Q 3347 3778 2972 3959 
Q 2766 4056 2406 4056 
L 1169 4056 
L 1169 2466 
L 2406 2466 
Q 2825 2466 3086 2644 
Q 3347 2822 3347 3272 
z
" transform="scale(0.015625)"/>
      </defs>
      <use xlink:href="#Helvetica-44"/>
      <use xlink:href="#Helvetica-69" x="72.216797"/>
      <use xlink:href="#Helvetica-61" x="94.433594"/>
      <use xlink:href="#Helvetica-73" x="150.048828"/>
      <use xlink:href="#Helvetica-74" x="200.048828"/>
      <use xlink:href="#Helvetica-6f" x="227.832031"/>
      <use xlink:href="#Helvetica-6c" x="283.447266"/>
      <use xlink:href="#Helvetica-69" x="305.664062"/>
      <use xlink:href="#Helvetica-63" x="327.880859"/>
      <use xlink:href="#Helvetica-20" x="377.880859"/>
      <use xlink:href="#Helvetica-42" x="405.664062"/>
      <use xlink:href="#Helvetica-50" x="472.363281"/>
     </g>
    </g>
   </g>
   <g id="matplotlib.axis_2">
    <g id="ytick_1">
     <g id="line2d_9">
      <defs>
       <path id="ma5906f56bb" d="M 0 0 
L -3.5 0 
" style="stroke: #000000; stroke-width: 0.8"/>
      </defs>
      <g>
       <use xlink:href="#ma5906f56bb" x="72" y="384.48" style="stroke: #000000; stroke-width: 0.8"/>
      </g>
     </g>
     <g id="text_10">
      <!-- 0.000 -->
      <g transform="translate(39.978125 388.066719) scale(0.1 -0.1)">
       <defs>
        <path id="Helvetica-2e" d="M 547 681 
L 1200 681 
L 1200 0 
L 547 0 
L 547 681 
z
" transform="scale(0.015625)"/>
       </defs>
       <use xlink:href="#Helvetica-30"/>
       <use xlink:href="#Helvetica-2e" x="55.615234"/>
       <use xlink:href="#Helvetica-30" x="83.398438"/>
       <use xlink:href="#Helvetica-30" x="139.013672"/>
       <use xlink:href="#Helvetica-30" x="194.628906"/>
      </g>
     </g>
    </g>
    <g id="ytick_2">
     <g id="line2d_10">
      <g>
       <use xlink:href="#ma5906f56bb" x="72" y="330.598289" style="stroke: #000000; stroke-width: 0.8"/>
      </g>
     </g>
     <g id="text_11">
      <!-- 0.005 -->
      <g transform="translate(39.978125 334.185008) scale(0.1 -0.1)">
       <use xlink:href="#Helvetica-30"/>
       <use xlink:href="#Helvetica-2e" x="55.615234"/>
       <use xlink:href="#Helvetica-30" x="83.398438"/>
       <use xlink:href="#Helvetica-30" x="139.013672"/>
       <use xlink:href="#Helvetica-35" x="194.628906"/>
      </g>
     </g>
    </g>
    <g id="ytick_3">
     <g id="line2d_11">
      <g>
       <use xlink:href="#ma5906f56bb" x="72" y="276.716579" style="stroke: #000000; stroke-width: 0.8"/>
      </g>
     </g>
     <g id="text_12">
      <!-- 0.010 -->
      <g transform="translate(39.978125 280.303298) scale(0.1 -0.1)">
       <use xlink:href="#Helvetica-30"/>
       <use xlink:href="#Helvetica-2e" x="55.615234"/>
       <use xlink:href="#Helvetica-30" x="83.398438"/>
       <use xlink:href="#Helvetica-31" x="139.013672"/>
       <use xlink:href="#Helvetica-30" x="194.628906"/>
      </g>
     </g>
    </g>
    <g id="ytick_4">
     <g id="line2d_12">
      <g>
       <use xlink:href="#ma5906f56bb" x="72" y="222.834868" style="stroke: #000000; stroke-width: 0.8"/>
      </g>
     </g>
     <g id="text_13">
      <!-- 0.015 -->
      <g transform="translate(39.978125 226.421587) scale(0.1 -0.1)">
       <use xlink:href="#Helvetica-30"/>
       <use xlink:href="#Helvetica-2e" x="55.615234"/>
       <use xlink:href="#Helvetica-30" x="83.398438"/>
       <use xlink:href="#Helvetica-31" x="139.013672"/>
       <use xlink:href="#Helvetica-35" x="194.628906"/>
      </g>
     </g>
    </g>
    <g id="ytick_5">
     <g id="line2d_13">
      <g>
       <use xlink:href="#ma5906f56bb" x="72" y="168.953158" style="stroke: #000000; stroke-width: 0.8"/>
      </g>
     </g>
     <g id="text_14">
      <!-- 0.020 -->
      <g transform="translate(39.978125 172.539876) scale(0.1 -0.1)">
       <use xlink:href="#Helvetica-30"/>
       <use xlink:href="#Helvetica-2e" x="55.615234"/>
       <use xlink:href="#Helvetica-30" x="83.398438"/>
       <use xlink:href="#Helvetica-32" x="139.013672"/>
       <use xlink:href="#Helvetica-30" x="194.628906"/>
      </g>
     </g>
    </g>
    <g id="ytick_6">
     <g id="line2d_14">
      <g>
       <use xlink:href="#ma5906f56bb" x="72" y="115.071447" style="stroke: #000000; stroke-width: 0.8"/>
      </g>
     </g>
     <g id="text_15">
      <!-- 0.025 -->
      <g transform="translate(39.978125 118.658166) scale(0.1 -0.1)">
       <use xlink:href="#Helvetica-30"/>
       <use xlink:href="#Helvetica-2e" x="55.615234"/>
       <use xlink:href="#Helvetica-30" x="83.398438"/>
       <use xlink:href="#Helvetica-32" x="139.013672"/>
       <use xlink:href="#Helvetica-35" x="194.628906"/>
      </g>
     </g>
    </g>
    <g id="ytick_7">
     <g id="line2d_15">
      <g>
       <use xlink:href="#ma5906f56bb" x="72" y="61.189737" style="stroke: #000000; stroke-width: 0.8"/>
      </g>
     </g>
     <g id="text_16">
      <!-- 0.030 -->
      <g transform="translate(39.978125 64.776455) scale(0.1 -0.1)">
       <defs>
        <path id="Helvetica-33" d="M 1663 -122 
Q 869 -122 511 314 
Q 153 750 153 1375 
L 741 1375 
Q 778 941 903 744 
Q 1122 391 1694 391 
Q 2138 391 2406 628 
Q 2675 866 2675 1241 
Q 2675 1703 2392 1887 
Q 2109 2072 1606 2072 
Q 1550 2072 1492 2070 
Q 1434 2069 1375 2066 
L 1375 2563 
Q 1463 2553 1522 2550 
Q 1581 2547 1650 2547 
Q 1966 2547 2169 2647 
Q 2525 2822 2525 3272 
Q 2525 3606 2287 3787 
Q 2050 3969 1734 3969 
Q 1172 3969 956 3594 
Q 838 3388 822 3006 
L 266 3006 
Q 266 3506 466 3856 
Q 809 4481 1675 4481 
Q 2359 4481 2734 4176 
Q 3109 3872 3109 3294 
Q 3109 2881 2888 2625 
Q 2750 2466 2531 2375 
Q 2884 2278 3082 2001 
Q 3281 1725 3281 1325 
Q 3281 684 2859 281 
Q 2438 -122 1663 -122 
z
" transform="scale(0.015625)"/>
       </defs>
       <use xlink:href="#Helvetica-30"/>
       <use xlink:href="#Helvetica-2e" x="55.615234"/>
       <use xlink:href="#Helvetica-30" x="83.398438"/>
       <use xlink:href="#Helvetica-33" x="139.013672"/>
       <use xlink:href="#Helvetica-30" x="194.628906"/>
      </g>
     </g>
    </g>
    <g id="text_17">
     <!-- Density -->
     <g transform="translate(33.834375 234.831875) rotate(-90) scale(0.1 -0.1)">
      <defs>
       <path id="Helvetica-65" d="M 1806 3422 
Q 2163 3422 2497 3255 
Q 2831 3088 3006 2822 
Q 3175 2569 3231 2231 
Q 3281 2000 3281 1494 
L 828 1494 
Q 844 984 1069 676 
Q 1294 369 1766 369 
Q 2206 369 2469 659 
Q 2619 828 2681 1050 
L 3234 1050 
Q 3213 866 3089 639 
Q 2966 413 2813 269 
Q 2556 19 2178 -69 
Q 1975 -119 1719 -119 
Q 1094 -119 659 336 
Q 225 791 225 1609 
Q 225 2416 662 2919 
Q 1100 3422 1806 3422 
z
M 2703 1941 
Q 2669 2306 2544 2525 
Q 2313 2931 1772 2931 
Q 1384 2931 1121 2651 
Q 859 2372 844 1941 
L 2703 1941 
z
M 1753 3428 
L 1753 3428 
z
" transform="scale(0.015625)"/>
       <path id="Helvetica-6e" d="M 413 3347 
L 947 3347 
L 947 2872 
Q 1184 3166 1450 3294 
Q 1716 3422 2041 3422 
Q 2753 3422 3003 2925 
Q 3141 2653 3141 2147 
L 3141 0 
L 2569 0 
L 2569 2109 
Q 2569 2416 2478 2603 
Q 2328 2916 1934 2916 
Q 1734 2916 1606 2875 
Q 1375 2806 1200 2600 
Q 1059 2434 1017 2257 
Q 975 2081 975 1753 
L 975 0 
L 413 0 
L 413 3347 
z
M 1734 3428 
L 1734 3428 
z
" transform="scale(0.015625)"/>
       <path id="Helvetica-79" d="M 2503 3347 
L 3125 3347 
Q 3006 3025 2597 1878 
Q 2291 1016 2084 472 
Q 1597 -809 1397 -1090 
Q 1197 -1372 709 -1372 
Q 591 -1372 527 -1362 
Q 463 -1353 369 -1328 
L 369 -816 
Q 516 -856 581 -865 
Q 647 -875 697 -875 
Q 853 -875 926 -823 
Q 1000 -772 1050 -697 
Q 1066 -672 1162 -440 
Q 1259 -209 1303 -97 
L 66 3347 
L 703 3347 
L 1600 622 
L 2503 3347 
z
M 1597 3428 
L 1597 3428 
z
" transform="scale(0.015625)"/>
      </defs>
      <use xlink:href="#Helvetica-44"/>
      <use xlink:href="#Helvetica-65" x="72.216797"/>
      <use xlink:href="#Helvetica-6e" x="127.832031"/>
      <use xlink:href="#Helvetica-73" x="183.447266"/>
      <use xlink:href="#Helvetica-69" x="233.447266"/>
      <use xlink:href="#Helvetica-74" x="255.664062"/>
      <use xlink:href="#Helvetica-79" x="283.447266"/>
     </g>
    </g>
   </g>
   <g id="patch_3">
    <path d="M 72 384.48 
L 72 51.84 
" style="fill: none; stroke: #000000; stroke-width: 0.8; stroke-linejoin: miter; stroke-linecap: square"/>
   </g>
   <g id="patch_4">
    <path d="M 518.4 384.48 
L 518.4 51.84 
" style="fill: none; stroke: #000000; stroke-width: 0.8; stroke-linejoin: miter; stroke-linecap: square"/>
   </g>
   <g id="patch_5">
    <path d="M 72 384.48 
L 518.4 384.48 
" style="fill: none; stroke: #000000; stroke-width: 0.8; stroke-linejoin: miter; stroke-linecap: square"/>
   </g>
   <g id="patch_6">
    <path d="M 72 51.84 
L 518.4 51.84 
" style="fill: none; stroke: #000000; stroke-width: 0.8; stroke-linejoin: miter; stroke-linecap: square"/>
   </g>
   <g id="legend_1">
    <g id="patch_7">
     <path d="M 434.373437 88.355625 
L 511.4 88.355625 
Q 513.4 88.355625 513.4 86.355625 
L 513.4 58.84 
Q 513.4 56.84 511.4 56.84 
L 434.373437 56.84 
Q 432.373437 56.84 432.373437 58.84 
L 432.373437 86.355625 
Q 432.373437 88.355625 434.373437 88.355625 
z
" style="fill: #ffffff; opacity: 0.8; stroke: #cccccc; stroke-linejoin: miter"/>
    </g>
    <g id="patch_8">
     <path d="M 436.373437 68.013437 
L 456.373437 68.013437 
L 456.373437 61.013437 
L 436.373437 61.013437 
z
" style="fill: #87ceeb; fill-opacity: 0.25; stroke: #87ceeb; stroke-linejoin: miter"/>
    </g>
    <g id="text_18">
     <!-- Alive -->
     <g transform="translate(464.373437 68.013437) scale(0.1 -0.1)">
      <defs>
       <path id="Helvetica-41" d="M 2844 1881 
L 2147 3909 
L 1406 1881 
L 2844 1881 
z
M 1822 4591 
L 2525 4591 
L 4191 0 
L 3509 0 
L 3044 1375 
L 1228 1375 
L 731 0 
L 94 0 
L 1822 4591 
z
" transform="scale(0.015625)"/>
       <path id="Helvetica-76" d="M 688 3347 
L 1581 622 
L 2516 3347 
L 3131 3347 
L 1869 0 
L 1269 0 
L 34 3347 
L 688 3347 
z
" transform="scale(0.015625)"/>
      </defs>
      <use xlink:href="#Helvetica-41"/>
      <use xlink:href="#Helvetica-6c" x="66.699219"/>
      <use xlink:href="#Helvetica-69" x="88.916016"/>
      <use xlink:href="#Helvetica-76" x="111.132812"/>
      <use xlink:href="#Helvetica-65" x="161.132812"/>
     </g>
    </g>
    <g id="patch_9">
     <path d="M 436.373437 82.27125 
L 456.373437 82.27125 
L 456.373437 75.27125 
L 436.373437 75.27125 
z
" style="fill: #fa8072; fill-opacity: 0.25; stroke: #fa8072; stroke-linejoin: miter"/>
    </g>
    <g id="text_19">
     <!-- Deceased -->
     <g transform="translate(464.373437 82.27125) scale(0.1 -0.1)">
      <defs>
       <path id="Helvetica-64" d="M 769 1634 
Q 769 1097 997 734 
Q 1225 372 1728 372 
Q 2119 372 2370 708 
Q 2622 1044 2622 1672 
Q 2622 2306 2362 2611 
Q 2103 2916 1722 2916 
Q 1297 2916 1033 2591 
Q 769 2266 769 1634 
z
M 1616 3406 
Q 2000 3406 2259 3244 
Q 2409 3150 2600 2916 
L 2600 4606 
L 3141 4606 
L 3141 0 
L 2634 0 
L 2634 466 
Q 2438 156 2169 18 
Q 1900 -119 1553 -119 
Q 994 -119 584 351 
Q 175 822 175 1603 
Q 175 2334 548 2870 
Q 922 3406 1616 3406 
z
" transform="scale(0.015625)"/>
      </defs>
      <use xlink:href="#Helvetica-44"/>
      <use xlink:href="#Helvetica-65" x="72.216797"/>
      <use xlink:href="#Helvetica-63" x="127.832031"/>
      <use xlink:href="#Helvetica-65" x="177.832031"/>
      <use xlink:href="#Helvetica-61" x="233.447266"/>
      <use xlink:href="#Helvetica-73" x="289.0625"/>
      <use xlink:href="#Helvetica-65" x="339.0625"/>
      <use xlink:href="#Helvetica-64" x="394.677734"/>
     </g>
    </g>
   </g>
  </g>
 </g>
 <defs>
  <clipPath id="pe905853664">
   <rect x="72" y="51.84" width="446.4" height="332.64"/>
  </clipPath>
 </defs>
</svg>
