<?xml version="1.0" encoding="utf-8" standalone="no"?>
<!DOCTYPE svg PUBLIC "-//W3C//DTD SVG 1.1//EN"
  "http://www.w3.org/Graphics/SVG/1.1/DTD/svg11.dtd">
<svg xmlns:xlink="http://www.w3.org/1999/xlink" width="576pt" height="432pt" viewBox="0 0 576 432" xmlns="http://www.w3.org/2000/svg" version="1.1">
 <metadata>
  <rdf:RDF xmlns:dc="http://purl.org/dc/elements/1.1/" xmlns:cc="http://creativecommons.org/ns#" xmlns:rdf="http://www.w3.org/1999/02/22-rdf-syntax-ns#">
   <cc:Work>
    <dc:type rdf:resource="http://purl.org/dc/dcmitype/StillImage"/>
    <dc:date>2023-11-06T21:01:26.496592</dc:date>
    <dc:format>image/svg+xml</dc:format>
    <dc:creator>
     <cc:Agent>
      <dc:title>Matplotlib v3.7.2, https://matplotlib.org/</dc:title>
     </cc:Agent>
    </dc:creator>
   </cc:Work>
  </rdf:RDF>
 </metadata>
 <defs>
  <style type="text/css">*{stroke-linejoin: round; stroke-linecap: butt}</style>
 </defs>
 <g id="figure_1">
  <g id="patch_1">
   <path d="M 0 432 
L 576 432 
L 576 0 
L 0 0 
z
" style="fill: #ffffff"/>
  </g>
  <g id="axes_1">
   <g id="patch_2">
    <path d="M 72 384.48 
L 518.4 384.48 
L 518.4 51.84 
L 72 51.84 
z
" style="fill: #ffffff"/>
   </g>
   <g id="PolyCollection_1">
    <defs>
     <path id="md39043ddf8" d="M 139.706556 -47.632511 
L 139.706556 -47.52 
L 140.655823 -47.52 
L 141.60509 -47.52 
L 142.554357 -47.52 
L 143.503624 -47.52 
L 144.452892 -47.52 
L 145.402159 -47.52 
L 146.351426 -47.52 
L 147.300693 -47.52 
L 148.24996 -47.52 
L 149.199227 -47.52 
L 150.148494 -47.52 
L 151.097761 -47.52 
L 152.047028 -47.52 
L 152.996296 -47.52 
L 153.945563 -47.52 
L 154.89483 -47.52 
L 155.844097 -47.52 
L 156.793364 -47.52 
L 157.742631 -47.52 
L 158.691898 -47.52 
L 159.641165 -47.52 
L 160.590432 -47.52 
L 161.5397 -47.52 
L 162.488967 -47.52 
L 163.438234 -47.52 
L 164.387501 -47.52 
L 165.336768 -47.52 
L 166.286035 -47.52 
L 167.235302 -47.52 
L 168.184569 -47.52 
L 169.133836 -47.52 
L 170.083104 -47.52 
L 171.032371 -47.52 
L 171.981638 -47.52 
L 172.930905 -47.52 
L 173.880172 -47.52 
L 174.829439 -47.52 
L 175.778706 -47.52 
L 176.727973 -47.52 
L 177.67724 -47.52 
L 178.626508 -47.52 
L 179.575775 -47.52 
L 180.525042 -47.52 
L 181.474309 -47.52 
L 182.423576 -47.52 
L 183.372843 -47.52 
L 184.32211 -47.52 
L 185.271377 -47.52 
L 186.220645 -47.52 
L 187.169912 -47.52 
L 188.119179 -47.52 
L 189.068446 -47.52 
L 190.017713 -47.52 
L 190.96698 -47.52 
L 191.916247 -47.52 
L 192.865514 -47.52 
L 193.814781 -47.52 
L 194.764049 -47.52 
L 195.713316 -47.52 
L 196.662583 -47.52 
L 197.61185 -47.52 
L 198.561117 -47.52 
L 199.510384 -47.52 
L 200.459651 -47.52 
L 201.408918 -47.52 
L 202.358185 -47.52 
L 203.307453 -47.52 
L 204.25672 -47.52 
L 205.205987 -47.52 
L 206.155254 -47.52 
L 207.104521 -47.52 
L 208.053788 -47.52 
L 209.003055 -47.52 
L 209.952322 -47.52 
L 210.901589 -47.52 
L 211.850857 -47.52 
L 212.800124 -47.52 
L 213.749391 -47.52 
L 214.698658 -47.52 
L 215.647925 -47.52 
L 216.597192 -47.52 
L 217.546459 -47.52 
L 218.495726 -47.52 
L 219.444993 -47.52 
L 220.394261 -47.52 
L 221.343528 -47.52 
L 222.292795 -47.52 
L 223.242062 -47.52 
L 224.191329 -47.52 
L 225.140596 -47.52 
L 226.089863 -47.52 
L 227.03913 -47.52 
L 227.988397 -47.52 
L 228.937665 -47.52 
L 229.886932 -47.52 
L 230.836199 -47.52 
L 231.785466 -47.52 
L 232.734733 -47.52 
L 233.684 -47.52 
L 234.633267 -47.52 
L 235.582534 -47.52 
L 236.531802 -47.52 
L 237.481069 -47.52 
L 238.430336 -47.52 
L 239.379603 -47.52 
L 240.32887 -47.52 
L 241.278137 -47.52 
L 242.227404 -47.52 
L 243.176671 -47.52 
L 244.125938 -47.52 
L 245.075206 -47.52 
L 246.024473 -47.52 
L 246.97374 -47.52 
L 247.923007 -47.52 
L 248.872274 -47.52 
L 249.821541 -47.52 
L 250.770808 -47.52 
L 251.720075 -47.52 
L 252.669342 -47.52 
L 253.61861 -47.52 
L 254.567877 -47.52 
L 255.517144 -47.52 
L 256.466411 -47.52 
L 257.415678 -47.52 
L 258.364945 -47.52 
L 259.314212 -47.52 
L 260.263479 -47.52 
L 261.212746 -47.52 
L 262.162014 -47.52 
L 263.111281 -47.52 
L 264.060548 -47.52 
L 265.009815 -47.52 
L 265.959082 -47.52 
L 266.908349 -47.52 
L 267.857616 -47.52 
L 268.806883 -47.52 
L 269.75615 -47.52 
L 270.705418 -47.52 
L 271.654685 -47.52 
L 272.603952 -47.52 
L 273.553219 -47.52 
L 274.502486 -47.52 
L 275.451753 -47.52 
L 276.40102 -47.52 
L 277.350287 -47.52 
L 278.299554 -47.52 
L 279.248822 -47.52 
L 280.198089 -47.52 
L 281.147356 -47.52 
L 282.096623 -47.52 
L 283.04589 -47.52 
L 283.995157 -47.52 
L 284.944424 -47.52 
L 285.893691 -47.52 
L 286.842959 -47.52 
L 287.792226 -47.52 
L 288.741493 -47.52 
L 289.69076 -47.52 
L 290.640027 -47.52 
L 291.589294 -47.52 
L 292.538561 -47.52 
L 293.487828 -47.52 
L 294.437095 -47.52 
L 295.386363 -47.52 
L 296.33563 -47.52 
L 297.284897 -47.52 
L 298.234164 -47.52 
L 299.183431 -47.52 
L 300.132698 -47.52 
L 301.081965 -47.52 
L 302.031232 -47.52 
L 302.980499 -47.52 
L 303.929767 -47.52 
L 304.879034 -47.52 
L 305.828301 -47.52 
L 306.777568 -47.52 
L 307.726835 -47.52 
L 308.676102 -47.52 
L 309.625369 -47.52 
L 310.574636 -47.52 
L 311.523903 -47.52 
L 312.473171 -47.52 
L 313.422438 -47.52 
L 314.371705 -47.52 
L 315.320972 -47.52 
L 316.270239 -47.52 
L 317.219506 -47.52 
L 318.168773 -47.52 
L 319.11804 -47.52 
L 320.067307 -47.52 
L 321.016575 -47.52 
L 321.965842 -47.52 
L 322.915109 -47.52 
L 323.864376 -47.52 
L 324.813643 -47.52 
L 325.76291 -47.52 
L 326.712177 -47.52 
L 327.661444 -47.52 
L 328.610711 -47.52 
L 328.610711 -47.632256 
L 328.610711 -47.632256 
L 327.661444 -47.676285 
L 326.712177 -47.73485 
L 325.76291 -47.811655 
L 324.813643 -47.910943 
L 323.864376 -48.037454 
L 322.915109 -48.196305 
L 321.965842 -48.392822 
L 321.016575 -48.6323 
L 320.067307 -48.919686 
L 319.11804 -49.259211 
L 318.168773 -49.653962 
L 317.219506 -50.105436 
L 316.270239 -50.613098 
L 315.320972 -51.17398 
L 314.371705 -51.782374 
L 313.422438 -52.42964 
L 312.473171 -53.104194 
L 311.523903 -53.791683 
L 310.574636 -54.475373 
L 309.625369 -55.136746 
L 308.676102 -55.756284 
L 307.726835 -56.314393 
L 306.777568 -56.792422 
L 305.828301 -57.173688 
L 304.879034 -57.444442 
L 303.929767 -57.594689 
L 302.980499 -57.618804 
L 302.031232 -57.515879 
L 301.081965 -57.28978 
L 300.132698 -56.948907 
L 299.183431 -56.505673 
L 298.234164 -55.97576 
L 297.284897 -55.377194 
L 296.33563 -54.729331 
L 295.386363 -54.051836 
L 294.437095 -53.363705 
L 293.487828 -52.682429 
L 292.538561 -52.023318 
L 291.589294 -51.399036 
L 290.640027 -50.819346 
L 289.69076 -50.291052 
L 288.741493 -49.818127 
L 287.792226 -49.401986 
L 286.842959 -49.041848 
L 285.893691 -48.735176 
L 284.944424 -48.478119 
L 283.995157 -48.265955 
L 283.04589 -48.093481 
L 282.096623 -47.955349 
L 281.147356 -47.846339 
L 280.198089 -47.761553 
L 279.248822 -47.696551 
L 278.299554 -47.647421 
L 277.350287 -47.610808 
L 276.40102 -47.583902 
L 275.451753 -47.564404 
L 274.502486 -47.550468 
L 273.553219 -47.540643 
L 272.603952 -47.533811 
L 271.654685 -47.529124 
L 270.705418 -47.525952 
L 269.75615 -47.523834 
L 268.806883 -47.522439 
L 267.857616 -47.521532 
L 266.908349 -47.52095 
L 265.959082 -47.520582 
L 265.009815 -47.520353 
L 264.060548 -47.520213 
L 263.111281 -47.520128 
L 262.162014 -47.520081 
L 261.212746 -47.520057 
L 260.263479 -47.520052 
L 259.314212 -47.520064 
L 258.364945 -47.520097 
L 257.415678 -47.520161 
L 256.466411 -47.520274 
L 255.517144 -47.520464 
L 254.567877 -47.52078 
L 253.61861 -47.521297 
L 252.669342 -47.522132 
L 251.720075 -47.523464 
L 250.770808 -47.525563 
L 249.821541 -47.528829 
L 248.872274 -47.53385 
L 247.923007 -47.541474 
L 246.97374 -47.552912 
L 246.024473 -47.569866 
L 245.075206 -47.594694 
L 244.125938 -47.630621 
L 243.176671 -47.681993 
L 242.227404 -47.754581 
L 241.278137 -47.855951 
L 240.32887 -47.995868 
L 239.379603 -48.186764 
L 238.430336 -48.444233 
L 237.481069 -48.787556 
L 236.531802 -49.24022 
L 235.582534 -49.830411 
L 234.633267 -50.591444 
L 233.684 -51.562094 
L 232.734733 -52.786774 
L 231.785466 -54.31553 
L 230.836199 -56.203796 
L 229.886932 -58.511878 
L 228.937665 -61.304127 
L 227.988397 -64.647774 
L 227.03913 -68.61143 
L 226.089863 -73.263232 
L 225.140596 -78.668682 
L 224.191329 -84.888197 
L 223.242062 -91.974449 
L 222.292795 -99.969575 
L 221.343528 -108.902352 
L 220.394261 -118.78547 
L 219.444993 -129.613029 
L 218.495726 -141.358403 
L 217.546459 -153.972595 
L 216.597192 -167.383222 
L 215.647925 -181.494209 
L 214.698658 -196.186273 
L 213.749391 -211.318186 
L 212.800124 -226.72883 
L 211.850857 -242.239928 
L 210.901589 -257.659366 
L 209.952322 -272.784947 
L 209.003055 -287.408431 
L 208.053788 -301.319695 
L 207.104521 -314.3109 
L 206.155254 -326.18056 
L 205.205987 -336.73746 
L 204.25672 -345.804421 
L 203.307453 -353.22191 
L 202.358185 -358.851554 
L 201.408918 -362.579551 
L 200.459651 -364.32 
L 199.510384 -364.018056 
L 198.561117 -361.652823 
L 197.61185 -357.239771 
L 196.662583 -350.832463 
L 195.713316 -342.523323 
L 194.764049 -332.443197 
L 193.814781 -320.759492 
L 192.865514 -307.672785 
L 191.916247 -293.411877 
L 190.96698 -278.227405 
L 190.017713 -262.384284 
L 189.068446 -246.153328 
L 188.119179 -229.802509 
L 187.169912 -213.588373 
L 186.220645 -197.74811 
L 185.271377 -182.492736 
L 184.32211 -168.001757 
L 183.372843 -154.419567 
L 182.423576 -141.85367 
L 181.474309 -130.374703 
L 180.525042 -120.018087 
L 179.575775 -110.787039 
L 178.626508 -102.656599 
L 177.67724 -95.578318 
L 176.727973 -89.485235 
L 175.778706 -84.29683 
L 174.829439 -79.923676 
L 173.880172 -76.271629 
L 172.930905 -73.245426 
L 171.981638 -70.751655 
L 171.032371 -68.701123 
L 170.083104 -67.010659 
L 169.133836 -65.604438 
L 168.184569 -64.414889 
L 167.235302 -63.383271 
L 166.286035 -62.459951 
L 165.336768 -61.604433 
L 164.387501 -60.785151 
L 163.438234 -59.979049 
L 162.488967 -59.170942 
L 161.5397 -58.352692 
L 160.590432 -57.522222 
L 159.641165 -56.682393 
L 158.691898 -55.83982 
L 157.742631 -55.00366 
L 156.793364 -54.184449 
L 155.844097 -53.393047 
L 154.89483 -52.639724 
L 153.945563 -51.933448 
L 152.996296 -51.281377 
L 152.047028 -50.68856 
L 151.097761 -50.157837 
L 150.148494 -49.689919 
L 149.199227 -49.28359 
L 148.24996 -48.936016 
L 147.300693 -48.643105 
L 146.351426 -48.399885 
L 145.402159 -48.200865 
L 144.452892 -48.040363 
L 143.503624 -47.912776 
L 142.554357 -47.812794 
L 141.60509 -47.735551 
L 140.655823 -47.67671 
L 139.706556 -47.632511 
z
" style="stroke: #87ceeb"/>
    </defs>
    <g clip-path="url(#pedd20e066d)">
     <use xlink:href="#md39043ddf8" x="0" y="432" style="fill: #87ceeb; fill-opacity: 0.25; stroke: #87ceeb"/>
    </g>
   </g>
   <g id="PolyCollection_2">
    <defs>
     <path id="mf14cc73571" d="M 92.290909 -47.723404 
L 92.290909 -47.52 
L 94.330196 -47.52 
L 96.369484 -47.52 
L 98.408771 -47.52 
L 100.448058 -47.52 
L 102.487346 -47.52 
L 104.526633 -47.52 
L 106.565921 -47.52 
L 108.605208 -47.52 
L 110.644495 -47.52 
L 112.683783 -47.52 
L 114.72307 -47.52 
L 116.762357 -47.52 
L 118.801645 -47.52 
L 120.840932 -47.52 
L 122.880219 -47.52 
L 124.919507 -47.52 
L 126.958794 -47.52 
L 128.998081 -47.52 
L 131.037369 -47.52 
L 133.076656 -47.52 
L 135.115943 -47.52 
L 137.155231 -47.52 
L 139.194518 -47.52 
L 141.233805 -47.52 
L 143.273093 -47.52 
L 145.31238 -47.52 
L 147.351667 -47.52 
L 149.390955 -47.52 
L 151.430242 -47.52 
L 153.469529 -47.52 
L 155.508817 -47.52 
L 157.548104 -47.52 
L 159.587392 -47.52 
L 161.626679 -47.52 
L 163.665966 -47.52 
L 165.705254 -47.52 
L 167.744541 -47.52 
L 169.783828 -47.52 
L 171.823116 -47.52 
L 173.862403 -47.52 
L 175.90169 -47.52 
L 177.940978 -47.52 
L 179.980265 -47.52 
L 182.019552 -47.52 
L 184.05884 -47.52 
L 186.098127 -47.52 
L 188.137414 -47.52 
L 190.176702 -47.52 
L 192.215989 -47.52 
L 194.255276 -47.52 
L 196.294564 -47.52 
L 198.333851 -47.52 
L 200.373138 -47.52 
L 202.412426 -47.52 
L 204.451713 -47.52 
L 206.491 -47.52 
L 208.530288 -47.52 
L 210.569575 -47.52 
L 212.608862 -47.52 
L 214.64815 -47.52 
L 216.687437 -47.52 
L 218.726725 -47.52 
L 220.766012 -47.52 
L 222.805299 -47.52 
L 224.844587 -47.52 
L 226.883874 -47.52 
L 228.923161 -47.52 
L 230.962449 -47.52 
L 233.001736 -47.52 
L 235.041023 -47.52 
L 237.080311 -47.52 
L 239.119598 -47.52 
L 241.158885 -47.52 
L 243.198173 -47.52 
L 245.23746 -47.52 
L 247.276747 -47.52 
L 249.316035 -47.52 
L 251.355322 -47.52 
L 253.394609 -47.52 
L 255.433897 -47.52 
L 257.473184 -47.52 
L 259.512471 -47.52 
L 261.551759 -47.52 
L 263.591046 -47.52 
L 265.630333 -47.52 
L 267.669621 -47.52 
L 269.708908 -47.52 
L 271.748196 -47.52 
L 273.787483 -47.52 
L 275.82677 -47.52 
L 277.866058 -47.52 
L 279.905345 -47.52 
L 281.944632 -47.52 
L 283.98392 -47.52 
L 286.023207 -47.52 
L 288.062494 -47.52 
L 290.101782 -47.52 
L 292.141069 -47.52 
L 294.180356 -47.52 
L 296.219644 -47.52 
L 298.258931 -47.52 
L 300.298218 -47.52 
L 302.337506 -47.52 
L 304.376793 -47.52 
L 306.41608 -47.52 
L 308.455368 -47.52 
L 310.494655 -47.52 
L 312.533942 -47.52 
L 314.57323 -47.52 
L 316.612517 -47.52 
L 318.651804 -47.52 
L 320.691092 -47.52 
L 322.730379 -47.52 
L 324.769667 -47.52 
L 326.808954 -47.52 
L 328.848241 -47.52 
L 330.887529 -47.52 
L 332.926816 -47.52 
L 334.966103 -47.52 
L 337.005391 -47.52 
L 339.044678 -47.52 
L 341.083965 -47.52 
L 343.123253 -47.52 
L 345.16254 -47.52 
L 347.201827 -47.52 
L 349.241115 -47.52 
L 351.280402 -47.52 
L 353.319689 -47.52 
L 355.358977 -47.52 
L 357.398264 -47.52 
L 359.437551 -47.52 
L 361.476839 -47.52 
L 363.516126 -47.52 
L 365.555413 -47.52 
L 367.594701 -47.52 
L 369.633988 -47.52 
L 371.673275 -47.52 
L 373.712563 -47.52 
L 375.75185 -47.52 
L 377.791138 -47.52 
L 379.830425 -47.52 
L 381.869712 -47.52 
L 383.909 -47.52 
L 385.948287 -47.52 
L 387.987574 -47.52 
L 390.026862 -47.52 
L 392.066149 -47.52 
L 394.105436 -47.52 
L 396.144724 -47.52 
L 398.184011 -47.52 
L 400.223298 -47.52 
L 402.262586 -47.52 
L 404.301873 -47.52 
L 406.34116 -47.52 
L 408.380448 -47.52 
L 410.419735 -47.52 
L 412.459022 -47.52 
L 414.49831 -47.52 
L 416.537597 -47.52 
L 418.576884 -47.52 
L 420.616172 -47.52 
L 422.655459 -47.52 
L 424.694746 -47.52 
L 426.734034 -47.52 
L 428.773321 -47.52 
L 430.812608 -47.52 
L 432.851896 -47.52 
L 434.891183 -47.52 
L 436.930471 -47.52 
L 438.969758 -47.52 
L 441.009045 -47.52 
L 443.048333 -47.52 
L 445.08762 -47.52 
L 447.126907 -47.52 
L 449.166195 -47.52 
L 451.205482 -47.52 
L 453.244769 -47.52 
L 455.284057 -47.52 
L 457.323344 -47.52 
L 459.362631 -47.52 
L 461.401919 -47.52 
L 463.441206 -47.52 
L 465.480493 -47.52 
L 467.519781 -47.52 
L 469.559068 -47.52 
L 471.598355 -47.52 
L 473.637643 -47.52 
L 475.67693 -47.52 
L 477.716217 -47.52 
L 479.755505 -47.52 
L 481.794792 -47.52 
L 483.834079 -47.52 
L 485.873367 -47.52 
L 487.912654 -47.52 
L 489.951942 -47.52 
L 491.991229 -47.52 
L 494.030516 -47.52 
L 496.069804 -47.52 
L 498.109091 -47.52 
L 498.109091 -47.59458 
L 498.109091 -47.59458 
L 496.069804 -47.610137 
L 494.030516 -47.628506 
L 491.991229 -47.650102 
L 489.951942 -47.675381 
L 487.912654 -47.704838 
L 485.873367 -47.739014 
L 483.834079 -47.77849 
L 481.794792 -47.823883 
L 479.755505 -47.875851 
L 477.716217 -47.935078 
L 475.67693 -48.002278 
L 473.637643 -48.078182 
L 471.598355 -48.163531 
L 469.559068 -48.259067 
L 467.519781 -48.365524 
L 465.480493 -48.48361 
L 463.441206 -48.613999 
L 461.401919 -48.757315 
L 459.362631 -48.914117 
L 457.323344 -49.084885 
L 455.284057 -49.270002 
L 453.244769 -49.469743 
L 451.205482 -49.684259 
L 449.166195 -49.913564 
L 447.126907 -50.157524 
L 445.08762 -50.415848 
L 443.048333 -50.688078 
L 441.009045 -50.973591 
L 438.969758 -51.271589 
L 436.930471 -51.581107 
L 434.891183 -51.901013 
L 432.851896 -52.230016 
L 430.812608 -52.566681 
L 428.773321 -52.909435 
L 426.734034 -53.25659 
L 424.694746 -53.606356 
L 422.655459 -53.956864 
L 420.616172 -54.306187 
L 418.576884 -54.652361 
L 416.537597 -54.993408 
L 414.49831 -55.327362 
L 412.459022 -55.652283 
L 410.419735 -55.966286 
L 408.380448 -56.267553 
L 406.34116 -56.554355 
L 404.301873 -56.825064 
L 402.262586 -57.078166 
L 400.223298 -57.312272 
L 398.184011 -57.526127 
L 396.144724 -57.718615 
L 394.105436 -57.888763 
L 392.066149 -58.035746 
L 390.026862 -58.158889 
L 387.987574 -58.257667 
L 385.948287 -58.331706 
L 383.909 -58.380786 
L 381.869712 -58.404842 
L 379.830425 -58.403966 
L 377.791138 -58.378409 
L 375.75185 -58.328587 
L 373.712563 -58.255084 
L 371.673275 -58.158656 
L 369.633988 -58.04024 
L 367.594701 -57.900955 
L 365.555413 -57.742112 
L 363.516126 -57.565213 
L 361.476839 -57.371958 
L 359.437551 -57.164247 
L 357.398264 -56.944176 
L 355.358977 -56.714036 
L 353.319689 -56.47631 
L 351.280402 -56.233659 
L 349.241115 -55.988918 
L 347.201827 -55.745075 
L 345.16254 -55.505262 
L 343.123253 -55.272728 
L 341.083965 -55.050829 
L 339.044678 -54.842995 
L 337.005391 -54.652718 
L 334.966103 -54.483522 
L 332.926816 -54.338946 
L 330.887529 -54.222521 
L 328.848241 -54.137753 
L 326.808954 -54.088107 
L 324.769667 -54.076992 
L 322.730379 -54.107756 
L 320.691092 -54.183676 
L 318.651804 -54.307959 
L 316.612517 -54.483743 
L 314.57323 -54.714101 
L 312.533942 -55.002051 
L 310.494655 -55.350567 
L 308.455368 -55.76259 
L 306.41608 -56.241041 
L 304.376793 -56.788836 
L 302.337506 -57.408894 
L 300.298218 -58.104146 
L 298.258931 -58.877543 
L 296.219644 -59.732046 
L 294.180356 -60.670625 
L 292.141069 -61.69624 
L 290.101782 -62.811814 
L 288.062494 -64.020197 
L 286.023207 -65.324124 
L 283.98392 -66.726151 
L 281.944632 -68.228589 
L 279.905345 -69.833426 
L 277.866058 -71.542234 
L 275.82677 -73.356074 
L 273.787483 -75.275383 
L 271.748196 -77.299868 
L 269.708908 -79.428388 
L 267.669621 -81.658835 
L 265.630333 -83.988025 
L 263.591046 -86.411586 
L 261.551759 -88.923858 
L 259.512471 -91.51781 
L 257.473184 -94.184968 
L 255.433897 -96.915364 
L 253.394609 -99.697511 
L 251.355322 -102.518401 
L 249.316035 -105.363535 
L 247.276747 -108.216982 
L 245.23746 -111.061475 
L 243.198173 -113.87853 
L 241.158885 -116.648614 
L 239.119598 -119.351328 
L 237.080311 -121.965637 
L 235.041023 -124.470117 
L 233.001736 -126.843227 
L 230.962449 -129.063606 
L 228.923161 -131.110377 
L 226.883874 -132.963469 
L 224.844587 -134.60393 
L 222.805299 -136.014238 
L 220.766012 -137.178609 
L 218.726725 -138.083271 
L 216.687437 -138.716723 
L 214.64815 -139.069956 
L 212.608862 -139.136639 
L 210.569575 -138.913259 
L 208.530288 -138.399216 
L 206.491 -137.596868 
L 204.451713 -136.511521 
L 202.412426 -135.15137 
L 200.373138 -133.527389 
L 198.333851 -131.653169 
L 196.294564 -129.544715 
L 194.255276 -127.220197 
L 192.215989 -124.699667 
L 190.176702 -122.004754 
L 188.137414 -119.158325 
L 186.098127 -116.184139 
L 184.05884 -113.106498 
L 182.019552 -109.949888 
L 179.980265 -106.738639 
L 177.940978 -103.496597 
L 175.90169 -100.246813 
L 173.862403 -97.011268 
L 171.823116 -93.81062 
L 169.783828 -90.664 
L 167.744541 -87.588832 
L 165.705254 -84.600701 
L 163.665966 -81.71326 
L 161.626679 -78.938177 
L 159.587392 -76.285113 
L 157.548104 -73.761751 
L 155.508817 -71.373838 
L 153.469529 -69.125273 
L 151.430242 -67.01821 
L 149.390955 -65.053186 
L 147.351667 -63.229262 
L 145.31238 -61.544179 
L 143.273093 -59.994519 
L 141.233805 -58.575872 
L 139.194518 -57.282998 
L 137.155231 -56.109991 
L 135.115943 -55.050432 
L 133.076656 -54.097535 
L 131.037369 -53.244284 
L 128.998081 -52.48355 
L 126.958794 -51.808205 
L 124.919507 -51.211215 
L 122.880219 -50.685719 
L 120.840932 -50.225102 
L 118.801645 -49.823041 
L 116.762357 -49.473555 
L 114.72307 -49.171027 
L 112.683783 -48.910229 
L 110.644495 -48.686328 
L 108.605208 -48.494892 
L 106.565921 -48.331882 
L 104.526633 -48.19364 
L 102.487346 -48.07688 
L 100.448058 -47.978661 
L 98.408771 -47.896372 
L 96.369484 -47.827708 
L 94.330196 -47.770642 
L 92.290909 -47.723404 
z
" style="stroke: #fa8072"/>
    </defs>
    <g clip-path="url(#pedd20e066d)">
     <use xlink:href="#mf14cc73571" x="0" y="432" style="fill: #fa8072; fill-opacity: 0.25; stroke: #fa8072"/>
    </g>
   </g>
   <g id="matplotlib.axis_1">
    <g id="xtick_1">
     <g id="line2d_1">
      <defs>
       <path id="m65080eea4b" d="M 0 0 
L 0 3.5 
" style="stroke: #000000; stroke-width: 0.8"/>
      </defs>
      <g>
       <use xlink:href="#m65080eea4b" x="76.448645" y="384.48" style="stroke: #000000; stroke-width: 0.8"/>
      </g>
     </g>
     <g id="text_1">
      <!-- −25 -->
      <g transform="translate(67.967395 398.653437) scale(0.1 -0.1)">
       <defs>
        <path id="Helvetica-2212" d="M 3547 1894 
L 3547 1369 
L 288 1369 
L 288 1894 
L 3547 1894 
z
" transform="scale(0.015625)"/>
        <path id="Helvetica-32" d="M 200 0 
Q 231 578 439 1006 
Q 647 1434 1250 1784 
L 1850 2131 
Q 2253 2366 2416 2531 
Q 2672 2791 2672 3125 
Q 2672 3516 2437 3745 
Q 2203 3975 1813 3975 
Q 1234 3975 1013 3538 
Q 894 3303 881 2888 
L 309 2888 
Q 319 3472 525 3841 
Q 891 4491 1816 4491 
Q 2584 4491 2939 4075 
Q 3294 3659 3294 3150 
Q 3294 2613 2916 2231 
Q 2697 2009 2131 1694 
L 1703 1456 
Q 1397 1288 1222 1134 
Q 909 863 828 531 
L 3272 531 
L 3272 0 
L 200 0 
z
" transform="scale(0.015625)"/>
        <path id="Helvetica-35" d="M 791 1141 
Q 847 659 1238 475 
Q 1438 381 1700 381 
Q 2200 381 2440 700 
Q 2681 1019 2681 1406 
Q 2681 1875 2395 2131 
Q 2109 2388 1709 2388 
Q 1419 2388 1211 2275 
Q 1003 2163 856 1963 
L 369 1991 
L 709 4400 
L 3034 4400 
L 3034 3856 
L 1131 3856 
L 941 2613 
Q 1097 2731 1238 2791 
Q 1488 2894 1816 2894 
Q 2431 2894 2859 2497 
Q 3288 2100 3288 1491 
Q 3288 856 2895 371 
Q 2503 -113 1644 -113 
Q 1097 -113 676 195 
Q 256 503 206 1141 
L 791 1141 
z
" transform="scale(0.015625)"/>
       </defs>
       <use xlink:href="#Helvetica-2212"/>
       <use xlink:href="#Helvetica-32" x="58.398438"/>
       <use xlink:href="#Helvetica-35" x="114.013672"/>
      </g>
     </g>
    </g>
    <g id="xtick_2">
     <g id="line2d_2">
      <g>
       <use xlink:href="#m65080eea4b" x="135.827406" y="384.48" style="stroke: #000000; stroke-width: 0.8"/>
      </g>
     </g>
     <g id="text_2">
      <!-- 0 -->
      <g transform="translate(133.046937 398.653437) scale(0.1 -0.1)">
       <defs>
        <path id="Helvetica-30" d="M 1731 4475 
Q 2600 4475 2988 3759 
Q 3288 3206 3288 2244 
Q 3288 1331 3016 734 
Q 2622 -122 1728 -122 
Q 922 -122 528 578 
Q 200 1163 200 2147 
Q 200 2909 397 3456 
Q 766 4475 1731 4475 
z
M 1725 391 
Q 2163 391 2422 778 
Q 2681 1166 2681 2222 
Q 2681 2984 2493 3476 
Q 2306 3969 1766 3969 
Q 1269 3969 1039 3501 
Q 809 3034 809 2125 
Q 809 1441 956 1025 
Q 1181 391 1725 391 
z
" transform="scale(0.015625)"/>
       </defs>
       <use xlink:href="#Helvetica-30"/>
      </g>
     </g>
    </g>
    <g id="xtick_3">
     <g id="line2d_3">
      <g>
       <use xlink:href="#m65080eea4b" x="195.206167" y="384.48" style="stroke: #000000; stroke-width: 0.8"/>
      </g>
     </g>
     <g id="text_3">
      <!-- 25 -->
      <g transform="translate(189.645229 398.653437) scale(0.1 -0.1)">
       <use xlink:href="#Helvetica-32"/>
       <use xlink:href="#Helvetica-35" x="55.615234"/>
      </g>
     </g>
    </g>
    <g id="xtick_4">
     <g id="line2d_4">
      <g>
       <use xlink:href="#m65080eea4b" x="254.584927" y="384.48" style="stroke: #000000; stroke-width: 0.8"/>
      </g>
     </g>
     <g id="text_4">
      <!-- 50 -->
      <g transform="translate(249.02399 398.653437) scale(0.1 -0.1)">
       <use xlink:href="#Helvetica-35"/>
       <use xlink:href="#Helvetica-30" x="55.615234"/>
      </g>
     </g>
    </g>
    <g id="xtick_5">
     <g id="line2d_5">
      <g>
       <use xlink:href="#m65080eea4b" x="313.963688" y="384.48" style="stroke: #000000; stroke-width: 0.8"/>
      </g>
     </g>
     <g id="text_5">
      <!-- 75 -->
      <g transform="translate(308.402751 398.653437) scale(0.1 -0.1)">
       <defs>
        <path id="Helvetica-37" d="M 3347 4400 
L 3347 3909 
Q 3131 3700 2773 3181 
Q 2416 2663 2141 2063 
Q 1869 1478 1728 997 
Q 1638 688 1494 0 
L 872 0 
Q 1084 1281 1809 2550 
Q 2238 3294 2709 3834 
L 234 3834 
L 234 4400 
L 3347 4400 
z
" transform="scale(0.015625)"/>
       </defs>
       <use xlink:href="#Helvetica-37"/>
       <use xlink:href="#Helvetica-35" x="55.615234"/>
      </g>
     </g>
    </g>
    <g id="xtick_6">
     <g id="line2d_6">
      <g>
       <use xlink:href="#m65080eea4b" x="373.342449" y="384.48" style="stroke: #000000; stroke-width: 0.8"/>
      </g>
     </g>
     <g id="text_6">
      <!-- 100 -->
      <g transform="translate(365.001043 398.653437) scale(0.1 -0.1)">
       <defs>
        <path id="Helvetica-31" d="M 613 3169 
L 613 3600 
Q 1222 3659 1462 3798 
Q 1703 3938 1822 4456 
L 2266 4456 
L 2266 0 
L 1666 0 
L 1666 3169 
L 613 3169 
z
" transform="scale(0.015625)"/>
       </defs>
       <use xlink:href="#Helvetica-31"/>
       <use xlink:href="#Helvetica-30" x="55.615234"/>
       <use xlink:href="#Helvetica-30" x="111.230469"/>
      </g>
     </g>
    </g>
    <g id="xtick_7">
     <g id="line2d_7">
      <g>
       <use xlink:href="#m65080eea4b" x="432.72121" y="384.48" style="stroke: #000000; stroke-width: 0.8"/>
      </g>
     </g>
     <g id="text_7">
      <!-- 125 -->
      <g transform="translate(424.379804 398.653437) scale(0.1 -0.1)">
       <use xlink:href="#Helvetica-31"/>
       <use xlink:href="#Helvetica-32" x="55.615234"/>
       <use xlink:href="#Helvetica-35" x="111.230469"/>
      </g>
     </g>
    </g>
    <g id="xtick_8">
     <g id="line2d_8">
      <g>
       <use xlink:href="#m65080eea4b" x="492.099971" y="384.48" style="stroke: #000000; stroke-width: 0.8"/>
      </g>
     </g>
     <g id="text_8">
      <!-- 150 -->
      <g transform="translate(483.758565 398.653437) scale(0.1 -0.1)">
       <use xlink:href="#Helvetica-31"/>
       <use xlink:href="#Helvetica-35" x="55.615234"/>
       <use xlink:href="#Helvetica-30" x="111.230469"/>
      </g>
     </g>
    </g>
    <g id="text_9">
     <!-- Partial Thromboplastin Time (PTT) -->
     <g transform="translate(218.520312 412.028437) scale(0.1 -0.1)">
      <defs>
       <path id="Helvetica-50" d="M 547 4591 
L 2613 4591 
Q 3225 4591 3600 4245 
Q 3975 3900 3975 3275 
Q 3975 2738 3640 2339 
Q 3306 1941 2613 1941 
L 1169 1941 
L 1169 0 
L 547 0 
L 547 4591 
z
M 3347 3272 
Q 3347 3778 2972 3959 
Q 2766 4056 2406 4056 
L 1169 4056 
L 1169 2466 
L 2406 2466 
Q 2825 2466 3086 2644 
Q 3347 2822 3347 3272 
z
" transform="scale(0.015625)"/>
       <path id="Helvetica-61" d="M 844 891 
Q 844 647 1022 506 
Q 1200 366 1444 366 
Q 1741 366 2019 503 
Q 2488 731 2488 1250 
L 2488 1703 
Q 2384 1638 2221 1594 
Q 2059 1550 1903 1531 
L 1563 1488 
Q 1256 1447 1103 1359 
Q 844 1213 844 891 
z
M 2206 2028 
Q 2400 2053 2466 2191 
Q 2503 2266 2503 2406 
Q 2503 2694 2298 2823 
Q 2094 2953 1713 2953 
Q 1272 2953 1088 2716 
Q 984 2584 953 2325 
L 428 2325 
Q 444 2944 830 3186 
Q 1216 3428 1725 3428 
Q 2316 3428 2684 3203 
Q 3050 2978 3050 2503 
L 3050 575 
Q 3050 488 3086 434 
Q 3122 381 3238 381 
Q 3275 381 3322 386 
Q 3369 391 3422 400 
L 3422 -16 
Q 3291 -53 3222 -62 
Q 3153 -72 3034 -72 
Q 2744 -72 2613 134 
Q 2544 244 2516 444 
Q 2344 219 2022 53 
Q 1700 -113 1313 -113 
Q 847 -113 551 170 
Q 256 453 256 878 
Q 256 1344 547 1600 
Q 838 1856 1309 1916 
L 2206 2028 
z
M 1741 3428 
L 1741 3428 
z
" transform="scale(0.015625)"/>
       <path id="Helvetica-72" d="M 428 3347 
L 963 3347 
L 963 2769 
Q 1028 2938 1284 3180 
Q 1541 3422 1875 3422 
Q 1891 3422 1928 3419 
Q 1966 3416 2056 3406 
L 2056 2813 
Q 2006 2822 1964 2825 
Q 1922 2828 1872 2828 
Q 1447 2828 1219 2554 
Q 991 2281 991 1925 
L 991 0 
L 428 0 
L 428 3347 
z
" transform="scale(0.015625)"/>
       <path id="Helvetica-74" d="M 525 4281 
L 1094 4281 
L 1094 3347 
L 1628 3347 
L 1628 2888 
L 1094 2888 
L 1094 703 
Q 1094 528 1213 469 
Q 1278 434 1431 434 
Q 1472 434 1519 436 
Q 1566 438 1628 444 
L 1628 0 
Q 1531 -28 1426 -40 
Q 1322 -53 1200 -53 
Q 806 -53 665 148 
Q 525 350 525 672 
L 525 2888 
L 72 2888 
L 72 3347 
L 525 3347 
L 525 4281 
z
" transform="scale(0.015625)"/>
       <path id="Helvetica-69" d="M 413 3331 
L 984 3331 
L 984 0 
L 413 0 
L 413 3331 
z
M 413 4591 
L 984 4591 
L 984 3953 
L 413 3953 
L 413 4591 
z
" transform="scale(0.015625)"/>
       <path id="Helvetica-6c" d="M 428 4591 
L 991 4591 
L 991 0 
L 428 0 
L 428 4591 
z
" transform="scale(0.015625)"/>
       <path id="Helvetica-20" transform="scale(0.015625)"/>
       <path id="Helvetica-54" d="M 3828 4591 
L 3828 4044 
L 2281 4044 
L 2281 0 
L 1650 0 
L 1650 4044 
L 103 4044 
L 103 4591 
L 3828 4591 
z
" transform="scale(0.015625)"/>
       <path id="Helvetica-68" d="M 413 4606 
L 975 4606 
L 975 2894 
Q 1175 3147 1334 3250 
Q 1606 3428 2013 3428 
Q 2741 3428 3000 2919 
Q 3141 2641 3141 2147 
L 3141 0 
L 2563 0 
L 2563 2109 
Q 2563 2478 2469 2650 
Q 2316 2925 1894 2925 
Q 1544 2925 1259 2684 
Q 975 2444 975 1775 
L 975 0 
L 413 0 
L 413 4606 
z
" transform="scale(0.015625)"/>
       <path id="Helvetica-6f" d="M 1741 363 
Q 2300 363 2508 786 
Q 2716 1209 2716 1728 
Q 2716 2197 2566 2491 
Q 2328 2953 1747 2953 
Q 1231 2953 997 2559 
Q 763 2166 763 1609 
Q 763 1075 997 719 
Q 1231 363 1741 363 
z
M 1763 3444 
Q 2409 3444 2856 3012 
Q 3303 2581 3303 1744 
Q 3303 934 2909 406 
Q 2516 -122 1688 -122 
Q 997 -122 590 345 
Q 184 813 184 1600 
Q 184 2444 612 2944 
Q 1041 3444 1763 3444 
z
M 1744 3428 
L 1744 3428 
z
" transform="scale(0.015625)"/>
       <path id="Helvetica-6d" d="M 413 3347 
L 969 3347 
L 969 2872 
Q 1169 3119 1331 3231 
Q 1609 3422 1963 3422 
Q 2363 3422 2606 3225 
Q 2744 3113 2856 2894 
Q 3044 3163 3297 3292 
Q 3550 3422 3866 3422 
Q 4541 3422 4784 2934 
Q 4916 2672 4916 2228 
L 4916 0 
L 4331 0 
L 4331 2325 
Q 4331 2659 4164 2784 
Q 3997 2909 3756 2909 
Q 3425 2909 3186 2687 
Q 2947 2466 2947 1947 
L 2947 0 
L 2375 0 
L 2375 2184 
Q 2375 2525 2294 2681 
Q 2166 2916 1816 2916 
Q 1497 2916 1236 2669 
Q 975 2422 975 1775 
L 975 0 
L 413 0 
L 413 3347 
z
" transform="scale(0.015625)"/>
       <path id="Helvetica-62" d="M 369 4606 
L 916 4606 
L 916 2941 
Q 1100 3181 1356 3307 
Q 1613 3434 1913 3434 
Q 2538 3434 2927 3004 
Q 3316 2575 3316 1738 
Q 3316 944 2931 419 
Q 2547 -106 1866 -106 
Q 1484 -106 1222 78 
Q 1066 188 888 428 
L 888 0 
L 369 0 
L 369 4606 
z
M 1831 391 
Q 2288 391 2514 753 
Q 2741 1116 2741 1709 
Q 2741 2238 2514 2584 
Q 2288 2931 1847 2931 
Q 1463 2931 1173 2647 
Q 884 2363 884 1709 
Q 884 1238 1003 944 
Q 1225 391 1831 391 
z
" transform="scale(0.015625)"/>
       <path id="Helvetica-70" d="M 1825 378 
Q 2219 378 2480 708 
Q 2741 1038 2741 1694 
Q 2741 2094 2625 2381 
Q 2406 2934 1825 2934 
Q 1241 2934 1025 2350 
Q 909 2038 909 1556 
Q 909 1169 1025 897 
Q 1244 378 1825 378 
z
M 369 3331 
L 916 3331 
L 916 2888 
Q 1084 3116 1284 3241 
Q 1569 3428 1953 3428 
Q 2522 3428 2919 2992 
Q 3316 2556 3316 1747 
Q 3316 653 2744 184 
Q 2381 -113 1900 -113 
Q 1522 -113 1266 53 
Q 1116 147 931 375 
L 931 -1334 
L 369 -1334 
L 369 3331 
z
" transform="scale(0.015625)"/>
       <path id="Helvetica-73" d="M 747 1050 
Q 772 769 888 619 
Q 1100 347 1625 347 
Q 1938 347 2175 483 
Q 2413 619 2413 903 
Q 2413 1119 2222 1231 
Q 2100 1300 1741 1391 
L 1294 1503 
Q 866 1609 663 1741 
Q 300 1969 300 2372 
Q 300 2847 642 3140 
Q 984 3434 1563 3434 
Q 2319 3434 2653 2991 
Q 2863 2709 2856 2384 
L 2325 2384 
Q 2309 2575 2191 2731 
Q 1997 2953 1519 2953 
Q 1200 2953 1036 2831 
Q 872 2709 872 2509 
Q 872 2291 1088 2159 
Q 1213 2081 1456 2022 
L 1828 1931 
Q 2434 1784 2641 1647 
Q 2969 1431 2969 969 
Q 2969 522 2630 197 
Q 2291 -128 1597 -128 
Q 850 -128 539 211 
Q 228 550 206 1050 
L 747 1050 
z
M 1578 3428 
L 1578 3428 
z
" transform="scale(0.015625)"/>
       <path id="Helvetica-6e" d="M 413 3347 
L 947 3347 
L 947 2872 
Q 1184 3166 1450 3294 
Q 1716 3422 2041 3422 
Q 2753 3422 3003 2925 
Q 3141 2653 3141 2147 
L 3141 0 
L 2569 0 
L 2569 2109 
Q 2569 2416 2478 2603 
Q 2328 2916 1934 2916 
Q 1734 2916 1606 2875 
Q 1375 2806 1200 2600 
Q 1059 2434 1017 2257 
Q 975 2081 975 1753 
L 975 0 
L 413 0 
L 413 3347 
z
M 1734 3428 
L 1734 3428 
z
" transform="scale(0.015625)"/>
       <path id="Helvetica-65" d="M 1806 3422 
Q 2163 3422 2497 3255 
Q 2831 3088 3006 2822 
Q 3175 2569 3231 2231 
Q 3281 2000 3281 1494 
L 828 1494 
Q 844 984 1069 676 
Q 1294 369 1766 369 
Q 2206 369 2469 659 
Q 2619 828 2681 1050 
L 3234 1050 
Q 3213 866 3089 639 
Q 2966 413 2813 269 
Q 2556 19 2178 -69 
Q 1975 -119 1719 -119 
Q 1094 -119 659 336 
Q 225 791 225 1609 
Q 225 2416 662 2919 
Q 1100 3422 1806 3422 
z
M 2703 1941 
Q 2669 2306 2544 2525 
Q 2313 2931 1772 2931 
Q 1384 2931 1121 2651 
Q 859 2372 844 1941 
L 2703 1941 
z
M 1753 3428 
L 1753 3428 
z
" transform="scale(0.015625)"/>
       <path id="Helvetica-28" d="M 1894 4666 
Q 1403 3713 1256 3263 
Q 1034 2578 1034 1681 
Q 1034 775 1288 25 
Q 1444 -438 1903 -1306 
L 1525 -1306 
Q 1069 -594 959 -397 
Q 850 -200 722 138 
Q 547 600 478 1125 
Q 444 1397 444 1644 
Q 444 2569 734 3291 
Q 919 3750 1503 4666 
L 1894 4666 
z
" transform="scale(0.015625)"/>
       <path id="Helvetica-29" d="M 222 -1306 
Q 719 -338 863 106 
Q 1081 778 1081 1681 
Q 1081 2584 828 3334 
Q 672 3797 213 4666 
L 591 4666 
Q 1072 3897 1173 3717 
Q 1275 3538 1394 3222 
Q 1544 2831 1608 2450 
Q 1672 2069 1672 1716 
Q 1672 791 1378 66 
Q 1194 -400 613 -1306 
L 222 -1306 
z
" transform="scale(0.015625)"/>
      </defs>
      <use xlink:href="#Helvetica-50"/>
      <use xlink:href="#Helvetica-61" x="66.699219"/>
      <use xlink:href="#Helvetica-72" x="122.314453"/>
      <use xlink:href="#Helvetica-74" x="155.615234"/>
      <use xlink:href="#Helvetica-69" x="183.398438"/>
      <use xlink:href="#Helvetica-61" x="205.615234"/>
      <use xlink:href="#Helvetica-6c" x="261.230469"/>
      <use xlink:href="#Helvetica-20" x="283.447266"/>
      <use xlink:href="#Helvetica-54" x="311.230469"/>
      <use xlink:href="#Helvetica-68" x="372.314453"/>
      <use xlink:href="#Helvetica-72" x="427.929688"/>
      <use xlink:href="#Helvetica-6f" x="461.230469"/>
      <use xlink:href="#Helvetica-6d" x="516.845703"/>
      <use xlink:href="#Helvetica-62" x="600.146484"/>
      <use xlink:href="#Helvetica-6f" x="655.761719"/>
      <use xlink:href="#Helvetica-70" x="711.376953"/>
      <use xlink:href="#Helvetica-6c" x="766.992188"/>
      <use xlink:href="#Helvetica-61" x="789.208984"/>
      <use xlink:href="#Helvetica-73" x="844.824219"/>
      <use xlink:href="#Helvetica-74" x="894.824219"/>
      <use xlink:href="#Helvetica-69" x="922.607422"/>
      <use xlink:href="#Helvetica-6e" x="944.824219"/>
      <use xlink:href="#Helvetica-20" x="1000.439453"/>
      <use xlink:href="#Helvetica-54" x="1028.222656"/>
      <use xlink:href="#Helvetica-69" x="1089.306641"/>
      <use xlink:href="#Helvetica-6d" x="1111.523438"/>
      <use xlink:href="#Helvetica-65" x="1194.824219"/>
      <use xlink:href="#Helvetica-20" x="1250.439453"/>
      <use xlink:href="#Helvetica-28" x="1278.222656"/>
      <use xlink:href="#Helvetica-50" x="1311.523438"/>
      <use xlink:href="#Helvetica-54" x="1378.222656"/>
      <use xlink:href="#Helvetica-54" x="1439.306641"/>
      <use xlink:href="#Helvetica-29" x="1500.390625"/>
     </g>
    </g>
   </g>
   <g id="matplotlib.axis_2">
    <g id="ytick_1">
     <g id="line2d_9">
      <defs>
       <path id="m17f976ac7a" d="M 0 0 
L -3.5 0 
" style="stroke: #000000; stroke-width: 0.8"/>
      </defs>
      <g>
       <use xlink:href="#m17f976ac7a" x="72" y="384.48" style="stroke: #000000; stroke-width: 0.8"/>
      </g>
     </g>
     <g id="text_10">
      <!-- 0.00 -->
      <g transform="translate(45.539062 388.066719) scale(0.1 -0.1)">
       <defs>
        <path id="Helvetica-2e" d="M 547 681 
L 1200 681 
L 1200 0 
L 547 0 
L 547 681 
z
" transform="scale(0.015625)"/>
       </defs>
       <use xlink:href="#Helvetica-30"/>
       <use xlink:href="#Helvetica-2e" x="55.615234"/>
       <use xlink:href="#Helvetica-30" x="83.398438"/>
       <use xlink:href="#Helvetica-30" x="139.013672"/>
      </g>
     </g>
    </g>
    <g id="ytick_2">
     <g id="line2d_10">
      <g>
       <use xlink:href="#m17f976ac7a" x="72" y="343.952544" style="stroke: #000000; stroke-width: 0.8"/>
      </g>
     </g>
     <g id="text_11">
      <!-- 0.01 -->
      <g transform="translate(45.539062 347.539263) scale(0.1 -0.1)">
       <use xlink:href="#Helvetica-30"/>
       <use xlink:href="#Helvetica-2e" x="55.615234"/>
       <use xlink:href="#Helvetica-30" x="83.398438"/>
       <use xlink:href="#Helvetica-31" x="139.013672"/>
      </g>
     </g>
    </g>
    <g id="ytick_3">
     <g id="line2d_11">
      <g>
       <use xlink:href="#m17f976ac7a" x="72" y="303.425089" style="stroke: #000000; stroke-width: 0.8"/>
      </g>
     </g>
     <g id="text_12">
      <!-- 0.02 -->
      <g transform="translate(45.539062 307.011807) scale(0.1 -0.1)">
       <use xlink:href="#Helvetica-30"/>
       <use xlink:href="#Helvetica-2e" x="55.615234"/>
       <use xlink:href="#Helvetica-30" x="83.398438"/>
       <use xlink:href="#Helvetica-32" x="139.013672"/>
      </g>
     </g>
    </g>
    <g id="ytick_4">
     <g id="line2d_12">
      <g>
       <use xlink:href="#m17f976ac7a" x="72" y="262.897633" style="stroke: #000000; stroke-width: 0.8"/>
      </g>
     </g>
     <g id="text_13">
      <!-- 0.03 -->
      <g transform="translate(45.539062 266.484352) scale(0.1 -0.1)">
       <defs>
        <path id="Helvetica-33" d="M 1663 -122 
Q 869 -122 511 314 
Q 153 750 153 1375 
L 741 1375 
Q 778 941 903 744 
Q 1122 391 1694 391 
Q 2138 391 2406 628 
Q 2675 866 2675 1241 
Q 2675 1703 2392 1887 
Q 2109 2072 1606 2072 
Q 1550 2072 1492 2070 
Q 1434 2069 1375 2066 
L 1375 2563 
Q 1463 2553 1522 2550 
Q 1581 2547 1650 2547 
Q 1966 2547 2169 2647 
Q 2525 2822 2525 3272 
Q 2525 3606 2287 3787 
Q 2050 3969 1734 3969 
Q 1172 3969 956 3594 
Q 838 3388 822 3006 
L 266 3006 
Q 266 3506 466 3856 
Q 809 4481 1675 4481 
Q 2359 4481 2734 4176 
Q 3109 3872 3109 3294 
Q 3109 2881 2888 2625 
Q 2750 2466 2531 2375 
Q 2884 2278 3082 2001 
Q 3281 1725 3281 1325 
Q 3281 684 2859 281 
Q 2438 -122 1663 -122 
z
" transform="scale(0.015625)"/>
       </defs>
       <use xlink:href="#Helvetica-30"/>
       <use xlink:href="#Helvetica-2e" x="55.615234"/>
       <use xlink:href="#Helvetica-30" x="83.398438"/>
       <use xlink:href="#Helvetica-33" x="139.013672"/>
      </g>
     </g>
    </g>
    <g id="ytick_5">
     <g id="line2d_13">
      <g>
       <use xlink:href="#m17f976ac7a" x="72" y="222.370177" style="stroke: #000000; stroke-width: 0.8"/>
      </g>
     </g>
     <g id="text_14">
      <!-- 0.04 -->
      <g transform="translate(45.539062 225.956896) scale(0.1 -0.1)">
       <defs>
        <path id="Helvetica-34" d="M 2116 1584 
L 2116 3613 
L 681 1584 
L 2116 1584 
z
M 2125 0 
L 2125 1094 
L 163 1094 
L 163 1644 
L 2213 4488 
L 2688 4488 
L 2688 1584 
L 3347 1584 
L 3347 1094 
L 2688 1094 
L 2688 0 
L 2125 0 
z
" transform="scale(0.015625)"/>
       </defs>
       <use xlink:href="#Helvetica-30"/>
       <use xlink:href="#Helvetica-2e" x="55.615234"/>
       <use xlink:href="#Helvetica-30" x="83.398438"/>
       <use xlink:href="#Helvetica-34" x="139.013672"/>
      </g>
     </g>
    </g>
    <g id="ytick_6">
     <g id="line2d_14">
      <g>
       <use xlink:href="#m17f976ac7a" x="72" y="181.842721" style="stroke: #000000; stroke-width: 0.8"/>
      </g>
     </g>
     <g id="text_15">
      <!-- 0.05 -->
      <g transform="translate(45.539062 185.42944) scale(0.1 -0.1)">
       <use xlink:href="#Helvetica-30"/>
       <use xlink:href="#Helvetica-2e" x="55.615234"/>
       <use xlink:href="#Helvetica-30" x="83.398438"/>
       <use xlink:href="#Helvetica-35" x="139.013672"/>
      </g>
     </g>
    </g>
    <g id="ytick_7">
     <g id="line2d_15">
      <g>
       <use xlink:href="#m17f976ac7a" x="72" y="141.315266" style="stroke: #000000; stroke-width: 0.8"/>
      </g>
     </g>
     <g id="text_16">
      <!-- 0.06 -->
      <g transform="translate(45.539062 144.901984) scale(0.1 -0.1)">
       <defs>
        <path id="Helvetica-36" d="M 1872 4494 
Q 2622 4494 2917 4105 
Q 3213 3716 3213 3303 
L 2656 3303 
Q 2606 3569 2497 3719 
Q 2294 4000 1881 4000 
Q 1409 4000 1131 3564 
Q 853 3128 822 2316 
Q 1016 2600 1309 2741 
Q 1578 2866 1909 2866 
Q 2472 2866 2890 2506 
Q 3309 2147 3309 1434 
Q 3309 825 2912 354 
Q 2516 -116 1781 -116 
Q 1153 -116 697 361 
Q 241 838 241 1966 
Q 241 2800 444 3381 
Q 834 4494 1872 4494 
z
M 1831 384 
Q 2275 384 2495 682 
Q 2716 981 2716 1388 
Q 2716 1731 2519 2042 
Q 2322 2353 1803 2353 
Q 1441 2353 1167 2112 
Q 894 1872 894 1388 
Q 894 963 1142 673 
Q 1391 384 1831 384 
z
" transform="scale(0.015625)"/>
       </defs>
       <use xlink:href="#Helvetica-30"/>
       <use xlink:href="#Helvetica-2e" x="55.615234"/>
       <use xlink:href="#Helvetica-30" x="83.398438"/>
       <use xlink:href="#Helvetica-36" x="139.013672"/>
      </g>
     </g>
    </g>
    <g id="ytick_8">
     <g id="line2d_16">
      <g>
       <use xlink:href="#m17f976ac7a" x="72" y="100.78781" style="stroke: #000000; stroke-width: 0.8"/>
      </g>
     </g>
     <g id="text_17">
      <!-- 0.07 -->
      <g transform="translate(45.539062 104.374529) scale(0.1 -0.1)">
       <use xlink:href="#Helvetica-30"/>
       <use xlink:href="#Helvetica-2e" x="55.615234"/>
       <use xlink:href="#Helvetica-30" x="83.398438"/>
       <use xlink:href="#Helvetica-37" x="139.013672"/>
      </g>
     </g>
    </g>
    <g id="ytick_9">
     <g id="line2d_17">
      <g>
       <use xlink:href="#m17f976ac7a" x="72" y="60.260354" style="stroke: #000000; stroke-width: 0.8"/>
      </g>
     </g>
     <g id="text_18">
      <!-- 0.08 -->
      <g transform="translate(45.539062 63.847073) scale(0.1 -0.1)">
       <defs>
        <path id="Helvetica-38" d="M 1741 2600 
Q 2113 2600 2322 2808 
Q 2531 3016 2531 3303 
Q 2531 3553 2331 3762 
Q 2131 3972 1722 3972 
Q 1316 3972 1134 3762 
Q 953 3553 953 3272 
Q 953 2956 1187 2778 
Q 1422 2600 1741 2600 
z
M 1775 384 
Q 2166 384 2423 595 
Q 2681 806 2681 1225 
Q 2681 1659 2415 1884 
Q 2150 2109 1734 2109 
Q 1331 2109 1076 1879 
Q 822 1650 822 1244 
Q 822 894 1055 639 
Q 1288 384 1775 384 
z
M 975 2384 
Q 741 2484 609 2619 
Q 363 2869 363 3269 
Q 363 3769 725 4128 
Q 1088 4488 1753 4488 
Q 2397 4488 2762 4148 
Q 3128 3809 3128 3356 
Q 3128 2938 2916 2678 
Q 2797 2531 2547 2391 
Q 2825 2263 2984 2097 
Q 3281 1784 3281 1284 
Q 3281 694 2884 283 
Q 2488 -128 1763 -128 
Q 1109 -128 657 226 
Q 206 581 206 1256 
Q 206 1653 400 1942 
Q 594 2231 975 2384 
z
" transform="scale(0.015625)"/>
       </defs>
       <use xlink:href="#Helvetica-30"/>
       <use xlink:href="#Helvetica-2e" x="55.615234"/>
       <use xlink:href="#Helvetica-30" x="83.398438"/>
       <use xlink:href="#Helvetica-38" x="139.013672"/>
      </g>
     </g>
    </g>
    <g id="text_19">
     <!-- Density -->
     <g transform="translate(39.395312 234.831875) rotate(-90) scale(0.1 -0.1)">
      <defs>
       <path id="Helvetica-44" d="M 2250 531 
Q 2566 531 2769 597 
Q 3131 719 3363 1066 
Q 3547 1344 3628 1778 
Q 3675 2038 3675 2259 
Q 3675 3113 3336 3584 
Q 2997 4056 2244 4056 
L 1141 4056 
L 1141 531 
L 2250 531 
z
M 516 4591 
L 2375 4591 
Q 3322 4591 3844 3919 
Q 4309 3313 4309 2366 
Q 4309 1634 4034 1044 
Q 3550 0 2369 0 
L 516 0 
L 516 4591 
z
" transform="scale(0.015625)"/>
       <path id="Helvetica-79" d="M 2503 3347 
L 3125 3347 
Q 3006 3025 2597 1878 
Q 2291 1016 2084 472 
Q 1597 -809 1397 -1090 
Q 1197 -1372 709 -1372 
Q 591 -1372 527 -1362 
Q 463 -1353 369 -1328 
L 369 -816 
Q 516 -856 581 -865 
Q 647 -875 697 -875 
Q 853 -875 926 -823 
Q 1000 -772 1050 -697 
Q 1066 -672 1162 -440 
Q 1259 -209 1303 -97 
L 66 3347 
L 703 3347 
L 1600 622 
L 2503 3347 
z
M 1597 3428 
L 1597 3428 
z
" transform="scale(0.015625)"/>
      </defs>
      <use xlink:href="#Helvetica-44"/>
      <use xlink:href="#Helvetica-65" x="72.216797"/>
      <use xlink:href="#Helvetica-6e" x="127.832031"/>
      <use xlink:href="#Helvetica-73" x="183.447266"/>
      <use xlink:href="#Helvetica-69" x="233.447266"/>
      <use xlink:href="#Helvetica-74" x="255.664062"/>
      <use xlink:href="#Helvetica-79" x="283.447266"/>
     </g>
    </g>
   </g>
   <g id="patch_3">
    <path d="M 72 384.48 
L 72 51.84 
" style="fill: none; stroke: #000000; stroke-width: 0.8; stroke-linejoin: miter; stroke-linecap: square"/>
   </g>
   <g id="patch_4">
    <path d="M 518.4 384.48 
L 518.4 51.84 
" style="fill: none; stroke: #000000; stroke-width: 0.8; stroke-linejoin: miter; stroke-linecap: square"/>
   </g>
   <g id="patch_5">
    <path d="M 72 384.48 
L 518.4 384.48 
" style="fill: none; stroke: #000000; stroke-width: 0.8; stroke-linejoin: miter; stroke-linecap: square"/>
   </g>
   <g id="patch_6">
    <path d="M 72 51.84 
L 518.4 51.84 
" style="fill: none; stroke: #000000; stroke-width: 0.8; stroke-linejoin: miter; stroke-linecap: square"/>
   </g>
   <g id="legend_1">
    <g id="patch_7">
     <path d="M 434.373437 88.355625 
L 511.4 88.355625 
Q 513.4 88.355625 513.4 86.355625 
L 513.4 58.84 
Q 513.4 56.84 511.4 56.84 
L 434.373437 56.84 
Q 432.373437 56.84 432.373437 58.84 
L 432.373437 86.355625 
Q 432.373437 88.355625 434.373437 88.355625 
z
" style="fill: #ffffff; opacity: 0.8; stroke: #cccccc; stroke-linejoin: miter"/>
    </g>
    <g id="patch_8">
     <path d="M 436.373437 68.013437 
L 456.373437 68.013437 
L 456.373437 61.013437 
L 436.373437 61.013437 
z
" style="fill: #87ceeb; fill-opacity: 0.25; stroke: #87ceeb; stroke-linejoin: miter"/>
    </g>
    <g id="text_20">
     <!-- Alive -->
     <g transform="translate(464.373437 68.013437) scale(0.1 -0.1)">
      <defs>
       <path id="Helvetica-41" d="M 2844 1881 
L 2147 3909 
L 1406 1881 
L 2844 1881 
z
M 1822 4591 
L 2525 4591 
L 4191 0 
L 3509 0 
L 3044 1375 
L 1228 1375 
L 731 0 
L 94 0 
L 1822 4591 
z
" transform="scale(0.015625)"/>
       <path id="Helvetica-76" d="M 688 3347 
L 1581 622 
L 2516 3347 
L 3131 3347 
L 1869 0 
L 1269 0 
L 34 3347 
L 688 3347 
z
" transform="scale(0.015625)"/>
      </defs>
      <use xlink:href="#Helvetica-41"/>
      <use xlink:href="#Helvetica-6c" x="66.699219"/>
      <use xlink:href="#Helvetica-69" x="88.916016"/>
      <use xlink:href="#Helvetica-76" x="111.132812"/>
      <use xlink:href="#Helvetica-65" x="161.132812"/>
     </g>
    </g>
    <g id="patch_9">
     <path d="M 436.373437 82.27125 
L 456.373437 82.27125 
L 456.373437 75.27125 
L 436.373437 75.27125 
z
" style="fill: #fa8072; fill-opacity: 0.25; stroke: #fa8072; stroke-linejoin: miter"/>
    </g>
    <g id="text_21">
     <!-- Deceased -->
     <g transform="translate(464.373437 82.27125) scale(0.1 -0.1)">
      <defs>
       <path id="Helvetica-63" d="M 1703 3444 
Q 2269 3444 2623 3169 
Q 2978 2894 3050 2222 
L 2503 2222 
Q 2453 2531 2275 2736 
Q 2097 2941 1703 2941 
Q 1166 2941 934 2416 
Q 784 2075 784 1575 
Q 784 1072 996 728 
Q 1209 384 1666 384 
Q 2016 384 2220 598 
Q 2425 813 2503 1184 
L 3050 1184 
Q 2956 519 2581 211 
Q 2206 -97 1622 -97 
Q 966 -97 575 383 
Q 184 863 184 1581 
Q 184 2463 612 2953 
Q 1041 3444 1703 3444 
z
M 1616 3428 
L 1616 3428 
z
" transform="scale(0.015625)"/>
       <path id="Helvetica-64" d="M 769 1634 
Q 769 1097 997 734 
Q 1225 372 1728 372 
Q 2119 372 2370 708 
Q 2622 1044 2622 1672 
Q 2622 2306 2362 2611 
Q 2103 2916 1722 2916 
Q 1297 2916 1033 2591 
Q 769 2266 769 1634 
z
M 1616 3406 
Q 2000 3406 2259 3244 
Q 2409 3150 2600 2916 
L 2600 4606 
L 3141 4606 
L 3141 0 
L 2634 0 
L 2634 466 
Q 2438 156 2169 18 
Q 1900 -119 1553 -119 
Q 994 -119 584 351 
Q 175 822 175 1603 
Q 175 2334 548 2870 
Q 922 3406 1616 3406 
z
" transform="scale(0.015625)"/>
      </defs>
      <use xlink:href="#Helvetica-44"/>
      <use xlink:href="#Helvetica-65" x="72.216797"/>
      <use xlink:href="#Helvetica-63" x="127.832031"/>
      <use xlink:href="#Helvetica-65" x="177.832031"/>
      <use xlink:href="#Helvetica-61" x="233.447266"/>
      <use xlink:href="#Helvetica-73" x="289.0625"/>
      <use xlink:href="#Helvetica-65" x="339.0625"/>
      <use xlink:href="#Helvetica-64" x="394.677734"/>
     </g>
    </g>
   </g>
  </g>
 </g>
 <defs>
  <clipPath id="pedd20e066d">
   <rect x="72" y="51.84" width="446.4" height="332.64"/>
  </clipPath>
 </defs>
</svg>
