<?xml version="1.0" encoding="utf-8" standalone="no"?>
<!DOCTYPE svg PUBLIC "-//W3C//DTD SVG 1.1//EN"
  "http://www.w3.org/Graphics/SVG/1.1/DTD/svg11.dtd">
<svg xmlns:xlink="http://www.w3.org/1999/xlink" width="576pt" height="432pt" viewBox="0 0 576 432" xmlns="http://www.w3.org/2000/svg" version="1.1">
 <metadata>
  <rdf:RDF xmlns:dc="http://purl.org/dc/elements/1.1/" xmlns:cc="http://creativecommons.org/ns#" xmlns:rdf="http://www.w3.org/1999/02/22-rdf-syntax-ns#">
   <cc:Work>
    <dc:type rdf:resource="http://purl.org/dc/dcmitype/StillImage"/>
    <dc:date>2023-11-06T21:01:27.129658</dc:date>
    <dc:format>image/svg+xml</dc:format>
    <dc:creator>
     <cc:Agent>
      <dc:title>Matplotlib v3.7.2, https://matplotlib.org/</dc:title>
     </cc:Agent>
    </dc:creator>
   </cc:Work>
  </rdf:RDF>
 </metadata>
 <defs>
  <style type="text/css">*{stroke-linejoin: round; stroke-linecap: butt}</style>
 </defs>
 <g id="figure_1">
  <g id="patch_1">
   <path d="M 0 432 
L 576 432 
L 576 0 
L 0 0 
z
" style="fill: #ffffff"/>
  </g>
  <g id="axes_1">
   <g id="patch_2">
    <path d="M 72 384.48 
L 518.4 384.48 
L 518.4 51.84 
L 72 51.84 
z
" style="fill: #ffffff"/>
   </g>
   <g id="PolyCollection_1">
    <defs>
     <path id="ma52aaf1d97" d="M 92.290909 -47.80685 
L 92.290909 -47.52 
L 94.330196 -47.52 
L 96.369484 -47.52 
L 98.408771 -47.52 
L 100.448058 -47.52 
L 102.487346 -47.52 
L 104.526633 -47.52 
L 106.565921 -47.52 
L 108.605208 -47.52 
L 110.644495 -47.52 
L 112.683783 -47.52 
L 114.72307 -47.52 
L 116.762357 -47.52 
L 118.801645 -47.52 
L 120.840932 -47.52 
L 122.880219 -47.52 
L 124.919507 -47.52 
L 126.958794 -47.52 
L 128.998081 -47.52 
L 131.037369 -47.52 
L 133.076656 -47.52 
L 135.115943 -47.52 
L 137.155231 -47.52 
L 139.194518 -47.52 
L 141.233805 -47.52 
L 143.273093 -47.52 
L 145.31238 -47.52 
L 147.351667 -47.52 
L 149.390955 -47.52 
L 151.430242 -47.52 
L 153.469529 -47.52 
L 155.508817 -47.52 
L 157.548104 -47.52 
L 159.587392 -47.52 
L 161.626679 -47.52 
L 163.665966 -47.52 
L 165.705254 -47.52 
L 167.744541 -47.52 
L 169.783828 -47.52 
L 171.823116 -47.52 
L 173.862403 -47.52 
L 175.90169 -47.52 
L 177.940978 -47.52 
L 179.980265 -47.52 
L 182.019552 -47.52 
L 184.05884 -47.52 
L 186.098127 -47.52 
L 188.137414 -47.52 
L 190.176702 -47.52 
L 192.215989 -47.52 
L 194.255276 -47.52 
L 196.294564 -47.52 
L 198.333851 -47.52 
L 200.373138 -47.52 
L 202.412426 -47.52 
L 204.451713 -47.52 
L 206.491 -47.52 
L 208.530288 -47.52 
L 210.569575 -47.52 
L 212.608862 -47.52 
L 214.64815 -47.52 
L 216.687437 -47.52 
L 218.726725 -47.52 
L 220.766012 -47.52 
L 222.805299 -47.52 
L 224.844587 -47.52 
L 226.883874 -47.52 
L 228.923161 -47.52 
L 230.962449 -47.52 
L 233.001736 -47.52 
L 235.041023 -47.52 
L 237.080311 -47.52 
L 239.119598 -47.52 
L 241.158885 -47.52 
L 243.198173 -47.52 
L 245.23746 -47.52 
L 247.276747 -47.52 
L 249.316035 -47.52 
L 251.355322 -47.52 
L 253.394609 -47.52 
L 255.433897 -47.52 
L 257.473184 -47.52 
L 259.512471 -47.52 
L 261.551759 -47.52 
L 263.591046 -47.52 
L 265.630333 -47.52 
L 267.669621 -47.52 
L 269.708908 -47.52 
L 271.748196 -47.52 
L 273.787483 -47.52 
L 275.82677 -47.52 
L 277.866058 -47.52 
L 279.905345 -47.52 
L 281.944632 -47.52 
L 283.98392 -47.52 
L 286.023207 -47.52 
L 288.062494 -47.52 
L 290.101782 -47.52 
L 292.141069 -47.52 
L 294.180356 -47.52 
L 296.219644 -47.52 
L 298.258931 -47.52 
L 300.298218 -47.52 
L 302.337506 -47.52 
L 304.376793 -47.52 
L 306.41608 -47.52 
L 308.455368 -47.52 
L 310.494655 -47.52 
L 312.533942 -47.52 
L 314.57323 -47.52 
L 316.612517 -47.52 
L 318.651804 -47.52 
L 320.691092 -47.52 
L 322.730379 -47.52 
L 324.769667 -47.52 
L 326.808954 -47.52 
L 328.848241 -47.52 
L 330.887529 -47.52 
L 332.926816 -47.52 
L 334.966103 -47.52 
L 337.005391 -47.52 
L 339.044678 -47.52 
L 341.083965 -47.52 
L 343.123253 -47.52 
L 345.16254 -47.52 
L 347.201827 -47.52 
L 349.241115 -47.52 
L 351.280402 -47.52 
L 353.319689 -47.52 
L 355.358977 -47.52 
L 357.398264 -47.52 
L 359.437551 -47.52 
L 361.476839 -47.52 
L 363.516126 -47.52 
L 365.555413 -47.52 
L 367.594701 -47.52 
L 369.633988 -47.52 
L 371.673275 -47.52 
L 373.712563 -47.52 
L 375.75185 -47.52 
L 377.791138 -47.52 
L 379.830425 -47.52 
L 381.869712 -47.52 
L 383.909 -47.52 
L 385.948287 -47.52 
L 387.987574 -47.52 
L 390.026862 -47.52 
L 392.066149 -47.52 
L 394.105436 -47.52 
L 396.144724 -47.52 
L 398.184011 -47.52 
L 400.223298 -47.52 
L 402.262586 -47.52 
L 404.301873 -47.52 
L 406.34116 -47.52 
L 408.380448 -47.52 
L 410.419735 -47.52 
L 412.459022 -47.52 
L 414.49831 -47.52 
L 416.537597 -47.52 
L 418.576884 -47.52 
L 420.616172 -47.52 
L 422.655459 -47.52 
L 424.694746 -47.52 
L 426.734034 -47.52 
L 428.773321 -47.52 
L 430.812608 -47.52 
L 432.851896 -47.52 
L 434.891183 -47.52 
L 436.930471 -47.52 
L 438.969758 -47.52 
L 441.009045 -47.52 
L 443.048333 -47.52 
L 445.08762 -47.52 
L 447.126907 -47.52 
L 449.166195 -47.52 
L 451.205482 -47.52 
L 453.244769 -47.52 
L 455.284057 -47.52 
L 457.323344 -47.52 
L 459.362631 -47.52 
L 461.401919 -47.52 
L 463.441206 -47.52 
L 465.480493 -47.52 
L 467.519781 -47.52 
L 469.559068 -47.52 
L 471.598355 -47.52 
L 473.637643 -47.52 
L 475.67693 -47.52 
L 477.716217 -47.52 
L 479.755505 -47.52 
L 481.794792 -47.52 
L 483.834079 -47.52 
L 485.873367 -47.52 
L 487.912654 -47.52 
L 489.951942 -47.52 
L 491.991229 -47.52 
L 494.030516 -47.52 
L 496.069804 -47.52 
L 498.109091 -47.52 
L 498.109091 -47.743275 
L 498.109091 -47.743275 
L 496.069804 -47.795612 
L 494.030516 -47.858679 
L 491.991229 -47.934294 
L 489.951942 -48.024502 
L 487.912654 -48.131582 
L 485.873367 -48.258049 
L 483.834079 -48.406662 
L 481.794792 -48.580414 
L 479.755505 -48.782528 
L 477.716217 -49.016435 
L 475.67693 -49.285751 
L 473.637643 -49.594244 
L 471.598355 -49.945788 
L 469.559068 -50.344314 
L 467.519781 -50.793745 
L 465.480493 -51.297927 
L 463.441206 -51.860549 
L 461.401919 -52.485055 
L 459.362631 -53.174554 
L 457.323344 -53.93172 
L 455.284057 -54.758696 
L 453.244769 -55.656998 
L 451.205482 -56.627419 
L 449.166195 -57.669949 
L 447.126907 -58.783695 
L 445.08762 -59.966827 
L 443.048333 -61.216532 
L 441.009045 -62.528992 
L 438.969758 -63.89939 
L 436.930471 -65.321934 
L 434.891183 -66.789914 
L 432.851896 -68.29578 
L 430.812608 -69.831257 
L 428.773321 -71.387476 
L 426.734034 -72.955134 
L 424.694746 -74.524674 
L 422.655459 -76.086481 
L 420.616172 -77.631092 
L 418.576884 -79.149404 
L 416.537597 -80.632892 
L 414.49831 -82.073812 
L 412.459022 -83.465396 
L 410.419735 -84.802025 
L 408.380448 -86.079376 
L 406.34116 -87.294539 
L 404.301873 -88.446102 
L 402.262586 -89.534194 
L 400.223298 -90.560491 
L 398.184011 -91.528181 
L 396.144724 -92.441888 
L 394.105436 -93.307567 
L 392.066149 -94.132354 
L 390.026862 -94.924395 
L 387.987574 -95.692652 
L 385.948287 -96.446691 
L 383.909 -97.196462 
L 381.869712 -97.95207 
L 379.830425 -98.723563 
L 377.791138 -99.520718 
L 375.75185 -100.352854 
L 373.712563 -101.228657 
L 371.673275 -102.15604 
L 369.633988 -103.142026 
L 367.594701 -104.192658 
L 365.555413 -105.312948 
L 363.516126 -106.506845 
L 361.476839 -107.777239 
L 359.437551 -109.125977 
L 357.398264 -110.553917 
L 355.358977 -112.060978 
L 353.319689 -113.646219 
L 351.280402 -115.30792 
L 349.241115 -117.043658 
L 347.201827 -118.850402 
L 345.16254 -120.724586 
L 343.123253 -122.662189 
L 341.083965 -124.658806 
L 339.044678 -126.709706 
L 337.005391 -128.809893 
L 334.966103 -130.954151 
L 332.926816 -133.137088 
L 330.887529 -135.353175 
L 328.848241 -137.596788 
L 326.808954 -139.862241 
L 324.769667 -142.143827 
L 322.730379 -144.435866 
L 320.691092 -146.732747 
L 318.651804 -149.028984 
L 316.612517 -151.319273 
L 314.57323 -153.598554 
L 312.533942 -155.862077 
L 310.494655 -158.105466 
L 308.455368 -160.324787 
L 306.41608 -162.516606 
L 304.376793 -164.678047 
L 302.337506 -166.806836 
L 300.298218 -168.901334 
L 298.258931 -170.960562 
L 296.219644 -172.984197 
L 294.180356 -174.972569 
L 292.141069 -176.92662 
L 290.101782 -178.847863 
L 288.062494 -180.73831 
L 286.023207 -182.600393 
L 283.98392 -184.436862 
L 281.944632 -186.250676 
L 279.905345 -188.044882 
L 277.866058 -189.822484 
L 275.82677 -191.586306 
L 273.787483 -193.338861 
L 271.748196 -195.082203 
L 269.708908 -196.817802 
L 267.669621 -198.546405 
L 265.630333 -200.267916 
L 263.591046 -201.981279 
L 261.551759 -203.684376 
L 259.512471 -205.37393 
L 257.473184 -207.045433 
L 255.433897 -208.693078 
L 253.394609 -210.309715 
L 251.355322 -211.886828 
L 249.316035 -213.414529 
L 247.276747 -214.881574 
L 245.23746 -216.275408 
L 243.198173 -217.582233 
L 241.158885 -218.787107 
L 239.119598 -219.874068 
L 237.080311 -220.826288 
L 235.041023 -221.626263 
L 233.001736 -222.25602 
L 230.962449 -222.697366 
L 228.923161 -222.932145 
L 226.883874 -222.942535 
L 224.844587 -222.711342 
L 222.805299 -222.222325 
L 220.766012 -221.460512 
L 218.726725 -220.412521 
L 216.687437 -219.066874 
L 214.64815 -217.414289 
L 212.608862 -215.447954 
L 210.569575 -213.163764 
L 208.530288 -210.560525 
L 206.491 -207.640107 
L 204.451713 -204.407552 
L 202.412426 -200.87112 
L 200.373138 -197.042287 
L 198.333851 -192.935672 
L 196.294564 -188.568914 
L 194.255276 -183.962484 
L 192.215989 -179.139445 
L 190.176702 -174.125165 
L 188.137414 -168.946977 
L 186.098127 -163.633809 
L 184.05884 -158.215783 
L 182.019552 -152.723792 
L 179.980265 -147.189066 
L 177.940978 -141.642745 
L 175.90169 -136.115443 
L 173.862403 -130.636849 
L 171.823116 -125.235339 
L 169.783828 -119.93763 
L 167.744541 -114.768469 
L 165.705254 -109.750374 
L 163.665966 -104.903417 
L 161.626679 -100.245064 
L 159.587392 -95.790067 
L 157.548104 -91.550412 
L 155.508817 -87.535312 
L 153.469529 -83.751258 
L 151.430242 -80.202103 
L 149.390955 -76.889203 
L 147.351667 -73.811573 
L 145.31238 -70.966087 
L 143.273093 -68.347695 
L 141.233805 -65.949653 
L 139.194518 -63.763765 
L 137.155231 -61.780632 
L 135.115943 -59.989892 
L 133.076656 -58.38046 
L 131.037369 -56.940749 
L 128.998081 -55.658883 
L 126.958794 -54.522888 
L 124.919507 -53.520863 
L 122.880219 -52.641131 
L 120.840932 -51.872368 
L 118.801645 -51.203706 
L 116.762357 -50.624819 
L 114.72307 -50.125989 
L 112.683783 -49.698145 
L 110.644495 -49.332892 
L 108.605208 -49.022526 
L 106.565921 -48.760025 
L 104.526633 -48.53904 
L 102.487346 -48.353871 
L 100.448058 -48.199435 
L 98.408771 -48.071231 
L 96.369484 -47.965297 
L 94.330196 -47.878172 
L 92.290909 -47.80685 
z
" style="stroke: #87ceeb"/>
    </defs>
    <g clip-path="url(#p45ba793915)">
     <use xlink:href="#ma52aaf1d97" x="0" y="432" style="fill: #87ceeb; fill-opacity: 0.25; stroke: #87ceeb"/>
    </g>
   </g>
   <g id="PolyCollection_2">
    <defs>
     <path id="mc2c9018ca2" d="M 105.261929 -48.748698 
L 105.261929 -47.52 
L 106.711318 -47.52 
L 108.160707 -47.52 
L 109.610096 -47.52 
L 111.059486 -47.52 
L 112.508875 -47.52 
L 113.958264 -47.52 
L 115.407653 -47.52 
L 116.857042 -47.52 
L 118.306431 -47.52 
L 119.75582 -47.52 
L 121.205209 -47.52 
L 122.654598 -47.52 
L 124.103987 -47.52 
L 125.553376 -47.52 
L 127.002766 -47.52 
L 128.452155 -47.52 
L 129.901544 -47.52 
L 131.350933 -47.52 
L 132.800322 -47.52 
L 134.249711 -47.52 
L 135.6991 -47.52 
L 137.148489 -47.52 
L 138.597878 -47.52 
L 140.047267 -47.52 
L 141.496656 -47.52 
L 142.946046 -47.52 
L 144.395435 -47.52 
L 145.844824 -47.52 
L 147.294213 -47.52 
L 148.743602 -47.52 
L 150.192991 -47.52 
L 151.64238 -47.52 
L 153.091769 -47.52 
L 154.541158 -47.52 
L 155.990547 -47.52 
L 157.439937 -47.52 
L 158.889326 -47.52 
L 160.338715 -47.52 
L 161.788104 -47.52 
L 163.237493 -47.52 
L 164.686882 -47.52 
L 166.136271 -47.52 
L 167.58566 -47.52 
L 169.035049 -47.52 
L 170.484438 -47.52 
L 171.933827 -47.52 
L 173.383217 -47.52 
L 174.832606 -47.52 
L 176.281995 -47.52 
L 177.731384 -47.52 
L 179.180773 -47.52 
L 180.630162 -47.52 
L 182.079551 -47.52 
L 183.52894 -47.52 
L 184.978329 -47.52 
L 186.427718 -47.52 
L 187.877108 -47.52 
L 189.326497 -47.52 
L 190.775886 -47.52 
L 192.225275 -47.52 
L 193.674664 -47.52 
L 195.124053 -47.52 
L 196.573442 -47.52 
L 198.022831 -47.52 
L 199.47222 -47.52 
L 200.921609 -47.52 
L 202.370998 -47.52 
L 203.820388 -47.52 
L 205.269777 -47.52 
L 206.719166 -47.52 
L 208.168555 -47.52 
L 209.617944 -47.52 
L 211.067333 -47.52 
L 212.516722 -47.52 
L 213.966111 -47.52 
L 215.4155 -47.52 
L 216.864889 -47.52 
L 218.314278 -47.52 
L 219.763668 -47.52 
L 221.213057 -47.52 
L 222.662446 -47.52 
L 224.111835 -47.52 
L 225.561224 -47.52 
L 227.010613 -47.52 
L 228.460002 -47.52 
L 229.909391 -47.52 
L 231.35878 -47.52 
L 232.808169 -47.52 
L 234.257559 -47.52 
L 235.706948 -47.52 
L 237.156337 -47.52 
L 238.605726 -47.52 
L 240.055115 -47.52 
L 241.504504 -47.52 
L 242.953893 -47.52 
L 244.403282 -47.52 
L 245.852671 -47.52 
L 247.30206 -47.52 
L 248.751449 -47.52 
L 250.200839 -47.52 
L 251.650228 -47.52 
L 253.099617 -47.52 
L 254.549006 -47.52 
L 255.998395 -47.52 
L 257.447784 -47.52 
L 258.897173 -47.52 
L 260.346562 -47.52 
L 261.795951 -47.52 
L 263.24534 -47.52 
L 264.69473 -47.52 
L 266.144119 -47.52 
L 267.593508 -47.52 
L 269.042897 -47.52 
L 270.492286 -47.52 
L 271.941675 -47.52 
L 273.391064 -47.52 
L 274.840453 -47.52 
L 276.289842 -47.52 
L 277.739231 -47.52 
L 279.18862 -47.52 
L 280.63801 -47.52 
L 282.087399 -47.52 
L 283.536788 -47.52 
L 284.986177 -47.52 
L 286.435566 -47.52 
L 287.884955 -47.52 
L 289.334344 -47.52 
L 290.783733 -47.52 
L 292.233122 -47.52 
L 293.682511 -47.52 
L 295.1319 -47.52 
L 296.58129 -47.52 
L 298.030679 -47.52 
L 299.480068 -47.52 
L 300.929457 -47.52 
L 302.378846 -47.52 
L 303.828235 -47.52 
L 305.277624 -47.52 
L 306.727013 -47.52 
L 308.176402 -47.52 
L 309.625791 -47.52 
L 311.075181 -47.52 
L 312.52457 -47.52 
L 313.973959 -47.52 
L 315.423348 -47.52 
L 316.872737 -47.52 
L 318.322126 -47.52 
L 319.771515 -47.52 
L 321.220904 -47.52 
L 322.670293 -47.52 
L 324.119682 -47.52 
L 325.569071 -47.52 
L 327.018461 -47.52 
L 328.46785 -47.52 
L 329.917239 -47.52 
L 331.366628 -47.52 
L 332.816017 -47.52 
L 334.265406 -47.52 
L 335.714795 -47.52 
L 337.164184 -47.52 
L 338.613573 -47.52 
L 340.062962 -47.52 
L 341.512352 -47.52 
L 342.961741 -47.52 
L 344.41113 -47.52 
L 345.860519 -47.52 
L 347.309908 -47.52 
L 348.759297 -47.52 
L 350.208686 -47.52 
L 351.658075 -47.52 
L 353.107464 -47.52 
L 354.556853 -47.52 
L 356.006242 -47.52 
L 357.455632 -47.52 
L 358.905021 -47.52 
L 360.35441 -47.52 
L 361.803799 -47.52 
L 363.253188 -47.52 
L 364.702577 -47.52 
L 366.151966 -47.52 
L 367.601355 -47.52 
L 369.050744 -47.52 
L 370.500133 -47.52 
L 371.949522 -47.52 
L 373.398912 -47.52 
L 374.848301 -47.52 
L 376.29769 -47.52 
L 377.747079 -47.52 
L 379.196468 -47.52 
L 380.645857 -47.52 
L 382.095246 -47.52 
L 383.544635 -47.52 
L 384.994024 -47.52 
L 386.443413 -47.52 
L 387.892803 -47.52 
L 389.342192 -47.52 
L 390.791581 -47.52 
L 392.24097 -47.52 
L 393.690359 -47.52 
L 393.690359 -47.836368 
L 393.690359 -47.836368 
L 392.24097 -47.901746 
L 390.791581 -47.978793 
L 389.342192 -48.069187 
L 387.892803 -48.174765 
L 386.443413 -48.297521 
L 384.994024 -48.439602 
L 383.544635 -48.603302 
L 382.095246 -48.791045 
L 380.645857 -49.005369 
L 379.196468 -49.248901 
L 377.747079 -49.524325 
L 376.29769 -49.83435 
L 374.848301 -50.181663 
L 373.398912 -50.568882 
L 371.949522 -50.998501 
L 370.500133 -51.472831 
L 369.050744 -51.993936 
L 367.601355 -52.563562 
L 366.151966 -53.183073 
L 364.702577 -53.853375 
L 363.253188 -54.574853 
L 361.803799 -55.347302 
L 360.35441 -56.169867 
L 358.905021 -57.040995 
L 357.455632 -57.958391 
L 356.006242 -58.918987 
L 354.556853 -59.918932 
L 353.107464 -60.953591 
L 351.658075 -62.017569 
L 350.208686 -63.104747 
L 348.759297 -64.208349 
L 347.309908 -65.321019 
L 345.860519 -66.434931 
L 344.41113 -67.541906 
L 342.961741 -68.633563 
L 341.512352 -69.70147 
L 340.062962 -70.737329 
L 338.613573 -71.73315 
L 337.164184 -72.681453 
L 335.714795 -73.57546 
L 334.265406 -74.409289 
L 332.816017 -75.178144 
L 331.366628 -75.87849 
L 329.917239 -76.508215 
L 328.46785 -77.06677 
L 327.018461 -77.55528 
L 325.569071 -77.976632 
L 324.119682 -78.335524 
L 322.670293 -78.63848 
L 321.220904 -78.893826 
L 319.771515 -79.111626 
L 318.322126 -79.30358 
L 316.872737 -79.482878 
L 315.423348 -79.664019 
L 313.973959 -79.862591 
L 312.52457 -80.095021 
L 311.075181 -80.378293 
L 309.625791 -80.729643 
L 308.176402 -81.166239 
L 306.727013 -81.704843 
L 305.277624 -82.361472 
L 303.828235 -83.151061 
L 302.378846 -84.08713 
L 300.929457 -85.181478 
L 299.480068 -86.443894 
L 298.030679 -87.8819 
L 296.58129 -89.500538 
L 295.1319 -91.3022 
L 293.682511 -93.286508 
L 292.233122 -95.450255 
L 290.783733 -97.787399 
L 289.334344 -100.289128 
L 287.884955 -102.943981 
L 286.435566 -105.738043 
L 284.986177 -108.65519 
L 283.536788 -111.677403 
L 282.087399 -114.785132 
L 280.63801 -117.957707 
L 279.18862 -121.17379 
L 277.739231 -124.411857 
L 276.289842 -127.650701 
L 274.840453 -130.869941 
L 273.391064 -134.050528 
L 271.941675 -137.17524 
L 270.492286 -140.229141 
L 269.042897 -143.200005 
L 267.593508 -146.078686 
L 266.144119 -148.859425 
L 264.69473 -151.540091 
L 263.24534 -154.122331 
L 261.795951 -156.611653 
L 260.346562 -159.017402 
L 258.897173 -161.35266 
L 257.447784 -163.634055 
L 255.998395 -165.88148 
L 254.549006 -168.117732 
L 253.099617 -170.368088 
L 251.650228 -172.659804 
L 250.200839 -175.021568 
L 248.751449 -177.482913 
L 247.30206 -180.073595 
L 245.852671 -182.822965 
L 244.403282 -185.759328 
L 242.953893 -188.909325 
L 241.504504 -192.297326 
L 240.055115 -195.944875 
L 238.605726 -199.870162 
L 237.156337 -204.087569 
L 235.706948 -208.607267 
L 234.257559 -213.434889 
L 232.808169 -218.571273 
L 231.35878 -224.012285 
L 229.909391 -229.748718 
L 228.460002 -235.766273 
L 227.010613 -242.045607 
L 225.561224 -248.562463 
L 224.111835 -255.287863 
L 222.662446 -262.188368 
L 221.213057 -269.226394 
L 219.763668 -276.360581 
L 218.314278 -283.546209 
L 216.864889 -290.735652 
L 215.4155 -297.878863 
L 213.966111 -304.923893 
L 212.516722 -311.817423 
L 211.067333 -318.505313 
L 209.617944 -324.933166 
L 208.168555 -331.046887 
L 206.719166 -336.793249 
L 205.269777 -342.120453 
L 203.820388 -346.978672 
L 202.370998 -351.320587 
L 200.921609 -355.101902 
L 199.47222 -358.281834 
L 198.022831 -360.823576 
L 196.573442 -362.694729 
L 195.124053 -363.867689 
L 193.674664 -364.32 
L 192.225275 -364.034655 
L 190.775886 -363.000341 
L 189.326497 -361.211631 
L 187.877108 -358.669114 
L 186.427718 -355.379457 
L 184.978329 -351.355393 
L 183.52894 -346.61565 
L 182.079551 -341.184794 
L 180.630162 -335.093004 
L 179.180773 -328.375776 
L 177.731384 -321.073551 
L 176.281995 -313.231278 
L 174.832606 -304.897922 
L 173.383217 -296.125905 
L 171.933827 -286.970513 
L 170.484438 -277.489252 
L 169.035049 -267.741187 
L 167.58566 -257.786257 
L 166.136271 -247.684589 
L 164.686882 -237.495818 
L 163.237493 -227.27842 
L 161.788104 -217.089084 
L 160.338715 -206.982116 
L 158.889326 -197.008898 
L 157.439937 -187.217406 
L 155.990547 -177.651791 
L 154.541158 -168.352035 
L 153.091769 -159.353685 
L 151.64238 -150.687656 
L 150.192991 -142.380127 
L 148.743602 -134.452499 
L 147.294213 -126.921437 
L 145.844824 -119.798979 
L 144.395435 -113.092709 
L 142.946046 -106.805981 
L 141.496656 -100.938204 
L 140.047267 -95.485154 
L 138.597878 -90.439326 
L 137.148489 -85.790303 
L 135.6991 -81.525146 
L 134.249711 -77.628781 
L 132.800322 -74.084387 
L 131.350933 -70.873776 
L 129.901544 -67.977754 
L 128.452155 -65.376463 
L 127.002766 -63.049695 
L 125.553376 -60.977179 
L 124.103987 -59.138834 
L 122.654598 -57.514995 
L 121.205209 -56.086598 
L 119.75582 -54.83534 
L 118.306431 -53.7438 
L 116.857042 -52.795537 
L 115.407653 -51.975155 
L 113.958264 -51.268343 
L 112.508875 -50.661895 
L 111.059486 -50.143708 
L 109.610096 -49.702764 
L 108.160707 -49.329095 
L 106.711318 -49.013741 
L 105.261929 -48.748698 
z
" style="stroke: #fa8072"/>
    </defs>
    <g clip-path="url(#p45ba793915)">
     <use xlink:href="#mc2c9018ca2" x="0" y="432" style="fill: #fa8072; fill-opacity: 0.25; stroke: #fa8072"/>
    </g>
   </g>
   <g id="matplotlib.axis_1">
    <g id="xtick_1">
     <g id="line2d_1">
      <defs>
       <path id="m517e872601" d="M 0 0 
L 0 3.5 
" style="stroke: #000000; stroke-width: 0.8"/>
      </defs>
      <g>
       <use xlink:href="#m517e872601" x="92.546665" y="384.48" style="stroke: #000000; stroke-width: 0.8"/>
      </g>
     </g>
     <g id="text_1">
      <!-- −0.2 -->
      <g transform="translate(82.676353 398.653437) scale(0.1 -0.1)">
       <defs>
        <path id="Helvetica-2212" d="M 3547 1894 
L 3547 1369 
L 288 1369 
L 288 1894 
L 3547 1894 
z
" transform="scale(0.015625)"/>
        <path id="Helvetica-30" d="M 1731 4475 
Q 2600 4475 2988 3759 
Q 3288 3206 3288 2244 
Q 3288 1331 3016 734 
Q 2622 -122 1728 -122 
Q 922 -122 528 578 
Q 200 1163 200 2147 
Q 200 2909 397 3456 
Q 766 4475 1731 4475 
z
M 1725 391 
Q 2163 391 2422 778 
Q 2681 1166 2681 2222 
Q 2681 2984 2493 3476 
Q 2306 3969 1766 3969 
Q 1269 3969 1039 3501 
Q 809 3034 809 2125 
Q 809 1441 956 1025 
Q 1181 391 1725 391 
z
" transform="scale(0.015625)"/>
        <path id="Helvetica-2e" d="M 547 681 
L 1200 681 
L 1200 0 
L 547 0 
L 547 681 
z
" transform="scale(0.015625)"/>
        <path id="Helvetica-32" d="M 200 0 
Q 231 578 439 1006 
Q 647 1434 1250 1784 
L 1850 2131 
Q 2253 2366 2416 2531 
Q 2672 2791 2672 3125 
Q 2672 3516 2437 3745 
Q 2203 3975 1813 3975 
Q 1234 3975 1013 3538 
Q 894 3303 881 2888 
L 309 2888 
Q 319 3472 525 3841 
Q 891 4491 1816 4491 
Q 2584 4491 2939 4075 
Q 3294 3659 3294 3150 
Q 3294 2613 2916 2231 
Q 2697 2009 2131 1694 
L 1703 1456 
Q 1397 1288 1222 1134 
Q 909 863 828 531 
L 3272 531 
L 3272 0 
L 200 0 
z
" transform="scale(0.015625)"/>
       </defs>
       <use xlink:href="#Helvetica-2212"/>
       <use xlink:href="#Helvetica-30" x="58.398438"/>
       <use xlink:href="#Helvetica-2e" x="114.013672"/>
       <use xlink:href="#Helvetica-32" x="141.796875"/>
      </g>
     </g>
    </g>
    <g id="xtick_2">
     <g id="line2d_2">
      <g>
       <use xlink:href="#m517e872601" x="173.397147" y="384.48" style="stroke: #000000; stroke-width: 0.8"/>
      </g>
     </g>
     <g id="text_2">
      <!-- 0.0 -->
      <g transform="translate(166.447147 398.653437) scale(0.1 -0.1)">
       <use xlink:href="#Helvetica-30"/>
       <use xlink:href="#Helvetica-2e" x="55.615234"/>
       <use xlink:href="#Helvetica-30" x="83.398438"/>
      </g>
     </g>
    </g>
    <g id="xtick_3">
     <g id="line2d_3">
      <g>
       <use xlink:href="#m517e872601" x="254.24763" y="384.48" style="stroke: #000000; stroke-width: 0.8"/>
      </g>
     </g>
     <g id="text_3">
      <!-- 0.2 -->
      <g transform="translate(247.29763 398.653437) scale(0.1 -0.1)">
       <use xlink:href="#Helvetica-30"/>
       <use xlink:href="#Helvetica-2e" x="55.615234"/>
       <use xlink:href="#Helvetica-32" x="83.398438"/>
      </g>
     </g>
    </g>
    <g id="xtick_4">
     <g id="line2d_4">
      <g>
       <use xlink:href="#m517e872601" x="335.098112" y="384.48" style="stroke: #000000; stroke-width: 0.8"/>
      </g>
     </g>
     <g id="text_4">
      <!-- 0.4 -->
      <g transform="translate(328.148112 398.653437) scale(0.1 -0.1)">
       <defs>
        <path id="Helvetica-34" d="M 2116 1584 
L 2116 3613 
L 681 1584 
L 2116 1584 
z
M 2125 0 
L 2125 1094 
L 163 1094 
L 163 1644 
L 2213 4488 
L 2688 4488 
L 2688 1584 
L 3347 1584 
L 3347 1094 
L 2688 1094 
L 2688 0 
L 2125 0 
z
" transform="scale(0.015625)"/>
       </defs>
       <use xlink:href="#Helvetica-30"/>
       <use xlink:href="#Helvetica-2e" x="55.615234"/>
       <use xlink:href="#Helvetica-34" x="83.398438"/>
      </g>
     </g>
    </g>
    <g id="xtick_5">
     <g id="line2d_5">
      <g>
       <use xlink:href="#m517e872601" x="415.948594" y="384.48" style="stroke: #000000; stroke-width: 0.8"/>
      </g>
     </g>
     <g id="text_5">
      <!-- 0.6 -->
      <g transform="translate(408.998594 398.653437) scale(0.1 -0.1)">
       <defs>
        <path id="Helvetica-36" d="M 1872 4494 
Q 2622 4494 2917 4105 
Q 3213 3716 3213 3303 
L 2656 3303 
Q 2606 3569 2497 3719 
Q 2294 4000 1881 4000 
Q 1409 4000 1131 3564 
Q 853 3128 822 2316 
Q 1016 2600 1309 2741 
Q 1578 2866 1909 2866 
Q 2472 2866 2890 2506 
Q 3309 2147 3309 1434 
Q 3309 825 2912 354 
Q 2516 -116 1781 -116 
Q 1153 -116 697 361 
Q 241 838 241 1966 
Q 241 2800 444 3381 
Q 834 4494 1872 4494 
z
M 1831 384 
Q 2275 384 2495 682 
Q 2716 981 2716 1388 
Q 2716 1731 2519 2042 
Q 2322 2353 1803 2353 
Q 1441 2353 1167 2112 
Q 894 1872 894 1388 
Q 894 963 1142 673 
Q 1391 384 1831 384 
z
" transform="scale(0.015625)"/>
       </defs>
       <use xlink:href="#Helvetica-30"/>
       <use xlink:href="#Helvetica-2e" x="55.615234"/>
       <use xlink:href="#Helvetica-36" x="83.398438"/>
      </g>
     </g>
    </g>
    <g id="xtick_6">
     <g id="line2d_6">
      <g>
       <use xlink:href="#m517e872601" x="496.799077" y="384.48" style="stroke: #000000; stroke-width: 0.8"/>
      </g>
     </g>
     <g id="text_6">
      <!-- 0.8 -->
      <g transform="translate(489.849077 398.653437) scale(0.1 -0.1)">
       <defs>
        <path id="Helvetica-38" d="M 1741 2600 
Q 2113 2600 2322 2808 
Q 2531 3016 2531 3303 
Q 2531 3553 2331 3762 
Q 2131 3972 1722 3972 
Q 1316 3972 1134 3762 
Q 953 3553 953 3272 
Q 953 2956 1187 2778 
Q 1422 2600 1741 2600 
z
M 1775 384 
Q 2166 384 2423 595 
Q 2681 806 2681 1225 
Q 2681 1659 2415 1884 
Q 2150 2109 1734 2109 
Q 1331 2109 1076 1879 
Q 822 1650 822 1244 
Q 822 894 1055 639 
Q 1288 384 1775 384 
z
M 975 2384 
Q 741 2484 609 2619 
Q 363 2869 363 3269 
Q 363 3769 725 4128 
Q 1088 4488 1753 4488 
Q 2397 4488 2762 4148 
Q 3128 3809 3128 3356 
Q 3128 2938 2916 2678 
Q 2797 2531 2547 2391 
Q 2825 2263 2984 2097 
Q 3281 1784 3281 1284 
Q 3281 694 2884 283 
Q 2488 -128 1763 -128 
Q 1109 -128 657 226 
Q 206 581 206 1256 
Q 206 1653 400 1942 
Q 594 2231 975 2384 
z
" transform="scale(0.015625)"/>
       </defs>
       <use xlink:href="#Helvetica-30"/>
       <use xlink:href="#Helvetica-2e" x="55.615234"/>
       <use xlink:href="#Helvetica-38" x="83.398438"/>
      </g>
     </g>
    </g>
    <g id="text_7">
     <!-- Polym Rate (Pa/s) -->
     <g transform="translate(254.635156 412.028437) scale(0.1 -0.1)">
      <defs>
       <path id="Helvetica-50" d="M 547 4591 
L 2613 4591 
Q 3225 4591 3600 4245 
Q 3975 3900 3975 3275 
Q 3975 2738 3640 2339 
Q 3306 1941 2613 1941 
L 1169 1941 
L 1169 0 
L 547 0 
L 547 4591 
z
M 3347 3272 
Q 3347 3778 2972 3959 
Q 2766 4056 2406 4056 
L 1169 4056 
L 1169 2466 
L 2406 2466 
Q 2825 2466 3086 2644 
Q 3347 2822 3347 3272 
z
" transform="scale(0.015625)"/>
       <path id="Helvetica-6f" d="M 1741 363 
Q 2300 363 2508 786 
Q 2716 1209 2716 1728 
Q 2716 2197 2566 2491 
Q 2328 2953 1747 2953 
Q 1231 2953 997 2559 
Q 763 2166 763 1609 
Q 763 1075 997 719 
Q 1231 363 1741 363 
z
M 1763 3444 
Q 2409 3444 2856 3012 
Q 3303 2581 3303 1744 
Q 3303 934 2909 406 
Q 2516 -122 1688 -122 
Q 997 -122 590 345 
Q 184 813 184 1600 
Q 184 2444 612 2944 
Q 1041 3444 1763 3444 
z
M 1744 3428 
L 1744 3428 
z
" transform="scale(0.015625)"/>
       <path id="Helvetica-6c" d="M 428 4591 
L 991 4591 
L 991 0 
L 428 0 
L 428 4591 
z
" transform="scale(0.015625)"/>
       <path id="Helvetica-79" d="M 2503 3347 
L 3125 3347 
Q 3006 3025 2597 1878 
Q 2291 1016 2084 472 
Q 1597 -809 1397 -1090 
Q 1197 -1372 709 -1372 
Q 591 -1372 527 -1362 
Q 463 -1353 369 -1328 
L 369 -816 
Q 516 -856 581 -865 
Q 647 -875 697 -875 
Q 853 -875 926 -823 
Q 1000 -772 1050 -697 
Q 1066 -672 1162 -440 
Q 1259 -209 1303 -97 
L 66 3347 
L 703 3347 
L 1600 622 
L 2503 3347 
z
M 1597 3428 
L 1597 3428 
z
" transform="scale(0.015625)"/>
       <path id="Helvetica-6d" d="M 413 3347 
L 969 3347 
L 969 2872 
Q 1169 3119 1331 3231 
Q 1609 3422 1963 3422 
Q 2363 3422 2606 3225 
Q 2744 3113 2856 2894 
Q 3044 3163 3297 3292 
Q 3550 3422 3866 3422 
Q 4541 3422 4784 2934 
Q 4916 2672 4916 2228 
L 4916 0 
L 4331 0 
L 4331 2325 
Q 4331 2659 4164 2784 
Q 3997 2909 3756 2909 
Q 3425 2909 3186 2687 
Q 2947 2466 2947 1947 
L 2947 0 
L 2375 0 
L 2375 2184 
Q 2375 2525 2294 2681 
Q 2166 2916 1816 2916 
Q 1497 2916 1236 2669 
Q 975 2422 975 1775 
L 975 0 
L 413 0 
L 413 3347 
z
" transform="scale(0.015625)"/>
       <path id="Helvetica-20" transform="scale(0.015625)"/>
       <path id="Helvetica-52" d="M 2622 2488 
Q 3059 2488 3314 2663 
Q 3569 2838 3569 3294 
Q 3569 3784 3213 3963 
Q 3022 4056 2703 4056 
L 1184 4056 
L 1184 2488 
L 2622 2488 
z
M 563 4591 
L 2688 4591 
Q 3213 4591 3553 4438 
Q 4200 4144 4200 3353 
Q 4200 2941 4029 2678 
Q 3859 2416 3553 2256 
Q 3822 2147 3958 1969 
Q 4094 1791 4109 1391 
L 4131 775 
Q 4141 513 4175 384 
Q 4231 166 4375 103 
L 4375 0 
L 3613 0 
Q 3581 59 3562 153 
Q 3544 247 3531 516 
L 3494 1281 
Q 3472 1731 3159 1884 
Q 2981 1969 2600 1969 
L 1184 1969 
L 1184 0 
L 563 0 
L 563 4591 
z
" transform="scale(0.015625)"/>
       <path id="Helvetica-61" d="M 844 891 
Q 844 647 1022 506 
Q 1200 366 1444 366 
Q 1741 366 2019 503 
Q 2488 731 2488 1250 
L 2488 1703 
Q 2384 1638 2221 1594 
Q 2059 1550 1903 1531 
L 1563 1488 
Q 1256 1447 1103 1359 
Q 844 1213 844 891 
z
M 2206 2028 
Q 2400 2053 2466 2191 
Q 2503 2266 2503 2406 
Q 2503 2694 2298 2823 
Q 2094 2953 1713 2953 
Q 1272 2953 1088 2716 
Q 984 2584 953 2325 
L 428 2325 
Q 444 2944 830 3186 
Q 1216 3428 1725 3428 
Q 2316 3428 2684 3203 
Q 3050 2978 3050 2503 
L 3050 575 
Q 3050 488 3086 434 
Q 3122 381 3238 381 
Q 3275 381 3322 386 
Q 3369 391 3422 400 
L 3422 -16 
Q 3291 -53 3222 -62 
Q 3153 -72 3034 -72 
Q 2744 -72 2613 134 
Q 2544 244 2516 444 
Q 2344 219 2022 53 
Q 1700 -113 1313 -113 
Q 847 -113 551 170 
Q 256 453 256 878 
Q 256 1344 547 1600 
Q 838 1856 1309 1916 
L 2206 2028 
z
M 1741 3428 
L 1741 3428 
z
" transform="scale(0.015625)"/>
       <path id="Helvetica-74" d="M 525 4281 
L 1094 4281 
L 1094 3347 
L 1628 3347 
L 1628 2888 
L 1094 2888 
L 1094 703 
Q 1094 528 1213 469 
Q 1278 434 1431 434 
Q 1472 434 1519 436 
Q 1566 438 1628 444 
L 1628 0 
Q 1531 -28 1426 -40 
Q 1322 -53 1200 -53 
Q 806 -53 665 148 
Q 525 350 525 672 
L 525 2888 
L 72 2888 
L 72 3347 
L 525 3347 
L 525 4281 
z
" transform="scale(0.015625)"/>
       <path id="Helvetica-65" d="M 1806 3422 
Q 2163 3422 2497 3255 
Q 2831 3088 3006 2822 
Q 3175 2569 3231 2231 
Q 3281 2000 3281 1494 
L 828 1494 
Q 844 984 1069 676 
Q 1294 369 1766 369 
Q 2206 369 2469 659 
Q 2619 828 2681 1050 
L 3234 1050 
Q 3213 866 3089 639 
Q 2966 413 2813 269 
Q 2556 19 2178 -69 
Q 1975 -119 1719 -119 
Q 1094 -119 659 336 
Q 225 791 225 1609 
Q 225 2416 662 2919 
Q 1100 3422 1806 3422 
z
M 2703 1941 
Q 2669 2306 2544 2525 
Q 2313 2931 1772 2931 
Q 1384 2931 1121 2651 
Q 859 2372 844 1941 
L 2703 1941 
z
M 1753 3428 
L 1753 3428 
z
" transform="scale(0.015625)"/>
       <path id="Helvetica-28" d="M 1894 4666 
Q 1403 3713 1256 3263 
Q 1034 2578 1034 1681 
Q 1034 775 1288 25 
Q 1444 -438 1903 -1306 
L 1525 -1306 
Q 1069 -594 959 -397 
Q 850 -200 722 138 
Q 547 600 478 1125 
Q 444 1397 444 1644 
Q 444 2569 734 3291 
Q 919 3750 1503 4666 
L 1894 4666 
z
" transform="scale(0.015625)"/>
       <path id="Helvetica-2f" d="M 1456 4591 
L 1931 4591 
L 475 0 
L 0 0 
L 1456 4591 
z
" transform="scale(0.015625)"/>
       <path id="Helvetica-73" d="M 747 1050 
Q 772 769 888 619 
Q 1100 347 1625 347 
Q 1938 347 2175 483 
Q 2413 619 2413 903 
Q 2413 1119 2222 1231 
Q 2100 1300 1741 1391 
L 1294 1503 
Q 866 1609 663 1741 
Q 300 1969 300 2372 
Q 300 2847 642 3140 
Q 984 3434 1563 3434 
Q 2319 3434 2653 2991 
Q 2863 2709 2856 2384 
L 2325 2384 
Q 2309 2575 2191 2731 
Q 1997 2953 1519 2953 
Q 1200 2953 1036 2831 
Q 872 2709 872 2509 
Q 872 2291 1088 2159 
Q 1213 2081 1456 2022 
L 1828 1931 
Q 2434 1784 2641 1647 
Q 2969 1431 2969 969 
Q 2969 522 2630 197 
Q 2291 -128 1597 -128 
Q 850 -128 539 211 
Q 228 550 206 1050 
L 747 1050 
z
M 1578 3428 
L 1578 3428 
z
" transform="scale(0.015625)"/>
       <path id="Helvetica-29" d="M 222 -1306 
Q 719 -338 863 106 
Q 1081 778 1081 1681 
Q 1081 2584 828 3334 
Q 672 3797 213 4666 
L 591 4666 
Q 1072 3897 1173 3717 
Q 1275 3538 1394 3222 
Q 1544 2831 1608 2450 
Q 1672 2069 1672 1716 
Q 1672 791 1378 66 
Q 1194 -400 613 -1306 
L 222 -1306 
z
" transform="scale(0.015625)"/>
      </defs>
      <use xlink:href="#Helvetica-50"/>
      <use xlink:href="#Helvetica-6f" x="66.699219"/>
      <use xlink:href="#Helvetica-6c" x="122.314453"/>
      <use xlink:href="#Helvetica-79" x="144.53125"/>
      <use xlink:href="#Helvetica-6d" x="194.53125"/>
      <use xlink:href="#Helvetica-20" x="277.832031"/>
      <use xlink:href="#Helvetica-52" x="305.615234"/>
      <use xlink:href="#Helvetica-61" x="377.832031"/>
      <use xlink:href="#Helvetica-74" x="433.447266"/>
      <use xlink:href="#Helvetica-65" x="461.230469"/>
      <use xlink:href="#Helvetica-20" x="516.845703"/>
      <use xlink:href="#Helvetica-28" x="544.628906"/>
      <use xlink:href="#Helvetica-50" x="577.929688"/>
      <use xlink:href="#Helvetica-61" x="644.628906"/>
      <use xlink:href="#Helvetica-2f" x="700.244141"/>
      <use xlink:href="#Helvetica-73" x="728.027344"/>
      <use xlink:href="#Helvetica-29" x="778.027344"/>
     </g>
    </g>
   </g>
   <g id="matplotlib.axis_2">
    <g id="ytick_1">
     <g id="line2d_7">
      <defs>
       <path id="me8b5b9c1d6" d="M 0 0 
L -3.5 0 
" style="stroke: #000000; stroke-width: 0.8"/>
      </defs>
      <g>
       <use xlink:href="#me8b5b9c1d6" x="72" y="384.48" style="stroke: #000000; stroke-width: 0.8"/>
      </g>
     </g>
     <g id="text_8">
      <!-- 0 -->
      <g transform="translate(59.439062 388.066719) scale(0.1 -0.1)">
       <use xlink:href="#Helvetica-30"/>
      </g>
     </g>
    </g>
    <g id="ytick_2">
     <g id="line2d_8">
      <g>
       <use xlink:href="#me8b5b9c1d6" x="72" y="311.68147" style="stroke: #000000; stroke-width: 0.8"/>
      </g>
     </g>
     <g id="text_9">
      <!-- 1 -->
      <g transform="translate(59.439062 315.268189) scale(0.1 -0.1)">
       <defs>
        <path id="Helvetica-31" d="M 613 3169 
L 613 3600 
Q 1222 3659 1462 3798 
Q 1703 3938 1822 4456 
L 2266 4456 
L 2266 0 
L 1666 0 
L 1666 3169 
L 613 3169 
z
" transform="scale(0.015625)"/>
       </defs>
       <use xlink:href="#Helvetica-31"/>
      </g>
     </g>
    </g>
    <g id="ytick_3">
     <g id="line2d_9">
      <g>
       <use xlink:href="#me8b5b9c1d6" x="72" y="238.882941" style="stroke: #000000; stroke-width: 0.8"/>
      </g>
     </g>
     <g id="text_10">
      <!-- 2 -->
      <g transform="translate(59.439062 242.46966) scale(0.1 -0.1)">
       <use xlink:href="#Helvetica-32"/>
      </g>
     </g>
    </g>
    <g id="ytick_4">
     <g id="line2d_10">
      <g>
       <use xlink:href="#me8b5b9c1d6" x="72" y="166.084411" style="stroke: #000000; stroke-width: 0.8"/>
      </g>
     </g>
     <g id="text_11">
      <!-- 3 -->
      <g transform="translate(59.439062 169.67113) scale(0.1 -0.1)">
       <defs>
        <path id="Helvetica-33" d="M 1663 -122 
Q 869 -122 511 314 
Q 153 750 153 1375 
L 741 1375 
Q 778 941 903 744 
Q 1122 391 1694 391 
Q 2138 391 2406 628 
Q 2675 866 2675 1241 
Q 2675 1703 2392 1887 
Q 2109 2072 1606 2072 
Q 1550 2072 1492 2070 
Q 1434 2069 1375 2066 
L 1375 2563 
Q 1463 2553 1522 2550 
Q 1581 2547 1650 2547 
Q 1966 2547 2169 2647 
Q 2525 2822 2525 3272 
Q 2525 3606 2287 3787 
Q 2050 3969 1734 3969 
Q 1172 3969 956 3594 
Q 838 3388 822 3006 
L 266 3006 
Q 266 3506 466 3856 
Q 809 4481 1675 4481 
Q 2359 4481 2734 4176 
Q 3109 3872 3109 3294 
Q 3109 2881 2888 2625 
Q 2750 2466 2531 2375 
Q 2884 2278 3082 2001 
Q 3281 1725 3281 1325 
Q 3281 684 2859 281 
Q 2438 -122 1663 -122 
z
" transform="scale(0.015625)"/>
       </defs>
       <use xlink:href="#Helvetica-33"/>
      </g>
     </g>
    </g>
    <g id="ytick_5">
     <g id="line2d_11">
      <g>
       <use xlink:href="#me8b5b9c1d6" x="72" y="93.285882" style="stroke: #000000; stroke-width: 0.8"/>
      </g>
     </g>
     <g id="text_12">
      <!-- 4 -->
      <g transform="translate(59.439062 96.872601) scale(0.1 -0.1)">
       <use xlink:href="#Helvetica-34"/>
      </g>
     </g>
    </g>
    <g id="text_13">
     <!-- Density -->
     <g transform="translate(53.295312 234.831875) rotate(-90) scale(0.1 -0.1)">
      <defs>
       <path id="Helvetica-44" d="M 2250 531 
Q 2566 531 2769 597 
Q 3131 719 3363 1066 
Q 3547 1344 3628 1778 
Q 3675 2038 3675 2259 
Q 3675 3113 3336 3584 
Q 2997 4056 2244 4056 
L 1141 4056 
L 1141 531 
L 2250 531 
z
M 516 4591 
L 2375 4591 
Q 3322 4591 3844 3919 
Q 4309 3313 4309 2366 
Q 4309 1634 4034 1044 
Q 3550 0 2369 0 
L 516 0 
L 516 4591 
z
" transform="scale(0.015625)"/>
       <path id="Helvetica-6e" d="M 413 3347 
L 947 3347 
L 947 2872 
Q 1184 3166 1450 3294 
Q 1716 3422 2041 3422 
Q 2753 3422 3003 2925 
Q 3141 2653 3141 2147 
L 3141 0 
L 2569 0 
L 2569 2109 
Q 2569 2416 2478 2603 
Q 2328 2916 1934 2916 
Q 1734 2916 1606 2875 
Q 1375 2806 1200 2600 
Q 1059 2434 1017 2257 
Q 975 2081 975 1753 
L 975 0 
L 413 0 
L 413 3347 
z
M 1734 3428 
L 1734 3428 
z
" transform="scale(0.015625)"/>
       <path id="Helvetica-69" d="M 413 3331 
L 984 3331 
L 984 0 
L 413 0 
L 413 3331 
z
M 413 4591 
L 984 4591 
L 984 3953 
L 413 3953 
L 413 4591 
z
" transform="scale(0.015625)"/>
      </defs>
      <use xlink:href="#Helvetica-44"/>
      <use xlink:href="#Helvetica-65" x="72.216797"/>
      <use xlink:href="#Helvetica-6e" x="127.832031"/>
      <use xlink:href="#Helvetica-73" x="183.447266"/>
      <use xlink:href="#Helvetica-69" x="233.447266"/>
      <use xlink:href="#Helvetica-74" x="255.664062"/>
      <use xlink:href="#Helvetica-79" x="283.447266"/>
     </g>
    </g>
   </g>
   <g id="patch_3">
    <path d="M 72 384.48 
L 72 51.84 
" style="fill: none; stroke: #000000; stroke-width: 0.8; stroke-linejoin: miter; stroke-linecap: square"/>
   </g>
   <g id="patch_4">
    <path d="M 518.4 384.48 
L 518.4 51.84 
" style="fill: none; stroke: #000000; stroke-width: 0.8; stroke-linejoin: miter; stroke-linecap: square"/>
   </g>
   <g id="patch_5">
    <path d="M 72 384.48 
L 518.4 384.48 
" style="fill: none; stroke: #000000; stroke-width: 0.8; stroke-linejoin: miter; stroke-linecap: square"/>
   </g>
   <g id="patch_6">
    <path d="M 72 51.84 
L 518.4 51.84 
" style="fill: none; stroke: #000000; stroke-width: 0.8; stroke-linejoin: miter; stroke-linecap: square"/>
   </g>
   <g id="legend_1">
    <g id="patch_7">
     <path d="M 434.373437 88.355625 
L 511.4 88.355625 
Q 513.4 88.355625 513.4 86.355625 
L 513.4 58.84 
Q 513.4 56.84 511.4 56.84 
L 434.373437 56.84 
Q 432.373437 56.84 432.373437 58.84 
L 432.373437 86.355625 
Q 432.373437 88.355625 434.373437 88.355625 
z
" style="fill: #ffffff; opacity: 0.8; stroke: #cccccc; stroke-linejoin: miter"/>
    </g>
    <g id="patch_8">
     <path d="M 436.373437 68.013437 
L 456.373437 68.013437 
L 456.373437 61.013437 
L 436.373437 61.013437 
z
" style="fill: #87ceeb; fill-opacity: 0.25; stroke: #87ceeb; stroke-linejoin: miter"/>
    </g>
    <g id="text_14">
     <!-- Alive -->
     <g transform="translate(464.373437 68.013437) scale(0.1 -0.1)">
      <defs>
       <path id="Helvetica-41" d="M 2844 1881 
L 2147 3909 
L 1406 1881 
L 2844 1881 
z
M 1822 4591 
L 2525 4591 
L 4191 0 
L 3509 0 
L 3044 1375 
L 1228 1375 
L 731 0 
L 94 0 
L 1822 4591 
z
" transform="scale(0.015625)"/>
       <path id="Helvetica-76" d="M 688 3347 
L 1581 622 
L 2516 3347 
L 3131 3347 
L 1869 0 
L 1269 0 
L 34 3347 
L 688 3347 
z
" transform="scale(0.015625)"/>
      </defs>
      <use xlink:href="#Helvetica-41"/>
      <use xlink:href="#Helvetica-6c" x="66.699219"/>
      <use xlink:href="#Helvetica-69" x="88.916016"/>
      <use xlink:href="#Helvetica-76" x="111.132812"/>
      <use xlink:href="#Helvetica-65" x="161.132812"/>
     </g>
    </g>
    <g id="patch_9">
     <path d="M 436.373437 82.27125 
L 456.373437 82.27125 
L 456.373437 75.27125 
L 436.373437 75.27125 
z
" style="fill: #fa8072; fill-opacity: 0.25; stroke: #fa8072; stroke-linejoin: miter"/>
    </g>
    <g id="text_15">
     <!-- Deceased -->
     <g transform="translate(464.373437 82.27125) scale(0.1 -0.1)">
      <defs>
       <path id="Helvetica-63" d="M 1703 3444 
Q 2269 3444 2623 3169 
Q 2978 2894 3050 2222 
L 2503 2222 
Q 2453 2531 2275 2736 
Q 2097 2941 1703 2941 
Q 1166 2941 934 2416 
Q 784 2075 784 1575 
Q 784 1072 996 728 
Q 1209 384 1666 384 
Q 2016 384 2220 598 
Q 2425 813 2503 1184 
L 3050 1184 
Q 2956 519 2581 211 
Q 2206 -97 1622 -97 
Q 966 -97 575 383 
Q 184 863 184 1581 
Q 184 2463 612 2953 
Q 1041 3444 1703 3444 
z
M 1616 3428 
L 1616 3428 
z
" transform="scale(0.015625)"/>
       <path id="Helvetica-64" d="M 769 1634 
Q 769 1097 997 734 
Q 1225 372 1728 372 
Q 2119 372 2370 708 
Q 2622 1044 2622 1672 
Q 2622 2306 2362 2611 
Q 2103 2916 1722 2916 
Q 1297 2916 1033 2591 
Q 769 2266 769 1634 
z
M 1616 3406 
Q 2000 3406 2259 3244 
Q 2409 3150 2600 2916 
L 2600 4606 
L 3141 4606 
L 3141 0 
L 2634 0 
L 2634 466 
Q 2438 156 2169 18 
Q 1900 -119 1553 -119 
Q 994 -119 584 351 
Q 175 822 175 1603 
Q 175 2334 548 2870 
Q 922 3406 1616 3406 
z
" transform="scale(0.015625)"/>
      </defs>
      <use xlink:href="#Helvetica-44"/>
      <use xlink:href="#Helvetica-65" x="72.216797"/>
      <use xlink:href="#Helvetica-63" x="127.832031"/>
      <use xlink:href="#Helvetica-65" x="177.832031"/>
      <use xlink:href="#Helvetica-61" x="233.447266"/>
      <use xlink:href="#Helvetica-73" x="289.0625"/>
      <use xlink:href="#Helvetica-65" x="339.0625"/>
      <use xlink:href="#Helvetica-64" x="394.677734"/>
     </g>
    </g>
   </g>
  </g>
 </g>
 <defs>
  <clipPath id="p45ba793915">
   <rect x="72" y="51.84" width="446.4" height="332.64"/>
  </clipPath>
 </defs>
</svg>
