<?xml version="1.0" encoding="utf-8" standalone="no"?>
<!DOCTYPE svg PUBLIC "-//W3C//DTD SVG 1.1//EN"
  "http://www.w3.org/Graphics/SVG/1.1/DTD/svg11.dtd">
<svg xmlns:xlink="http://www.w3.org/1999/xlink" width="576pt" height="432pt" viewBox="0 0 576 432" xmlns="http://www.w3.org/2000/svg" version="1.1">
 <metadata>
  <rdf:RDF xmlns:dc="http://purl.org/dc/elements/1.1/" xmlns:cc="http://creativecommons.org/ns#" xmlns:rdf="http://www.w3.org/1999/02/22-rdf-syntax-ns#">
   <cc:Work>
    <dc:type rdf:resource="http://purl.org/dc/dcmitype/StillImage"/>
    <dc:date>2023-11-06T21:01:28.941053</dc:date>
    <dc:format>image/svg+xml</dc:format>
    <dc:creator>
     <cc:Agent>
      <dc:title>Matplotlib v3.7.2, https://matplotlib.org/</dc:title>
     </cc:Agent>
    </dc:creator>
   </cc:Work>
  </rdf:RDF>
 </metadata>
 <defs>
  <style type="text/css">*{stroke-linejoin: round; stroke-linecap: butt}</style>
 </defs>
 <g id="figure_1">
  <g id="patch_1">
   <path d="M 0 432 
L 576 432 
L 576 0 
L 0 0 
z
" style="fill: #ffffff"/>
  </g>
  <g id="axes_1">
   <g id="patch_2">
    <path d="M 72 384.48 
L 518.4 384.48 
L 518.4 51.84 
L 72 51.84 
z
" style="fill: #ffffff"/>
   </g>
   <g id="PolyCollection_1">
    <defs>
     <path id="m3a4d8fa436" d="M 92.290909 -47.625265 
L 92.290909 -47.52 
L 94.330196 -47.52 
L 96.369484 -47.52 
L 98.408771 -47.52 
L 100.448058 -47.52 
L 102.487346 -47.52 
L 104.526633 -47.52 
L 106.565921 -47.52 
L 108.605208 -47.52 
L 110.644495 -47.52 
L 112.683783 -47.52 
L 114.72307 -47.52 
L 116.762357 -47.52 
L 118.801645 -47.52 
L 120.840932 -47.52 
L 122.880219 -47.52 
L 124.919507 -47.52 
L 126.958794 -47.52 
L 128.998081 -47.52 
L 131.037369 -47.52 
L 133.076656 -47.52 
L 135.115943 -47.52 
L 137.155231 -47.52 
L 139.194518 -47.52 
L 141.233805 -47.52 
L 143.273093 -47.52 
L 145.31238 -47.52 
L 147.351667 -47.52 
L 149.390955 -47.52 
L 151.430242 -47.52 
L 153.469529 -47.52 
L 155.508817 -47.52 
L 157.548104 -47.52 
L 159.587392 -47.52 
L 161.626679 -47.52 
L 163.665966 -47.52 
L 165.705254 -47.52 
L 167.744541 -47.52 
L 169.783828 -47.52 
L 171.823116 -47.52 
L 173.862403 -47.52 
L 175.90169 -47.52 
L 177.940978 -47.52 
L 179.980265 -47.52 
L 182.019552 -47.52 
L 184.05884 -47.52 
L 186.098127 -47.52 
L 188.137414 -47.52 
L 190.176702 -47.52 
L 192.215989 -47.52 
L 194.255276 -47.52 
L 196.294564 -47.52 
L 198.333851 -47.52 
L 200.373138 -47.52 
L 202.412426 -47.52 
L 204.451713 -47.52 
L 206.491 -47.52 
L 208.530288 -47.52 
L 210.569575 -47.52 
L 212.608862 -47.52 
L 214.64815 -47.52 
L 216.687437 -47.52 
L 218.726725 -47.52 
L 220.766012 -47.52 
L 222.805299 -47.52 
L 224.844587 -47.52 
L 226.883874 -47.52 
L 228.923161 -47.52 
L 230.962449 -47.52 
L 233.001736 -47.52 
L 235.041023 -47.52 
L 237.080311 -47.52 
L 239.119598 -47.52 
L 241.158885 -47.52 
L 243.198173 -47.52 
L 245.23746 -47.52 
L 247.276747 -47.52 
L 249.316035 -47.52 
L 251.355322 -47.52 
L 253.394609 -47.52 
L 255.433897 -47.52 
L 257.473184 -47.52 
L 259.512471 -47.52 
L 261.551759 -47.52 
L 263.591046 -47.52 
L 265.630333 -47.52 
L 267.669621 -47.52 
L 269.708908 -47.52 
L 271.748196 -47.52 
L 273.787483 -47.52 
L 275.82677 -47.52 
L 277.866058 -47.52 
L 279.905345 -47.52 
L 281.944632 -47.52 
L 283.98392 -47.52 
L 286.023207 -47.52 
L 288.062494 -47.52 
L 290.101782 -47.52 
L 292.141069 -47.52 
L 294.180356 -47.52 
L 296.219644 -47.52 
L 298.258931 -47.52 
L 300.298218 -47.52 
L 302.337506 -47.52 
L 304.376793 -47.52 
L 306.41608 -47.52 
L 308.455368 -47.52 
L 310.494655 -47.52 
L 312.533942 -47.52 
L 314.57323 -47.52 
L 316.612517 -47.52 
L 318.651804 -47.52 
L 320.691092 -47.52 
L 322.730379 -47.52 
L 324.769667 -47.52 
L 326.808954 -47.52 
L 328.848241 -47.52 
L 330.887529 -47.52 
L 332.926816 -47.52 
L 334.966103 -47.52 
L 337.005391 -47.52 
L 339.044678 -47.52 
L 341.083965 -47.52 
L 343.123253 -47.52 
L 345.16254 -47.52 
L 347.201827 -47.52 
L 349.241115 -47.52 
L 351.280402 -47.52 
L 353.319689 -47.52 
L 355.358977 -47.52 
L 357.398264 -47.52 
L 359.437551 -47.52 
L 361.476839 -47.52 
L 363.516126 -47.52 
L 365.555413 -47.52 
L 367.594701 -47.52 
L 369.633988 -47.52 
L 371.673275 -47.52 
L 373.712563 -47.52 
L 375.75185 -47.52 
L 377.791138 -47.52 
L 379.830425 -47.52 
L 381.869712 -47.52 
L 383.909 -47.52 
L 385.948287 -47.52 
L 387.987574 -47.52 
L 390.026862 -47.52 
L 392.066149 -47.52 
L 394.105436 -47.52 
L 396.144724 -47.52 
L 398.184011 -47.52 
L 400.223298 -47.52 
L 402.262586 -47.52 
L 404.301873 -47.52 
L 406.34116 -47.52 
L 408.380448 -47.52 
L 410.419735 -47.52 
L 412.459022 -47.52 
L 414.49831 -47.52 
L 416.537597 -47.52 
L 418.576884 -47.52 
L 420.616172 -47.52 
L 422.655459 -47.52 
L 424.694746 -47.52 
L 426.734034 -47.52 
L 428.773321 -47.52 
L 430.812608 -47.52 
L 432.851896 -47.52 
L 434.891183 -47.52 
L 436.930471 -47.52 
L 438.969758 -47.52 
L 441.009045 -47.52 
L 443.048333 -47.52 
L 445.08762 -47.52 
L 447.126907 -47.52 
L 449.166195 -47.52 
L 451.205482 -47.52 
L 453.244769 -47.52 
L 455.284057 -47.52 
L 457.323344 -47.52 
L 459.362631 -47.52 
L 461.401919 -47.52 
L 463.441206 -47.52 
L 465.480493 -47.52 
L 467.519781 -47.52 
L 469.559068 -47.52 
L 471.598355 -47.52 
L 473.637643 -47.52 
L 475.67693 -47.52 
L 477.716217 -47.52 
L 479.755505 -47.52 
L 481.794792 -47.52 
L 483.834079 -47.52 
L 485.873367 -47.52 
L 487.912654 -47.52 
L 489.951942 -47.52 
L 491.991229 -47.52 
L 494.030516 -47.52 
L 496.069804 -47.52 
L 498.109091 -47.52 
L 498.109091 -47.625265 
L 498.109091 -47.625265 
L 496.069804 -47.668922 
L 494.030516 -47.727774 
L 491.991229 -47.805877 
L 489.951942 -47.907903 
L 487.912654 -48.039067 
L 485.873367 -48.204983 
L 483.834079 -48.411441 
L 481.794792 -48.664094 
L 479.755505 -48.968062 
L 477.716217 -49.327461 
L 475.67693 -49.744882 
L 473.637643 -50.220855 
L 471.598355 -50.753343 
L 469.559068 -51.337321 
L 467.519781 -51.964489 
L 465.480493 -52.623185 
L 463.441206 -53.298527 
L 461.401919 -53.972817 
L 459.362631 -54.626208 
L 457.323344 -55.237612 
L 455.284057 -55.785793 
L 453.244769 -56.250577 
L 451.205482 -56.614074 
L 449.166195 -56.861825 
L 447.126907 -56.983761 
L 445.08762 -56.974884 
L 443.048333 -56.835625 
L 441.009045 -56.571823 
L 438.969758 -56.194347 
L 436.930471 -55.718386 
L 434.891183 -55.16249 
L 432.851896 -54.547442 
L 430.812608 -53.895068 
L 428.773321 -53.227094 
L 426.734034 -52.564129 
L 424.694746 -51.924858 
L 422.655459 -51.325488 
L 420.616172 -50.779451 
L 418.576884 -50.297366 
L 416.537597 -49.887214 
L 414.49831 -49.554673 
L 412.459022 -49.303545 
L 410.419735 -49.136198 
L 408.380448 -49.053976 
L 406.34116 -49.057497 
L 404.301873 -49.146819 
L 402.262586 -49.321449 
L 400.223298 -49.580195 
L 398.184011 -49.92088 
L 396.144724 -50.339979 
L 394.105436 -50.832213 
L 392.066149 -51.390187 
L 390.026862 -52.004133 
L 387.987574 -52.661839 
L 385.948287 -53.348795 
L 383.909 -54.048626 
L 381.869712 -54.743786 
L 379.830425 -55.416518 
L 377.791138 -56.05001 
L 375.75185 -56.629686 
L 373.712563 -57.144516 
L 371.673275 -57.588256 
L 369.633988 -57.960497 
L 367.594701 -58.267448 
L 365.555413 -58.522383 
L 363.516126 -58.745736 
L 361.476839 -58.96485 
L 359.437551 -59.213445 
L 357.398264 -59.530876 
L 355.358977 -59.961301 
L 353.319689 -60.552853 
L 351.280402 -61.356923 
L 349.241115 -62.427623 
L 347.201827 -63.821453 
L 345.16254 -65.597166 
L 343.123253 -67.81578 
L 341.083965 -70.540625 
L 339.044678 -73.837321 
L 337.005391 -77.773529 
L 334.966103 -82.418374 
L 332.926816 -87.841391 
L 330.887529 -94.110928 
L 328.848241 -101.291963 
L 326.808954 -109.443295 
L 324.769667 -118.614177 
L 322.730379 -128.840428 
L 320.691092 -140.140141 
L 318.651804 -152.509129 
L 316.612517 -165.916289 
L 314.57323 -180.299107 
L 312.533942 -195.559586 
L 310.494655 -211.560922 
L 308.455368 -228.125287 
L 306.41608 -245.033132 
L 304.376793 -262.024376 
L 302.337506 -278.801833 
L 300.298218 -295.037114 
L 298.258931 -310.379106 
L 296.219644 -324.464912 
L 294.180356 -336.932931 
L 292.141069 -347.437518 
L 290.101782 -355.664439 
L 288.062494 -361.346173 
L 286.023207 -364.276025 
L 283.98392 -364.32 
L 281.944632 -361.4255 
L 279.905345 -355.626091 
L 277.866058 -347.041871 
L 275.82677 -335.875301 
L 273.787483 -322.402697 
L 271.748196 -306.961944 
L 269.708908 -289.937245 
L 267.669621 -271.741951 
L 265.630333 -252.8006 
L 263.591046 -233.531344 
L 261.551759 -214.329796 
L 259.512471 -195.555214 
L 257.473184 -177.519649 
L 255.433897 -160.480468 
L 253.394609 -144.636352 
L 251.355322 -130.126624 
L 249.316035 -117.033553 
L 247.276747 -105.387125 
L 245.23746 -95.171643 
L 243.198173 -86.333525 
L 241.158885 -78.789651 
L 239.119598 -72.435693 
L 237.080311 -67.153956 
L 235.041023 -62.820378 
L 233.001736 -59.310449 
L 230.962449 -56.50393 
L 228.923161 -54.288375 
L 226.883874 -52.561492 
L 224.844587 -51.232506 
L 222.805299 -50.222653 
L 220.766012 -49.465012 
L 218.726725 -48.903843 
L 216.687437 -48.493588 
L 214.64815 -48.197702 
L 212.608862 -47.987405 
L 210.569575 -47.840472 
L 208.530288 -47.740095 
L 206.491 -47.67388 
L 204.451713 -47.632993 
L 202.412426 -47.611453 
L 200.373138 -47.605572 
L 198.333851 -47.61353 
L 196.294564 -47.635055 
L 194.255276 -47.671192 
L 192.215989 -47.724137 
L 190.176702 -47.797098 
L 188.137414 -47.894162 
L 186.098127 -48.020153 
L 184.05884 -48.180436 
L 182.019552 -48.38066 
L 179.980265 -48.626441 
L 177.940978 -48.922949 
L 175.90169 -49.274438 
L 173.862403 -49.683726 
L 171.823116 -50.151648 
L 169.783828 -50.676545 
L 167.744541 -51.253819 
L 165.705254 -51.875634 
L 163.665966 -52.530788 
L 161.626679 -53.204823 
L 159.587392 -53.880397 
L 157.548104 -54.537911 
L 155.508817 -55.156384 
L 153.469529 -55.714528 
L 151.430242 -56.191943 
L 149.390955 -56.570346 
L 147.351667 -56.83473 
L 145.31238 -56.974349 
L 143.273093 -56.983445 
L 141.233805 -56.861642 
L 139.194518 -56.613969 
L 137.155231 -56.250517 
L 135.115943 -55.78576 
L 133.076656 -55.237593 
L 131.037369 -54.626198 
L 128.998081 -53.972812 
L 126.958794 -53.298525 
L 124.919507 -52.623184 
L 122.880219 -51.964489 
L 120.840932 -51.337321 
L 118.801645 -50.753343 
L 116.762357 -50.220855 
L 114.72307 -49.744882 
L 112.683783 -49.327461 
L 110.644495 -48.968062 
L 108.605208 -48.664094 
L 106.565921 -48.411441 
L 104.526633 -48.204983 
L 102.487346 -48.039067 
L 100.448058 -47.907903 
L 98.408771 -47.805877 
L 96.369484 -47.727774 
L 94.330196 -47.668922 
L 92.290909 -47.625265 
z
" style="stroke: #87ceeb"/>
    </defs>
    <g clip-path="url(#p62866b633b)">
     <use xlink:href="#m3a4d8fa436" x="0" y="432" style="fill: #87ceeb; fill-opacity: 0.25; stroke: #87ceeb"/>
    </g>
   </g>
   <g id="PolyCollection_2">
    <defs>
     <path id="m40ce485ab7" d="M 205.119008 -48.010419 
L 205.119008 -47.52 
L 206.468128 -47.52 
L 207.817249 -47.52 
L 209.166369 -47.52 
L 210.515489 -47.52 
L 211.864609 -47.52 
L 213.213729 -47.52 
L 214.562849 -47.52 
L 215.911969 -47.52 
L 217.26109 -47.52 
L 218.61021 -47.52 
L 219.95933 -47.52 
L 221.30845 -47.52 
L 222.65757 -47.52 
L 224.00669 -47.52 
L 225.35581 -47.52 
L 226.704931 -47.52 
L 228.054051 -47.52 
L 229.403171 -47.52 
L 230.752291 -47.52 
L 232.101411 -47.52 
L 233.450531 -47.52 
L 234.799651 -47.52 
L 236.148772 -47.52 
L 237.497892 -47.52 
L 238.847012 -47.52 
L 240.196132 -47.52 
L 241.545252 -47.52 
L 242.894372 -47.52 
L 244.243492 -47.52 
L 245.592613 -47.52 
L 246.941733 -47.52 
L 248.290853 -47.52 
L 249.639973 -47.52 
L 250.989093 -47.52 
L 252.338213 -47.52 
L 253.687334 -47.52 
L 255.036454 -47.52 
L 256.385574 -47.52 
L 257.734694 -47.52 
L 259.083814 -47.52 
L 260.432934 -47.52 
L 261.782054 -47.52 
L 263.131175 -47.52 
L 264.480295 -47.52 
L 265.829415 -47.52 
L 267.178535 -47.52 
L 268.527655 -47.52 
L 269.876775 -47.52 
L 271.225895 -47.52 
L 272.575016 -47.52 
L 273.924136 -47.52 
L 275.273256 -47.52 
L 276.622376 -47.52 
L 277.971496 -47.52 
L 279.320616 -47.52 
L 280.669736 -47.52 
L 282.018857 -47.52 
L 283.367977 -47.52 
L 284.717097 -47.52 
L 286.066217 -47.52 
L 287.415337 -47.52 
L 288.764457 -47.52 
L 290.113577 -47.52 
L 291.462698 -47.52 
L 292.811818 -47.52 
L 294.160938 -47.52 
L 295.510058 -47.52 
L 296.859178 -47.52 
L 298.208298 -47.52 
L 299.557418 -47.52 
L 300.906539 -47.52 
L 302.255659 -47.52 
L 303.604779 -47.52 
L 304.953899 -47.52 
L 306.303019 -47.52 
L 307.652139 -47.52 
L 309.00126 -47.52 
L 310.35038 -47.52 
L 311.6995 -47.52 
L 313.04862 -47.52 
L 314.39774 -47.52 
L 315.74686 -47.52 
L 317.09598 -47.52 
L 318.445101 -47.52 
L 319.794221 -47.52 
L 321.143341 -47.52 
L 322.492461 -47.52 
L 323.841581 -47.52 
L 325.190701 -47.52 
L 326.539821 -47.52 
L 327.888942 -47.52 
L 329.238062 -47.52 
L 330.587182 -47.52 
L 331.936302 -47.52 
L 333.285422 -47.52 
L 334.634542 -47.52 
L 335.983662 -47.52 
L 337.332783 -47.52 
L 338.681903 -47.52 
L 340.031023 -47.52 
L 341.380143 -47.52 
L 342.729263 -47.52 
L 344.078383 -47.52 
L 345.427503 -47.52 
L 346.776624 -47.52 
L 348.125744 -47.52 
L 349.474864 -47.52 
L 350.823984 -47.52 
L 352.173104 -47.52 
L 353.522224 -47.52 
L 354.871345 -47.52 
L 356.220465 -47.52 
L 357.569585 -47.52 
L 358.918705 -47.52 
L 360.267825 -47.52 
L 361.616945 -47.52 
L 362.966065 -47.52 
L 364.315186 -47.52 
L 365.664306 -47.52 
L 367.013426 -47.52 
L 368.362546 -47.52 
L 369.711666 -47.52 
L 371.060786 -47.52 
L 372.409906 -47.52 
L 373.759027 -47.52 
L 375.108147 -47.52 
L 376.457267 -47.52 
L 377.806387 -47.52 
L 379.155507 -47.52 
L 380.504627 -47.52 
L 381.853747 -47.52 
L 383.202868 -47.52 
L 384.551988 -47.52 
L 385.901108 -47.52 
L 387.250228 -47.52 
L 388.599348 -47.52 
L 389.948468 -47.52 
L 391.297588 -47.52 
L 392.646709 -47.52 
L 393.995829 -47.52 
L 395.344949 -47.52 
L 396.694069 -47.52 
L 398.043189 -47.52 
L 399.392309 -47.52 
L 400.74143 -47.52 
L 402.09055 -47.52 
L 403.43967 -47.52 
L 404.78879 -47.52 
L 406.13791 -47.52 
L 407.48703 -47.52 
L 408.83615 -47.52 
L 410.185271 -47.52 
L 411.534391 -47.52 
L 412.883511 -47.52 
L 414.232631 -47.52 
L 415.581751 -47.52 
L 416.930871 -47.52 
L 418.279991 -47.52 
L 419.629112 -47.52 
L 420.978232 -47.52 
L 422.327352 -47.52 
L 423.676472 -47.52 
L 425.025592 -47.52 
L 426.374712 -47.52 
L 427.723832 -47.52 
L 429.072953 -47.52 
L 430.422073 -47.52 
L 431.771193 -47.52 
L 433.120313 -47.52 
L 434.469433 -47.52 
L 435.818553 -47.52 
L 437.167673 -47.52 
L 438.516794 -47.52 
L 439.865914 -47.52 
L 441.215034 -47.52 
L 442.564154 -47.52 
L 443.913274 -47.52 
L 445.262394 -47.52 
L 446.611514 -47.52 
L 447.960635 -47.52 
L 449.309755 -47.52 
L 450.658875 -47.52 
L 452.007995 -47.52 
L 453.357115 -47.52 
L 454.706235 -47.52 
L 456.055356 -47.52 
L 457.404476 -47.52 
L 458.753596 -47.52 
L 460.102716 -47.52 
L 461.451836 -47.52 
L 462.800956 -47.52 
L 464.150076 -47.52 
L 465.499197 -47.52 
L 466.848317 -47.52 
L 468.197437 -47.52 
L 469.546557 -47.52 
L 470.895677 -47.52 
L 472.244797 -47.52 
L 473.593917 -47.52 
L 473.593917 -47.750699 
L 473.593917 -47.750699 
L 472.244797 -47.802597 
L 470.895677 -47.864552 
L 469.546557 -47.938129 
L 468.197437 -48.025048 
L 466.848317 -48.127187 
L 465.499197 -48.246572 
L 464.150076 -48.385372 
L 462.800956 -48.545875 
L 461.451836 -48.730466 
L 460.102716 -48.941603 
L 458.753596 -49.181772 
L 457.404476 -49.453444 
L 456.055356 -49.759025 
L 454.706235 -50.100796 
L 453.357115 -50.480844 
L 452.007995 -50.900996 
L 450.658875 -51.36274 
L 449.309755 -51.86715 
L 447.960635 -52.414806 
L 446.611514 -53.00572 
L 445.262394 -53.639263 
L 443.913274 -54.314099 
L 442.564154 -55.028133 
L 441.215034 -55.778468 
L 439.865914 -56.561374 
L 438.516794 -57.372283 
L 437.167673 -58.205796 
L 435.818553 -59.055717 
L 434.469433 -59.915102 
L 433.120313 -60.77634 
L 431.771193 -61.631247 
L 430.422073 -62.471189 
L 429.072953 -63.287215 
L 427.723832 -64.070217 
L 426.374712 -64.811097 
L 425.025592 -65.50094 
L 423.676472 -66.1312 
L 422.327352 -66.693878 
L 420.978232 -67.181701 
L 419.629112 -67.588285 
L 418.279991 -67.908286 
L 416.930871 -68.137533 
L 415.581751 -68.273136 
L 414.232631 -68.313566 
L 412.883511 -68.258712 
L 411.534391 -68.109905 
L 410.185271 -67.86991 
L 408.83615 -67.542893 
L 407.48703 -67.134362 
L 406.13791 -66.651077 
L 404.78879 -66.100944 
L 403.43967 -65.492893 
L 402.09055 -64.836738 
L 400.74143 -64.143033 
L 399.392309 -63.422925 
L 398.043189 -62.688007 
L 396.694069 -61.950175 
L 395.344949 -61.221497 
L 393.995829 -60.514094 
L 392.646709 -59.840034 
L 391.297588 -59.211242 
L 389.948468 -58.639429 
L 388.599348 -58.13603 
L 387.250228 -57.712168 
L 385.901108 -57.378617 
L 384.551988 -57.145788 
L 383.202868 -57.023718 
L 381.853747 -57.02206 
L 380.504627 -57.150079 
L 379.155507 -57.416646 
L 377.806387 -57.830226 
L 376.457267 -58.39886 
L 375.108147 -59.130139 
L 373.759027 -60.031167 
L 372.409906 -61.108518 
L 371.060786 -62.368179 
L 369.711666 -63.815485 
L 368.362546 -65.455054 
L 367.013426 -67.290707 
L 365.664306 -69.325401 
L 364.315186 -71.561151 
L 362.966065 -73.998968 
L 361.616945 -76.638799 
L 360.267825 -79.479489 
L 358.918705 -82.518749 
L 357.569585 -85.753148 
L 356.220465 -89.178126 
L 354.871345 -92.788022 
L 353.522224 -96.576129 
L 352.173104 -100.534768 
L 350.823984 -104.655375 
L 349.474864 -108.928606 
L 348.125744 -113.34446 
L 346.776624 -117.892399 
L 345.427503 -122.561476 
L 344.078383 -127.340465 
L 342.729263 -132.217976 
L 341.380143 -137.182565 
L 340.031023 -142.222825 
L 338.681903 -147.327458 
L 337.332783 -152.485329 
L 335.983662 -157.685489 
L 334.634542 -162.917175 
L 333.285422 -168.169795 
L 331.936302 -173.432875 
L 330.587182 -178.695997 
L 329.238062 -183.948714 
L 327.888942 -189.180459 
L 326.539821 -194.380436 
L 325.190701 -199.53752 
L 323.841581 -204.640149 
L 322.492461 -209.676235 
L 321.143341 -214.633077 
L 319.794221 -219.497303 
L 318.445101 -224.254821 
L 317.09598 -228.890805 
L 315.74686 -233.389701 
L 314.39774 -237.73526 
L 313.04862 -241.910602 
L 311.6995 -245.8983 
L 310.35038 -249.680495 
L 309.00126 -253.239024 
L 307.652139 -256.555575 
L 306.303019 -259.611853 
L 304.953899 -262.389757 
L 303.604779 -264.871569 
L 302.255659 -267.040139 
L 300.906539 -268.879083 
L 299.557418 -270.37297 
L 298.208298 -271.50751 
L 296.859178 -272.269731 
L 295.510058 -272.648152 
L 294.160938 -272.632945 
L 292.811818 -272.216086 
L 291.462698 -271.391497 
L 290.113577 -270.155168 
L 288.764457 -268.505273 
L 287.415337 -266.442271 
L 286.066217 -263.968983 
L 284.717097 -261.090663 
L 283.367977 -257.815039 
L 282.018857 -254.152344 
L 280.669736 -250.115313 
L 279.320616 -245.719166 
L 277.971496 -240.981555 
L 276.622376 -235.92249 
L 275.273256 -230.564229 
L 273.924136 -224.931142 
L 272.575016 -219.049544 
L 271.225895 -212.947489 
L 269.876775 -206.654546 
L 268.527655 -200.20154 
L 267.178535 -193.620272 
L 265.829415 -186.943211 
L 264.480295 -180.203181 
L 263.131175 -173.433023 
L 261.782054 -166.665265 
L 260.432934 -159.931778 
L 259.083814 -153.263453 
L 257.734694 -146.689879 
L 256.385574 -140.239046 
L 255.036454 -133.937073 
L 253.687334 -127.807967 
L 252.338213 -121.873412 
L 250.989093 -116.152604 
L 249.639973 -110.662119 
L 248.290853 -105.415832 
L 246.941733 -100.424875 
L 245.592613 -95.69764 
L 244.243492 -91.239825 
L 242.894372 -87.054514 
L 241.545252 -83.142301 
L 240.196132 -79.501439 
L 238.847012 -76.128024 
L 237.497892 -73.016192 
L 236.148772 -70.15834 
L 234.799651 -67.545358 
L 233.450531 -65.166863 
L 232.101411 -63.011439 
L 230.752291 -61.066869 
L 229.403171 -59.320363 
L 228.054051 -57.758771 
L 226.704931 -56.368781 
L 225.35581 -55.137103 
L 224.00669 -54.050627 
L 222.65757 -53.096567 
L 221.30845 -52.262581 
L 219.95933 -51.536867 
L 218.61021 -50.908243 
L 217.26109 -50.366202 
L 215.911969 -49.900956 
L 214.562849 -49.503453 
L 213.213729 -49.165387 
L 211.864609 -48.879194 
L 210.515489 -48.638029 
L 209.166369 -48.435747 
L 207.817249 -48.266862 
L 206.468128 -48.126513 
L 205.119008 -48.010419 
z
" style="stroke: #fa8072"/>
    </defs>
    <g clip-path="url(#p62866b633b)">
     <use xlink:href="#m40ce485ab7" x="0" y="432" style="fill: #fa8072; fill-opacity: 0.25; stroke: #fa8072"/>
    </g>
   </g>
   <g id="matplotlib.axis_1">
    <g id="xtick_1">
     <g id="line2d_1">
      <defs>
       <path id="m67c54e1dd8" d="M 0 0 
L 0 3.5 
" style="stroke: #000000; stroke-width: 0.8"/>
      </defs>
      <g>
       <use xlink:href="#m67c54e1dd8" x="130.663094" y="384.48" style="stroke: #000000; stroke-width: 0.8"/>
      </g>
     </g>
     <g id="text_1">
      <!-- 0 -->
      <g transform="translate(127.882625 398.653437) scale(0.1 -0.1)">
       <defs>
        <path id="Helvetica-30" d="M 1731 4475 
Q 2600 4475 2988 3759 
Q 3288 3206 3288 2244 
Q 3288 1331 3016 734 
Q 2622 -122 1728 -122 
Q 922 -122 528 578 
Q 200 1163 200 2147 
Q 200 2909 397 3456 
Q 766 4475 1731 4475 
z
M 1725 391 
Q 2163 391 2422 778 
Q 2681 1166 2681 2222 
Q 2681 2984 2493 3476 
Q 2306 3969 1766 3969 
Q 1269 3969 1039 3501 
Q 809 3034 809 2125 
Q 809 1441 956 1025 
Q 1181 391 1725 391 
z
" transform="scale(0.015625)"/>
       </defs>
       <use xlink:href="#Helvetica-30"/>
      </g>
     </g>
    </g>
    <g id="xtick_2">
     <g id="line2d_2">
      <g>
       <use xlink:href="#m67c54e1dd8" x="194.289121" y="384.48" style="stroke: #000000; stroke-width: 0.8"/>
      </g>
     </g>
     <g id="text_2">
      <!-- 5 -->
      <g transform="translate(191.508652 398.653437) scale(0.1 -0.1)">
       <defs>
        <path id="Helvetica-35" d="M 791 1141 
Q 847 659 1238 475 
Q 1438 381 1700 381 
Q 2200 381 2440 700 
Q 2681 1019 2681 1406 
Q 2681 1875 2395 2131 
Q 2109 2388 1709 2388 
Q 1419 2388 1211 2275 
Q 1003 2163 856 1963 
L 369 1991 
L 709 4400 
L 3034 4400 
L 3034 3856 
L 1131 3856 
L 941 2613 
Q 1097 2731 1238 2791 
Q 1488 2894 1816 2894 
Q 2431 2894 2859 2497 
Q 3288 2100 3288 1491 
Q 3288 856 2895 371 
Q 2503 -113 1644 -113 
Q 1097 -113 676 195 
Q 256 503 206 1141 
L 791 1141 
z
" transform="scale(0.015625)"/>
       </defs>
       <use xlink:href="#Helvetica-35"/>
      </g>
     </g>
    </g>
    <g id="xtick_3">
     <g id="line2d_3">
      <g>
       <use xlink:href="#m67c54e1dd8" x="257.915148" y="384.48" style="stroke: #000000; stroke-width: 0.8"/>
      </g>
     </g>
     <g id="text_3">
      <!-- 10 -->
      <g transform="translate(252.354211 398.653437) scale(0.1 -0.1)">
       <defs>
        <path id="Helvetica-31" d="M 613 3169 
L 613 3600 
Q 1222 3659 1462 3798 
Q 1703 3938 1822 4456 
L 2266 4456 
L 2266 0 
L 1666 0 
L 1666 3169 
L 613 3169 
z
" transform="scale(0.015625)"/>
       </defs>
       <use xlink:href="#Helvetica-31"/>
       <use xlink:href="#Helvetica-30" x="55.615234"/>
      </g>
     </g>
    </g>
    <g id="xtick_4">
     <g id="line2d_4">
      <g>
       <use xlink:href="#m67c54e1dd8" x="321.541175" y="384.48" style="stroke: #000000; stroke-width: 0.8"/>
      </g>
     </g>
     <g id="text_4">
      <!-- 15 -->
      <g transform="translate(315.980238 398.653437) scale(0.1 -0.1)">
       <use xlink:href="#Helvetica-31"/>
       <use xlink:href="#Helvetica-35" x="55.615234"/>
      </g>
     </g>
    </g>
    <g id="xtick_5">
     <g id="line2d_5">
      <g>
       <use xlink:href="#m67c54e1dd8" x="385.167202" y="384.48" style="stroke: #000000; stroke-width: 0.8"/>
      </g>
     </g>
     <g id="text_5">
      <!-- 20 -->
      <g transform="translate(379.606265 398.653437) scale(0.1 -0.1)">
       <defs>
        <path id="Helvetica-32" d="M 200 0 
Q 231 578 439 1006 
Q 647 1434 1250 1784 
L 1850 2131 
Q 2253 2366 2416 2531 
Q 2672 2791 2672 3125 
Q 2672 3516 2437 3745 
Q 2203 3975 1813 3975 
Q 1234 3975 1013 3538 
Q 894 3303 881 2888 
L 309 2888 
Q 319 3472 525 3841 
Q 891 4491 1816 4491 
Q 2584 4491 2939 4075 
Q 3294 3659 3294 3150 
Q 3294 2613 2916 2231 
Q 2697 2009 2131 1694 
L 1703 1456 
Q 1397 1288 1222 1134 
Q 909 863 828 531 
L 3272 531 
L 3272 0 
L 200 0 
z
" transform="scale(0.015625)"/>
       </defs>
       <use xlink:href="#Helvetica-32"/>
       <use xlink:href="#Helvetica-30" x="55.615234"/>
      </g>
     </g>
    </g>
    <g id="xtick_6">
     <g id="line2d_6">
      <g>
       <use xlink:href="#m67c54e1dd8" x="448.793229" y="384.48" style="stroke: #000000; stroke-width: 0.8"/>
      </g>
     </g>
     <g id="text_6">
      <!-- 25 -->
      <g transform="translate(443.232292 398.653437) scale(0.1 -0.1)">
       <use xlink:href="#Helvetica-32"/>
       <use xlink:href="#Helvetica-35" x="55.615234"/>
      </g>
     </g>
    </g>
    <g id="xtick_7">
     <g id="line2d_7">
      <g>
       <use xlink:href="#m67c54e1dd8" x="512.419257" y="384.48" style="stroke: #000000; stroke-width: 0.8"/>
      </g>
     </g>
     <g id="text_7">
      <!-- 30 -->
      <g transform="translate(506.858319 398.653437) scale(0.1 -0.1)">
       <defs>
        <path id="Helvetica-33" d="M 1663 -122 
Q 869 -122 511 314 
Q 153 750 153 1375 
L 741 1375 
Q 778 941 903 744 
Q 1122 391 1694 391 
Q 2138 391 2406 628 
Q 2675 866 2675 1241 
Q 2675 1703 2392 1887 
Q 2109 2072 1606 2072 
Q 1550 2072 1492 2070 
Q 1434 2069 1375 2066 
L 1375 2563 
Q 1463 2553 1522 2550 
Q 1581 2547 1650 2547 
Q 1966 2547 2169 2647 
Q 2525 2822 2525 3272 
Q 2525 3606 2287 3787 
Q 2050 3969 1734 3969 
Q 1172 3969 956 3594 
Q 838 3388 822 3006 
L 266 3006 
Q 266 3506 466 3856 
Q 809 4481 1675 4481 
Q 2359 4481 2734 4176 
Q 3109 3872 3109 3294 
Q 3109 2881 2888 2625 
Q 2750 2466 2531 2375 
Q 2884 2278 3082 2001 
Q 3281 1725 3281 1325 
Q 3281 684 2859 281 
Q 2438 -122 1663 -122 
z
" transform="scale(0.015625)"/>
       </defs>
       <use xlink:href="#Helvetica-33"/>
       <use xlink:href="#Helvetica-30" x="55.615234"/>
      </g>
     </g>
    </g>
    <g id="text_8">
     <!-- Prothrombin Time (PT) -->
     <g transform="translate(244.360937 411.984688) scale(0.1 -0.1)">
      <defs>
       <path id="Helvetica-50" d="M 547 4591 
L 2613 4591 
Q 3225 4591 3600 4245 
Q 3975 3900 3975 3275 
Q 3975 2738 3640 2339 
Q 3306 1941 2613 1941 
L 1169 1941 
L 1169 0 
L 547 0 
L 547 4591 
z
M 3347 3272 
Q 3347 3778 2972 3959 
Q 2766 4056 2406 4056 
L 1169 4056 
L 1169 2466 
L 2406 2466 
Q 2825 2466 3086 2644 
Q 3347 2822 3347 3272 
z
" transform="scale(0.015625)"/>
       <path id="Helvetica-72" d="M 428 3347 
L 963 3347 
L 963 2769 
Q 1028 2938 1284 3180 
Q 1541 3422 1875 3422 
Q 1891 3422 1928 3419 
Q 1966 3416 2056 3406 
L 2056 2813 
Q 2006 2822 1964 2825 
Q 1922 2828 1872 2828 
Q 1447 2828 1219 2554 
Q 991 2281 991 1925 
L 991 0 
L 428 0 
L 428 3347 
z
" transform="scale(0.015625)"/>
       <path id="Helvetica-6f" d="M 1741 363 
Q 2300 363 2508 786 
Q 2716 1209 2716 1728 
Q 2716 2197 2566 2491 
Q 2328 2953 1747 2953 
Q 1231 2953 997 2559 
Q 763 2166 763 1609 
Q 763 1075 997 719 
Q 1231 363 1741 363 
z
M 1763 3444 
Q 2409 3444 2856 3012 
Q 3303 2581 3303 1744 
Q 3303 934 2909 406 
Q 2516 -122 1688 -122 
Q 997 -122 590 345 
Q 184 813 184 1600 
Q 184 2444 612 2944 
Q 1041 3444 1763 3444 
z
M 1744 3428 
L 1744 3428 
z
" transform="scale(0.015625)"/>
       <path id="Helvetica-74" d="M 525 4281 
L 1094 4281 
L 1094 3347 
L 1628 3347 
L 1628 2888 
L 1094 2888 
L 1094 703 
Q 1094 528 1213 469 
Q 1278 434 1431 434 
Q 1472 434 1519 436 
Q 1566 438 1628 444 
L 1628 0 
Q 1531 -28 1426 -40 
Q 1322 -53 1200 -53 
Q 806 -53 665 148 
Q 525 350 525 672 
L 525 2888 
L 72 2888 
L 72 3347 
L 525 3347 
L 525 4281 
z
" transform="scale(0.015625)"/>
       <path id="Helvetica-68" d="M 413 4606 
L 975 4606 
L 975 2894 
Q 1175 3147 1334 3250 
Q 1606 3428 2013 3428 
Q 2741 3428 3000 2919 
Q 3141 2641 3141 2147 
L 3141 0 
L 2563 0 
L 2563 2109 
Q 2563 2478 2469 2650 
Q 2316 2925 1894 2925 
Q 1544 2925 1259 2684 
Q 975 2444 975 1775 
L 975 0 
L 413 0 
L 413 4606 
z
" transform="scale(0.015625)"/>
       <path id="Helvetica-6d" d="M 413 3347 
L 969 3347 
L 969 2872 
Q 1169 3119 1331 3231 
Q 1609 3422 1963 3422 
Q 2363 3422 2606 3225 
Q 2744 3113 2856 2894 
Q 3044 3163 3297 3292 
Q 3550 3422 3866 3422 
Q 4541 3422 4784 2934 
Q 4916 2672 4916 2228 
L 4916 0 
L 4331 0 
L 4331 2325 
Q 4331 2659 4164 2784 
Q 3997 2909 3756 2909 
Q 3425 2909 3186 2687 
Q 2947 2466 2947 1947 
L 2947 0 
L 2375 0 
L 2375 2184 
Q 2375 2525 2294 2681 
Q 2166 2916 1816 2916 
Q 1497 2916 1236 2669 
Q 975 2422 975 1775 
L 975 0 
L 413 0 
L 413 3347 
z
" transform="scale(0.015625)"/>
       <path id="Helvetica-62" d="M 369 4606 
L 916 4606 
L 916 2941 
Q 1100 3181 1356 3307 
Q 1613 3434 1913 3434 
Q 2538 3434 2927 3004 
Q 3316 2575 3316 1738 
Q 3316 944 2931 419 
Q 2547 -106 1866 -106 
Q 1484 -106 1222 78 
Q 1066 188 888 428 
L 888 0 
L 369 0 
L 369 4606 
z
M 1831 391 
Q 2288 391 2514 753 
Q 2741 1116 2741 1709 
Q 2741 2238 2514 2584 
Q 2288 2931 1847 2931 
Q 1463 2931 1173 2647 
Q 884 2363 884 1709 
Q 884 1238 1003 944 
Q 1225 391 1831 391 
z
" transform="scale(0.015625)"/>
       <path id="Helvetica-69" d="M 413 3331 
L 984 3331 
L 984 0 
L 413 0 
L 413 3331 
z
M 413 4591 
L 984 4591 
L 984 3953 
L 413 3953 
L 413 4591 
z
" transform="scale(0.015625)"/>
       <path id="Helvetica-6e" d="M 413 3347 
L 947 3347 
L 947 2872 
Q 1184 3166 1450 3294 
Q 1716 3422 2041 3422 
Q 2753 3422 3003 2925 
Q 3141 2653 3141 2147 
L 3141 0 
L 2569 0 
L 2569 2109 
Q 2569 2416 2478 2603 
Q 2328 2916 1934 2916 
Q 1734 2916 1606 2875 
Q 1375 2806 1200 2600 
Q 1059 2434 1017 2257 
Q 975 2081 975 1753 
L 975 0 
L 413 0 
L 413 3347 
z
M 1734 3428 
L 1734 3428 
z
" transform="scale(0.015625)"/>
       <path id="Helvetica-20" transform="scale(0.015625)"/>
       <path id="Helvetica-54" d="M 3828 4591 
L 3828 4044 
L 2281 4044 
L 2281 0 
L 1650 0 
L 1650 4044 
L 103 4044 
L 103 4591 
L 3828 4591 
z
" transform="scale(0.015625)"/>
       <path id="Helvetica-65" d="M 1806 3422 
Q 2163 3422 2497 3255 
Q 2831 3088 3006 2822 
Q 3175 2569 3231 2231 
Q 3281 2000 3281 1494 
L 828 1494 
Q 844 984 1069 676 
Q 1294 369 1766 369 
Q 2206 369 2469 659 
Q 2619 828 2681 1050 
L 3234 1050 
Q 3213 866 3089 639 
Q 2966 413 2813 269 
Q 2556 19 2178 -69 
Q 1975 -119 1719 -119 
Q 1094 -119 659 336 
Q 225 791 225 1609 
Q 225 2416 662 2919 
Q 1100 3422 1806 3422 
z
M 2703 1941 
Q 2669 2306 2544 2525 
Q 2313 2931 1772 2931 
Q 1384 2931 1121 2651 
Q 859 2372 844 1941 
L 2703 1941 
z
M 1753 3428 
L 1753 3428 
z
" transform="scale(0.015625)"/>
       <path id="Helvetica-28" d="M 1894 4666 
Q 1403 3713 1256 3263 
Q 1034 2578 1034 1681 
Q 1034 775 1288 25 
Q 1444 -438 1903 -1306 
L 1525 -1306 
Q 1069 -594 959 -397 
Q 850 -200 722 138 
Q 547 600 478 1125 
Q 444 1397 444 1644 
Q 444 2569 734 3291 
Q 919 3750 1503 4666 
L 1894 4666 
z
" transform="scale(0.015625)"/>
       <path id="Helvetica-29" d="M 222 -1306 
Q 719 -338 863 106 
Q 1081 778 1081 1681 
Q 1081 2584 828 3334 
Q 672 3797 213 4666 
L 591 4666 
Q 1072 3897 1173 3717 
Q 1275 3538 1394 3222 
Q 1544 2831 1608 2450 
Q 1672 2069 1672 1716 
Q 1672 791 1378 66 
Q 1194 -400 613 -1306 
L 222 -1306 
z
" transform="scale(0.015625)"/>
      </defs>
      <use xlink:href="#Helvetica-50"/>
      <use xlink:href="#Helvetica-72" x="66.699219"/>
      <use xlink:href="#Helvetica-6f" x="100"/>
      <use xlink:href="#Helvetica-74" x="155.615234"/>
      <use xlink:href="#Helvetica-68" x="183.398438"/>
      <use xlink:href="#Helvetica-72" x="239.013672"/>
      <use xlink:href="#Helvetica-6f" x="272.314453"/>
      <use xlink:href="#Helvetica-6d" x="327.929688"/>
      <use xlink:href="#Helvetica-62" x="411.230469"/>
      <use xlink:href="#Helvetica-69" x="466.845703"/>
      <use xlink:href="#Helvetica-6e" x="489.0625"/>
      <use xlink:href="#Helvetica-20" x="544.677734"/>
      <use xlink:href="#Helvetica-54" x="572.460938"/>
      <use xlink:href="#Helvetica-69" x="633.544922"/>
      <use xlink:href="#Helvetica-6d" x="655.761719"/>
      <use xlink:href="#Helvetica-65" x="739.0625"/>
      <use xlink:href="#Helvetica-20" x="794.677734"/>
      <use xlink:href="#Helvetica-28" x="822.460938"/>
      <use xlink:href="#Helvetica-50" x="855.761719"/>
      <use xlink:href="#Helvetica-54" x="922.460938"/>
      <use xlink:href="#Helvetica-29" x="983.544922"/>
     </g>
    </g>
   </g>
   <g id="matplotlib.axis_2">
    <g id="ytick_1">
     <g id="line2d_8">
      <defs>
       <path id="m406835e1fc" d="M 0 0 
L -3.5 0 
" style="stroke: #000000; stroke-width: 0.8"/>
      </defs>
      <g>
       <use xlink:href="#m406835e1fc" x="72" y="384.48" style="stroke: #000000; stroke-width: 0.8"/>
      </g>
     </g>
     <g id="text_9">
      <!-- 0.00 -->
      <g transform="translate(45.539062 388.066719) scale(0.1 -0.1)">
       <defs>
        <path id="Helvetica-2e" d="M 547 681 
L 1200 681 
L 1200 0 
L 547 0 
L 547 681 
z
" transform="scale(0.015625)"/>
       </defs>
       <use xlink:href="#Helvetica-30"/>
       <use xlink:href="#Helvetica-2e" x="55.615234"/>
       <use xlink:href="#Helvetica-30" x="83.398438"/>
       <use xlink:href="#Helvetica-30" x="139.013672"/>
      </g>
     </g>
    </g>
    <g id="ytick_2">
     <g id="line2d_9">
      <g>
       <use xlink:href="#m406835e1fc" x="72" y="311.879968" style="stroke: #000000; stroke-width: 0.8"/>
      </g>
     </g>
     <g id="text_10">
      <!-- 0.05 -->
      <g transform="translate(45.539062 315.466687) scale(0.1 -0.1)">
       <use xlink:href="#Helvetica-30"/>
       <use xlink:href="#Helvetica-2e" x="55.615234"/>
       <use xlink:href="#Helvetica-30" x="83.398438"/>
       <use xlink:href="#Helvetica-35" x="139.013672"/>
      </g>
     </g>
    </g>
    <g id="ytick_3">
     <g id="line2d_10">
      <g>
       <use xlink:href="#m406835e1fc" x="72" y="239.279937" style="stroke: #000000; stroke-width: 0.8"/>
      </g>
     </g>
     <g id="text_11">
      <!-- 0.10 -->
      <g transform="translate(45.539062 242.866655) scale(0.1 -0.1)">
       <use xlink:href="#Helvetica-30"/>
       <use xlink:href="#Helvetica-2e" x="55.615234"/>
       <use xlink:href="#Helvetica-31" x="83.398438"/>
       <use xlink:href="#Helvetica-30" x="139.013672"/>
      </g>
     </g>
    </g>
    <g id="ytick_4">
     <g id="line2d_11">
      <g>
       <use xlink:href="#m406835e1fc" x="72" y="166.679905" style="stroke: #000000; stroke-width: 0.8"/>
      </g>
     </g>
     <g id="text_12">
      <!-- 0.15 -->
      <g transform="translate(45.539062 170.266624) scale(0.1 -0.1)">
       <use xlink:href="#Helvetica-30"/>
       <use xlink:href="#Helvetica-2e" x="55.615234"/>
       <use xlink:href="#Helvetica-31" x="83.398438"/>
       <use xlink:href="#Helvetica-35" x="139.013672"/>
      </g>
     </g>
    </g>
    <g id="ytick_5">
     <g id="line2d_12">
      <g>
       <use xlink:href="#m406835e1fc" x="72" y="94.079873" style="stroke: #000000; stroke-width: 0.8"/>
      </g>
     </g>
     <g id="text_13">
      <!-- 0.20 -->
      <g transform="translate(45.539062 97.666592) scale(0.1 -0.1)">
       <use xlink:href="#Helvetica-30"/>
       <use xlink:href="#Helvetica-2e" x="55.615234"/>
       <use xlink:href="#Helvetica-32" x="83.398438"/>
       <use xlink:href="#Helvetica-30" x="139.013672"/>
      </g>
     </g>
    </g>
    <g id="text_14">
     <!-- Density -->
     <g transform="translate(39.395312 234.831875) rotate(-90) scale(0.1 -0.1)">
      <defs>
       <path id="Helvetica-44" d="M 2250 531 
Q 2566 531 2769 597 
Q 3131 719 3363 1066 
Q 3547 1344 3628 1778 
Q 3675 2038 3675 2259 
Q 3675 3113 3336 3584 
Q 2997 4056 2244 4056 
L 1141 4056 
L 1141 531 
L 2250 531 
z
M 516 4591 
L 2375 4591 
Q 3322 4591 3844 3919 
Q 4309 3313 4309 2366 
Q 4309 1634 4034 1044 
Q 3550 0 2369 0 
L 516 0 
L 516 4591 
z
" transform="scale(0.015625)"/>
       <path id="Helvetica-73" d="M 747 1050 
Q 772 769 888 619 
Q 1100 347 1625 347 
Q 1938 347 2175 483 
Q 2413 619 2413 903 
Q 2413 1119 2222 1231 
Q 2100 1300 1741 1391 
L 1294 1503 
Q 866 1609 663 1741 
Q 300 1969 300 2372 
Q 300 2847 642 3140 
Q 984 3434 1563 3434 
Q 2319 3434 2653 2991 
Q 2863 2709 2856 2384 
L 2325 2384 
Q 2309 2575 2191 2731 
Q 1997 2953 1519 2953 
Q 1200 2953 1036 2831 
Q 872 2709 872 2509 
Q 872 2291 1088 2159 
Q 1213 2081 1456 2022 
L 1828 1931 
Q 2434 1784 2641 1647 
Q 2969 1431 2969 969 
Q 2969 522 2630 197 
Q 2291 -128 1597 -128 
Q 850 -128 539 211 
Q 228 550 206 1050 
L 747 1050 
z
M 1578 3428 
L 1578 3428 
z
" transform="scale(0.015625)"/>
       <path id="Helvetica-79" d="M 2503 3347 
L 3125 3347 
Q 3006 3025 2597 1878 
Q 2291 1016 2084 472 
Q 1597 -809 1397 -1090 
Q 1197 -1372 709 -1372 
Q 591 -1372 527 -1362 
Q 463 -1353 369 -1328 
L 369 -816 
Q 516 -856 581 -865 
Q 647 -875 697 -875 
Q 853 -875 926 -823 
Q 1000 -772 1050 -697 
Q 1066 -672 1162 -440 
Q 1259 -209 1303 -97 
L 66 3347 
L 703 3347 
L 1600 622 
L 2503 3347 
z
M 1597 3428 
L 1597 3428 
z
" transform="scale(0.015625)"/>
      </defs>
      <use xlink:href="#Helvetica-44"/>
      <use xlink:href="#Helvetica-65" x="72.216797"/>
      <use xlink:href="#Helvetica-6e" x="127.832031"/>
      <use xlink:href="#Helvetica-73" x="183.447266"/>
      <use xlink:href="#Helvetica-69" x="233.447266"/>
      <use xlink:href="#Helvetica-74" x="255.664062"/>
      <use xlink:href="#Helvetica-79" x="283.447266"/>
     </g>
    </g>
   </g>
   <g id="patch_3">
    <path d="M 72 384.48 
L 72 51.84 
" style="fill: none; stroke: #000000; stroke-width: 0.8; stroke-linejoin: miter; stroke-linecap: square"/>
   </g>
   <g id="patch_4">
    <path d="M 518.4 384.48 
L 518.4 51.84 
" style="fill: none; stroke: #000000; stroke-width: 0.8; stroke-linejoin: miter; stroke-linecap: square"/>
   </g>
   <g id="patch_5">
    <path d="M 72 384.48 
L 518.4 384.48 
" style="fill: none; stroke: #000000; stroke-width: 0.8; stroke-linejoin: miter; stroke-linecap: square"/>
   </g>
   <g id="patch_6">
    <path d="M 72 51.84 
L 518.4 51.84 
" style="fill: none; stroke: #000000; stroke-width: 0.8; stroke-linejoin: miter; stroke-linecap: square"/>
   </g>
   <g id="legend_1">
    <g id="patch_7">
     <path d="M 434.373437 88.355625 
L 511.4 88.355625 
Q 513.4 88.355625 513.4 86.355625 
L 513.4 58.84 
Q 513.4 56.84 511.4 56.84 
L 434.373437 56.84 
Q 432.373437 56.84 432.373437 58.84 
L 432.373437 86.355625 
Q 432.373437 88.355625 434.373437 88.355625 
z
" style="fill: #ffffff; opacity: 0.8; stroke: #cccccc; stroke-linejoin: miter"/>
    </g>
    <g id="patch_8">
     <path d="M 436.373437 68.013437 
L 456.373437 68.013437 
L 456.373437 61.013437 
L 436.373437 61.013437 
z
" style="fill: #87ceeb; fill-opacity: 0.25; stroke: #87ceeb; stroke-linejoin: miter"/>
    </g>
    <g id="text_15">
     <!-- Alive -->
     <g transform="translate(464.373437 68.013437) scale(0.1 -0.1)">
      <defs>
       <path id="Helvetica-41" d="M 2844 1881 
L 2147 3909 
L 1406 1881 
L 2844 1881 
z
M 1822 4591 
L 2525 4591 
L 4191 0 
L 3509 0 
L 3044 1375 
L 1228 1375 
L 731 0 
L 94 0 
L 1822 4591 
z
" transform="scale(0.015625)"/>
       <path id="Helvetica-6c" d="M 428 4591 
L 991 4591 
L 991 0 
L 428 0 
L 428 4591 
z
" transform="scale(0.015625)"/>
       <path id="Helvetica-76" d="M 688 3347 
L 1581 622 
L 2516 3347 
L 3131 3347 
L 1869 0 
L 1269 0 
L 34 3347 
L 688 3347 
z
" transform="scale(0.015625)"/>
      </defs>
      <use xlink:href="#Helvetica-41"/>
      <use xlink:href="#Helvetica-6c" x="66.699219"/>
      <use xlink:href="#Helvetica-69" x="88.916016"/>
      <use xlink:href="#Helvetica-76" x="111.132812"/>
      <use xlink:href="#Helvetica-65" x="161.132812"/>
     </g>
    </g>
    <g id="patch_9">
     <path d="M 436.373437 82.27125 
L 456.373437 82.27125 
L 456.373437 75.27125 
L 436.373437 75.27125 
z
" style="fill: #fa8072; fill-opacity: 0.25; stroke: #fa8072; stroke-linejoin: miter"/>
    </g>
    <g id="text_16">
     <!-- Deceased -->
     <g transform="translate(464.373437 82.27125) scale(0.1 -0.1)">
      <defs>
       <path id="Helvetica-63" d="M 1703 3444 
Q 2269 3444 2623 3169 
Q 2978 2894 3050 2222 
L 2503 2222 
Q 2453 2531 2275 2736 
Q 2097 2941 1703 2941 
Q 1166 2941 934 2416 
Q 784 2075 784 1575 
Q 784 1072 996 728 
Q 1209 384 1666 384 
Q 2016 384 2220 598 
Q 2425 813 2503 1184 
L 3050 1184 
Q 2956 519 2581 211 
Q 2206 -97 1622 -97 
Q 966 -97 575 383 
Q 184 863 184 1581 
Q 184 2463 612 2953 
Q 1041 3444 1703 3444 
z
M 1616 3428 
L 1616 3428 
z
" transform="scale(0.015625)"/>
       <path id="Helvetica-61" d="M 844 891 
Q 844 647 1022 506 
Q 1200 366 1444 366 
Q 1741 366 2019 503 
Q 2488 731 2488 1250 
L 2488 1703 
Q 2384 1638 2221 1594 
Q 2059 1550 1903 1531 
L 1563 1488 
Q 1256 1447 1103 1359 
Q 844 1213 844 891 
z
M 2206 2028 
Q 2400 2053 2466 2191 
Q 2503 2266 2503 2406 
Q 2503 2694 2298 2823 
Q 2094 2953 1713 2953 
Q 1272 2953 1088 2716 
Q 984 2584 953 2325 
L 428 2325 
Q 444 2944 830 3186 
Q 1216 3428 1725 3428 
Q 2316 3428 2684 3203 
Q 3050 2978 3050 2503 
L 3050 575 
Q 3050 488 3086 434 
Q 3122 381 3238 381 
Q 3275 381 3322 386 
Q 3369 391 3422 400 
L 3422 -16 
Q 3291 -53 3222 -62 
Q 3153 -72 3034 -72 
Q 2744 -72 2613 134 
Q 2544 244 2516 444 
Q 2344 219 2022 53 
Q 1700 -113 1313 -113 
Q 847 -113 551 170 
Q 256 453 256 878 
Q 256 1344 547 1600 
Q 838 1856 1309 1916 
L 2206 2028 
z
M 1741 3428 
L 1741 3428 
z
" transform="scale(0.015625)"/>
       <path id="Helvetica-64" d="M 769 1634 
Q 769 1097 997 734 
Q 1225 372 1728 372 
Q 2119 372 2370 708 
Q 2622 1044 2622 1672 
Q 2622 2306 2362 2611 
Q 2103 2916 1722 2916 
Q 1297 2916 1033 2591 
Q 769 2266 769 1634 
z
M 1616 3406 
Q 2000 3406 2259 3244 
Q 2409 3150 2600 2916 
L 2600 4606 
L 3141 4606 
L 3141 0 
L 2634 0 
L 2634 466 
Q 2438 156 2169 18 
Q 1900 -119 1553 -119 
Q 994 -119 584 351 
Q 175 822 175 1603 
Q 175 2334 548 2870 
Q 922 3406 1616 3406 
z
" transform="scale(0.015625)"/>
      </defs>
      <use xlink:href="#Helvetica-44"/>
      <use xlink:href="#Helvetica-65" x="72.216797"/>
      <use xlink:href="#Helvetica-63" x="127.832031"/>
      <use xlink:href="#Helvetica-65" x="177.832031"/>
      <use xlink:href="#Helvetica-61" x="233.447266"/>
      <use xlink:href="#Helvetica-73" x="289.0625"/>
      <use xlink:href="#Helvetica-65" x="339.0625"/>
      <use xlink:href="#Helvetica-64" x="394.677734"/>
     </g>
    </g>
   </g>
  </g>
 </g>
 <defs>
  <clipPath id="p62866b633b">
   <rect x="72" y="51.84" width="446.4" height="332.64"/>
  </clipPath>
 </defs>
</svg>
