<?xml version="1.0" encoding="utf-8" standalone="no"?>
<!DOCTYPE svg PUBLIC "-//W3C//DTD SVG 1.1//EN"
  "http://www.w3.org/Graphics/SVG/1.1/DTD/svg11.dtd">
<svg xmlns:xlink="http://www.w3.org/1999/xlink" width="576pt" height="432pt" viewBox="0 0 576 432" xmlns="http://www.w3.org/2000/svg" version="1.1">
 <metadata>
  <rdf:RDF xmlns:dc="http://purl.org/dc/elements/1.1/" xmlns:cc="http://creativecommons.org/ns#" xmlns:rdf="http://www.w3.org/1999/02/22-rdf-syntax-ns#">
   <cc:Work>
    <dc:type rdf:resource="http://purl.org/dc/dcmitype/StillImage"/>
    <dc:date>2023-11-06T21:01:33.758904</dc:date>
    <dc:format>image/svg+xml</dc:format>
    <dc:creator>
     <cc:Agent>
      <dc:title>Matplotlib v3.7.2, https://matplotlib.org/</dc:title>
     </cc:Agent>
    </dc:creator>
   </cc:Work>
  </rdf:RDF>
 </metadata>
 <defs>
  <style type="text/css">*{stroke-linejoin: round; stroke-linecap: butt}</style>
 </defs>
 <g id="figure_1">
  <g id="patch_1">
   <path d="M 0 432 
L 576 432 
L 576 0 
L 0 0 
z
" style="fill: #ffffff"/>
  </g>
  <g id="axes_1">
   <g id="patch_2">
    <path d="M 72 384.48 
L 518.4 384.48 
L 518.4 51.84 
L 72 51.84 
z
" style="fill: #ffffff"/>
   </g>
   <g id="PolyCollection_1">
    <defs>
     <path id="m546b502512" d="M 176.847066 -48.737448 
L 176.847066 -47.52 
L 176.986609 -47.52 
L 177.126151 -47.52 
L 177.265694 -47.52 
L 177.405237 -47.52 
L 177.54478 -47.52 
L 177.684323 -47.52 
L 177.823866 -47.52 
L 177.963409 -47.52 
L 178.102951 -47.52 
L 178.242494 -47.52 
L 178.382037 -47.52 
L 178.52158 -47.52 
L 178.661123 -47.52 
L 178.800666 -47.52 
L 178.940209 -47.52 
L 179.079751 -47.52 
L 179.219294 -47.52 
L 179.358837 -47.52 
L 179.49838 -47.52 
L 179.637923 -47.52 
L 179.777466 -47.52 
L 179.917008 -47.52 
L 180.056551 -47.52 
L 180.196094 -47.52 
L 180.335637 -47.52 
L 180.47518 -47.52 
L 180.614723 -47.52 
L 180.754266 -47.52 
L 180.893808 -47.52 
L 181.033351 -47.52 
L 181.172894 -47.52 
L 181.312437 -47.52 
L 181.45198 -47.52 
L 181.591523 -47.52 
L 181.731066 -47.52 
L 181.870608 -47.52 
L 182.010151 -47.52 
L 182.149694 -47.52 
L 182.289237 -47.52 
L 182.42878 -47.52 
L 182.568323 -47.52 
L 182.707866 -47.52 
L 182.847408 -47.52 
L 182.986951 -47.52 
L 183.126494 -47.52 
L 183.266037 -47.52 
L 183.40558 -47.52 
L 183.545123 -47.52 
L 183.684665 -47.52 
L 183.824208 -47.52 
L 183.963751 -47.52 
L 184.103294 -47.52 
L 184.242837 -47.52 
L 184.38238 -47.52 
L 184.521923 -47.52 
L 184.661465 -47.52 
L 184.801008 -47.52 
L 184.940551 -47.52 
L 185.080094 -47.52 
L 185.219637 -47.52 
L 185.35918 -47.52 
L 185.498723 -47.52 
L 185.638265 -47.52 
L 185.777808 -47.52 
L 185.917351 -47.52 
L 186.056894 -47.52 
L 186.196437 -47.52 
L 186.33598 -47.52 
L 186.475523 -47.52 
L 186.615065 -47.52 
L 186.754608 -47.52 
L 186.894151 -47.52 
L 187.033694 -47.52 
L 187.173237 -47.52 
L 187.31278 -47.52 
L 187.452322 -47.52 
L 187.591865 -47.52 
L 187.731408 -47.52 
L 187.870951 -47.52 
L 188.010494 -47.52 
L 188.150037 -47.52 
L 188.28958 -47.52 
L 188.429122 -47.52 
L 188.568665 -47.52 
L 188.708208 -47.52 
L 188.847751 -47.52 
L 188.987294 -47.52 
L 189.126837 -47.52 
L 189.26638 -47.52 
L 189.405922 -47.52 
L 189.545465 -47.52 
L 189.685008 -47.52 
L 189.824551 -47.52 
L 189.964094 -47.52 
L 190.103637 -47.52 
L 190.24318 -47.52 
L 190.382722 -47.52 
L 190.522265 -47.52 
L 190.661808 -47.52 
L 190.801351 -47.52 
L 190.940894 -47.52 
L 191.080437 -47.52 
L 191.219979 -47.52 
L 191.359522 -47.52 
L 191.499065 -47.52 
L 191.638608 -47.52 
L 191.778151 -47.52 
L 191.917694 -47.52 
L 192.057237 -47.52 
L 192.196779 -47.52 
L 192.336322 -47.52 
L 192.475865 -47.52 
L 192.615408 -47.52 
L 192.754951 -47.52 
L 192.894494 -47.52 
L 193.034037 -47.52 
L 193.173579 -47.52 
L 193.313122 -47.52 
L 193.452665 -47.52 
L 193.592208 -47.52 
L 193.731751 -47.52 
L 193.871294 -47.52 
L 194.010837 -47.52 
L 194.150379 -47.52 
L 194.289922 -47.52 
L 194.429465 -47.52 
L 194.569008 -47.52 
L 194.708551 -47.52 
L 194.848094 -47.52 
L 194.987636 -47.52 
L 195.127179 -47.52 
L 195.266722 -47.52 
L 195.406265 -47.52 
L 195.545808 -47.52 
L 195.685351 -47.52 
L 195.824894 -47.52 
L 195.964436 -47.52 
L 196.103979 -47.52 
L 196.243522 -47.52 
L 196.383065 -47.52 
L 196.522608 -47.52 
L 196.662151 -47.52 
L 196.801694 -47.52 
L 196.941236 -47.52 
L 197.080779 -47.52 
L 197.220322 -47.52 
L 197.359865 -47.52 
L 197.499408 -47.52 
L 197.638951 -47.52 
L 197.778494 -47.52 
L 197.918036 -47.52 
L 198.057579 -47.52 
L 198.197122 -47.52 
L 198.336665 -47.52 
L 198.476208 -47.52 
L 198.615751 -47.52 
L 198.755293 -47.52 
L 198.894836 -47.52 
L 199.034379 -47.52 
L 199.173922 -47.52 
L 199.313465 -47.52 
L 199.453008 -47.52 
L 199.592551 -47.52 
L 199.732093 -47.52 
L 199.871636 -47.52 
L 200.011179 -47.52 
L 200.150722 -47.52 
L 200.290265 -47.52 
L 200.429808 -47.52 
L 200.569351 -47.52 
L 200.708893 -47.52 
L 200.848436 -47.52 
L 200.987979 -47.52 
L 201.127522 -47.52 
L 201.267065 -47.52 
L 201.406608 -47.52 
L 201.546151 -47.52 
L 201.685693 -47.52 
L 201.825236 -47.52 
L 201.964779 -47.52 
L 202.104322 -47.52 
L 202.243865 -47.52 
L 202.383408 -47.52 
L 202.52295 -47.52 
L 202.662493 -47.52 
L 202.802036 -47.52 
L 202.941579 -47.52 
L 203.081122 -47.52 
L 203.220665 -47.52 
L 203.360208 -47.52 
L 203.49975 -47.52 
L 203.639293 -47.52 
L 203.778836 -47.52 
L 203.918379 -47.52 
L 204.057922 -47.52 
L 204.197465 -47.52 
L 204.337008 -47.52 
L 204.47655 -47.52 
L 204.616093 -47.52 
L 204.616093 -50.689058 
L 204.616093 -50.689058 
L 204.47655 -51.265144 
L 204.337008 -51.932073 
L 204.197465 -52.701472 
L 204.057922 -53.58597 
L 203.918379 -54.599205 
L 203.778836 -55.75581 
L 203.639293 -57.071382 
L 203.49975 -58.562433 
L 203.360208 -60.246311 
L 203.220665 -62.141104 
L 203.081122 -64.265509 
L 202.941579 -66.638675 
L 202.802036 -69.280021 
L 202.662493 -72.209012 
L 202.52295 -75.444919 
L 202.383408 -79.006539 
L 202.243865 -82.91189 
L 202.104322 -87.177884 
L 201.964779 -91.819975 
L 201.825236 -96.851791 
L 201.685693 -102.284754 
L 201.546151 -108.127692 
L 201.406608 -114.386457 
L 201.267065 -121.063547 
L 201.127522 -128.157743 
L 200.987979 -135.663784 
L 200.848436 -143.572061 
L 200.708893 -151.868366 
L 200.569351 -160.533686 
L 200.429808 -169.544067 
L 200.290265 -178.870537 
L 200.150722 -188.479112 
L 200.011179 -198.330877 
L 199.871636 -208.382154 
L 199.732093 -218.584758 
L 199.592551 -228.88634 
L 199.453008 -239.230814 
L 199.313465 -249.55887 
L 199.173922 -259.808559 
L 199.034379 -269.915953 
L 198.894836 -279.81586 
L 198.755293 -289.442588 
L 198.615751 -298.730747 
L 198.476208 -307.616069 
L 198.336665 -316.036237 
L 198.197122 -323.931703 
L 198.057579 -331.246475 
L 197.918036 -337.928877 
L 197.778494 -343.932236 
L 197.638951 -349.215507 
L 197.499408 -353.743821 
L 197.359865 -357.488923 
L 197.220322 -360.429522 
L 197.080779 -362.551528 
L 196.941236 -363.848168 
L 196.801694 -364.32 
L 196.662151 -363.974803 
L 196.522608 -362.827363 
L 196.383065 -360.899151 
L 196.243522 -358.217908 
L 196.103979 -354.817146 
L 195.964436 -350.735571 
L 195.824894 -346.016449 
L 195.685351 -340.706925 
L 195.545808 -334.857308 
L 195.406265 -328.520347 
L 195.266722 -321.750493 
L 195.127179 -314.603183 
L 194.987636 -307.134143 
L 194.848094 -299.398727 
L 194.708551 -291.451308 
L 194.569008 -283.344715 
L 194.429465 -275.129744 
L 194.289922 -266.854722 
L 194.150379 -258.565156 
L 194.010837 -250.30344 
L 193.871294 -242.108643 
L 193.731751 -234.016365 
L 193.592208 -226.058655 
L 193.452665 -218.263995 
L 193.313122 -210.657343 
L 193.173579 -203.260221 
L 193.034037 -196.090853 
L 192.894494 -189.16434 
L 192.754951 -182.492864 
L 192.615408 -176.085915 
L 192.475865 -169.950539 
L 192.336322 -164.091598 
L 192.196779 -158.512029 
L 192.057237 -153.213109 
L 191.917694 -148.194714 
L 191.778151 -143.455567 
L 191.638608 -138.993477 
L 191.499065 -134.80556 
L 191.359522 -130.888443 
L 191.219979 -127.238449 
L 191.080437 -123.851758 
L 190.940894 -120.724549 
L 190.801351 -117.853114 
L 190.661808 -115.233955 
L 190.522265 -112.863852 
L 190.382722 -110.739904 
L 190.24318 -108.859559 
L 190.103637 -107.220605 
L 189.964094 -105.821152 
L 189.824551 -104.659583 
L 189.685008 -103.734494 
L 189.545465 -103.044605 
L 189.405922 -102.588665 
L 189.26638 -102.36533 
L 189.126837 -102.373041 
L 188.987294 -102.609879 
L 188.847751 -103.073419 
L 188.708208 -103.76058 
L 188.568665 -104.66747 
L 188.429122 -105.78923 
L 188.28958 -107.119894 
L 188.150037 -108.652244 
L 188.010494 -110.37769 
L 187.870951 -112.286155 
L 187.731408 -114.365993 
L 187.591865 -116.603917 
L 187.452322 -118.984965 
L 187.31278 -121.492488 
L 187.173237 -124.108171 
L 187.033694 -126.812092 
L 186.894151 -129.58281 
L 186.754608 -132.397488 
L 186.615065 -135.232059 
L 186.475523 -138.061412 
L 186.33598 -140.859621 
L 186.196437 -143.600198 
L 186.056894 -146.256368 
L 185.917351 -148.801371 
L 185.777808 -151.208778 
L 185.638265 -153.452811 
L 185.498723 -155.508678 
L 185.35918 -157.352895 
L 185.219637 -158.963607 
L 185.080094 -160.320893 
L 184.940551 -161.407043 
L 184.801008 -162.206818 
L 184.661465 -162.707667 
L 184.521923 -162.899913 
L 184.38238 -162.776894 
L 184.242837 -162.335062 
L 184.103294 -161.574026 
L 183.963751 -160.496559 
L 183.824208 -159.108544 
L 183.684665 -157.41888 
L 183.545123 -155.439339 
L 183.40558 -153.184379 
L 183.266037 -150.670921 
L 183.126494 -147.918087 
L 182.986951 -144.946914 
L 182.847408 -141.780041 
L 182.707866 -138.441384 
L 182.568323 -134.955791 
L 182.42878 -131.348706 
L 182.289237 -127.645827 
L 182.149694 -123.872774 
L 182.010151 -120.054777 
L 181.870608 -116.216375 
L 181.731066 -112.381149 
L 181.591523 -108.571475 
L 181.45198 -104.808314 
L 181.312437 -101.111034 
L 181.172894 -97.497264 
L 181.033351 -93.982786 
L 180.893808 -90.581465 
L 180.754266 -87.305206 
L 180.614723 -84.16395 
L 180.47518 -81.165697 
L 180.335637 -78.316557 
L 180.196094 -75.620827 
L 180.056551 -73.081088 
L 179.917008 -70.698319 
L 179.777466 -68.472027 
L 179.637923 -66.400387 
L 179.49838 -64.480386 
L 179.358837 -62.707976 
L 179.219294 -61.078223 
L 179.079751 -59.585457 
L 178.940209 -58.223415 
L 178.800666 -56.98538 
L 178.661123 -55.864309 
L 178.52158 -54.852954 
L 178.382037 -53.943968 
L 178.242494 -53.130005 
L 178.102951 -52.403805 
L 177.963409 -51.758266 
L 177.823866 -51.186507 
L 177.684323 -50.681923 
L 177.54478 -50.238216 
L 177.405237 -49.849434 
L 177.265694 -49.509988 
L 177.126151 -49.214666 
L 176.986609 -48.958635 
L 176.847066 -48.737448 
z
" style="stroke: #87ceeb"/>
    </defs>
    <g clip-path="url(#p1eef5dc2e3)">
     <use xlink:href="#m546b502512" x="0" y="432" style="fill: #87ceeb; fill-opacity: 0.25; stroke: #87ceeb"/>
    </g>
   </g>
   <g id="PolyCollection_2">
    <defs>
     <path id="m73193f789e" d="M 92.290909 -47.796686 
L 92.290909 -47.52 
L 94.330196 -47.52 
L 96.369484 -47.52 
L 98.408771 -47.52 
L 100.448058 -47.52 
L 102.487346 -47.52 
L 104.526633 -47.52 
L 106.565921 -47.52 
L 108.605208 -47.52 
L 110.644495 -47.52 
L 112.683783 -47.52 
L 114.72307 -47.52 
L 116.762357 -47.52 
L 118.801645 -47.52 
L 120.840932 -47.52 
L 122.880219 -47.52 
L 124.919507 -47.52 
L 126.958794 -47.52 
L 128.998081 -47.52 
L 131.037369 -47.52 
L 133.076656 -47.52 
L 135.115943 -47.52 
L 137.155231 -47.52 
L 139.194518 -47.52 
L 141.233805 -47.52 
L 143.273093 -47.52 
L 145.31238 -47.52 
L 147.351667 -47.52 
L 149.390955 -47.52 
L 151.430242 -47.52 
L 153.469529 -47.52 
L 155.508817 -47.52 
L 157.548104 -47.52 
L 159.587392 -47.52 
L 161.626679 -47.52 
L 163.665966 -47.52 
L 165.705254 -47.52 
L 167.744541 -47.52 
L 169.783828 -47.52 
L 171.823116 -47.52 
L 173.862403 -47.52 
L 175.90169 -47.52 
L 177.940978 -47.52 
L 179.980265 -47.52 
L 182.019552 -47.52 
L 184.05884 -47.52 
L 186.098127 -47.52 
L 188.137414 -47.52 
L 190.176702 -47.52 
L 192.215989 -47.52 
L 194.255276 -47.52 
L 196.294564 -47.52 
L 198.333851 -47.52 
L 200.373138 -47.52 
L 202.412426 -47.52 
L 204.451713 -47.52 
L 206.491 -47.52 
L 208.530288 -47.52 
L 210.569575 -47.52 
L 212.608862 -47.52 
L 214.64815 -47.52 
L 216.687437 -47.52 
L 218.726725 -47.52 
L 220.766012 -47.52 
L 222.805299 -47.52 
L 224.844587 -47.52 
L 226.883874 -47.52 
L 228.923161 -47.52 
L 230.962449 -47.52 
L 233.001736 -47.52 
L 235.041023 -47.52 
L 237.080311 -47.52 
L 239.119598 -47.52 
L 241.158885 -47.52 
L 243.198173 -47.52 
L 245.23746 -47.52 
L 247.276747 -47.52 
L 249.316035 -47.52 
L 251.355322 -47.52 
L 253.394609 -47.52 
L 255.433897 -47.52 
L 257.473184 -47.52 
L 259.512471 -47.52 
L 261.551759 -47.52 
L 263.591046 -47.52 
L 265.630333 -47.52 
L 267.669621 -47.52 
L 269.708908 -47.52 
L 271.748196 -47.52 
L 273.787483 -47.52 
L 275.82677 -47.52 
L 277.866058 -47.52 
L 279.905345 -47.52 
L 281.944632 -47.52 
L 283.98392 -47.52 
L 286.023207 -47.52 
L 288.062494 -47.52 
L 290.101782 -47.52 
L 292.141069 -47.52 
L 294.180356 -47.52 
L 296.219644 -47.52 
L 298.258931 -47.52 
L 300.298218 -47.52 
L 302.337506 -47.52 
L 304.376793 -47.52 
L 306.41608 -47.52 
L 308.455368 -47.52 
L 310.494655 -47.52 
L 312.533942 -47.52 
L 314.57323 -47.52 
L 316.612517 -47.52 
L 318.651804 -47.52 
L 320.691092 -47.52 
L 322.730379 -47.52 
L 324.769667 -47.52 
L 326.808954 -47.52 
L 328.848241 -47.52 
L 330.887529 -47.52 
L 332.926816 -47.52 
L 334.966103 -47.52 
L 337.005391 -47.52 
L 339.044678 -47.52 
L 341.083965 -47.52 
L 343.123253 -47.52 
L 345.16254 -47.52 
L 347.201827 -47.52 
L 349.241115 -47.52 
L 351.280402 -47.52 
L 353.319689 -47.52 
L 355.358977 -47.52 
L 357.398264 -47.52 
L 359.437551 -47.52 
L 361.476839 -47.52 
L 363.516126 -47.52 
L 365.555413 -47.52 
L 367.594701 -47.52 
L 369.633988 -47.52 
L 371.673275 -47.52 
L 373.712563 -47.52 
L 375.75185 -47.52 
L 377.791138 -47.52 
L 379.830425 -47.52 
L 381.869712 -47.52 
L 383.909 -47.52 
L 385.948287 -47.52 
L 387.987574 -47.52 
L 390.026862 -47.52 
L 392.066149 -47.52 
L 394.105436 -47.52 
L 396.144724 -47.52 
L 398.184011 -47.52 
L 400.223298 -47.52 
L 402.262586 -47.52 
L 404.301873 -47.52 
L 406.34116 -47.52 
L 408.380448 -47.52 
L 410.419735 -47.52 
L 412.459022 -47.52 
L 414.49831 -47.52 
L 416.537597 -47.52 
L 418.576884 -47.52 
L 420.616172 -47.52 
L 422.655459 -47.52 
L 424.694746 -47.52 
L 426.734034 -47.52 
L 428.773321 -47.52 
L 430.812608 -47.52 
L 432.851896 -47.52 
L 434.891183 -47.52 
L 436.930471 -47.52 
L 438.969758 -47.52 
L 441.009045 -47.52 
L 443.048333 -47.52 
L 445.08762 -47.52 
L 447.126907 -47.52 
L 449.166195 -47.52 
L 451.205482 -47.52 
L 453.244769 -47.52 
L 455.284057 -47.52 
L 457.323344 -47.52 
L 459.362631 -47.52 
L 461.401919 -47.52 
L 463.441206 -47.52 
L 465.480493 -47.52 
L 467.519781 -47.52 
L 469.559068 -47.52 
L 471.598355 -47.52 
L 473.637643 -47.52 
L 475.67693 -47.52 
L 477.716217 -47.52 
L 479.755505 -47.52 
L 481.794792 -47.52 
L 483.834079 -47.52 
L 485.873367 -47.52 
L 487.912654 -47.52 
L 489.951942 -47.52 
L 491.991229 -47.52 
L 494.030516 -47.52 
L 496.069804 -47.52 
L 498.109091 -47.52 
L 498.109091 -47.545532 
L 498.109091 -47.545532 
L 496.069804 -47.55132 
L 494.030516 -47.558238 
L 491.991229 -47.566463 
L 489.951942 -47.576189 
L 487.912654 -47.58763 
L 485.873367 -47.601016 
L 483.834079 -47.61659 
L 481.794792 -47.634614 
L 479.755505 -47.655356 
L 477.716217 -47.679096 
L 475.67693 -47.706113 
L 473.637643 -47.736688 
L 471.598355 -47.771091 
L 469.559068 -47.809578 
L 467.519781 -47.852382 
L 465.480493 -47.899707 
L 463.441206 -47.951717 
L 461.401919 -48.008526 
L 459.362631 -48.070192 
L 457.323344 -48.136708 
L 455.284057 -48.207992 
L 453.244769 -48.283881 
L 451.205482 -48.364125 
L 449.166195 -48.44838 
L 447.126907 -48.536211 
L 445.08762 -48.627083 
L 443.048333 -48.72037 
L 441.009045 -48.815354 
L 438.969758 -48.911234 
L 436.930471 -49.007135 
L 434.891183 -49.10212 
L 432.851896 -49.1952 
L 430.812608 -49.285357 
L 428.773321 -49.371557 
L 426.734034 -49.452769 
L 424.694746 -49.527989 
L 422.655459 -49.596257 
L 420.616172 -49.65668 
L 418.576884 -49.708449 
L 416.537597 -49.750857 
L 414.49831 -49.783319 
L 412.459022 -49.805378 
L 410.419735 -49.816725 
L 408.380448 -49.817198 
L 406.34116 -49.80679 
L 404.301873 -49.785649 
L 402.262586 -49.754074 
L 400.223298 -49.712507 
L 398.184011 -49.661524 
L 396.144724 -49.601821 
L 394.105436 -49.534198 
L 392.066149 -49.459544 
L 390.026862 -49.378812 
L 387.987574 -49.293005 
L 385.948287 -49.20315 
L 383.909 -49.110283 
L 381.869712 -49.015424 
L 379.830425 -48.919564 
L 377.791138 -48.823646 
L 375.75185 -48.728551 
L 373.712563 -48.635088 
L 371.673275 -48.54398 
L 369.633988 -48.455863 
L 367.594701 -48.371279 
L 365.555413 -48.290673 
L 363.516126 -48.214395 
L 361.476839 -48.142705 
L 359.437551 -48.075772 
L 357.398264 -48.013685 
L 355.358977 -47.956458 
L 353.319689 -47.904038 
L 351.280402 -47.856316 
L 349.241115 -47.813132 
L 347.201827 -47.774287 
L 345.16254 -47.73955 
L 343.123253 -47.708668 
L 341.083965 -47.681373 
L 339.044678 -47.657389 
L 337.005391 -47.636436 
L 334.966103 -47.618242 
L 332.926816 -47.60254 
L 330.887529 -47.589078 
L 328.848241 -47.577618 
L 326.808954 -47.567942 
L 324.769667 -47.559853 
L 322.730379 -47.553176 
L 320.691092 -47.547761 
L 318.651804 -47.543486 
L 316.612517 -47.540253 
L 314.57323 -47.537999 
L 312.533942 -47.536687 
L 310.494655 -47.53632 
L 308.455368 -47.536937 
L 306.41608 -47.538619 
L 304.376793 -47.541498 
L 302.337506 -47.545757 
L 300.298218 -47.551644 
L 298.258931 -47.559478 
L 296.219644 -47.569659 
L 294.180356 -47.582682 
L 292.141069 -47.599151 
L 290.101782 -47.619791 
L 288.062494 -47.645468 
L 286.023207 -47.677205 
L 283.98392 -47.716199 
L 281.944632 -47.763842 
L 279.905345 -47.82174 
L 277.866058 -47.891732 
L 275.82677 -47.975903 
L 273.787483 -48.076604 
L 271.748196 -48.19646 
L 269.708908 -48.338378 
L 267.669621 -48.50555 
L 265.630333 -48.701448 
L 263.591046 -48.929807 
L 261.551759 -49.194609 
L 259.512471 -49.500045 
L 257.473184 -49.850475 
L 255.433897 -50.250366 
L 253.394609 -50.704228 
L 251.355322 -51.216527 
L 249.316035 -51.791592 
L 247.276747 -52.433507 
L 245.23746 -53.145989 
L 243.198173 -53.932264 
L 241.158885 -54.79493 
L 239.119598 -55.735817 
L 237.080311 -56.755849 
L 235.041023 -57.85491 
L 233.001736 -59.031714 
L 230.962449 -60.28369 
L 228.923161 -61.60689 
L 226.883874 -62.995908 
L 224.844587 -64.44384 
L 222.805299 -65.942263 
L 220.766012 -67.481257 
L 218.726725 -69.049462 
L 216.687437 -70.634174 
L 214.64815 -72.221482 
L 212.608862 -73.796444 
L 210.569575 -75.343298 
L 208.530288 -76.845713 
L 206.491 -78.28706 
L 204.451713 -79.65071 
L 202.412426 -80.920352 
L 200.373138 -82.080312 
L 198.333851 -83.115868 
L 196.294564 -84.013567 
L 194.255276 -84.761512 
L 192.215989 -85.349622 
L 190.176702 -85.76986 
L 188.137414 -86.016417 
L 186.098127 -86.085841 
L 184.05884 -85.977123 
L 182.019552 -85.691717 
L 179.980265 -85.23351 
L 177.940978 -84.608734 
L 175.90169 -83.825824 
L 173.862403 -82.895227 
L 171.823116 -81.829174 
L 169.783828 -80.641409 
L 167.744541 -79.346897 
L 165.705254 -77.96151 
L 163.665966 -76.501702 
L 161.626679 -74.984192 
L 159.587392 -73.425648 
L 157.548104 -71.842388 
L 155.508817 -70.250109 
L 153.469529 -68.663644 
L 151.430242 -67.09675 
L 149.390955 -65.56194 
L 147.351667 -64.070351 
L 145.31238 -62.631653 
L 143.273093 -61.253997 
L 141.233805 -59.944006 
L 139.194518 -58.706791 
L 137.155231 -57.546006 
L 135.115943 -56.463933 
L 133.076656 -55.461576 
L 131.037369 -54.538783 
L 128.998081 -53.694382 
L 126.958794 -52.926313 
L 124.919507 -52.231774 
L 122.880219 -51.607357 
L 120.840932 -51.049192 
L 118.801645 -50.553066 
L 116.762357 -50.11455 
L 114.72307 -49.7291 
L 112.683783 -49.392152 
L 110.644495 -49.099206 
L 108.605208 -48.845892 
L 106.565921 -48.628023 
L 104.526633 -48.441637 
L 102.487346 -48.28303 
L 100.448058 -48.148771 
L 98.408771 -48.035719 
L 96.369484 -47.94102 
L 94.330196 -47.862106 
L 92.290909 -47.796686 
z
" style="stroke: #fa8072"/>
    </defs>
    <g clip-path="url(#p1eef5dc2e3)">
     <use xlink:href="#m73193f789e" x="0" y="432" style="fill: #fa8072; fill-opacity: 0.25; stroke: #fa8072"/>
    </g>
   </g>
   <g id="matplotlib.axis_1">
    <g id="xtick_1">
     <g id="line2d_1">
      <defs>
       <path id="m5602819dc2" d="M 0 0 
L 0 3.5 
" style="stroke: #000000; stroke-width: 0.8"/>
      </defs>
      <g>
       <use xlink:href="#m5602819dc2" x="107.156843" y="384.48" style="stroke: #000000; stroke-width: 0.8"/>
      </g>
     </g>
     <g id="text_1">
      <!-- −20 -->
      <g transform="translate(98.675593 398.653437) scale(0.1 -0.1)">
       <defs>
        <path id="Helvetica-2212" d="M 3547 1894 
L 3547 1369 
L 288 1369 
L 288 1894 
L 3547 1894 
z
" transform="scale(0.015625)"/>
        <path id="Helvetica-32" d="M 200 0 
Q 231 578 439 1006 
Q 647 1434 1250 1784 
L 1850 2131 
Q 2253 2366 2416 2531 
Q 2672 2791 2672 3125 
Q 2672 3516 2437 3745 
Q 2203 3975 1813 3975 
Q 1234 3975 1013 3538 
Q 894 3303 881 2888 
L 309 2888 
Q 319 3472 525 3841 
Q 891 4491 1816 4491 
Q 2584 4491 2939 4075 
Q 3294 3659 3294 3150 
Q 3294 2613 2916 2231 
Q 2697 2009 2131 1694 
L 1703 1456 
Q 1397 1288 1222 1134 
Q 909 863 828 531 
L 3272 531 
L 3272 0 
L 200 0 
z
" transform="scale(0.015625)"/>
        <path id="Helvetica-30" d="M 1731 4475 
Q 2600 4475 2988 3759 
Q 3288 3206 3288 2244 
Q 3288 1331 3016 734 
Q 2622 -122 1728 -122 
Q 922 -122 528 578 
Q 200 1163 200 2147 
Q 200 2909 397 3456 
Q 766 4475 1731 4475 
z
M 1725 391 
Q 2163 391 2422 778 
Q 2681 1166 2681 2222 
Q 2681 2984 2493 3476 
Q 2306 3969 1766 3969 
Q 1269 3969 1039 3501 
Q 809 3034 809 2125 
Q 809 1441 956 1025 
Q 1181 391 1725 391 
z
" transform="scale(0.015625)"/>
       </defs>
       <use xlink:href="#Helvetica-2212"/>
       <use xlink:href="#Helvetica-32" x="58.398438"/>
       <use xlink:href="#Helvetica-30" x="114.013672"/>
      </g>
     </g>
    </g>
    <g id="xtick_2">
     <g id="line2d_2">
      <g>
       <use xlink:href="#m5602819dc2" x="171.445102" y="384.48" style="stroke: #000000; stroke-width: 0.8"/>
      </g>
     </g>
     <g id="text_2">
      <!-- 0 -->
      <g transform="translate(168.664633 398.653437) scale(0.1 -0.1)">
       <use xlink:href="#Helvetica-30"/>
      </g>
     </g>
    </g>
    <g id="xtick_3">
     <g id="line2d_3">
      <g>
       <use xlink:href="#m5602819dc2" x="235.733361" y="384.48" style="stroke: #000000; stroke-width: 0.8"/>
      </g>
     </g>
     <g id="text_3">
      <!-- 20 -->
      <g transform="translate(230.172423 398.653437) scale(0.1 -0.1)">
       <use xlink:href="#Helvetica-32"/>
       <use xlink:href="#Helvetica-30" x="55.615234"/>
      </g>
     </g>
    </g>
    <g id="xtick_4">
     <g id="line2d_4">
      <g>
       <use xlink:href="#m5602819dc2" x="300.021619" y="384.48" style="stroke: #000000; stroke-width: 0.8"/>
      </g>
     </g>
     <g id="text_4">
      <!-- 40 -->
      <g transform="translate(294.460682 398.653437) scale(0.1 -0.1)">
       <defs>
        <path id="Helvetica-34" d="M 2116 1584 
L 2116 3613 
L 681 1584 
L 2116 1584 
z
M 2125 0 
L 2125 1094 
L 163 1094 
L 163 1644 
L 2213 4488 
L 2688 4488 
L 2688 1584 
L 3347 1584 
L 3347 1094 
L 2688 1094 
L 2688 0 
L 2125 0 
z
" transform="scale(0.015625)"/>
       </defs>
       <use xlink:href="#Helvetica-34"/>
       <use xlink:href="#Helvetica-30" x="55.615234"/>
      </g>
     </g>
    </g>
    <g id="xtick_5">
     <g id="line2d_5">
      <g>
       <use xlink:href="#m5602819dc2" x="364.309878" y="384.48" style="stroke: #000000; stroke-width: 0.8"/>
      </g>
     </g>
     <g id="text_5">
      <!-- 60 -->
      <g transform="translate(358.748941 398.653437) scale(0.1 -0.1)">
       <defs>
        <path id="Helvetica-36" d="M 1872 4494 
Q 2622 4494 2917 4105 
Q 3213 3716 3213 3303 
L 2656 3303 
Q 2606 3569 2497 3719 
Q 2294 4000 1881 4000 
Q 1409 4000 1131 3564 
Q 853 3128 822 2316 
Q 1016 2600 1309 2741 
Q 1578 2866 1909 2866 
Q 2472 2866 2890 2506 
Q 3309 2147 3309 1434 
Q 3309 825 2912 354 
Q 2516 -116 1781 -116 
Q 1153 -116 697 361 
Q 241 838 241 1966 
Q 241 2800 444 3381 
Q 834 4494 1872 4494 
z
M 1831 384 
Q 2275 384 2495 682 
Q 2716 981 2716 1388 
Q 2716 1731 2519 2042 
Q 2322 2353 1803 2353 
Q 1441 2353 1167 2112 
Q 894 1872 894 1388 
Q 894 963 1142 673 
Q 1391 384 1831 384 
z
" transform="scale(0.015625)"/>
       </defs>
       <use xlink:href="#Helvetica-36"/>
       <use xlink:href="#Helvetica-30" x="55.615234"/>
      </g>
     </g>
    </g>
    <g id="xtick_6">
     <g id="line2d_6">
      <g>
       <use xlink:href="#m5602819dc2" x="428.598137" y="384.48" style="stroke: #000000; stroke-width: 0.8"/>
      </g>
     </g>
     <g id="text_6">
      <!-- 80 -->
      <g transform="translate(423.037199 398.653437) scale(0.1 -0.1)">
       <defs>
        <path id="Helvetica-38" d="M 1741 2600 
Q 2113 2600 2322 2808 
Q 2531 3016 2531 3303 
Q 2531 3553 2331 3762 
Q 2131 3972 1722 3972 
Q 1316 3972 1134 3762 
Q 953 3553 953 3272 
Q 953 2956 1187 2778 
Q 1422 2600 1741 2600 
z
M 1775 384 
Q 2166 384 2423 595 
Q 2681 806 2681 1225 
Q 2681 1659 2415 1884 
Q 2150 2109 1734 2109 
Q 1331 2109 1076 1879 
Q 822 1650 822 1244 
Q 822 894 1055 639 
Q 1288 384 1775 384 
z
M 975 2384 
Q 741 2484 609 2619 
Q 363 2869 363 3269 
Q 363 3769 725 4128 
Q 1088 4488 1753 4488 
Q 2397 4488 2762 4148 
Q 3128 3809 3128 3356 
Q 3128 2938 2916 2678 
Q 2797 2531 2547 2391 
Q 2825 2263 2984 2097 
Q 3281 1784 3281 1284 
Q 3281 694 2884 283 
Q 2488 -128 1763 -128 
Q 1109 -128 657 226 
Q 206 581 206 1256 
Q 206 1653 400 1942 
Q 594 2231 975 2384 
z
" transform="scale(0.015625)"/>
       </defs>
       <use xlink:href="#Helvetica-38"/>
       <use xlink:href="#Helvetica-30" x="55.615234"/>
      </g>
     </g>
    </g>
    <g id="xtick_7">
     <g id="line2d_7">
      <g>
       <use xlink:href="#m5602819dc2" x="492.886396" y="384.48" style="stroke: #000000; stroke-width: 0.8"/>
      </g>
     </g>
     <g id="text_7">
      <!-- 100 -->
      <g transform="translate(484.544989 398.653437) scale(0.1 -0.1)">
       <defs>
        <path id="Helvetica-31" d="M 613 3169 
L 613 3600 
Q 1222 3659 1462 3798 
Q 1703 3938 1822 4456 
L 2266 4456 
L 2266 0 
L 1666 0 
L 1666 3169 
L 613 3169 
z
" transform="scale(0.015625)"/>
       </defs>
       <use xlink:href="#Helvetica-31"/>
       <use xlink:href="#Helvetica-30" x="55.615234"/>
       <use xlink:href="#Helvetica-30" x="111.230469"/>
      </g>
     </g>
    </g>
    <g id="text_8">
     <!-- Return to Sport -->
     <g transform="translate(261.296094 412.106562) scale(0.1 -0.1)">
      <defs>
       <path id="Helvetica-52" d="M 2622 2488 
Q 3059 2488 3314 2663 
Q 3569 2838 3569 3294 
Q 3569 3784 3213 3963 
Q 3022 4056 2703 4056 
L 1184 4056 
L 1184 2488 
L 2622 2488 
z
M 563 4591 
L 2688 4591 
Q 3213 4591 3553 4438 
Q 4200 4144 4200 3353 
Q 4200 2941 4029 2678 
Q 3859 2416 3553 2256 
Q 3822 2147 3958 1969 
Q 4094 1791 4109 1391 
L 4131 775 
Q 4141 513 4175 384 
Q 4231 166 4375 103 
L 4375 0 
L 3613 0 
Q 3581 59 3562 153 
Q 3544 247 3531 516 
L 3494 1281 
Q 3472 1731 3159 1884 
Q 2981 1969 2600 1969 
L 1184 1969 
L 1184 0 
L 563 0 
L 563 4591 
z
" transform="scale(0.015625)"/>
       <path id="Helvetica-65" d="M 1806 3422 
Q 2163 3422 2497 3255 
Q 2831 3088 3006 2822 
Q 3175 2569 3231 2231 
Q 3281 2000 3281 1494 
L 828 1494 
Q 844 984 1069 676 
Q 1294 369 1766 369 
Q 2206 369 2469 659 
Q 2619 828 2681 1050 
L 3234 1050 
Q 3213 866 3089 639 
Q 2966 413 2813 269 
Q 2556 19 2178 -69 
Q 1975 -119 1719 -119 
Q 1094 -119 659 336 
Q 225 791 225 1609 
Q 225 2416 662 2919 
Q 1100 3422 1806 3422 
z
M 2703 1941 
Q 2669 2306 2544 2525 
Q 2313 2931 1772 2931 
Q 1384 2931 1121 2651 
Q 859 2372 844 1941 
L 2703 1941 
z
M 1753 3428 
L 1753 3428 
z
" transform="scale(0.015625)"/>
       <path id="Helvetica-74" d="M 525 4281 
L 1094 4281 
L 1094 3347 
L 1628 3347 
L 1628 2888 
L 1094 2888 
L 1094 703 
Q 1094 528 1213 469 
Q 1278 434 1431 434 
Q 1472 434 1519 436 
Q 1566 438 1628 444 
L 1628 0 
Q 1531 -28 1426 -40 
Q 1322 -53 1200 -53 
Q 806 -53 665 148 
Q 525 350 525 672 
L 525 2888 
L 72 2888 
L 72 3347 
L 525 3347 
L 525 4281 
z
" transform="scale(0.015625)"/>
       <path id="Helvetica-75" d="M 975 3347 
L 975 1125 
Q 975 869 1056 706 
Q 1206 406 1616 406 
Q 2203 406 2416 931 
Q 2531 1213 2531 1703 
L 2531 3347 
L 3094 3347 
L 3094 0 
L 2563 0 
L 2569 494 
Q 2459 303 2297 172 
Q 1975 -91 1516 -91 
Q 800 -91 541 388 
Q 400 644 400 1072 
L 400 3347 
L 975 3347 
z
M 1747 3428 
L 1747 3428 
z
" transform="scale(0.015625)"/>
       <path id="Helvetica-72" d="M 428 3347 
L 963 3347 
L 963 2769 
Q 1028 2938 1284 3180 
Q 1541 3422 1875 3422 
Q 1891 3422 1928 3419 
Q 1966 3416 2056 3406 
L 2056 2813 
Q 2006 2822 1964 2825 
Q 1922 2828 1872 2828 
Q 1447 2828 1219 2554 
Q 991 2281 991 1925 
L 991 0 
L 428 0 
L 428 3347 
z
" transform="scale(0.015625)"/>
       <path id="Helvetica-6e" d="M 413 3347 
L 947 3347 
L 947 2872 
Q 1184 3166 1450 3294 
Q 1716 3422 2041 3422 
Q 2753 3422 3003 2925 
Q 3141 2653 3141 2147 
L 3141 0 
L 2569 0 
L 2569 2109 
Q 2569 2416 2478 2603 
Q 2328 2916 1934 2916 
Q 1734 2916 1606 2875 
Q 1375 2806 1200 2600 
Q 1059 2434 1017 2257 
Q 975 2081 975 1753 
L 975 0 
L 413 0 
L 413 3347 
z
M 1734 3428 
L 1734 3428 
z
" transform="scale(0.015625)"/>
       <path id="Helvetica-20" transform="scale(0.015625)"/>
       <path id="Helvetica-6f" d="M 1741 363 
Q 2300 363 2508 786 
Q 2716 1209 2716 1728 
Q 2716 2197 2566 2491 
Q 2328 2953 1747 2953 
Q 1231 2953 997 2559 
Q 763 2166 763 1609 
Q 763 1075 997 719 
Q 1231 363 1741 363 
z
M 1763 3444 
Q 2409 3444 2856 3012 
Q 3303 2581 3303 1744 
Q 3303 934 2909 406 
Q 2516 -122 1688 -122 
Q 997 -122 590 345 
Q 184 813 184 1600 
Q 184 2444 612 2944 
Q 1041 3444 1763 3444 
z
M 1744 3428 
L 1744 3428 
z
" transform="scale(0.015625)"/>
       <path id="Helvetica-53" d="M 894 1481 
Q 916 1091 1078 847 
Q 1388 391 2169 391 
Q 2519 391 2806 491 
Q 3363 684 3363 1184 
Q 3363 1559 3128 1719 
Q 2891 1875 2384 1991 
L 1763 2131 
Q 1153 2269 900 2434 
Q 463 2722 463 3294 
Q 463 3913 891 4309 
Q 1319 4706 2103 4706 
Q 2825 4706 3329 4357 
Q 3834 4009 3834 3244 
L 3250 3244 
Q 3203 3613 3050 3809 
Q 2766 4169 2084 4169 
Q 1534 4169 1293 3937 
Q 1053 3706 1053 3400 
Q 1053 3063 1334 2906 
Q 1519 2806 2169 2656 
L 2813 2509 
Q 3278 2403 3531 2219 
Q 3969 1897 3969 1284 
Q 3969 522 3414 194 
Q 2859 -134 2125 -134 
Q 1269 -134 784 303 
Q 300 738 309 1481 
L 894 1481 
z
M 2150 4716 
L 2150 4716 
z
" transform="scale(0.015625)"/>
       <path id="Helvetica-70" d="M 1825 378 
Q 2219 378 2480 708 
Q 2741 1038 2741 1694 
Q 2741 2094 2625 2381 
Q 2406 2934 1825 2934 
Q 1241 2934 1025 2350 
Q 909 2038 909 1556 
Q 909 1169 1025 897 
Q 1244 378 1825 378 
z
M 369 3331 
L 916 3331 
L 916 2888 
Q 1084 3116 1284 3241 
Q 1569 3428 1953 3428 
Q 2522 3428 2919 2992 
Q 3316 2556 3316 1747 
Q 3316 653 2744 184 
Q 2381 -113 1900 -113 
Q 1522 -113 1266 53 
Q 1116 147 931 375 
L 931 -1334 
L 369 -1334 
L 369 3331 
z
" transform="scale(0.015625)"/>
      </defs>
      <use xlink:href="#Helvetica-52"/>
      <use xlink:href="#Helvetica-65" x="72.216797"/>
      <use xlink:href="#Helvetica-74" x="127.832031"/>
      <use xlink:href="#Helvetica-75" x="155.615234"/>
      <use xlink:href="#Helvetica-72" x="211.230469"/>
      <use xlink:href="#Helvetica-6e" x="244.53125"/>
      <use xlink:href="#Helvetica-20" x="300.146484"/>
      <use xlink:href="#Helvetica-74" x="327.929688"/>
      <use xlink:href="#Helvetica-6f" x="355.712891"/>
      <use xlink:href="#Helvetica-20" x="411.328125"/>
      <use xlink:href="#Helvetica-53" x="439.111328"/>
      <use xlink:href="#Helvetica-70" x="505.810547"/>
      <use xlink:href="#Helvetica-6f" x="561.425781"/>
      <use xlink:href="#Helvetica-72" x="617.041016"/>
      <use xlink:href="#Helvetica-74" x="650.341797"/>
     </g>
    </g>
   </g>
   <g id="matplotlib.axis_2">
    <g id="ytick_1">
     <g id="line2d_8">
      <defs>
       <path id="mbe0eb9eb86" d="M 0 0 
L -3.5 0 
" style="stroke: #000000; stroke-width: 0.8"/>
      </defs>
      <g>
       <use xlink:href="#mbe0eb9eb86" x="72" y="384.48" style="stroke: #000000; stroke-width: 0.8"/>
      </g>
     </g>
     <g id="text_9">
      <!-- 0.00 -->
      <g transform="translate(45.539062 388.066719) scale(0.1 -0.1)">
       <defs>
        <path id="Helvetica-2e" d="M 547 681 
L 1200 681 
L 1200 0 
L 547 0 
L 547 681 
z
" transform="scale(0.015625)"/>
       </defs>
       <use xlink:href="#Helvetica-30"/>
       <use xlink:href="#Helvetica-2e" x="55.615234"/>
       <use xlink:href="#Helvetica-30" x="83.398438"/>
       <use xlink:href="#Helvetica-30" x="139.013672"/>
      </g>
     </g>
    </g>
    <g id="ytick_2">
     <g id="line2d_9">
      <g>
       <use xlink:href="#mbe0eb9eb86" x="72" y="336.735515" style="stroke: #000000; stroke-width: 0.8"/>
      </g>
     </g>
     <g id="text_10">
      <!-- 0.05 -->
      <g transform="translate(45.539062 340.322233) scale(0.1 -0.1)">
       <defs>
        <path id="Helvetica-35" d="M 791 1141 
Q 847 659 1238 475 
Q 1438 381 1700 381 
Q 2200 381 2440 700 
Q 2681 1019 2681 1406 
Q 2681 1875 2395 2131 
Q 2109 2388 1709 2388 
Q 1419 2388 1211 2275 
Q 1003 2163 856 1963 
L 369 1991 
L 709 4400 
L 3034 4400 
L 3034 3856 
L 1131 3856 
L 941 2613 
Q 1097 2731 1238 2791 
Q 1488 2894 1816 2894 
Q 2431 2894 2859 2497 
Q 3288 2100 3288 1491 
Q 3288 856 2895 371 
Q 2503 -113 1644 -113 
Q 1097 -113 676 195 
Q 256 503 206 1141 
L 791 1141 
z
" transform="scale(0.015625)"/>
       </defs>
       <use xlink:href="#Helvetica-30"/>
       <use xlink:href="#Helvetica-2e" x="55.615234"/>
       <use xlink:href="#Helvetica-30" x="83.398438"/>
       <use xlink:href="#Helvetica-35" x="139.013672"/>
      </g>
     </g>
    </g>
    <g id="ytick_3">
     <g id="line2d_10">
      <g>
       <use xlink:href="#mbe0eb9eb86" x="72" y="288.991029" style="stroke: #000000; stroke-width: 0.8"/>
      </g>
     </g>
     <g id="text_11">
      <!-- 0.10 -->
      <g transform="translate(45.539062 292.577748) scale(0.1 -0.1)">
       <use xlink:href="#Helvetica-30"/>
       <use xlink:href="#Helvetica-2e" x="55.615234"/>
       <use xlink:href="#Helvetica-31" x="83.398438"/>
       <use xlink:href="#Helvetica-30" x="139.013672"/>
      </g>
     </g>
    </g>
    <g id="ytick_4">
     <g id="line2d_11">
      <g>
       <use xlink:href="#mbe0eb9eb86" x="72" y="241.246544" style="stroke: #000000; stroke-width: 0.8"/>
      </g>
     </g>
     <g id="text_12">
      <!-- 0.15 -->
      <g transform="translate(45.539062 244.833263) scale(0.1 -0.1)">
       <use xlink:href="#Helvetica-30"/>
       <use xlink:href="#Helvetica-2e" x="55.615234"/>
       <use xlink:href="#Helvetica-31" x="83.398438"/>
       <use xlink:href="#Helvetica-35" x="139.013672"/>
      </g>
     </g>
    </g>
    <g id="ytick_5">
     <g id="line2d_12">
      <g>
       <use xlink:href="#mbe0eb9eb86" x="72" y="193.502059" style="stroke: #000000; stroke-width: 0.8"/>
      </g>
     </g>
     <g id="text_13">
      <!-- 0.20 -->
      <g transform="translate(45.539062 197.088778) scale(0.1 -0.1)">
       <use xlink:href="#Helvetica-30"/>
       <use xlink:href="#Helvetica-2e" x="55.615234"/>
       <use xlink:href="#Helvetica-32" x="83.398438"/>
       <use xlink:href="#Helvetica-30" x="139.013672"/>
      </g>
     </g>
    </g>
    <g id="ytick_6">
     <g id="line2d_13">
      <g>
       <use xlink:href="#mbe0eb9eb86" x="72" y="145.757574" style="stroke: #000000; stroke-width: 0.8"/>
      </g>
     </g>
     <g id="text_14">
      <!-- 0.25 -->
      <g transform="translate(45.539062 149.344292) scale(0.1 -0.1)">
       <use xlink:href="#Helvetica-30"/>
       <use xlink:href="#Helvetica-2e" x="55.615234"/>
       <use xlink:href="#Helvetica-32" x="83.398438"/>
       <use xlink:href="#Helvetica-35" x="139.013672"/>
      </g>
     </g>
    </g>
    <g id="ytick_7">
     <g id="line2d_14">
      <g>
       <use xlink:href="#mbe0eb9eb86" x="72" y="98.013088" style="stroke: #000000; stroke-width: 0.8"/>
      </g>
     </g>
     <g id="text_15">
      <!-- 0.30 -->
      <g transform="translate(45.539062 101.599807) scale(0.1 -0.1)">
       <defs>
        <path id="Helvetica-33" d="M 1663 -122 
Q 869 -122 511 314 
Q 153 750 153 1375 
L 741 1375 
Q 778 941 903 744 
Q 1122 391 1694 391 
Q 2138 391 2406 628 
Q 2675 866 2675 1241 
Q 2675 1703 2392 1887 
Q 2109 2072 1606 2072 
Q 1550 2072 1492 2070 
Q 1434 2069 1375 2066 
L 1375 2563 
Q 1463 2553 1522 2550 
Q 1581 2547 1650 2547 
Q 1966 2547 2169 2647 
Q 2525 2822 2525 3272 
Q 2525 3606 2287 3787 
Q 2050 3969 1734 3969 
Q 1172 3969 956 3594 
Q 838 3388 822 3006 
L 266 3006 
Q 266 3506 466 3856 
Q 809 4481 1675 4481 
Q 2359 4481 2734 4176 
Q 3109 3872 3109 3294 
Q 3109 2881 2888 2625 
Q 2750 2466 2531 2375 
Q 2884 2278 3082 2001 
Q 3281 1725 3281 1325 
Q 3281 684 2859 281 
Q 2438 -122 1663 -122 
z
" transform="scale(0.015625)"/>
       </defs>
       <use xlink:href="#Helvetica-30"/>
       <use xlink:href="#Helvetica-2e" x="55.615234"/>
       <use xlink:href="#Helvetica-33" x="83.398438"/>
       <use xlink:href="#Helvetica-30" x="139.013672"/>
      </g>
     </g>
    </g>
    <g id="text_16">
     <!-- Density -->
     <g transform="translate(39.395312 234.831875) rotate(-90) scale(0.1 -0.1)">
      <defs>
       <path id="Helvetica-44" d="M 2250 531 
Q 2566 531 2769 597 
Q 3131 719 3363 1066 
Q 3547 1344 3628 1778 
Q 3675 2038 3675 2259 
Q 3675 3113 3336 3584 
Q 2997 4056 2244 4056 
L 1141 4056 
L 1141 531 
L 2250 531 
z
M 516 4591 
L 2375 4591 
Q 3322 4591 3844 3919 
Q 4309 3313 4309 2366 
Q 4309 1634 4034 1044 
Q 3550 0 2369 0 
L 516 0 
L 516 4591 
z
" transform="scale(0.015625)"/>
       <path id="Helvetica-73" d="M 747 1050 
Q 772 769 888 619 
Q 1100 347 1625 347 
Q 1938 347 2175 483 
Q 2413 619 2413 903 
Q 2413 1119 2222 1231 
Q 2100 1300 1741 1391 
L 1294 1503 
Q 866 1609 663 1741 
Q 300 1969 300 2372 
Q 300 2847 642 3140 
Q 984 3434 1563 3434 
Q 2319 3434 2653 2991 
Q 2863 2709 2856 2384 
L 2325 2384 
Q 2309 2575 2191 2731 
Q 1997 2953 1519 2953 
Q 1200 2953 1036 2831 
Q 872 2709 872 2509 
Q 872 2291 1088 2159 
Q 1213 2081 1456 2022 
L 1828 1931 
Q 2434 1784 2641 1647 
Q 2969 1431 2969 969 
Q 2969 522 2630 197 
Q 2291 -128 1597 -128 
Q 850 -128 539 211 
Q 228 550 206 1050 
L 747 1050 
z
M 1578 3428 
L 1578 3428 
z
" transform="scale(0.015625)"/>
       <path id="Helvetica-69" d="M 413 3331 
L 984 3331 
L 984 0 
L 413 0 
L 413 3331 
z
M 413 4591 
L 984 4591 
L 984 3953 
L 413 3953 
L 413 4591 
z
" transform="scale(0.015625)"/>
       <path id="Helvetica-79" d="M 2503 3347 
L 3125 3347 
Q 3006 3025 2597 1878 
Q 2291 1016 2084 472 
Q 1597 -809 1397 -1090 
Q 1197 -1372 709 -1372 
Q 591 -1372 527 -1362 
Q 463 -1353 369 -1328 
L 369 -816 
Q 516 -856 581 -865 
Q 647 -875 697 -875 
Q 853 -875 926 -823 
Q 1000 -772 1050 -697 
Q 1066 -672 1162 -440 
Q 1259 -209 1303 -97 
L 66 3347 
L 703 3347 
L 1600 622 
L 2503 3347 
z
M 1597 3428 
L 1597 3428 
z
" transform="scale(0.015625)"/>
      </defs>
      <use xlink:href="#Helvetica-44"/>
      <use xlink:href="#Helvetica-65" x="72.216797"/>
      <use xlink:href="#Helvetica-6e" x="127.832031"/>
      <use xlink:href="#Helvetica-73" x="183.447266"/>
      <use xlink:href="#Helvetica-69" x="233.447266"/>
      <use xlink:href="#Helvetica-74" x="255.664062"/>
      <use xlink:href="#Helvetica-79" x="283.447266"/>
     </g>
    </g>
   </g>
   <g id="patch_3">
    <path d="M 72 384.48 
L 72 51.84 
" style="fill: none; stroke: #000000; stroke-width: 0.8; stroke-linejoin: miter; stroke-linecap: square"/>
   </g>
   <g id="patch_4">
    <path d="M 518.4 384.48 
L 518.4 51.84 
" style="fill: none; stroke: #000000; stroke-width: 0.8; stroke-linejoin: miter; stroke-linecap: square"/>
   </g>
   <g id="patch_5">
    <path d="M 72 384.48 
L 518.4 384.48 
" style="fill: none; stroke: #000000; stroke-width: 0.8; stroke-linejoin: miter; stroke-linecap: square"/>
   </g>
   <g id="patch_6">
    <path d="M 72 51.84 
L 518.4 51.84 
" style="fill: none; stroke: #000000; stroke-width: 0.8; stroke-linejoin: miter; stroke-linecap: square"/>
   </g>
   <g id="legend_1">
    <g id="patch_7">
     <path d="M 434.373437 88.355625 
L 511.4 88.355625 
Q 513.4 88.355625 513.4 86.355625 
L 513.4 58.84 
Q 513.4 56.84 511.4 56.84 
L 434.373437 56.84 
Q 432.373437 56.84 432.373437 58.84 
L 432.373437 86.355625 
Q 432.373437 88.355625 434.373437 88.355625 
z
" style="fill: #ffffff; opacity: 0.8; stroke: #cccccc; stroke-linejoin: miter"/>
    </g>
    <g id="patch_8">
     <path d="M 436.373437 68.013437 
L 456.373437 68.013437 
L 456.373437 61.013437 
L 436.373437 61.013437 
z
" style="fill: #87ceeb; fill-opacity: 0.25; stroke: #87ceeb; stroke-linejoin: miter"/>
    </g>
    <g id="text_17">
     <!-- Alive -->
     <g transform="translate(464.373437 68.013437) scale(0.1 -0.1)">
      <defs>
       <path id="Helvetica-41" d="M 2844 1881 
L 2147 3909 
L 1406 1881 
L 2844 1881 
z
M 1822 4591 
L 2525 4591 
L 4191 0 
L 3509 0 
L 3044 1375 
L 1228 1375 
L 731 0 
L 94 0 
L 1822 4591 
z
" transform="scale(0.015625)"/>
       <path id="Helvetica-6c" d="M 428 4591 
L 991 4591 
L 991 0 
L 428 0 
L 428 4591 
z
" transform="scale(0.015625)"/>
       <path id="Helvetica-76" d="M 688 3347 
L 1581 622 
L 2516 3347 
L 3131 3347 
L 1869 0 
L 1269 0 
L 34 3347 
L 688 3347 
z
" transform="scale(0.015625)"/>
      </defs>
      <use xlink:href="#Helvetica-41"/>
      <use xlink:href="#Helvetica-6c" x="66.699219"/>
      <use xlink:href="#Helvetica-69" x="88.916016"/>
      <use xlink:href="#Helvetica-76" x="111.132812"/>
      <use xlink:href="#Helvetica-65" x="161.132812"/>
     </g>
    </g>
    <g id="patch_9">
     <path d="M 436.373437 82.27125 
L 456.373437 82.27125 
L 456.373437 75.27125 
L 436.373437 75.27125 
z
" style="fill: #fa8072; fill-opacity: 0.25; stroke: #fa8072; stroke-linejoin: miter"/>
    </g>
    <g id="text_18">
     <!-- Deceased -->
     <g transform="translate(464.373437 82.27125) scale(0.1 -0.1)">
      <defs>
       <path id="Helvetica-63" d="M 1703 3444 
Q 2269 3444 2623 3169 
Q 2978 2894 3050 2222 
L 2503 2222 
Q 2453 2531 2275 2736 
Q 2097 2941 1703 2941 
Q 1166 2941 934 2416 
Q 784 2075 784 1575 
Q 784 1072 996 728 
Q 1209 384 1666 384 
Q 2016 384 2220 598 
Q 2425 813 2503 1184 
L 3050 1184 
Q 2956 519 2581 211 
Q 2206 -97 1622 -97 
Q 966 -97 575 383 
Q 184 863 184 1581 
Q 184 2463 612 2953 
Q 1041 3444 1703 3444 
z
M 1616 3428 
L 1616 3428 
z
" transform="scale(0.015625)"/>
       <path id="Helvetica-61" d="M 844 891 
Q 844 647 1022 506 
Q 1200 366 1444 366 
Q 1741 366 2019 503 
Q 2488 731 2488 1250 
L 2488 1703 
Q 2384 1638 2221 1594 
Q 2059 1550 1903 1531 
L 1563 1488 
Q 1256 1447 1103 1359 
Q 844 1213 844 891 
z
M 2206 2028 
Q 2400 2053 2466 2191 
Q 2503 2266 2503 2406 
Q 2503 2694 2298 2823 
Q 2094 2953 1713 2953 
Q 1272 2953 1088 2716 
Q 984 2584 953 2325 
L 428 2325 
Q 444 2944 830 3186 
Q 1216 3428 1725 3428 
Q 2316 3428 2684 3203 
Q 3050 2978 3050 2503 
L 3050 575 
Q 3050 488 3086 434 
Q 3122 381 3238 381 
Q 3275 381 3322 386 
Q 3369 391 3422 400 
L 3422 -16 
Q 3291 -53 3222 -62 
Q 3153 -72 3034 -72 
Q 2744 -72 2613 134 
Q 2544 244 2516 444 
Q 2344 219 2022 53 
Q 1700 -113 1313 -113 
Q 847 -113 551 170 
Q 256 453 256 878 
Q 256 1344 547 1600 
Q 838 1856 1309 1916 
L 2206 2028 
z
M 1741 3428 
L 1741 3428 
z
" transform="scale(0.015625)"/>
       <path id="Helvetica-64" d="M 769 1634 
Q 769 1097 997 734 
Q 1225 372 1728 372 
Q 2119 372 2370 708 
Q 2622 1044 2622 1672 
Q 2622 2306 2362 2611 
Q 2103 2916 1722 2916 
Q 1297 2916 1033 2591 
Q 769 2266 769 1634 
z
M 1616 3406 
Q 2000 3406 2259 3244 
Q 2409 3150 2600 2916 
L 2600 4606 
L 3141 4606 
L 3141 0 
L 2634 0 
L 2634 466 
Q 2438 156 2169 18 
Q 1900 -119 1553 -119 
Q 994 -119 584 351 
Q 175 822 175 1603 
Q 175 2334 548 2870 
Q 922 3406 1616 3406 
z
" transform="scale(0.015625)"/>
      </defs>
      <use xlink:href="#Helvetica-44"/>
      <use xlink:href="#Helvetica-65" x="72.216797"/>
      <use xlink:href="#Helvetica-63" x="127.832031"/>
      <use xlink:href="#Helvetica-65" x="177.832031"/>
      <use xlink:href="#Helvetica-61" x="233.447266"/>
      <use xlink:href="#Helvetica-73" x="289.0625"/>
      <use xlink:href="#Helvetica-65" x="339.0625"/>
      <use xlink:href="#Helvetica-64" x="394.677734"/>
     </g>
    </g>
   </g>
  </g>
 </g>
 <defs>
  <clipPath id="p1eef5dc2e3">
   <rect x="72" y="51.84" width="446.4" height="332.64"/>
  </clipPath>
 </defs>
</svg>
