<?xml version="1.0" encoding="utf-8" standalone="no"?>
<!DOCTYPE svg PUBLIC "-//W3C//DTD SVG 1.1//EN"
  "http://www.w3.org/Graphics/SVG/1.1/DTD/svg11.dtd">
<svg xmlns:xlink="http://www.w3.org/1999/xlink" width="1225.229322pt" height="696.96pt" viewBox="0 0 1225.229322 696.96" xmlns="http://www.w3.org/2000/svg" version="1.1">
 <metadata>
  <rdf:RDF xmlns:dc="http://purl.org/dc/elements/1.1/" xmlns:cc="http://creativecommons.org/ns#" xmlns:rdf="http://www.w3.org/1999/02/22-rdf-syntax-ns#">
   <cc:Work>
    <dc:type rdf:resource="http://purl.org/dc/dcmitype/StillImage"/>
    <dc:date>2023-11-30T15:27:21.900432</dc:date>
    <dc:format>image/svg+xml</dc:format>
    <dc:creator>
     <cc:Agent>
      <dc:title>Matplotlib v3.7.2, https://matplotlib.org/</dc:title>
     </cc:Agent>
    </dc:creator>
   </cc:Work>
  </rdf:RDF>
 </metadata>
 <defs>
  <style type="text/css">*{stroke-linejoin: round; stroke-linecap: butt}</style>
 </defs>
 <g id="figure_1">
  <g id="patch_1">
   <path d="M 0 696.96 
L 1225.229322 696.96 
L 1225.229322 0 
L 0 0 
z
" style="fill: #ffffff"/>
  </g>
  <g id="axes_1">
   <g id="patch_2">
    <path d="M 891.939758 345.67145 
C 891.939758 295.495183 876.760891 246.473502 848.406603 205.076739 
C 820.052314 163.679976 779.827502 131.813257 733.041408 113.682647 
L 643.140793 345.67145 
z
" style="fill: #f1a811"/>
   </g>
   <g id="patch_3">
    <path d="M 729.261849 111.529236 
C 705.693711 102.396079 680.870818 96.907513 655.649129 95.252799 
C 630.42744 93.598084 605.10023 95.796461 580.540851 101.772124 
L 639.361235 343.518039 
z
" style="fill: #f1a811"/>
   </g>
   <g id="patch_4">
    <path d="M 577.702799 102.442228 
C 554.246904 108.149397 531.74601 117.240088 510.908476 129.428113 
C 490.070942 141.616139 471.117753 156.772244 454.645581 174.419292 
L 636.523183 344.188143 
z
" style="fill: #f1a811"/>
   </g>
   <g id="patch_5">
    <path d="M 453.139693 175.779432 
C 446.340709 183.063352 439.985426 190.749133 434.108191 198.795235 
C 428.230956 206.841338 422.842375 215.233242 417.971572 223.925591 
L 635.017295 345.548283 
z
" style="fill: #f1a811"/>
   </g>
   <g id="patch_6">
    <path d="M 417.421516 224.887946 
C 413.240159 232.349923 409.446393 240.022569 406.055336 247.875312 
C 402.664278 255.728055 399.680439 263.750453 397.115706 271.910538 
L 634.467239 346.510637 
z
" style="fill: #f1a811"/>
   </g>
   <g id="patch_7">
    <path d="M 396.822273 272.822808 
C 394.589671 279.92617 392.677074 287.126178 391.090258 294.401085 
C 389.503442 301.675993 388.244006 309.018469 387.315755 316.406339 
L 634.173806 347.422907 
z
" style="fill: #f1a811"/>
   </g>
   <g id="patch_8">
    <path d="M 387.20455 317.291056 
C 386.277315 324.670834 385.681472 332.088482 385.418817 339.521645 
C 385.156162 346.954808 385.226958 354.396012 385.630993 361.822832 
L 634.062601 348.307624 
z
" style="fill: #f1a811"/>
   </g>
   <g id="patch_9">
    <path d="M 385.668176 362.630464 
C 385.997028 368.675287 386.546393 374.706095 387.315175 380.710844 
C 388.083957 386.715593 389.071644 392.690283 390.276263 398.622983 
L 634.099785 349.115256 
z
" style="fill: #f1a811"/>
   </g>
   <g id="patch_10">
    <path d="M 390.416435 399.318985 
C 391.568668 404.993688 392.918659 410.626436 394.463939 416.206938 
C 396.00922 421.78744 397.748849 427.312295 399.679648 432.771407 
L 634.239957 349.811257 
z
" style="fill: #f1a811"/>
   </g>
   <g id="patch_11">
    <path d="M 399.882665 433.359032 
C 401.409467 437.675889 403.05515 441.949775 404.817832 446.175806 
C 406.580514 450.401836 408.459525 454.5784 410.452716 458.700726 
L 634.442974 350.398882 
z
" style="fill: #f1a811"/>
   </g>
   <g id="patch_12">
    <path d="M 410.717092 459.240322 
C 413.086277 464.140279 415.61561 468.961176 418.301007 473.695229 
C 420.986404 478.429282 423.82642 483.073943 426.816469 487.621713 
L 634.70735 350.938479 
z
" style="fill: #1985de"/>
   </g>
   <g id="patch_13">
    <path d="M 427.209484 488.21211 
C 430.719637 493.550941 434.434146 498.752576 438.34475 503.805443 
C 442.255354 508.85831 446.359151 513.758661 450.647011 518.495595 
L 635.100365 351.528875 
z
" style="fill: #1985de"/>
   </g>
   <g id="patch_14">
    <path d="M 451.201991 519.101785 
C 456.118418 524.533116 461.272341 529.744648 466.64869 534.721143 
C 472.025038 539.697638 477.618568 544.434241 483.412924 548.917104 
L 635.655344 352.135065 
z
" style="fill: #1985de"/>
   </g>
   <g id="patch_15">
    <path d="M 484.142504 549.476669 
C 490.488027 554.385947 497.067297 558.985422 503.85725 563.25897 
C 510.647204 567.532517 517.639895 571.475136 524.810808 575.073006 
L 636.384924 352.694631 
z
" style="fill: #1985de"/>
   </g>
   <g id="patch_16">
    <path d="M 525.674125 575.505657 
C 532.91398 579.138116 540.326907 582.414852 547.886416 585.324158 
C 555.445926 588.233463 563.143003 590.771867 570.950142 592.930299 
L 637.248241 353.127281 
z
" style="fill: #1985de"/>
   </g>
   <g id="patch_17">
    <path d="M 571.972959 593.203274 
C 581.207839 595.756432 590.582497 597.774003 600.05008 599.245903 
C 609.517663 600.717803 619.062371 601.641577 628.6365 602.012606 
L 638.271058 353.400257 
z
" style="fill: #1985de"/>
   </g>
   <g id="patch_18">
    <path d="M 629.81632 602.054303 
C 639.955592 602.447234 650.109413 602.219525 660.220877 601.372452 
C 670.332341 600.52538 680.382523 599.060529 690.315096 596.98611 
L 639.450877 353.441954 
z
" style="fill: #1985de"/>
   </g>
   <g id="patch_19">
    <path d="M 691.633799 596.691539 
C 703.822748 594.145876 715.803407 590.688749 727.474745 586.349311 
C 739.146083 582.009873 750.475199 576.800357 761.366556 570.764695 
L 640.76958 353.147382 
z
" style="fill: #1985de"/>
   </g>
   <g id="patch_20">
    <path d="M 762.856992 569.890473 
C 777.30012 561.886526 790.910613 552.46455 803.487005 541.764013 
C 816.063397 531.063477 827.543327 519.137439 837.756863 506.162433 
L 642.260017 352.273161 
z
" style="fill: #1985de"/>
   </g>
   <g id="patch_21">
    <path d="M 839.234245 504.001206 
C 856.377743 482.222561 869.762095 457.731498 878.833465 431.54144 
C 887.904835 405.351382 892.536351 377.828626 892.536364 350.112045 
L 643.737399 350.111934 
z
" style="fill: #1985de"/>
   </g>
   <g id="matplotlib.axis_1"/>
   <g id="matplotlib.axis_2"/>
   <g id="text_1">
    <!-- D-dimer Conc (ng/mL) -->
    <g transform="translate(868.933183 195.674768) scale(0.18 -0.18)">
     <defs>
      <path id="Arial-BoldMT-44" d="M 463 4581 
L 2153 4581 
Q 2725 4581 3025 4494 
Q 3428 4375 3715 4072 
Q 4003 3769 4153 3330 
Q 4303 2891 4303 2247 
Q 4303 1681 4163 1272 
Q 3991 772 3672 463 
Q 3431 228 3022 97 
Q 2716 0 2203 0 
L 463 0 
L 463 4581 
z
M 1388 3806 
L 1388 772 
L 2078 772 
Q 2466 772 2638 816 
Q 2863 872 3011 1006 
Q 3159 1141 3253 1448 
Q 3347 1756 3347 2288 
Q 3347 2819 3253 3103 
Q 3159 3388 2990 3547 
Q 2822 3706 2563 3763 
Q 2369 3806 1803 3806 
L 1388 3806 
z
" transform="scale(0.015625)"/>
      <path id="Arial-BoldMT-2d" d="M 359 1222 
L 359 2100 
L 2084 2100 
L 2084 1222 
L 359 1222 
z
" transform="scale(0.015625)"/>
      <path id="Arial-BoldMT-64" d="M 3503 0 
L 2688 0 
L 2688 488 
Q 2484 203 2207 64 
Q 1931 -75 1650 -75 
Q 1078 -75 670 386 
Q 263 847 263 1672 
Q 263 2516 659 2955 
Q 1056 3394 1663 3394 
Q 2219 3394 2625 2931 
L 2625 4581 
L 3503 4581 
L 3503 0 
z
M 1159 1731 
Q 1159 1200 1306 963 
Q 1519 619 1900 619 
Q 2203 619 2415 876 
Q 2628 1134 2628 1647 
Q 2628 2219 2422 2470 
Q 2216 2722 1894 2722 
Q 1581 2722 1370 2473 
Q 1159 2225 1159 1731 
z
" transform="scale(0.015625)"/>
      <path id="Arial-BoldMT-69" d="M 459 3769 
L 459 4581 
L 1338 4581 
L 1338 3769 
L 459 3769 
z
M 459 0 
L 459 3319 
L 1338 3319 
L 1338 0 
L 459 0 
z
" transform="scale(0.015625)"/>
      <path id="Arial-BoldMT-6d" d="M 394 3319 
L 1203 3319 
L 1203 2866 
Q 1638 3394 2238 3394 
Q 2556 3394 2790 3262 
Q 3025 3131 3175 2866 
Q 3394 3131 3647 3262 
Q 3900 3394 4188 3394 
Q 4553 3394 4806 3245 
Q 5059 3097 5184 2809 
Q 5275 2597 5275 2122 
L 5275 0 
L 4397 0 
L 4397 1897 
Q 4397 2391 4306 2534 
Q 4184 2722 3931 2722 
Q 3747 2722 3584 2609 
Q 3422 2497 3350 2280 
Q 3278 2063 3278 1594 
L 3278 0 
L 2400 0 
L 2400 1819 
Q 2400 2303 2353 2443 
Q 2306 2584 2207 2653 
Q 2109 2722 1941 2722 
Q 1738 2722 1575 2612 
Q 1413 2503 1342 2297 
Q 1272 2091 1272 1613 
L 1272 0 
L 394 0 
L 394 3319 
z
" transform="scale(0.015625)"/>
      <path id="Arial-BoldMT-65" d="M 2381 1056 
L 3256 909 
Q 3088 428 2723 176 
Q 2359 -75 1813 -75 
Q 947 -75 531 491 
Q 203 944 203 1634 
Q 203 2459 634 2926 
Q 1066 3394 1725 3394 
Q 2466 3394 2894 2905 
Q 3322 2416 3303 1406 
L 1103 1406 
Q 1113 1016 1316 798 
Q 1519 581 1822 581 
Q 2028 581 2168 693 
Q 2309 806 2381 1056 
z
M 2431 1944 
Q 2422 2325 2234 2523 
Q 2047 2722 1778 2722 
Q 1491 2722 1303 2513 
Q 1116 2303 1119 1944 
L 2431 1944 
z
" transform="scale(0.015625)"/>
      <path id="Arial-BoldMT-72" d="M 1300 0 
L 422 0 
L 422 3319 
L 1238 3319 
L 1238 2847 
Q 1447 3181 1614 3287 
Q 1781 3394 1994 3394 
Q 2294 3394 2572 3228 
L 2300 2463 
Q 2078 2606 1888 2606 
Q 1703 2606 1575 2504 
Q 1447 2403 1373 2137 
Q 1300 1872 1300 1025 
L 1300 0 
z
" transform="scale(0.015625)"/>
      <path id="Arial-BoldMT-20" transform="scale(0.015625)"/>
      <path id="Arial-BoldMT-43" d="M 3397 1684 
L 4294 1400 
Q 4088 650 3608 286 
Q 3128 -78 2391 -78 
Q 1478 -78 890 545 
Q 303 1169 303 2250 
Q 303 3394 893 4026 
Q 1484 4659 2447 4659 
Q 3288 4659 3813 4163 
Q 4125 3869 4281 3319 
L 3366 3100 
Q 3284 3456 3026 3662 
Q 2769 3869 2400 3869 
Q 1891 3869 1573 3503 
Q 1256 3138 1256 2319 
Q 1256 1450 1568 1081 
Q 1881 713 2381 713 
Q 2750 713 3015 947 
Q 3281 1181 3397 1684 
z
" transform="scale(0.015625)"/>
      <path id="Arial-BoldMT-6f" d="M 256 1706 
Q 256 2144 472 2553 
Q 688 2963 1083 3178 
Q 1478 3394 1966 3394 
Q 2719 3394 3200 2905 
Q 3681 2416 3681 1669 
Q 3681 916 3195 420 
Q 2709 -75 1972 -75 
Q 1516 -75 1102 131 
Q 688 338 472 736 
Q 256 1134 256 1706 
z
M 1156 1659 
Q 1156 1166 1390 903 
Q 1625 641 1969 641 
Q 2313 641 2545 903 
Q 2778 1166 2778 1666 
Q 2778 2153 2545 2415 
Q 2313 2678 1969 2678 
Q 1625 2678 1390 2415 
Q 1156 2153 1156 1659 
z
" transform="scale(0.015625)"/>
      <path id="Arial-BoldMT-6e" d="M 3478 0 
L 2600 0 
L 2600 1694 
Q 2600 2231 2544 2389 
Q 2488 2547 2361 2634 
Q 2234 2722 2056 2722 
Q 1828 2722 1647 2597 
Q 1466 2472 1398 2265 
Q 1331 2059 1331 1503 
L 1331 0 
L 453 0 
L 453 3319 
L 1269 3319 
L 1269 2831 
Q 1703 3394 2363 3394 
Q 2653 3394 2893 3289 
Q 3134 3184 3257 3021 
Q 3381 2859 3429 2653 
Q 3478 2447 3478 2063 
L 3478 0 
z
" transform="scale(0.015625)"/>
      <path id="Arial-BoldMT-63" d="M 3353 2338 
L 2488 2181 
Q 2444 2441 2289 2572 
Q 2134 2703 1888 2703 
Q 1559 2703 1364 2476 
Q 1169 2250 1169 1719 
Q 1169 1128 1367 884 
Q 1566 641 1900 641 
Q 2150 641 2309 783 
Q 2469 925 2534 1272 
L 3397 1125 
Q 3263 531 2881 228 
Q 2500 -75 1859 -75 
Q 1131 -75 698 384 
Q 266 844 266 1656 
Q 266 2478 700 2936 
Q 1134 3394 1875 3394 
Q 2481 3394 2839 3133 
Q 3197 2872 3353 2338 
z
" transform="scale(0.015625)"/>
      <path id="Arial-BoldMT-28" d="M 1916 -1347 
L 1313 -1347 
Q 834 -625 584 153 
Q 334 931 334 1659 
Q 334 2563 644 3369 
Q 913 4069 1325 4659 
L 1925 4659 
Q 1497 3713 1336 3048 
Q 1175 2384 1175 1641 
Q 1175 1128 1270 590 
Q 1366 53 1531 -431 
Q 1641 -750 1916 -1347 
z
" transform="scale(0.015625)"/>
      <path id="Arial-BoldMT-67" d="M 378 -219 
L 1381 -341 
Q 1406 -516 1497 -581 
Q 1622 -675 1891 -675 
Q 2234 -675 2406 -572 
Q 2522 -503 2581 -350 
Q 2622 -241 2622 53 
L 2622 538 
Q 2228 0 1628 0 
Q 959 0 569 566 
Q 263 1013 263 1678 
Q 263 2513 664 2953 
Q 1066 3394 1663 3394 
Q 2278 3394 2678 2853 
L 2678 3319 
L 3500 3319 
L 3500 341 
Q 3500 -247 3403 -537 
Q 3306 -828 3131 -993 
Q 2956 -1159 2664 -1253 
Q 2372 -1347 1925 -1347 
Q 1081 -1347 728 -1058 
Q 375 -769 375 -325 
Q 375 -281 378 -219 
z
M 1163 1728 
Q 1163 1200 1367 954 
Q 1572 709 1872 709 
Q 2194 709 2416 961 
Q 2638 1213 2638 1706 
Q 2638 2222 2425 2472 
Q 2213 2722 1888 2722 
Q 1572 2722 1367 2476 
Q 1163 2231 1163 1728 
z
" transform="scale(0.015625)"/>
      <path id="Arial-BoldMT-2f" d="M -9 -78 
L 1125 4659 
L 1784 4659 
L 638 -78 
L -9 -78 
z
" transform="scale(0.015625)"/>
      <path id="Arial-BoldMT-4c" d="M 491 0 
L 491 4544 
L 1416 4544 
L 1416 772 
L 3716 772 
L 3716 0 
L 491 0 
z
" transform="scale(0.015625)"/>
      <path id="Arial-BoldMT-29" d="M 216 -1347 
Q 475 -791 581 -494 
Q 688 -197 778 190 
Q 869 578 912 926 
Q 956 1275 956 1641 
Q 956 2384 797 3048 
Q 638 3713 209 4659 
L 806 4659 
Q 1278 3988 1539 3234 
Q 1800 2481 1800 1706 
Q 1800 1053 1594 306 
Q 1359 -531 822 -1347 
L 216 -1347 
z
" transform="scale(0.015625)"/>
     </defs>
     <use xlink:href="#Arial-BoldMT-44"/>
     <use xlink:href="#Arial-BoldMT-2d" x="72.216797"/>
     <use xlink:href="#Arial-BoldMT-64" x="105.517578"/>
     <use xlink:href="#Arial-BoldMT-69" x="166.601562"/>
     <use xlink:href="#Arial-BoldMT-6d" x="194.384766"/>
     <use xlink:href="#Arial-BoldMT-65" x="283.300781"/>
     <use xlink:href="#Arial-BoldMT-72" x="338.916016"/>
     <use xlink:href="#Arial-BoldMT-20" x="377.832031"/>
     <use xlink:href="#Arial-BoldMT-43" x="405.615234"/>
     <use xlink:href="#Arial-BoldMT-6f" x="477.832031"/>
     <use xlink:href="#Arial-BoldMT-6e" x="538.916016"/>
     <use xlink:href="#Arial-BoldMT-63" x="600"/>
     <use xlink:href="#Arial-BoldMT-20" x="655.615234"/>
     <use xlink:href="#Arial-BoldMT-28" x="683.398438"/>
     <use xlink:href="#Arial-BoldMT-6e" x="716.699219"/>
     <use xlink:href="#Arial-BoldMT-67" x="777.783203"/>
     <use xlink:href="#Arial-BoldMT-2f" x="838.867188"/>
     <use xlink:href="#Arial-BoldMT-6d" x="866.650391"/>
     <use xlink:href="#Arial-BoldMT-4c" x="955.566406"/>
     <use xlink:href="#Arial-BoldMT-29" x="1016.650391"/>
    </g>
   </g>
   <g id="text_2">
    <!-- 19% -->
    <g transform="translate(789.340784 237.861619) scale(0.18 -0.18)">
     <defs>
      <path id="Arial-BoldMT-31" d="M 2519 0 
L 1641 0 
L 1641 3309 
Q 1159 2859 506 2644 
L 506 3441 
Q 850 3553 1253 3867 
Q 1656 4181 1806 4600 
L 2519 4600 
L 2519 0 
z
" transform="scale(0.015625)"/>
      <path id="Arial-BoldMT-39" d="M 291 1059 
L 1141 1153 
Q 1172 894 1303 769 
Q 1434 644 1650 644 
Q 1922 644 2112 894 
Q 2303 1144 2356 1931 
Q 2025 1547 1528 1547 
Q 988 1547 595 1964 
Q 203 2381 203 3050 
Q 203 3747 617 4173 
Q 1031 4600 1672 4600 
Q 2369 4600 2816 4061 
Q 3263 3522 3263 2288 
Q 3263 1031 2797 475 
Q 2331 -81 1584 -81 
Q 1047 -81 715 205 
Q 384 491 291 1059 
z
M 2278 2978 
Q 2278 3403 2083 3637 
Q 1888 3872 1631 3872 
Q 1388 3872 1227 3680 
Q 1066 3488 1066 3050 
Q 1066 2606 1241 2398 
Q 1416 2191 1678 2191 
Q 1931 2191 2104 2391 
Q 2278 2591 2278 2978 
z
" transform="scale(0.015625)"/>
      <path id="Arial-BoldMT-25" d="M 278 3450 
Q 278 4066 548 4362 
Q 819 4659 1281 4659 
Q 1759 4659 2029 4364 
Q 2300 4069 2300 3450 
Q 2300 2834 2029 2537 
Q 1759 2241 1297 2241 
Q 819 2241 548 2536 
Q 278 2831 278 3450 
z
M 963 3456 
Q 963 3009 1066 2856 
Q 1144 2744 1281 2744 
Q 1422 2744 1500 2856 
Q 1600 3009 1600 3456 
Q 1600 3903 1500 4053 
Q 1422 4169 1281 4169 
Q 1144 4169 1066 4056 
Q 963 3903 963 3456 
z
M 1950 -175 
L 1300 -175 
L 3741 4659 
L 4372 4659 
L 1950 -175 
z
M 3369 1028 
Q 3369 1644 3639 1941 
Q 3909 2238 4378 2238 
Q 4850 2238 5120 1941 
Q 5391 1644 5391 1028 
Q 5391 409 5120 112 
Q 4850 -184 4388 -184 
Q 3909 -184 3639 112 
Q 3369 409 3369 1028 
z
M 4053 1031 
Q 4053 584 4156 434 
Q 4234 319 4372 319 
Q 4513 319 4588 431 
Q 4691 584 4691 1031 
Q 4691 1478 4591 1631 
Q 4513 1744 4372 1744 
Q 4231 1744 4156 1631 
Q 4053 1478 4053 1031 
z
" transform="scale(0.015625)"/>
     </defs>
     <use xlink:href="#Arial-BoldMT-31"/>
     <use xlink:href="#Arial-BoldMT-39" x="55.615234"/>
     <use xlink:href="#Arial-BoldMT-25" x="111.230469"/>
    </g>
   </g>
   <g id="text_3">
    <!-- Polymerization Rate (Pa/s) -->
    <g transform="translate(657.277918 75.083775) scale(0.18 -0.18)">
     <defs>
      <path id="Arial-BoldMT-50" d="M 466 0 
L 466 4581 
L 1950 4581 
Q 2794 4581 3050 4513 
Q 3444 4409 3709 4064 
Q 3975 3719 3975 3172 
Q 3975 2750 3822 2462 
Q 3669 2175 3433 2011 
Q 3197 1847 2953 1794 
Q 2622 1728 1994 1728 
L 1391 1728 
L 1391 0 
L 466 0 
z
M 1391 3806 
L 1391 2506 
L 1897 2506 
Q 2444 2506 2628 2578 
Q 2813 2650 2917 2803 
Q 3022 2956 3022 3159 
Q 3022 3409 2875 3571 
Q 2728 3734 2503 3775 
Q 2338 3806 1838 3806 
L 1391 3806 
z
" transform="scale(0.015625)"/>
      <path id="Arial-BoldMT-6c" d="M 459 0 
L 459 4581 
L 1338 4581 
L 1338 0 
L 459 0 
z
" transform="scale(0.015625)"/>
      <path id="Arial-BoldMT-79" d="M 44 3319 
L 978 3319 
L 1772 963 
L 2547 3319 
L 3456 3319 
L 2284 125 
L 2075 -453 
Q 1959 -744 1854 -897 
Q 1750 -1050 1614 -1145 
Q 1478 -1241 1279 -1294 
Q 1081 -1347 831 -1347 
Q 578 -1347 334 -1294 
L 256 -606 
Q 463 -647 628 -647 
Q 934 -647 1081 -467 
Q 1228 -288 1306 -9 
L 44 3319 
z
" transform="scale(0.015625)"/>
      <path id="Arial-BoldMT-7a" d="M 106 0 
L 106 684 
L 1350 2113 
Q 1656 2463 1803 2609 
Q 1650 2600 1400 2597 
L 228 2591 
L 228 3319 
L 2972 3319 
L 2972 2697 
L 1703 1234 
L 1256 750 
Q 1622 772 1709 772 
L 3069 772 
L 3069 0 
L 106 0 
z
" transform="scale(0.015625)"/>
      <path id="Arial-BoldMT-61" d="M 1116 2306 
L 319 2450 
Q 453 2931 781 3162 
Q 1109 3394 1756 3394 
Q 2344 3394 2631 3255 
Q 2919 3116 3036 2902 
Q 3153 2688 3153 2116 
L 3144 1091 
Q 3144 653 3186 445 
Q 3228 238 3344 0 
L 2475 0 
Q 2441 88 2391 259 
Q 2369 338 2359 363 
Q 2134 144 1878 34 
Q 1622 -75 1331 -75 
Q 819 -75 523 203 
Q 228 481 228 906 
Q 228 1188 362 1408 
Q 497 1628 739 1745 
Q 981 1863 1438 1950 
Q 2053 2066 2291 2166 
L 2291 2253 
Q 2291 2506 2166 2614 
Q 2041 2722 1694 2722 
Q 1459 2722 1328 2630 
Q 1197 2538 1116 2306 
z
M 2291 1594 
Q 2122 1538 1756 1459 
Q 1391 1381 1278 1306 
Q 1106 1184 1106 997 
Q 1106 813 1243 678 
Q 1381 544 1594 544 
Q 1831 544 2047 700 
Q 2206 819 2256 991 
Q 2291 1103 2291 1419 
L 2291 1594 
z
" transform="scale(0.015625)"/>
      <path id="Arial-BoldMT-74" d="M 1981 3319 
L 1981 2619 
L 1381 2619 
L 1381 1281 
Q 1381 875 1398 808 
Q 1416 741 1477 697 
Q 1538 653 1625 653 
Q 1747 653 1978 738 
L 2053 56 
Q 1747 -75 1359 -75 
Q 1122 -75 931 4 
Q 741 84 652 211 
Q 563 338 528 553 
Q 500 706 500 1172 
L 500 2619 
L 97 2619 
L 97 3319 
L 500 3319 
L 500 3978 
L 1381 4491 
L 1381 3319 
L 1981 3319 
z
" transform="scale(0.015625)"/>
      <path id="Arial-BoldMT-52" d="M 469 0 
L 469 4581 
L 2416 4581 
Q 3150 4581 3483 4457 
Q 3816 4334 4016 4018 
Q 4216 3703 4216 3297 
Q 4216 2781 3912 2445 
Q 3609 2109 3006 2022 
Q 3306 1847 3501 1637 
Q 3697 1428 4028 894 
L 4588 0 
L 3481 0 
L 2813 997 
Q 2456 1531 2325 1670 
Q 2194 1809 2047 1861 
Q 1900 1913 1581 1913 
L 1394 1913 
L 1394 0 
L 469 0 
z
M 1394 2644 
L 2078 2644 
Q 2744 2644 2909 2700 
Q 3075 2756 3169 2893 
Q 3263 3031 3263 3238 
Q 3263 3469 3139 3611 
Q 3016 3753 2791 3791 
Q 2678 3806 2116 3806 
L 1394 3806 
L 1394 2644 
z
" transform="scale(0.015625)"/>
      <path id="Arial-BoldMT-73" d="M 150 947 
L 1031 1081 
Q 1088 825 1259 692 
Q 1431 559 1741 559 
Q 2081 559 2253 684 
Q 2369 772 2369 919 
Q 2369 1019 2306 1084 
Q 2241 1147 2013 1200 
Q 950 1434 666 1628 
Q 272 1897 272 2375 
Q 272 2806 612 3100 
Q 953 3394 1669 3394 
Q 2350 3394 2681 3172 
Q 3013 2950 3138 2516 
L 2309 2363 
Q 2256 2556 2107 2659 
Q 1959 2763 1684 2763 
Q 1338 2763 1188 2666 
Q 1088 2597 1088 2488 
Q 1088 2394 1175 2328 
Q 1294 2241 1995 2081 
Q 2697 1922 2975 1691 
Q 3250 1456 3250 1038 
Q 3250 581 2869 253 
Q 2488 -75 1741 -75 
Q 1063 -75 667 200 
Q 272 475 150 947 
z
" transform="scale(0.015625)"/>
     </defs>
     <use xlink:href="#Arial-BoldMT-50"/>
     <use xlink:href="#Arial-BoldMT-6f" x="66.699219"/>
     <use xlink:href="#Arial-BoldMT-6c" x="127.783203"/>
     <use xlink:href="#Arial-BoldMT-79" x="155.566406"/>
     <use xlink:href="#Arial-BoldMT-6d" x="211.181641"/>
     <use xlink:href="#Arial-BoldMT-65" x="300.097656"/>
     <use xlink:href="#Arial-BoldMT-72" x="355.712891"/>
     <use xlink:href="#Arial-BoldMT-69" x="394.628906"/>
     <use xlink:href="#Arial-BoldMT-7a" x="422.412109"/>
     <use xlink:href="#Arial-BoldMT-61" x="472.412109"/>
     <use xlink:href="#Arial-BoldMT-74" x="528.027344"/>
     <use xlink:href="#Arial-BoldMT-69" x="561.328125"/>
     <use xlink:href="#Arial-BoldMT-6f" x="589.111328"/>
     <use xlink:href="#Arial-BoldMT-6e" x="650.195312"/>
     <use xlink:href="#Arial-BoldMT-20" x="711.279297"/>
     <use xlink:href="#Arial-BoldMT-52" x="739.0625"/>
     <use xlink:href="#Arial-BoldMT-61" x="811.279297"/>
     <use xlink:href="#Arial-BoldMT-74" x="866.894531"/>
     <use xlink:href="#Arial-BoldMT-65" x="900.195312"/>
     <use xlink:href="#Arial-BoldMT-20" x="955.810547"/>
     <use xlink:href="#Arial-BoldMT-28" x="983.59375"/>
     <use xlink:href="#Arial-BoldMT-50" x="1016.894531"/>
     <use xlink:href="#Arial-BoldMT-61" x="1083.59375"/>
     <use xlink:href="#Arial-BoldMT-2f" x="1139.208984"/>
     <use xlink:href="#Arial-BoldMT-73" x="1166.992188"/>
     <use xlink:href="#Arial-BoldMT-29" x="1222.607422"/>
    </g>
   </g>
   <g id="text_4">
    <!-- 10% -->
    <g transform="translate(634.378894 149.571784) scale(0.18 -0.18)">
     <defs>
      <path id="Arial-BoldMT-30" d="M 1756 4600 
Q 2422 4600 2797 4125 
Q 3244 3563 3244 2259 
Q 3244 959 2794 391 
Q 2422 -78 1756 -78 
Q 1088 -78 678 436 
Q 269 950 269 2269 
Q 269 3563 719 4131 
Q 1091 4600 1756 4600 
z
M 1756 3872 
Q 1597 3872 1472 3770 
Q 1347 3669 1278 3406 
Q 1188 3066 1188 2259 
Q 1188 1453 1269 1151 
Q 1350 850 1473 750 
Q 1597 650 1756 650 
Q 1916 650 2041 751 
Q 2166 853 2234 1116 
Q 2325 1453 2325 2259 
Q 2325 3066 2244 3367 
Q 2163 3669 2039 3770 
Q 1916 3872 1756 3872 
z
" transform="scale(0.015625)"/>
     </defs>
     <use xlink:href="#Arial-BoldMT-31"/>
     <use xlink:href="#Arial-BoldMT-30" x="55.615234"/>
     <use xlink:href="#Arial-BoldMT-25" x="111.230469"/>
    </g>
   </g>
   <g id="text_5">
    <!-- Fibrinogen (mg/mL) -->
    <g transform="translate(329.37763 112.60961) scale(0.18 -0.18)">
     <defs>
      <path id="Arial-BoldMT-46" d="M 472 0 
L 472 4581 
L 3613 4581 
L 3613 3806 
L 1397 3806 
L 1397 2722 
L 3309 2722 
L 3309 1947 
L 1397 1947 
L 1397 0 
L 472 0 
z
" transform="scale(0.015625)"/>
      <path id="Arial-BoldMT-62" d="M 422 0 
L 422 4581 
L 1300 4581 
L 1300 2931 
Q 1706 3394 2263 3394 
Q 2869 3394 3266 2955 
Q 3663 2516 3663 1694 
Q 3663 844 3258 384 
Q 2853 -75 2275 -75 
Q 1991 -75 1714 67 
Q 1438 209 1238 488 
L 1238 0 
L 422 0 
z
M 1294 1731 
Q 1294 1216 1456 969 
Q 1684 619 2063 619 
Q 2353 619 2558 867 
Q 2763 1116 2763 1650 
Q 2763 2219 2556 2470 
Q 2350 2722 2028 2722 
Q 1713 2722 1503 2476 
Q 1294 2231 1294 1731 
z
" transform="scale(0.015625)"/>
     </defs>
     <use xlink:href="#Arial-BoldMT-46"/>
     <use xlink:href="#Arial-BoldMT-69" x="61.083984"/>
     <use xlink:href="#Arial-BoldMT-62" x="88.867188"/>
     <use xlink:href="#Arial-BoldMT-72" x="149.951172"/>
     <use xlink:href="#Arial-BoldMT-69" x="188.867188"/>
     <use xlink:href="#Arial-BoldMT-6e" x="216.650391"/>
     <use xlink:href="#Arial-BoldMT-6f" x="277.734375"/>
     <use xlink:href="#Arial-BoldMT-67" x="338.818359"/>
     <use xlink:href="#Arial-BoldMT-65" x="399.902344"/>
     <use xlink:href="#Arial-BoldMT-6e" x="455.517578"/>
     <use xlink:href="#Arial-BoldMT-20" x="516.601562"/>
     <use xlink:href="#Arial-BoldMT-28" x="544.384766"/>
     <use xlink:href="#Arial-BoldMT-6d" x="577.685547"/>
     <use xlink:href="#Arial-BoldMT-67" x="666.601562"/>
     <use xlink:href="#Arial-BoldMT-2f" x="727.685547"/>
     <use xlink:href="#Arial-BoldMT-6d" x="755.46875"/>
     <use xlink:href="#Arial-BoldMT-4c" x="844.384766"/>
     <use xlink:href="#Arial-BoldMT-29" x="905.46875"/>
    </g>
   </g>
   <g id="text_6">
    <!-- 9% -->
    <g transform="translate(523.023605 177.046057) scale(0.18 -0.18)">
     <use xlink:href="#Arial-BoldMT-39"/>
     <use xlink:href="#Arial-BoldMT-25" x="55.615234"/>
    </g>
   </g>
   <g id="text_7">
    <!-- Max Stiffness (Pa) -->
    <g transform="translate(258.989468 188.777431) scale(0.18 -0.18)">
     <defs>
      <path id="Arial-BoldMT-4d" d="M 453 0 
L 453 4581 
L 1838 4581 
L 2669 1456 
L 3491 4581 
L 4878 4581 
L 4878 0 
L 4019 0 
L 4019 3606 
L 3109 0 
L 2219 0 
L 1313 3606 
L 1313 0 
L 453 0 
z
" transform="scale(0.015625)"/>
      <path id="Arial-BoldMT-78" d="M 38 0 
L 1234 1709 
L 88 3319 
L 1159 3319 
L 1747 2406 
L 2366 3319 
L 3397 3319 
L 2272 1747 
L 3500 0 
L 2422 0 
L 1747 1028 
L 1066 0 
L 38 0 
z
" transform="scale(0.015625)"/>
      <path id="Arial-BoldMT-53" d="M 231 1491 
L 1131 1578 
Q 1213 1125 1461 912 
Q 1709 700 2131 700 
Q 2578 700 2804 889 
Q 3031 1078 3031 1331 
Q 3031 1494 2936 1608 
Q 2841 1722 2603 1806 
Q 2441 1863 1863 2006 
Q 1119 2191 819 2459 
Q 397 2838 397 3381 
Q 397 3731 595 4036 
Q 794 4341 1167 4500 
Q 1541 4659 2069 4659 
Q 2931 4659 3367 4281 
Q 3803 3903 3825 3272 
L 2900 3231 
Q 2841 3584 2645 3739 
Q 2450 3894 2059 3894 
Q 1656 3894 1428 3728 
Q 1281 3622 1281 3444 
Q 1281 3281 1419 3166 
Q 1594 3019 2269 2859 
Q 2944 2700 3267 2529 
Q 3591 2359 3773 2064 
Q 3956 1769 3956 1334 
Q 3956 941 3737 597 
Q 3519 253 3119 86 
Q 2719 -81 2122 -81 
Q 1253 -81 787 320 
Q 322 722 231 1491 
z
" transform="scale(0.015625)"/>
      <path id="Arial-BoldMT-66" d="M 75 3319 
L 563 3319 
L 563 3569 
Q 563 3988 652 4194 
Q 741 4400 980 4529 
Q 1219 4659 1584 4659 
Q 1959 4659 2319 4547 
L 2200 3934 
Q 1991 3984 1797 3984 
Q 1606 3984 1523 3895 
Q 1441 3806 1441 3553 
L 1441 3319 
L 2097 3319 
L 2097 2628 
L 1441 2628 
L 1441 0 
L 563 0 
L 563 2628 
L 75 2628 
L 75 3319 
z
" transform="scale(0.015625)"/>
     </defs>
     <use xlink:href="#Arial-BoldMT-4d"/>
     <use xlink:href="#Arial-BoldMT-61" x="83.300781"/>
     <use xlink:href="#Arial-BoldMT-78" x="138.916016"/>
     <use xlink:href="#Arial-BoldMT-20" x="194.53125"/>
     <use xlink:href="#Arial-BoldMT-53" x="222.314453"/>
     <use xlink:href="#Arial-BoldMT-74" x="289.013672"/>
     <use xlink:href="#Arial-BoldMT-69" x="322.314453"/>
     <use xlink:href="#Arial-BoldMT-66" x="350.097656"/>
     <use xlink:href="#Arial-BoldMT-66" x="383.398438"/>
     <use xlink:href="#Arial-BoldMT-6e" x="416.699219"/>
     <use xlink:href="#Arial-BoldMT-65" x="477.783203"/>
     <use xlink:href="#Arial-BoldMT-73" x="533.398438"/>
     <use xlink:href="#Arial-BoldMT-73" x="589.013672"/>
     <use xlink:href="#Arial-BoldMT-20" x="644.628906"/>
     <use xlink:href="#Arial-BoldMT-28" x="672.412109"/>
     <use xlink:href="#Arial-BoldMT-50" x="705.712891"/>
     <use xlink:href="#Arial-BoldMT-61" x="772.412109"/>
     <use xlink:href="#Arial-BoldMT-29" x="828.027344"/>
    </g>
   </g>
   <g id="text_8">
    <!-- 4% -->
    <g transform="translate(461.282199 232.811782) scale(0.18 -0.18)">
     <defs>
      <path id="Arial-BoldMT-34" d="M 1994 0 
L 1994 922 
L 119 922 
L 119 1691 
L 2106 4600 
L 2844 4600 
L 2844 1694 
L 3413 1694 
L 3413 922 
L 2844 922 
L 2844 0 
L 1994 0 
z
M 1994 1694 
L 1994 3259 
L 941 1694 
L 1994 1694 
z
" transform="scale(0.015625)"/>
     </defs>
     <use xlink:href="#Arial-BoldMT-34"/>
     <use xlink:href="#Arial-BoldMT-25" x="55.615234"/>
    </g>
   </g>
   <g id="text_9">
    <!-- Confocal Area (%) -->
    <g transform="translate(228.875395 242.66928) scale(0.18 -0.18)">
     <defs>
      <path id="Arial-BoldMT-41" d="M 4597 0 
L 3591 0 
L 3191 1041 
L 1359 1041 
L 981 0 
L 0 0 
L 1784 4581 
L 2763 4581 
L 4597 0 
z
M 2894 1813 
L 2263 3513 
L 1644 1813 
L 2894 1813 
z
" transform="scale(0.015625)"/>
     </defs>
     <use xlink:href="#Arial-BoldMT-43"/>
     <use xlink:href="#Arial-BoldMT-6f" x="72.216797"/>
     <use xlink:href="#Arial-BoldMT-6e" x="133.300781"/>
     <use xlink:href="#Arial-BoldMT-66" x="194.384766"/>
     <use xlink:href="#Arial-BoldMT-6f" x="227.685547"/>
     <use xlink:href="#Arial-BoldMT-63" x="288.769531"/>
     <use xlink:href="#Arial-BoldMT-61" x="344.384766"/>
     <use xlink:href="#Arial-BoldMT-6c" x="400"/>
     <use xlink:href="#Arial-BoldMT-20" x="427.783203"/>
     <use xlink:href="#Arial-BoldMT-41" x="451.816406"/>
     <use xlink:href="#Arial-BoldMT-72" x="524.033203"/>
     <use xlink:href="#Arial-BoldMT-65" x="562.949219"/>
     <use xlink:href="#Arial-BoldMT-61" x="618.564453"/>
     <use xlink:href="#Arial-BoldMT-20" x="674.179688"/>
     <use xlink:href="#Arial-BoldMT-28" x="701.962891"/>
     <use xlink:href="#Arial-BoldMT-25" x="735.263672"/>
     <use xlink:href="#Arial-BoldMT-29" x="824.179688"/>
    </g>
   </g>
   <g id="text_10">
    <!-- 3% -->
    <g transform="translate(438.729904 272.268315) scale(0.18 -0.18)">
     <defs>
      <path id="Arial-BoldMT-33" d="M 241 1216 
L 1091 1319 
Q 1131 994 1309 822 
Q 1488 650 1741 650 
Q 2013 650 2198 856 
Q 2384 1063 2384 1413 
Q 2384 1744 2206 1937 
Q 2028 2131 1772 2131 
Q 1603 2131 1369 2066 
L 1466 2781 
Q 1822 2772 2009 2936 
Q 2197 3100 2197 3372 
Q 2197 3603 2059 3740 
Q 1922 3878 1694 3878 
Q 1469 3878 1309 3722 
Q 1150 3566 1116 3266 
L 306 3403 
Q 391 3819 561 4067 
Q 731 4316 1036 4458 
Q 1341 4600 1719 4600 
Q 2366 4600 2756 4188 
Q 3078 3850 3078 3425 
Q 3078 2822 2419 2463 
Q 2813 2378 3048 2084 
Q 3284 1791 3284 1375 
Q 3284 772 2843 347 
Q 2403 -78 1747 -78 
Q 1125 -78 715 280 
Q 306 638 241 1216 
z
" transform="scale(0.015625)"/>
     </defs>
     <use xlink:href="#Arial-BoldMT-33"/>
     <use xlink:href="#Arial-BoldMT-25" x="55.615234"/>
    </g>
   </g>
   <g id="text_11">
    <!-- Confocal Pore Diameter (μm) -->
    <g transform="translate(118.727841 293.756403) scale(0.18 -0.18)">
     <defs>
      <path id="Arial-BoldMT-3bc" d="M 450 3319 
L 1328 3319 
L 1328 1809 
Q 1328 1388 1372 1150 
Q 1416 913 1570 766 
Q 1725 619 1941 619 
Q 2166 619 2330 772 
Q 2494 925 2541 1144 
Q 2588 1363 2588 1800 
L 2588 3319 
L 3466 3319 
L 3466 0 
L 2656 0 
L 2656 400 
Q 2409 -75 1988 -75 
Q 1538 -75 1328 400 
L 1328 -1263 
L 450 -1263 
L 450 3319 
z
" transform="scale(0.015625)"/>
     </defs>
     <use xlink:href="#Arial-BoldMT-43"/>
     <use xlink:href="#Arial-BoldMT-6f" x="72.216797"/>
     <use xlink:href="#Arial-BoldMT-6e" x="133.300781"/>
     <use xlink:href="#Arial-BoldMT-66" x="194.384766"/>
     <use xlink:href="#Arial-BoldMT-6f" x="227.685547"/>
     <use xlink:href="#Arial-BoldMT-63" x="288.769531"/>
     <use xlink:href="#Arial-BoldMT-61" x="344.384766"/>
     <use xlink:href="#Arial-BoldMT-6c" x="400"/>
     <use xlink:href="#Arial-BoldMT-20" x="427.783203"/>
     <use xlink:href="#Arial-BoldMT-50" x="455.566406"/>
     <use xlink:href="#Arial-BoldMT-6f" x="522.265625"/>
     <use xlink:href="#Arial-BoldMT-72" x="583.349609"/>
     <use xlink:href="#Arial-BoldMT-65" x="622.265625"/>
     <use xlink:href="#Arial-BoldMT-20" x="677.880859"/>
     <use xlink:href="#Arial-BoldMT-44" x="705.664062"/>
     <use xlink:href="#Arial-BoldMT-69" x="777.880859"/>
     <use xlink:href="#Arial-BoldMT-61" x="805.664062"/>
     <use xlink:href="#Arial-BoldMT-6d" x="861.279297"/>
     <use xlink:href="#Arial-BoldMT-65" x="950.195312"/>
     <use xlink:href="#Arial-BoldMT-74" x="1005.810547"/>
     <use xlink:href="#Arial-BoldMT-65" x="1039.111328"/>
     <use xlink:href="#Arial-BoldMT-72" x="1094.726562"/>
     <use xlink:href="#Arial-BoldMT-20" x="1133.642578"/>
     <use xlink:href="#Arial-BoldMT-28" x="1161.425781"/>
     <use xlink:href="#Arial-BoldMT-3bc" x="1194.726562"/>
     <use xlink:href="#Arial-BoldMT-6d" x="1255.908203"/>
     <use xlink:href="#Arial-BoldMT-29" x="1344.824219"/>
    </g>
   </g>
   <g id="text_12">
    <!-- 3% -->
    <g transform="translate(426.699155 309.671387) scale(0.18 -0.18)">
     <use xlink:href="#Arial-BoldMT-33"/>
     <use xlink:href="#Arial-BoldMT-25" x="55.615234"/>
    </g>
   </g>
   <g id="text_13">
    <!-- Turbidity T to Half Max (s) -->
    <g transform="translate(140.898188 343.300547) scale(0.18 -0.18)">
     <defs>
      <path id="Arial-BoldMT-54" d="M 1497 0 
L 1497 3806 
L 138 3806 
L 138 4581 
L 3778 4581 
L 3778 3806 
L 2422 3806 
L 2422 0 
L 1497 0 
z
" transform="scale(0.015625)"/>
      <path id="Arial-BoldMT-75" d="M 2644 0 
L 2644 497 
Q 2463 231 2167 78 
Q 1872 -75 1544 -75 
Q 1209 -75 943 72 
Q 678 219 559 484 
Q 441 750 441 1219 
L 441 3319 
L 1319 3319 
L 1319 1794 
Q 1319 1094 1367 936 
Q 1416 778 1544 686 
Q 1672 594 1869 594 
Q 2094 594 2272 717 
Q 2450 841 2515 1023 
Q 2581 1206 2581 1919 
L 2581 3319 
L 3459 3319 
L 3459 0 
L 2644 0 
z
" transform="scale(0.015625)"/>
      <path id="Arial-BoldMT-48" d="M 469 0 
L 469 4581 
L 1394 4581 
L 1394 2778 
L 3206 2778 
L 3206 4581 
L 4131 4581 
L 4131 0 
L 3206 0 
L 3206 2003 
L 1394 2003 
L 1394 0 
L 469 0 
z
" transform="scale(0.015625)"/>
     </defs>
     <use xlink:href="#Arial-BoldMT-54"/>
     <use xlink:href="#Arial-BoldMT-75" x="53.708984"/>
     <use xlink:href="#Arial-BoldMT-72" x="114.792969"/>
     <use xlink:href="#Arial-BoldMT-62" x="153.708984"/>
     <use xlink:href="#Arial-BoldMT-69" x="214.792969"/>
     <use xlink:href="#Arial-BoldMT-64" x="242.576172"/>
     <use xlink:href="#Arial-BoldMT-69" x="303.660156"/>
     <use xlink:href="#Arial-BoldMT-74" x="331.443359"/>
     <use xlink:href="#Arial-BoldMT-79" x="364.744141"/>
     <use xlink:href="#Arial-BoldMT-20" x="420.359375"/>
     <use xlink:href="#Arial-BoldMT-54" x="448.142578"/>
     <use xlink:href="#Arial-BoldMT-20" x="509.226562"/>
     <use xlink:href="#Arial-BoldMT-74" x="537.009766"/>
     <use xlink:href="#Arial-BoldMT-6f" x="570.310547"/>
     <use xlink:href="#Arial-BoldMT-20" x="631.394531"/>
     <use xlink:href="#Arial-BoldMT-48" x="659.177734"/>
     <use xlink:href="#Arial-BoldMT-61" x="731.394531"/>
     <use xlink:href="#Arial-BoldMT-6c" x="787.009766"/>
     <use xlink:href="#Arial-BoldMT-66" x="814.792969"/>
     <use xlink:href="#Arial-BoldMT-20" x="848.09375"/>
     <use xlink:href="#Arial-BoldMT-4d" x="875.876953"/>
     <use xlink:href="#Arial-BoldMT-61" x="959.177734"/>
     <use xlink:href="#Arial-BoldMT-78" x="1014.792969"/>
     <use xlink:href="#Arial-BoldMT-20" x="1070.408203"/>
     <use xlink:href="#Arial-BoldMT-28" x="1098.191406"/>
     <use xlink:href="#Arial-BoldMT-73" x="1131.492188"/>
     <use xlink:href="#Arial-BoldMT-29" x="1187.107422"/>
    </g>
   </g>
   <g id="text_14">
    <!-- 3% -->
    <g transform="translate(422.139761 345.944779) scale(0.18 -0.18)">
     <use xlink:href="#Arial-BoldMT-33"/>
     <use xlink:href="#Arial-BoldMT-25" x="55.615234"/>
    </g>
   </g>
   <g id="text_15">
    <!-- Lysis (%) -->
    <g transform="translate(284.294526 388.527903) scale(0.18 -0.18)">
     <use xlink:href="#Arial-BoldMT-4c"/>
     <use xlink:href="#Arial-BoldMT-79" x="57.333984"/>
     <use xlink:href="#Arial-BoldMT-73" x="112.949219"/>
     <use xlink:href="#Arial-BoldMT-69" x="168.564453"/>
     <use xlink:href="#Arial-BoldMT-73" x="196.347656"/>
     <use xlink:href="#Arial-BoldMT-20" x="251.962891"/>
     <use xlink:href="#Arial-BoldMT-28" x="279.746094"/>
     <use xlink:href="#Arial-BoldMT-25" x="313.046875"/>
     <use xlink:href="#Arial-BoldMT-29" x="401.962891"/>
    </g>
   </g>
   <g id="text_16">
    <!-- 2% -->
    <g transform="translate(423.664284 379.057664) scale(0.18 -0.18)">
     <defs>
      <path id="Arial-BoldMT-32" d="M 3238 816 
L 3238 0 
L 159 0 
Q 209 463 459 877 
Q 709 1291 1447 1975 
Q 2041 2528 2175 2725 
Q 2356 2997 2356 3263 
Q 2356 3556 2198 3714 
Q 2041 3872 1763 3872 
Q 1488 3872 1325 3706 
Q 1163 3541 1138 3156 
L 263 3244 
Q 341 3969 753 4284 
Q 1166 4600 1784 4600 
Q 2463 4600 2850 4234 
Q 3238 3869 3238 3325 
Q 3238 3016 3127 2736 
Q 3016 2456 2775 2150 
Q 2616 1947 2200 1565 
Q 1784 1184 1673 1059 
Q 1563 934 1494 816 
L 3238 816 
z
" transform="scale(0.015625)"/>
     </defs>
     <use xlink:href="#Arial-BoldMT-32"/>
     <use xlink:href="#Arial-BoldMT-25" x="55.615234"/>
    </g>
   </g>
   <g id="text_17">
    <!-- tPA Conc (pg/mL) -->
    <g transform="translate(220.5154 427.504006) scale(0.18 -0.18)">
     <defs>
      <path id="Arial-BoldMT-70" d="M 434 3319 
L 1253 3319 
L 1253 2831 
Q 1413 3081 1684 3237 
Q 1956 3394 2288 3394 
Q 2866 3394 3269 2941 
Q 3672 2488 3672 1678 
Q 3672 847 3265 386 
Q 2859 -75 2281 -75 
Q 2006 -75 1782 34 
Q 1559 144 1313 409 
L 1313 -1263 
L 434 -1263 
L 434 3319 
z
M 1303 1716 
Q 1303 1156 1525 889 
Q 1747 622 2066 622 
Q 2372 622 2575 867 
Q 2778 1113 2778 1672 
Q 2778 2194 2568 2447 
Q 2359 2700 2050 2700 
Q 1728 2700 1515 2451 
Q 1303 2203 1303 1716 
z
" transform="scale(0.015625)"/>
     </defs>
     <use xlink:href="#Arial-BoldMT-74"/>
     <use xlink:href="#Arial-BoldMT-50" x="33.300781"/>
     <use xlink:href="#Arial-BoldMT-41" x="92.625"/>
     <use xlink:href="#Arial-BoldMT-20" x="161.091797"/>
     <use xlink:href="#Arial-BoldMT-43" x="188.875"/>
     <use xlink:href="#Arial-BoldMT-6f" x="261.091797"/>
     <use xlink:href="#Arial-BoldMT-6e" x="322.175781"/>
     <use xlink:href="#Arial-BoldMT-63" x="383.259766"/>
     <use xlink:href="#Arial-BoldMT-20" x="438.875"/>
     <use xlink:href="#Arial-BoldMT-28" x="466.658203"/>
     <use xlink:href="#Arial-BoldMT-70" x="499.958984"/>
     <use xlink:href="#Arial-BoldMT-67" x="561.042969"/>
     <use xlink:href="#Arial-BoldMT-2f" x="622.126953"/>
     <use xlink:href="#Arial-BoldMT-6d" x="649.910156"/>
     <use xlink:href="#Arial-BoldMT-4c" x="738.826172"/>
     <use xlink:href="#Arial-BoldMT-29" x="799.910156"/>
    </g>
   </g>
   <g id="text_18">
    <!-- 2% -->
    <g transform="translate(429.41133 407.593739) scale(0.18 -0.18)">
     <use xlink:href="#Arial-BoldMT-32"/>
     <use xlink:href="#Arial-BoldMT-25" x="55.615234"/>
    </g>
   </g>
   <g id="text_19">
    <!-- Velocity Index -->
    <g transform="translate(261.812193 460.30131) scale(0.18 -0.18)">
     <defs>
      <path id="Arial-BoldMT-56" d="M 1634 0 
L -3 4581 
L 1000 4581 
L 2159 1191 
L 3281 4581 
L 4263 4581 
L 2622 0 
L 1634 0 
z
" transform="scale(0.015625)"/>
      <path id="Arial-BoldMT-49" d="M 438 0 
L 438 4581 
L 1363 4581 
L 1363 0 
L 438 0 
z
" transform="scale(0.015625)"/>
     </defs>
     <use xlink:href="#Arial-BoldMT-56"/>
     <use xlink:href="#Arial-BoldMT-65" x="61.199219"/>
     <use xlink:href="#Arial-BoldMT-6c" x="116.814453"/>
     <use xlink:href="#Arial-BoldMT-6f" x="144.597656"/>
     <use xlink:href="#Arial-BoldMT-63" x="205.681641"/>
     <use xlink:href="#Arial-BoldMT-69" x="261.296875"/>
     <use xlink:href="#Arial-BoldMT-74" x="289.080078"/>
     <use xlink:href="#Arial-BoldMT-79" x="322.380859"/>
     <use xlink:href="#Arial-BoldMT-20" x="377.996094"/>
     <use xlink:href="#Arial-BoldMT-49" x="405.779297"/>
     <use xlink:href="#Arial-BoldMT-6e" x="433.5625"/>
     <use xlink:href="#Arial-BoldMT-64" x="494.646484"/>
     <use xlink:href="#Arial-BoldMT-65" x="555.730469"/>
     <use xlink:href="#Arial-BoldMT-78" x="611.345703"/>
    </g>
   </g>
   <g id="text_20">
    <!-- 2% -->
    <g transform="translate(437.735048 431.686358) scale(0.18 -0.18)">
     <use xlink:href="#Arial-BoldMT-32"/>
     <use xlink:href="#Arial-BoldMT-25" x="55.615234"/>
    </g>
   </g>
   <g id="text_21">
    <!-- Injury Severity Score[ISS] -->
    <g transform="translate(176.582248 490.628404) scale(0.18 -0.18)">
     <defs>
      <path id="Arial-BoldMT-6a" d="M 441 3769 
L 441 4581 
L 1319 4581 
L 1319 3769 
L 441 3769 
z
M 1319 3319 
L 1319 103 
Q 1319 -531 1236 -792 
Q 1153 -1053 917 -1200 
Q 681 -1347 316 -1347 
Q 184 -1347 32 -1323 
Q -119 -1300 -294 -1253 
L -141 -503 
Q -78 -516 -23 -523 
Q 31 -531 78 -531 
Q 213 -531 298 -473 
Q 384 -416 412 -334 
Q 441 -253 441 153 
L 441 3319 
L 1319 3319 
z
" transform="scale(0.015625)"/>
      <path id="Arial-BoldMT-76" d="M 1372 0 
L 34 3319 
L 956 3319 
L 1581 1625 
L 1763 1059 
Q 1834 1275 1853 1344 
Q 1897 1484 1947 1625 
L 2578 3319 
L 3481 3319 
L 2163 0 
L 1372 0 
z
" transform="scale(0.015625)"/>
      <path id="Arial-BoldMT-5b" d="M 456 -1291 
L 456 4581 
L 2013 4581 
L 2013 3891 
L 1291 3891 
L 1291 -600 
L 2013 -600 
L 2013 -1291 
L 456 -1291 
z
" transform="scale(0.015625)"/>
      <path id="Arial-BoldMT-5d" d="M 1675 4581 
L 1675 -1291 
L 119 -1291 
L 119 -600 
L 841 -600 
L 841 3897 
L 119 3897 
L 119 4581 
L 1675 4581 
z
" transform="scale(0.015625)"/>
     </defs>
     <use xlink:href="#Arial-BoldMT-49"/>
     <use xlink:href="#Arial-BoldMT-6e" x="27.783203"/>
     <use xlink:href="#Arial-BoldMT-6a" x="88.867188"/>
     <use xlink:href="#Arial-BoldMT-75" x="116.650391"/>
     <use xlink:href="#Arial-BoldMT-72" x="177.734375"/>
     <use xlink:href="#Arial-BoldMT-79" x="216.650391"/>
     <use xlink:href="#Arial-BoldMT-20" x="272.265625"/>
     <use xlink:href="#Arial-BoldMT-53" x="300.048828"/>
     <use xlink:href="#Arial-BoldMT-65" x="366.748047"/>
     <use xlink:href="#Arial-BoldMT-76" x="422.363281"/>
     <use xlink:href="#Arial-BoldMT-65" x="477.978516"/>
     <use xlink:href="#Arial-BoldMT-72" x="533.59375"/>
     <use xlink:href="#Arial-BoldMT-69" x="572.509766"/>
     <use xlink:href="#Arial-BoldMT-74" x="600.292969"/>
     <use xlink:href="#Arial-BoldMT-79" x="633.59375"/>
     <use xlink:href="#Arial-BoldMT-20" x="689.208984"/>
     <use xlink:href="#Arial-BoldMT-53" x="716.992188"/>
     <use xlink:href="#Arial-BoldMT-63" x="783.691406"/>
     <use xlink:href="#Arial-BoldMT-6f" x="839.306641"/>
     <use xlink:href="#Arial-BoldMT-72" x="900.390625"/>
     <use xlink:href="#Arial-BoldMT-65" x="939.306641"/>
     <use xlink:href="#Arial-BoldMT-5b" x="994.921875"/>
     <use xlink:href="#Arial-BoldMT-49" x="1028.222656"/>
     <use xlink:href="#Arial-BoldMT-53" x="1056.005859"/>
     <use xlink:href="#Arial-BoldMT-53" x="1122.705078"/>
     <use xlink:href="#Arial-BoldMT-5d" x="1189.404297"/>
    </g>
   </g>
   <g id="text_22">
    <!-- 2% -->
    <g transform="translate(448.574463 453.809816) scale(0.18 -0.18)">
     <use xlink:href="#Arial-BoldMT-32"/>
     <use xlink:href="#Arial-BoldMT-25" x="55.615234"/>
    </g>
   </g>
   <g id="text_23">
    <!-- Glasgow Coma Score -->
    <g transform="translate(233.623564 523.6906) scale(0.18 -0.18)">
     <defs>
      <path id="Arial-BoldMT-47" d="M 2597 1684 
L 2597 2456 
L 4591 2456 
L 4591 631 
Q 4300 350 3748 136 
Q 3197 -78 2631 -78 
Q 1913 -78 1378 223 
Q 844 525 575 1086 
Q 306 1647 306 2306 
Q 306 3022 606 3578 
Q 906 4134 1484 4431 
Q 1925 4659 2581 4659 
Q 3434 4659 3914 4301 
Q 4394 3944 4531 3313 
L 3613 3141 
Q 3516 3478 3248 3673 
Q 2981 3869 2581 3869 
Q 1975 3869 1617 3484 
Q 1259 3100 1259 2344 
Q 1259 1528 1621 1120 
Q 1984 713 2572 713 
Q 2863 713 3155 827 
Q 3447 941 3656 1103 
L 3656 1684 
L 2597 1684 
z
" transform="scale(0.015625)"/>
      <path id="Arial-BoldMT-77" d="M 1078 0 
L 28 3319 
L 881 3319 
L 1503 1144 
L 2075 3319 
L 2922 3319 
L 3475 1144 
L 4109 3319 
L 4975 3319 
L 3909 0 
L 3066 0 
L 2494 2134 
L 1931 0 
L 1078 0 
z
" transform="scale(0.015625)"/>
     </defs>
     <use xlink:href="#Arial-BoldMT-47"/>
     <use xlink:href="#Arial-BoldMT-6c" x="77.783203"/>
     <use xlink:href="#Arial-BoldMT-61" x="105.566406"/>
     <use xlink:href="#Arial-BoldMT-73" x="161.181641"/>
     <use xlink:href="#Arial-BoldMT-67" x="216.796875"/>
     <use xlink:href="#Arial-BoldMT-6f" x="277.880859"/>
     <use xlink:href="#Arial-BoldMT-77" x="338.964844"/>
     <use xlink:href="#Arial-BoldMT-20" x="416.748047"/>
     <use xlink:href="#Arial-BoldMT-43" x="444.53125"/>
     <use xlink:href="#Arial-BoldMT-6f" x="516.748047"/>
     <use xlink:href="#Arial-BoldMT-6d" x="577.832031"/>
     <use xlink:href="#Arial-BoldMT-61" x="666.748047"/>
     <use xlink:href="#Arial-BoldMT-20" x="722.363281"/>
     <use xlink:href="#Arial-BoldMT-53" x="750.146484"/>
     <use xlink:href="#Arial-BoldMT-63" x="816.845703"/>
     <use xlink:href="#Arial-BoldMT-6f" x="872.460938"/>
     <use xlink:href="#Arial-BoldMT-72" x="933.544922"/>
     <use xlink:href="#Arial-BoldMT-65" x="972.460938"/>
    </g>
   </g>
   <g id="text_24">
    <!-- 2% -->
    <g transform="translate(464.688061 478.016067) scale(0.18 -0.18)">
     <use xlink:href="#Arial-BoldMT-32"/>
     <use xlink:href="#Arial-BoldMT-25" x="55.615234"/>
    </g>
   </g>
   <g id="text_25">
    <!-- Lactate (mmol/L) -->
    <g transform="translate(305.739587 557.637251) scale(0.18 -0.18)">
     <use xlink:href="#Arial-BoldMT-4c"/>
     <use xlink:href="#Arial-BoldMT-61" x="61.083984"/>
     <use xlink:href="#Arial-BoldMT-63" x="116.699219"/>
     <use xlink:href="#Arial-BoldMT-74" x="172.314453"/>
     <use xlink:href="#Arial-BoldMT-61" x="205.615234"/>
     <use xlink:href="#Arial-BoldMT-74" x="261.230469"/>
     <use xlink:href="#Arial-BoldMT-65" x="294.53125"/>
     <use xlink:href="#Arial-BoldMT-20" x="350.146484"/>
     <use xlink:href="#Arial-BoldMT-28" x="377.929688"/>
     <use xlink:href="#Arial-BoldMT-6d" x="411.230469"/>
     <use xlink:href="#Arial-BoldMT-6d" x="500.146484"/>
     <use xlink:href="#Arial-BoldMT-6f" x="589.0625"/>
     <use xlink:href="#Arial-BoldMT-6c" x="650.146484"/>
     <use xlink:href="#Arial-BoldMT-2f" x="677.929688"/>
     <use xlink:href="#Arial-BoldMT-4c" x="705.712891"/>
     <use xlink:href="#Arial-BoldMT-29" x="766.796875"/>
    </g>
   </g>
   <g id="text_26">
    <!-- 3% -->
    <g transform="translate(487.442208 502.869865) scale(0.18 -0.18)">
     <use xlink:href="#Arial-BoldMT-33"/>
     <use xlink:href="#Arial-BoldMT-25" x="55.615234"/>
    </g>
   </g>
   <g id="text_27">
    <!-- Temperature (°C) -->
    <g transform="translate(345.715733 588.972903) scale(0.18 -0.18)">
     <defs>
      <path id="Arial-BoldMT-b0" d="M 269 3663 
Q 269 4078 561 4368 
Q 853 4659 1266 4659 
Q 1678 4659 1970 4367 
Q 2263 4075 2263 3663 
Q 2263 3250 1970 2958 
Q 1678 2666 1266 2666 
Q 853 2666 561 2958 
Q 269 3250 269 3663 
z
M 788 3663 
Q 788 3466 928 3325 
Q 1069 3184 1266 3184 
Q 1463 3184 1603 3325 
Q 1744 3466 1744 3663 
Q 1744 3859 1603 4000 
Q 1463 4141 1266 4141 
Q 1069 4141 928 4000 
Q 788 3859 788 3663 
z
" transform="scale(0.015625)"/>
     </defs>
     <use xlink:href="#Arial-BoldMT-54"/>
     <use xlink:href="#Arial-BoldMT-65" x="53.708984"/>
     <use xlink:href="#Arial-BoldMT-6d" x="109.324219"/>
     <use xlink:href="#Arial-BoldMT-70" x="198.240234"/>
     <use xlink:href="#Arial-BoldMT-65" x="259.324219"/>
     <use xlink:href="#Arial-BoldMT-72" x="314.939453"/>
     <use xlink:href="#Arial-BoldMT-61" x="353.855469"/>
     <use xlink:href="#Arial-BoldMT-74" x="409.470703"/>
     <use xlink:href="#Arial-BoldMT-75" x="442.771484"/>
     <use xlink:href="#Arial-BoldMT-72" x="503.855469"/>
     <use xlink:href="#Arial-BoldMT-65" x="542.771484"/>
     <use xlink:href="#Arial-BoldMT-20" x="598.386719"/>
     <use xlink:href="#Arial-BoldMT-28" x="626.169922"/>
     <use xlink:href="#Arial-BoldMT-b0" x="659.470703"/>
     <use xlink:href="#Arial-BoldMT-43" x="699.460938"/>
     <use xlink:href="#Arial-BoldMT-29" x="771.677734"/>
    </g>
   </g>
   <g id="text_28">
    <!-- 3% -->
    <g transform="translate(517.354973 525.812039) scale(0.18 -0.18)">
     <use xlink:href="#Arial-BoldMT-33"/>
     <use xlink:href="#Arial-BoldMT-25" x="55.615234"/>
    </g>
   </g>
   <g id="text_29">
    <!-- Revised Trauma Score -->
    <g transform="translate(345.860859 613.209783) scale(0.18 -0.18)">
     <use xlink:href="#Arial-BoldMT-52"/>
     <use xlink:href="#Arial-BoldMT-65" x="72.216797"/>
     <use xlink:href="#Arial-BoldMT-76" x="127.832031"/>
     <use xlink:href="#Arial-BoldMT-69" x="183.447266"/>
     <use xlink:href="#Arial-BoldMT-73" x="211.230469"/>
     <use xlink:href="#Arial-BoldMT-65" x="266.845703"/>
     <use xlink:href="#Arial-BoldMT-64" x="322.460938"/>
     <use xlink:href="#Arial-BoldMT-20" x="383.544922"/>
     <use xlink:href="#Arial-BoldMT-54" x="411.328125"/>
     <use xlink:href="#Arial-BoldMT-72" x="466.912109"/>
     <use xlink:href="#Arial-BoldMT-61" x="505.828125"/>
     <use xlink:href="#Arial-BoldMT-75" x="561.443359"/>
     <use xlink:href="#Arial-BoldMT-6d" x="622.527344"/>
     <use xlink:href="#Arial-BoldMT-61" x="711.443359"/>
     <use xlink:href="#Arial-BoldMT-20" x="767.058594"/>
     <use xlink:href="#Arial-BoldMT-53" x="794.841797"/>
     <use xlink:href="#Arial-BoldMT-63" x="861.541016"/>
     <use xlink:href="#Arial-BoldMT-6f" x="917.15625"/>
     <use xlink:href="#Arial-BoldMT-72" x="978.240234"/>
     <use xlink:href="#Arial-BoldMT-65" x="1017.15625"/>
    </g>
   </g>
   <g id="text_30">
    <!-- 3% -->
    <g transform="translate(552.750969 543.55072) scale(0.18 -0.18)">
     <use xlink:href="#Arial-BoldMT-33"/>
     <use xlink:href="#Arial-BoldMT-25" x="55.615234"/>
    </g>
   </g>
   <g id="text_31">
    <!-- Diastolic BP (mmHg) -->
    <g transform="translate(418.525795 628.487968) scale(0.18 -0.18)">
     <defs>
      <path id="Arial-BoldMT-42" d="M 469 4581 
L 2300 4581 
Q 2844 4581 3111 4536 
Q 3378 4491 3589 4347 
Q 3800 4203 3940 3964 
Q 4081 3725 4081 3428 
Q 4081 3106 3907 2837 
Q 3734 2569 3438 2434 
Q 3856 2313 4081 2019 
Q 4306 1725 4306 1328 
Q 4306 1016 4161 720 
Q 4016 425 3764 248 
Q 3513 72 3144 31 
Q 2913 6 2028 0 
L 469 0 
L 469 4581 
z
M 1394 3819 
L 1394 2759 
L 2000 2759 
Q 2541 2759 2672 2775 
Q 2909 2803 3045 2939 
Q 3181 3075 3181 3297 
Q 3181 3509 3064 3642 
Q 2947 3775 2716 3803 
Q 2578 3819 1925 3819 
L 1394 3819 
z
M 1394 1997 
L 1394 772 
L 2250 772 
Q 2750 772 2884 800 
Q 3091 838 3220 983 
Q 3350 1128 3350 1372 
Q 3350 1578 3250 1722 
Q 3150 1866 2961 1931 
Q 2772 1997 2141 1997 
L 1394 1997 
z
" transform="scale(0.015625)"/>
     </defs>
     <use xlink:href="#Arial-BoldMT-44"/>
     <use xlink:href="#Arial-BoldMT-69" x="72.216797"/>
     <use xlink:href="#Arial-BoldMT-61" x="100"/>
     <use xlink:href="#Arial-BoldMT-73" x="155.615234"/>
     <use xlink:href="#Arial-BoldMT-74" x="211.230469"/>
     <use xlink:href="#Arial-BoldMT-6f" x="244.53125"/>
     <use xlink:href="#Arial-BoldMT-6c" x="305.615234"/>
     <use xlink:href="#Arial-BoldMT-69" x="333.398438"/>
     <use xlink:href="#Arial-BoldMT-63" x="361.181641"/>
     <use xlink:href="#Arial-BoldMT-20" x="416.796875"/>
     <use xlink:href="#Arial-BoldMT-42" x="444.580078"/>
     <use xlink:href="#Arial-BoldMT-50" x="516.796875"/>
     <use xlink:href="#Arial-BoldMT-20" x="581.746094"/>
     <use xlink:href="#Arial-BoldMT-28" x="609.529297"/>
     <use xlink:href="#Arial-BoldMT-6d" x="642.830078"/>
     <use xlink:href="#Arial-BoldMT-6d" x="731.746094"/>
     <use xlink:href="#Arial-BoldMT-48" x="820.662109"/>
     <use xlink:href="#Arial-BoldMT-67" x="892.878906"/>
     <use xlink:href="#Arial-BoldMT-29" x="953.962891"/>
    </g>
   </g>
   <g id="text_32">
    <!-- 4% -->
    <g transform="translate(594.686463 554.742711) scale(0.18 -0.18)">
     <use xlink:href="#Arial-BoldMT-34"/>
     <use xlink:href="#Arial-BoldMT-25" x="55.615234"/>
    </g>
   </g>
   <g id="text_33">
    <!-- Systolic BP (mmHg) -->
    <g transform="translate(662.297877 630.823002) scale(0.18 -0.18)">
     <use xlink:href="#Arial-BoldMT-53"/>
     <use xlink:href="#Arial-BoldMT-79" x="66.699219"/>
     <use xlink:href="#Arial-BoldMT-73" x="122.314453"/>
     <use xlink:href="#Arial-BoldMT-74" x="177.929688"/>
     <use xlink:href="#Arial-BoldMT-6f" x="211.230469"/>
     <use xlink:href="#Arial-BoldMT-6c" x="272.314453"/>
     <use xlink:href="#Arial-BoldMT-69" x="300.097656"/>
     <use xlink:href="#Arial-BoldMT-63" x="327.880859"/>
     <use xlink:href="#Arial-BoldMT-20" x="383.496094"/>
     <use xlink:href="#Arial-BoldMT-42" x="411.279297"/>
     <use xlink:href="#Arial-BoldMT-50" x="483.496094"/>
     <use xlink:href="#Arial-BoldMT-20" x="548.445312"/>
     <use xlink:href="#Arial-BoldMT-28" x="576.228516"/>
     <use xlink:href="#Arial-BoldMT-6d" x="609.529297"/>
     <use xlink:href="#Arial-BoldMT-6d" x="698.445312"/>
     <use xlink:href="#Arial-BoldMT-48" x="787.361328"/>
     <use xlink:href="#Arial-BoldMT-67" x="859.578125"/>
     <use xlink:href="#Arial-BoldMT-29" x="920.662109"/>
    </g>
   </g>
   <g id="text_34">
    <!-- 4% -->
    <g transform="translate(643.059065 556.45229) scale(0.18 -0.18)">
     <use xlink:href="#Arial-BoldMT-34"/>
     <use xlink:href="#Arial-BoldMT-25" x="55.615234"/>
    </g>
   </g>
   <g id="text_35">
    <!-- Prothrombin Time[PT] (s) -->
    <g transform="translate(736.145262 614.327004) scale(0.18 -0.18)">
     <defs>
      <path id="Arial-BoldMT-68" d="M 1334 4581 
L 1334 2897 
Q 1759 3394 2350 3394 
Q 2653 3394 2897 3281 
Q 3141 3169 3264 2994 
Q 3388 2819 3433 2606 
Q 3478 2394 3478 1947 
L 3478 0 
L 2600 0 
L 2600 1753 
Q 2600 2275 2550 2415 
Q 2500 2556 2373 2639 
Q 2247 2722 2056 2722 
Q 1838 2722 1666 2615 
Q 1494 2509 1414 2295 
Q 1334 2081 1334 1663 
L 1334 0 
L 456 0 
L 456 4581 
L 1334 4581 
z
" transform="scale(0.015625)"/>
     </defs>
     <use xlink:href="#Arial-BoldMT-50"/>
     <use xlink:href="#Arial-BoldMT-72" x="66.699219"/>
     <use xlink:href="#Arial-BoldMT-6f" x="105.615234"/>
     <use xlink:href="#Arial-BoldMT-74" x="166.699219"/>
     <use xlink:href="#Arial-BoldMT-68" x="200"/>
     <use xlink:href="#Arial-BoldMT-72" x="261.083984"/>
     <use xlink:href="#Arial-BoldMT-6f" x="300"/>
     <use xlink:href="#Arial-BoldMT-6d" x="361.083984"/>
     <use xlink:href="#Arial-BoldMT-62" x="450"/>
     <use xlink:href="#Arial-BoldMT-69" x="511.083984"/>
     <use xlink:href="#Arial-BoldMT-6e" x="538.867188"/>
     <use xlink:href="#Arial-BoldMT-20" x="599.951172"/>
     <use xlink:href="#Arial-BoldMT-54" x="627.734375"/>
     <use xlink:href="#Arial-BoldMT-69" x="687.068359"/>
     <use xlink:href="#Arial-BoldMT-6d" x="714.851562"/>
     <use xlink:href="#Arial-BoldMT-65" x="803.767578"/>
     <use xlink:href="#Arial-BoldMT-5b" x="859.382812"/>
     <use xlink:href="#Arial-BoldMT-50" x="892.683594"/>
     <use xlink:href="#Arial-BoldMT-54" x="959.382812"/>
     <use xlink:href="#Arial-BoldMT-5d" x="1020.466797"/>
     <use xlink:href="#Arial-BoldMT-20" x="1053.767578"/>
     <use xlink:href="#Arial-BoldMT-28" x="1081.550781"/>
     <use xlink:href="#Arial-BoldMT-73" x="1114.851562"/>
     <use xlink:href="#Arial-BoldMT-29" x="1170.466797"/>
    </g>
   </g>
   <g id="text_36">
    <!-- 5% -->
    <g transform="translate(697.1259 544.374863) scale(0.18 -0.18)">
     <defs>
      <path id="Arial-BoldMT-35" d="M 284 1178 
L 1159 1269 
Q 1197 972 1381 798 
Q 1566 625 1806 625 
Q 2081 625 2272 848 
Q 2463 1072 2463 1522 
Q 2463 1944 2273 2155 
Q 2084 2366 1781 2366 
Q 1403 2366 1103 2031 
L 391 2134 
L 841 4519 
L 3163 4519 
L 3163 3697 
L 1506 3697 
L 1369 2919 
Q 1663 3066 1969 3066 
Q 2553 3066 2959 2641 
Q 3366 2216 3366 1538 
Q 3366 972 3038 528 
Q 2591 -78 1797 -78 
Q 1163 -78 763 262 
Q 363 603 284 1178 
z
" transform="scale(0.015625)"/>
     </defs>
     <use xlink:href="#Arial-BoldMT-35"/>
     <use xlink:href="#Arial-BoldMT-25" x="55.615234"/>
    </g>
   </g>
   <g id="text_37">
    <!-- Abbreviated Injury Scale Head -->
    <g transform="translate(819.609704 565.370599) scale(0.18 -0.18)">
     <use xlink:href="#Arial-BoldMT-41"/>
     <use xlink:href="#Arial-BoldMT-62" x="72.216797"/>
     <use xlink:href="#Arial-BoldMT-62" x="133.300781"/>
     <use xlink:href="#Arial-BoldMT-72" x="194.384766"/>
     <use xlink:href="#Arial-BoldMT-65" x="233.300781"/>
     <use xlink:href="#Arial-BoldMT-76" x="288.916016"/>
     <use xlink:href="#Arial-BoldMT-69" x="344.53125"/>
     <use xlink:href="#Arial-BoldMT-61" x="372.314453"/>
     <use xlink:href="#Arial-BoldMT-74" x="427.929688"/>
     <use xlink:href="#Arial-BoldMT-65" x="461.230469"/>
     <use xlink:href="#Arial-BoldMT-64" x="516.845703"/>
     <use xlink:href="#Arial-BoldMT-20" x="577.929688"/>
     <use xlink:href="#Arial-BoldMT-49" x="605.712891"/>
     <use xlink:href="#Arial-BoldMT-6e" x="633.496094"/>
     <use xlink:href="#Arial-BoldMT-6a" x="694.580078"/>
     <use xlink:href="#Arial-BoldMT-75" x="722.363281"/>
     <use xlink:href="#Arial-BoldMT-72" x="783.447266"/>
     <use xlink:href="#Arial-BoldMT-79" x="822.363281"/>
     <use xlink:href="#Arial-BoldMT-20" x="877.978516"/>
     <use xlink:href="#Arial-BoldMT-53" x="905.761719"/>
     <use xlink:href="#Arial-BoldMT-63" x="972.460938"/>
     <use xlink:href="#Arial-BoldMT-61" x="1028.076172"/>
     <use xlink:href="#Arial-BoldMT-6c" x="1083.691406"/>
     <use xlink:href="#Arial-BoldMT-65" x="1111.474609"/>
     <use xlink:href="#Arial-BoldMT-20" x="1167.089844"/>
     <use xlink:href="#Arial-BoldMT-48" x="1194.873047"/>
     <use xlink:href="#Arial-BoldMT-65" x="1267.089844"/>
     <use xlink:href="#Arial-BoldMT-61" x="1322.705078"/>
     <use xlink:href="#Arial-BoldMT-64" x="1378.320312"/>
    </g>
   </g>
   <g id="text_38">
    <!-- 6% -->
    <g transform="translate(758.233795 508.53178) scale(0.18 -0.18)">
     <defs>
      <path id="Arial-BoldMT-36" d="M 3247 3459 
L 2397 3366 
Q 2366 3628 2234 3753 
Q 2103 3878 1894 3878 
Q 1616 3878 1423 3628 
Q 1231 3378 1181 2588 
Q 1509 2975 1997 2975 
Q 2547 2975 2939 2556 
Q 3331 2138 3331 1475 
Q 3331 772 2918 347 
Q 2506 -78 1859 -78 
Q 1166 -78 719 461 
Q 272 1000 272 2228 
Q 272 3488 737 4044 
Q 1203 4600 1947 4600 
Q 2469 4600 2811 4308 
Q 3153 4016 3247 3459 
z
M 1256 1544 
Q 1256 1116 1453 883 
Q 1650 650 1903 650 
Q 2147 650 2309 840 
Q 2472 1031 2472 1466 
Q 2472 1913 2297 2120 
Q 2122 2328 1859 2328 
Q 1606 2328 1431 2129 
Q 1256 1931 1256 1544 
z
" transform="scale(0.015625)"/>
     </defs>
     <use xlink:href="#Arial-BoldMT-36"/>
     <use xlink:href="#Arial-BoldMT-25" x="55.615234"/>
    </g>
   </g>
   <g id="text_39">
    <!-- Partial Thromboplastin Time[PTT] (s) -->
    <g transform="translate(902.343072 444.341891) scale(0.18 -0.18)">
     <use xlink:href="#Arial-BoldMT-50"/>
     <use xlink:href="#Arial-BoldMT-61" x="66.699219"/>
     <use xlink:href="#Arial-BoldMT-72" x="122.314453"/>
     <use xlink:href="#Arial-BoldMT-74" x="161.230469"/>
     <use xlink:href="#Arial-BoldMT-69" x="194.53125"/>
     <use xlink:href="#Arial-BoldMT-61" x="222.314453"/>
     <use xlink:href="#Arial-BoldMT-6c" x="277.929688"/>
     <use xlink:href="#Arial-BoldMT-20" x="305.712891"/>
     <use xlink:href="#Arial-BoldMT-54" x="333.496094"/>
     <use xlink:href="#Arial-BoldMT-68" x="394.580078"/>
     <use xlink:href="#Arial-BoldMT-72" x="455.664062"/>
     <use xlink:href="#Arial-BoldMT-6f" x="494.580078"/>
     <use xlink:href="#Arial-BoldMT-6d" x="555.664062"/>
     <use xlink:href="#Arial-BoldMT-62" x="644.580078"/>
     <use xlink:href="#Arial-BoldMT-6f" x="705.664062"/>
     <use xlink:href="#Arial-BoldMT-70" x="766.748047"/>
     <use xlink:href="#Arial-BoldMT-6c" x="827.832031"/>
     <use xlink:href="#Arial-BoldMT-61" x="855.615234"/>
     <use xlink:href="#Arial-BoldMT-73" x="911.230469"/>
     <use xlink:href="#Arial-BoldMT-74" x="966.845703"/>
     <use xlink:href="#Arial-BoldMT-69" x="1000.146484"/>
     <use xlink:href="#Arial-BoldMT-6e" x="1027.929688"/>
     <use xlink:href="#Arial-BoldMT-20" x="1089.013672"/>
     <use xlink:href="#Arial-BoldMT-54" x="1116.796875"/>
     <use xlink:href="#Arial-BoldMT-69" x="1176.130859"/>
     <use xlink:href="#Arial-BoldMT-6d" x="1203.914062"/>
     <use xlink:href="#Arial-BoldMT-65" x="1292.830078"/>
     <use xlink:href="#Arial-BoldMT-5b" x="1348.445312"/>
     <use xlink:href="#Arial-BoldMT-50" x="1381.746094"/>
     <use xlink:href="#Arial-BoldMT-54" x="1448.445312"/>
     <use xlink:href="#Arial-BoldMT-54" x="1509.529297"/>
     <use xlink:href="#Arial-BoldMT-5d" x="1570.613281"/>
     <use xlink:href="#Arial-BoldMT-20" x="1603.914062"/>
     <use xlink:href="#Arial-BoldMT-28" x="1631.697266"/>
     <use xlink:href="#Arial-BoldMT-73" x="1664.998047"/>
     <use xlink:href="#Arial-BoldMT-29" x="1720.613281"/>
    </g>
   </g>
   <g id="text_40">
    <!-- 11% -->
    <g transform="translate(814.296596 419.921476) scale(0.18 -0.18)">
     <use xlink:href="#Arial-BoldMT-31"/>
     <use xlink:href="#Arial-BoldMT-31" x="50.115234"/>
     <use xlink:href="#Arial-BoldMT-25" x="105.730469"/>
    </g>
   </g>
   <g id="legend_1">
    <g id="patch_22">
     <path d="M 11.2 679.76 
L 321.94375 679.76 
Q 325.94375 679.76 325.94375 675.76 
L 325.94375 621.235 
Q 325.94375 617.235 321.94375 617.235 
L 11.2 617.235 
Q 7.2 617.235 7.2 621.235 
L 7.2 675.76 
Q 7.2 679.76 11.2 679.76 
z
" style="fill: #ffffff; opacity: 0.8; stroke: #cccccc; stroke-linejoin: miter"/>
    </g>
    <g id="patch_23">
     <path d="M 15.2 639.550625 
L 55.2 639.550625 
L 55.2 625.550625 
L 15.2 625.550625 
z
" style="fill: #f1a811; stroke: #f1a811; stroke-linejoin: miter"/>
    </g>
    <g id="text_41">
     <!-- Lab Measurement -->
     <g transform="translate(71.2 639.550625) scale(0.2 -0.2)">
      <use xlink:href="#Arial-BoldMT-4c"/>
      <use xlink:href="#Arial-BoldMT-61" x="61.083984"/>
      <use xlink:href="#Arial-BoldMT-62" x="116.699219"/>
      <use xlink:href="#Arial-BoldMT-20" x="177.783203"/>
      <use xlink:href="#Arial-BoldMT-4d" x="205.566406"/>
      <use xlink:href="#Arial-BoldMT-65" x="288.867188"/>
      <use xlink:href="#Arial-BoldMT-61" x="344.482422"/>
      <use xlink:href="#Arial-BoldMT-73" x="400.097656"/>
      <use xlink:href="#Arial-BoldMT-75" x="455.712891"/>
      <use xlink:href="#Arial-BoldMT-72" x="516.796875"/>
      <use xlink:href="#Arial-BoldMT-65" x="555.712891"/>
      <use xlink:href="#Arial-BoldMT-6d" x="611.328125"/>
      <use xlink:href="#Arial-BoldMT-65" x="700.244141"/>
      <use xlink:href="#Arial-BoldMT-6e" x="755.859375"/>
      <use xlink:href="#Arial-BoldMT-74" x="816.943359"/>
     </g>
    </g>
    <g id="patch_24">
     <path d="M 15.2 667.813125 
L 55.2 667.813125 
L 55.2 653.813125 
L 15.2 653.813125 
z
" style="fill: #1985de; stroke: #1985de; stroke-linejoin: miter"/>
    </g>
    <g id="text_42">
     <!-- Clinical Standard Practice -->
     <g transform="translate(71.2 667.813125) scale(0.2 -0.2)">
      <use xlink:href="#Arial-BoldMT-43"/>
      <use xlink:href="#Arial-BoldMT-6c" x="72.216797"/>
      <use xlink:href="#Arial-BoldMT-69" x="100"/>
      <use xlink:href="#Arial-BoldMT-6e" x="127.783203"/>
      <use xlink:href="#Arial-BoldMT-69" x="188.867188"/>
      <use xlink:href="#Arial-BoldMT-63" x="216.650391"/>
      <use xlink:href="#Arial-BoldMT-61" x="272.265625"/>
      <use xlink:href="#Arial-BoldMT-6c" x="327.880859"/>
      <use xlink:href="#Arial-BoldMT-20" x="355.664062"/>
      <use xlink:href="#Arial-BoldMT-53" x="383.447266"/>
      <use xlink:href="#Arial-BoldMT-74" x="450.146484"/>
      <use xlink:href="#Arial-BoldMT-61" x="483.447266"/>
      <use xlink:href="#Arial-BoldMT-6e" x="539.0625"/>
      <use xlink:href="#Arial-BoldMT-64" x="600.146484"/>
      <use xlink:href="#Arial-BoldMT-61" x="661.230469"/>
      <use xlink:href="#Arial-BoldMT-72" x="716.845703"/>
      <use xlink:href="#Arial-BoldMT-64" x="755.761719"/>
      <use xlink:href="#Arial-BoldMT-20" x="816.845703"/>
      <use xlink:href="#Arial-BoldMT-50" x="844.628906"/>
      <use xlink:href="#Arial-BoldMT-72" x="911.328125"/>
      <use xlink:href="#Arial-BoldMT-61" x="950.244141"/>
      <use xlink:href="#Arial-BoldMT-63" x="1005.859375"/>
      <use xlink:href="#Arial-BoldMT-74" x="1061.474609"/>
      <use xlink:href="#Arial-BoldMT-69" x="1094.775391"/>
      <use xlink:href="#Arial-BoldMT-63" x="1122.558594"/>
      <use xlink:href="#Arial-BoldMT-65" x="1178.173828"/>
     </g>
    </g>
   </g>
  </g>
 </g>
</svg>
