<?xml version="1.0" encoding="utf-8" standalone="no"?>
<!DOCTYPE svg PUBLIC "-//W3C//DTD SVG 1.1//EN"
  "http://www.w3.org/Graphics/SVG/1.1/DTD/svg11.dtd">
<svg xmlns:xlink="http://www.w3.org/1999/xlink" width="576pt" height="432pt" viewBox="0 0 576 432" xmlns="http://www.w3.org/2000/svg" version="1.1">
 <metadata>
  <rdf:RDF xmlns:dc="http://purl.org/dc/elements/1.1/" xmlns:cc="http://creativecommons.org/ns#" xmlns:rdf="http://www.w3.org/1999/02/22-rdf-syntax-ns#">
   <cc:Work>
    <dc:type rdf:resource="http://purl.org/dc/dcmitype/StillImage"/>
    <dc:date>2023-11-06T21:01:30.815910</dc:date>
    <dc:format>image/svg+xml</dc:format>
    <dc:creator>
     <cc:Agent>
      <dc:title>Matplotlib v3.7.2, https://matplotlib.org/</dc:title>
     </cc:Agent>
    </dc:creator>
   </cc:Work>
  </rdf:RDF>
 </metadata>
 <defs>
  <style type="text/css">*{stroke-linejoin: round; stroke-linecap: butt}</style>
 </defs>
 <g id="figure_1">
  <g id="patch_1">
   <path d="M 0 432 
L 576 432 
L 576 0 
L 0 0 
z
" style="fill: #ffffff"/>
  </g>
  <g id="axes_1">
   <g id="patch_2">
    <path d="M 72 384.48 
L 518.4 384.48 
L 518.4 51.84 
L 72 51.84 
z
" style="fill: #ffffff"/>
   </g>
   <g id="PolyCollection_1">
    <defs>
     <path id="mf9ab1ecba4" d="M 92.290909 -47.663641 
L 92.290909 -47.52 
L 94.330196 -47.52 
L 96.369484 -47.52 
L 98.408771 -47.52 
L 100.448058 -47.52 
L 102.487346 -47.52 
L 104.526633 -47.52 
L 106.565921 -47.52 
L 108.605208 -47.52 
L 110.644495 -47.52 
L 112.683783 -47.52 
L 114.72307 -47.52 
L 116.762357 -47.52 
L 118.801645 -47.52 
L 120.840932 -47.52 
L 122.880219 -47.52 
L 124.919507 -47.52 
L 126.958794 -47.52 
L 128.998081 -47.52 
L 131.037369 -47.52 
L 133.076656 -47.52 
L 135.115943 -47.52 
L 137.155231 -47.52 
L 139.194518 -47.52 
L 141.233805 -47.52 
L 143.273093 -47.52 
L 145.31238 -47.52 
L 147.351667 -47.52 
L 149.390955 -47.52 
L 151.430242 -47.52 
L 153.469529 -47.52 
L 155.508817 -47.52 
L 157.548104 -47.52 
L 159.587392 -47.52 
L 161.626679 -47.52 
L 163.665966 -47.52 
L 165.705254 -47.52 
L 167.744541 -47.52 
L 169.783828 -47.52 
L 171.823116 -47.52 
L 173.862403 -47.52 
L 175.90169 -47.52 
L 177.940978 -47.52 
L 179.980265 -47.52 
L 182.019552 -47.52 
L 184.05884 -47.52 
L 186.098127 -47.52 
L 188.137414 -47.52 
L 190.176702 -47.52 
L 192.215989 -47.52 
L 194.255276 -47.52 
L 196.294564 -47.52 
L 198.333851 -47.52 
L 200.373138 -47.52 
L 202.412426 -47.52 
L 204.451713 -47.52 
L 206.491 -47.52 
L 208.530288 -47.52 
L 210.569575 -47.52 
L 212.608862 -47.52 
L 214.64815 -47.52 
L 216.687437 -47.52 
L 218.726725 -47.52 
L 220.766012 -47.52 
L 222.805299 -47.52 
L 224.844587 -47.52 
L 226.883874 -47.52 
L 228.923161 -47.52 
L 230.962449 -47.52 
L 233.001736 -47.52 
L 235.041023 -47.52 
L 237.080311 -47.52 
L 239.119598 -47.52 
L 241.158885 -47.52 
L 243.198173 -47.52 
L 245.23746 -47.52 
L 247.276747 -47.52 
L 249.316035 -47.52 
L 251.355322 -47.52 
L 253.394609 -47.52 
L 255.433897 -47.52 
L 257.473184 -47.52 
L 259.512471 -47.52 
L 261.551759 -47.52 
L 263.591046 -47.52 
L 265.630333 -47.52 
L 267.669621 -47.52 
L 269.708908 -47.52 
L 271.748196 -47.52 
L 273.787483 -47.52 
L 275.82677 -47.52 
L 277.866058 -47.52 
L 279.905345 -47.52 
L 281.944632 -47.52 
L 283.98392 -47.52 
L 286.023207 -47.52 
L 288.062494 -47.52 
L 290.101782 -47.52 
L 292.141069 -47.52 
L 294.180356 -47.52 
L 296.219644 -47.52 
L 298.258931 -47.52 
L 300.298218 -47.52 
L 302.337506 -47.52 
L 304.376793 -47.52 
L 306.41608 -47.52 
L 308.455368 -47.52 
L 310.494655 -47.52 
L 312.533942 -47.52 
L 314.57323 -47.52 
L 316.612517 -47.52 
L 318.651804 -47.52 
L 320.691092 -47.52 
L 322.730379 -47.52 
L 324.769667 -47.52 
L 326.808954 -47.52 
L 328.848241 -47.52 
L 330.887529 -47.52 
L 332.926816 -47.52 
L 334.966103 -47.52 
L 337.005391 -47.52 
L 339.044678 -47.52 
L 341.083965 -47.52 
L 343.123253 -47.52 
L 345.16254 -47.52 
L 347.201827 -47.52 
L 349.241115 -47.52 
L 351.280402 -47.52 
L 353.319689 -47.52 
L 355.358977 -47.52 
L 357.398264 -47.52 
L 359.437551 -47.52 
L 361.476839 -47.52 
L 363.516126 -47.52 
L 365.555413 -47.52 
L 367.594701 -47.52 
L 369.633988 -47.52 
L 371.673275 -47.52 
L 373.712563 -47.52 
L 375.75185 -47.52 
L 377.791138 -47.52 
L 379.830425 -47.52 
L 381.869712 -47.52 
L 383.909 -47.52 
L 385.948287 -47.52 
L 387.987574 -47.52 
L 390.026862 -47.52 
L 392.066149 -47.52 
L 394.105436 -47.52 
L 396.144724 -47.52 
L 398.184011 -47.52 
L 400.223298 -47.52 
L 402.262586 -47.52 
L 404.301873 -47.52 
L 406.34116 -47.52 
L 408.380448 -47.52 
L 410.419735 -47.52 
L 412.459022 -47.52 
L 414.49831 -47.52 
L 416.537597 -47.52 
L 418.576884 -47.52 
L 420.616172 -47.52 
L 422.655459 -47.52 
L 424.694746 -47.52 
L 426.734034 -47.52 
L 428.773321 -47.52 
L 430.812608 -47.52 
L 432.851896 -47.52 
L 434.891183 -47.52 
L 436.930471 -47.52 
L 438.969758 -47.52 
L 441.009045 -47.52 
L 443.048333 -47.52 
L 445.08762 -47.52 
L 447.126907 -47.52 
L 449.166195 -47.52 
L 451.205482 -47.52 
L 453.244769 -47.52 
L 455.284057 -47.52 
L 457.323344 -47.52 
L 459.362631 -47.52 
L 461.401919 -47.52 
L 463.441206 -47.52 
L 465.480493 -47.52 
L 467.519781 -47.52 
L 469.559068 -47.52 
L 471.598355 -47.52 
L 473.637643 -47.52 
L 475.67693 -47.52 
L 477.716217 -47.52 
L 479.755505 -47.52 
L 481.794792 -47.52 
L 483.834079 -47.52 
L 485.873367 -47.52 
L 487.912654 -47.52 
L 489.951942 -47.52 
L 491.991229 -47.52 
L 494.030516 -47.52 
L 496.069804 -47.52 
L 498.109091 -47.52 
L 498.109091 -47.649004 
L 498.109091 -47.649004 
L 496.069804 -47.682066 
L 494.030516 -47.722436 
L 491.991229 -47.771422 
L 489.951942 -47.830488 
L 487.912654 -47.901263 
L 485.873367 -47.985538 
L 483.834079 -48.085262 
L 481.794792 -48.202533 
L 479.755505 -48.339588 
L 477.716217 -48.49878 
L 475.67693 -48.682558 
L 473.637643 -48.893441 
L 471.598355 -49.133985 
L 469.559068 -49.406756 
L 467.519781 -49.714291 
L 465.480493 -50.059076 
L 463.441206 -50.443511 
L 461.401919 -50.869895 
L 459.362631 -51.340413 
L 457.323344 -51.857134 
L 455.284057 -52.422026 
L 453.244769 -53.036979 
L 451.205482 -53.703851 
L 449.166195 -54.424523 
L 447.126907 -55.200973 
L 445.08762 -56.035355 
L 443.048333 -56.930098 
L 441.009045 -57.887992 
L 438.969758 -58.912289 
L 436.930471 -60.00678 
L 434.891183 -61.175858 
L 432.851896 -62.424562 
L 430.812608 -63.758579 
L 428.773321 -65.184206 
L 426.734034 -66.708268 
L 424.694746 -68.337979 
L 422.655459 -70.080753 
L 420.616172 -71.943957 
L 418.576884 -73.934616 
L 416.537597 -76.059074 
L 414.49831 -78.32262 
L 412.459022 -80.729095 
L 410.419735 -83.280498 
L 408.380448 -85.976601 
L 406.34116 -88.814604 
L 404.301873 -91.788842 
L 402.262586 -94.890574 
L 400.223298 -98.107855 
L 398.184011 -101.425532 
L 396.144724 -104.825353 
L 394.105436 -108.286208 
L 392.066149 -111.784508 
L 390.026862 -115.294686 
L 387.987574 -118.789817 
L 385.948287 -122.242345 
L 383.909 -125.624887 
L 381.869712 -128.91109 
L 379.830425 -132.076509 
L 377.791138 -135.099482 
L 375.75185 -137.961946 
L 373.712563 -140.650183 
L 371.673275 -143.155447 
L 369.633988 -145.474446 
L 367.594701 -147.609662 
L 365.555413 -149.56948 
L 363.516126 -151.368123 
L 361.476839 -153.02538 
L 359.437551 -154.566144 
L 357.398264 -156.01976 
L 355.358977 -157.419212 
L 353.319689 -158.800172 
L 351.280402 -160.199934 
L 349.241115 -161.656293 
L 347.201827 -163.206381 
L 345.16254 -164.885518 
L 343.123253 -166.726108 
L 341.083965 -168.756628 
L 339.044678 -171.000736 
L 337.005391 -173.476519 
L 334.966103 -176.195932 
L 332.926816 -179.164411 
L 330.887529 -182.380694 
L 328.848241 -185.836837 
L 326.808954 -189.518432 
L 324.769667 -193.405004 
L 322.730379 -197.470578 
L 320.691092 -201.684388 
L 318.651804 -206.011705 
L 316.612517 -210.414746 
L 314.57323 -214.853646 
L 312.533942 -219.287451 
L 310.494655 -223.675102 
L 308.455368 -227.976381 
L 306.41608 -232.1528 
L 304.376793 -236.16839 
L 302.337506 -239.990395 
L 300.298218 -243.589838 
L 298.258931 -246.94195 
L 296.219644 -250.02647 
L 294.180356 -252.827791 
L 292.141069 -255.334983 
L 290.101782 -257.541671 
L 288.062494 -259.445805 
L 286.023207 -261.049313 
L 283.98392 -262.357669 
L 281.944632 -263.379388 
L 279.905345 -264.125465 
L 277.866058 -264.608777 
L 275.82677 -264.843478 
L 273.787483 -264.844394 
L 271.748196 -264.626438 
L 269.708908 -264.204072 
L 267.669621 -263.590817 
L 265.630333 -262.798836 
L 263.591046 -261.838585 
L 261.551759 -260.718557 
L 259.512471 -259.445112 
L 257.473184 -258.022393 
L 255.433897 -256.452342 
L 253.394609 -254.734787 
L 251.355322 -252.867624 
L 249.316035 -250.847061 
L 247.276747 -248.667931 
L 245.23746 -246.324045 
L 243.198173 -243.808601 
L 241.158885 -241.114598 
L 239.119598 -238.235274 
L 237.080311 -235.164538 
L 235.041023 -231.897384 
L 233.001736 -228.430279 
L 230.962449 -224.761507 
L 228.923161 -220.891459 
L 226.883874 -216.822872 
L 224.844587 -212.56099 
L 222.805299 -208.113656 
L 220.766012 -203.491328 
L 218.726725 -198.707018 
L 216.687437 -193.776157 
L 214.64815 -188.716387 
L 212.608862 -183.547294 
L 210.569575 -178.29008 
L 208.530288 -172.967197 
L 206.491 -167.601943 
L 204.451713 -162.218044 
L 202.412426 -156.839225 
L 200.373138 -151.488798 
L 198.333851 -146.189261 
L 196.294564 -140.961941 
L 194.255276 -135.826675 
L 192.215989 -130.801548 
L 190.176702 -125.902686 
L 188.137414 -121.144118 
L 186.098127 -116.537693 
L 184.05884 -112.093071 
L 182.019552 -107.817757 
L 179.980265 -103.717202 
L 177.940978 -99.794936 
L 175.90169 -96.052741 
L 173.862403 -92.490848 
L 171.823116 -89.108147 
L 169.783828 -85.902401 
L 167.744541 -82.870462 
L 165.705254 -80.008462 
L 163.665966 -77.312002 
L 161.626679 -74.776304 
L 159.587392 -72.396344 
L 157.548104 -70.166959 
L 155.508817 -68.082921 
L 153.469529 -66.138992 
L 151.430242 -64.329956 
L 149.390955 -62.65063 
L 147.351667 -61.095866 
L 145.31238 -59.660535 
L 143.273093 -58.339513 
L 141.233805 -57.127667 
L 139.194518 -56.01983 
L 137.155231 -55.010796 
L 135.115943 -54.095313 
L 133.076656 -53.268081 
L 131.037369 -52.523766 
L 128.998081 -51.857014 
L 126.958794 -51.262474 
L 124.919507 -50.734831 
L 122.880219 -50.268832 
L 120.840932 -49.859329 
L 118.801645 -49.501307 
L 116.762357 -49.189923 
L 114.72307 -48.920536 
L 112.683783 -48.688737 
L 110.644495 -48.49037 
L 108.605208 -48.32155 
L 106.565921 -48.178679 
L 104.526633 -48.058451 
L 102.487346 -47.957852 
L 100.448058 -47.87416 
L 98.408771 -47.804935 
L 96.369484 -47.748008 
L 94.330196 -47.701468 
L 92.290909 -47.663641 
z
" style="stroke: #87ceeb"/>
    </defs>
    <g clip-path="url(#p2787b98e17)">
     <use xlink:href="#mf9ab1ecba4" x="0" y="432" style="fill: #87ceeb; fill-opacity: 0.25; stroke: #87ceeb"/>
    </g>
   </g>
   <g id="PolyCollection_2">
    <defs>
     <path id="mbd62707285" d="M 133.272361 -48.164357 
L 133.272361 -47.52 
L 134.678645 -47.52 
L 136.08493 -47.52 
L 137.491214 -47.52 
L 138.897498 -47.52 
L 140.303783 -47.52 
L 141.710067 -47.52 
L 143.116351 -47.52 
L 144.522635 -47.52 
L 145.92892 -47.52 
L 147.335204 -47.52 
L 148.741488 -47.52 
L 150.147773 -47.52 
L 151.554057 -47.52 
L 152.960341 -47.52 
L 154.366625 -47.52 
L 155.77291 -47.52 
L 157.179194 -47.52 
L 158.585478 -47.52 
L 159.991763 -47.52 
L 161.398047 -47.52 
L 162.804331 -47.52 
L 164.210615 -47.52 
L 165.6169 -47.52 
L 167.023184 -47.52 
L 168.429468 -47.52 
L 169.835753 -47.52 
L 171.242037 -47.52 
L 172.648321 -47.52 
L 174.054605 -47.52 
L 175.46089 -47.52 
L 176.867174 -47.52 
L 178.273458 -47.52 
L 179.679743 -47.52 
L 181.086027 -47.52 
L 182.492311 -47.52 
L 183.898596 -47.52 
L 185.30488 -47.52 
L 186.711164 -47.52 
L 188.117448 -47.52 
L 189.523733 -47.52 
L 190.930017 -47.52 
L 192.336301 -47.52 
L 193.742586 -47.52 
L 195.14887 -47.52 
L 196.555154 -47.52 
L 197.961438 -47.52 
L 199.367723 -47.52 
L 200.774007 -47.52 
L 202.180291 -47.52 
L 203.586576 -47.52 
L 204.99286 -47.52 
L 206.399144 -47.52 
L 207.805428 -47.52 
L 209.211713 -47.52 
L 210.617997 -47.52 
L 212.024281 -47.52 
L 213.430566 -47.52 
L 214.83685 -47.52 
L 216.243134 -47.52 
L 217.649418 -47.52 
L 219.055703 -47.52 
L 220.461987 -47.52 
L 221.868271 -47.52 
L 223.274556 -47.52 
L 224.68084 -47.52 
L 226.087124 -47.52 
L 227.493408 -47.52 
L 228.899693 -47.52 
L 230.305977 -47.52 
L 231.712261 -47.52 
L 233.118546 -47.52 
L 234.52483 -47.52 
L 235.931114 -47.52 
L 237.337398 -47.52 
L 238.743683 -47.52 
L 240.149967 -47.52 
L 241.556251 -47.52 
L 242.962536 -47.52 
L 244.36882 -47.52 
L 245.775104 -47.52 
L 247.181388 -47.52 
L 248.587673 -47.52 
L 249.993957 -47.52 
L 251.400241 -47.52 
L 252.806526 -47.52 
L 254.21281 -47.52 
L 255.619094 -47.52 
L 257.025378 -47.52 
L 258.431663 -47.52 
L 259.837947 -47.52 
L 261.244231 -47.52 
L 262.650516 -47.52 
L 264.0568 -47.52 
L 265.463084 -47.52 
L 266.869368 -47.52 
L 268.275653 -47.52 
L 269.681937 -47.52 
L 271.088221 -47.52 
L 272.494506 -47.52 
L 273.90079 -47.52 
L 275.307074 -47.52 
L 276.713358 -47.52 
L 278.119643 -47.52 
L 279.525927 -47.52 
L 280.932211 -47.52 
L 282.338496 -47.52 
L 283.74478 -47.52 
L 285.151064 -47.52 
L 286.557348 -47.52 
L 287.963633 -47.52 
L 289.369917 -47.52 
L 290.776201 -47.52 
L 292.182486 -47.52 
L 293.58877 -47.52 
L 294.995054 -47.52 
L 296.401339 -47.52 
L 297.807623 -47.52 
L 299.213907 -47.52 
L 300.620191 -47.52 
L 302.026476 -47.52 
L 303.43276 -47.52 
L 304.839044 -47.52 
L 306.245329 -47.52 
L 307.651613 -47.52 
L 309.057897 -47.52 
L 310.464181 -47.52 
L 311.870466 -47.52 
L 313.27675 -47.52 
L 314.683034 -47.52 
L 316.089319 -47.52 
L 317.495603 -47.52 
L 318.901887 -47.52 
L 320.308171 -47.52 
L 321.714456 -47.52 
L 323.12074 -47.52 
L 324.527024 -47.52 
L 325.933309 -47.52 
L 327.339593 -47.52 
L 328.745877 -47.52 
L 330.152161 -47.52 
L 331.558446 -47.52 
L 332.96473 -47.52 
L 334.371014 -47.52 
L 335.777299 -47.52 
L 337.183583 -47.52 
L 338.589867 -47.52 
L 339.996151 -47.52 
L 341.402436 -47.52 
L 342.80872 -47.52 
L 344.215004 -47.52 
L 345.621289 -47.52 
L 347.027573 -47.52 
L 348.433857 -47.52 
L 349.840141 -47.52 
L 351.246426 -47.52 
L 352.65271 -47.52 
L 354.058994 -47.52 
L 355.465279 -47.52 
L 356.871563 -47.52 
L 358.277847 -47.52 
L 359.684131 -47.52 
L 361.090416 -47.52 
L 362.4967 -47.52 
L 363.902984 -47.52 
L 365.309269 -47.52 
L 366.715553 -47.52 
L 368.121837 -47.52 
L 369.528121 -47.52 
L 370.934406 -47.52 
L 372.34069 -47.52 
L 373.746974 -47.52 
L 375.153259 -47.52 
L 376.559543 -47.52 
L 377.965827 -47.52 
L 379.372111 -47.52 
L 380.778396 -47.52 
L 382.18468 -47.52 
L 383.590964 -47.52 
L 384.997249 -47.52 
L 386.403533 -47.52 
L 387.809817 -47.52 
L 389.216101 -47.52 
L 390.622386 -47.52 
L 392.02867 -47.52 
L 393.434954 -47.52 
L 394.841239 -47.52 
L 396.247523 -47.52 
L 397.653807 -47.52 
L 399.060091 -47.52 
L 400.466376 -47.52 
L 401.87266 -47.52 
L 403.278944 -47.52 
L 404.685229 -47.52 
L 406.091513 -47.52 
L 407.497797 -47.52 
L 408.904082 -47.52 
L 410.310366 -47.52 
L 411.71665 -47.52 
L 413.122934 -47.52 
L 413.122934 -48.008309 
L 413.122934 -48.008309 
L 411.71665 -48.109306 
L 410.310366 -48.228704 
L 408.904082 -48.369313 
L 407.497797 -48.534268 
L 406.091513 -48.727039 
L 404.685229 -48.951446 
L 403.278944 -49.211674 
L 401.87266 -49.51227 
L 400.466376 -49.858148 
L 399.060091 -50.254576 
L 397.653807 -50.707165 
L 396.247523 -51.221844 
L 394.841239 -51.804824 
L 393.434954 -52.462556 
L 392.02867 -53.201674 
L 390.622386 -54.028931 
L 389.216101 -54.951121 
L 387.809817 -55.974984 
L 386.403533 -57.107112 
L 384.997249 -58.353832 
L 383.590964 -59.721087 
L 382.18468 -61.214304 
L 380.778396 -62.838262 
L 379.372111 -64.596948 
L 377.965827 -66.493415 
L 376.559543 -68.529644 
L 375.153259 -70.706404 
L 373.746974 -73.023127 
L 372.34069 -75.47779 
L 370.934406 -78.066814 
L 369.528121 -80.784981 
L 368.121837 -83.625378 
L 366.715553 -86.579364 
L 365.309269 -89.636566 
L 363.902984 -92.784913 
L 362.4967 -96.010699 
L 361.090416 -99.298689 
L 359.684131 -102.632256 
L 358.277847 -105.993562 
L 356.871563 -109.363771 
L 355.465279 -112.723303 
L 354.058994 -116.052115 
L 352.65271 -119.330015 
L 351.246426 -122.537001 
L 349.840141 -125.653614 
L 348.433857 -128.661313 
L 347.027573 -131.542847 
L 345.621289 -134.282633 
L 344.215004 -136.867122 
L 342.80872 -139.285145 
L 341.402436 -141.528243 
L 339.996151 -143.590953 
L 338.589867 -145.471061 
L 337.183583 -147.169804 
L 335.777299 -148.692022 
L 334.371014 -150.046244 
L 332.96473 -151.244716 
L 331.558446 -152.303361 
L 330.152161 -153.241667 
L 328.745877 -154.082513 
L 327.339593 -154.851917 
L 325.933309 -155.578724 
L 324.527024 -156.294234 
L 323.12074 -157.031767 
L 321.714456 -157.826181 
L 320.308171 -158.713349 
L 318.901887 -159.729595 
L 317.495603 -160.911117 
L 316.089319 -162.293378 
L 314.683034 -163.910514 
L 313.27675 -165.79473 
L 311.870466 -167.975728 
L 310.464181 -170.48015 
L 309.057897 -173.331077 
L 307.651613 -176.547554 
L 306.245329 -180.144194 
L 304.839044 -184.130828 
L 303.43276 -188.51224 
L 302.026476 -193.287966 
L 300.620191 -198.452184 
L 299.213907 -203.993678 
L 297.807623 -209.89589 
L 296.401339 -216.137051 
L 294.995054 -222.690397 
L 293.58877 -229.524456 
L 292.182486 -236.603413 
L 290.776201 -243.887538 
L 289.369917 -251.333675 
L 287.963633 -258.895779 
L 286.557348 -266.5255 
L 285.151064 -274.172795 
L 283.74478 -281.786568 
L 282.338496 -289.31532 
L 280.932211 -296.707802 
L 279.525927 -303.91366 
L 278.119643 -310.884068 
L 276.713358 -317.572326 
L 275.307074 -323.934429 
L 273.90079 -329.929585 
L 272.494506 -335.520692 
L 271.088221 -340.674742 
L 269.681937 -345.363171 
L 268.275653 -349.562136 
L 266.869368 -353.252718 
L 265.463084 -356.421047 
L 264.0568 -359.058358 
L 262.650516 -361.160956 
L 261.244231 -362.730117 
L 259.837947 -363.771904 
L 258.431663 -364.296923 
L 257.025378 -364.32 
L 255.619094 -363.859807 
L 254.21281 -362.938431 
L 252.806526 -361.580895 
L 251.400241 -359.81465 
L 249.993957 -357.669026 
L 248.587673 -355.17468 
L 247.181388 -352.363029 
L 245.775104 -349.265689 
L 244.36882 -345.913929 
L 242.962536 -342.338155 
L 241.556251 -338.567421 
L 240.149967 -334.628994 
L 238.743683 -330.547965 
L 237.337398 -326.346932 
L 235.931114 -322.045739 
L 234.52483 -317.661294 
L 233.118546 -313.207461 
L 231.712261 -308.695024 
L 230.305977 -304.131737 
L 228.899693 -299.522434 
L 227.493408 -294.869217 
L 226.087124 -290.171707 
L 224.68084 -285.427347 
L 223.274556 -280.631756 
L 221.868271 -275.779119 
L 220.461987 -270.862603 
L 219.055703 -265.87479 
L 217.649418 -260.808116 
L 216.243134 -255.655297 
L 214.83685 -250.409742 
L 213.430566 -245.065937 
L 212.024281 -239.619785 
L 210.617997 -234.068908 
L 209.211713 -228.412889 
L 207.805428 -222.653458 
L 206.399144 -216.794615 
L 204.99286 -210.842694 
L 203.586576 -204.806354 
L 202.180291 -198.696519 
L 200.774007 -192.526247 
L 199.367723 -186.31056 
L 197.961438 -180.066212 
L 196.555154 -173.811425 
L 195.14887 -167.565593 
L 193.742586 -161.348958 
L 192.336301 -155.182272 
L 190.930017 -149.086458 
L 189.523733 -143.082265 
L 188.117448 -137.189945 
L 186.711164 -131.428938 
L 185.30488 -125.817588 
L 183.898596 -120.372886 
L 182.492311 -115.110255 
L 181.086027 -110.043365 
L 179.679743 -105.183992 
L 178.273458 -100.541923 
L 176.867174 -96.124892 
L 175.46089 -91.938569 
L 174.054605 -87.986574 
L 172.648321 -84.270539 
L 171.242037 -80.790189 
L 169.835753 -77.543459 
L 168.429468 -74.52663 
L 167.023184 -71.734483 
L 165.6169 -69.16047 
L 164.210615 -66.796888 
L 162.804331 -64.635061 
L 161.398047 -62.665526 
L 159.991763 -60.878204 
L 158.585478 -59.262579 
L 157.179194 -57.807855 
L 155.77291 -56.503109 
L 154.366625 -55.337429 
L 152.960341 -54.300032 
L 151.554057 -53.380377 
L 150.147773 -52.568253 
L 148.741488 -51.853855 
L 147.335204 -51.227843 
L 145.92892 -50.681393 
L 144.522635 -50.206224 
L 143.116351 -49.794623 
L 141.710067 -49.43945 
L 140.303783 -49.13414 
L 138.897498 -48.872696 
L 137.491214 -48.649668 
L 136.08493 -48.460135 
L 134.678645 -48.29968 
L 133.272361 -48.164357 
z
" style="stroke: #fa8072"/>
    </defs>
    <g clip-path="url(#p2787b98e17)">
     <use xlink:href="#mbd62707285" x="0" y="432" style="fill: #fa8072; fill-opacity: 0.25; stroke: #fa8072"/>
    </g>
   </g>
   <g id="matplotlib.axis_1">
    <g id="xtick_1">
     <g id="line2d_1">
      <defs>
       <path id="m92b1af4111" d="M 0 0 
L 0 3.5 
" style="stroke: #000000; stroke-width: 0.8"/>
      </defs>
      <g>
       <use xlink:href="#m92b1af4111" x="128.537972" y="384.48" style="stroke: #000000; stroke-width: 0.8"/>
      </g>
     </g>
     <g id="text_1">
      <!-- 10 -->
      <g transform="translate(122.977034 398.653437) scale(0.1 -0.1)">
       <defs>
        <path id="Helvetica-31" d="M 613 3169 
L 613 3600 
Q 1222 3659 1462 3798 
Q 1703 3938 1822 4456 
L 2266 4456 
L 2266 0 
L 1666 0 
L 1666 3169 
L 613 3169 
z
" transform="scale(0.015625)"/>
        <path id="Helvetica-30" d="M 1731 4475 
Q 2600 4475 2988 3759 
Q 3288 3206 3288 2244 
Q 3288 1331 3016 734 
Q 2622 -122 1728 -122 
Q 922 -122 528 578 
Q 200 1163 200 2147 
Q 200 2909 397 3456 
Q 766 4475 1731 4475 
z
M 1725 391 
Q 2163 391 2422 778 
Q 2681 1166 2681 2222 
Q 2681 2984 2493 3476 
Q 2306 3969 1766 3969 
Q 1269 3969 1039 3501 
Q 809 3034 809 2125 
Q 809 1441 956 1025 
Q 1181 391 1725 391 
z
" transform="scale(0.015625)"/>
       </defs>
       <use xlink:href="#Helvetica-31"/>
       <use xlink:href="#Helvetica-30" x="55.615234"/>
      </g>
     </g>
    </g>
    <g id="xtick_2">
     <g id="line2d_2">
      <g>
       <use xlink:href="#m92b1af4111" x="221.179455" y="384.48" style="stroke: #000000; stroke-width: 0.8"/>
      </g>
     </g>
     <g id="text_2">
      <!-- 20 -->
      <g transform="translate(215.618518 398.653437) scale(0.1 -0.1)">
       <defs>
        <path id="Helvetica-32" d="M 200 0 
Q 231 578 439 1006 
Q 647 1434 1250 1784 
L 1850 2131 
Q 2253 2366 2416 2531 
Q 2672 2791 2672 3125 
Q 2672 3516 2437 3745 
Q 2203 3975 1813 3975 
Q 1234 3975 1013 3538 
Q 894 3303 881 2888 
L 309 2888 
Q 319 3472 525 3841 
Q 891 4491 1816 4491 
Q 2584 4491 2939 4075 
Q 3294 3659 3294 3150 
Q 3294 2613 2916 2231 
Q 2697 2009 2131 1694 
L 1703 1456 
Q 1397 1288 1222 1134 
Q 909 863 828 531 
L 3272 531 
L 3272 0 
L 200 0 
z
" transform="scale(0.015625)"/>
       </defs>
       <use xlink:href="#Helvetica-32"/>
       <use xlink:href="#Helvetica-30" x="55.615234"/>
      </g>
     </g>
    </g>
    <g id="xtick_3">
     <g id="line2d_3">
      <g>
       <use xlink:href="#m92b1af4111" x="313.820938" y="384.48" style="stroke: #000000; stroke-width: 0.8"/>
      </g>
     </g>
     <g id="text_3">
      <!-- 30 -->
      <g transform="translate(308.260001 398.653437) scale(0.1 -0.1)">
       <defs>
        <path id="Helvetica-33" d="M 1663 -122 
Q 869 -122 511 314 
Q 153 750 153 1375 
L 741 1375 
Q 778 941 903 744 
Q 1122 391 1694 391 
Q 2138 391 2406 628 
Q 2675 866 2675 1241 
Q 2675 1703 2392 1887 
Q 2109 2072 1606 2072 
Q 1550 2072 1492 2070 
Q 1434 2069 1375 2066 
L 1375 2563 
Q 1463 2553 1522 2550 
Q 1581 2547 1650 2547 
Q 1966 2547 2169 2647 
Q 2525 2822 2525 3272 
Q 2525 3606 2287 3787 
Q 2050 3969 1734 3969 
Q 1172 3969 956 3594 
Q 838 3388 822 3006 
L 266 3006 
Q 266 3506 466 3856 
Q 809 4481 1675 4481 
Q 2359 4481 2734 4176 
Q 3109 3872 3109 3294 
Q 3109 2881 2888 2625 
Q 2750 2466 2531 2375 
Q 2884 2278 3082 2001 
Q 3281 1725 3281 1325 
Q 3281 684 2859 281 
Q 2438 -122 1663 -122 
z
" transform="scale(0.015625)"/>
       </defs>
       <use xlink:href="#Helvetica-33"/>
       <use xlink:href="#Helvetica-30" x="55.615234"/>
      </g>
     </g>
    </g>
    <g id="xtick_4">
     <g id="line2d_4">
      <g>
       <use xlink:href="#m92b1af4111" x="406.462421" y="384.48" style="stroke: #000000; stroke-width: 0.8"/>
      </g>
     </g>
     <g id="text_4">
      <!-- 40 -->
      <g transform="translate(400.901484 398.653437) scale(0.1 -0.1)">
       <defs>
        <path id="Helvetica-34" d="M 2116 1584 
L 2116 3613 
L 681 1584 
L 2116 1584 
z
M 2125 0 
L 2125 1094 
L 163 1094 
L 163 1644 
L 2213 4488 
L 2688 4488 
L 2688 1584 
L 3347 1584 
L 3347 1094 
L 2688 1094 
L 2688 0 
L 2125 0 
z
" transform="scale(0.015625)"/>
       </defs>
       <use xlink:href="#Helvetica-34"/>
       <use xlink:href="#Helvetica-30" x="55.615234"/>
      </g>
     </g>
    </g>
    <g id="xtick_5">
     <g id="line2d_5">
      <g>
       <use xlink:href="#m92b1af4111" x="499.103904" y="384.48" style="stroke: #000000; stroke-width: 0.8"/>
      </g>
     </g>
     <g id="text_5">
      <!-- 50 -->
      <g transform="translate(493.542967 398.653437) scale(0.1 -0.1)">
       <defs>
        <path id="Helvetica-35" d="M 791 1141 
Q 847 659 1238 475 
Q 1438 381 1700 381 
Q 2200 381 2440 700 
Q 2681 1019 2681 1406 
Q 2681 1875 2395 2131 
Q 2109 2388 1709 2388 
Q 1419 2388 1211 2275 
Q 1003 2163 856 1963 
L 369 1991 
L 709 4400 
L 3034 4400 
L 3034 3856 
L 1131 3856 
L 941 2613 
Q 1097 2731 1238 2791 
Q 1488 2894 1816 2894 
Q 2431 2894 2859 2497 
Q 3288 2100 3288 1491 
Q 3288 856 2895 371 
Q 2503 -113 1644 -113 
Q 1097 -113 676 195 
Q 256 503 206 1141 
L 791 1141 
z
" transform="scale(0.015625)"/>
       </defs>
       <use xlink:href="#Helvetica-35"/>
       <use xlink:href="#Helvetica-30" x="55.615234"/>
      </g>
     </g>
    </g>
    <g id="text_6">
     <!-- % Area -->
     <g transform="translate(278.803906 411.91125) scale(0.1 -0.1)">
      <defs>
       <path id="Helvetica-25" d="M 4363 2175 
Q 4813 2175 5131 1856 
Q 5450 1538 5450 1088 
Q 5450 638 5131 319 
Q 4813 0 4363 0 
Q 3909 0 3590 319 
Q 3272 638 3272 1088 
Q 3272 1538 3590 1856 
Q 3909 2175 4363 2175 
z
M 3909 4456 
L 4256 4456 
L 1753 -119 
L 1406 -119 
L 3909 4456 
z
M 1294 2606 
Q 1563 2606 1752 2795 
Q 1941 2984 1941 3250 
Q 1941 3516 1752 3705 
Q 1563 3894 1294 3894 
Q 1028 3894 839 3706 
Q 650 3519 650 3250 
Q 650 2984 839 2795 
Q 1028 2606 1294 2606 
z
M 1294 4341 
Q 1747 4341 2065 4020 
Q 2384 3700 2384 3250 
Q 2384 2800 2065 2481 
Q 1747 2163 1294 2163 
Q 844 2163 525 2481 
Q 206 2800 206 3250 
Q 206 3700 525 4020 
Q 844 4341 1294 4341 
z
M 4363 444 
Q 4628 444 4817 633 
Q 5006 822 5006 1088 
Q 5006 1353 4817 1542 
Q 4628 1731 4363 1731 
Q 4094 1731 3905 1542 
Q 3716 1353 3716 1088 
Q 3716 822 3905 633 
Q 4094 444 4363 444 
z
" transform="scale(0.015625)"/>
       <path id="Helvetica-20" transform="scale(0.015625)"/>
       <path id="Helvetica-41" d="M 2844 1881 
L 2147 3909 
L 1406 1881 
L 2844 1881 
z
M 1822 4591 
L 2525 4591 
L 4191 0 
L 3509 0 
L 3044 1375 
L 1228 1375 
L 731 0 
L 94 0 
L 1822 4591 
z
" transform="scale(0.015625)"/>
       <path id="Helvetica-72" d="M 428 3347 
L 963 3347 
L 963 2769 
Q 1028 2938 1284 3180 
Q 1541 3422 1875 3422 
Q 1891 3422 1928 3419 
Q 1966 3416 2056 3406 
L 2056 2813 
Q 2006 2822 1964 2825 
Q 1922 2828 1872 2828 
Q 1447 2828 1219 2554 
Q 991 2281 991 1925 
L 991 0 
L 428 0 
L 428 3347 
z
" transform="scale(0.015625)"/>
       <path id="Helvetica-65" d="M 1806 3422 
Q 2163 3422 2497 3255 
Q 2831 3088 3006 2822 
Q 3175 2569 3231 2231 
Q 3281 2000 3281 1494 
L 828 1494 
Q 844 984 1069 676 
Q 1294 369 1766 369 
Q 2206 369 2469 659 
Q 2619 828 2681 1050 
L 3234 1050 
Q 3213 866 3089 639 
Q 2966 413 2813 269 
Q 2556 19 2178 -69 
Q 1975 -119 1719 -119 
Q 1094 -119 659 336 
Q 225 791 225 1609 
Q 225 2416 662 2919 
Q 1100 3422 1806 3422 
z
M 2703 1941 
Q 2669 2306 2544 2525 
Q 2313 2931 1772 2931 
Q 1384 2931 1121 2651 
Q 859 2372 844 1941 
L 2703 1941 
z
M 1753 3428 
L 1753 3428 
z
" transform="scale(0.015625)"/>
       <path id="Helvetica-61" d="M 844 891 
Q 844 647 1022 506 
Q 1200 366 1444 366 
Q 1741 366 2019 503 
Q 2488 731 2488 1250 
L 2488 1703 
Q 2384 1638 2221 1594 
Q 2059 1550 1903 1531 
L 1563 1488 
Q 1256 1447 1103 1359 
Q 844 1213 844 891 
z
M 2206 2028 
Q 2400 2053 2466 2191 
Q 2503 2266 2503 2406 
Q 2503 2694 2298 2823 
Q 2094 2953 1713 2953 
Q 1272 2953 1088 2716 
Q 984 2584 953 2325 
L 428 2325 
Q 444 2944 830 3186 
Q 1216 3428 1725 3428 
Q 2316 3428 2684 3203 
Q 3050 2978 3050 2503 
L 3050 575 
Q 3050 488 3086 434 
Q 3122 381 3238 381 
Q 3275 381 3322 386 
Q 3369 391 3422 400 
L 3422 -16 
Q 3291 -53 3222 -62 
Q 3153 -72 3034 -72 
Q 2744 -72 2613 134 
Q 2544 244 2516 444 
Q 2344 219 2022 53 
Q 1700 -113 1313 -113 
Q 847 -113 551 170 
Q 256 453 256 878 
Q 256 1344 547 1600 
Q 838 1856 1309 1916 
L 2206 2028 
z
M 1741 3428 
L 1741 3428 
z
" transform="scale(0.015625)"/>
      </defs>
      <use xlink:href="#Helvetica-25"/>
      <use xlink:href="#Helvetica-20" x="88.916016"/>
      <use xlink:href="#Helvetica-41" x="116.699219"/>
      <use xlink:href="#Helvetica-72" x="183.398438"/>
      <use xlink:href="#Helvetica-65" x="216.699219"/>
      <use xlink:href="#Helvetica-61" x="272.314453"/>
     </g>
    </g>
   </g>
   <g id="matplotlib.axis_2">
    <g id="ytick_1">
     <g id="line2d_6">
      <defs>
       <path id="m5ba4e4f8e1" d="M 0 0 
L -3.5 0 
" style="stroke: #000000; stroke-width: 0.8"/>
      </defs>
      <g>
       <use xlink:href="#m5ba4e4f8e1" x="72" y="384.48" style="stroke: #000000; stroke-width: 0.8"/>
      </g>
     </g>
     <g id="text_7">
      <!-- 0.00 -->
      <g transform="translate(45.539062 388.066719) scale(0.1 -0.1)">
       <defs>
        <path id="Helvetica-2e" d="M 547 681 
L 1200 681 
L 1200 0 
L 547 0 
L 547 681 
z
" transform="scale(0.015625)"/>
       </defs>
       <use xlink:href="#Helvetica-30"/>
       <use xlink:href="#Helvetica-2e" x="55.615234"/>
       <use xlink:href="#Helvetica-30" x="83.398438"/>
       <use xlink:href="#Helvetica-30" x="139.013672"/>
      </g>
     </g>
    </g>
    <g id="ytick_2">
     <g id="line2d_7">
      <g>
       <use xlink:href="#m5ba4e4f8e1" x="72" y="347.175195" style="stroke: #000000; stroke-width: 0.8"/>
      </g>
     </g>
     <g id="text_8">
      <!-- 0.01 -->
      <g transform="translate(45.539062 350.761914) scale(0.1 -0.1)">
       <use xlink:href="#Helvetica-30"/>
       <use xlink:href="#Helvetica-2e" x="55.615234"/>
       <use xlink:href="#Helvetica-30" x="83.398438"/>
       <use xlink:href="#Helvetica-31" x="139.013672"/>
      </g>
     </g>
    </g>
    <g id="ytick_3">
     <g id="line2d_8">
      <g>
       <use xlink:href="#m5ba4e4f8e1" x="72" y="309.870391" style="stroke: #000000; stroke-width: 0.8"/>
      </g>
     </g>
     <g id="text_9">
      <!-- 0.02 -->
      <g transform="translate(45.539062 313.457109) scale(0.1 -0.1)">
       <use xlink:href="#Helvetica-30"/>
       <use xlink:href="#Helvetica-2e" x="55.615234"/>
       <use xlink:href="#Helvetica-30" x="83.398438"/>
       <use xlink:href="#Helvetica-32" x="139.013672"/>
      </g>
     </g>
    </g>
    <g id="ytick_4">
     <g id="line2d_9">
      <g>
       <use xlink:href="#m5ba4e4f8e1" x="72" y="272.565586" style="stroke: #000000; stroke-width: 0.8"/>
      </g>
     </g>
     <g id="text_10">
      <!-- 0.03 -->
      <g transform="translate(45.539062 276.152305) scale(0.1 -0.1)">
       <use xlink:href="#Helvetica-30"/>
       <use xlink:href="#Helvetica-2e" x="55.615234"/>
       <use xlink:href="#Helvetica-30" x="83.398438"/>
       <use xlink:href="#Helvetica-33" x="139.013672"/>
      </g>
     </g>
    </g>
    <g id="ytick_5">
     <g id="line2d_10">
      <g>
       <use xlink:href="#m5ba4e4f8e1" x="72" y="235.260781" style="stroke: #000000; stroke-width: 0.8"/>
      </g>
     </g>
     <g id="text_11">
      <!-- 0.04 -->
      <g transform="translate(45.539062 238.8475) scale(0.1 -0.1)">
       <use xlink:href="#Helvetica-30"/>
       <use xlink:href="#Helvetica-2e" x="55.615234"/>
       <use xlink:href="#Helvetica-30" x="83.398438"/>
       <use xlink:href="#Helvetica-34" x="139.013672"/>
      </g>
     </g>
    </g>
    <g id="ytick_6">
     <g id="line2d_11">
      <g>
       <use xlink:href="#m5ba4e4f8e1" x="72" y="197.955976" style="stroke: #000000; stroke-width: 0.8"/>
      </g>
     </g>
     <g id="text_12">
      <!-- 0.05 -->
      <g transform="translate(45.539062 201.542695) scale(0.1 -0.1)">
       <use xlink:href="#Helvetica-30"/>
       <use xlink:href="#Helvetica-2e" x="55.615234"/>
       <use xlink:href="#Helvetica-30" x="83.398438"/>
       <use xlink:href="#Helvetica-35" x="139.013672"/>
      </g>
     </g>
    </g>
    <g id="ytick_7">
     <g id="line2d_12">
      <g>
       <use xlink:href="#m5ba4e4f8e1" x="72" y="160.651172" style="stroke: #000000; stroke-width: 0.8"/>
      </g>
     </g>
     <g id="text_13">
      <!-- 0.06 -->
      <g transform="translate(45.539062 164.23789) scale(0.1 -0.1)">
       <defs>
        <path id="Helvetica-36" d="M 1872 4494 
Q 2622 4494 2917 4105 
Q 3213 3716 3213 3303 
L 2656 3303 
Q 2606 3569 2497 3719 
Q 2294 4000 1881 4000 
Q 1409 4000 1131 3564 
Q 853 3128 822 2316 
Q 1016 2600 1309 2741 
Q 1578 2866 1909 2866 
Q 2472 2866 2890 2506 
Q 3309 2147 3309 1434 
Q 3309 825 2912 354 
Q 2516 -116 1781 -116 
Q 1153 -116 697 361 
Q 241 838 241 1966 
Q 241 2800 444 3381 
Q 834 4494 1872 4494 
z
M 1831 384 
Q 2275 384 2495 682 
Q 2716 981 2716 1388 
Q 2716 1731 2519 2042 
Q 2322 2353 1803 2353 
Q 1441 2353 1167 2112 
Q 894 1872 894 1388 
Q 894 963 1142 673 
Q 1391 384 1831 384 
z
" transform="scale(0.015625)"/>
       </defs>
       <use xlink:href="#Helvetica-30"/>
       <use xlink:href="#Helvetica-2e" x="55.615234"/>
       <use xlink:href="#Helvetica-30" x="83.398438"/>
       <use xlink:href="#Helvetica-36" x="139.013672"/>
      </g>
     </g>
    </g>
    <g id="ytick_8">
     <g id="line2d_13">
      <g>
       <use xlink:href="#m5ba4e4f8e1" x="72" y="123.346367" style="stroke: #000000; stroke-width: 0.8"/>
      </g>
     </g>
     <g id="text_14">
      <!-- 0.07 -->
      <g transform="translate(45.539062 126.933086) scale(0.1 -0.1)">
       <defs>
        <path id="Helvetica-37" d="M 3347 4400 
L 3347 3909 
Q 3131 3700 2773 3181 
Q 2416 2663 2141 2063 
Q 1869 1478 1728 997 
Q 1638 688 1494 0 
L 872 0 
Q 1084 1281 1809 2550 
Q 2238 3294 2709 3834 
L 234 3834 
L 234 4400 
L 3347 4400 
z
" transform="scale(0.015625)"/>
       </defs>
       <use xlink:href="#Helvetica-30"/>
       <use xlink:href="#Helvetica-2e" x="55.615234"/>
       <use xlink:href="#Helvetica-30" x="83.398438"/>
       <use xlink:href="#Helvetica-37" x="139.013672"/>
      </g>
     </g>
    </g>
    <g id="ytick_9">
     <g id="line2d_14">
      <g>
       <use xlink:href="#m5ba4e4f8e1" x="72" y="86.041562" style="stroke: #000000; stroke-width: 0.8"/>
      </g>
     </g>
     <g id="text_15">
      <!-- 0.08 -->
      <g transform="translate(45.539062 89.628281) scale(0.1 -0.1)">
       <defs>
        <path id="Helvetica-38" d="M 1741 2600 
Q 2113 2600 2322 2808 
Q 2531 3016 2531 3303 
Q 2531 3553 2331 3762 
Q 2131 3972 1722 3972 
Q 1316 3972 1134 3762 
Q 953 3553 953 3272 
Q 953 2956 1187 2778 
Q 1422 2600 1741 2600 
z
M 1775 384 
Q 2166 384 2423 595 
Q 2681 806 2681 1225 
Q 2681 1659 2415 1884 
Q 2150 2109 1734 2109 
Q 1331 2109 1076 1879 
Q 822 1650 822 1244 
Q 822 894 1055 639 
Q 1288 384 1775 384 
z
M 975 2384 
Q 741 2484 609 2619 
Q 363 2869 363 3269 
Q 363 3769 725 4128 
Q 1088 4488 1753 4488 
Q 2397 4488 2762 4148 
Q 3128 3809 3128 3356 
Q 3128 2938 2916 2678 
Q 2797 2531 2547 2391 
Q 2825 2263 2984 2097 
Q 3281 1784 3281 1284 
Q 3281 694 2884 283 
Q 2488 -128 1763 -128 
Q 1109 -128 657 226 
Q 206 581 206 1256 
Q 206 1653 400 1942 
Q 594 2231 975 2384 
z
" transform="scale(0.015625)"/>
       </defs>
       <use xlink:href="#Helvetica-30"/>
       <use xlink:href="#Helvetica-2e" x="55.615234"/>
       <use xlink:href="#Helvetica-30" x="83.398438"/>
       <use xlink:href="#Helvetica-38" x="139.013672"/>
      </g>
     </g>
    </g>
    <g id="text_16">
     <!-- Density -->
     <g transform="translate(39.395312 234.831875) rotate(-90) scale(0.1 -0.1)">
      <defs>
       <path id="Helvetica-44" d="M 2250 531 
Q 2566 531 2769 597 
Q 3131 719 3363 1066 
Q 3547 1344 3628 1778 
Q 3675 2038 3675 2259 
Q 3675 3113 3336 3584 
Q 2997 4056 2244 4056 
L 1141 4056 
L 1141 531 
L 2250 531 
z
M 516 4591 
L 2375 4591 
Q 3322 4591 3844 3919 
Q 4309 3313 4309 2366 
Q 4309 1634 4034 1044 
Q 3550 0 2369 0 
L 516 0 
L 516 4591 
z
" transform="scale(0.015625)"/>
       <path id="Helvetica-6e" d="M 413 3347 
L 947 3347 
L 947 2872 
Q 1184 3166 1450 3294 
Q 1716 3422 2041 3422 
Q 2753 3422 3003 2925 
Q 3141 2653 3141 2147 
L 3141 0 
L 2569 0 
L 2569 2109 
Q 2569 2416 2478 2603 
Q 2328 2916 1934 2916 
Q 1734 2916 1606 2875 
Q 1375 2806 1200 2600 
Q 1059 2434 1017 2257 
Q 975 2081 975 1753 
L 975 0 
L 413 0 
L 413 3347 
z
M 1734 3428 
L 1734 3428 
z
" transform="scale(0.015625)"/>
       <path id="Helvetica-73" d="M 747 1050 
Q 772 769 888 619 
Q 1100 347 1625 347 
Q 1938 347 2175 483 
Q 2413 619 2413 903 
Q 2413 1119 2222 1231 
Q 2100 1300 1741 1391 
L 1294 1503 
Q 866 1609 663 1741 
Q 300 1969 300 2372 
Q 300 2847 642 3140 
Q 984 3434 1563 3434 
Q 2319 3434 2653 2991 
Q 2863 2709 2856 2384 
L 2325 2384 
Q 2309 2575 2191 2731 
Q 1997 2953 1519 2953 
Q 1200 2953 1036 2831 
Q 872 2709 872 2509 
Q 872 2291 1088 2159 
Q 1213 2081 1456 2022 
L 1828 1931 
Q 2434 1784 2641 1647 
Q 2969 1431 2969 969 
Q 2969 522 2630 197 
Q 2291 -128 1597 -128 
Q 850 -128 539 211 
Q 228 550 206 1050 
L 747 1050 
z
M 1578 3428 
L 1578 3428 
z
" transform="scale(0.015625)"/>
       <path id="Helvetica-69" d="M 413 3331 
L 984 3331 
L 984 0 
L 413 0 
L 413 3331 
z
M 413 4591 
L 984 4591 
L 984 3953 
L 413 3953 
L 413 4591 
z
" transform="scale(0.015625)"/>
       <path id="Helvetica-74" d="M 525 4281 
L 1094 4281 
L 1094 3347 
L 1628 3347 
L 1628 2888 
L 1094 2888 
L 1094 703 
Q 1094 528 1213 469 
Q 1278 434 1431 434 
Q 1472 434 1519 436 
Q 1566 438 1628 444 
L 1628 0 
Q 1531 -28 1426 -40 
Q 1322 -53 1200 -53 
Q 806 -53 665 148 
Q 525 350 525 672 
L 525 2888 
L 72 2888 
L 72 3347 
L 525 3347 
L 525 4281 
z
" transform="scale(0.015625)"/>
       <path id="Helvetica-79" d="M 2503 3347 
L 3125 3347 
Q 3006 3025 2597 1878 
Q 2291 1016 2084 472 
Q 1597 -809 1397 -1090 
Q 1197 -1372 709 -1372 
Q 591 -1372 527 -1362 
Q 463 -1353 369 -1328 
L 369 -816 
Q 516 -856 581 -865 
Q 647 -875 697 -875 
Q 853 -875 926 -823 
Q 1000 -772 1050 -697 
Q 1066 -672 1162 -440 
Q 1259 -209 1303 -97 
L 66 3347 
L 703 3347 
L 1600 622 
L 2503 3347 
z
M 1597 3428 
L 1597 3428 
z
" transform="scale(0.015625)"/>
      </defs>
      <use xlink:href="#Helvetica-44"/>
      <use xlink:href="#Helvetica-65" x="72.216797"/>
      <use xlink:href="#Helvetica-6e" x="127.832031"/>
      <use xlink:href="#Helvetica-73" x="183.447266"/>
      <use xlink:href="#Helvetica-69" x="233.447266"/>
      <use xlink:href="#Helvetica-74" x="255.664062"/>
      <use xlink:href="#Helvetica-79" x="283.447266"/>
     </g>
    </g>
   </g>
   <g id="patch_3">
    <path d="M 72 384.48 
L 72 51.84 
" style="fill: none; stroke: #000000; stroke-width: 0.8; stroke-linejoin: miter; stroke-linecap: square"/>
   </g>
   <g id="patch_4">
    <path d="M 518.4 384.48 
L 518.4 51.84 
" style="fill: none; stroke: #000000; stroke-width: 0.8; stroke-linejoin: miter; stroke-linecap: square"/>
   </g>
   <g id="patch_5">
    <path d="M 72 384.48 
L 518.4 384.48 
" style="fill: none; stroke: #000000; stroke-width: 0.8; stroke-linejoin: miter; stroke-linecap: square"/>
   </g>
   <g id="patch_6">
    <path d="M 72 51.84 
L 518.4 51.84 
" style="fill: none; stroke: #000000; stroke-width: 0.8; stroke-linejoin: miter; stroke-linecap: square"/>
   </g>
   <g id="legend_1">
    <g id="patch_7">
     <path d="M 434.373437 88.355625 
L 511.4 88.355625 
Q 513.4 88.355625 513.4 86.355625 
L 513.4 58.84 
Q 513.4 56.84 511.4 56.84 
L 434.373437 56.84 
Q 432.373437 56.84 432.373437 58.84 
L 432.373437 86.355625 
Q 432.373437 88.355625 434.373437 88.355625 
z
" style="fill: #ffffff; opacity: 0.8; stroke: #cccccc; stroke-linejoin: miter"/>
    </g>
    <g id="patch_8">
     <path d="M 436.373437 68.013437 
L 456.373437 68.013437 
L 456.373437 61.013437 
L 436.373437 61.013437 
z
" style="fill: #87ceeb; fill-opacity: 0.25; stroke: #87ceeb; stroke-linejoin: miter"/>
    </g>
    <g id="text_17">
     <!-- Alive -->
     <g transform="translate(464.373437 68.013437) scale(0.1 -0.1)">
      <defs>
       <path id="Helvetica-6c" d="M 428 4591 
L 991 4591 
L 991 0 
L 428 0 
L 428 4591 
z
" transform="scale(0.015625)"/>
       <path id="Helvetica-76" d="M 688 3347 
L 1581 622 
L 2516 3347 
L 3131 3347 
L 1869 0 
L 1269 0 
L 34 3347 
L 688 3347 
z
" transform="scale(0.015625)"/>
      </defs>
      <use xlink:href="#Helvetica-41"/>
      <use xlink:href="#Helvetica-6c" x="66.699219"/>
      <use xlink:href="#Helvetica-69" x="88.916016"/>
      <use xlink:href="#Helvetica-76" x="111.132812"/>
      <use xlink:href="#Helvetica-65" x="161.132812"/>
     </g>
    </g>
    <g id="patch_9">
     <path d="M 436.373437 82.27125 
L 456.373437 82.27125 
L 456.373437 75.27125 
L 436.373437 75.27125 
z
" style="fill: #fa8072; fill-opacity: 0.25; stroke: #fa8072; stroke-linejoin: miter"/>
    </g>
    <g id="text_18">
     <!-- Deceased -->
     <g transform="translate(464.373437 82.27125) scale(0.1 -0.1)">
      <defs>
       <path id="Helvetica-63" d="M 1703 3444 
Q 2269 3444 2623 3169 
Q 2978 2894 3050 2222 
L 2503 2222 
Q 2453 2531 2275 2736 
Q 2097 2941 1703 2941 
Q 1166 2941 934 2416 
Q 784 2075 784 1575 
Q 784 1072 996 728 
Q 1209 384 1666 384 
Q 2016 384 2220 598 
Q 2425 813 2503 1184 
L 3050 1184 
Q 2956 519 2581 211 
Q 2206 -97 1622 -97 
Q 966 -97 575 383 
Q 184 863 184 1581 
Q 184 2463 612 2953 
Q 1041 3444 1703 3444 
z
M 1616 3428 
L 1616 3428 
z
" transform="scale(0.015625)"/>
       <path id="Helvetica-64" d="M 769 1634 
Q 769 1097 997 734 
Q 1225 372 1728 372 
Q 2119 372 2370 708 
Q 2622 1044 2622 1672 
Q 2622 2306 2362 2611 
Q 2103 2916 1722 2916 
Q 1297 2916 1033 2591 
Q 769 2266 769 1634 
z
M 1616 3406 
Q 2000 3406 2259 3244 
Q 2409 3150 2600 2916 
L 2600 4606 
L 3141 4606 
L 3141 0 
L 2634 0 
L 2634 466 
Q 2438 156 2169 18 
Q 1900 -119 1553 -119 
Q 994 -119 584 351 
Q 175 822 175 1603 
Q 175 2334 548 2870 
Q 922 3406 1616 3406 
z
" transform="scale(0.015625)"/>
      </defs>
      <use xlink:href="#Helvetica-44"/>
      <use xlink:href="#Helvetica-65" x="72.216797"/>
      <use xlink:href="#Helvetica-63" x="127.832031"/>
      <use xlink:href="#Helvetica-65" x="177.832031"/>
      <use xlink:href="#Helvetica-61" x="233.447266"/>
      <use xlink:href="#Helvetica-73" x="289.0625"/>
      <use xlink:href="#Helvetica-65" x="339.0625"/>
      <use xlink:href="#Helvetica-64" x="394.677734"/>
     </g>
    </g>
   </g>
  </g>
 </g>
 <defs>
  <clipPath id="p2787b98e17">
   <rect x="72" y="51.84" width="446.4" height="332.64"/>
  </clipPath>
 </defs>
</svg>
