<?xml version="1.0" encoding="utf-8" standalone="no"?>
<!DOCTYPE svg PUBLIC "-//W3C//DTD SVG 1.1//EN"
  "http://www.w3.org/Graphics/SVG/1.1/DTD/svg11.dtd">
<svg xmlns:xlink="http://www.w3.org/1999/xlink" width="576pt" height="432pt" viewBox="0 0 576 432" xmlns="http://www.w3.org/2000/svg" version="1.1">
 <metadata>
  <rdf:RDF xmlns:dc="http://purl.org/dc/elements/1.1/" xmlns:cc="http://creativecommons.org/ns#" xmlns:rdf="http://www.w3.org/1999/02/22-rdf-syntax-ns#">
   <cc:Work>
    <dc:type rdf:resource="http://purl.org/dc/dcmitype/StillImage"/>
    <dc:date>2023-11-06T21:01:28.338604</dc:date>
    <dc:format>image/svg+xml</dc:format>
    <dc:creator>
     <cc:Agent>
      <dc:title>Matplotlib v3.7.2, https://matplotlib.org/</dc:title>
     </cc:Agent>
    </dc:creator>
   </cc:Work>
  </rdf:RDF>
 </metadata>
 <defs>
  <style type="text/css">*{stroke-linejoin: round; stroke-linecap: butt}</style>
 </defs>
 <g id="figure_1">
  <g id="patch_1">
   <path d="M 0 432 
L 576 432 
L 576 0 
L 0 0 
z
" style="fill: #ffffff"/>
  </g>
  <g id="axes_1">
   <g id="patch_2">
    <path d="M 72 384.48 
L 518.4 384.48 
L 518.4 51.84 
L 72 51.84 
z
" style="fill: #ffffff"/>
   </g>
   <g id="PolyCollection_1">
    <defs>
     <path id="m0fabca098f" d="M 113.798291 -50.896253 
L 113.798291 -47.52 
L 115.456138 -47.52 
L 117.113986 -47.52 
L 118.771833 -47.52 
L 120.429681 -47.52 
L 122.087528 -47.52 
L 123.745375 -47.52 
L 125.403223 -47.52 
L 127.06107 -47.52 
L 128.718918 -47.52 
L 130.376765 -47.52 
L 132.034612 -47.52 
L 133.69246 -47.52 
L 135.350307 -47.52 
L 137.008155 -47.52 
L 138.666002 -47.52 
L 140.32385 -47.52 
L 141.981697 -47.52 
L 143.639544 -47.52 
L 145.297392 -47.52 
L 146.955239 -47.52 
L 148.613087 -47.52 
L 150.270934 -47.52 
L 151.928781 -47.52 
L 153.586629 -47.52 
L 155.244476 -47.52 
L 156.902324 -47.52 
L 158.560171 -47.52 
L 160.218018 -47.52 
L 161.875866 -47.52 
L 163.533713 -47.52 
L 165.191561 -47.52 
L 166.849408 -47.52 
L 168.507256 -47.52 
L 170.165103 -47.52 
L 171.82295 -47.52 
L 173.480798 -47.52 
L 175.138645 -47.52 
L 176.796493 -47.52 
L 178.45434 -47.52 
L 180.112187 -47.52 
L 181.770035 -47.52 
L 183.427882 -47.52 
L 185.08573 -47.52 
L 186.743577 -47.52 
L 188.401424 -47.52 
L 190.059272 -47.52 
L 191.717119 -47.52 
L 193.374967 -47.52 
L 195.032814 -47.52 
L 196.690662 -47.52 
L 198.348509 -47.52 
L 200.006356 -47.52 
L 201.664204 -47.52 
L 203.322051 -47.52 
L 204.979899 -47.52 
L 206.637746 -47.52 
L 208.295593 -47.52 
L 209.953441 -47.52 
L 211.611288 -47.52 
L 213.269136 -47.52 
L 214.926983 -47.52 
L 216.58483 -47.52 
L 218.242678 -47.52 
L 219.900525 -47.52 
L 221.558373 -47.52 
L 223.21622 -47.52 
L 224.874068 -47.52 
L 226.531915 -47.52 
L 228.189762 -47.52 
L 229.84761 -47.52 
L 231.505457 -47.52 
L 233.163305 -47.52 
L 234.821152 -47.52 
L 236.478999 -47.52 
L 238.136847 -47.52 
L 239.794694 -47.52 
L 241.452542 -47.52 
L 243.110389 -47.52 
L 244.768236 -47.52 
L 246.426084 -47.52 
L 248.083931 -47.52 
L 249.741779 -47.52 
L 251.399626 -47.52 
L 253.057474 -47.52 
L 254.715321 -47.52 
L 256.373168 -47.52 
L 258.031016 -47.52 
L 259.688863 -47.52 
L 261.346711 -47.52 
L 263.004558 -47.52 
L 264.662405 -47.52 
L 266.320253 -47.52 
L 267.9781 -47.52 
L 269.635948 -47.52 
L 271.293795 -47.52 
L 272.951643 -47.52 
L 274.60949 -47.52 
L 276.267337 -47.52 
L 277.925185 -47.52 
L 279.583032 -47.52 
L 281.24088 -47.52 
L 282.898727 -47.52 
L 284.556574 -47.52 
L 286.214422 -47.52 
L 287.872269 -47.52 
L 289.530117 -47.52 
L 291.187964 -47.52 
L 292.845811 -47.52 
L 294.503659 -47.52 
L 296.161506 -47.52 
L 297.819354 -47.52 
L 299.477201 -47.52 
L 301.135049 -47.52 
L 302.792896 -47.52 
L 304.450743 -47.52 
L 306.108591 -47.52 
L 307.766438 -47.52 
L 309.424286 -47.52 
L 311.082133 -47.52 
L 312.73998 -47.52 
L 314.397828 -47.52 
L 316.055675 -47.52 
L 317.713523 -47.52 
L 319.37137 -47.52 
L 321.029217 -47.52 
L 322.687065 -47.52 
L 324.344912 -47.52 
L 326.00276 -47.52 
L 327.660607 -47.52 
L 329.318455 -47.52 
L 330.976302 -47.52 
L 332.634149 -47.52 
L 334.291997 -47.52 
L 335.949844 -47.52 
L 337.607692 -47.52 
L 339.265539 -47.52 
L 340.923386 -47.52 
L 342.581234 -47.52 
L 344.239081 -47.52 
L 345.896929 -47.52 
L 347.554776 -47.52 
L 349.212623 -47.52 
L 350.870471 -47.52 
L 352.528318 -47.52 
L 354.186166 -47.52 
L 355.844013 -47.52 
L 357.501861 -47.52 
L 359.159708 -47.52 
L 360.817555 -47.52 
L 362.475403 -47.52 
L 364.13325 -47.52 
L 365.791098 -47.52 
L 367.448945 -47.52 
L 369.106792 -47.52 
L 370.76464 -47.52 
L 372.422487 -47.52 
L 374.080335 -47.52 
L 375.738182 -47.52 
L 377.396029 -47.52 
L 379.053877 -47.52 
L 380.711724 -47.52 
L 382.369572 -47.52 
L 384.027419 -47.52 
L 385.685267 -47.52 
L 387.343114 -47.52 
L 389.000961 -47.52 
L 390.658809 -47.52 
L 392.316656 -47.52 
L 393.974504 -47.52 
L 395.632351 -47.52 
L 397.290198 -47.52 
L 398.948046 -47.52 
L 400.605893 -47.52 
L 402.263741 -47.52 
L 403.921588 -47.52 
L 405.579435 -47.52 
L 407.237283 -47.52 
L 408.89513 -47.52 
L 410.552978 -47.52 
L 412.210825 -47.52 
L 413.868673 -47.52 
L 415.52652 -47.52 
L 417.184367 -47.52 
L 418.842215 -47.52 
L 420.500062 -47.52 
L 422.15791 -47.52 
L 423.815757 -47.52 
L 425.473604 -47.52 
L 427.131452 -47.52 
L 428.789299 -47.52 
L 430.447147 -47.52 
L 432.104994 -47.52 
L 433.762841 -47.52 
L 435.420689 -47.52 
L 437.078536 -47.52 
L 438.736384 -47.52 
L 440.394231 -47.52 
L 442.052079 -47.52 
L 443.709926 -47.52 
L 443.709926 -48.123994 
L 443.709926 -48.123994 
L 442.052079 -48.24222 
L 440.394231 -48.380485 
L 438.736384 -48.541541 
L 437.078536 -48.728388 
L 435.420689 -48.944284 
L 433.762841 -49.192732 
L 432.104994 -49.477478 
L 430.447147 -49.802492 
L 428.789299 -50.171942 
L 427.131452 -50.59017 
L 425.473604 -51.061648 
L 423.815757 -51.590937 
L 422.15791 -52.182626 
L 420.500062 -52.841272 
L 418.842215 -53.571327 
L 417.184367 -54.377059 
L 415.52652 -55.262462 
L 413.868673 -56.231167 
L 412.210825 -57.286344 
L 410.552978 -58.4306 
L 408.89513 -59.66588 
L 407.237283 -60.993368 
L 405.579435 -62.413392 
L 403.921588 -63.925335 
L 402.263741 -65.527555 
L 400.605893 -67.217324 
L 398.948046 -68.99077 
L 397.290198 -70.842848 
L 395.632351 -72.767329 
L 393.974504 -74.756804 
L 392.316656 -76.802724 
L 390.658809 -78.895458 
L 389.000961 -81.024377 
L 387.343114 -83.177969 
L 385.685267 -85.343975 
L 384.027419 -87.509551 
L 382.369572 -89.661455 
L 380.711724 -91.786243 
L 379.053877 -93.870493 
L 377.396029 -95.901033 
L 375.738182 -97.865176 
L 374.080335 -99.750957 
L 372.422487 -101.547367 
L 370.76464 -103.244576 
L 369.106792 -104.834138 
L 367.448945 -106.309179 
L 365.791098 -107.664558 
L 364.13325 -108.896992 
L 362.475403 -110.005154 
L 360.817555 -110.989726 
L 359.159708 -111.853411 
L 357.501861 -112.600909 
L 355.844013 -113.238842 
L 354.186166 -113.775645 
L 352.528318 -114.221406 
L 350.870471 -114.587677 
L 349.212623 -114.887249 
L 347.554776 -115.133894 
L 345.896929 -115.342087 
L 344.239081 -115.526705 
L 342.581234 -115.702724 
L 340.923386 -115.884898 
L 339.265539 -116.087454 
L 337.607692 -116.323789 
L 335.949844 -116.606185 
L 334.291997 -116.94555 
L 332.634149 -117.351188 
L 330.976302 -117.830597 
L 329.318455 -118.389319 
L 327.660607 -119.030819 
L 326.00276 -119.756421 
L 324.344912 -120.565283 
L 322.687065 -121.454424 
L 321.029217 -122.418793 
L 319.37137 -123.451393 
L 317.713523 -124.543431 
L 316.055675 -125.684524 
L 314.397828 -126.862926 
L 312.73998 -128.06579 
L 311.082133 -129.279453 
L 309.424286 -130.489737 
L 307.766438 -131.682257 
L 306.108591 -132.842742 
L 304.450743 -133.95735 
L 302.792896 -135.012968 
L 301.135049 -135.997513 
L 299.477201 -136.900202 
L 297.819354 -137.711811 
L 296.161506 -138.424895 
L 294.503659 -139.03399 
L 292.845811 -139.535783 
L 291.187964 -139.929245 
L 289.530117 -140.215735 
L 287.872269 -140.399073 
L 286.214422 -140.485583 
L 284.556574 -140.484101 
L 282.898727 -140.405961 
L 281.24088 -140.264949 
L 279.583032 -140.077238 
L 277.925185 -139.861297 
L 276.267337 -139.637776 
L 274.60949 -139.429377 
L 272.951643 -139.260695 
L 271.293795 -139.158053 
L 269.635948 -139.149301 
L 267.9781 -139.263609 
L 266.320253 -139.531221 
L 264.662405 -139.983204 
L 263.004558 -140.651152 
L 261.346711 -141.566876 
L 259.688863 -142.762059 
L 258.031016 -144.267878 
L 256.373168 -146.114604 
L 254.715321 -148.331161 
L 253.057474 -150.944662 
L 251.399626 -153.979916 
L 249.741779 -157.458918 
L 248.083931 -161.400315 
L 246.426084 -165.818866 
L 244.768236 -170.724908 
L 243.110389 -176.123824 
L 241.452542 -182.015539 
L 239.794694 -188.394051 
L 238.136847 -195.24701 
L 236.478999 -202.555366 
L 234.821152 -210.293089 
L 233.163305 -218.42699 
L 231.505457 -226.916641 
L 229.84761 -235.714424 
L 228.189762 -244.765694 
L 226.531915 -254.009091 
L 224.874068 -263.376985 
L 223.21622 -272.796068 
L 221.558373 -282.188079 
L 219.900525 -291.470667 
L 218.242678 -300.558379 
L 216.58483 -309.363753 
L 214.926983 -317.798505 
L 213.269136 -325.774789 
L 211.611288 -333.2065 
L 209.953441 -340.010605 
L 208.295593 -346.108458 
L 206.637746 -351.427088 
L 204.979899 -355.900418 
L 203.322051 -359.47039 
L 201.664204 -362.087974 
L 200.006356 -363.714028 
L 198.348509 -364.32 
L 196.690662 -363.888437 
L 195.032814 -362.413307 
L 193.374967 -359.900113 
L 191.717119 -356.3658 
L 190.059272 -351.838459 
L 188.401424 -346.356826 
L 186.743577 -339.969607 
L 185.08573 -332.734622 
L 183.427882 -324.717811 
L 181.770035 -315.992104 
L 180.112187 -306.636206 
L 178.45434 -296.733301 
L 176.796493 -286.369726 
L 175.138645 -275.633628 
L 173.480798 -264.613642 
L 171.82295 -253.397617 
L 170.165103 -242.071405 
L 168.507256 -230.717755 
L 166.849408 -219.415308 
L 165.191561 -208.237726 
L 163.533713 -197.252951 
L 161.875866 -186.52262 
L 160.218018 -176.101619 
L 158.560171 -166.03779 
L 156.902324 -156.371777 
L 155.244476 -147.137016 
L 153.586629 -138.359839 
L 151.928781 -130.059704 
L 150.270934 -122.249516 
L 148.613087 -114.936036 
L 146.955239 -108.120356 
L 145.297392 -101.79843 
L 143.639544 -95.961634 
L 141.981697 -90.597354 
L 140.32385 -85.689579 
L 138.666002 -81.219485 
L 137.008155 -77.166004 
L 135.350307 -73.506368 
L 133.69246 -70.216614 
L 132.034612 -67.272052 
L 130.376765 -64.647684 
L 128.718918 -62.318577 
L 127.06107 -60.260188 
L 125.403223 -58.448637 
L 123.745375 -56.86093 
L 122.087528 -55.475143 
L 120.429681 -54.270552 
L 118.771833 -53.227736 
L 117.113986 -52.328631 
L 115.456138 -51.556564 
L 113.798291 -50.896253 
z
" style="stroke: #87ceeb"/>
    </defs>
    <g clip-path="url(#pd1e47cde5c)">
     <use xlink:href="#m0fabca098f" x="0" y="432" style="fill: #87ceeb; fill-opacity: 0.25; stroke: #87ceeb"/>
    </g>
   </g>
   <g id="PolyCollection_2">
    <defs>
     <path id="m1299cb1ab0" d="M 92.290909 -48.016011 
L 92.290909 -47.52 
L 94.330196 -47.52 
L 96.369484 -47.52 
L 98.408771 -47.52 
L 100.448058 -47.52 
L 102.487346 -47.52 
L 104.526633 -47.52 
L 106.565921 -47.52 
L 108.605208 -47.52 
L 110.644495 -47.52 
L 112.683783 -47.52 
L 114.72307 -47.52 
L 116.762357 -47.52 
L 118.801645 -47.52 
L 120.840932 -47.52 
L 122.880219 -47.52 
L 124.919507 -47.52 
L 126.958794 -47.52 
L 128.998081 -47.52 
L 131.037369 -47.52 
L 133.076656 -47.52 
L 135.115943 -47.52 
L 137.155231 -47.52 
L 139.194518 -47.52 
L 141.233805 -47.52 
L 143.273093 -47.52 
L 145.31238 -47.52 
L 147.351667 -47.52 
L 149.390955 -47.52 
L 151.430242 -47.52 
L 153.469529 -47.52 
L 155.508817 -47.52 
L 157.548104 -47.52 
L 159.587392 -47.52 
L 161.626679 -47.52 
L 163.665966 -47.52 
L 165.705254 -47.52 
L 167.744541 -47.52 
L 169.783828 -47.52 
L 171.823116 -47.52 
L 173.862403 -47.52 
L 175.90169 -47.52 
L 177.940978 -47.52 
L 179.980265 -47.52 
L 182.019552 -47.52 
L 184.05884 -47.52 
L 186.098127 -47.52 
L 188.137414 -47.52 
L 190.176702 -47.52 
L 192.215989 -47.52 
L 194.255276 -47.52 
L 196.294564 -47.52 
L 198.333851 -47.52 
L 200.373138 -47.52 
L 202.412426 -47.52 
L 204.451713 -47.52 
L 206.491 -47.52 
L 208.530288 -47.52 
L 210.569575 -47.52 
L 212.608862 -47.52 
L 214.64815 -47.52 
L 216.687437 -47.52 
L 218.726725 -47.52 
L 220.766012 -47.52 
L 222.805299 -47.52 
L 224.844587 -47.52 
L 226.883874 -47.52 
L 228.923161 -47.52 
L 230.962449 -47.52 
L 233.001736 -47.52 
L 235.041023 -47.52 
L 237.080311 -47.52 
L 239.119598 -47.52 
L 241.158885 -47.52 
L 243.198173 -47.52 
L 245.23746 -47.52 
L 247.276747 -47.52 
L 249.316035 -47.52 
L 251.355322 -47.52 
L 253.394609 -47.52 
L 255.433897 -47.52 
L 257.473184 -47.52 
L 259.512471 -47.52 
L 261.551759 -47.52 
L 263.591046 -47.52 
L 265.630333 -47.52 
L 267.669621 -47.52 
L 269.708908 -47.52 
L 271.748196 -47.52 
L 273.787483 -47.52 
L 275.82677 -47.52 
L 277.866058 -47.52 
L 279.905345 -47.52 
L 281.944632 -47.52 
L 283.98392 -47.52 
L 286.023207 -47.52 
L 288.062494 -47.52 
L 290.101782 -47.52 
L 292.141069 -47.52 
L 294.180356 -47.52 
L 296.219644 -47.52 
L 298.258931 -47.52 
L 300.298218 -47.52 
L 302.337506 -47.52 
L 304.376793 -47.52 
L 306.41608 -47.52 
L 308.455368 -47.52 
L 310.494655 -47.52 
L 312.533942 -47.52 
L 314.57323 -47.52 
L 316.612517 -47.52 
L 318.651804 -47.52 
L 320.691092 -47.52 
L 322.730379 -47.52 
L 324.769667 -47.52 
L 326.808954 -47.52 
L 328.848241 -47.52 
L 330.887529 -47.52 
L 332.926816 -47.52 
L 334.966103 -47.52 
L 337.005391 -47.52 
L 339.044678 -47.52 
L 341.083965 -47.52 
L 343.123253 -47.52 
L 345.16254 -47.52 
L 347.201827 -47.52 
L 349.241115 -47.52 
L 351.280402 -47.52 
L 353.319689 -47.52 
L 355.358977 -47.52 
L 357.398264 -47.52 
L 359.437551 -47.52 
L 361.476839 -47.52 
L 363.516126 -47.52 
L 365.555413 -47.52 
L 367.594701 -47.52 
L 369.633988 -47.52 
L 371.673275 -47.52 
L 373.712563 -47.52 
L 375.75185 -47.52 
L 377.791138 -47.52 
L 379.830425 -47.52 
L 381.869712 -47.52 
L 383.909 -47.52 
L 385.948287 -47.52 
L 387.987574 -47.52 
L 390.026862 -47.52 
L 392.066149 -47.52 
L 394.105436 -47.52 
L 396.144724 -47.52 
L 398.184011 -47.52 
L 400.223298 -47.52 
L 402.262586 -47.52 
L 404.301873 -47.52 
L 406.34116 -47.52 
L 408.380448 -47.52 
L 410.419735 -47.52 
L 412.459022 -47.52 
L 414.49831 -47.52 
L 416.537597 -47.52 
L 418.576884 -47.52 
L 420.616172 -47.52 
L 422.655459 -47.52 
L 424.694746 -47.52 
L 426.734034 -47.52 
L 428.773321 -47.52 
L 430.812608 -47.52 
L 432.851896 -47.52 
L 434.891183 -47.52 
L 436.930471 -47.52 
L 438.969758 -47.52 
L 441.009045 -47.52 
L 443.048333 -47.52 
L 445.08762 -47.52 
L 447.126907 -47.52 
L 449.166195 -47.52 
L 451.205482 -47.52 
L 453.244769 -47.52 
L 455.284057 -47.52 
L 457.323344 -47.52 
L 459.362631 -47.52 
L 461.401919 -47.52 
L 463.441206 -47.52 
L 465.480493 -47.52 
L 467.519781 -47.52 
L 469.559068 -47.52 
L 471.598355 -47.52 
L 473.637643 -47.52 
L 475.67693 -47.52 
L 477.716217 -47.52 
L 479.755505 -47.52 
L 481.794792 -47.52 
L 483.834079 -47.52 
L 485.873367 -47.52 
L 487.912654 -47.52 
L 489.951942 -47.52 
L 491.991229 -47.52 
L 494.030516 -47.52 
L 496.069804 -47.52 
L 498.109091 -47.52 
L 498.109091 -47.812951 
L 498.109091 -47.812951 
L 496.069804 -47.872452 
L 494.030516 -47.942787 
L 491.991229 -48.025673 
L 489.951942 -48.123047 
L 487.912654 -48.237091 
L 485.873367 -48.370249 
L 483.834079 -48.525253 
L 481.794792 -48.705141 
L 479.755505 -48.913277 
L 477.716217 -49.153375 
L 475.67693 -49.429514 
L 473.637643 -49.746159 
L 471.598355 -50.108174 
L 469.559068 -50.520835 
L 467.519781 -50.989837 
L 465.480493 -51.521305 
L 463.441206 -52.121788 
L 461.401919 -52.798255 
L 459.362631 -53.558086 
L 457.323344 -54.40905 
L 455.284057 -55.35928 
L 453.244769 -56.417238 
L 451.205482 -57.591669 
L 449.166195 -58.891546 
L 447.126907 -60.326007 
L 445.08762 -61.904278 
L 443.048333 -63.635585 
L 441.009045 -65.529059 
L 438.969758 -67.593623 
L 436.930471 -69.837874 
L 434.891183 -72.269954 
L 432.851896 -74.897412 
L 430.812608 -77.727055 
L 428.773321 -80.764801 
L 426.734034 -84.015517 
L 424.694746 -87.482867 
L 422.655459 -91.169151 
L 420.616172 -95.075158 
L 418.576884 -99.200012 
L 416.537597 -103.541046 
L 414.49831 -108.093672 
L 412.459022 -112.851286 
L 410.419735 -117.805176 
L 408.380448 -122.944471 
L 406.34116 -128.256106 
L 404.301873 -133.724824 
L 402.262586 -139.333203 
L 400.223298 -145.061732 
L 398.184011 -150.888904 
L 396.144724 -156.791361 
L 394.105436 -162.744066 
L 392.066149 -168.720512 
L 390.026862 -174.692968 
L 387.987574 -180.632744 
L 385.948287 -186.510494 
L 383.909 -192.296532 
L 381.869712 -197.961168 
L 379.830425 -203.47505 
L 377.791138 -208.809515 
L 375.75185 -213.936934 
L 373.712563 -218.831046 
L 371.673275 -223.467277 
L 369.633988 -227.823034 
L 367.594701 -231.877973 
L 365.555413 -235.61423 
L 363.516126 -239.01661 
L 361.476839 -242.072736 
L 359.437551 -244.773152 
L 357.398264 -247.111374 
L 355.358977 -249.083896 
L 353.319689 -250.690149 
L 351.280402 -251.93241 
L 349.241115 -252.815671 
L 347.201827 -253.347472 
L 345.16254 -253.537693 
L 343.123253 -253.398322 
L 341.083965 -252.943205 
L 339.044678 -252.18777 
L 337.005391 -251.148755 
L 334.966103 -249.843924 
L 332.926816 -248.291792 
L 330.887529 -246.511359 
L 328.848241 -244.521865 
L 326.808954 -242.342558 
L 324.769667 -239.99249 
L 322.730379 -237.490344 
L 320.691092 -234.854286 
L 318.651804 -232.101849 
L 316.612517 -229.249842 
L 314.57323 -226.314302 
L 312.533942 -223.310455 
L 310.494655 -220.252716 
L 308.455368 -217.154699 
L 306.41608 -214.029257 
L 304.376793 -210.888519 
L 302.337506 -207.743952 
L 300.298218 -204.606414 
L 298.258931 -201.486219 
L 296.219644 -198.393187 
L 294.180356 -195.336696 
L 292.141069 -192.32572 
L 290.101782 -189.368854 
L 288.062494 -186.474329 
L 286.023207 -183.650008 
L 283.98392 -180.903369 
L 281.944632 -178.241469 
L 279.905345 -175.670906 
L 277.866058 -173.197751 
L 275.82677 -170.827488 
L 273.787483 -168.564935 
L 271.748196 -166.414167 
L 269.708908 -164.37843 
L 267.669621 -162.460069 
L 265.630333 -160.66045 
L 263.591046 -158.979893 
L 261.551759 -157.41762 
L 259.512471 -155.97171 
L 257.473184 -154.639076 
L 255.433897 -153.415452 
L 253.394609 -152.295402 
L 251.355322 -151.272349 
L 249.316035 -150.338621 
L 247.276747 -149.485517 
L 245.23746 -148.703387 
L 243.198173 -147.981739 
L 241.158885 -147.309349 
L 239.119598 -146.674395 
L 237.080311 -146.064595 
L 235.041023 -145.46736 
L 233.001736 -144.869946 
L 230.962449 -144.259622 
L 228.923161 -143.623825 
L 226.883874 -142.950325 
L 224.844587 -142.227383 
L 222.805299 -141.443897 
L 220.766012 -140.58955 
L 218.726725 -139.654937 
L 216.687437 -138.631688 
L 214.64815 -137.512567 
L 212.608862 -136.291568 
L 210.569575 -134.96398 
L 208.530288 -133.526444 
L 206.491 -131.976989 
L 204.451713 -130.315044 
L 202.412426 -128.541439 
L 200.373138 -126.65838 
L 198.333851 -124.669409 
L 196.294564 -122.579345 
L 194.255276 -120.394212 
L 192.215989 -118.121142 
L 190.176702 -115.768275 
L 188.137414 -113.344643 
L 186.098127 -110.860038 
L 184.05884 -108.324881 
L 182.019552 -105.750078 
L 179.980265 -103.146877 
L 177.940978 -100.52672 
L 175.90169 -97.901101 
L 173.862403 -95.281419 
L 171.823116 -92.678847 
L 169.783828 -90.104202 
L 167.744541 -87.567824 
L 165.705254 -85.079469 
L 163.665966 -82.648219 
L 161.626679 -80.282392 
L 159.587392 -77.989483 
L 157.548104 -75.776108 
L 155.508817 -73.64797 
L 153.469529 -71.609836 
L 151.430242 -69.665533 
L 149.390955 -67.817954 
L 147.351667 -66.069081 
L 145.31238 -64.420016 
L 143.273093 -62.871026 
L 141.233805 -61.421595 
L 139.194518 -60.070485 
L 137.155231 -58.815805 
L 135.115943 -57.655078 
L 133.076656 -56.585317 
L 131.037369 -55.603101 
L 128.998081 -54.704649 
L 126.958794 -53.885891 
L 124.919507 -53.142547 
L 122.880219 -52.470185 
L 120.840932 -51.864289 
L 118.801645 -51.320316 
L 116.762357 -50.833747 
L 114.72307 -50.400137 
L 112.683783 -50.015147 
L 110.644495 -49.674589 
L 108.605208 -49.374444 
L 106.565921 -49.11089 
L 104.526633 -48.880316 
L 102.487346 -48.679336 
L 100.448058 -48.504793 
L 98.408771 -48.353766 
L 96.369484 -48.223564 
L 94.330196 -48.111725 
L 92.290909 -48.016011 
z
" style="stroke: #fa8072"/>
    </defs>
    <g clip-path="url(#pd1e47cde5c)">
     <use xlink:href="#m1299cb1ab0" x="0" y="432" style="fill: #fa8072; fill-opacity: 0.25; stroke: #fa8072"/>
    </g>
   </g>
   <g id="matplotlib.axis_1">
    <g id="xtick_1">
     <g id="line2d_1">
      <defs>
       <path id="m3fd60c87b0" d="M 0 0 
L 0 3.5 
" style="stroke: #000000; stroke-width: 0.8"/>
      </defs>
      <g>
       <use xlink:href="#m3fd60c87b0" x="130.741084" y="384.48" style="stroke: #000000; stroke-width: 0.8"/>
      </g>
     </g>
     <g id="text_1">
      <!-- −2 -->
      <g transform="translate(125.040303 398.653437) scale(0.1 -0.1)">
       <defs>
        <path id="Helvetica-2212" d="M 3547 1894 
L 3547 1369 
L 288 1369 
L 288 1894 
L 3547 1894 
z
" transform="scale(0.015625)"/>
        <path id="Helvetica-32" d="M 200 0 
Q 231 578 439 1006 
Q 647 1434 1250 1784 
L 1850 2131 
Q 2253 2366 2416 2531 
Q 2672 2791 2672 3125 
Q 2672 3516 2437 3745 
Q 2203 3975 1813 3975 
Q 1234 3975 1013 3538 
Q 894 3303 881 2888 
L 309 2888 
Q 319 3472 525 3841 
Q 891 4491 1816 4491 
Q 2584 4491 2939 4075 
Q 3294 3659 3294 3150 
Q 3294 2613 2916 2231 
Q 2697 2009 2131 1694 
L 1703 1456 
Q 1397 1288 1222 1134 
Q 909 863 828 531 
L 3272 531 
L 3272 0 
L 200 0 
z
" transform="scale(0.015625)"/>
       </defs>
       <use xlink:href="#Helvetica-2212"/>
       <use xlink:href="#Helvetica-32" x="58.398438"/>
      </g>
     </g>
    </g>
    <g id="xtick_2">
     <g id="line2d_2">
      <g>
       <use xlink:href="#m3fd60c87b0" x="196.524651" y="384.48" style="stroke: #000000; stroke-width: 0.8"/>
      </g>
     </g>
     <g id="text_2">
      <!-- 0 -->
      <g transform="translate(193.744182 398.653437) scale(0.1 -0.1)">
       <defs>
        <path id="Helvetica-30" d="M 1731 4475 
Q 2600 4475 2988 3759 
Q 3288 3206 3288 2244 
Q 3288 1331 3016 734 
Q 2622 -122 1728 -122 
Q 922 -122 528 578 
Q 200 1163 200 2147 
Q 200 2909 397 3456 
Q 766 4475 1731 4475 
z
M 1725 391 
Q 2163 391 2422 778 
Q 2681 1166 2681 2222 
Q 2681 2984 2493 3476 
Q 2306 3969 1766 3969 
Q 1269 3969 1039 3501 
Q 809 3034 809 2125 
Q 809 1441 956 1025 
Q 1181 391 1725 391 
z
" transform="scale(0.015625)"/>
       </defs>
       <use xlink:href="#Helvetica-30"/>
      </g>
     </g>
    </g>
    <g id="xtick_3">
     <g id="line2d_3">
      <g>
       <use xlink:href="#m3fd60c87b0" x="262.308217" y="384.48" style="stroke: #000000; stroke-width: 0.8"/>
      </g>
     </g>
     <g id="text_3">
      <!-- 2 -->
      <g transform="translate(259.527748 398.653437) scale(0.1 -0.1)">
       <use xlink:href="#Helvetica-32"/>
      </g>
     </g>
    </g>
    <g id="xtick_4">
     <g id="line2d_4">
      <g>
       <use xlink:href="#m3fd60c87b0" x="328.091783" y="384.48" style="stroke: #000000; stroke-width: 0.8"/>
      </g>
     </g>
     <g id="text_4">
      <!-- 4 -->
      <g transform="translate(325.311314 398.653437) scale(0.1 -0.1)">
       <defs>
        <path id="Helvetica-34" d="M 2116 1584 
L 2116 3613 
L 681 1584 
L 2116 1584 
z
M 2125 0 
L 2125 1094 
L 163 1094 
L 163 1644 
L 2213 4488 
L 2688 4488 
L 2688 1584 
L 3347 1584 
L 3347 1094 
L 2688 1094 
L 2688 0 
L 2125 0 
z
" transform="scale(0.015625)"/>
       </defs>
       <use xlink:href="#Helvetica-34"/>
      </g>
     </g>
    </g>
    <g id="xtick_5">
     <g id="line2d_5">
      <g>
       <use xlink:href="#m3fd60c87b0" x="393.875349" y="384.48" style="stroke: #000000; stroke-width: 0.8"/>
      </g>
     </g>
     <g id="text_5">
      <!-- 6 -->
      <g transform="translate(391.094881 398.653437) scale(0.1 -0.1)">
       <defs>
        <path id="Helvetica-36" d="M 1872 4494 
Q 2622 4494 2917 4105 
Q 3213 3716 3213 3303 
L 2656 3303 
Q 2606 3569 2497 3719 
Q 2294 4000 1881 4000 
Q 1409 4000 1131 3564 
Q 853 3128 822 2316 
Q 1016 2600 1309 2741 
Q 1578 2866 1909 2866 
Q 2472 2866 2890 2506 
Q 3309 2147 3309 1434 
Q 3309 825 2912 354 
Q 2516 -116 1781 -116 
Q 1153 -116 697 361 
Q 241 838 241 1966 
Q 241 2800 444 3381 
Q 834 4494 1872 4494 
z
M 1831 384 
Q 2275 384 2495 682 
Q 2716 981 2716 1388 
Q 2716 1731 2519 2042 
Q 2322 2353 1803 2353 
Q 1441 2353 1167 2112 
Q 894 1872 894 1388 
Q 894 963 1142 673 
Q 1391 384 1831 384 
z
" transform="scale(0.015625)"/>
       </defs>
       <use xlink:href="#Helvetica-36"/>
      </g>
     </g>
    </g>
    <g id="xtick_6">
     <g id="line2d_6">
      <g>
       <use xlink:href="#m3fd60c87b0" x="459.658916" y="384.48" style="stroke: #000000; stroke-width: 0.8"/>
      </g>
     </g>
     <g id="text_6">
      <!-- 8 -->
      <g transform="translate(456.878447 398.653437) scale(0.1 -0.1)">
       <defs>
        <path id="Helvetica-38" d="M 1741 2600 
Q 2113 2600 2322 2808 
Q 2531 3016 2531 3303 
Q 2531 3553 2331 3762 
Q 2131 3972 1722 3972 
Q 1316 3972 1134 3762 
Q 953 3553 953 3272 
Q 953 2956 1187 2778 
Q 1422 2600 1741 2600 
z
M 1775 384 
Q 2166 384 2423 595 
Q 2681 806 2681 1225 
Q 2681 1659 2415 1884 
Q 2150 2109 1734 2109 
Q 1331 2109 1076 1879 
Q 822 1650 822 1244 
Q 822 894 1055 639 
Q 1288 384 1775 384 
z
M 975 2384 
Q 741 2484 609 2619 
Q 363 2869 363 3269 
Q 363 3769 725 4128 
Q 1088 4488 1753 4488 
Q 2397 4488 2762 4148 
Q 3128 3809 3128 3356 
Q 3128 2938 2916 2678 
Q 2797 2531 2547 2391 
Q 2825 2263 2984 2097 
Q 3281 1784 3281 1284 
Q 3281 694 2884 283 
Q 2488 -128 1763 -128 
Q 1109 -128 657 226 
Q 206 581 206 1256 
Q 206 1653 400 1942 
Q 594 2231 975 2384 
z
" transform="scale(0.015625)"/>
       </defs>
       <use xlink:href="#Helvetica-38"/>
      </g>
     </g>
    </g>
    <g id="text_7">
     <!-- Abbreviated Injury Scale Head -->
     <g transform="translate(227.664844 412.106562) scale(0.1 -0.1)">
      <defs>
       <path id="Helvetica-41" d="M 2844 1881 
L 2147 3909 
L 1406 1881 
L 2844 1881 
z
M 1822 4591 
L 2525 4591 
L 4191 0 
L 3509 0 
L 3044 1375 
L 1228 1375 
L 731 0 
L 94 0 
L 1822 4591 
z
" transform="scale(0.015625)"/>
       <path id="Helvetica-62" d="M 369 4606 
L 916 4606 
L 916 2941 
Q 1100 3181 1356 3307 
Q 1613 3434 1913 3434 
Q 2538 3434 2927 3004 
Q 3316 2575 3316 1738 
Q 3316 944 2931 419 
Q 2547 -106 1866 -106 
Q 1484 -106 1222 78 
Q 1066 188 888 428 
L 888 0 
L 369 0 
L 369 4606 
z
M 1831 391 
Q 2288 391 2514 753 
Q 2741 1116 2741 1709 
Q 2741 2238 2514 2584 
Q 2288 2931 1847 2931 
Q 1463 2931 1173 2647 
Q 884 2363 884 1709 
Q 884 1238 1003 944 
Q 1225 391 1831 391 
z
" transform="scale(0.015625)"/>
       <path id="Helvetica-72" d="M 428 3347 
L 963 3347 
L 963 2769 
Q 1028 2938 1284 3180 
Q 1541 3422 1875 3422 
Q 1891 3422 1928 3419 
Q 1966 3416 2056 3406 
L 2056 2813 
Q 2006 2822 1964 2825 
Q 1922 2828 1872 2828 
Q 1447 2828 1219 2554 
Q 991 2281 991 1925 
L 991 0 
L 428 0 
L 428 3347 
z
" transform="scale(0.015625)"/>
       <path id="Helvetica-65" d="M 1806 3422 
Q 2163 3422 2497 3255 
Q 2831 3088 3006 2822 
Q 3175 2569 3231 2231 
Q 3281 2000 3281 1494 
L 828 1494 
Q 844 984 1069 676 
Q 1294 369 1766 369 
Q 2206 369 2469 659 
Q 2619 828 2681 1050 
L 3234 1050 
Q 3213 866 3089 639 
Q 2966 413 2813 269 
Q 2556 19 2178 -69 
Q 1975 -119 1719 -119 
Q 1094 -119 659 336 
Q 225 791 225 1609 
Q 225 2416 662 2919 
Q 1100 3422 1806 3422 
z
M 2703 1941 
Q 2669 2306 2544 2525 
Q 2313 2931 1772 2931 
Q 1384 2931 1121 2651 
Q 859 2372 844 1941 
L 2703 1941 
z
M 1753 3428 
L 1753 3428 
z
" transform="scale(0.015625)"/>
       <path id="Helvetica-76" d="M 688 3347 
L 1581 622 
L 2516 3347 
L 3131 3347 
L 1869 0 
L 1269 0 
L 34 3347 
L 688 3347 
z
" transform="scale(0.015625)"/>
       <path id="Helvetica-69" d="M 413 3331 
L 984 3331 
L 984 0 
L 413 0 
L 413 3331 
z
M 413 4591 
L 984 4591 
L 984 3953 
L 413 3953 
L 413 4591 
z
" transform="scale(0.015625)"/>
       <path id="Helvetica-61" d="M 844 891 
Q 844 647 1022 506 
Q 1200 366 1444 366 
Q 1741 366 2019 503 
Q 2488 731 2488 1250 
L 2488 1703 
Q 2384 1638 2221 1594 
Q 2059 1550 1903 1531 
L 1563 1488 
Q 1256 1447 1103 1359 
Q 844 1213 844 891 
z
M 2206 2028 
Q 2400 2053 2466 2191 
Q 2503 2266 2503 2406 
Q 2503 2694 2298 2823 
Q 2094 2953 1713 2953 
Q 1272 2953 1088 2716 
Q 984 2584 953 2325 
L 428 2325 
Q 444 2944 830 3186 
Q 1216 3428 1725 3428 
Q 2316 3428 2684 3203 
Q 3050 2978 3050 2503 
L 3050 575 
Q 3050 488 3086 434 
Q 3122 381 3238 381 
Q 3275 381 3322 386 
Q 3369 391 3422 400 
L 3422 -16 
Q 3291 -53 3222 -62 
Q 3153 -72 3034 -72 
Q 2744 -72 2613 134 
Q 2544 244 2516 444 
Q 2344 219 2022 53 
Q 1700 -113 1313 -113 
Q 847 -113 551 170 
Q 256 453 256 878 
Q 256 1344 547 1600 
Q 838 1856 1309 1916 
L 2206 2028 
z
M 1741 3428 
L 1741 3428 
z
" transform="scale(0.015625)"/>
       <path id="Helvetica-74" d="M 525 4281 
L 1094 4281 
L 1094 3347 
L 1628 3347 
L 1628 2888 
L 1094 2888 
L 1094 703 
Q 1094 528 1213 469 
Q 1278 434 1431 434 
Q 1472 434 1519 436 
Q 1566 438 1628 444 
L 1628 0 
Q 1531 -28 1426 -40 
Q 1322 -53 1200 -53 
Q 806 -53 665 148 
Q 525 350 525 672 
L 525 2888 
L 72 2888 
L 72 3347 
L 525 3347 
L 525 4281 
z
" transform="scale(0.015625)"/>
       <path id="Helvetica-64" d="M 769 1634 
Q 769 1097 997 734 
Q 1225 372 1728 372 
Q 2119 372 2370 708 
Q 2622 1044 2622 1672 
Q 2622 2306 2362 2611 
Q 2103 2916 1722 2916 
Q 1297 2916 1033 2591 
Q 769 2266 769 1634 
z
M 1616 3406 
Q 2000 3406 2259 3244 
Q 2409 3150 2600 2916 
L 2600 4606 
L 3141 4606 
L 3141 0 
L 2634 0 
L 2634 466 
Q 2438 156 2169 18 
Q 1900 -119 1553 -119 
Q 994 -119 584 351 
Q 175 822 175 1603 
Q 175 2334 548 2870 
Q 922 3406 1616 3406 
z
" transform="scale(0.015625)"/>
       <path id="Helvetica-20" transform="scale(0.015625)"/>
       <path id="Helvetica-49" d="M 628 4591 
L 1256 4591 
L 1256 0 
L 628 0 
L 628 4591 
z
" transform="scale(0.015625)"/>
       <path id="Helvetica-6e" d="M 413 3347 
L 947 3347 
L 947 2872 
Q 1184 3166 1450 3294 
Q 1716 3422 2041 3422 
Q 2753 3422 3003 2925 
Q 3141 2653 3141 2147 
L 3141 0 
L 2569 0 
L 2569 2109 
Q 2569 2416 2478 2603 
Q 2328 2916 1934 2916 
Q 1734 2916 1606 2875 
Q 1375 2806 1200 2600 
Q 1059 2434 1017 2257 
Q 975 2081 975 1753 
L 975 0 
L 413 0 
L 413 3347 
z
M 1734 3428 
L 1734 3428 
z
" transform="scale(0.015625)"/>
       <path id="Helvetica-6a" d="M 975 3941 
L 413 3941 
L 413 4591 
L 975 4591 
L 975 3941 
z
M -119 -847 
Q 259 -834 336 -779 
Q 413 -725 413 -438 
L 413 3331 
L 975 3331 
L 975 -497 
Q 975 -863 856 -1044 
Q 659 -1350 109 -1350 
Q 69 -1350 23 -1347 
Q -22 -1344 -119 -1334 
L -119 -847 
z
" transform="scale(0.015625)"/>
       <path id="Helvetica-75" d="M 975 3347 
L 975 1125 
Q 975 869 1056 706 
Q 1206 406 1616 406 
Q 2203 406 2416 931 
Q 2531 1213 2531 1703 
L 2531 3347 
L 3094 3347 
L 3094 0 
L 2563 0 
L 2569 494 
Q 2459 303 2297 172 
Q 1975 -91 1516 -91 
Q 800 -91 541 388 
Q 400 644 400 1072 
L 400 3347 
L 975 3347 
z
M 1747 3428 
L 1747 3428 
z
" transform="scale(0.015625)"/>
       <path id="Helvetica-79" d="M 2503 3347 
L 3125 3347 
Q 3006 3025 2597 1878 
Q 2291 1016 2084 472 
Q 1597 -809 1397 -1090 
Q 1197 -1372 709 -1372 
Q 591 -1372 527 -1362 
Q 463 -1353 369 -1328 
L 369 -816 
Q 516 -856 581 -865 
Q 647 -875 697 -875 
Q 853 -875 926 -823 
Q 1000 -772 1050 -697 
Q 1066 -672 1162 -440 
Q 1259 -209 1303 -97 
L 66 3347 
L 703 3347 
L 1600 622 
L 2503 3347 
z
M 1597 3428 
L 1597 3428 
z
" transform="scale(0.015625)"/>
       <path id="Helvetica-53" d="M 894 1481 
Q 916 1091 1078 847 
Q 1388 391 2169 391 
Q 2519 391 2806 491 
Q 3363 684 3363 1184 
Q 3363 1559 3128 1719 
Q 2891 1875 2384 1991 
L 1763 2131 
Q 1153 2269 900 2434 
Q 463 2722 463 3294 
Q 463 3913 891 4309 
Q 1319 4706 2103 4706 
Q 2825 4706 3329 4357 
Q 3834 4009 3834 3244 
L 3250 3244 
Q 3203 3613 3050 3809 
Q 2766 4169 2084 4169 
Q 1534 4169 1293 3937 
Q 1053 3706 1053 3400 
Q 1053 3063 1334 2906 
Q 1519 2806 2169 2656 
L 2813 2509 
Q 3278 2403 3531 2219 
Q 3969 1897 3969 1284 
Q 3969 522 3414 194 
Q 2859 -134 2125 -134 
Q 1269 -134 784 303 
Q 300 738 309 1481 
L 894 1481 
z
M 2150 4716 
L 2150 4716 
z
" transform="scale(0.015625)"/>
       <path id="Helvetica-63" d="M 1703 3444 
Q 2269 3444 2623 3169 
Q 2978 2894 3050 2222 
L 2503 2222 
Q 2453 2531 2275 2736 
Q 2097 2941 1703 2941 
Q 1166 2941 934 2416 
Q 784 2075 784 1575 
Q 784 1072 996 728 
Q 1209 384 1666 384 
Q 2016 384 2220 598 
Q 2425 813 2503 1184 
L 3050 1184 
Q 2956 519 2581 211 
Q 2206 -97 1622 -97 
Q 966 -97 575 383 
Q 184 863 184 1581 
Q 184 2463 612 2953 
Q 1041 3444 1703 3444 
z
M 1616 3428 
L 1616 3428 
z
" transform="scale(0.015625)"/>
       <path id="Helvetica-6c" d="M 428 4591 
L 991 4591 
L 991 0 
L 428 0 
L 428 4591 
z
" transform="scale(0.015625)"/>
       <path id="Helvetica-48" d="M 503 4591 
L 1131 4591 
L 1131 2694 
L 3519 2694 
L 3519 4591 
L 4147 4591 
L 4147 0 
L 3519 0 
L 3519 2147 
L 1131 2147 
L 1131 0 
L 503 0 
L 503 4591 
z
" transform="scale(0.015625)"/>
      </defs>
      <use xlink:href="#Helvetica-41"/>
      <use xlink:href="#Helvetica-62" x="66.699219"/>
      <use xlink:href="#Helvetica-62" x="122.314453"/>
      <use xlink:href="#Helvetica-72" x="177.929688"/>
      <use xlink:href="#Helvetica-65" x="211.230469"/>
      <use xlink:href="#Helvetica-76" x="266.845703"/>
      <use xlink:href="#Helvetica-69" x="316.845703"/>
      <use xlink:href="#Helvetica-61" x="339.0625"/>
      <use xlink:href="#Helvetica-74" x="394.677734"/>
      <use xlink:href="#Helvetica-65" x="422.460938"/>
      <use xlink:href="#Helvetica-64" x="478.076172"/>
      <use xlink:href="#Helvetica-20" x="533.691406"/>
      <use xlink:href="#Helvetica-49" x="561.474609"/>
      <use xlink:href="#Helvetica-6e" x="589.257812"/>
      <use xlink:href="#Helvetica-6a" x="644.873047"/>
      <use xlink:href="#Helvetica-75" x="667.089844"/>
      <use xlink:href="#Helvetica-72" x="722.705078"/>
      <use xlink:href="#Helvetica-79" x="756.005859"/>
      <use xlink:href="#Helvetica-20" x="806.005859"/>
      <use xlink:href="#Helvetica-53" x="833.789062"/>
      <use xlink:href="#Helvetica-63" x="900.488281"/>
      <use xlink:href="#Helvetica-61" x="950.488281"/>
      <use xlink:href="#Helvetica-6c" x="1006.103516"/>
      <use xlink:href="#Helvetica-65" x="1028.320312"/>
      <use xlink:href="#Helvetica-20" x="1083.935547"/>
      <use xlink:href="#Helvetica-48" x="1111.71875"/>
      <use xlink:href="#Helvetica-65" x="1183.935547"/>
      <use xlink:href="#Helvetica-61" x="1239.550781"/>
      <use xlink:href="#Helvetica-64" x="1295.166016"/>
     </g>
    </g>
   </g>
   <g id="matplotlib.axis_2">
    <g id="ytick_1">
     <g id="line2d_7">
      <defs>
       <path id="madd23268ac" d="M 0 0 
L -3.5 0 
" style="stroke: #000000; stroke-width: 0.8"/>
      </defs>
      <g>
       <use xlink:href="#madd23268ac" x="72" y="384.48" style="stroke: #000000; stroke-width: 0.8"/>
      </g>
     </g>
     <g id="text_8">
      <!-- 0.00 -->
      <g transform="translate(45.539062 388.066719) scale(0.1 -0.1)">
       <defs>
        <path id="Helvetica-2e" d="M 547 681 
L 1200 681 
L 1200 0 
L 547 0 
L 547 681 
z
" transform="scale(0.015625)"/>
       </defs>
       <use xlink:href="#Helvetica-30"/>
       <use xlink:href="#Helvetica-2e" x="55.615234"/>
       <use xlink:href="#Helvetica-30" x="83.398438"/>
       <use xlink:href="#Helvetica-30" x="139.013672"/>
      </g>
     </g>
    </g>
    <g id="ytick_2">
     <g id="line2d_8">
      <g>
       <use xlink:href="#madd23268ac" x="72" y="333.20772" style="stroke: #000000; stroke-width: 0.8"/>
      </g>
     </g>
     <g id="text_9">
      <!-- 0.05 -->
      <g transform="translate(45.539062 336.794439) scale(0.1 -0.1)">
       <defs>
        <path id="Helvetica-35" d="M 791 1141 
Q 847 659 1238 475 
Q 1438 381 1700 381 
Q 2200 381 2440 700 
Q 2681 1019 2681 1406 
Q 2681 1875 2395 2131 
Q 2109 2388 1709 2388 
Q 1419 2388 1211 2275 
Q 1003 2163 856 1963 
L 369 1991 
L 709 4400 
L 3034 4400 
L 3034 3856 
L 1131 3856 
L 941 2613 
Q 1097 2731 1238 2791 
Q 1488 2894 1816 2894 
Q 2431 2894 2859 2497 
Q 3288 2100 3288 1491 
Q 3288 856 2895 371 
Q 2503 -113 1644 -113 
Q 1097 -113 676 195 
Q 256 503 206 1141 
L 791 1141 
z
" transform="scale(0.015625)"/>
       </defs>
       <use xlink:href="#Helvetica-30"/>
       <use xlink:href="#Helvetica-2e" x="55.615234"/>
       <use xlink:href="#Helvetica-30" x="83.398438"/>
       <use xlink:href="#Helvetica-35" x="139.013672"/>
      </g>
     </g>
    </g>
    <g id="ytick_3">
     <g id="line2d_9">
      <g>
       <use xlink:href="#madd23268ac" x="72" y="281.935441" style="stroke: #000000; stroke-width: 0.8"/>
      </g>
     </g>
     <g id="text_10">
      <!-- 0.10 -->
      <g transform="translate(45.539062 285.522159) scale(0.1 -0.1)">
       <defs>
        <path id="Helvetica-31" d="M 613 3169 
L 613 3600 
Q 1222 3659 1462 3798 
Q 1703 3938 1822 4456 
L 2266 4456 
L 2266 0 
L 1666 0 
L 1666 3169 
L 613 3169 
z
" transform="scale(0.015625)"/>
       </defs>
       <use xlink:href="#Helvetica-30"/>
       <use xlink:href="#Helvetica-2e" x="55.615234"/>
       <use xlink:href="#Helvetica-31" x="83.398438"/>
       <use xlink:href="#Helvetica-30" x="139.013672"/>
      </g>
     </g>
    </g>
    <g id="ytick_4">
     <g id="line2d_10">
      <g>
       <use xlink:href="#madd23268ac" x="72" y="230.663161" style="stroke: #000000; stroke-width: 0.8"/>
      </g>
     </g>
     <g id="text_11">
      <!-- 0.15 -->
      <g transform="translate(45.539062 234.24988) scale(0.1 -0.1)">
       <use xlink:href="#Helvetica-30"/>
       <use xlink:href="#Helvetica-2e" x="55.615234"/>
       <use xlink:href="#Helvetica-31" x="83.398438"/>
       <use xlink:href="#Helvetica-35" x="139.013672"/>
      </g>
     </g>
    </g>
    <g id="ytick_5">
     <g id="line2d_11">
      <g>
       <use xlink:href="#madd23268ac" x="72" y="179.390881" style="stroke: #000000; stroke-width: 0.8"/>
      </g>
     </g>
     <g id="text_12">
      <!-- 0.20 -->
      <g transform="translate(45.539062 182.9776) scale(0.1 -0.1)">
       <use xlink:href="#Helvetica-30"/>
       <use xlink:href="#Helvetica-2e" x="55.615234"/>
       <use xlink:href="#Helvetica-32" x="83.398438"/>
       <use xlink:href="#Helvetica-30" x="139.013672"/>
      </g>
     </g>
    </g>
    <g id="ytick_6">
     <g id="line2d_12">
      <g>
       <use xlink:href="#madd23268ac" x="72" y="128.118601" style="stroke: #000000; stroke-width: 0.8"/>
      </g>
     </g>
     <g id="text_13">
      <!-- 0.25 -->
      <g transform="translate(45.539062 131.70532) scale(0.1 -0.1)">
       <use xlink:href="#Helvetica-30"/>
       <use xlink:href="#Helvetica-2e" x="55.615234"/>
       <use xlink:href="#Helvetica-32" x="83.398438"/>
       <use xlink:href="#Helvetica-35" x="139.013672"/>
      </g>
     </g>
    </g>
    <g id="ytick_7">
     <g id="line2d_13">
      <g>
       <use xlink:href="#madd23268ac" x="72" y="76.846322" style="stroke: #000000; stroke-width: 0.8"/>
      </g>
     </g>
     <g id="text_14">
      <!-- 0.30 -->
      <g transform="translate(45.539062 80.43304) scale(0.1 -0.1)">
       <defs>
        <path id="Helvetica-33" d="M 1663 -122 
Q 869 -122 511 314 
Q 153 750 153 1375 
L 741 1375 
Q 778 941 903 744 
Q 1122 391 1694 391 
Q 2138 391 2406 628 
Q 2675 866 2675 1241 
Q 2675 1703 2392 1887 
Q 2109 2072 1606 2072 
Q 1550 2072 1492 2070 
Q 1434 2069 1375 2066 
L 1375 2563 
Q 1463 2553 1522 2550 
Q 1581 2547 1650 2547 
Q 1966 2547 2169 2647 
Q 2525 2822 2525 3272 
Q 2525 3606 2287 3787 
Q 2050 3969 1734 3969 
Q 1172 3969 956 3594 
Q 838 3388 822 3006 
L 266 3006 
Q 266 3506 466 3856 
Q 809 4481 1675 4481 
Q 2359 4481 2734 4176 
Q 3109 3872 3109 3294 
Q 3109 2881 2888 2625 
Q 2750 2466 2531 2375 
Q 2884 2278 3082 2001 
Q 3281 1725 3281 1325 
Q 3281 684 2859 281 
Q 2438 -122 1663 -122 
z
" transform="scale(0.015625)"/>
       </defs>
       <use xlink:href="#Helvetica-30"/>
       <use xlink:href="#Helvetica-2e" x="55.615234"/>
       <use xlink:href="#Helvetica-33" x="83.398438"/>
       <use xlink:href="#Helvetica-30" x="139.013672"/>
      </g>
     </g>
    </g>
    <g id="text_15">
     <!-- Density -->
     <g transform="translate(39.395312 234.831875) rotate(-90) scale(0.1 -0.1)">
      <defs>
       <path id="Helvetica-44" d="M 2250 531 
Q 2566 531 2769 597 
Q 3131 719 3363 1066 
Q 3547 1344 3628 1778 
Q 3675 2038 3675 2259 
Q 3675 3113 3336 3584 
Q 2997 4056 2244 4056 
L 1141 4056 
L 1141 531 
L 2250 531 
z
M 516 4591 
L 2375 4591 
Q 3322 4591 3844 3919 
Q 4309 3313 4309 2366 
Q 4309 1634 4034 1044 
Q 3550 0 2369 0 
L 516 0 
L 516 4591 
z
" transform="scale(0.015625)"/>
       <path id="Helvetica-73" d="M 747 1050 
Q 772 769 888 619 
Q 1100 347 1625 347 
Q 1938 347 2175 483 
Q 2413 619 2413 903 
Q 2413 1119 2222 1231 
Q 2100 1300 1741 1391 
L 1294 1503 
Q 866 1609 663 1741 
Q 300 1969 300 2372 
Q 300 2847 642 3140 
Q 984 3434 1563 3434 
Q 2319 3434 2653 2991 
Q 2863 2709 2856 2384 
L 2325 2384 
Q 2309 2575 2191 2731 
Q 1997 2953 1519 2953 
Q 1200 2953 1036 2831 
Q 872 2709 872 2509 
Q 872 2291 1088 2159 
Q 1213 2081 1456 2022 
L 1828 1931 
Q 2434 1784 2641 1647 
Q 2969 1431 2969 969 
Q 2969 522 2630 197 
Q 2291 -128 1597 -128 
Q 850 -128 539 211 
Q 228 550 206 1050 
L 747 1050 
z
M 1578 3428 
L 1578 3428 
z
" transform="scale(0.015625)"/>
      </defs>
      <use xlink:href="#Helvetica-44"/>
      <use xlink:href="#Helvetica-65" x="72.216797"/>
      <use xlink:href="#Helvetica-6e" x="127.832031"/>
      <use xlink:href="#Helvetica-73" x="183.447266"/>
      <use xlink:href="#Helvetica-69" x="233.447266"/>
      <use xlink:href="#Helvetica-74" x="255.664062"/>
      <use xlink:href="#Helvetica-79" x="283.447266"/>
     </g>
    </g>
   </g>
   <g id="patch_3">
    <path d="M 72 384.48 
L 72 51.84 
" style="fill: none; stroke: #000000; stroke-width: 0.8; stroke-linejoin: miter; stroke-linecap: square"/>
   </g>
   <g id="patch_4">
    <path d="M 518.4 384.48 
L 518.4 51.84 
" style="fill: none; stroke: #000000; stroke-width: 0.8; stroke-linejoin: miter; stroke-linecap: square"/>
   </g>
   <g id="patch_5">
    <path d="M 72 384.48 
L 518.4 384.48 
" style="fill: none; stroke: #000000; stroke-width: 0.8; stroke-linejoin: miter; stroke-linecap: square"/>
   </g>
   <g id="patch_6">
    <path d="M 72 51.84 
L 518.4 51.84 
" style="fill: none; stroke: #000000; stroke-width: 0.8; stroke-linejoin: miter; stroke-linecap: square"/>
   </g>
   <g id="legend_1">
    <g id="patch_7">
     <path d="M 434.373437 88.355625 
L 511.4 88.355625 
Q 513.4 88.355625 513.4 86.355625 
L 513.4 58.84 
Q 513.4 56.84 511.4 56.84 
L 434.373437 56.84 
Q 432.373437 56.84 432.373437 58.84 
L 432.373437 86.355625 
Q 432.373437 88.355625 434.373437 88.355625 
z
" style="fill: #ffffff; opacity: 0.8; stroke: #cccccc; stroke-linejoin: miter"/>
    </g>
    <g id="patch_8">
     <path d="M 436.373437 68.013437 
L 456.373437 68.013437 
L 456.373437 61.013437 
L 436.373437 61.013437 
z
" style="fill: #87ceeb; fill-opacity: 0.25; stroke: #87ceeb; stroke-linejoin: miter"/>
    </g>
    <g id="text_16">
     <!-- Alive -->
     <g transform="translate(464.373437 68.013437) scale(0.1 -0.1)">
      <use xlink:href="#Helvetica-41"/>
      <use xlink:href="#Helvetica-6c" x="66.699219"/>
      <use xlink:href="#Helvetica-69" x="88.916016"/>
      <use xlink:href="#Helvetica-76" x="111.132812"/>
      <use xlink:href="#Helvetica-65" x="161.132812"/>
     </g>
    </g>
    <g id="patch_9">
     <path d="M 436.373437 82.27125 
L 456.373437 82.27125 
L 456.373437 75.27125 
L 436.373437 75.27125 
z
" style="fill: #fa8072; fill-opacity: 0.25; stroke: #fa8072; stroke-linejoin: miter"/>
    </g>
    <g id="text_17">
     <!-- Deceased -->
     <g transform="translate(464.373437 82.27125) scale(0.1 -0.1)">
      <use xlink:href="#Helvetica-44"/>
      <use xlink:href="#Helvetica-65" x="72.216797"/>
      <use xlink:href="#Helvetica-63" x="127.832031"/>
      <use xlink:href="#Helvetica-65" x="177.832031"/>
      <use xlink:href="#Helvetica-61" x="233.447266"/>
      <use xlink:href="#Helvetica-73" x="289.0625"/>
      <use xlink:href="#Helvetica-65" x="339.0625"/>
      <use xlink:href="#Helvetica-64" x="394.677734"/>
     </g>
    </g>
   </g>
  </g>
 </g>
 <defs>
  <clipPath id="pd1e47cde5c">
   <rect x="72" y="51.84" width="446.4" height="332.64"/>
  </clipPath>
 </defs>
</svg>
