<?xml version="1.0" encoding="utf-8" standalone="no"?>
<!DOCTYPE svg PUBLIC "-//W3C//DTD SVG 1.1//EN"
  "http://www.w3.org/Graphics/SVG/1.1/DTD/svg11.dtd">
<svg xmlns:xlink="http://www.w3.org/1999/xlink" width="576pt" height="432pt" viewBox="0 0 576 432" xmlns="http://www.w3.org/2000/svg" version="1.1">
 <metadata>
  <rdf:RDF xmlns:dc="http://purl.org/dc/elements/1.1/" xmlns:cc="http://creativecommons.org/ns#" xmlns:rdf="http://www.w3.org/1999/02/22-rdf-syntax-ns#">
   <cc:Work>
    <dc:type rdf:resource="http://purl.org/dc/dcmitype/StillImage"/>
    <dc:date>2023-11-06T21:01:27.716829</dc:date>
    <dc:format>image/svg+xml</dc:format>
    <dc:creator>
     <cc:Agent>
      <dc:title>Matplotlib v3.7.2, https://matplotlib.org/</dc:title>
     </cc:Agent>
    </dc:creator>
   </cc:Work>
  </rdf:RDF>
 </metadata>
 <defs>
  <style type="text/css">*{stroke-linejoin: round; stroke-linecap: butt}</style>
 </defs>
 <g id="figure_1">
  <g id="patch_1">
   <path d="M 0 432 
L 576 432 
L 576 0 
L 0 0 
z
" style="fill: #ffffff"/>
  </g>
  <g id="axes_1">
   <g id="patch_2">
    <path d="M 72 384.48 
L 518.4 384.48 
L 518.4 51.84 
L 72 51.84 
z
" style="fill: #ffffff"/>
   </g>
   <g id="PolyCollection_1">
    <defs>
     <path id="m9a01ab5d3a" d="M 161.007093 -47.813807 
L 161.007093 -47.52 
L 162.701073 -47.52 
L 164.395053 -47.52 
L 166.089033 -47.52 
L 167.783013 -47.52 
L 169.476993 -47.52 
L 171.170973 -47.52 
L 172.864952 -47.52 
L 174.558932 -47.52 
L 176.252912 -47.52 
L 177.946892 -47.52 
L 179.640872 -47.52 
L 181.334852 -47.52 
L 183.028832 -47.52 
L 184.722812 -47.52 
L 186.416792 -47.52 
L 188.110771 -47.52 
L 189.804751 -47.52 
L 191.498731 -47.52 
L 193.192711 -47.52 
L 194.886691 -47.52 
L 196.580671 -47.52 
L 198.274651 -47.52 
L 199.968631 -47.52 
L 201.662611 -47.52 
L 203.35659 -47.52 
L 205.05057 -47.52 
L 206.74455 -47.52 
L 208.43853 -47.52 
L 210.13251 -47.52 
L 211.82649 -47.52 
L 213.52047 -47.52 
L 215.21445 -47.52 
L 216.90843 -47.52 
L 218.602409 -47.52 
L 220.296389 -47.52 
L 221.990369 -47.52 
L 223.684349 -47.52 
L 225.378329 -47.52 
L 227.072309 -47.52 
L 228.766289 -47.52 
L 230.460269 -47.52 
L 232.154249 -47.52 
L 233.848228 -47.52 
L 235.542208 -47.52 
L 237.236188 -47.52 
L 238.930168 -47.52 
L 240.624148 -47.52 
L 242.318128 -47.52 
L 244.012108 -47.52 
L 245.706088 -47.52 
L 247.400068 -47.52 
L 249.094047 -47.52 
L 250.788027 -47.52 
L 252.482007 -47.52 
L 254.175987 -47.52 
L 255.869967 -47.52 
L 257.563947 -47.52 
L 259.257927 -47.52 
L 260.951907 -47.52 
L 262.645887 -47.52 
L 264.339866 -47.52 
L 266.033846 -47.52 
L 267.727826 -47.52 
L 269.421806 -47.52 
L 271.115786 -47.52 
L 272.809766 -47.52 
L 274.503746 -47.52 
L 276.197726 -47.52 
L 277.891706 -47.52 
L 279.585685 -47.52 
L 281.279665 -47.52 
L 282.973645 -47.52 
L 284.667625 -47.52 
L 286.361605 -47.52 
L 288.055585 -47.52 
L 289.749565 -47.52 
L 291.443545 -47.52 
L 293.137524 -47.52 
L 294.831504 -47.52 
L 296.525484 -47.52 
L 298.219464 -47.52 
L 299.913444 -47.52 
L 301.607424 -47.52 
L 303.301404 -47.52 
L 304.995384 -47.52 
L 306.689364 -47.52 
L 308.383343 -47.52 
L 310.077323 -47.52 
L 311.771303 -47.52 
L 313.465283 -47.52 
L 315.159263 -47.52 
L 316.853243 -47.52 
L 318.547223 -47.52 
L 320.241203 -47.52 
L 321.935183 -47.52 
L 323.629162 -47.52 
L 325.323142 -47.52 
L 327.017122 -47.52 
L 328.711102 -47.52 
L 330.405082 -47.52 
L 332.099062 -47.52 
L 333.793042 -47.52 
L 335.487022 -47.52 
L 337.181002 -47.52 
L 338.874981 -47.52 
L 340.568961 -47.52 
L 342.262941 -47.52 
L 343.956921 -47.52 
L 345.650901 -47.52 
L 347.344881 -47.52 
L 349.038861 -47.52 
L 350.732841 -47.52 
L 352.426821 -47.52 
L 354.1208 -47.52 
L 355.81478 -47.52 
L 357.50876 -47.52 
L 359.20274 -47.52 
L 360.89672 -47.52 
L 362.5907 -47.52 
L 364.28468 -47.52 
L 365.97866 -47.52 
L 367.67264 -47.52 
L 369.366619 -47.52 
L 371.060599 -47.52 
L 372.754579 -47.52 
L 374.448559 -47.52 
L 376.142539 -47.52 
L 377.836519 -47.52 
L 379.530499 -47.52 
L 381.224479 -47.52 
L 382.918459 -47.52 
L 384.612438 -47.52 
L 386.306418 -47.52 
L 388.000398 -47.52 
L 389.694378 -47.52 
L 391.388358 -47.52 
L 393.082338 -47.52 
L 394.776318 -47.52 
L 396.470298 -47.52 
L 398.164278 -47.52 
L 399.858257 -47.52 
L 401.552237 -47.52 
L 403.246217 -47.52 
L 404.940197 -47.52 
L 406.634177 -47.52 
L 408.328157 -47.52 
L 410.022137 -47.52 
L 411.716117 -47.52 
L 413.410097 -47.52 
L 415.104076 -47.52 
L 416.798056 -47.52 
L 418.492036 -47.52 
L 420.186016 -47.52 
L 421.879996 -47.52 
L 423.573976 -47.52 
L 425.267956 -47.52 
L 426.961936 -47.52 
L 428.655916 -47.52 
L 430.349895 -47.52 
L 432.043875 -47.52 
L 433.737855 -47.52 
L 435.431835 -47.52 
L 437.125815 -47.52 
L 438.819795 -47.52 
L 440.513775 -47.52 
L 442.207755 -47.52 
L 443.901735 -47.52 
L 445.595714 -47.52 
L 447.289694 -47.52 
L 448.983674 -47.52 
L 450.677654 -47.52 
L 452.371634 -47.52 
L 454.065614 -47.52 
L 455.759594 -47.52 
L 457.453574 -47.52 
L 459.147553 -47.52 
L 460.841533 -47.52 
L 462.535513 -47.52 
L 464.229493 -47.52 
L 465.923473 -47.52 
L 467.617453 -47.52 
L 469.311433 -47.52 
L 471.005413 -47.52 
L 472.699393 -47.52 
L 474.393372 -47.52 
L 476.087352 -47.52 
L 477.781332 -47.52 
L 479.475312 -47.52 
L 481.169292 -47.52 
L 482.863272 -47.52 
L 484.557252 -47.52 
L 486.251232 -47.52 
L 487.945212 -47.52 
L 489.639191 -47.52 
L 491.333171 -47.52 
L 493.027151 -47.52 
L 494.721131 -47.52 
L 496.415111 -47.52 
L 498.109091 -47.52 
L 498.109091 -47.720501 
L 498.109091 -47.720501 
L 496.415111 -47.771342 
L 494.721131 -47.833412 
L 493.027151 -47.908759 
L 491.333171 -47.999701 
L 489.639191 -48.108846 
L 487.945212 -48.239095 
L 486.251232 -48.393659 
L 484.557252 -48.57605 
L 482.863272 -48.790085 
L 481.169292 -49.039866 
L 479.475312 -49.32977 
L 477.781332 -49.664415 
L 476.087352 -50.048629 
L 474.393372 -50.487408 
L 472.699393 -50.985864 
L 471.005413 -51.549174 
L 469.311433 -52.182515 
L 467.617453 -52.891 
L 465.923473 -53.679611 
L 464.229493 -54.55313 
L 462.535513 -55.516074 
L 460.841533 -56.572626 
L 459.147553 -57.726576 
L 457.453574 -58.981267 
L 455.759594 -60.339548 
L 454.065614 -61.803728 
L 452.371634 -63.37555 
L 450.677654 -65.056163 
L 448.983674 -66.846109 
L 447.289694 -68.745315 
L 445.595714 -70.753093 
L 443.901735 -72.868153 
L 442.207755 -75.088612 
L 440.513775 -77.412022 
L 438.819795 -79.8354 
L 437.125815 -82.355265 
L 435.431835 -84.967688 
L 433.737855 -87.668352 
L 432.043875 -90.452622 
L 430.349895 -93.315636 
L 428.655916 -96.252407 
L 426.961936 -99.257949 
L 425.267956 -102.327419 
L 423.573976 -105.456281 
L 421.879996 -108.640489 
L 420.186016 -111.87669 
L 418.492036 -115.162434 
L 416.798056 -118.496396 
L 415.104076 -121.878596 
L 413.410097 -125.310607 
L 411.716117 -128.795748 
L 410.022137 -132.339235 
L 408.328157 -135.948296 
L 406.634177 -139.632221 
L 404.940197 -143.402351 
L 403.246217 -147.271975 
L 401.552237 -151.256153 
L 399.858257 -155.371433 
L 398.164278 -159.635482 
L 396.470298 -164.066618 
L 394.776318 -168.683256 
L 393.082338 -173.503282 
L 391.388358 -178.543358 
L 389.694378 -183.818191 
L 388.000398 -189.339778 
L 386.306418 -195.116661 
L 384.612438 -201.153211 
L 382.918459 -207.448977 
L 381.224479 -213.998121 
L 379.530499 -220.788976 
L 377.836519 -227.803736 
L 376.142539 -235.018317 
L 374.448559 -242.40239 
L 372.754579 -249.9196 
L 371.060599 -257.527978 
L 369.366619 -265.180542 
L 367.67264 -272.826071 
L 365.97866 -280.410041 
L 364.28468 -287.875699 
L 362.5907 -295.165235 
L 360.89672 -302.221039 
L 359.20274 -308.986979 
L 357.50876 -315.409679 
L 355.81478 -321.439749 
L 354.1208 -327.032926 
L 352.426821 -332.151096 
L 350.732841 -336.763149 
L 349.038861 -340.845664 
L 347.344881 -344.383372 
L 345.650901 -347.369416 
L 343.956921 -349.805378 
L 342.262941 -351.70109 
L 340.568961 -353.074228 
L 338.874981 -353.949721 
L 337.181002 -354.358987 
L 335.487022 -354.339025 
L 333.793042 -353.931407 
L 332.099062 -353.181186 
L 330.405082 -352.135774 
L 328.711102 -350.843802 
L 327.017122 -349.354019 
L 325.323142 -347.714231 
L 323.629162 -345.970323 
L 321.935183 -344.165376 
L 320.241203 -342.338891 
L 318.547223 -340.526129 
L 316.853243 -338.757577 
L 315.159263 -337.058532 
L 313.465283 -335.448815 
L 311.771303 -333.942584 
L 310.077323 -332.548273 
L 308.383343 -331.26862 
L 306.689364 -330.100799 
L 304.995384 -329.036631 
L 303.301404 -328.062887 
L 301.607424 -327.161653 
L 299.913444 -326.310779 
L 298.219464 -325.484385 
L 296.525484 -324.653434 
L 294.831504 -323.78635 
L 293.137524 -322.849702 
L 291.443545 -321.808908 
L 289.749565 -320.628983 
L 288.055585 -319.275301 
L 286.361605 -317.714359 
L 284.667625 -315.914529 
L 282.973645 -313.84678 
L 281.279665 -311.485351 
L 279.585685 -308.808355 
L 277.891706 -305.798296 
L 276.197726 -302.442487 
L 274.503746 -298.733344 
L 272.809766 -294.668558 
L 271.115786 -290.251128 
L 269.421806 -285.48926 
L 267.727826 -280.396126 
L 266.033846 -274.989508 
L 264.339866 -269.291311 
L 262.645887 -263.327 
L 260.951907 -257.124946 
L 259.257927 -250.715726 
L 257.563947 -244.131403 
L 255.869967 -237.404802 
L 254.175987 -230.568811 
L 252.482007 -223.655738 
L 250.788027 -216.696736 
L 249.094047 -209.721318 
L 247.400068 -202.756974 
L 245.706088 -195.828889 
L 244.012108 -188.95978 
L 242.318128 -182.169829 
L 240.624148 -175.476723 
L 238.930168 -168.895773 
L 237.236188 -162.440103 
L 235.542208 -156.120895 
L 233.848228 -149.947659 
L 232.154249 -143.928528 
L 230.460269 -138.070535 
L 228.766289 -132.379881 
L 227.072309 -126.862159 
L 225.378329 -121.522544 
L 223.684349 -116.365919 
L 221.990369 -111.396961 
L 220.296389 -106.620165 
L 218.602409 -102.039818 
L 216.90843 -97.659938 
L 215.21445 -93.48417 
L 213.52047 -89.515664 
L 211.82649 -85.75694 
L 210.13251 -82.209749 
L 208.43853 -78.87494 
L 206.74455 -75.752353 
L 205.05057 -72.840724 
L 203.35659 -70.137633 
L 201.662611 -67.639472 
L 199.968631 -65.341462 
L 198.274651 -63.23769 
L 196.580671 -61.321193 
L 194.886691 -59.584051 
L 193.192711 -58.017523 
L 191.498731 -56.612188 
L 189.804751 -55.358096 
L 188.110771 -54.244938 
L 186.416792 -53.262198 
L 184.722812 -52.399313 
L 183.028832 -51.645818 
L 181.334852 -50.991475 
L 179.640872 -50.426388 
L 177.946892 -49.941104 
L 176.252912 -49.526684 
L 174.558932 -49.174768 
L 172.864952 -48.877612 
L 171.170973 -48.628112 
L 169.476993 -48.41981 
L 167.783013 -48.246887 
L 166.089033 -48.10415 
L 164.395053 -47.986997 
L 162.701073 -47.891389 
L 161.007093 -47.813807 
z
" style="stroke: #87ceeb"/>
    </defs>
    <g clip-path="url(#p832f296a11)">
     <use xlink:href="#m9a01ab5d3a" x="0" y="432" style="fill: #87ceeb; fill-opacity: 0.25; stroke: #87ceeb"/>
    </g>
   </g>
   <g id="PolyCollection_2">
    <defs>
     <path id="m2e9cf2780b" d="M 92.290909 -47.979216 
L 92.290909 -47.52 
L 94.152366 -47.52 
L 96.013823 -47.52 
L 97.87528 -47.52 
L 99.736737 -47.52 
L 101.598194 -47.52 
L 103.459651 -47.52 
L 105.321108 -47.52 
L 107.182565 -47.52 
L 109.044022 -47.52 
L 110.90548 -47.52 
L 112.766937 -47.52 
L 114.628394 -47.52 
L 116.489851 -47.52 
L 118.351308 -47.52 
L 120.212765 -47.52 
L 122.074222 -47.52 
L 123.935679 -47.52 
L 125.797136 -47.52 
L 127.658593 -47.52 
L 129.52005 -47.52 
L 131.381507 -47.52 
L 133.242964 -47.52 
L 135.104421 -47.52 
L 136.965878 -47.52 
L 138.827335 -47.52 
L 140.688792 -47.52 
L 142.550249 -47.52 
L 144.411706 -47.52 
L 146.273163 -47.52 
L 148.13462 -47.52 
L 149.996077 -47.52 
L 151.857535 -47.52 
L 153.718992 -47.52 
L 155.580449 -47.52 
L 157.441906 -47.52 
L 159.303363 -47.52 
L 161.16482 -47.52 
L 163.026277 -47.52 
L 164.887734 -47.52 
L 166.749191 -47.52 
L 168.610648 -47.52 
L 170.472105 -47.52 
L 172.333562 -47.52 
L 174.195019 -47.52 
L 176.056476 -47.52 
L 177.917933 -47.52 
L 179.77939 -47.52 
L 181.640847 -47.52 
L 183.502304 -47.52 
L 185.363761 -47.52 
L 187.225218 -47.52 
L 189.086675 -47.52 
L 190.948132 -47.52 
L 192.80959 -47.52 
L 194.671047 -47.52 
L 196.532504 -47.52 
L 198.393961 -47.52 
L 200.255418 -47.52 
L 202.116875 -47.52 
L 203.978332 -47.52 
L 205.839789 -47.52 
L 207.701246 -47.52 
L 209.562703 -47.52 
L 211.42416 -47.52 
L 213.285617 -47.52 
L 215.147074 -47.52 
L 217.008531 -47.52 
L 218.869988 -47.52 
L 220.731445 -47.52 
L 222.592902 -47.52 
L 224.454359 -47.52 
L 226.315816 -47.52 
L 228.177273 -47.52 
L 230.03873 -47.52 
L 231.900187 -47.52 
L 233.761645 -47.52 
L 235.623102 -47.52 
L 237.484559 -47.52 
L 239.346016 -47.52 
L 241.207473 -47.52 
L 243.06893 -47.52 
L 244.930387 -47.52 
L 246.791844 -47.52 
L 248.653301 -47.52 
L 250.514758 -47.52 
L 252.376215 -47.52 
L 254.237672 -47.52 
L 256.099129 -47.52 
L 257.960586 -47.52 
L 259.822043 -47.52 
L 261.6835 -47.52 
L 263.544957 -47.52 
L 265.406414 -47.52 
L 267.267871 -47.52 
L 269.129328 -47.52 
L 270.990785 -47.52 
L 272.852242 -47.52 
L 274.7137 -47.52 
L 276.575157 -47.52 
L 278.436614 -47.52 
L 280.298071 -47.52 
L 282.159528 -47.52 
L 284.020985 -47.52 
L 285.882442 -47.52 
L 287.743899 -47.52 
L 289.605356 -47.52 
L 291.466813 -47.52 
L 293.32827 -47.52 
L 295.189727 -47.52 
L 297.051184 -47.52 
L 298.912641 -47.52 
L 300.774098 -47.52 
L 302.635555 -47.52 
L 304.497012 -47.52 
L 306.358469 -47.52 
L 308.219926 -47.52 
L 310.081383 -47.52 
L 311.94284 -47.52 
L 313.804297 -47.52 
L 315.665755 -47.52 
L 317.527212 -47.52 
L 319.388669 -47.52 
L 321.250126 -47.52 
L 323.111583 -47.52 
L 324.97304 -47.52 
L 326.834497 -47.52 
L 328.695954 -47.52 
L 330.557411 -47.52 
L 332.418868 -47.52 
L 334.280325 -47.52 
L 336.141782 -47.52 
L 338.003239 -47.52 
L 339.864696 -47.52 
L 341.726153 -47.52 
L 343.58761 -47.52 
L 345.449067 -47.52 
L 347.310524 -47.52 
L 349.171981 -47.52 
L 351.033438 -47.52 
L 352.894895 -47.52 
L 354.756352 -47.52 
L 356.61781 -47.52 
L 358.479267 -47.52 
L 360.340724 -47.52 
L 362.202181 -47.52 
L 364.063638 -47.52 
L 365.925095 -47.52 
L 367.786552 -47.52 
L 369.648009 -47.52 
L 371.509466 -47.52 
L 373.370923 -47.52 
L 375.23238 -47.52 
L 377.093837 -47.52 
L 378.955294 -47.52 
L 380.816751 -47.52 
L 382.678208 -47.52 
L 384.539665 -47.52 
L 386.401122 -47.52 
L 388.262579 -47.52 
L 390.124036 -47.52 
L 391.985493 -47.52 
L 393.84695 -47.52 
L 395.708407 -47.52 
L 397.569865 -47.52 
L 399.431322 -47.52 
L 401.292779 -47.52 
L 403.154236 -47.52 
L 405.015693 -47.52 
L 406.87715 -47.52 
L 408.738607 -47.52 
L 410.600064 -47.52 
L 412.461521 -47.52 
L 414.322978 -47.52 
L 416.184435 -47.52 
L 418.045892 -47.52 
L 419.907349 -47.52 
L 421.768806 -47.52 
L 423.630263 -47.52 
L 425.49172 -47.52 
L 427.353177 -47.52 
L 429.214634 -47.52 
L 431.076091 -47.52 
L 432.937548 -47.52 
L 434.799005 -47.52 
L 436.660462 -47.52 
L 438.52192 -47.52 
L 440.383377 -47.52 
L 442.244834 -47.52 
L 444.106291 -47.52 
L 445.967748 -47.52 
L 447.829205 -47.52 
L 449.690662 -47.52 
L 451.552119 -47.52 
L 453.413576 -47.52 
L 455.275033 -47.52 
L 457.13649 -47.52 
L 458.997947 -47.52 
L 460.859404 -47.52 
L 462.720861 -47.52 
L 462.720861 -47.959912 
L 462.720861 -47.959912 
L 460.859404 -48.054271 
L 458.997947 -48.166344 
L 457.13649 -48.298885 
L 455.275033 -48.45496 
L 453.413576 -48.637955 
L 451.552119 -48.851588 
L 449.690662 -49.099907 
L 447.829205 -49.38729 
L 445.967748 -49.718433 
L 444.106291 -50.098329 
L 442.244834 -50.532242 
L 440.383377 -51.025668 
L 438.52192 -51.584285 
L 436.660462 -52.213893 
L 434.799005 -52.920344 
L 432.937548 -53.70946 
L 431.076091 -54.586936 
L 429.214634 -55.55824 
L 427.353177 -56.628503 
L 425.49172 -57.802396 
L 423.630263 -59.084012 
L 421.768806 -60.476738 
L 419.907349 -61.983134 
L 418.045892 -63.604813 
L 416.184435 -65.342328 
L 414.322978 -67.195077 
L 412.461521 -69.161217 
L 410.600064 -71.237604 
L 408.738607 -73.419749 
L 406.87715 -75.701815 
L 405.015693 -78.076624 
L 403.154236 -80.535719 
L 401.292779 -83.069442 
L 399.431322 -85.667058 
L 397.569865 -88.31691 
L 395.708407 -91.00661 
L 393.84695 -93.723258 
L 391.985493 -96.453694 
L 390.124036 -99.184771 
L 388.262579 -101.903649 
L 386.401122 -104.598095 
L 384.539665 -107.256799 
L 382.678208 -109.869675 
L 380.816751 -112.428164 
L 378.955294 -114.925511 
L 377.093837 -117.357015 
L 375.23238 -119.720252 
L 373.370923 -122.015252 
L 371.509466 -124.244631 
L 369.648009 -126.413674 
L 367.786552 -128.530358 
L 365.925095 -130.605324 
L 364.063638 -132.651786 
L 362.202181 -134.685386 
L 360.340724 -136.723993 
L 358.479267 -138.787452 
L 356.61781 -140.897281 
L 354.756352 -143.076335 
L 352.894895 -145.348433 
L 351.033438 -147.737953 
L 349.171981 -150.269419 
L 347.310524 -152.967067 
L 345.449067 -155.854415 
L 343.58761 -158.953834 
L 341.726153 -162.286132 
L 339.864696 -165.870155 
L 338.003239 -169.722413 
L 336.141782 -173.856732 
L 334.280325 -178.283945 
L 332.418868 -183.01161 
L 330.557411 -188.043773 
L 328.695954 -193.380769 
L 326.834497 -199.01907 
L 324.97304 -204.951168 
L 323.111583 -211.165511 
L 321.250126 -217.646481 
L 319.388669 -224.374419 
L 317.527212 -231.3257 
L 315.665755 -238.472856 
L 313.804297 -245.784746 
L 311.94284 -253.226785 
L 310.081383 -260.761215 
L 308.219926 -268.347435 
L 306.358469 -275.942384 
L 304.497012 -283.500964 
L 302.635555 -290.976521 
L 300.774098 -298.321371 
L 298.912641 -305.487352 
L 297.051184 -312.426427 
L 295.189727 -319.091297 
L 293.32827 -325.436036 
L 291.466813 -331.416726 
L 289.605356 -336.992088 
L 287.743899 -342.124086 
L 285.882442 -346.778501 
L 284.020985 -350.925449 
L 282.159528 -354.539846 
L 280.298071 -357.601789 
L 278.436614 -360.096853 
L 276.575157 -362.016295 
L 274.7137 -363.357152 
L 272.852242 -364.122234 
L 270.990785 -364.32 
L 269.129328 -363.964336 
L 267.267871 -363.074222 
L 265.406414 -361.673305 
L 263.544957 -359.789383 
L 261.6835 -357.453822 
L 259.822043 -354.700907 
L 257.960586 -351.567153 
L 256.099129 -348.090596 
L 254.237672 -344.310077 
L 252.376215 -340.26453 
L 250.514758 -335.99231 
L 248.653301 -331.530564 
L 246.791844 -326.914657 
L 244.930387 -322.177671 
L 243.06893 -317.349995 
L 241.207473 -312.458985 
L 239.346016 -307.528733 
L 237.484559 -302.579916 
L 235.623102 -297.629736 
L 233.761645 -292.691956 
L 231.900187 -287.776999 
L 230.03873 -282.892128 
L 228.177273 -278.041677 
L 226.315816 -273.227341 
L 224.454359 -268.44849 
L 222.592902 -263.702517 
L 220.731445 -258.985197 
L 218.869988 -254.291046 
L 217.008531 -249.613681 
L 215.147074 -244.946155 
L 213.285617 -240.281284 
L 211.42416 -235.611935 
L 209.562703 -230.93129 
L 207.701246 -226.233078 
L 205.839789 -221.511767 
L 203.978332 -216.762735 
L 202.116875 -211.98239 
L 200.255418 -207.168276 
L 198.393961 -202.319135 
L 196.532504 -197.434959 
L 194.671047 -192.516997 
L 192.80959 -187.56776 
L 190.948132 -182.590991 
L 189.086675 -177.591627 
L 187.225218 -172.57574 
L 185.363761 -167.550465 
L 183.502304 -162.523915 
L 181.640847 -157.505084 
L 179.77939 -152.503738 
L 177.917933 -147.530299 
L 176.056476 -142.595715 
L 174.195019 -137.711324 
L 172.333562 -132.888719 
L 170.472105 -128.139593 
L 168.610648 -123.4756 
L 166.749191 -118.908198 
L 164.887734 -114.448505 
L 163.026277 -110.107155 
L 161.16482 -105.894161 
L 159.303363 -101.818788 
L 157.441906 -97.889439 
L 155.580449 -94.113549 
L 153.718992 -90.497506 
L 151.857535 -87.046578 
L 149.996077 -83.764868 
L 148.13462 -80.655281 
L 146.273163 -77.719523 
L 144.411706 -74.9581 
L 142.550249 -72.370361 
L 140.688792 -69.954534 
L 138.827335 -67.707798 
L 136.965878 -65.626357 
L 135.104421 -63.705529 
L 133.242964 -61.93985 
L 131.381507 -60.323173 
L 129.52005 -58.848786 
L 127.658593 -57.509518 
L 125.797136 -56.297854 
L 123.935679 -55.206041 
L 122.074222 -54.226194 
L 120.212765 -53.350392 
L 118.351308 -52.570768 
L 116.489851 -51.879587 
L 114.628394 -51.26932 
L 112.766937 -50.7327 
L 110.90548 -50.262775 
L 109.044022 -49.852946 
L 107.182565 -49.497 
L 105.321108 -49.189126 
L 103.459651 -48.92393 
L 101.598194 -48.69644 
L 99.736737 -48.502101 
L 97.87528 -48.336769 
L 96.013823 -48.196696 
L 94.152366 -48.078514 
L 92.290909 -47.979216 
z
" style="stroke: #fa8072"/>
    </defs>
    <g clip-path="url(#p832f296a11)">
     <use xlink:href="#m2e9cf2780b" x="0" y="432" style="fill: #fa8072; fill-opacity: 0.25; stroke: #fa8072"/>
    </g>
   </g>
   <g id="matplotlib.axis_1">
    <g id="xtick_1">
     <g id="line2d_1">
      <defs>
       <path id="m49637990d1" d="M 0 0 
L 0 3.5 
" style="stroke: #000000; stroke-width: 0.8"/>
      </defs>
      <g>
       <use xlink:href="#m49637990d1" x="99.832099" y="384.48" style="stroke: #000000; stroke-width: 0.8"/>
      </g>
     </g>
     <g id="text_1">
      <!-- −1 -->
      <g transform="translate(94.131318 398.653437) scale(0.1 -0.1)">
       <defs>
        <path id="Helvetica-2212" d="M 3547 1894 
L 3547 1369 
L 288 1369 
L 288 1894 
L 3547 1894 
z
" transform="scale(0.015625)"/>
        <path id="Helvetica-31" d="M 613 3169 
L 613 3600 
Q 1222 3659 1462 3798 
Q 1703 3938 1822 4456 
L 2266 4456 
L 2266 0 
L 1666 0 
L 1666 3169 
L 613 3169 
z
" transform="scale(0.015625)"/>
       </defs>
       <use xlink:href="#Helvetica-2212"/>
       <use xlink:href="#Helvetica-31" x="58.398438"/>
      </g>
     </g>
    </g>
    <g id="xtick_2">
     <g id="line2d_2">
      <g>
       <use xlink:href="#m49637990d1" x="157.914409" y="384.48" style="stroke: #000000; stroke-width: 0.8"/>
      </g>
     </g>
     <g id="text_2">
      <!-- 0 -->
      <g transform="translate(155.13394 398.653437) scale(0.1 -0.1)">
       <defs>
        <path id="Helvetica-30" d="M 1731 4475 
Q 2600 4475 2988 3759 
Q 3288 3206 3288 2244 
Q 3288 1331 3016 734 
Q 2622 -122 1728 -122 
Q 922 -122 528 578 
Q 200 1163 200 2147 
Q 200 2909 397 3456 
Q 766 4475 1731 4475 
z
M 1725 391 
Q 2163 391 2422 778 
Q 2681 1166 2681 2222 
Q 2681 2984 2493 3476 
Q 2306 3969 1766 3969 
Q 1269 3969 1039 3501 
Q 809 3034 809 2125 
Q 809 1441 956 1025 
Q 1181 391 1725 391 
z
" transform="scale(0.015625)"/>
       </defs>
       <use xlink:href="#Helvetica-30"/>
      </g>
     </g>
    </g>
    <g id="xtick_3">
     <g id="line2d_3">
      <g>
       <use xlink:href="#m49637990d1" x="215.996719" y="384.48" style="stroke: #000000; stroke-width: 0.8"/>
      </g>
     </g>
     <g id="text_3">
      <!-- 1 -->
      <g transform="translate(213.21625 398.653437) scale(0.1 -0.1)">
       <use xlink:href="#Helvetica-31"/>
      </g>
     </g>
    </g>
    <g id="xtick_4">
     <g id="line2d_4">
      <g>
       <use xlink:href="#m49637990d1" x="274.079029" y="384.48" style="stroke: #000000; stroke-width: 0.8"/>
      </g>
     </g>
     <g id="text_4">
      <!-- 2 -->
      <g transform="translate(271.29856 398.653437) scale(0.1 -0.1)">
       <defs>
        <path id="Helvetica-32" d="M 200 0 
Q 231 578 439 1006 
Q 647 1434 1250 1784 
L 1850 2131 
Q 2253 2366 2416 2531 
Q 2672 2791 2672 3125 
Q 2672 3516 2437 3745 
Q 2203 3975 1813 3975 
Q 1234 3975 1013 3538 
Q 894 3303 881 2888 
L 309 2888 
Q 319 3472 525 3841 
Q 891 4491 1816 4491 
Q 2584 4491 2939 4075 
Q 3294 3659 3294 3150 
Q 3294 2613 2916 2231 
Q 2697 2009 2131 1694 
L 1703 1456 
Q 1397 1288 1222 1134 
Q 909 863 828 531 
L 3272 531 
L 3272 0 
L 200 0 
z
" transform="scale(0.015625)"/>
       </defs>
       <use xlink:href="#Helvetica-32"/>
      </g>
     </g>
    </g>
    <g id="xtick_5">
     <g id="line2d_5">
      <g>
       <use xlink:href="#m49637990d1" x="332.161339" y="384.48" style="stroke: #000000; stroke-width: 0.8"/>
      </g>
     </g>
     <g id="text_5">
      <!-- 3 -->
      <g transform="translate(329.38087 398.653437) scale(0.1 -0.1)">
       <defs>
        <path id="Helvetica-33" d="M 1663 -122 
Q 869 -122 511 314 
Q 153 750 153 1375 
L 741 1375 
Q 778 941 903 744 
Q 1122 391 1694 391 
Q 2138 391 2406 628 
Q 2675 866 2675 1241 
Q 2675 1703 2392 1887 
Q 2109 2072 1606 2072 
Q 1550 2072 1492 2070 
Q 1434 2069 1375 2066 
L 1375 2563 
Q 1463 2553 1522 2550 
Q 1581 2547 1650 2547 
Q 1966 2547 2169 2647 
Q 2525 2822 2525 3272 
Q 2525 3606 2287 3787 
Q 2050 3969 1734 3969 
Q 1172 3969 956 3594 
Q 838 3388 822 3006 
L 266 3006 
Q 266 3506 466 3856 
Q 809 4481 1675 4481 
Q 2359 4481 2734 4176 
Q 3109 3872 3109 3294 
Q 3109 2881 2888 2625 
Q 2750 2466 2531 2375 
Q 2884 2278 3082 2001 
Q 3281 1725 3281 1325 
Q 3281 684 2859 281 
Q 2438 -122 1663 -122 
z
" transform="scale(0.015625)"/>
       </defs>
       <use xlink:href="#Helvetica-33"/>
      </g>
     </g>
    </g>
    <g id="xtick_6">
     <g id="line2d_6">
      <g>
       <use xlink:href="#m49637990d1" x="390.243648" y="384.48" style="stroke: #000000; stroke-width: 0.8"/>
      </g>
     </g>
     <g id="text_6">
      <!-- 4 -->
      <g transform="translate(387.46318 398.653437) scale(0.1 -0.1)">
       <defs>
        <path id="Helvetica-34" d="M 2116 1584 
L 2116 3613 
L 681 1584 
L 2116 1584 
z
M 2125 0 
L 2125 1094 
L 163 1094 
L 163 1644 
L 2213 4488 
L 2688 4488 
L 2688 1584 
L 3347 1584 
L 3347 1094 
L 2688 1094 
L 2688 0 
L 2125 0 
z
" transform="scale(0.015625)"/>
       </defs>
       <use xlink:href="#Helvetica-34"/>
      </g>
     </g>
    </g>
    <g id="xtick_7">
     <g id="line2d_7">
      <g>
       <use xlink:href="#m49637990d1" x="448.325958" y="384.48" style="stroke: #000000; stroke-width: 0.8"/>
      </g>
     </g>
     <g id="text_7">
      <!-- 5 -->
      <g transform="translate(445.54549 398.653437) scale(0.1 -0.1)">
       <defs>
        <path id="Helvetica-35" d="M 791 1141 
Q 847 659 1238 475 
Q 1438 381 1700 381 
Q 2200 381 2440 700 
Q 2681 1019 2681 1406 
Q 2681 1875 2395 2131 
Q 2109 2388 1709 2388 
Q 1419 2388 1211 2275 
Q 1003 2163 856 1963 
L 369 1991 
L 709 4400 
L 3034 4400 
L 3034 3856 
L 1131 3856 
L 941 2613 
Q 1097 2731 1238 2791 
Q 1488 2894 1816 2894 
Q 2431 2894 2859 2497 
Q 3288 2100 3288 1491 
Q 3288 856 2895 371 
Q 2503 -113 1644 -113 
Q 1097 -113 676 195 
Q 256 503 206 1141 
L 791 1141 
z
" transform="scale(0.015625)"/>
       </defs>
       <use xlink:href="#Helvetica-35"/>
      </g>
     </g>
    </g>
    <g id="xtick_8">
     <g id="line2d_8">
      <g>
       <use xlink:href="#m49637990d1" x="506.408268" y="384.48" style="stroke: #000000; stroke-width: 0.8"/>
      </g>
     </g>
     <g id="text_8">
      <!-- 6 -->
      <g transform="translate(503.627799 398.653437) scale(0.1 -0.1)">
       <defs>
        <path id="Helvetica-36" d="M 1872 4494 
Q 2622 4494 2917 4105 
Q 3213 3716 3213 3303 
L 2656 3303 
Q 2606 3569 2497 3719 
Q 2294 4000 1881 4000 
Q 1409 4000 1131 3564 
Q 853 3128 822 2316 
Q 1016 2600 1309 2741 
Q 1578 2866 1909 2866 
Q 2472 2866 2890 2506 
Q 3309 2147 3309 1434 
Q 3309 825 2912 354 
Q 2516 -116 1781 -116 
Q 1153 -116 697 361 
Q 241 838 241 1966 
Q 241 2800 444 3381 
Q 834 4494 1872 4494 
z
M 1831 384 
Q 2275 384 2495 682 
Q 2716 981 2716 1388 
Q 2716 1731 2519 2042 
Q 2322 2353 1803 2353 
Q 1441 2353 1167 2112 
Q 894 1872 894 1388 
Q 894 963 1142 673 
Q 1391 384 1831 384 
z
" transform="scale(0.015625)"/>
       </defs>
       <use xlink:href="#Helvetica-36"/>
      </g>
     </g>
    </g>
    <g id="text_9">
     <!-- Fibrinogen (mg/mL) -->
     <g transform="translate(251.578125 412.028437) scale(0.1 -0.1)">
      <defs>
       <path id="Helvetica-46" d="M 547 4591 
L 3731 4591 
L 3731 4028 
L 1169 4028 
L 1169 2634 
L 3422 2634 
L 3422 2088 
L 1169 2088 
L 1169 0 
L 547 0 
L 547 4591 
z
" transform="scale(0.015625)"/>
       <path id="Helvetica-69" d="M 413 3331 
L 984 3331 
L 984 0 
L 413 0 
L 413 3331 
z
M 413 4591 
L 984 4591 
L 984 3953 
L 413 3953 
L 413 4591 
z
" transform="scale(0.015625)"/>
       <path id="Helvetica-62" d="M 369 4606 
L 916 4606 
L 916 2941 
Q 1100 3181 1356 3307 
Q 1613 3434 1913 3434 
Q 2538 3434 2927 3004 
Q 3316 2575 3316 1738 
Q 3316 944 2931 419 
Q 2547 -106 1866 -106 
Q 1484 -106 1222 78 
Q 1066 188 888 428 
L 888 0 
L 369 0 
L 369 4606 
z
M 1831 391 
Q 2288 391 2514 753 
Q 2741 1116 2741 1709 
Q 2741 2238 2514 2584 
Q 2288 2931 1847 2931 
Q 1463 2931 1173 2647 
Q 884 2363 884 1709 
Q 884 1238 1003 944 
Q 1225 391 1831 391 
z
" transform="scale(0.015625)"/>
       <path id="Helvetica-72" d="M 428 3347 
L 963 3347 
L 963 2769 
Q 1028 2938 1284 3180 
Q 1541 3422 1875 3422 
Q 1891 3422 1928 3419 
Q 1966 3416 2056 3406 
L 2056 2813 
Q 2006 2822 1964 2825 
Q 1922 2828 1872 2828 
Q 1447 2828 1219 2554 
Q 991 2281 991 1925 
L 991 0 
L 428 0 
L 428 3347 
z
" transform="scale(0.015625)"/>
       <path id="Helvetica-6e" d="M 413 3347 
L 947 3347 
L 947 2872 
Q 1184 3166 1450 3294 
Q 1716 3422 2041 3422 
Q 2753 3422 3003 2925 
Q 3141 2653 3141 2147 
L 3141 0 
L 2569 0 
L 2569 2109 
Q 2569 2416 2478 2603 
Q 2328 2916 1934 2916 
Q 1734 2916 1606 2875 
Q 1375 2806 1200 2600 
Q 1059 2434 1017 2257 
Q 975 2081 975 1753 
L 975 0 
L 413 0 
L 413 3347 
z
M 1734 3428 
L 1734 3428 
z
" transform="scale(0.015625)"/>
       <path id="Helvetica-6f" d="M 1741 363 
Q 2300 363 2508 786 
Q 2716 1209 2716 1728 
Q 2716 2197 2566 2491 
Q 2328 2953 1747 2953 
Q 1231 2953 997 2559 
Q 763 2166 763 1609 
Q 763 1075 997 719 
Q 1231 363 1741 363 
z
M 1763 3444 
Q 2409 3444 2856 3012 
Q 3303 2581 3303 1744 
Q 3303 934 2909 406 
Q 2516 -122 1688 -122 
Q 997 -122 590 345 
Q 184 813 184 1600 
Q 184 2444 612 2944 
Q 1041 3444 1763 3444 
z
M 1744 3428 
L 1744 3428 
z
" transform="scale(0.015625)"/>
       <path id="Helvetica-67" d="M 1594 3406 
Q 1988 3406 2281 3213 
Q 2441 3103 2606 2894 
L 2606 3316 
L 3125 3316 
L 3125 272 
Q 3125 -366 2938 -734 
Q 2588 -1416 1616 -1416 
Q 1075 -1416 706 -1173 
Q 338 -931 294 -416 
L 866 -416 
Q 906 -641 1028 -763 
Q 1219 -950 1628 -950 
Q 2275 -950 2475 -494 
Q 2594 -225 2584 466 
Q 2416 209 2178 84 
Q 1941 -41 1550 -41 
Q 1006 -41 598 345 
Q 191 731 191 1622 
Q 191 2463 602 2934 
Q 1013 3406 1594 3406 
z
M 2606 1688 
Q 2606 2309 2350 2609 
Q 2094 2909 1697 2909 
Q 1103 2909 884 2353 
Q 769 2056 769 1575 
Q 769 1009 998 714 
Q 1228 419 1616 419 
Q 2222 419 2469 966 
Q 2606 1275 2606 1688 
z
M 1659 3428 
L 1659 3428 
z
" transform="scale(0.015625)"/>
       <path id="Helvetica-65" d="M 1806 3422 
Q 2163 3422 2497 3255 
Q 2831 3088 3006 2822 
Q 3175 2569 3231 2231 
Q 3281 2000 3281 1494 
L 828 1494 
Q 844 984 1069 676 
Q 1294 369 1766 369 
Q 2206 369 2469 659 
Q 2619 828 2681 1050 
L 3234 1050 
Q 3213 866 3089 639 
Q 2966 413 2813 269 
Q 2556 19 2178 -69 
Q 1975 -119 1719 -119 
Q 1094 -119 659 336 
Q 225 791 225 1609 
Q 225 2416 662 2919 
Q 1100 3422 1806 3422 
z
M 2703 1941 
Q 2669 2306 2544 2525 
Q 2313 2931 1772 2931 
Q 1384 2931 1121 2651 
Q 859 2372 844 1941 
L 2703 1941 
z
M 1753 3428 
L 1753 3428 
z
" transform="scale(0.015625)"/>
       <path id="Helvetica-20" transform="scale(0.015625)"/>
       <path id="Helvetica-28" d="M 1894 4666 
Q 1403 3713 1256 3263 
Q 1034 2578 1034 1681 
Q 1034 775 1288 25 
Q 1444 -438 1903 -1306 
L 1525 -1306 
Q 1069 -594 959 -397 
Q 850 -200 722 138 
Q 547 600 478 1125 
Q 444 1397 444 1644 
Q 444 2569 734 3291 
Q 919 3750 1503 4666 
L 1894 4666 
z
" transform="scale(0.015625)"/>
       <path id="Helvetica-6d" d="M 413 3347 
L 969 3347 
L 969 2872 
Q 1169 3119 1331 3231 
Q 1609 3422 1963 3422 
Q 2363 3422 2606 3225 
Q 2744 3113 2856 2894 
Q 3044 3163 3297 3292 
Q 3550 3422 3866 3422 
Q 4541 3422 4784 2934 
Q 4916 2672 4916 2228 
L 4916 0 
L 4331 0 
L 4331 2325 
Q 4331 2659 4164 2784 
Q 3997 2909 3756 2909 
Q 3425 2909 3186 2687 
Q 2947 2466 2947 1947 
L 2947 0 
L 2375 0 
L 2375 2184 
Q 2375 2525 2294 2681 
Q 2166 2916 1816 2916 
Q 1497 2916 1236 2669 
Q 975 2422 975 1775 
L 975 0 
L 413 0 
L 413 3347 
z
" transform="scale(0.015625)"/>
       <path id="Helvetica-2f" d="M 1456 4591 
L 1931 4591 
L 475 0 
L 0 0 
L 1456 4591 
z
" transform="scale(0.015625)"/>
       <path id="Helvetica-4c" d="M 488 4591 
L 1109 4591 
L 1109 547 
L 3434 547 
L 3434 0 
L 488 0 
L 488 4591 
z
" transform="scale(0.015625)"/>
       <path id="Helvetica-29" d="M 222 -1306 
Q 719 -338 863 106 
Q 1081 778 1081 1681 
Q 1081 2584 828 3334 
Q 672 3797 213 4666 
L 591 4666 
Q 1072 3897 1173 3717 
Q 1275 3538 1394 3222 
Q 1544 2831 1608 2450 
Q 1672 2069 1672 1716 
Q 1672 791 1378 66 
Q 1194 -400 613 -1306 
L 222 -1306 
z
" transform="scale(0.015625)"/>
      </defs>
      <use xlink:href="#Helvetica-46"/>
      <use xlink:href="#Helvetica-69" x="61.083984"/>
      <use xlink:href="#Helvetica-62" x="83.300781"/>
      <use xlink:href="#Helvetica-72" x="138.916016"/>
      <use xlink:href="#Helvetica-69" x="172.216797"/>
      <use xlink:href="#Helvetica-6e" x="194.433594"/>
      <use xlink:href="#Helvetica-6f" x="250.048828"/>
      <use xlink:href="#Helvetica-67" x="305.664062"/>
      <use xlink:href="#Helvetica-65" x="361.279297"/>
      <use xlink:href="#Helvetica-6e" x="416.894531"/>
      <use xlink:href="#Helvetica-20" x="472.509766"/>
      <use xlink:href="#Helvetica-28" x="500.292969"/>
      <use xlink:href="#Helvetica-6d" x="533.59375"/>
      <use xlink:href="#Helvetica-67" x="616.894531"/>
      <use xlink:href="#Helvetica-2f" x="672.509766"/>
      <use xlink:href="#Helvetica-6d" x="700.292969"/>
      <use xlink:href="#Helvetica-4c" x="783.59375"/>
      <use xlink:href="#Helvetica-29" x="839.208984"/>
     </g>
    </g>
   </g>
   <g id="matplotlib.axis_2">
    <g id="ytick_1">
     <g id="line2d_9">
      <defs>
       <path id="me6990cf848" d="M 0 0 
L -3.5 0 
" style="stroke: #000000; stroke-width: 0.8"/>
      </defs>
      <g>
       <use xlink:href="#me6990cf848" x="72" y="384.48" style="stroke: #000000; stroke-width: 0.8"/>
      </g>
     </g>
     <g id="text_10">
      <!-- 0.00 -->
      <g transform="translate(45.539062 388.066719) scale(0.1 -0.1)">
       <defs>
        <path id="Helvetica-2e" d="M 547 681 
L 1200 681 
L 1200 0 
L 547 0 
L 547 681 
z
" transform="scale(0.015625)"/>
       </defs>
       <use xlink:href="#Helvetica-30"/>
       <use xlink:href="#Helvetica-2e" x="55.615234"/>
       <use xlink:href="#Helvetica-30" x="83.398438"/>
       <use xlink:href="#Helvetica-30" x="139.013672"/>
      </g>
     </g>
    </g>
    <g id="ytick_2">
     <g id="line2d_10">
      <g>
       <use xlink:href="#me6990cf848" x="72" y="346.667209" style="stroke: #000000; stroke-width: 0.8"/>
      </g>
     </g>
     <g id="text_11">
      <!-- 0.05 -->
      <g transform="translate(45.539062 350.253927) scale(0.1 -0.1)">
       <use xlink:href="#Helvetica-30"/>
       <use xlink:href="#Helvetica-2e" x="55.615234"/>
       <use xlink:href="#Helvetica-30" x="83.398438"/>
       <use xlink:href="#Helvetica-35" x="139.013672"/>
      </g>
     </g>
    </g>
    <g id="ytick_3">
     <g id="line2d_11">
      <g>
       <use xlink:href="#me6990cf848" x="72" y="308.854417" style="stroke: #000000; stroke-width: 0.8"/>
      </g>
     </g>
     <g id="text_12">
      <!-- 0.10 -->
      <g transform="translate(45.539062 312.441136) scale(0.1 -0.1)">
       <use xlink:href="#Helvetica-30"/>
       <use xlink:href="#Helvetica-2e" x="55.615234"/>
       <use xlink:href="#Helvetica-31" x="83.398438"/>
       <use xlink:href="#Helvetica-30" x="139.013672"/>
      </g>
     </g>
    </g>
    <g id="ytick_4">
     <g id="line2d_12">
      <g>
       <use xlink:href="#me6990cf848" x="72" y="271.041626" style="stroke: #000000; stroke-width: 0.8"/>
      </g>
     </g>
     <g id="text_13">
      <!-- 0.15 -->
      <g transform="translate(45.539062 274.628345) scale(0.1 -0.1)">
       <use xlink:href="#Helvetica-30"/>
       <use xlink:href="#Helvetica-2e" x="55.615234"/>
       <use xlink:href="#Helvetica-31" x="83.398438"/>
       <use xlink:href="#Helvetica-35" x="139.013672"/>
      </g>
     </g>
    </g>
    <g id="ytick_5">
     <g id="line2d_13">
      <g>
       <use xlink:href="#me6990cf848" x="72" y="233.228835" style="stroke: #000000; stroke-width: 0.8"/>
      </g>
     </g>
     <g id="text_14">
      <!-- 0.20 -->
      <g transform="translate(45.539062 236.815553) scale(0.1 -0.1)">
       <use xlink:href="#Helvetica-30"/>
       <use xlink:href="#Helvetica-2e" x="55.615234"/>
       <use xlink:href="#Helvetica-32" x="83.398438"/>
       <use xlink:href="#Helvetica-30" x="139.013672"/>
      </g>
     </g>
    </g>
    <g id="ytick_6">
     <g id="line2d_14">
      <g>
       <use xlink:href="#me6990cf848" x="72" y="195.416043" style="stroke: #000000; stroke-width: 0.8"/>
      </g>
     </g>
     <g id="text_15">
      <!-- 0.25 -->
      <g transform="translate(45.539062 199.002762) scale(0.1 -0.1)">
       <use xlink:href="#Helvetica-30"/>
       <use xlink:href="#Helvetica-2e" x="55.615234"/>
       <use xlink:href="#Helvetica-32" x="83.398438"/>
       <use xlink:href="#Helvetica-35" x="139.013672"/>
      </g>
     </g>
    </g>
    <g id="ytick_7">
     <g id="line2d_15">
      <g>
       <use xlink:href="#me6990cf848" x="72" y="157.603252" style="stroke: #000000; stroke-width: 0.8"/>
      </g>
     </g>
     <g id="text_16">
      <!-- 0.30 -->
      <g transform="translate(45.539062 161.189971) scale(0.1 -0.1)">
       <use xlink:href="#Helvetica-30"/>
       <use xlink:href="#Helvetica-2e" x="55.615234"/>
       <use xlink:href="#Helvetica-33" x="83.398438"/>
       <use xlink:href="#Helvetica-30" x="139.013672"/>
      </g>
     </g>
    </g>
    <g id="ytick_8">
     <g id="line2d_16">
      <g>
       <use xlink:href="#me6990cf848" x="72" y="119.79046" style="stroke: #000000; stroke-width: 0.8"/>
      </g>
     </g>
     <g id="text_17">
      <!-- 0.35 -->
      <g transform="translate(45.539062 123.377179) scale(0.1 -0.1)">
       <use xlink:href="#Helvetica-30"/>
       <use xlink:href="#Helvetica-2e" x="55.615234"/>
       <use xlink:href="#Helvetica-33" x="83.398438"/>
       <use xlink:href="#Helvetica-35" x="139.013672"/>
      </g>
     </g>
    </g>
    <g id="ytick_9">
     <g id="line2d_17">
      <g>
       <use xlink:href="#me6990cf848" x="72" y="81.977669" style="stroke: #000000; stroke-width: 0.8"/>
      </g>
     </g>
     <g id="text_18">
      <!-- 0.40 -->
      <g transform="translate(45.539062 85.564388) scale(0.1 -0.1)">
       <use xlink:href="#Helvetica-30"/>
       <use xlink:href="#Helvetica-2e" x="55.615234"/>
       <use xlink:href="#Helvetica-34" x="83.398438"/>
       <use xlink:href="#Helvetica-30" x="139.013672"/>
      </g>
     </g>
    </g>
    <g id="text_19">
     <!-- Density -->
     <g transform="translate(39.395312 234.831875) rotate(-90) scale(0.1 -0.1)">
      <defs>
       <path id="Helvetica-44" d="M 2250 531 
Q 2566 531 2769 597 
Q 3131 719 3363 1066 
Q 3547 1344 3628 1778 
Q 3675 2038 3675 2259 
Q 3675 3113 3336 3584 
Q 2997 4056 2244 4056 
L 1141 4056 
L 1141 531 
L 2250 531 
z
M 516 4591 
L 2375 4591 
Q 3322 4591 3844 3919 
Q 4309 3313 4309 2366 
Q 4309 1634 4034 1044 
Q 3550 0 2369 0 
L 516 0 
L 516 4591 
z
" transform="scale(0.015625)"/>
       <path id="Helvetica-73" d="M 747 1050 
Q 772 769 888 619 
Q 1100 347 1625 347 
Q 1938 347 2175 483 
Q 2413 619 2413 903 
Q 2413 1119 2222 1231 
Q 2100 1300 1741 1391 
L 1294 1503 
Q 866 1609 663 1741 
Q 300 1969 300 2372 
Q 300 2847 642 3140 
Q 984 3434 1563 3434 
Q 2319 3434 2653 2991 
Q 2863 2709 2856 2384 
L 2325 2384 
Q 2309 2575 2191 2731 
Q 1997 2953 1519 2953 
Q 1200 2953 1036 2831 
Q 872 2709 872 2509 
Q 872 2291 1088 2159 
Q 1213 2081 1456 2022 
L 1828 1931 
Q 2434 1784 2641 1647 
Q 2969 1431 2969 969 
Q 2969 522 2630 197 
Q 2291 -128 1597 -128 
Q 850 -128 539 211 
Q 228 550 206 1050 
L 747 1050 
z
M 1578 3428 
L 1578 3428 
z
" transform="scale(0.015625)"/>
       <path id="Helvetica-74" d="M 525 4281 
L 1094 4281 
L 1094 3347 
L 1628 3347 
L 1628 2888 
L 1094 2888 
L 1094 703 
Q 1094 528 1213 469 
Q 1278 434 1431 434 
Q 1472 434 1519 436 
Q 1566 438 1628 444 
L 1628 0 
Q 1531 -28 1426 -40 
Q 1322 -53 1200 -53 
Q 806 -53 665 148 
Q 525 350 525 672 
L 525 2888 
L 72 2888 
L 72 3347 
L 525 3347 
L 525 4281 
z
" transform="scale(0.015625)"/>
       <path id="Helvetica-79" d="M 2503 3347 
L 3125 3347 
Q 3006 3025 2597 1878 
Q 2291 1016 2084 472 
Q 1597 -809 1397 -1090 
Q 1197 -1372 709 -1372 
Q 591 -1372 527 -1362 
Q 463 -1353 369 -1328 
L 369 -816 
Q 516 -856 581 -865 
Q 647 -875 697 -875 
Q 853 -875 926 -823 
Q 1000 -772 1050 -697 
Q 1066 -672 1162 -440 
Q 1259 -209 1303 -97 
L 66 3347 
L 703 3347 
L 1600 622 
L 2503 3347 
z
M 1597 3428 
L 1597 3428 
z
" transform="scale(0.015625)"/>
      </defs>
      <use xlink:href="#Helvetica-44"/>
      <use xlink:href="#Helvetica-65" x="72.216797"/>
      <use xlink:href="#Helvetica-6e" x="127.832031"/>
      <use xlink:href="#Helvetica-73" x="183.447266"/>
      <use xlink:href="#Helvetica-69" x="233.447266"/>
      <use xlink:href="#Helvetica-74" x="255.664062"/>
      <use xlink:href="#Helvetica-79" x="283.447266"/>
     </g>
    </g>
   </g>
   <g id="patch_3">
    <path d="M 72 384.48 
L 72 51.84 
" style="fill: none; stroke: #000000; stroke-width: 0.8; stroke-linejoin: miter; stroke-linecap: square"/>
   </g>
   <g id="patch_4">
    <path d="M 518.4 384.48 
L 518.4 51.84 
" style="fill: none; stroke: #000000; stroke-width: 0.8; stroke-linejoin: miter; stroke-linecap: square"/>
   </g>
   <g id="patch_5">
    <path d="M 72 384.48 
L 518.4 384.48 
" style="fill: none; stroke: #000000; stroke-width: 0.8; stroke-linejoin: miter; stroke-linecap: square"/>
   </g>
   <g id="patch_6">
    <path d="M 72 51.84 
L 518.4 51.84 
" style="fill: none; stroke: #000000; stroke-width: 0.8; stroke-linejoin: miter; stroke-linecap: square"/>
   </g>
   <g id="legend_1">
    <g id="patch_7">
     <path d="M 434.373437 88.355625 
L 511.4 88.355625 
Q 513.4 88.355625 513.4 86.355625 
L 513.4 58.84 
Q 513.4 56.84 511.4 56.84 
L 434.373437 56.84 
Q 432.373437 56.84 432.373437 58.84 
L 432.373437 86.355625 
Q 432.373437 88.355625 434.373437 88.355625 
z
" style="fill: #ffffff; opacity: 0.8; stroke: #cccccc; stroke-linejoin: miter"/>
    </g>
    <g id="patch_8">
     <path d="M 436.373437 68.013437 
L 456.373437 68.013437 
L 456.373437 61.013437 
L 436.373437 61.013437 
z
" style="fill: #87ceeb; fill-opacity: 0.25; stroke: #87ceeb; stroke-linejoin: miter"/>
    </g>
    <g id="text_20">
     <!-- Alive -->
     <g transform="translate(464.373437 68.013437) scale(0.1 -0.1)">
      <defs>
       <path id="Helvetica-41" d="M 2844 1881 
L 2147 3909 
L 1406 1881 
L 2844 1881 
z
M 1822 4591 
L 2525 4591 
L 4191 0 
L 3509 0 
L 3044 1375 
L 1228 1375 
L 731 0 
L 94 0 
L 1822 4591 
z
" transform="scale(0.015625)"/>
       <path id="Helvetica-6c" d="M 428 4591 
L 991 4591 
L 991 0 
L 428 0 
L 428 4591 
z
" transform="scale(0.015625)"/>
       <path id="Helvetica-76" d="M 688 3347 
L 1581 622 
L 2516 3347 
L 3131 3347 
L 1869 0 
L 1269 0 
L 34 3347 
L 688 3347 
z
" transform="scale(0.015625)"/>
      </defs>
      <use xlink:href="#Helvetica-41"/>
      <use xlink:href="#Helvetica-6c" x="66.699219"/>
      <use xlink:href="#Helvetica-69" x="88.916016"/>
      <use xlink:href="#Helvetica-76" x="111.132812"/>
      <use xlink:href="#Helvetica-65" x="161.132812"/>
     </g>
    </g>
    <g id="patch_9">
     <path d="M 436.373437 82.27125 
L 456.373437 82.27125 
L 456.373437 75.27125 
L 436.373437 75.27125 
z
" style="fill: #fa8072; fill-opacity: 0.25; stroke: #fa8072; stroke-linejoin: miter"/>
    </g>
    <g id="text_21">
     <!-- Deceased -->
     <g transform="translate(464.373437 82.27125) scale(0.1 -0.1)">
      <defs>
       <path id="Helvetica-63" d="M 1703 3444 
Q 2269 3444 2623 3169 
Q 2978 2894 3050 2222 
L 2503 2222 
Q 2453 2531 2275 2736 
Q 2097 2941 1703 2941 
Q 1166 2941 934 2416 
Q 784 2075 784 1575 
Q 784 1072 996 728 
Q 1209 384 1666 384 
Q 2016 384 2220 598 
Q 2425 813 2503 1184 
L 3050 1184 
Q 2956 519 2581 211 
Q 2206 -97 1622 -97 
Q 966 -97 575 383 
Q 184 863 184 1581 
Q 184 2463 612 2953 
Q 1041 3444 1703 3444 
z
M 1616 3428 
L 1616 3428 
z
" transform="scale(0.015625)"/>
       <path id="Helvetica-61" d="M 844 891 
Q 844 647 1022 506 
Q 1200 366 1444 366 
Q 1741 366 2019 503 
Q 2488 731 2488 1250 
L 2488 1703 
Q 2384 1638 2221 1594 
Q 2059 1550 1903 1531 
L 1563 1488 
Q 1256 1447 1103 1359 
Q 844 1213 844 891 
z
M 2206 2028 
Q 2400 2053 2466 2191 
Q 2503 2266 2503 2406 
Q 2503 2694 2298 2823 
Q 2094 2953 1713 2953 
Q 1272 2953 1088 2716 
Q 984 2584 953 2325 
L 428 2325 
Q 444 2944 830 3186 
Q 1216 3428 1725 3428 
Q 2316 3428 2684 3203 
Q 3050 2978 3050 2503 
L 3050 575 
Q 3050 488 3086 434 
Q 3122 381 3238 381 
Q 3275 381 3322 386 
Q 3369 391 3422 400 
L 3422 -16 
Q 3291 -53 3222 -62 
Q 3153 -72 3034 -72 
Q 2744 -72 2613 134 
Q 2544 244 2516 444 
Q 2344 219 2022 53 
Q 1700 -113 1313 -113 
Q 847 -113 551 170 
Q 256 453 256 878 
Q 256 1344 547 1600 
Q 838 1856 1309 1916 
L 2206 2028 
z
M 1741 3428 
L 1741 3428 
z
" transform="scale(0.015625)"/>
       <path id="Helvetica-64" d="M 769 1634 
Q 769 1097 997 734 
Q 1225 372 1728 372 
Q 2119 372 2370 708 
Q 2622 1044 2622 1672 
Q 2622 2306 2362 2611 
Q 2103 2916 1722 2916 
Q 1297 2916 1033 2591 
Q 769 2266 769 1634 
z
M 1616 3406 
Q 2000 3406 2259 3244 
Q 2409 3150 2600 2916 
L 2600 4606 
L 3141 4606 
L 3141 0 
L 2634 0 
L 2634 466 
Q 2438 156 2169 18 
Q 1900 -119 1553 -119 
Q 994 -119 584 351 
Q 175 822 175 1603 
Q 175 2334 548 2870 
Q 922 3406 1616 3406 
z
" transform="scale(0.015625)"/>
      </defs>
      <use xlink:href="#Helvetica-44"/>
      <use xlink:href="#Helvetica-65" x="72.216797"/>
      <use xlink:href="#Helvetica-63" x="127.832031"/>
      <use xlink:href="#Helvetica-65" x="177.832031"/>
      <use xlink:href="#Helvetica-61" x="233.447266"/>
      <use xlink:href="#Helvetica-73" x="289.0625"/>
      <use xlink:href="#Helvetica-65" x="339.0625"/>
      <use xlink:href="#Helvetica-64" x="394.677734"/>
     </g>
    </g>
   </g>
  </g>
 </g>
 <defs>
  <clipPath id="p832f296a11">
   <rect x="72" y="51.84" width="446.4" height="332.64"/>
  </clipPath>
 </defs>
</svg>
