<?xml version="1.0" encoding="utf-8" standalone="no"?>
<!DOCTYPE svg PUBLIC "-//W3C//DTD SVG 1.1//EN"
  "http://www.w3.org/Graphics/SVG/1.1/DTD/svg11.dtd">
<svg xmlns:xlink="http://www.w3.org/1999/xlink" width="576pt" height="432pt" viewBox="0 0 576 432" xmlns="http://www.w3.org/2000/svg" version="1.1">
 <metadata>
  <rdf:RDF xmlns:dc="http://purl.org/dc/elements/1.1/" xmlns:cc="http://creativecommons.org/ns#" xmlns:rdf="http://www.w3.org/1999/02/22-rdf-syntax-ns#">
   <cc:Work>
    <dc:type rdf:resource="http://purl.org/dc/dcmitype/StillImage"/>
    <dc:date>2023-11-06T21:01:29.545886</dc:date>
    <dc:format>image/svg+xml</dc:format>
    <dc:creator>
     <cc:Agent>
      <dc:title>Matplotlib v3.7.2, https://matplotlib.org/</dc:title>
     </cc:Agent>
    </dc:creator>
   </cc:Work>
  </rdf:RDF>
 </metadata>
 <defs>
  <style type="text/css">*{stroke-linejoin: round; stroke-linecap: butt}</style>
 </defs>
 <g id="figure_1">
  <g id="patch_1">
   <path d="M 0 432 
L 576 432 
L 576 0 
L 0 0 
z
" style="fill: #ffffff"/>
  </g>
  <g id="axes_1">
   <g id="patch_2">
    <path d="M 72 384.48 
L 518.4 384.48 
L 518.4 51.84 
L 72 51.84 
z
" style="fill: #ffffff"/>
   </g>
   <g id="PolyCollection_1">
    <defs>
     <path id="ma43ddbeb4c" d="M 130.322039 -47.889258 
L 130.322039 -47.52 
L 131.493252 -47.52 
L 132.664464 -47.52 
L 133.835676 -47.52 
L 135.006889 -47.52 
L 136.178101 -47.52 
L 137.349313 -47.52 
L 138.520526 -47.52 
L 139.691738 -47.52 
L 140.862951 -47.52 
L 142.034163 -47.52 
L 143.205375 -47.52 
L 144.376588 -47.52 
L 145.5478 -47.52 
L 146.719012 -47.52 
L 147.890225 -47.52 
L 149.061437 -47.52 
L 150.23265 -47.52 
L 151.403862 -47.52 
L 152.575074 -47.52 
L 153.746287 -47.52 
L 154.917499 -47.52 
L 156.088712 -47.52 
L 157.259924 -47.52 
L 158.431136 -47.52 
L 159.602349 -47.52 
L 160.773561 -47.52 
L 161.944773 -47.52 
L 163.115986 -47.52 
L 164.287198 -47.52 
L 165.458411 -47.52 
L 166.629623 -47.52 
L 167.800835 -47.52 
L 168.972048 -47.52 
L 170.14326 -47.52 
L 171.314472 -47.52 
L 172.485685 -47.52 
L 173.656897 -47.52 
L 174.82811 -47.52 
L 175.999322 -47.52 
L 177.170534 -47.52 
L 178.341747 -47.52 
L 179.512959 -47.52 
L 180.684171 -47.52 
L 181.855384 -47.52 
L 183.026596 -47.52 
L 184.197809 -47.52 
L 185.369021 -47.52 
L 186.540233 -47.52 
L 187.711446 -47.52 
L 188.882658 -47.52 
L 190.053871 -47.52 
L 191.225083 -47.52 
L 192.396295 -47.52 
L 193.567508 -47.52 
L 194.73872 -47.52 
L 195.909932 -47.52 
L 197.081145 -47.52 
L 198.252357 -47.52 
L 199.42357 -47.52 
L 200.594782 -47.52 
L 201.765994 -47.52 
L 202.937207 -47.52 
L 204.108419 -47.52 
L 205.279631 -47.52 
L 206.450844 -47.52 
L 207.622056 -47.52 
L 208.793269 -47.52 
L 209.964481 -47.52 
L 211.135693 -47.52 
L 212.306906 -47.52 
L 213.478118 -47.52 
L 214.64933 -47.52 
L 215.820543 -47.52 
L 216.991755 -47.52 
L 218.162968 -47.52 
L 219.33418 -47.52 
L 220.505392 -47.52 
L 221.676605 -47.52 
L 222.847817 -47.52 
L 224.01903 -47.52 
L 225.190242 -47.52 
L 226.361454 -47.52 
L 227.532667 -47.52 
L 228.703879 -47.52 
L 229.875091 -47.52 
L 231.046304 -47.52 
L 232.217516 -47.52 
L 233.388729 -47.52 
L 234.559941 -47.52 
L 235.731153 -47.52 
L 236.902366 -47.52 
L 238.073578 -47.52 
L 239.24479 -47.52 
L 240.416003 -47.52 
L 241.587215 -47.52 
L 242.758428 -47.52 
L 243.92964 -47.52 
L 245.100852 -47.52 
L 246.272065 -47.52 
L 247.443277 -47.52 
L 248.61449 -47.52 
L 249.785702 -47.52 
L 250.956914 -47.52 
L 252.128127 -47.52 
L 253.299339 -47.52 
L 254.470551 -47.52 
L 255.641764 -47.52 
L 256.812976 -47.52 
L 257.984189 -47.52 
L 259.155401 -47.52 
L 260.326613 -47.52 
L 261.497826 -47.52 
L 262.669038 -47.52 
L 263.84025 -47.52 
L 265.011463 -47.52 
L 266.182675 -47.52 
L 267.353888 -47.52 
L 268.5251 -47.52 
L 269.696312 -47.52 
L 270.867525 -47.52 
L 272.038737 -47.52 
L 273.209949 -47.52 
L 274.381162 -47.52 
L 275.552374 -47.52 
L 276.723587 -47.52 
L 277.894799 -47.52 
L 279.066011 -47.52 
L 280.237224 -47.52 
L 281.408436 -47.52 
L 282.579649 -47.52 
L 283.750861 -47.52 
L 284.922073 -47.52 
L 286.093286 -47.52 
L 287.264498 -47.52 
L 288.43571 -47.52 
L 289.606923 -47.52 
L 290.778135 -47.52 
L 291.949348 -47.52 
L 293.12056 -47.52 
L 294.291772 -47.52 
L 295.462985 -47.52 
L 296.634197 -47.52 
L 297.805409 -47.52 
L 298.976622 -47.52 
L 300.147834 -47.52 
L 301.319047 -47.52 
L 302.490259 -47.52 
L 303.661471 -47.52 
L 304.832684 -47.52 
L 306.003896 -47.52 
L 307.175108 -47.52 
L 308.346321 -47.52 
L 309.517533 -47.52 
L 310.688746 -47.52 
L 311.859958 -47.52 
L 313.03117 -47.52 
L 314.202383 -47.52 
L 315.373595 -47.52 
L 316.544808 -47.52 
L 317.71602 -47.52 
L 318.887232 -47.52 
L 320.058445 -47.52 
L 321.229657 -47.52 
L 322.400869 -47.52 
L 323.572082 -47.52 
L 324.743294 -47.52 
L 325.914507 -47.52 
L 327.085719 -47.52 
L 328.256931 -47.52 
L 329.428144 -47.52 
L 330.599356 -47.52 
L 331.770568 -47.52 
L 332.941781 -47.52 
L 334.112993 -47.52 
L 335.284206 -47.52 
L 336.455418 -47.52 
L 337.62663 -47.52 
L 338.797843 -47.52 
L 339.969055 -47.52 
L 341.140267 -47.52 
L 342.31148 -47.52 
L 343.482692 -47.52 
L 344.653905 -47.52 
L 345.825117 -47.52 
L 346.996329 -47.52 
L 348.167542 -47.52 
L 349.338754 -47.52 
L 350.509967 -47.52 
L 351.681179 -47.52 
L 352.852391 -47.52 
L 354.023604 -47.52 
L 355.194816 -47.52 
L 356.366028 -47.52 
L 357.537241 -47.52 
L 358.708453 -47.52 
L 359.879666 -47.52 
L 361.050878 -47.52 
L 362.22209 -47.52 
L 363.393303 -47.52 
L 363.393303 -47.673621 
L 363.393303 -47.673621 
L 362.22209 -47.713829 
L 361.050878 -47.763061 
L 359.879666 -47.822927 
L 358.708453 -47.895223 
L 357.537241 -47.981924 
L 356.366028 -48.085175 
L 355.194816 -48.207271 
L 354.023604 -48.350631 
L 352.852391 -48.517757 
L 351.681179 -48.711191 
L 350.509967 -48.933452 
L 349.338754 -49.186972 
L 348.167542 -49.474013 
L 346.996329 -49.796588 
L 345.825117 -50.156371 
L 344.653905 -50.554604 
L 343.482692 -50.992011 
L 342.31148 -51.468716 
L 341.140267 -51.984173 
L 339.969055 -52.537113 
L 338.797843 -53.125514 
L 337.62663 -53.746595 
L 336.455418 -54.396847 
L 335.284206 -55.072089 
L 334.112993 -55.767576 
L 332.941781 -56.478128 
L 331.770568 -57.198308 
L 330.599356 -57.922631 
L 329.428144 -58.645797 
L 328.256931 -59.362956 
L 327.085719 -60.069973 
L 325.914507 -60.763703 
L 324.743294 -61.442259 
L 323.572082 -62.105241 
L 322.400869 -62.753946 
L 321.229657 -63.391514 
L 320.058445 -64.023016 
L 318.887232 -64.655463 
L 317.71602 -65.297737 
L 316.544808 -65.960431 
L 315.373595 -66.655595 
L 314.202383 -67.396395 
L 313.03117 -68.19669 
L 311.859958 -69.070536 
L 310.688746 -70.031629 
L 309.517533 -71.092713 
L 308.346321 -72.264971 
L 307.175108 -73.557426 
L 306.003896 -74.976373 
L 304.832684 -76.524878 
L 303.661471 -78.202367 
L 302.490259 -80.004331 
L 301.319047 -81.922158 
L 300.147834 -83.943133 
L 298.976622 -86.050594 
L 297.805409 -88.224253 
L 296.634197 -90.440693 
L 295.462985 -92.674014 
L 294.291772 -94.89662 
L 293.12056 -97.080111 
L 291.949348 -99.196263 
L 290.778135 -101.218046 
L 289.606923 -103.12064 
L 288.43571 -104.882417 
L 287.264498 -106.485835 
L 286.093286 -107.918206 
L 284.922073 -109.172311 
L 283.750861 -110.246822 
L 282.579649 -111.146519 
L 281.408436 -111.882281 
L 280.237224 -112.470858 
L 279.066011 -112.934434 
L 277.894799 -113.29999 
L 276.723587 -113.5985 
L 275.552374 -113.86401 
L 274.381162 -114.132613 
L 273.209949 -114.441396 
L 272.038737 -114.827386 
L 270.867525 -115.326553 
L 269.696312 -115.972906 
L 268.5251 -116.797721 
L 267.353888 -117.828935 
L 266.182675 -119.090711 
L 265.011463 -120.603211 
L 263.84025 -122.38254 
L 262.669038 -124.44089 
L 261.497826 -126.786823 
L 260.326613 -129.4257 
L 259.155401 -132.360196 
L 257.984189 -135.590866 
L 256.812976 -139.116736 
L 255.641764 -142.93585 
L 254.470551 -147.045758 
L 253.299339 -151.443899 
L 252.128127 -156.127855 
L 250.956914 -161.095456 
L 249.785702 -166.344734 
L 248.61449 -171.873716 
L 247.443277 -177.680076 
L 246.272065 -183.760665 
L 245.100852 -190.110945 
L 243.92964 -196.724367 
L 242.758428 -203.591726 
L 241.587215 -210.700541 
L 240.416003 -218.034504 
L 239.24479 -225.573029 
L 238.073578 -233.290941 
L 236.902366 -241.158327 
L 235.731153 -249.140574 
L 234.559941 -257.198598 
L 233.388729 -265.289259 
L 232.217516 -273.365946 
L 231.046304 -281.379327 
L 229.875091 -289.278205 
L 228.703879 -297.010464 
L 227.532667 -304.524048 
L 226.361454 -311.767942 
L 225.190242 -318.693092 
L 224.01903 -325.253245 
L 222.847817 -331.405659 
L 221.676605 -337.111663 
L 220.505392 -342.337046 
L 219.33418 -347.052279 
L 218.162968 -351.232555 
L 216.991755 -354.857679 
L 215.820543 -357.911822 
L 214.64933 -360.383163 
L 213.478118 -362.263468 
L 212.306906 -363.547631 
L 211.135693 -364.233208 
L 209.964481 -364.32 
L 208.793269 -363.809686 
L 207.622056 -362.705549 
L 206.450844 -361.012296 
L 205.279631 -358.735983 
L 204.108419 -355.884044 
L 202.937207 -352.465408 
L 201.765994 -348.490689 
L 200.594782 -343.972429 
L 199.42357 -338.925361 
L 198.252357 -333.366682 
L 197.081145 -327.316285 
L 195.909932 -320.796955 
L 194.73872 -313.834489 
L 193.567508 -306.457735 
L 192.396295 -298.69854 
L 191.225083 -290.591609 
L 190.053871 -282.174267 
L 188.882658 -273.48615 
L 187.711446 -264.568814 
L 186.540233 -255.465299 
L 185.369021 -246.219651 
L 184.197809 -236.876422 
L 183.026596 -227.480167 
L 181.855384 -218.074948 
L 180.684171 -208.703865 
L 179.512959 -199.408612 
L 178.341747 -190.229086 
L 177.170534 -181.203027 
L 175.999322 -172.365715 
L 174.82811 -163.749714 
L 173.656897 -155.384661 
L 172.485685 -147.297101 
L 171.314472 -139.51037 
L 170.14326 -132.04451 
L 168.972048 -124.916229 
L 167.800835 -118.138894 
L 166.629623 -111.722559 
L 165.458411 -105.674023 
L 164.287198 -99.996922 
L 163.115986 -94.691848 
L 161.944773 -89.756502 
L 160.773561 -85.185872 
L 159.602349 -80.972433 
L 158.431136 -77.106379 
L 157.259924 -73.575864 
L 156.088712 -70.367271 
L 154.917499 -67.465484 
L 153.746287 -64.854174 
L 152.575074 -62.516076 
L 151.403862 -60.43328 
L 150.23265 -58.587495 
L 149.061437 -56.96031 
L 147.890225 -55.533434 
L 146.719012 -54.288911 
L 145.5478 -53.209317 
L 144.376588 -52.277917 
L 143.205375 -51.478808 
L 142.034163 -50.797021 
L 140.862951 -50.218602 
L 139.691738 -49.730657 
L 138.520526 -49.321385 
L 137.349313 -48.980072 
L 136.178101 -48.69708 
L 135.006889 -48.463809 
L 133.835676 -48.272647 
L 132.664464 -48.116914 
L 131.493252 -47.990792 
L 130.322039 -47.889258 
z
" style="stroke: #87ceeb"/>
    </defs>
    <g clip-path="url(#pf0f84029c5)">
     <use xlink:href="#ma43ddbeb4c" x="0" y="432" style="fill: #87ceeb; fill-opacity: 0.25; stroke: #87ceeb"/>
    </g>
   </g>
   <g id="PolyCollection_2">
    <defs>
     <path id="maf259bc0e0" d="M 92.290909 -47.824458 
L 92.290909 -47.52 
L 94.330196 -47.52 
L 96.369484 -47.52 
L 98.408771 -47.52 
L 100.448058 -47.52 
L 102.487346 -47.52 
L 104.526633 -47.52 
L 106.565921 -47.52 
L 108.605208 -47.52 
L 110.644495 -47.52 
L 112.683783 -47.52 
L 114.72307 -47.52 
L 116.762357 -47.52 
L 118.801645 -47.52 
L 120.840932 -47.52 
L 122.880219 -47.52 
L 124.919507 -47.52 
L 126.958794 -47.52 
L 128.998081 -47.52 
L 131.037369 -47.52 
L 133.076656 -47.52 
L 135.115943 -47.52 
L 137.155231 -47.52 
L 139.194518 -47.52 
L 141.233805 -47.52 
L 143.273093 -47.52 
L 145.31238 -47.52 
L 147.351667 -47.52 
L 149.390955 -47.52 
L 151.430242 -47.52 
L 153.469529 -47.52 
L 155.508817 -47.52 
L 157.548104 -47.52 
L 159.587392 -47.52 
L 161.626679 -47.52 
L 163.665966 -47.52 
L 165.705254 -47.52 
L 167.744541 -47.52 
L 169.783828 -47.52 
L 171.823116 -47.52 
L 173.862403 -47.52 
L 175.90169 -47.52 
L 177.940978 -47.52 
L 179.980265 -47.52 
L 182.019552 -47.52 
L 184.05884 -47.52 
L 186.098127 -47.52 
L 188.137414 -47.52 
L 190.176702 -47.52 
L 192.215989 -47.52 
L 194.255276 -47.52 
L 196.294564 -47.52 
L 198.333851 -47.52 
L 200.373138 -47.52 
L 202.412426 -47.52 
L 204.451713 -47.52 
L 206.491 -47.52 
L 208.530288 -47.52 
L 210.569575 -47.52 
L 212.608862 -47.52 
L 214.64815 -47.52 
L 216.687437 -47.52 
L 218.726725 -47.52 
L 220.766012 -47.52 
L 222.805299 -47.52 
L 224.844587 -47.52 
L 226.883874 -47.52 
L 228.923161 -47.52 
L 230.962449 -47.52 
L 233.001736 -47.52 
L 235.041023 -47.52 
L 237.080311 -47.52 
L 239.119598 -47.52 
L 241.158885 -47.52 
L 243.198173 -47.52 
L 245.23746 -47.52 
L 247.276747 -47.52 
L 249.316035 -47.52 
L 251.355322 -47.52 
L 253.394609 -47.52 
L 255.433897 -47.52 
L 257.473184 -47.52 
L 259.512471 -47.52 
L 261.551759 -47.52 
L 263.591046 -47.52 
L 265.630333 -47.52 
L 267.669621 -47.52 
L 269.708908 -47.52 
L 271.748196 -47.52 
L 273.787483 -47.52 
L 275.82677 -47.52 
L 277.866058 -47.52 
L 279.905345 -47.52 
L 281.944632 -47.52 
L 283.98392 -47.52 
L 286.023207 -47.52 
L 288.062494 -47.52 
L 290.101782 -47.52 
L 292.141069 -47.52 
L 294.180356 -47.52 
L 296.219644 -47.52 
L 298.258931 -47.52 
L 300.298218 -47.52 
L 302.337506 -47.52 
L 304.376793 -47.52 
L 306.41608 -47.52 
L 308.455368 -47.52 
L 310.494655 -47.52 
L 312.533942 -47.52 
L 314.57323 -47.52 
L 316.612517 -47.52 
L 318.651804 -47.52 
L 320.691092 -47.52 
L 322.730379 -47.52 
L 324.769667 -47.52 
L 326.808954 -47.52 
L 328.848241 -47.52 
L 330.887529 -47.52 
L 332.926816 -47.52 
L 334.966103 -47.52 
L 337.005391 -47.52 
L 339.044678 -47.52 
L 341.083965 -47.52 
L 343.123253 -47.52 
L 345.16254 -47.52 
L 347.201827 -47.52 
L 349.241115 -47.52 
L 351.280402 -47.52 
L 353.319689 -47.52 
L 355.358977 -47.52 
L 357.398264 -47.52 
L 359.437551 -47.52 
L 361.476839 -47.52 
L 363.516126 -47.52 
L 365.555413 -47.52 
L 367.594701 -47.52 
L 369.633988 -47.52 
L 371.673275 -47.52 
L 373.712563 -47.52 
L 375.75185 -47.52 
L 377.791138 -47.52 
L 379.830425 -47.52 
L 381.869712 -47.52 
L 383.909 -47.52 
L 385.948287 -47.52 
L 387.987574 -47.52 
L 390.026862 -47.52 
L 392.066149 -47.52 
L 394.105436 -47.52 
L 396.144724 -47.52 
L 398.184011 -47.52 
L 400.223298 -47.52 
L 402.262586 -47.52 
L 404.301873 -47.52 
L 406.34116 -47.52 
L 408.380448 -47.52 
L 410.419735 -47.52 
L 412.459022 -47.52 
L 414.49831 -47.52 
L 416.537597 -47.52 
L 418.576884 -47.52 
L 420.616172 -47.52 
L 422.655459 -47.52 
L 424.694746 -47.52 
L 426.734034 -47.52 
L 428.773321 -47.52 
L 430.812608 -47.52 
L 432.851896 -47.52 
L 434.891183 -47.52 
L 436.930471 -47.52 
L 438.969758 -47.52 
L 441.009045 -47.52 
L 443.048333 -47.52 
L 445.08762 -47.52 
L 447.126907 -47.52 
L 449.166195 -47.52 
L 451.205482 -47.52 
L 453.244769 -47.52 
L 455.284057 -47.52 
L 457.323344 -47.52 
L 459.362631 -47.52 
L 461.401919 -47.52 
L 463.441206 -47.52 
L 465.480493 -47.52 
L 467.519781 -47.52 
L 469.559068 -47.52 
L 471.598355 -47.52 
L 473.637643 -47.52 
L 475.67693 -47.52 
L 477.716217 -47.52 
L 479.755505 -47.52 
L 481.794792 -47.52 
L 483.834079 -47.52 
L 485.873367 -47.52 
L 487.912654 -47.52 
L 489.951942 -47.52 
L 491.991229 -47.52 
L 494.030516 -47.52 
L 496.069804 -47.52 
L 498.109091 -47.52 
L 498.109091 -48.00533 
L 498.109091 -48.00533 
L 496.069804 -48.095911 
L 494.030516 -48.201135 
L 491.991229 -48.322917 
L 489.951942 -48.463339 
L 487.912654 -48.624648 
L 485.873367 -48.809259 
L 483.834079 -49.019739 
L 481.794792 -49.258805 
L 479.755505 -49.529305 
L 477.716217 -49.834198 
L 475.67693 -50.176532 
L 473.637643 -50.55941 
L 471.598355 -50.98596 
L 469.559068 -51.459287 
L 467.519781 -51.982433 
L 465.480493 -52.558323 
L 463.441206 -53.189705 
L 461.401919 -53.879096 
L 459.362631 -54.628709 
L 457.323344 -55.440393 
L 455.284057 -56.315563 
L 453.244769 -57.255128 
L 451.205482 -58.259425 
L 449.166195 -59.328155 
L 447.126907 -60.460322 
L 445.08762 -61.654177 
L 443.048333 -62.907173 
L 441.009045 -64.215929 
L 438.969758 -65.576202 
L 436.930471 -66.982876 
L 434.891183 -68.429963 
L 432.851896 -69.910621 
L 430.812608 -71.417188 
L 428.773321 -72.941231 
L 426.734034 -74.473613 
L 424.694746 -76.004582 
L 422.655459 -77.523868 
L 420.616172 -79.020801 
L 418.576884 -80.484442 
L 416.537597 -81.903726 
L 414.49831 -83.267612 
L 412.459022 -84.565247 
L 410.419735 -85.786125 
L 408.380448 -86.920259 
L 406.34116 -87.95834 
L 404.301873 -88.891899 
L 402.262586 -89.713454 
L 400.223298 -90.416653 
L 398.184011 -90.996394 
L 396.144724 -91.448937 
L 394.105436 -91.771988 
L 392.066149 -91.964765 
L 390.026862 -92.028043 
L 387.987574 -91.964171 
L 385.948287 -91.777068 
L 383.909 -91.472193 
L 381.869712 -91.056494 
L 379.830425 -90.538327 
L 377.791138 -89.927369 
L 375.75185 -89.234498 
L 373.712563 -88.471664 
L 371.673275 -87.651748 
L 369.633988 -86.788411 
L 367.594701 -85.89593 
L 365.555413 -84.989041 
L 363.516126 -84.082772 
L 361.476839 -83.192289 
L 359.437551 -82.332734 
L 357.398264 -81.519087 
L 355.358977 -80.766025 
L 353.319689 -80.087802 
L 351.280402 -79.498135 
L 349.241115 -79.010116 
L 347.201827 -78.636123 
L 345.16254 -78.387762 
L 343.123253 -78.275809 
L 341.083965 -78.310177 
L 339.044678 -78.499889 
L 337.005391 -78.853064 
L 334.966103 -79.376911 
L 332.926816 -80.077731 
L 330.887529 -80.960927 
L 328.848241 -82.031012 
L 326.808954 -83.291622 
L 324.769667 -84.74553 
L 322.730379 -86.394654 
L 320.691092 -88.240066 
L 318.651804 -90.281993 
L 316.612517 -92.519818 
L 314.57323 -94.952067 
L 312.533942 -97.576399 
L 310.494655 -100.389587 
L 308.455368 -103.387491 
L 306.41608 -106.565033 
L 304.376793 -109.916164 
L 302.337506 -113.433835 
L 300.298218 -117.10996 
L 298.258931 -120.935387 
L 296.219644 -124.899875 
L 294.180356 -128.992067 
L 292.141069 -133.19948 
L 290.101782 -137.508497 
L 288.062494 -141.904376 
L 286.023207 -146.371263 
L 283.98392 -150.892226 
L 281.944632 -155.449301 
L 279.905345 -160.023546 
L 277.866058 -164.595122 
L 275.82677 -169.143381 
L 273.787483 -173.646971 
L 271.748196 -178.083956 
L 269.708908 -182.43195 
L 267.669621 -186.668264 
L 265.630333 -190.770064 
L 263.591046 -194.714539 
L 261.551759 -198.479078 
L 259.512471 -202.04145 
L 257.473184 -205.379995 
L 255.433897 -208.473811 
L 253.394609 -211.302945 
L 251.355322 -213.848578 
L 249.316035 -216.093213 
L 247.276747 -218.020844 
L 245.23746 -219.617129 
L 243.198173 -220.869544 
L 241.158885 -221.767525 
L 239.119598 -222.302596 
L 237.080311 -222.468476 
L 235.041023 -222.261172 
L 233.001736 -221.679047 
L 230.962449 -220.722866 
L 228.923161 -219.395817 
L 226.883874 -217.703516 
L 224.844587 -215.653971 
L 222.805299 -213.257538 
L 220.766012 -210.526839 
L 218.726725 -207.476656 
L 216.687437 -204.123813 
L 214.64815 -200.487016 
L 212.608862 -196.586689 
L 210.569575 -192.444777 
L 208.530288 -188.084542 
L 206.491 -183.530341 
L 204.451713 -178.807387 
L 202.412426 -173.941513 
L 200.373138 -168.958922 
L 198.333851 -163.885936 
L 196.294564 -158.748756 
L 194.255276 -153.573217 
L 192.215989 -148.384557 
L 190.176702 -143.2072 
L 188.137414 -138.06455 
L 186.098127 -132.978806 
L 184.05884 -127.970797 
L 182.019552 -123.059842 
L 179.980265 -118.263622 
L 177.940978 -113.598094 
L 175.90169 -109.077418 
L 173.862403 -104.713914 
L 171.823116 -100.518039 
L 169.783828 -96.498398 
L 167.744541 -92.661766 
L 165.705254 -89.01314 
L 163.665966 -85.555805 
L 161.626679 -82.291419 
L 159.587392 -79.220116 
L 157.548104 -76.340612 
L 155.508817 -73.650333 
L 153.469529 -71.145538 
L 151.430242 -68.821455 
L 149.390955 -66.672416 
L 147.351667 -64.691993 
L 145.31238 -62.873128 
L 143.273093 -61.208267 
L 141.233805 -59.689478 
L 139.194518 -58.308572 
L 137.155231 -57.057207 
L 135.115943 -55.926991 
L 133.076656 -54.909566 
L 131.037369 -53.996693 
L 128.998081 -53.180319 
L 126.958794 -52.452634 
L 124.919507 -51.806122 
L 122.880219 -51.233601 
L 120.840932 -50.728251 
L 118.801645 -50.28364 
L 116.762357 -49.893734 
L 114.72307 -49.552908 
L 112.683783 -49.255946 
L 110.644495 -48.998036 
L 108.605208 -48.774764 
L 106.565921 -48.582099 
L 104.526633 -48.416379 
L 102.487346 -48.274292 
L 100.448058 -48.152859 
L 98.408771 -48.049409 
L 96.369484 -47.961561 
L 94.330196 -47.887201 
L 92.290909 -47.824458 
z
" style="stroke: #fa8072"/>
    </defs>
    <g clip-path="url(#pf0f84029c5)">
     <use xlink:href="#maf259bc0e0" x="0" y="432" style="fill: #fa8072; fill-opacity: 0.25; stroke: #fa8072"/>
    </g>
   </g>
   <g id="matplotlib.axis_1">
    <g id="xtick_1">
     <g id="line2d_1">
      <defs>
       <path id="m17791865c6" d="M 0 0 
L 0 3.5 
" style="stroke: #000000; stroke-width: 0.8"/>
      </defs>
      <g>
       <use xlink:href="#m17791865c6" x="113.550036" y="384.48" style="stroke: #000000; stroke-width: 0.8"/>
      </g>
     </g>
     <g id="text_1">
      <!-- −20 -->
      <g transform="translate(105.068786 398.653437) scale(0.1 -0.1)">
       <defs>
        <path id="Helvetica-2212" d="M 3547 1894 
L 3547 1369 
L 288 1369 
L 288 1894 
L 3547 1894 
z
" transform="scale(0.015625)"/>
        <path id="Helvetica-32" d="M 200 0 
Q 231 578 439 1006 
Q 647 1434 1250 1784 
L 1850 2131 
Q 2253 2366 2416 2531 
Q 2672 2791 2672 3125 
Q 2672 3516 2437 3745 
Q 2203 3975 1813 3975 
Q 1234 3975 1013 3538 
Q 894 3303 881 2888 
L 309 2888 
Q 319 3472 525 3841 
Q 891 4491 1816 4491 
Q 2584 4491 2939 4075 
Q 3294 3659 3294 3150 
Q 3294 2613 2916 2231 
Q 2697 2009 2131 1694 
L 1703 1456 
Q 1397 1288 1222 1134 
Q 909 863 828 531 
L 3272 531 
L 3272 0 
L 200 0 
z
" transform="scale(0.015625)"/>
        <path id="Helvetica-30" d="M 1731 4475 
Q 2600 4475 2988 3759 
Q 3288 3206 3288 2244 
Q 3288 1331 3016 734 
Q 2622 -122 1728 -122 
Q 922 -122 528 578 
Q 200 1163 200 2147 
Q 200 2909 397 3456 
Q 766 4475 1731 4475 
z
M 1725 391 
Q 2163 391 2422 778 
Q 2681 1166 2681 2222 
Q 2681 2984 2493 3476 
Q 2306 3969 1766 3969 
Q 1269 3969 1039 3501 
Q 809 3034 809 2125 
Q 809 1441 956 1025 
Q 1181 391 1725 391 
z
" transform="scale(0.015625)"/>
       </defs>
       <use xlink:href="#Helvetica-2212"/>
       <use xlink:href="#Helvetica-32" x="58.398438"/>
       <use xlink:href="#Helvetica-30" x="114.013672"/>
      </g>
     </g>
    </g>
    <g id="xtick_2">
     <g id="line2d_2">
      <g>
       <use xlink:href="#m17791865c6" x="172.146799" y="384.48" style="stroke: #000000; stroke-width: 0.8"/>
      </g>
     </g>
     <g id="text_2">
      <!-- 0 -->
      <g transform="translate(169.36633 398.653437) scale(0.1 -0.1)">
       <use xlink:href="#Helvetica-30"/>
      </g>
     </g>
    </g>
    <g id="xtick_3">
     <g id="line2d_3">
      <g>
       <use xlink:href="#m17791865c6" x="230.743561" y="384.48" style="stroke: #000000; stroke-width: 0.8"/>
      </g>
     </g>
     <g id="text_3">
      <!-- 20 -->
      <g transform="translate(225.182624 398.653437) scale(0.1 -0.1)">
       <use xlink:href="#Helvetica-32"/>
       <use xlink:href="#Helvetica-30" x="55.615234"/>
      </g>
     </g>
    </g>
    <g id="xtick_4">
     <g id="line2d_4">
      <g>
       <use xlink:href="#m17791865c6" x="289.340324" y="384.48" style="stroke: #000000; stroke-width: 0.8"/>
      </g>
     </g>
     <g id="text_4">
      <!-- 40 -->
      <g transform="translate(283.779386 398.653437) scale(0.1 -0.1)">
       <defs>
        <path id="Helvetica-34" d="M 2116 1584 
L 2116 3613 
L 681 1584 
L 2116 1584 
z
M 2125 0 
L 2125 1094 
L 163 1094 
L 163 1644 
L 2213 4488 
L 2688 4488 
L 2688 1584 
L 3347 1584 
L 3347 1094 
L 2688 1094 
L 2688 0 
L 2125 0 
z
" transform="scale(0.015625)"/>
       </defs>
       <use xlink:href="#Helvetica-34"/>
       <use xlink:href="#Helvetica-30" x="55.615234"/>
      </g>
     </g>
    </g>
    <g id="xtick_5">
     <g id="line2d_5">
      <g>
       <use xlink:href="#m17791865c6" x="347.937086" y="384.48" style="stroke: #000000; stroke-width: 0.8"/>
      </g>
     </g>
     <g id="text_5">
      <!-- 60 -->
      <g transform="translate(342.376149 398.653437) scale(0.1 -0.1)">
       <defs>
        <path id="Helvetica-36" d="M 1872 4494 
Q 2622 4494 2917 4105 
Q 3213 3716 3213 3303 
L 2656 3303 
Q 2606 3569 2497 3719 
Q 2294 4000 1881 4000 
Q 1409 4000 1131 3564 
Q 853 3128 822 2316 
Q 1016 2600 1309 2741 
Q 1578 2866 1909 2866 
Q 2472 2866 2890 2506 
Q 3309 2147 3309 1434 
Q 3309 825 2912 354 
Q 2516 -116 1781 -116 
Q 1153 -116 697 361 
Q 241 838 241 1966 
Q 241 2800 444 3381 
Q 834 4494 1872 4494 
z
M 1831 384 
Q 2275 384 2495 682 
Q 2716 981 2716 1388 
Q 2716 1731 2519 2042 
Q 2322 2353 1803 2353 
Q 1441 2353 1167 2112 
Q 894 1872 894 1388 
Q 894 963 1142 673 
Q 1391 384 1831 384 
z
" transform="scale(0.015625)"/>
       </defs>
       <use xlink:href="#Helvetica-36"/>
       <use xlink:href="#Helvetica-30" x="55.615234"/>
      </g>
     </g>
    </g>
    <g id="xtick_6">
     <g id="line2d_6">
      <g>
       <use xlink:href="#m17791865c6" x="406.533849" y="384.48" style="stroke: #000000; stroke-width: 0.8"/>
      </g>
     </g>
     <g id="text_6">
      <!-- 80 -->
      <g transform="translate(400.972911 398.653437) scale(0.1 -0.1)">
       <defs>
        <path id="Helvetica-38" d="M 1741 2600 
Q 2113 2600 2322 2808 
Q 2531 3016 2531 3303 
Q 2531 3553 2331 3762 
Q 2131 3972 1722 3972 
Q 1316 3972 1134 3762 
Q 953 3553 953 3272 
Q 953 2956 1187 2778 
Q 1422 2600 1741 2600 
z
M 1775 384 
Q 2166 384 2423 595 
Q 2681 806 2681 1225 
Q 2681 1659 2415 1884 
Q 2150 2109 1734 2109 
Q 1331 2109 1076 1879 
Q 822 1650 822 1244 
Q 822 894 1055 639 
Q 1288 384 1775 384 
z
M 975 2384 
Q 741 2484 609 2619 
Q 363 2869 363 3269 
Q 363 3769 725 4128 
Q 1088 4488 1753 4488 
Q 2397 4488 2762 4148 
Q 3128 3809 3128 3356 
Q 3128 2938 2916 2678 
Q 2797 2531 2547 2391 
Q 2825 2263 2984 2097 
Q 3281 1784 3281 1284 
Q 3281 694 2884 283 
Q 2488 -128 1763 -128 
Q 1109 -128 657 226 
Q 206 581 206 1256 
Q 206 1653 400 1942 
Q 594 2231 975 2384 
z
" transform="scale(0.015625)"/>
       </defs>
       <use xlink:href="#Helvetica-38"/>
       <use xlink:href="#Helvetica-30" x="55.615234"/>
      </g>
     </g>
    </g>
    <g id="xtick_7">
     <g id="line2d_7">
      <g>
       <use xlink:href="#m17791865c6" x="465.130611" y="384.48" style="stroke: #000000; stroke-width: 0.8"/>
      </g>
     </g>
     <g id="text_7">
      <!-- 100 -->
      <g transform="translate(456.789205 398.653437) scale(0.1 -0.1)">
       <defs>
        <path id="Helvetica-31" d="M 613 3169 
L 613 3600 
Q 1222 3659 1462 3798 
Q 1703 3938 1822 4456 
L 2266 4456 
L 2266 0 
L 1666 0 
L 1666 3169 
L 613 3169 
z
" transform="scale(0.015625)"/>
       </defs>
       <use xlink:href="#Helvetica-31"/>
       <use xlink:href="#Helvetica-30" x="55.615234"/>
       <use xlink:href="#Helvetica-30" x="111.230469"/>
      </g>
     </g>
    </g>
    <g id="text_8">
     <!-- Injury Severity Score (ISS) -->
     <g transform="translate(236.296094 412.106562) scale(0.1 -0.1)">
      <defs>
       <path id="Helvetica-49" d="M 628 4591 
L 1256 4591 
L 1256 0 
L 628 0 
L 628 4591 
z
" transform="scale(0.015625)"/>
       <path id="Helvetica-6e" d="M 413 3347 
L 947 3347 
L 947 2872 
Q 1184 3166 1450 3294 
Q 1716 3422 2041 3422 
Q 2753 3422 3003 2925 
Q 3141 2653 3141 2147 
L 3141 0 
L 2569 0 
L 2569 2109 
Q 2569 2416 2478 2603 
Q 2328 2916 1934 2916 
Q 1734 2916 1606 2875 
Q 1375 2806 1200 2600 
Q 1059 2434 1017 2257 
Q 975 2081 975 1753 
L 975 0 
L 413 0 
L 413 3347 
z
M 1734 3428 
L 1734 3428 
z
" transform="scale(0.015625)"/>
       <path id="Helvetica-6a" d="M 975 3941 
L 413 3941 
L 413 4591 
L 975 4591 
L 975 3941 
z
M -119 -847 
Q 259 -834 336 -779 
Q 413 -725 413 -438 
L 413 3331 
L 975 3331 
L 975 -497 
Q 975 -863 856 -1044 
Q 659 -1350 109 -1350 
Q 69 -1350 23 -1347 
Q -22 -1344 -119 -1334 
L -119 -847 
z
" transform="scale(0.015625)"/>
       <path id="Helvetica-75" d="M 975 3347 
L 975 1125 
Q 975 869 1056 706 
Q 1206 406 1616 406 
Q 2203 406 2416 931 
Q 2531 1213 2531 1703 
L 2531 3347 
L 3094 3347 
L 3094 0 
L 2563 0 
L 2569 494 
Q 2459 303 2297 172 
Q 1975 -91 1516 -91 
Q 800 -91 541 388 
Q 400 644 400 1072 
L 400 3347 
L 975 3347 
z
M 1747 3428 
L 1747 3428 
z
" transform="scale(0.015625)"/>
       <path id="Helvetica-72" d="M 428 3347 
L 963 3347 
L 963 2769 
Q 1028 2938 1284 3180 
Q 1541 3422 1875 3422 
Q 1891 3422 1928 3419 
Q 1966 3416 2056 3406 
L 2056 2813 
Q 2006 2822 1964 2825 
Q 1922 2828 1872 2828 
Q 1447 2828 1219 2554 
Q 991 2281 991 1925 
L 991 0 
L 428 0 
L 428 3347 
z
" transform="scale(0.015625)"/>
       <path id="Helvetica-79" d="M 2503 3347 
L 3125 3347 
Q 3006 3025 2597 1878 
Q 2291 1016 2084 472 
Q 1597 -809 1397 -1090 
Q 1197 -1372 709 -1372 
Q 591 -1372 527 -1362 
Q 463 -1353 369 -1328 
L 369 -816 
Q 516 -856 581 -865 
Q 647 -875 697 -875 
Q 853 -875 926 -823 
Q 1000 -772 1050 -697 
Q 1066 -672 1162 -440 
Q 1259 -209 1303 -97 
L 66 3347 
L 703 3347 
L 1600 622 
L 2503 3347 
z
M 1597 3428 
L 1597 3428 
z
" transform="scale(0.015625)"/>
       <path id="Helvetica-20" transform="scale(0.015625)"/>
       <path id="Helvetica-53" d="M 894 1481 
Q 916 1091 1078 847 
Q 1388 391 2169 391 
Q 2519 391 2806 491 
Q 3363 684 3363 1184 
Q 3363 1559 3128 1719 
Q 2891 1875 2384 1991 
L 1763 2131 
Q 1153 2269 900 2434 
Q 463 2722 463 3294 
Q 463 3913 891 4309 
Q 1319 4706 2103 4706 
Q 2825 4706 3329 4357 
Q 3834 4009 3834 3244 
L 3250 3244 
Q 3203 3613 3050 3809 
Q 2766 4169 2084 4169 
Q 1534 4169 1293 3937 
Q 1053 3706 1053 3400 
Q 1053 3063 1334 2906 
Q 1519 2806 2169 2656 
L 2813 2509 
Q 3278 2403 3531 2219 
Q 3969 1897 3969 1284 
Q 3969 522 3414 194 
Q 2859 -134 2125 -134 
Q 1269 -134 784 303 
Q 300 738 309 1481 
L 894 1481 
z
M 2150 4716 
L 2150 4716 
z
" transform="scale(0.015625)"/>
       <path id="Helvetica-65" d="M 1806 3422 
Q 2163 3422 2497 3255 
Q 2831 3088 3006 2822 
Q 3175 2569 3231 2231 
Q 3281 2000 3281 1494 
L 828 1494 
Q 844 984 1069 676 
Q 1294 369 1766 369 
Q 2206 369 2469 659 
Q 2619 828 2681 1050 
L 3234 1050 
Q 3213 866 3089 639 
Q 2966 413 2813 269 
Q 2556 19 2178 -69 
Q 1975 -119 1719 -119 
Q 1094 -119 659 336 
Q 225 791 225 1609 
Q 225 2416 662 2919 
Q 1100 3422 1806 3422 
z
M 2703 1941 
Q 2669 2306 2544 2525 
Q 2313 2931 1772 2931 
Q 1384 2931 1121 2651 
Q 859 2372 844 1941 
L 2703 1941 
z
M 1753 3428 
L 1753 3428 
z
" transform="scale(0.015625)"/>
       <path id="Helvetica-76" d="M 688 3347 
L 1581 622 
L 2516 3347 
L 3131 3347 
L 1869 0 
L 1269 0 
L 34 3347 
L 688 3347 
z
" transform="scale(0.015625)"/>
       <path id="Helvetica-69" d="M 413 3331 
L 984 3331 
L 984 0 
L 413 0 
L 413 3331 
z
M 413 4591 
L 984 4591 
L 984 3953 
L 413 3953 
L 413 4591 
z
" transform="scale(0.015625)"/>
       <path id="Helvetica-74" d="M 525 4281 
L 1094 4281 
L 1094 3347 
L 1628 3347 
L 1628 2888 
L 1094 2888 
L 1094 703 
Q 1094 528 1213 469 
Q 1278 434 1431 434 
Q 1472 434 1519 436 
Q 1566 438 1628 444 
L 1628 0 
Q 1531 -28 1426 -40 
Q 1322 -53 1200 -53 
Q 806 -53 665 148 
Q 525 350 525 672 
L 525 2888 
L 72 2888 
L 72 3347 
L 525 3347 
L 525 4281 
z
" transform="scale(0.015625)"/>
       <path id="Helvetica-63" d="M 1703 3444 
Q 2269 3444 2623 3169 
Q 2978 2894 3050 2222 
L 2503 2222 
Q 2453 2531 2275 2736 
Q 2097 2941 1703 2941 
Q 1166 2941 934 2416 
Q 784 2075 784 1575 
Q 784 1072 996 728 
Q 1209 384 1666 384 
Q 2016 384 2220 598 
Q 2425 813 2503 1184 
L 3050 1184 
Q 2956 519 2581 211 
Q 2206 -97 1622 -97 
Q 966 -97 575 383 
Q 184 863 184 1581 
Q 184 2463 612 2953 
Q 1041 3444 1703 3444 
z
M 1616 3428 
L 1616 3428 
z
" transform="scale(0.015625)"/>
       <path id="Helvetica-6f" d="M 1741 363 
Q 2300 363 2508 786 
Q 2716 1209 2716 1728 
Q 2716 2197 2566 2491 
Q 2328 2953 1747 2953 
Q 1231 2953 997 2559 
Q 763 2166 763 1609 
Q 763 1075 997 719 
Q 1231 363 1741 363 
z
M 1763 3444 
Q 2409 3444 2856 3012 
Q 3303 2581 3303 1744 
Q 3303 934 2909 406 
Q 2516 -122 1688 -122 
Q 997 -122 590 345 
Q 184 813 184 1600 
Q 184 2444 612 2944 
Q 1041 3444 1763 3444 
z
M 1744 3428 
L 1744 3428 
z
" transform="scale(0.015625)"/>
       <path id="Helvetica-28" d="M 1894 4666 
Q 1403 3713 1256 3263 
Q 1034 2578 1034 1681 
Q 1034 775 1288 25 
Q 1444 -438 1903 -1306 
L 1525 -1306 
Q 1069 -594 959 -397 
Q 850 -200 722 138 
Q 547 600 478 1125 
Q 444 1397 444 1644 
Q 444 2569 734 3291 
Q 919 3750 1503 4666 
L 1894 4666 
z
" transform="scale(0.015625)"/>
       <path id="Helvetica-29" d="M 222 -1306 
Q 719 -338 863 106 
Q 1081 778 1081 1681 
Q 1081 2584 828 3334 
Q 672 3797 213 4666 
L 591 4666 
Q 1072 3897 1173 3717 
Q 1275 3538 1394 3222 
Q 1544 2831 1608 2450 
Q 1672 2069 1672 1716 
Q 1672 791 1378 66 
Q 1194 -400 613 -1306 
L 222 -1306 
z
" transform="scale(0.015625)"/>
      </defs>
      <use xlink:href="#Helvetica-49"/>
      <use xlink:href="#Helvetica-6e" x="27.783203"/>
      <use xlink:href="#Helvetica-6a" x="83.398438"/>
      <use xlink:href="#Helvetica-75" x="105.615234"/>
      <use xlink:href="#Helvetica-72" x="161.230469"/>
      <use xlink:href="#Helvetica-79" x="194.53125"/>
      <use xlink:href="#Helvetica-20" x="244.53125"/>
      <use xlink:href="#Helvetica-53" x="272.314453"/>
      <use xlink:href="#Helvetica-65" x="339.013672"/>
      <use xlink:href="#Helvetica-76" x="394.628906"/>
      <use xlink:href="#Helvetica-65" x="444.628906"/>
      <use xlink:href="#Helvetica-72" x="500.244141"/>
      <use xlink:href="#Helvetica-69" x="533.544922"/>
      <use xlink:href="#Helvetica-74" x="555.761719"/>
      <use xlink:href="#Helvetica-79" x="583.544922"/>
      <use xlink:href="#Helvetica-20" x="633.544922"/>
      <use xlink:href="#Helvetica-53" x="661.328125"/>
      <use xlink:href="#Helvetica-63" x="728.027344"/>
      <use xlink:href="#Helvetica-6f" x="778.027344"/>
      <use xlink:href="#Helvetica-72" x="833.642578"/>
      <use xlink:href="#Helvetica-65" x="866.943359"/>
      <use xlink:href="#Helvetica-20" x="922.558594"/>
      <use xlink:href="#Helvetica-28" x="950.341797"/>
      <use xlink:href="#Helvetica-49" x="983.642578"/>
      <use xlink:href="#Helvetica-53" x="1011.425781"/>
      <use xlink:href="#Helvetica-53" x="1078.125"/>
      <use xlink:href="#Helvetica-29" x="1144.824219"/>
     </g>
    </g>
   </g>
   <g id="matplotlib.axis_2">
    <g id="ytick_1">
     <g id="line2d_8">
      <defs>
       <path id="m08c1d6620b" d="M 0 0 
L -3.5 0 
" style="stroke: #000000; stroke-width: 0.8"/>
      </defs>
      <g>
       <use xlink:href="#m08c1d6620b" x="72" y="384.48" style="stroke: #000000; stroke-width: 0.8"/>
      </g>
     </g>
     <g id="text_9">
      <!-- 0.000 -->
      <g transform="translate(39.978125 388.066719) scale(0.1 -0.1)">
       <defs>
        <path id="Helvetica-2e" d="M 547 681 
L 1200 681 
L 1200 0 
L 547 0 
L 547 681 
z
" transform="scale(0.015625)"/>
       </defs>
       <use xlink:href="#Helvetica-30"/>
       <use xlink:href="#Helvetica-2e" x="55.615234"/>
       <use xlink:href="#Helvetica-30" x="83.398438"/>
       <use xlink:href="#Helvetica-30" x="139.013672"/>
       <use xlink:href="#Helvetica-30" x="194.628906"/>
      </g>
     </g>
    </g>
    <g id="ytick_2">
     <g id="line2d_9">
      <g>
       <use xlink:href="#m08c1d6620b" x="72" y="344.77644" style="stroke: #000000; stroke-width: 0.8"/>
      </g>
     </g>
     <g id="text_10">
      <!-- 0.005 -->
      <g transform="translate(39.978125 348.363159) scale(0.1 -0.1)">
       <defs>
        <path id="Helvetica-35" d="M 791 1141 
Q 847 659 1238 475 
Q 1438 381 1700 381 
Q 2200 381 2440 700 
Q 2681 1019 2681 1406 
Q 2681 1875 2395 2131 
Q 2109 2388 1709 2388 
Q 1419 2388 1211 2275 
Q 1003 2163 856 1963 
L 369 1991 
L 709 4400 
L 3034 4400 
L 3034 3856 
L 1131 3856 
L 941 2613 
Q 1097 2731 1238 2791 
Q 1488 2894 1816 2894 
Q 2431 2894 2859 2497 
Q 3288 2100 3288 1491 
Q 3288 856 2895 371 
Q 2503 -113 1644 -113 
Q 1097 -113 676 195 
Q 256 503 206 1141 
L 791 1141 
z
" transform="scale(0.015625)"/>
       </defs>
       <use xlink:href="#Helvetica-30"/>
       <use xlink:href="#Helvetica-2e" x="55.615234"/>
       <use xlink:href="#Helvetica-30" x="83.398438"/>
       <use xlink:href="#Helvetica-30" x="139.013672"/>
       <use xlink:href="#Helvetica-35" x="194.628906"/>
      </g>
     </g>
    </g>
    <g id="ytick_3">
     <g id="line2d_10">
      <g>
       <use xlink:href="#m08c1d6620b" x="72" y="305.072881" style="stroke: #000000; stroke-width: 0.8"/>
      </g>
     </g>
     <g id="text_11">
      <!-- 0.010 -->
      <g transform="translate(39.978125 308.659599) scale(0.1 -0.1)">
       <use xlink:href="#Helvetica-30"/>
       <use xlink:href="#Helvetica-2e" x="55.615234"/>
       <use xlink:href="#Helvetica-30" x="83.398438"/>
       <use xlink:href="#Helvetica-31" x="139.013672"/>
       <use xlink:href="#Helvetica-30" x="194.628906"/>
      </g>
     </g>
    </g>
    <g id="ytick_4">
     <g id="line2d_11">
      <g>
       <use xlink:href="#m08c1d6620b" x="72" y="265.369321" style="stroke: #000000; stroke-width: 0.8"/>
      </g>
     </g>
     <g id="text_12">
      <!-- 0.015 -->
      <g transform="translate(39.978125 268.95604) scale(0.1 -0.1)">
       <use xlink:href="#Helvetica-30"/>
       <use xlink:href="#Helvetica-2e" x="55.615234"/>
       <use xlink:href="#Helvetica-30" x="83.398438"/>
       <use xlink:href="#Helvetica-31" x="139.013672"/>
       <use xlink:href="#Helvetica-35" x="194.628906"/>
      </g>
     </g>
    </g>
    <g id="ytick_5">
     <g id="line2d_12">
      <g>
       <use xlink:href="#m08c1d6620b" x="72" y="225.665761" style="stroke: #000000; stroke-width: 0.8"/>
      </g>
     </g>
     <g id="text_13">
      <!-- 0.020 -->
      <g transform="translate(39.978125 229.25248) scale(0.1 -0.1)">
       <use xlink:href="#Helvetica-30"/>
       <use xlink:href="#Helvetica-2e" x="55.615234"/>
       <use xlink:href="#Helvetica-30" x="83.398438"/>
       <use xlink:href="#Helvetica-32" x="139.013672"/>
       <use xlink:href="#Helvetica-30" x="194.628906"/>
      </g>
     </g>
    </g>
    <g id="ytick_6">
     <g id="line2d_13">
      <g>
       <use xlink:href="#m08c1d6620b" x="72" y="185.962202" style="stroke: #000000; stroke-width: 0.8"/>
      </g>
     </g>
     <g id="text_14">
      <!-- 0.025 -->
      <g transform="translate(39.978125 189.54892) scale(0.1 -0.1)">
       <use xlink:href="#Helvetica-30"/>
       <use xlink:href="#Helvetica-2e" x="55.615234"/>
       <use xlink:href="#Helvetica-30" x="83.398438"/>
       <use xlink:href="#Helvetica-32" x="139.013672"/>
       <use xlink:href="#Helvetica-35" x="194.628906"/>
      </g>
     </g>
    </g>
    <g id="ytick_7">
     <g id="line2d_14">
      <g>
       <use xlink:href="#m08c1d6620b" x="72" y="146.258642" style="stroke: #000000; stroke-width: 0.8"/>
      </g>
     </g>
     <g id="text_15">
      <!-- 0.030 -->
      <g transform="translate(39.978125 149.845361) scale(0.1 -0.1)">
       <defs>
        <path id="Helvetica-33" d="M 1663 -122 
Q 869 -122 511 314 
Q 153 750 153 1375 
L 741 1375 
Q 778 941 903 744 
Q 1122 391 1694 391 
Q 2138 391 2406 628 
Q 2675 866 2675 1241 
Q 2675 1703 2392 1887 
Q 2109 2072 1606 2072 
Q 1550 2072 1492 2070 
Q 1434 2069 1375 2066 
L 1375 2563 
Q 1463 2553 1522 2550 
Q 1581 2547 1650 2547 
Q 1966 2547 2169 2647 
Q 2525 2822 2525 3272 
Q 2525 3606 2287 3787 
Q 2050 3969 1734 3969 
Q 1172 3969 956 3594 
Q 838 3388 822 3006 
L 266 3006 
Q 266 3506 466 3856 
Q 809 4481 1675 4481 
Q 2359 4481 2734 4176 
Q 3109 3872 3109 3294 
Q 3109 2881 2888 2625 
Q 2750 2466 2531 2375 
Q 2884 2278 3082 2001 
Q 3281 1725 3281 1325 
Q 3281 684 2859 281 
Q 2438 -122 1663 -122 
z
" transform="scale(0.015625)"/>
       </defs>
       <use xlink:href="#Helvetica-30"/>
       <use xlink:href="#Helvetica-2e" x="55.615234"/>
       <use xlink:href="#Helvetica-30" x="83.398438"/>
       <use xlink:href="#Helvetica-33" x="139.013672"/>
       <use xlink:href="#Helvetica-30" x="194.628906"/>
      </g>
     </g>
    </g>
    <g id="ytick_8">
     <g id="line2d_15">
      <g>
       <use xlink:href="#m08c1d6620b" x="72" y="106.555082" style="stroke: #000000; stroke-width: 0.8"/>
      </g>
     </g>
     <g id="text_16">
      <!-- 0.035 -->
      <g transform="translate(39.978125 110.141801) scale(0.1 -0.1)">
       <use xlink:href="#Helvetica-30"/>
       <use xlink:href="#Helvetica-2e" x="55.615234"/>
       <use xlink:href="#Helvetica-30" x="83.398438"/>
       <use xlink:href="#Helvetica-33" x="139.013672"/>
       <use xlink:href="#Helvetica-35" x="194.628906"/>
      </g>
     </g>
    </g>
    <g id="ytick_9">
     <g id="line2d_16">
      <g>
       <use xlink:href="#m08c1d6620b" x="72" y="66.851523" style="stroke: #000000; stroke-width: 0.8"/>
      </g>
     </g>
     <g id="text_17">
      <!-- 0.040 -->
      <g transform="translate(39.978125 70.438241) scale(0.1 -0.1)">
       <use xlink:href="#Helvetica-30"/>
       <use xlink:href="#Helvetica-2e" x="55.615234"/>
       <use xlink:href="#Helvetica-30" x="83.398438"/>
       <use xlink:href="#Helvetica-34" x="139.013672"/>
       <use xlink:href="#Helvetica-30" x="194.628906"/>
      </g>
     </g>
    </g>
    <g id="text_18">
     <!-- Density -->
     <g transform="translate(33.834375 234.831875) rotate(-90) scale(0.1 -0.1)">
      <defs>
       <path id="Helvetica-44" d="M 2250 531 
Q 2566 531 2769 597 
Q 3131 719 3363 1066 
Q 3547 1344 3628 1778 
Q 3675 2038 3675 2259 
Q 3675 3113 3336 3584 
Q 2997 4056 2244 4056 
L 1141 4056 
L 1141 531 
L 2250 531 
z
M 516 4591 
L 2375 4591 
Q 3322 4591 3844 3919 
Q 4309 3313 4309 2366 
Q 4309 1634 4034 1044 
Q 3550 0 2369 0 
L 516 0 
L 516 4591 
z
" transform="scale(0.015625)"/>
       <path id="Helvetica-73" d="M 747 1050 
Q 772 769 888 619 
Q 1100 347 1625 347 
Q 1938 347 2175 483 
Q 2413 619 2413 903 
Q 2413 1119 2222 1231 
Q 2100 1300 1741 1391 
L 1294 1503 
Q 866 1609 663 1741 
Q 300 1969 300 2372 
Q 300 2847 642 3140 
Q 984 3434 1563 3434 
Q 2319 3434 2653 2991 
Q 2863 2709 2856 2384 
L 2325 2384 
Q 2309 2575 2191 2731 
Q 1997 2953 1519 2953 
Q 1200 2953 1036 2831 
Q 872 2709 872 2509 
Q 872 2291 1088 2159 
Q 1213 2081 1456 2022 
L 1828 1931 
Q 2434 1784 2641 1647 
Q 2969 1431 2969 969 
Q 2969 522 2630 197 
Q 2291 -128 1597 -128 
Q 850 -128 539 211 
Q 228 550 206 1050 
L 747 1050 
z
M 1578 3428 
L 1578 3428 
z
" transform="scale(0.015625)"/>
      </defs>
      <use xlink:href="#Helvetica-44"/>
      <use xlink:href="#Helvetica-65" x="72.216797"/>
      <use xlink:href="#Helvetica-6e" x="127.832031"/>
      <use xlink:href="#Helvetica-73" x="183.447266"/>
      <use xlink:href="#Helvetica-69" x="233.447266"/>
      <use xlink:href="#Helvetica-74" x="255.664062"/>
      <use xlink:href="#Helvetica-79" x="283.447266"/>
     </g>
    </g>
   </g>
   <g id="patch_3">
    <path d="M 72 384.48 
L 72 51.84 
" style="fill: none; stroke: #000000; stroke-width: 0.8; stroke-linejoin: miter; stroke-linecap: square"/>
   </g>
   <g id="patch_4">
    <path d="M 518.4 384.48 
L 518.4 51.84 
" style="fill: none; stroke: #000000; stroke-width: 0.8; stroke-linejoin: miter; stroke-linecap: square"/>
   </g>
   <g id="patch_5">
    <path d="M 72 384.48 
L 518.4 384.48 
" style="fill: none; stroke: #000000; stroke-width: 0.8; stroke-linejoin: miter; stroke-linecap: square"/>
   </g>
   <g id="patch_6">
    <path d="M 72 51.84 
L 518.4 51.84 
" style="fill: none; stroke: #000000; stroke-width: 0.8; stroke-linejoin: miter; stroke-linecap: square"/>
   </g>
   <g id="legend_1">
    <g id="patch_7">
     <path d="M 434.373437 88.355625 
L 511.4 88.355625 
Q 513.4 88.355625 513.4 86.355625 
L 513.4 58.84 
Q 513.4 56.84 511.4 56.84 
L 434.373437 56.84 
Q 432.373437 56.84 432.373437 58.84 
L 432.373437 86.355625 
Q 432.373437 88.355625 434.373437 88.355625 
z
" style="fill: #ffffff; opacity: 0.8; stroke: #cccccc; stroke-linejoin: miter"/>
    </g>
    <g id="patch_8">
     <path d="M 436.373437 68.013437 
L 456.373437 68.013437 
L 456.373437 61.013437 
L 436.373437 61.013437 
z
" style="fill: #87ceeb; fill-opacity: 0.25; stroke: #87ceeb; stroke-linejoin: miter"/>
    </g>
    <g id="text_19">
     <!-- Alive -->
     <g transform="translate(464.373437 68.013437) scale(0.1 -0.1)">
      <defs>
       <path id="Helvetica-41" d="M 2844 1881 
L 2147 3909 
L 1406 1881 
L 2844 1881 
z
M 1822 4591 
L 2525 4591 
L 4191 0 
L 3509 0 
L 3044 1375 
L 1228 1375 
L 731 0 
L 94 0 
L 1822 4591 
z
" transform="scale(0.015625)"/>
       <path id="Helvetica-6c" d="M 428 4591 
L 991 4591 
L 991 0 
L 428 0 
L 428 4591 
z
" transform="scale(0.015625)"/>
      </defs>
      <use xlink:href="#Helvetica-41"/>
      <use xlink:href="#Helvetica-6c" x="66.699219"/>
      <use xlink:href="#Helvetica-69" x="88.916016"/>
      <use xlink:href="#Helvetica-76" x="111.132812"/>
      <use xlink:href="#Helvetica-65" x="161.132812"/>
     </g>
    </g>
    <g id="patch_9">
     <path d="M 436.373437 82.27125 
L 456.373437 82.27125 
L 456.373437 75.27125 
L 436.373437 75.27125 
z
" style="fill: #fa8072; fill-opacity: 0.25; stroke: #fa8072; stroke-linejoin: miter"/>
    </g>
    <g id="text_20">
     <!-- Deceased -->
     <g transform="translate(464.373437 82.27125) scale(0.1 -0.1)">
      <defs>
       <path id="Helvetica-61" d="M 844 891 
Q 844 647 1022 506 
Q 1200 366 1444 366 
Q 1741 366 2019 503 
Q 2488 731 2488 1250 
L 2488 1703 
Q 2384 1638 2221 1594 
Q 2059 1550 1903 1531 
L 1563 1488 
Q 1256 1447 1103 1359 
Q 844 1213 844 891 
z
M 2206 2028 
Q 2400 2053 2466 2191 
Q 2503 2266 2503 2406 
Q 2503 2694 2298 2823 
Q 2094 2953 1713 2953 
Q 1272 2953 1088 2716 
Q 984 2584 953 2325 
L 428 2325 
Q 444 2944 830 3186 
Q 1216 3428 1725 3428 
Q 2316 3428 2684 3203 
Q 3050 2978 3050 2503 
L 3050 575 
Q 3050 488 3086 434 
Q 3122 381 3238 381 
Q 3275 381 3322 386 
Q 3369 391 3422 400 
L 3422 -16 
Q 3291 -53 3222 -62 
Q 3153 -72 3034 -72 
Q 2744 -72 2613 134 
Q 2544 244 2516 444 
Q 2344 219 2022 53 
Q 1700 -113 1313 -113 
Q 847 -113 551 170 
Q 256 453 256 878 
Q 256 1344 547 1600 
Q 838 1856 1309 1916 
L 2206 2028 
z
M 1741 3428 
L 1741 3428 
z
" transform="scale(0.015625)"/>
       <path id="Helvetica-64" d="M 769 1634 
Q 769 1097 997 734 
Q 1225 372 1728 372 
Q 2119 372 2370 708 
Q 2622 1044 2622 1672 
Q 2622 2306 2362 2611 
Q 2103 2916 1722 2916 
Q 1297 2916 1033 2591 
Q 769 2266 769 1634 
z
M 1616 3406 
Q 2000 3406 2259 3244 
Q 2409 3150 2600 2916 
L 2600 4606 
L 3141 4606 
L 3141 0 
L 2634 0 
L 2634 466 
Q 2438 156 2169 18 
Q 1900 -119 1553 -119 
Q 994 -119 584 351 
Q 175 822 175 1603 
Q 175 2334 548 2870 
Q 922 3406 1616 3406 
z
" transform="scale(0.015625)"/>
      </defs>
      <use xlink:href="#Helvetica-44"/>
      <use xlink:href="#Helvetica-65" x="72.216797"/>
      <use xlink:href="#Helvetica-63" x="127.832031"/>
      <use xlink:href="#Helvetica-65" x="177.832031"/>
      <use xlink:href="#Helvetica-61" x="233.447266"/>
      <use xlink:href="#Helvetica-73" x="289.0625"/>
      <use xlink:href="#Helvetica-65" x="339.0625"/>
      <use xlink:href="#Helvetica-64" x="394.677734"/>
     </g>
    </g>
   </g>
  </g>
 </g>
 <defs>
  <clipPath id="pf0f84029c5">
   <rect x="72" y="51.84" width="446.4" height="332.64"/>
  </clipPath>
 </defs>
</svg>
