<?xml version="1.0" encoding="utf-8" standalone="no"?>
<!DOCTYPE svg PUBLIC "-//W3C//DTD SVG 1.1//EN"
  "http://www.w3.org/Graphics/SVG/1.1/DTD/svg11.dtd">
<svg xmlns:xlink="http://www.w3.org/1999/xlink" width="576pt" height="432pt" viewBox="0 0 576 432" xmlns="http://www.w3.org/2000/svg" version="1.1">
 <metadata>
  <rdf:RDF xmlns:dc="http://purl.org/dc/elements/1.1/" xmlns:cc="http://creativecommons.org/ns#" xmlns:rdf="http://www.w3.org/1999/02/22-rdf-syntax-ns#">
   <cc:Work>
    <dc:type rdf:resource="http://purl.org/dc/dcmitype/StillImage"/>
    <dc:date>2023-11-06T21:01:33.204606</dc:date>
    <dc:format>image/svg+xml</dc:format>
    <dc:creator>
     <cc:Agent>
      <dc:title>Matplotlib v3.7.2, https://matplotlib.org/</dc:title>
     </cc:Agent>
    </dc:creator>
   </cc:Work>
  </rdf:RDF>
 </metadata>
 <defs>
  <style type="text/css">*{stroke-linejoin: round; stroke-linecap: butt}</style>
 </defs>
 <g id="figure_1">
  <g id="patch_1">
   <path d="M 0 432 
L 576 432 
L 576 0 
L 0 0 
z
" style="fill: #ffffff"/>
  </g>
  <g id="axes_1">
   <g id="patch_2">
    <path d="M 72 384.48 
L 518.4 384.48 
L 518.4 51.84 
L 72 51.84 
z
" style="fill: #ffffff"/>
   </g>
   <g id="PolyCollection_1">
    <defs>
     <path id="m9bd2c69acb" d="M 134.958217 -47.64572 
L 134.958217 -47.52 
L 135.935464 -47.52 
L 136.912712 -47.52 
L 137.889959 -47.52 
L 138.867207 -47.52 
L 139.844454 -47.52 
L 140.821702 -47.52 
L 141.798949 -47.52 
L 142.776197 -47.52 
L 143.753444 -47.52 
L 144.730692 -47.52 
L 145.707939 -47.52 
L 146.685187 -47.52 
L 147.662434 -47.52 
L 148.639682 -47.52 
L 149.616929 -47.52 
L 150.594176 -47.52 
L 151.571424 -47.52 
L 152.548671 -47.52 
L 153.525919 -47.52 
L 154.503166 -47.52 
L 155.480414 -47.52 
L 156.457661 -47.52 
L 157.434909 -47.52 
L 158.412156 -47.52 
L 159.389404 -47.52 
L 160.366651 -47.52 
L 161.343899 -47.52 
L 162.321146 -47.52 
L 163.298394 -47.52 
L 164.275641 -47.52 
L 165.252888 -47.52 
L 166.230136 -47.52 
L 167.207383 -47.52 
L 168.184631 -47.52 
L 169.161878 -47.52 
L 170.139126 -47.52 
L 171.116373 -47.52 
L 172.093621 -47.52 
L 173.070868 -47.52 
L 174.048116 -47.52 
L 175.025363 -47.52 
L 176.002611 -47.52 
L 176.979858 -47.52 
L 177.957105 -47.52 
L 178.934353 -47.52 
L 179.9116 -47.52 
L 180.888848 -47.52 
L 181.866095 -47.52 
L 182.843343 -47.52 
L 183.82059 -47.52 
L 184.797838 -47.52 
L 185.775085 -47.52 
L 186.752333 -47.52 
L 187.72958 -47.52 
L 188.706828 -47.52 
L 189.684075 -47.52 
L 190.661323 -47.52 
L 191.63857 -47.52 
L 192.615817 -47.52 
L 193.593065 -47.52 
L 194.570312 -47.52 
L 195.54756 -47.52 
L 196.524807 -47.52 
L 197.502055 -47.52 
L 198.479302 -47.52 
L 199.45655 -47.52 
L 200.433797 -47.52 
L 201.411045 -47.52 
L 202.388292 -47.52 
L 203.36554 -47.52 
L 204.342787 -47.52 
L 205.320035 -47.52 
L 206.297282 -47.52 
L 207.274529 -47.52 
L 208.251777 -47.52 
L 209.229024 -47.52 
L 210.206272 -47.52 
L 211.183519 -47.52 
L 212.160767 -47.52 
L 213.138014 -47.52 
L 214.115262 -47.52 
L 215.092509 -47.52 
L 216.069757 -47.52 
L 217.047004 -47.52 
L 218.024252 -47.52 
L 219.001499 -47.52 
L 219.978747 -47.52 
L 220.955994 -47.52 
L 221.933241 -47.52 
L 222.910489 -47.52 
L 223.887736 -47.52 
L 224.864984 -47.52 
L 225.842231 -47.52 
L 226.819479 -47.52 
L 227.796726 -47.52 
L 228.773974 -47.52 
L 229.751221 -47.52 
L 230.728469 -47.52 
L 231.705716 -47.52 
L 232.682964 -47.52 
L 233.660211 -47.52 
L 234.637459 -47.52 
L 235.614706 -47.52 
L 236.591953 -47.52 
L 237.569201 -47.52 
L 238.546448 -47.52 
L 239.523696 -47.52 
L 240.500943 -47.52 
L 241.478191 -47.52 
L 242.455438 -47.52 
L 243.432686 -47.52 
L 244.409933 -47.52 
L 245.387181 -47.52 
L 246.364428 -47.52 
L 247.341676 -47.52 
L 248.318923 -47.52 
L 249.296171 -47.52 
L 250.273418 -47.52 
L 251.250665 -47.52 
L 252.227913 -47.52 
L 253.20516 -47.52 
L 254.182408 -47.52 
L 255.159655 -47.52 
L 256.136903 -47.52 
L 257.11415 -47.52 
L 258.091398 -47.52 
L 259.068645 -47.52 
L 260.045893 -47.52 
L 261.02314 -47.52 
L 262.000388 -47.52 
L 262.977635 -47.52 
L 263.954883 -47.52 
L 264.93213 -47.52 
L 265.909377 -47.52 
L 266.886625 -47.52 
L 267.863872 -47.52 
L 268.84112 -47.52 
L 269.818367 -47.52 
L 270.795615 -47.52 
L 271.772862 -47.52 
L 272.75011 -47.52 
L 273.727357 -47.52 
L 274.704605 -47.52 
L 275.681852 -47.52 
L 276.6591 -47.52 
L 277.636347 -47.52 
L 278.613595 -47.52 
L 279.590842 -47.52 
L 280.568089 -47.52 
L 281.545337 -47.52 
L 282.522584 -47.52 
L 283.499832 -47.52 
L 284.477079 -47.52 
L 285.454327 -47.52 
L 286.431574 -47.52 
L 287.408822 -47.52 
L 288.386069 -47.52 
L 289.363317 -47.52 
L 290.340564 -47.52 
L 291.317812 -47.52 
L 292.295059 -47.52 
L 293.272307 -47.52 
L 294.249554 -47.52 
L 295.226801 -47.52 
L 296.204049 -47.52 
L 297.181296 -47.52 
L 298.158544 -47.52 
L 299.135791 -47.52 
L 300.113039 -47.52 
L 301.090286 -47.52 
L 302.067534 -47.52 
L 303.044781 -47.52 
L 304.022029 -47.52 
L 304.999276 -47.52 
L 305.976524 -47.52 
L 306.953771 -47.52 
L 307.931019 -47.52 
L 308.908266 -47.52 
L 309.885513 -47.52 
L 310.862761 -47.52 
L 311.840008 -47.52 
L 312.817256 -47.52 
L 313.794503 -47.52 
L 314.771751 -47.52 
L 315.748998 -47.52 
L 316.726246 -47.52 
L 317.703493 -47.52 
L 318.680741 -47.52 
L 319.657988 -47.52 
L 320.635236 -47.52 
L 321.612483 -47.52 
L 322.589731 -47.52 
L 323.566978 -47.52 
L 324.544225 -47.52 
L 325.521473 -47.52 
L 326.49872 -47.52 
L 327.475968 -47.52 
L 328.453215 -47.52 
L 329.430463 -47.52 
L 329.430463 -47.642992 
L 329.430463 -47.642992 
L 328.453215 -47.679572 
L 327.475968 -47.725434 
L 326.49872 -47.782437 
L 325.521473 -47.852673 
L 324.544225 -47.938456 
L 323.566978 -48.042306 
L 322.589731 -48.166912 
L 321.612483 -48.315083 
L 320.635236 -48.489685 
L 319.657988 -48.693557 
L 318.680741 -48.929411 
L 317.703493 -49.199724 
L 316.726246 -49.506607 
L 315.748998 -49.851682 
L 314.771751 -50.235945 
L 313.794503 -50.659646 
L 312.817256 -51.122175 
L 311.840008 -51.621982 
L 310.862761 -52.156518 
L 309.885513 -52.722224 
L 308.908266 -53.314573 
L 307.931019 -53.92815 
L 306.953771 -54.556813 
L 305.976524 -55.193885 
L 304.999276 -55.832426 
L 304.022029 -56.465531 
L 303.044781 -57.086677 
L 302.067534 -57.690086 
L 301.090286 -58.271098 
L 300.113039 -58.826518 
L 299.135791 -59.35494 
L 298.158544 -59.857006 
L 297.181296 -60.335589 
L 296.204049 -60.795881 
L 295.226801 -61.24538 
L 294.249554 -61.693748 
L 293.272307 -62.152564 
L 292.295059 -62.634949 
L 291.317812 -63.155093 
L 290.340564 -63.727688 
L 289.363317 -64.367299 
L 288.386069 -65.087683 
L 287.408822 -65.901113 
L 286.431574 -66.817712 
L 285.454327 -67.844856 
L 284.477079 -68.986653 
L 283.499832 -70.243552 
L 282.522584 -71.61209 
L 281.545337 -73.084808 
L 280.568089 -74.650341 
L 279.590842 -76.293693 
L 278.613595 -77.996702 
L 277.636347 -79.738664 
L 276.6591 -81.497136 
L 275.681852 -83.248859 
L 274.704605 -84.970799 
L 273.727357 -86.641273 
L 272.75011 -88.24111 
L 271.772862 -89.754835 
L 270.795615 -91.171822 
L 269.818367 -92.487398 
L 268.84112 -93.703849 
L 267.863872 -94.831308 
L 266.886625 -95.88849 
L 265.909377 -96.903242 
L 264.93213 -97.91289 
L 263.954883 -98.964338 
L 262.977635 -100.113911 
L 262.000388 -101.426896 
L 261.02314 -102.976771 
L 260.045893 -104.844082 
L 259.068645 -107.114956 
L 258.091398 -109.879236 
L 257.11415 -113.228223 
L 256.136903 -117.252051 
L 255.159655 -122.036701 
L 254.182408 -127.660714 
L 253.20516 -134.191679 
L 252.227913 -141.68257 
L 251.250665 -150.168088 
L 250.273418 -159.661132 
L 249.296171 -170.149585 
L 248.318923 -181.593585 
L 247.341676 -193.923487 
L 246.364428 -207.038679 
L 245.387181 -220.807441 
L 244.409933 -235.067951 
L 243.432686 -249.630551 
L 242.455438 -264.281291 
L 241.478191 -278.786709 
L 240.500943 -292.899766 
L 239.523696 -306.366732 
L 238.546448 -318.934796 
L 237.569201 -330.360097 
L 236.591953 -340.415818 
L 235.614706 -348.899996 
L 234.637459 -355.64265 
L 233.660211 -360.511887 
L 232.682964 -363.418672 
L 231.705716 -364.32 
L 230.728469 -363.220317 
L 229.751221 -360.171089 
L 228.773974 -355.268556 
L 227.796726 -348.649769 
L 226.819479 -340.487127 
L 225.842231 -330.981684 
L 224.864984 -320.355582 
L 223.887736 -308.843971 
L 222.910489 -296.686818 
L 221.933241 -284.120994 
L 220.955994 -271.372968 
L 219.978747 -258.652435 
L 219.001499 -246.147095 
L 218.024252 -234.018739 
L 217.047004 -222.400735 
L 216.069757 -211.3969 
L 215.092509 -201.081688 
L 214.115262 -191.501557 
L 213.138014 -182.677327 
L 212.160767 -174.607309 
L 211.183519 -167.270956 
L 210.206272 -160.632808 
L 209.229024 -154.646486 
L 208.251777 -149.258528 
L 207.274529 -144.411899 
L 206.297282 -140.049031 
L 205.320035 -136.114313 
L 204.342787 -132.555965 
L 203.36554 -129.327302 
L 202.388292 -126.38742 
L 201.411045 -123.701349 
L 200.433797 -121.239774 
L 199.45655 -118.978411 
L 198.479302 -116.897147 
L 197.502055 -114.979056 
L 196.524807 -113.209381 
L 195.54756 -111.574579 
L 194.570312 -110.061488 
L 193.593065 -108.656675 
L 192.615817 -107.346002 
L 191.63857 -106.114402 
L 190.661323 -104.945884 
L 189.684075 -103.823717 
L 188.706828 -102.730782 
L 187.72958 -101.650033 
L 186.752333 -100.565023 
L 185.775085 -99.460445 
L 184.797838 -98.322647 
L 183.82059 -97.140079 
L 182.843343 -95.903631 
L 181.866095 -94.606862 
L 180.888848 -93.246092 
L 179.9116 -91.820366 
L 178.934353 -90.331294 
L 177.957105 -88.782796 
L 176.979858 -87.180761 
L 176.002611 -85.532658 
L 175.025363 -83.847123 
L 174.048116 -82.13355 
L 173.070868 -80.401706 
L 172.093621 -78.661392 
L 171.116373 -76.922163 
L 170.139126 -75.193111 
L 169.161878 -73.482715 
L 168.184631 -71.798753 
L 167.207383 -70.148267 
L 166.230136 -68.537565 
L 165.252888 -66.972261 
L 164.275641 -65.457325 
L 163.298394 -63.997139 
L 162.321146 -62.595548 
L 161.343899 -61.255902 
L 160.366651 -59.981074 
L 159.389404 -58.773473 
L 158.412156 -57.635033 
L 157.434909 -56.567192 
L 156.457661 -55.570865 
L 155.480414 -54.646419 
L 154.503166 -53.793648 
L 153.525919 -53.011761 
L 152.548671 -52.299383 
L 151.571424 -51.65457 
L 150.594176 -51.074848 
L 149.616929 -50.557257 
L 148.639682 -50.098423 
L 147.662434 -49.694627 
L 146.685187 -49.341897 
L 145.707939 -49.036093 
L 144.730692 -48.772992 
L 143.753444 -48.54838 
L 142.776197 -48.358121 
L 141.798949 -48.198228 
L 140.821702 -48.064918 
L 139.844454 -47.954659 
L 138.867207 -47.864194 
L 137.889959 -47.790567 
L 136.912712 -47.731127 
L 135.935464 -47.683528 
L 134.958217 -47.64572 
z
" style="stroke: #87ceeb"/>
    </defs>
    <g clip-path="url(#p16e93ecf13)">
     <use xlink:href="#m9bd2c69acb" x="0" y="432" style="fill: #87ceeb; fill-opacity: 0.25; stroke: #87ceeb"/>
    </g>
   </g>
   <g id="PolyCollection_2">
    <defs>
     <path id="mbbc1141cd6" d="M 92.290909 -47.76254 
L 92.290909 -47.52 
L 94.330196 -47.52 
L 96.369484 -47.52 
L 98.408771 -47.52 
L 100.448058 -47.52 
L 102.487346 -47.52 
L 104.526633 -47.52 
L 106.565921 -47.52 
L 108.605208 -47.52 
L 110.644495 -47.52 
L 112.683783 -47.52 
L 114.72307 -47.52 
L 116.762357 -47.52 
L 118.801645 -47.52 
L 120.840932 -47.52 
L 122.880219 -47.52 
L 124.919507 -47.52 
L 126.958794 -47.52 
L 128.998081 -47.52 
L 131.037369 -47.52 
L 133.076656 -47.52 
L 135.115943 -47.52 
L 137.155231 -47.52 
L 139.194518 -47.52 
L 141.233805 -47.52 
L 143.273093 -47.52 
L 145.31238 -47.52 
L 147.351667 -47.52 
L 149.390955 -47.52 
L 151.430242 -47.52 
L 153.469529 -47.52 
L 155.508817 -47.52 
L 157.548104 -47.52 
L 159.587392 -47.52 
L 161.626679 -47.52 
L 163.665966 -47.52 
L 165.705254 -47.52 
L 167.744541 -47.52 
L 169.783828 -47.52 
L 171.823116 -47.52 
L 173.862403 -47.52 
L 175.90169 -47.52 
L 177.940978 -47.52 
L 179.980265 -47.52 
L 182.019552 -47.52 
L 184.05884 -47.52 
L 186.098127 -47.52 
L 188.137414 -47.52 
L 190.176702 -47.52 
L 192.215989 -47.52 
L 194.255276 -47.52 
L 196.294564 -47.52 
L 198.333851 -47.52 
L 200.373138 -47.52 
L 202.412426 -47.52 
L 204.451713 -47.52 
L 206.491 -47.52 
L 208.530288 -47.52 
L 210.569575 -47.52 
L 212.608862 -47.52 
L 214.64815 -47.52 
L 216.687437 -47.52 
L 218.726725 -47.52 
L 220.766012 -47.52 
L 222.805299 -47.52 
L 224.844587 -47.52 
L 226.883874 -47.52 
L 228.923161 -47.52 
L 230.962449 -47.52 
L 233.001736 -47.52 
L 235.041023 -47.52 
L 237.080311 -47.52 
L 239.119598 -47.52 
L 241.158885 -47.52 
L 243.198173 -47.52 
L 245.23746 -47.52 
L 247.276747 -47.52 
L 249.316035 -47.52 
L 251.355322 -47.52 
L 253.394609 -47.52 
L 255.433897 -47.52 
L 257.473184 -47.52 
L 259.512471 -47.52 
L 261.551759 -47.52 
L 263.591046 -47.52 
L 265.630333 -47.52 
L 267.669621 -47.52 
L 269.708908 -47.52 
L 271.748196 -47.52 
L 273.787483 -47.52 
L 275.82677 -47.52 
L 277.866058 -47.52 
L 279.905345 -47.52 
L 281.944632 -47.52 
L 283.98392 -47.52 
L 286.023207 -47.52 
L 288.062494 -47.52 
L 290.101782 -47.52 
L 292.141069 -47.52 
L 294.180356 -47.52 
L 296.219644 -47.52 
L 298.258931 -47.52 
L 300.298218 -47.52 
L 302.337506 -47.52 
L 304.376793 -47.52 
L 306.41608 -47.52 
L 308.455368 -47.52 
L 310.494655 -47.52 
L 312.533942 -47.52 
L 314.57323 -47.52 
L 316.612517 -47.52 
L 318.651804 -47.52 
L 320.691092 -47.52 
L 322.730379 -47.52 
L 324.769667 -47.52 
L 326.808954 -47.52 
L 328.848241 -47.52 
L 330.887529 -47.52 
L 332.926816 -47.52 
L 334.966103 -47.52 
L 337.005391 -47.52 
L 339.044678 -47.52 
L 341.083965 -47.52 
L 343.123253 -47.52 
L 345.16254 -47.52 
L 347.201827 -47.52 
L 349.241115 -47.52 
L 351.280402 -47.52 
L 353.319689 -47.52 
L 355.358977 -47.52 
L 357.398264 -47.52 
L 359.437551 -47.52 
L 361.476839 -47.52 
L 363.516126 -47.52 
L 365.555413 -47.52 
L 367.594701 -47.52 
L 369.633988 -47.52 
L 371.673275 -47.52 
L 373.712563 -47.52 
L 375.75185 -47.52 
L 377.791138 -47.52 
L 379.830425 -47.52 
L 381.869712 -47.52 
L 383.909 -47.52 
L 385.948287 -47.52 
L 387.987574 -47.52 
L 390.026862 -47.52 
L 392.066149 -47.52 
L 394.105436 -47.52 
L 396.144724 -47.52 
L 398.184011 -47.52 
L 400.223298 -47.52 
L 402.262586 -47.52 
L 404.301873 -47.52 
L 406.34116 -47.52 
L 408.380448 -47.52 
L 410.419735 -47.52 
L 412.459022 -47.52 
L 414.49831 -47.52 
L 416.537597 -47.52 
L 418.576884 -47.52 
L 420.616172 -47.52 
L 422.655459 -47.52 
L 424.694746 -47.52 
L 426.734034 -47.52 
L 428.773321 -47.52 
L 430.812608 -47.52 
L 432.851896 -47.52 
L 434.891183 -47.52 
L 436.930471 -47.52 
L 438.969758 -47.52 
L 441.009045 -47.52 
L 443.048333 -47.52 
L 445.08762 -47.52 
L 447.126907 -47.52 
L 449.166195 -47.52 
L 451.205482 -47.52 
L 453.244769 -47.52 
L 455.284057 -47.52 
L 457.323344 -47.52 
L 459.362631 -47.52 
L 461.401919 -47.52 
L 463.441206 -47.52 
L 465.480493 -47.52 
L 467.519781 -47.52 
L 469.559068 -47.52 
L 471.598355 -47.52 
L 473.637643 -47.52 
L 475.67693 -47.52 
L 477.716217 -47.52 
L 479.755505 -47.52 
L 481.794792 -47.52 
L 483.834079 -47.52 
L 485.873367 -47.52 
L 487.912654 -47.52 
L 489.951942 -47.52 
L 491.991229 -47.52 
L 494.030516 -47.52 
L 496.069804 -47.52 
L 498.109091 -47.52 
L 498.109091 -47.624819 
L 498.109091 -47.624819 
L 496.069804 -47.64557 
L 494.030516 -47.66992 
L 491.991229 -47.698387 
L 489.951942 -47.731548 
L 487.912654 -47.770034 
L 485.873367 -47.814536 
L 483.834079 -47.865808 
L 481.794792 -47.924663 
L 479.755505 -47.99198 
L 477.716217 -48.068695 
L 475.67693 -48.155803 
L 473.637643 -48.254359 
L 471.598355 -48.365464 
L 469.559068 -48.490269 
L 467.519781 -48.629965 
L 465.480493 -48.785771 
L 463.441206 -48.958934 
L 461.401919 -49.150708 
L 459.362631 -49.36235 
L 457.323344 -49.595106 
L 455.284057 -49.850195 
L 453.244769 -50.128795 
L 451.205482 -50.432033 
L 449.166195 -50.760962 
L 447.126907 -51.116551 
L 445.08762 -51.499667 
L 443.048333 -51.91106 
L 441.009045 -52.351349 
L 438.969758 -52.821003 
L 436.930471 -53.320335 
L 434.891183 -53.849482 
L 432.851896 -54.408397 
L 430.812608 -54.99684 
L 428.773321 -55.614363 
L 426.734034 -56.26031 
L 424.694746 -56.933805 
L 422.655459 -57.633749 
L 420.616172 -58.358819 
L 418.576884 -59.107464 
L 416.537597 -59.877904 
L 414.49831 -60.668135 
L 412.459022 -61.47593 
L 410.419735 -62.298843 
L 408.380448 -63.134216 
L 406.34116 -63.979188 
L 404.301873 -64.830702 
L 402.262586 -65.685523 
L 400.223298 -66.540244 
L 398.184011 -67.391309 
L 396.144724 -68.235029 
L 394.105436 -69.067605 
L 392.066149 -69.885151 
L 390.026862 -70.683726 
L 387.987574 -71.459359 
L 385.948287 -72.208088 
L 383.909 -72.925998 
L 381.869712 -73.609258 
L 379.830425 -74.254169 
L 377.791138 -74.857209 
L 375.75185 -75.415083 
L 373.712563 -75.924772 
L 371.673275 -76.383588 
L 369.633988 -76.789227 
L 367.594701 -77.139816 
L 365.555413 -77.433974 
L 363.516126 -77.670852 
L 361.476839 -77.850186 
L 359.437551 -77.972334 
L 357.398264 -78.038317 
L 355.358977 -78.049848 
L 353.319689 -78.009356 
L 351.280402 -77.920002 
L 349.241115 -77.785688 
L 347.201827 -77.611056 
L 345.16254 -77.401475 
L 343.123253 -77.163023 
L 341.083965 -76.902457 
L 339.044678 -76.627172 
L 337.005391 -76.34515 
L 334.966103 -76.064908 
L 332.926816 -75.795425 
L 330.887529 -75.54607 
L 328.848241 -75.32652 
L 326.808954 -75.146676 
L 324.769667 -75.016562 
L 322.730379 -74.946238 
L 320.691092 -74.945693 
L 318.651804 -75.024746 
L 316.612517 -75.192941 
L 314.57323 -75.459447 
L 312.533942 -75.832953 
L 310.494655 -76.321568 
L 308.455368 -76.932723 
L 306.41608 -77.673078 
L 304.376793 -78.54843 
L 302.337506 -79.563627 
L 300.298218 -80.722487 
L 298.258931 -82.027726 
L 296.219644 -83.480888 
L 294.180356 -85.082283 
L 292.141069 -86.830937 
L 290.101782 -88.724547 
L 288.062494 -90.759444 
L 286.023207 -92.930568 
L 283.98392 -95.231455 
L 281.944632 -97.654231 
L 279.905345 -100.189626 
L 277.866058 -102.826991 
L 275.82677 -105.55434 
L 273.787483 -108.358396 
L 271.748196 -111.224662 
L 269.708908 -114.137503 
L 267.669621 -117.080241 
L 265.630333 -120.035274 
L 263.591046 -122.984206 
L 261.551759 -125.907992 
L 259.512471 -128.787096 
L 257.473184 -131.601672 
L 255.433897 -134.331741 
L 253.394609 -136.95739 
L 251.355322 -139.458973 
L 249.316035 -141.817319 
L 247.276747 -144.013936 
L 245.23746 -146.031221 
L 243.198173 -147.852662 
L 241.158885 -149.463029 
L 239.119598 -150.848556 
L 237.080311 -151.99711 
L 235.041023 -152.898341 
L 233.001736 -153.543806 
L 230.962449 -153.927077 
L 228.923161 -154.043823 
L 226.883874 -153.89186 
L 224.844587 -153.471173 
L 222.805299 -152.783922 
L 220.766012 -151.834398 
L 218.726725 -150.628973 
L 216.687437 -149.176006 
L 214.64815 -147.485734 
L 212.608862 -145.570136 
L 210.569575 -143.442778 
L 208.530288 -141.118637 
L 206.491 -138.613915 
L 204.451713 -135.94584 
L 202.412426 -133.132454 
L 200.373138 -130.19241 
L 198.333851 -127.144751 
L 196.294564 -124.008706 
L 194.255276 -120.80348 
L 192.215989 -117.548066 
L 190.176702 -114.261052 
L 188.137414 -110.960455 
L 186.098127 -107.663563 
L 184.05884 -104.386797 
L 182.019552 -101.145587 
L 179.980265 -97.954271 
L 177.940978 -94.826015 
L 175.90169 -91.772744 
L 173.862403 -88.8051 
L 171.823116 -85.932416 
L 169.783828 -83.162707 
L 167.744541 -80.502677 
L 165.705254 -77.957745 
L 163.665966 -75.53208 
L 161.626679 -73.228652 
L 159.587392 -71.049292 
L 157.548104 -68.994764 
L 155.508817 -67.064839 
L 153.469529 -65.25838 
L 151.430242 -63.573431 
L 149.390955 -62.007302 
L 147.351667 -60.556667 
L 145.31238 -59.217645 
L 143.273093 -57.985901 
L 141.233805 -56.85672 
L 139.194518 -55.825101 
L 137.155231 -54.885828 
L 135.115943 -54.033546 
L 133.076656 -53.262828 
L 131.037369 -52.568237 
L 128.998081 -51.944381 
L 126.958794 -51.385959 
L 124.919507 -50.887807 
L 122.880219 -50.444932 
L 120.840932 -50.052539 
L 118.801645 -49.70606 
L 116.762357 -49.401164 
L 114.72307 -49.133778 
L 112.683783 -48.90009 
L 110.644495 -48.696551 
L 108.605208 -48.519881 
L 106.565921 -48.367059 
L 104.526633 -48.235322 
L 102.487346 -48.122151 
L 100.448058 -48.025267 
L 98.408771 -47.942612 
L 96.369484 -47.87234 
L 94.330196 -47.812805 
L 92.290909 -47.76254 
z
" style="stroke: #fa8072"/>
    </defs>
    <g clip-path="url(#p16e93ecf13)">
     <use xlink:href="#mbbc1141cd6" x="0" y="432" style="fill: #fa8072; fill-opacity: 0.25; stroke: #fa8072"/>
    </g>
   </g>
   <g id="matplotlib.axis_1">
    <g id="xtick_1">
     <g id="line2d_1">
      <defs>
       <path id="m75f79abb84" d="M 0 0 
L 0 3.5 
" style="stroke: #000000; stroke-width: 0.8"/>
      </defs>
      <g>
       <use xlink:href="#m75f79abb84" x="158.844467" y="384.48" style="stroke: #000000; stroke-width: 0.8"/>
      </g>
     </g>
     <g id="text_1">
      <!-- 0 -->
      <g transform="translate(156.063998 398.653437) scale(0.1 -0.1)">
       <defs>
        <path id="Helvetica-30" d="M 1731 4475 
Q 2600 4475 2988 3759 
Q 3288 3206 3288 2244 
Q 3288 1331 3016 734 
Q 2622 -122 1728 -122 
Q 922 -122 528 578 
Q 200 1163 200 2147 
Q 200 2909 397 3456 
Q 766 4475 1731 4475 
z
M 1725 391 
Q 2163 391 2422 778 
Q 2681 1166 2681 2222 
Q 2681 2984 2493 3476 
Q 2306 3969 1766 3969 
Q 1269 3969 1039 3501 
Q 809 3034 809 2125 
Q 809 1441 956 1025 
Q 1181 391 1725 391 
z
" transform="scale(0.015625)"/>
       </defs>
       <use xlink:href="#Helvetica-30"/>
      </g>
     </g>
    </g>
    <g id="xtick_2">
     <g id="line2d_2">
      <g>
       <use xlink:href="#m75f79abb84" x="252.882766" y="384.48" style="stroke: #000000; stroke-width: 0.8"/>
      </g>
     </g>
     <g id="text_2">
      <!-- 5 -->
      <g transform="translate(250.102297 398.653437) scale(0.1 -0.1)">
       <defs>
        <path id="Helvetica-35" d="M 791 1141 
Q 847 659 1238 475 
Q 1438 381 1700 381 
Q 2200 381 2440 700 
Q 2681 1019 2681 1406 
Q 2681 1875 2395 2131 
Q 2109 2388 1709 2388 
Q 1419 2388 1211 2275 
Q 1003 2163 856 1963 
L 369 1991 
L 709 4400 
L 3034 4400 
L 3034 3856 
L 1131 3856 
L 941 2613 
Q 1097 2731 1238 2791 
Q 1488 2894 1816 2894 
Q 2431 2894 2859 2497 
Q 3288 2100 3288 1491 
Q 3288 856 2895 371 
Q 2503 -113 1644 -113 
Q 1097 -113 676 195 
Q 256 503 206 1141 
L 791 1141 
z
" transform="scale(0.015625)"/>
       </defs>
       <use xlink:href="#Helvetica-35"/>
      </g>
     </g>
    </g>
    <g id="xtick_3">
     <g id="line2d_3">
      <g>
       <use xlink:href="#m75f79abb84" x="346.921064" y="384.48" style="stroke: #000000; stroke-width: 0.8"/>
      </g>
     </g>
     <g id="text_3">
      <!-- 10 -->
      <g transform="translate(341.360127 398.653437) scale(0.1 -0.1)">
       <defs>
        <path id="Helvetica-31" d="M 613 3169 
L 613 3600 
Q 1222 3659 1462 3798 
Q 1703 3938 1822 4456 
L 2266 4456 
L 2266 0 
L 1666 0 
L 1666 3169 
L 613 3169 
z
" transform="scale(0.015625)"/>
       </defs>
       <use xlink:href="#Helvetica-31"/>
       <use xlink:href="#Helvetica-30" x="55.615234"/>
      </g>
     </g>
    </g>
    <g id="xtick_4">
     <g id="line2d_4">
      <g>
       <use xlink:href="#m75f79abb84" x="440.959363" y="384.48" style="stroke: #000000; stroke-width: 0.8"/>
      </g>
     </g>
     <g id="text_4">
      <!-- 15 -->
      <g transform="translate(435.398425 398.653437) scale(0.1 -0.1)">
       <use xlink:href="#Helvetica-31"/>
       <use xlink:href="#Helvetica-35" x="55.615234"/>
      </g>
     </g>
    </g>
    <g id="text_5">
     <!-- Lactate -->
     <g transform="translate(278.8 411.91125) scale(0.1 -0.1)">
      <defs>
       <path id="Helvetica-4c" d="M 488 4591 
L 1109 4591 
L 1109 547 
L 3434 547 
L 3434 0 
L 488 0 
L 488 4591 
z
" transform="scale(0.015625)"/>
       <path id="Helvetica-61" d="M 844 891 
Q 844 647 1022 506 
Q 1200 366 1444 366 
Q 1741 366 2019 503 
Q 2488 731 2488 1250 
L 2488 1703 
Q 2384 1638 2221 1594 
Q 2059 1550 1903 1531 
L 1563 1488 
Q 1256 1447 1103 1359 
Q 844 1213 844 891 
z
M 2206 2028 
Q 2400 2053 2466 2191 
Q 2503 2266 2503 2406 
Q 2503 2694 2298 2823 
Q 2094 2953 1713 2953 
Q 1272 2953 1088 2716 
Q 984 2584 953 2325 
L 428 2325 
Q 444 2944 830 3186 
Q 1216 3428 1725 3428 
Q 2316 3428 2684 3203 
Q 3050 2978 3050 2503 
L 3050 575 
Q 3050 488 3086 434 
Q 3122 381 3238 381 
Q 3275 381 3322 386 
Q 3369 391 3422 400 
L 3422 -16 
Q 3291 -53 3222 -62 
Q 3153 -72 3034 -72 
Q 2744 -72 2613 134 
Q 2544 244 2516 444 
Q 2344 219 2022 53 
Q 1700 -113 1313 -113 
Q 847 -113 551 170 
Q 256 453 256 878 
Q 256 1344 547 1600 
Q 838 1856 1309 1916 
L 2206 2028 
z
M 1741 3428 
L 1741 3428 
z
" transform="scale(0.015625)"/>
       <path id="Helvetica-63" d="M 1703 3444 
Q 2269 3444 2623 3169 
Q 2978 2894 3050 2222 
L 2503 2222 
Q 2453 2531 2275 2736 
Q 2097 2941 1703 2941 
Q 1166 2941 934 2416 
Q 784 2075 784 1575 
Q 784 1072 996 728 
Q 1209 384 1666 384 
Q 2016 384 2220 598 
Q 2425 813 2503 1184 
L 3050 1184 
Q 2956 519 2581 211 
Q 2206 -97 1622 -97 
Q 966 -97 575 383 
Q 184 863 184 1581 
Q 184 2463 612 2953 
Q 1041 3444 1703 3444 
z
M 1616 3428 
L 1616 3428 
z
" transform="scale(0.015625)"/>
       <path id="Helvetica-74" d="M 525 4281 
L 1094 4281 
L 1094 3347 
L 1628 3347 
L 1628 2888 
L 1094 2888 
L 1094 703 
Q 1094 528 1213 469 
Q 1278 434 1431 434 
Q 1472 434 1519 436 
Q 1566 438 1628 444 
L 1628 0 
Q 1531 -28 1426 -40 
Q 1322 -53 1200 -53 
Q 806 -53 665 148 
Q 525 350 525 672 
L 525 2888 
L 72 2888 
L 72 3347 
L 525 3347 
L 525 4281 
z
" transform="scale(0.015625)"/>
       <path id="Helvetica-65" d="M 1806 3422 
Q 2163 3422 2497 3255 
Q 2831 3088 3006 2822 
Q 3175 2569 3231 2231 
Q 3281 2000 3281 1494 
L 828 1494 
Q 844 984 1069 676 
Q 1294 369 1766 369 
Q 2206 369 2469 659 
Q 2619 828 2681 1050 
L 3234 1050 
Q 3213 866 3089 639 
Q 2966 413 2813 269 
Q 2556 19 2178 -69 
Q 1975 -119 1719 -119 
Q 1094 -119 659 336 
Q 225 791 225 1609 
Q 225 2416 662 2919 
Q 1100 3422 1806 3422 
z
M 2703 1941 
Q 2669 2306 2544 2525 
Q 2313 2931 1772 2931 
Q 1384 2931 1121 2651 
Q 859 2372 844 1941 
L 2703 1941 
z
M 1753 3428 
L 1753 3428 
z
" transform="scale(0.015625)"/>
      </defs>
      <use xlink:href="#Helvetica-4c"/>
      <use xlink:href="#Helvetica-61" x="55.615234"/>
      <use xlink:href="#Helvetica-63" x="111.230469"/>
      <use xlink:href="#Helvetica-74" x="161.230469"/>
      <use xlink:href="#Helvetica-61" x="189.013672"/>
      <use xlink:href="#Helvetica-74" x="244.628906"/>
      <use xlink:href="#Helvetica-65" x="272.412109"/>
     </g>
    </g>
   </g>
   <g id="matplotlib.axis_2">
    <g id="ytick_1">
     <g id="line2d_5">
      <defs>
       <path id="mcf395795f4" d="M 0 0 
L -3.5 0 
" style="stroke: #000000; stroke-width: 0.8"/>
      </defs>
      <g>
       <use xlink:href="#mcf395795f4" x="72" y="384.48" style="stroke: #000000; stroke-width: 0.8"/>
      </g>
     </g>
     <g id="text_6">
      <!-- 0.0 -->
      <g transform="translate(51.1 388.066719) scale(0.1 -0.1)">
       <defs>
        <path id="Helvetica-2e" d="M 547 681 
L 1200 681 
L 1200 0 
L 547 0 
L 547 681 
z
" transform="scale(0.015625)"/>
       </defs>
       <use xlink:href="#Helvetica-30"/>
       <use xlink:href="#Helvetica-2e" x="55.615234"/>
       <use xlink:href="#Helvetica-30" x="83.398438"/>
      </g>
     </g>
    </g>
    <g id="ytick_2">
     <g id="line2d_6">
      <g>
       <use xlink:href="#mcf395795f4" x="72" y="310.815294" style="stroke: #000000; stroke-width: 0.8"/>
      </g>
     </g>
     <g id="text_7">
      <!-- 0.1 -->
      <g transform="translate(51.1 314.402013) scale(0.1 -0.1)">
       <use xlink:href="#Helvetica-30"/>
       <use xlink:href="#Helvetica-2e" x="55.615234"/>
       <use xlink:href="#Helvetica-31" x="83.398438"/>
      </g>
     </g>
    </g>
    <g id="ytick_3">
     <g id="line2d_7">
      <g>
       <use xlink:href="#mcf395795f4" x="72" y="237.150589" style="stroke: #000000; stroke-width: 0.8"/>
      </g>
     </g>
     <g id="text_8">
      <!-- 0.2 -->
      <g transform="translate(51.1 240.737307) scale(0.1 -0.1)">
       <defs>
        <path id="Helvetica-32" d="M 200 0 
Q 231 578 439 1006 
Q 647 1434 1250 1784 
L 1850 2131 
Q 2253 2366 2416 2531 
Q 2672 2791 2672 3125 
Q 2672 3516 2437 3745 
Q 2203 3975 1813 3975 
Q 1234 3975 1013 3538 
Q 894 3303 881 2888 
L 309 2888 
Q 319 3472 525 3841 
Q 891 4491 1816 4491 
Q 2584 4491 2939 4075 
Q 3294 3659 3294 3150 
Q 3294 2613 2916 2231 
Q 2697 2009 2131 1694 
L 1703 1456 
Q 1397 1288 1222 1134 
Q 909 863 828 531 
L 3272 531 
L 3272 0 
L 200 0 
z
" transform="scale(0.015625)"/>
       </defs>
       <use xlink:href="#Helvetica-30"/>
       <use xlink:href="#Helvetica-2e" x="55.615234"/>
       <use xlink:href="#Helvetica-32" x="83.398438"/>
      </g>
     </g>
    </g>
    <g id="ytick_4">
     <g id="line2d_8">
      <g>
       <use xlink:href="#mcf395795f4" x="72" y="163.485883" style="stroke: #000000; stroke-width: 0.8"/>
      </g>
     </g>
     <g id="text_9">
      <!-- 0.3 -->
      <g transform="translate(51.1 167.072602) scale(0.1 -0.1)">
       <defs>
        <path id="Helvetica-33" d="M 1663 -122 
Q 869 -122 511 314 
Q 153 750 153 1375 
L 741 1375 
Q 778 941 903 744 
Q 1122 391 1694 391 
Q 2138 391 2406 628 
Q 2675 866 2675 1241 
Q 2675 1703 2392 1887 
Q 2109 2072 1606 2072 
Q 1550 2072 1492 2070 
Q 1434 2069 1375 2066 
L 1375 2563 
Q 1463 2553 1522 2550 
Q 1581 2547 1650 2547 
Q 1966 2547 2169 2647 
Q 2525 2822 2525 3272 
Q 2525 3606 2287 3787 
Q 2050 3969 1734 3969 
Q 1172 3969 956 3594 
Q 838 3388 822 3006 
L 266 3006 
Q 266 3506 466 3856 
Q 809 4481 1675 4481 
Q 2359 4481 2734 4176 
Q 3109 3872 3109 3294 
Q 3109 2881 2888 2625 
Q 2750 2466 2531 2375 
Q 2884 2278 3082 2001 
Q 3281 1725 3281 1325 
Q 3281 684 2859 281 
Q 2438 -122 1663 -122 
z
" transform="scale(0.015625)"/>
       </defs>
       <use xlink:href="#Helvetica-30"/>
       <use xlink:href="#Helvetica-2e" x="55.615234"/>
       <use xlink:href="#Helvetica-33" x="83.398438"/>
      </g>
     </g>
    </g>
    <g id="ytick_5">
     <g id="line2d_9">
      <g>
       <use xlink:href="#mcf395795f4" x="72" y="89.821177" style="stroke: #000000; stroke-width: 0.8"/>
      </g>
     </g>
     <g id="text_10">
      <!-- 0.4 -->
      <g transform="translate(51.1 93.407896) scale(0.1 -0.1)">
       <defs>
        <path id="Helvetica-34" d="M 2116 1584 
L 2116 3613 
L 681 1584 
L 2116 1584 
z
M 2125 0 
L 2125 1094 
L 163 1094 
L 163 1644 
L 2213 4488 
L 2688 4488 
L 2688 1584 
L 3347 1584 
L 3347 1094 
L 2688 1094 
L 2688 0 
L 2125 0 
z
" transform="scale(0.015625)"/>
       </defs>
       <use xlink:href="#Helvetica-30"/>
       <use xlink:href="#Helvetica-2e" x="55.615234"/>
       <use xlink:href="#Helvetica-34" x="83.398438"/>
      </g>
     </g>
    </g>
    <g id="text_11">
     <!-- Density -->
     <g transform="translate(44.95625 234.831875) rotate(-90) scale(0.1 -0.1)">
      <defs>
       <path id="Helvetica-44" d="M 2250 531 
Q 2566 531 2769 597 
Q 3131 719 3363 1066 
Q 3547 1344 3628 1778 
Q 3675 2038 3675 2259 
Q 3675 3113 3336 3584 
Q 2997 4056 2244 4056 
L 1141 4056 
L 1141 531 
L 2250 531 
z
M 516 4591 
L 2375 4591 
Q 3322 4591 3844 3919 
Q 4309 3313 4309 2366 
Q 4309 1634 4034 1044 
Q 3550 0 2369 0 
L 516 0 
L 516 4591 
z
" transform="scale(0.015625)"/>
       <path id="Helvetica-6e" d="M 413 3347 
L 947 3347 
L 947 2872 
Q 1184 3166 1450 3294 
Q 1716 3422 2041 3422 
Q 2753 3422 3003 2925 
Q 3141 2653 3141 2147 
L 3141 0 
L 2569 0 
L 2569 2109 
Q 2569 2416 2478 2603 
Q 2328 2916 1934 2916 
Q 1734 2916 1606 2875 
Q 1375 2806 1200 2600 
Q 1059 2434 1017 2257 
Q 975 2081 975 1753 
L 975 0 
L 413 0 
L 413 3347 
z
M 1734 3428 
L 1734 3428 
z
" transform="scale(0.015625)"/>
       <path id="Helvetica-73" d="M 747 1050 
Q 772 769 888 619 
Q 1100 347 1625 347 
Q 1938 347 2175 483 
Q 2413 619 2413 903 
Q 2413 1119 2222 1231 
Q 2100 1300 1741 1391 
L 1294 1503 
Q 866 1609 663 1741 
Q 300 1969 300 2372 
Q 300 2847 642 3140 
Q 984 3434 1563 3434 
Q 2319 3434 2653 2991 
Q 2863 2709 2856 2384 
L 2325 2384 
Q 2309 2575 2191 2731 
Q 1997 2953 1519 2953 
Q 1200 2953 1036 2831 
Q 872 2709 872 2509 
Q 872 2291 1088 2159 
Q 1213 2081 1456 2022 
L 1828 1931 
Q 2434 1784 2641 1647 
Q 2969 1431 2969 969 
Q 2969 522 2630 197 
Q 2291 -128 1597 -128 
Q 850 -128 539 211 
Q 228 550 206 1050 
L 747 1050 
z
M 1578 3428 
L 1578 3428 
z
" transform="scale(0.015625)"/>
       <path id="Helvetica-69" d="M 413 3331 
L 984 3331 
L 984 0 
L 413 0 
L 413 3331 
z
M 413 4591 
L 984 4591 
L 984 3953 
L 413 3953 
L 413 4591 
z
" transform="scale(0.015625)"/>
       <path id="Helvetica-79" d="M 2503 3347 
L 3125 3347 
Q 3006 3025 2597 1878 
Q 2291 1016 2084 472 
Q 1597 -809 1397 -1090 
Q 1197 -1372 709 -1372 
Q 591 -1372 527 -1362 
Q 463 -1353 369 -1328 
L 369 -816 
Q 516 -856 581 -865 
Q 647 -875 697 -875 
Q 853 -875 926 -823 
Q 1000 -772 1050 -697 
Q 1066 -672 1162 -440 
Q 1259 -209 1303 -97 
L 66 3347 
L 703 3347 
L 1600 622 
L 2503 3347 
z
M 1597 3428 
L 1597 3428 
z
" transform="scale(0.015625)"/>
      </defs>
      <use xlink:href="#Helvetica-44"/>
      <use xlink:href="#Helvetica-65" x="72.216797"/>
      <use xlink:href="#Helvetica-6e" x="127.832031"/>
      <use xlink:href="#Helvetica-73" x="183.447266"/>
      <use xlink:href="#Helvetica-69" x="233.447266"/>
      <use xlink:href="#Helvetica-74" x="255.664062"/>
      <use xlink:href="#Helvetica-79" x="283.447266"/>
     </g>
    </g>
   </g>
   <g id="patch_3">
    <path d="M 72 384.48 
L 72 51.84 
" style="fill: none; stroke: #000000; stroke-width: 0.8; stroke-linejoin: miter; stroke-linecap: square"/>
   </g>
   <g id="patch_4">
    <path d="M 518.4 384.48 
L 518.4 51.84 
" style="fill: none; stroke: #000000; stroke-width: 0.8; stroke-linejoin: miter; stroke-linecap: square"/>
   </g>
   <g id="patch_5">
    <path d="M 72 384.48 
L 518.4 384.48 
" style="fill: none; stroke: #000000; stroke-width: 0.8; stroke-linejoin: miter; stroke-linecap: square"/>
   </g>
   <g id="patch_6">
    <path d="M 72 51.84 
L 518.4 51.84 
" style="fill: none; stroke: #000000; stroke-width: 0.8; stroke-linejoin: miter; stroke-linecap: square"/>
   </g>
   <g id="legend_1">
    <g id="patch_7">
     <path d="M 434.373437 88.355625 
L 511.4 88.355625 
Q 513.4 88.355625 513.4 86.355625 
L 513.4 58.84 
Q 513.4 56.84 511.4 56.84 
L 434.373437 56.84 
Q 432.373437 56.84 432.373437 58.84 
L 432.373437 86.355625 
Q 432.373437 88.355625 434.373437 88.355625 
z
" style="fill: #ffffff; opacity: 0.8; stroke: #cccccc; stroke-linejoin: miter"/>
    </g>
    <g id="patch_8">
     <path d="M 436.373437 68.013437 
L 456.373437 68.013437 
L 456.373437 61.013437 
L 436.373437 61.013437 
z
" style="fill: #87ceeb; fill-opacity: 0.25; stroke: #87ceeb; stroke-linejoin: miter"/>
    </g>
    <g id="text_12">
     <!-- Alive -->
     <g transform="translate(464.373437 68.013437) scale(0.1 -0.1)">
      <defs>
       <path id="Helvetica-41" d="M 2844 1881 
L 2147 3909 
L 1406 1881 
L 2844 1881 
z
M 1822 4591 
L 2525 4591 
L 4191 0 
L 3509 0 
L 3044 1375 
L 1228 1375 
L 731 0 
L 94 0 
L 1822 4591 
z
" transform="scale(0.015625)"/>
       <path id="Helvetica-6c" d="M 428 4591 
L 991 4591 
L 991 0 
L 428 0 
L 428 4591 
z
" transform="scale(0.015625)"/>
       <path id="Helvetica-76" d="M 688 3347 
L 1581 622 
L 2516 3347 
L 3131 3347 
L 1869 0 
L 1269 0 
L 34 3347 
L 688 3347 
z
" transform="scale(0.015625)"/>
      </defs>
      <use xlink:href="#Helvetica-41"/>
      <use xlink:href="#Helvetica-6c" x="66.699219"/>
      <use xlink:href="#Helvetica-69" x="88.916016"/>
      <use xlink:href="#Helvetica-76" x="111.132812"/>
      <use xlink:href="#Helvetica-65" x="161.132812"/>
     </g>
    </g>
    <g id="patch_9">
     <path d="M 436.373437 82.27125 
L 456.373437 82.27125 
L 456.373437 75.27125 
L 436.373437 75.27125 
z
" style="fill: #fa8072; fill-opacity: 0.25; stroke: #fa8072; stroke-linejoin: miter"/>
    </g>
    <g id="text_13">
     <!-- Deceased -->
     <g transform="translate(464.373437 82.27125) scale(0.1 -0.1)">
      <defs>
       <path id="Helvetica-64" d="M 769 1634 
Q 769 1097 997 734 
Q 1225 372 1728 372 
Q 2119 372 2370 708 
Q 2622 1044 2622 1672 
Q 2622 2306 2362 2611 
Q 2103 2916 1722 2916 
Q 1297 2916 1033 2591 
Q 769 2266 769 1634 
z
M 1616 3406 
Q 2000 3406 2259 3244 
Q 2409 3150 2600 2916 
L 2600 4606 
L 3141 4606 
L 3141 0 
L 2634 0 
L 2634 466 
Q 2438 156 2169 18 
Q 1900 -119 1553 -119 
Q 994 -119 584 351 
Q 175 822 175 1603 
Q 175 2334 548 2870 
Q 922 3406 1616 3406 
z
" transform="scale(0.015625)"/>
      </defs>
      <use xlink:href="#Helvetica-44"/>
      <use xlink:href="#Helvetica-65" x="72.216797"/>
      <use xlink:href="#Helvetica-63" x="127.832031"/>
      <use xlink:href="#Helvetica-65" x="177.832031"/>
      <use xlink:href="#Helvetica-61" x="233.447266"/>
      <use xlink:href="#Helvetica-73" x="289.0625"/>
      <use xlink:href="#Helvetica-65" x="339.0625"/>
      <use xlink:href="#Helvetica-64" x="394.677734"/>
     </g>
    </g>
   </g>
  </g>
 </g>
 <defs>
  <clipPath id="p16e93ecf13">
   <rect x="72" y="51.84" width="446.4" height="332.64"/>
  </clipPath>
 </defs>
</svg>
