<?xml version="1.0" encoding="utf-8" standalone="no"?>
<!DOCTYPE svg PUBLIC "-//W3C//DTD SVG 1.1//EN"
  "http://www.w3.org/Graphics/SVG/1.1/DTD/svg11.dtd">
<svg xmlns:xlink="http://www.w3.org/1999/xlink" width="576pt" height="432pt" viewBox="0 0 576 432" xmlns="http://www.w3.org/2000/svg" version="1.1">
 <metadata>
  <rdf:RDF xmlns:dc="http://purl.org/dc/elements/1.1/" xmlns:cc="http://creativecommons.org/ns#" xmlns:rdf="http://www.w3.org/1999/02/22-rdf-syntax-ns#">
   <cc:Work>
    <dc:type rdf:resource="http://purl.org/dc/dcmitype/StillImage"/>
    <dc:date>2023-11-06T21:01:31.425343</dc:date>
    <dc:format>image/svg+xml</dc:format>
    <dc:creator>
     <cc:Agent>
      <dc:title>Matplotlib v3.7.2, https://matplotlib.org/</dc:title>
     </cc:Agent>
    </dc:creator>
   </cc:Work>
  </rdf:RDF>
 </metadata>
 <defs>
  <style type="text/css">*{stroke-linejoin: round; stroke-linecap: butt}</style>
 </defs>
 <g id="figure_1">
  <g id="patch_1">
   <path d="M 0 432 
L 576 432 
L 576 0 
L 0 0 
z
" style="fill: #ffffff"/>
  </g>
  <g id="axes_1">
   <g id="patch_2">
    <path d="M 72 384.48 
L 518.4 384.48 
L 518.4 51.84 
L 72 51.84 
z
" style="fill: #ffffff"/>
   </g>
   <g id="PolyCollection_1">
    <defs>
     <path id="m7134842ae6" d="M 109.170011 -48.002949 
L 109.170011 -47.52 
L 111.124479 -47.52 
L 113.078946 -47.52 
L 115.033414 -47.52 
L 116.987882 -47.52 
L 118.94235 -47.52 
L 120.896817 -47.52 
L 122.851285 -47.52 
L 124.805753 -47.52 
L 126.760221 -47.52 
L 128.714688 -47.52 
L 130.669156 -47.52 
L 132.623624 -47.52 
L 134.578092 -47.52 
L 136.532559 -47.52 
L 138.487027 -47.52 
L 140.441495 -47.52 
L 142.395963 -47.52 
L 144.35043 -47.52 
L 146.304898 -47.52 
L 148.259366 -47.52 
L 150.213834 -47.52 
L 152.168301 -47.52 
L 154.122769 -47.52 
L 156.077237 -47.52 
L 158.031704 -47.52 
L 159.986172 -47.52 
L 161.94064 -47.52 
L 163.895108 -47.52 
L 165.849575 -47.52 
L 167.804043 -47.52 
L 169.758511 -47.52 
L 171.712979 -47.52 
L 173.667446 -47.52 
L 175.621914 -47.52 
L 177.576382 -47.52 
L 179.53085 -47.52 
L 181.485317 -47.52 
L 183.439785 -47.52 
L 185.394253 -47.52 
L 187.348721 -47.52 
L 189.303188 -47.52 
L 191.257656 -47.52 
L 193.212124 -47.52 
L 195.166591 -47.52 
L 197.121059 -47.52 
L 199.075527 -47.52 
L 201.029995 -47.52 
L 202.984462 -47.52 
L 204.93893 -47.52 
L 206.893398 -47.52 
L 208.847866 -47.52 
L 210.802333 -47.52 
L 212.756801 -47.52 
L 214.711269 -47.52 
L 216.665737 -47.52 
L 218.620204 -47.52 
L 220.574672 -47.52 
L 222.52914 -47.52 
L 224.483608 -47.52 
L 226.438075 -47.52 
L 228.392543 -47.52 
L 230.347011 -47.52 
L 232.301479 -47.52 
L 234.255946 -47.52 
L 236.210414 -47.52 
L 238.164882 -47.52 
L 240.119349 -47.52 
L 242.073817 -47.52 
L 244.028285 -47.52 
L 245.982753 -47.52 
L 247.93722 -47.52 
L 249.891688 -47.52 
L 251.846156 -47.52 
L 253.800624 -47.52 
L 255.755091 -47.52 
L 257.709559 -47.52 
L 259.664027 -47.52 
L 261.618495 -47.52 
L 263.572962 -47.52 
L 265.52743 -47.52 
L 267.481898 -47.52 
L 269.436366 -47.52 
L 271.390833 -47.52 
L 273.345301 -47.52 
L 275.299769 -47.52 
L 277.254236 -47.52 
L 279.208704 -47.52 
L 281.163172 -47.52 
L 283.11764 -47.52 
L 285.072107 -47.52 
L 287.026575 -47.52 
L 288.981043 -47.52 
L 290.935511 -47.52 
L 292.889978 -47.52 
L 294.844446 -47.52 
L 296.798914 -47.52 
L 298.753382 -47.52 
L 300.707849 -47.52 
L 302.662317 -47.52 
L 304.616785 -47.52 
L 306.571253 -47.52 
L 308.52572 -47.52 
L 310.480188 -47.52 
L 312.434656 -47.52 
L 314.389124 -47.52 
L 316.343591 -47.52 
L 318.298059 -47.52 
L 320.252527 -47.52 
L 322.206994 -47.52 
L 324.161462 -47.52 
L 326.11593 -47.52 
L 328.070398 -47.52 
L 330.024865 -47.52 
L 331.979333 -47.52 
L 333.933801 -47.52 
L 335.888269 -47.52 
L 337.842736 -47.52 
L 339.797204 -47.52 
L 341.751672 -47.52 
L 343.70614 -47.52 
L 345.660607 -47.52 
L 347.615075 -47.52 
L 349.569543 -47.52 
L 351.524011 -47.52 
L 353.478478 -47.52 
L 355.432946 -47.52 
L 357.387414 -47.52 
L 359.341881 -47.52 
L 361.296349 -47.52 
L 363.250817 -47.52 
L 365.205285 -47.52 
L 367.159752 -47.52 
L 369.11422 -47.52 
L 371.068688 -47.52 
L 373.023156 -47.52 
L 374.977623 -47.52 
L 376.932091 -47.52 
L 378.886559 -47.52 
L 380.841027 -47.52 
L 382.795494 -47.52 
L 384.749962 -47.52 
L 386.70443 -47.52 
L 388.658898 -47.52 
L 390.613365 -47.52 
L 392.567833 -47.52 
L 394.522301 -47.52 
L 396.476769 -47.52 
L 398.431236 -47.52 
L 400.385704 -47.52 
L 402.340172 -47.52 
L 404.294639 -47.52 
L 406.249107 -47.52 
L 408.203575 -47.52 
L 410.158043 -47.52 
L 412.11251 -47.52 
L 414.066978 -47.52 
L 416.021446 -47.52 
L 417.975914 -47.52 
L 419.930381 -47.52 
L 421.884849 -47.52 
L 423.839317 -47.52 
L 425.793785 -47.52 
L 427.748252 -47.52 
L 429.70272 -47.52 
L 431.657188 -47.52 
L 433.611656 -47.52 
L 435.566123 -47.52 
L 437.520591 -47.52 
L 439.475059 -47.52 
L 441.429527 -47.52 
L 443.383994 -47.52 
L 445.338462 -47.52 
L 447.29293 -47.52 
L 449.247397 -47.52 
L 451.201865 -47.52 
L 453.156333 -47.52 
L 455.110801 -47.52 
L 457.065268 -47.52 
L 459.019736 -47.52 
L 460.974204 -47.52 
L 462.928672 -47.52 
L 464.883139 -47.52 
L 466.837607 -47.52 
L 468.792075 -47.52 
L 470.746543 -47.52 
L 472.70101 -47.52 
L 474.655478 -47.52 
L 476.609946 -47.52 
L 478.564414 -47.52 
L 480.518881 -47.52 
L 482.473349 -47.52 
L 484.427817 -47.52 
L 486.382284 -47.52 
L 488.336752 -47.52 
L 490.29122 -47.52 
L 492.245688 -47.52 
L 494.200155 -47.52 
L 496.154623 -47.52 
L 498.109091 -47.52 
L 498.109091 -47.660955 
L 498.109091 -47.660955 
L 496.154623 -47.697642 
L 494.200155 -47.742517 
L 492.245688 -47.797033 
L 490.29122 -47.862805 
L 488.336752 -47.941613 
L 486.382284 -48.035384 
L 484.427817 -48.146179 
L 482.473349 -48.276164 
L 480.518881 -48.42758 
L 478.564414 -48.602692 
L 476.609946 -48.80374 
L 474.655478 -49.03287 
L 472.70101 -49.292064 
L 470.746543 -49.583058 
L 468.792075 -49.907254 
L 466.837607 -50.265632 
L 464.883139 -50.65866 
L 462.928672 -51.086207 
L 460.974204 -51.547463 
L 459.019736 -52.040872 
L 457.065268 -52.564083 
L 455.110801 -53.113919 
L 453.156333 -53.686369 
L 451.201865 -54.276612 
L 449.247397 -54.879066 
L 447.29293 -55.487478 
L 445.338462 -56.095032 
L 443.383994 -56.6945 
L 441.429527 -57.278418 
L 439.475059 -57.839279 
L 437.520591 -58.369756 
L 435.566123 -58.862927 
L 433.611656 -59.312513 
L 431.657188 -59.713106 
L 429.70272 -60.060389 
L 427.748252 -60.351334 
L 425.793785 -60.584371 
L 423.839317 -60.759528 
L 421.884849 -60.878519 
L 419.930381 -60.944801 
L 417.975914 -60.963573 
L 416.021446 -60.941734 
L 414.066978 -60.887792 
L 412.11251 -60.811732 
L 410.158043 -60.724849 
L 408.203575 -60.639544 
L 406.249107 -60.569104 
L 404.294639 -60.527463 
L 402.340172 -60.528957 
L 400.385704 -60.588085 
L 398.431236 -60.71928 
L 396.476769 -60.936691 
L 394.522301 -61.254 
L 392.567833 -61.684258 
L 390.613365 -62.239756 
L 388.658898 -62.931925 
L 386.70443 -63.771268 
L 384.749962 -64.76732 
L 382.795494 -65.928632 
L 380.841027 -67.26277 
L 378.886559 -68.776335 
L 376.932091 -70.474982 
L 374.977623 -72.363437 
L 373.023156 -74.44552 
L 371.068688 -76.724143 
L 369.11422 -79.201299 
L 367.159752 -81.878035 
L 365.205285 -84.754402 
L 363.250817 -87.82939 
L 361.296349 -91.100845 
L 359.341881 -94.565381 
L 357.387414 -98.218281 
L 355.432946 -102.053401 
L 353.478478 -106.063089 
L 351.524011 -110.238112 
L 349.569543 -114.567614 
L 347.615075 -119.039102 
L 345.660607 -123.638471 
L 343.70614 -128.350066 
L 341.751672 -133.156784 
L 339.797204 -138.04023 
L 337.842736 -142.980894 
L 335.888269 -147.958381 
L 333.933801 -152.951658 
L 331.979333 -157.939336 
L 330.024865 -162.899955 
L 328.070398 -167.812286 
L 326.11593 -172.655625 
L 324.161462 -177.410083 
L 322.206994 -182.056855 
L 320.252527 -186.578473 
L 318.298059 -190.959024 
L 316.343591 -195.184356 
L 314.389124 -199.242233 
L 312.434656 -203.122476 
L 310.480188 -206.817064 
L 308.52572 -210.320213 
L 306.571253 -213.628418 
L 304.616785 -216.740478 
L 302.662317 -219.657485 
L 300.707849 -222.382796 
L 298.753382 -224.921972 
L 296.798914 -227.282692 
L 294.844446 -229.474635 
L 292.889978 -231.509341 
L 290.935511 -233.400024 
L 288.981043 -235.161373 
L 287.026575 -236.8093 
L 285.072107 -238.360677 
L 283.11764 -239.833031 
L 281.163172 -241.244225 
L 279.208704 -242.612118 
L 277.254236 -243.954219 
L 275.299769 -245.287339 
L 273.345301 -246.627252 
L 271.390833 -247.988374 
L 269.436366 -249.383472 
L 267.481898 -250.823402 
L 265.52743 -252.316893 
L 263.572962 -253.870368 
L 261.618495 -255.487824 
L 259.664027 -257.17074 
L 257.709559 -258.918043 
L 255.755091 -260.726104 
L 253.800624 -262.588762 
L 251.846156 -264.497379 
L 249.891688 -266.440905 
L 247.93722 -268.405953 
L 245.982753 -270.376877 
L 244.028285 -272.33585 
L 242.073817 -274.262936 
L 240.119349 -276.136163 
L 238.164882 -277.931596 
L 236.210414 -279.623421 
L 234.255946 -281.184047 
L 232.301479 -282.584233 
L 230.347011 -283.793261 
L 228.392543 -284.779156 
L 226.438075 -285.508973 
L 224.483608 -285.949149 
L 222.52914 -286.065938 
L 220.574672 -285.82592 
L 218.620204 -285.19659 
L 216.665737 -284.147005 
L 214.711269 -282.6485 
L 212.756801 -280.675422 
L 210.802333 -278.205898 
L 208.847866 -275.222575 
L 206.893398 -271.713332 
L 204.93893 -267.671917 
L 202.984462 -263.098493 
L 201.029995 -258.00005 
L 199.075527 -252.390679 
L 197.121059 -246.291675 
L 195.166591 -239.73146 
L 193.212124 -232.745318 
L 191.257656 -225.374947 
L 189.303188 -217.667835 
L 187.348721 -209.676467 
L 185.394253 -201.457398 
L 183.439785 -193.070214 
L 181.485317 -184.576402 
L 179.53085 -176.038194 
L 177.576382 -167.517381 
L 175.621914 -159.074171 
L 173.667446 -150.766101 
L 171.712979 -142.647051 
L 169.758511 -134.766371 
L 167.804043 -127.168161 
L 165.849575 -119.890703 
L 163.895108 -112.966069 
L 161.94064 -106.419893 
L 159.986172 -100.271321 
L 158.031704 -94.533111 
L 156.077237 -89.211881 
L 154.122769 -84.308487 
L 152.168301 -79.818501 
L 150.213834 -75.732773 
L 148.259366 -72.03805 
L 146.304898 -68.717637 
L 144.35043 -65.752055 
L 142.395963 -63.119708 
L 140.441495 -60.797509 
L 138.487027 -58.761472 
L 136.532559 -56.987254 
L 134.578092 -55.450624 
L 132.623624 -54.127876 
L 130.669156 -52.996169 
L 128.714688 -52.033794 
L 126.760221 -51.220383 
L 124.805753 -50.537045 
L 122.851285 -49.966459 
L 120.896817 -49.492905 
L 118.94235 -49.102259 
L 116.987882 -48.781956 
L 115.033414 -48.520915 
L 113.078946 -48.309459 
L 111.124479 -48.139203 
L 109.170011 -48.002949 
z
" style="stroke: #87ceeb"/>
    </defs>
    <g clip-path="url(#p131387f0b9)">
     <use xlink:href="#m7134842ae6" x="0" y="432" style="fill: #87ceeb; fill-opacity: 0.25; stroke: #87ceeb"/>
    </g>
   </g>
   <g id="PolyCollection_2">
    <defs>
     <path id="mf6a55c7b9f" d="M 92.290909 -48.741199 
L 92.290909 -47.52 
L 93.898523 -47.52 
L 95.506136 -47.52 
L 97.11375 -47.52 
L 98.721364 -47.52 
L 100.328977 -47.52 
L 101.936591 -47.52 
L 103.544205 -47.52 
L 105.151818 -47.52 
L 106.759432 -47.52 
L 108.367046 -47.52 
L 109.974659 -47.52 
L 111.582273 -47.52 
L 113.189887 -47.52 
L 114.7975 -47.52 
L 116.405114 -47.52 
L 118.012728 -47.52 
L 119.620341 -47.52 
L 121.227955 -47.52 
L 122.835568 -47.52 
L 124.443182 -47.52 
L 126.050796 -47.52 
L 127.658409 -47.52 
L 129.266023 -47.52 
L 130.873637 -47.52 
L 132.48125 -47.52 
L 134.088864 -47.52 
L 135.696478 -47.52 
L 137.304091 -47.52 
L 138.911705 -47.52 
L 140.519319 -47.52 
L 142.126932 -47.52 
L 143.734546 -47.52 
L 145.34216 -47.52 
L 146.949773 -47.52 
L 148.557387 -47.52 
L 150.165001 -47.52 
L 151.772614 -47.52 
L 153.380228 -47.52 
L 154.987841 -47.52 
L 156.595455 -47.52 
L 158.203069 -47.52 
L 159.810682 -47.52 
L 161.418296 -47.52 
L 163.02591 -47.52 
L 164.633523 -47.52 
L 166.241137 -47.52 
L 167.848751 -47.52 
L 169.456364 -47.52 
L 171.063978 -47.52 
L 172.671592 -47.52 
L 174.279205 -47.52 
L 175.886819 -47.52 
L 177.494433 -47.52 
L 179.102046 -47.52 
L 180.70966 -47.52 
L 182.317274 -47.52 
L 183.924887 -47.52 
L 185.532501 -47.52 
L 187.140115 -47.52 
L 188.747728 -47.52 
L 190.355342 -47.52 
L 191.962955 -47.52 
L 193.570569 -47.52 
L 195.178183 -47.52 
L 196.785796 -47.52 
L 198.39341 -47.52 
L 200.001024 -47.52 
L 201.608637 -47.52 
L 203.216251 -47.52 
L 204.823865 -47.52 
L 206.431478 -47.52 
L 208.039092 -47.52 
L 209.646706 -47.52 
L 211.254319 -47.52 
L 212.861933 -47.52 
L 214.469547 -47.52 
L 216.07716 -47.52 
L 217.684774 -47.52 
L 219.292388 -47.52 
L 220.900001 -47.52 
L 222.507615 -47.52 
L 224.115229 -47.52 
L 225.722842 -47.52 
L 227.330456 -47.52 
L 228.938069 -47.52 
L 230.545683 -47.52 
L 232.153297 -47.52 
L 233.76091 -47.52 
L 235.368524 -47.52 
L 236.976138 -47.52 
L 238.583751 -47.52 
L 240.191365 -47.52 
L 241.798979 -47.52 
L 243.406592 -47.52 
L 245.014206 -47.52 
L 246.62182 -47.52 
L 248.229433 -47.52 
L 249.837047 -47.52 
L 251.444661 -47.52 
L 253.052274 -47.52 
L 254.659888 -47.52 
L 256.267502 -47.52 
L 257.875115 -47.52 
L 259.482729 -47.52 
L 261.090342 -47.52 
L 262.697956 -47.52 
L 264.30557 -47.52 
L 265.913183 -47.52 
L 267.520797 -47.52 
L 269.128411 -47.52 
L 270.736024 -47.52 
L 272.343638 -47.52 
L 273.951252 -47.52 
L 275.558865 -47.52 
L 277.166479 -47.52 
L 278.774093 -47.52 
L 280.381706 -47.52 
L 281.98932 -47.52 
L 283.596934 -47.52 
L 285.204547 -47.52 
L 286.812161 -47.52 
L 288.419775 -47.52 
L 290.027388 -47.52 
L 291.635002 -47.52 
L 293.242616 -47.52 
L 294.850229 -47.52 
L 296.457843 -47.52 
L 298.065456 -47.52 
L 299.67307 -47.52 
L 301.280684 -47.52 
L 302.888297 -47.52 
L 304.495911 -47.52 
L 306.103525 -47.52 
L 307.711138 -47.52 
L 309.318752 -47.52 
L 310.926366 -47.52 
L 312.533979 -47.52 
L 314.141593 -47.52 
L 315.749207 -47.52 
L 317.35682 -47.52 
L 318.964434 -47.52 
L 320.572048 -47.52 
L 322.179661 -47.52 
L 323.787275 -47.52 
L 325.394889 -47.52 
L 327.002502 -47.52 
L 328.610116 -47.52 
L 330.21773 -47.52 
L 331.825343 -47.52 
L 333.432957 -47.52 
L 335.04057 -47.52 
L 336.648184 -47.52 
L 338.255798 -47.52 
L 339.863411 -47.52 
L 341.471025 -47.52 
L 343.078639 -47.52 
L 344.686252 -47.52 
L 346.293866 -47.52 
L 347.90148 -47.52 
L 349.509093 -47.52 
L 351.116707 -47.52 
L 352.724321 -47.52 
L 354.331934 -47.52 
L 355.939548 -47.52 
L 357.547162 -47.52 
L 359.154775 -47.52 
L 360.762389 -47.52 
L 362.370003 -47.52 
L 363.977616 -47.52 
L 365.58523 -47.52 
L 367.192843 -47.52 
L 368.800457 -47.52 
L 370.408071 -47.52 
L 372.015684 -47.52 
L 373.623298 -47.52 
L 375.230912 -47.52 
L 376.838525 -47.52 
L 378.446139 -47.52 
L 380.053753 -47.52 
L 381.661366 -47.52 
L 383.26898 -47.52 
L 384.876594 -47.52 
L 386.484207 -47.52 
L 388.091821 -47.52 
L 389.699435 -47.52 
L 391.307048 -47.52 
L 392.914662 -47.52 
L 394.522276 -47.52 
L 396.129889 -47.52 
L 397.737503 -47.52 
L 399.345117 -47.52 
L 400.95273 -47.52 
L 402.560344 -47.52 
L 404.167957 -47.52 
L 405.775571 -47.52 
L 407.383185 -47.52 
L 408.990798 -47.52 
L 410.598412 -47.52 
L 412.206026 -47.52 
L 412.206026 -47.861325 
L 412.206026 -47.861325 
L 410.598412 -47.929947 
L 408.990798 -48.010564 
L 407.383185 -48.104892 
L 405.775571 -48.214816 
L 404.167957 -48.342399 
L 402.560344 -48.489879 
L 400.95273 -48.65967 
L 399.345117 -48.854356 
L 397.737503 -49.076682 
L 396.129889 -49.329545 
L 394.522276 -49.615973 
L 392.914662 -49.939104 
L 391.307048 -50.302164 
L 389.699435 -50.708432 
L 388.091821 -51.161206 
L 386.484207 -51.663766 
L 384.876594 -52.219325 
L 383.26898 -52.830987 
L 381.661366 -53.501699 
L 380.053753 -54.234193 
L 378.446139 -55.030941 
L 376.838525 -55.894099 
L 375.230912 -56.825463 
L 373.623298 -57.826413 
L 372.015684 -58.897877 
L 370.408071 -60.040293 
L 368.800457 -61.253573 
L 367.192843 -62.537082 
L 365.58523 -63.889622 
L 363.977616 -65.309427 
L 362.370003 -66.794162 
L 360.762389 -68.340936 
L 359.154775 -69.946328 
L 357.547162 -71.606408 
L 355.939548 -73.316787 
L 354.331934 -75.07265 
L 352.724321 -76.868819 
L 351.116707 -78.699797 
L 349.509093 -80.559837 
L 347.90148 -82.442992 
L 346.293866 -84.343178 
L 344.686252 -86.254229 
L 343.078639 -88.169948 
L 341.471025 -90.084155 
L 339.863411 -91.990729 
L 338.255798 -93.883638 
L 336.648184 -95.756974 
L 335.04057 -97.604966 
L 333.432957 -99.422003 
L 331.825343 -101.202644 
L 330.21773 -102.941623 
L 328.610116 -104.633862 
L 327.002502 -106.274478 
L 325.394889 -107.858795 
L 323.787275 -109.382367 
L 322.179661 -110.841004 
L 320.572048 -112.230807 
L 318.964434 -113.548226 
L 317.35682 -114.79012 
L 315.749207 -115.953835 
L 314.141593 -117.037303 
L 312.533979 -118.039145 
L 310.926366 -118.958796 
L 309.318752 -119.796632 
L 307.711138 -120.554113 
L 306.103525 -121.233921 
L 304.495911 -121.840109 
L 302.888297 -122.37823 
L 301.280684 -122.855471 
L 299.67307 -123.280759 
L 298.065456 -123.664852 
L 296.457843 -124.0204 
L 294.850229 -124.361976 
L 293.242616 -124.706067 
L 291.635002 -125.071031 
L 290.027388 -125.476999 
L 288.419775 -125.945741 
L 286.812161 -126.500484 
L 285.204547 -127.165675 
L 283.596934 -127.96671 
L 281.98932 -128.929612 
L 280.381706 -130.080673 
L 278.774093 -131.446071 
L 277.166479 -133.051444 
L 275.558865 -134.921463 
L 273.951252 -137.079383 
L 272.343638 -139.546593 
L 270.736024 -142.342186 
L 269.128411 -145.48253 
L 267.520797 -148.980879 
L 265.913183 -152.847015 
L 264.30557 -157.086944 
L 262.697956 -161.702634 
L 261.090342 -166.691831 
L 259.482729 -172.047927 
L 257.875115 -177.759911 
L 256.267502 -183.812393 
L 254.659888 -190.185704 
L 253.052274 -196.856071 
L 251.444661 -203.795873 
L 249.837047 -210.973956 
L 248.229433 -218.356022 
L 246.62182 -225.905072 
L 245.014206 -233.581892 
L 243.406592 -241.345582 
L 241.798979 -249.154106 
L 240.191365 -256.964861 
L 238.583751 -264.735239 
L 236.976138 -272.423187 
L 235.368524 -279.987728 
L 233.76091 -287.389464 
L 232.153297 -294.591012 
L 230.545683 -301.557396 
L 228.938069 -308.256367 
L 227.330456 -314.658654 
L 225.722842 -320.738131 
L 224.115229 -326.471914 
L 222.507615 -331.840375 
L 220.900001 -336.82708 
L 219.292388 -341.418651 
L 217.684774 -345.604575 
L 216.07716 -349.37694 
L 214.469547 -352.730143 
L 212.861933 -355.660549 
L 211.254319 -358.166145 
L 209.646706 -360.246168 
L 208.039092 -361.900758 
L 206.431478 -363.130618 
L 204.823865 -363.936711 
L 203.216251 -364.32 
L 201.608637 -364.28124 
L 200.001024 -363.820832 
L 198.39341 -362.938742 
L 196.785796 -361.63449 
L 195.178183 -359.907205 
L 193.570569 -357.755758 
L 191.962955 -355.178942 
L 190.355342 -352.175719 
L 188.747728 -348.745513 
L 187.140115 -344.888532 
L 185.532501 -340.606119 
L 183.924887 -335.901107 
L 182.317274 -330.778179 
L 180.70966 -325.244196 
L 179.102046 -319.308508 
L 177.494433 -312.983209 
L 175.886819 -306.283344 
L 174.279205 -299.227048 
L 172.671592 -291.835618 
L 171.063978 -284.1335 
L 169.456364 -276.148211 
L 167.848751 -267.910166 
L 166.241137 -259.452449 
L 164.633523 -250.810494 
L 163.02591 -242.021722 
L 161.418296 -233.125108 
L 159.810682 -224.160719 
L 158.203069 -215.169213 
L 156.595455 -206.191323 
L 154.987841 -197.267336 
L 153.380228 -188.436578 
L 151.772614 -179.736924 
L 150.165001 -171.204334 
L 148.557387 -162.872434 
L 146.949773 -154.772144 
L 145.34216 -146.931372 
L 143.734546 -139.374757 
L 142.126932 -132.123487 
L 140.519319 -125.195184 
L 138.911705 -118.603848 
L 137.304091 -112.359874 
L 135.696478 -106.470119 
L 134.088864 -100.938035 
L 132.48125 -95.763841 
L 130.873637 -90.944743 
L 129.266023 -86.475189 
L 127.658409 -82.347142 
L 126.050796 -78.550382 
L 124.443182 -75.072815 
L 122.835568 -71.90078 
L 121.227955 -69.019367 
L 119.620341 -66.412709 
L 118.012728 -64.064273 
L 116.405114 -61.957128 
L 114.7975 -60.074188 
L 113.189887 -58.398439 
L 111.582273 -56.913128 
L 109.974659 -55.601939 
L 108.367046 -54.44913 
L 106.759432 -53.43965 
L 105.151818 -52.55923 
L 103.544205 -51.794446 
L 101.936591 -51.132767 
L 100.328977 -50.562579 
L 98.721364 -50.073187 
L 97.11375 -49.654813 
L 95.506136 -49.29857 
L 93.898523 -48.996434 
L 92.290909 -48.741199 
z
" style="stroke: #fa8072"/>
    </defs>
    <g clip-path="url(#p131387f0b9)">
     <use xlink:href="#mf6a55c7b9f" x="0" y="432" style="fill: #fa8072; fill-opacity: 0.25; stroke: #fa8072"/>
    </g>
   </g>
   <g id="matplotlib.axis_1">
    <g id="xtick_1">
     <g id="line2d_1">
      <defs>
       <path id="mab849ddb35" d="M 0 0 
L 0 3.5 
" style="stroke: #000000; stroke-width: 0.8"/>
      </defs>
      <g>
       <use xlink:href="#mab849ddb35" x="169.04316" y="384.48" style="stroke: #000000; stroke-width: 0.8"/>
      </g>
     </g>
     <g id="text_1">
      <!-- 0 -->
      <g transform="translate(166.262691 398.653437) scale(0.1 -0.1)">
       <defs>
        <path id="Helvetica-30" d="M 1731 4475 
Q 2600 4475 2988 3759 
Q 3288 3206 3288 2244 
Q 3288 1331 3016 734 
Q 2622 -122 1728 -122 
Q 922 -122 528 578 
Q 200 1163 200 2147 
Q 200 2909 397 3456 
Q 766 4475 1731 4475 
z
M 1725 391 
Q 2163 391 2422 778 
Q 2681 1166 2681 2222 
Q 2681 2984 2493 3476 
Q 2306 3969 1766 3969 
Q 1269 3969 1039 3501 
Q 809 3034 809 2125 
Q 809 1441 956 1025 
Q 1181 391 1725 391 
z
" transform="scale(0.015625)"/>
       </defs>
       <use xlink:href="#Helvetica-30"/>
      </g>
     </g>
    </g>
    <g id="xtick_2">
     <g id="line2d_2">
      <g>
       <use xlink:href="#mab849ddb35" x="266.513209" y="384.48" style="stroke: #000000; stroke-width: 0.8"/>
      </g>
     </g>
     <g id="text_2">
      <!-- 100 -->
      <g transform="translate(258.171803 398.653437) scale(0.1 -0.1)">
       <defs>
        <path id="Helvetica-31" d="M 613 3169 
L 613 3600 
Q 1222 3659 1462 3798 
Q 1703 3938 1822 4456 
L 2266 4456 
L 2266 0 
L 1666 0 
L 1666 3169 
L 613 3169 
z
" transform="scale(0.015625)"/>
       </defs>
       <use xlink:href="#Helvetica-31"/>
       <use xlink:href="#Helvetica-30" x="55.615234"/>
       <use xlink:href="#Helvetica-30" x="111.230469"/>
      </g>
     </g>
    </g>
    <g id="xtick_3">
     <g id="line2d_3">
      <g>
       <use xlink:href="#mab849ddb35" x="363.983259" y="384.48" style="stroke: #000000; stroke-width: 0.8"/>
      </g>
     </g>
     <g id="text_3">
      <!-- 200 -->
      <g transform="translate(355.641852 398.653437) scale(0.1 -0.1)">
       <defs>
        <path id="Helvetica-32" d="M 200 0 
Q 231 578 439 1006 
Q 647 1434 1250 1784 
L 1850 2131 
Q 2253 2366 2416 2531 
Q 2672 2791 2672 3125 
Q 2672 3516 2437 3745 
Q 2203 3975 1813 3975 
Q 1234 3975 1013 3538 
Q 894 3303 881 2888 
L 309 2888 
Q 319 3472 525 3841 
Q 891 4491 1816 4491 
Q 2584 4491 2939 4075 
Q 3294 3659 3294 3150 
Q 3294 2613 2916 2231 
Q 2697 2009 2131 1694 
L 1703 1456 
Q 1397 1288 1222 1134 
Q 909 863 828 531 
L 3272 531 
L 3272 0 
L 200 0 
z
" transform="scale(0.015625)"/>
       </defs>
       <use xlink:href="#Helvetica-32"/>
       <use xlink:href="#Helvetica-30" x="55.615234"/>
       <use xlink:href="#Helvetica-30" x="111.230469"/>
      </g>
     </g>
    </g>
    <g id="xtick_4">
     <g id="line2d_4">
      <g>
       <use xlink:href="#mab849ddb35" x="461.453308" y="384.48" style="stroke: #000000; stroke-width: 0.8"/>
      </g>
     </g>
     <g id="text_4">
      <!-- 300 -->
      <g transform="translate(453.111902 398.653437) scale(0.1 -0.1)">
       <defs>
        <path id="Helvetica-33" d="M 1663 -122 
Q 869 -122 511 314 
Q 153 750 153 1375 
L 741 1375 
Q 778 941 903 744 
Q 1122 391 1694 391 
Q 2138 391 2406 628 
Q 2675 866 2675 1241 
Q 2675 1703 2392 1887 
Q 2109 2072 1606 2072 
Q 1550 2072 1492 2070 
Q 1434 2069 1375 2066 
L 1375 2563 
Q 1463 2553 1522 2550 
Q 1581 2547 1650 2547 
Q 1966 2547 2169 2647 
Q 2525 2822 2525 3272 
Q 2525 3606 2287 3787 
Q 2050 3969 1734 3969 
Q 1172 3969 956 3594 
Q 838 3388 822 3006 
L 266 3006 
Q 266 3506 466 3856 
Q 809 4481 1675 4481 
Q 2359 4481 2734 4176 
Q 3109 3872 3109 3294 
Q 3109 2881 2888 2625 
Q 2750 2466 2531 2375 
Q 2884 2278 3082 2001 
Q 3281 1725 3281 1325 
Q 3281 684 2859 281 
Q 2438 -122 1663 -122 
z
" transform="scale(0.015625)"/>
       </defs>
       <use xlink:href="#Helvetica-33"/>
       <use xlink:href="#Helvetica-30" x="55.615234"/>
       <use xlink:href="#Helvetica-30" x="111.230469"/>
      </g>
     </g>
    </g>
    <g id="text_5">
     <!-- Max Pa -->
     <g transform="translate(278.25 411.91125) scale(0.1 -0.1)">
      <defs>
       <path id="Helvetica-4d" d="M 472 4591 
L 1363 4591 
L 2681 709 
L 3991 4591 
L 4872 4591 
L 4872 0 
L 4281 0 
L 4281 2709 
Q 4281 2850 4287 3175 
Q 4294 3500 4294 3872 
L 2984 0 
L 2369 0 
L 1050 3872 
L 1050 3731 
Q 1050 3563 1058 3217 
Q 1066 2872 1066 2709 
L 1066 0 
L 472 0 
L 472 4591 
z
" transform="scale(0.015625)"/>
       <path id="Helvetica-61" d="M 844 891 
Q 844 647 1022 506 
Q 1200 366 1444 366 
Q 1741 366 2019 503 
Q 2488 731 2488 1250 
L 2488 1703 
Q 2384 1638 2221 1594 
Q 2059 1550 1903 1531 
L 1563 1488 
Q 1256 1447 1103 1359 
Q 844 1213 844 891 
z
M 2206 2028 
Q 2400 2053 2466 2191 
Q 2503 2266 2503 2406 
Q 2503 2694 2298 2823 
Q 2094 2953 1713 2953 
Q 1272 2953 1088 2716 
Q 984 2584 953 2325 
L 428 2325 
Q 444 2944 830 3186 
Q 1216 3428 1725 3428 
Q 2316 3428 2684 3203 
Q 3050 2978 3050 2503 
L 3050 575 
Q 3050 488 3086 434 
Q 3122 381 3238 381 
Q 3275 381 3322 386 
Q 3369 391 3422 400 
L 3422 -16 
Q 3291 -53 3222 -62 
Q 3153 -72 3034 -72 
Q 2744 -72 2613 134 
Q 2544 244 2516 444 
Q 2344 219 2022 53 
Q 1700 -113 1313 -113 
Q 847 -113 551 170 
Q 256 453 256 878 
Q 256 1344 547 1600 
Q 838 1856 1309 1916 
L 2206 2028 
z
M 1741 3428 
L 1741 3428 
z
" transform="scale(0.015625)"/>
       <path id="Helvetica-78" d="M 94 3347 
L 822 3347 
L 1591 2169 
L 2369 3347 
L 3053 3331 
L 1925 1716 
L 3103 0 
L 2384 0 
L 1553 1256 
L 747 0 
L 34 0 
L 1213 1716 
L 94 3347 
z
" transform="scale(0.015625)"/>
       <path id="Helvetica-20" transform="scale(0.015625)"/>
       <path id="Helvetica-50" d="M 547 4591 
L 2613 4591 
Q 3225 4591 3600 4245 
Q 3975 3900 3975 3275 
Q 3975 2738 3640 2339 
Q 3306 1941 2613 1941 
L 1169 1941 
L 1169 0 
L 547 0 
L 547 4591 
z
M 3347 3272 
Q 3347 3778 2972 3959 
Q 2766 4056 2406 4056 
L 1169 4056 
L 1169 2466 
L 2406 2466 
Q 2825 2466 3086 2644 
Q 3347 2822 3347 3272 
z
" transform="scale(0.015625)"/>
      </defs>
      <use xlink:href="#Helvetica-4d"/>
      <use xlink:href="#Helvetica-61" x="83.300781"/>
      <use xlink:href="#Helvetica-78" x="138.916016"/>
      <use xlink:href="#Helvetica-20" x="188.916016"/>
      <use xlink:href="#Helvetica-50" x="216.699219"/>
      <use xlink:href="#Helvetica-61" x="283.398438"/>
     </g>
    </g>
   </g>
   <g id="matplotlib.axis_2">
    <g id="ytick_1">
     <g id="line2d_5">
      <defs>
       <path id="mef10f08a33" d="M 0 0 
L -3.5 0 
" style="stroke: #000000; stroke-width: 0.8"/>
      </defs>
      <g>
       <use xlink:href="#mef10f08a33" x="72" y="384.48" style="stroke: #000000; stroke-width: 0.8"/>
      </g>
     </g>
     <g id="text_6">
      <!-- 0.000 -->
      <g transform="translate(39.978125 388.066719) scale(0.1 -0.1)">
       <defs>
        <path id="Helvetica-2e" d="M 547 681 
L 1200 681 
L 1200 0 
L 547 0 
L 547 681 
z
" transform="scale(0.015625)"/>
       </defs>
       <use xlink:href="#Helvetica-30"/>
       <use xlink:href="#Helvetica-2e" x="55.615234"/>
       <use xlink:href="#Helvetica-30" x="83.398438"/>
       <use xlink:href="#Helvetica-30" x="139.013672"/>
       <use xlink:href="#Helvetica-30" x="194.628906"/>
      </g>
     </g>
    </g>
    <g id="ytick_2">
     <g id="line2d_6">
      <g>
       <use xlink:href="#mef10f08a33" x="72" y="311.014947" style="stroke: #000000; stroke-width: 0.8"/>
      </g>
     </g>
     <g id="text_7">
      <!-- 0.002 -->
      <g transform="translate(39.978125 314.601666) scale(0.1 -0.1)">
       <use xlink:href="#Helvetica-30"/>
       <use xlink:href="#Helvetica-2e" x="55.615234"/>
       <use xlink:href="#Helvetica-30" x="83.398438"/>
       <use xlink:href="#Helvetica-30" x="139.013672"/>
       <use xlink:href="#Helvetica-32" x="194.628906"/>
      </g>
     </g>
    </g>
    <g id="ytick_3">
     <g id="line2d_7">
      <g>
       <use xlink:href="#mef10f08a33" x="72" y="237.549894" style="stroke: #000000; stroke-width: 0.8"/>
      </g>
     </g>
     <g id="text_8">
      <!-- 0.004 -->
      <g transform="translate(39.978125 241.136612) scale(0.1 -0.1)">
       <defs>
        <path id="Helvetica-34" d="M 2116 1584 
L 2116 3613 
L 681 1584 
L 2116 1584 
z
M 2125 0 
L 2125 1094 
L 163 1094 
L 163 1644 
L 2213 4488 
L 2688 4488 
L 2688 1584 
L 3347 1584 
L 3347 1094 
L 2688 1094 
L 2688 0 
L 2125 0 
z
" transform="scale(0.015625)"/>
       </defs>
       <use xlink:href="#Helvetica-30"/>
       <use xlink:href="#Helvetica-2e" x="55.615234"/>
       <use xlink:href="#Helvetica-30" x="83.398438"/>
       <use xlink:href="#Helvetica-30" x="139.013672"/>
       <use xlink:href="#Helvetica-34" x="194.628906"/>
      </g>
     </g>
    </g>
    <g id="ytick_4">
     <g id="line2d_8">
      <g>
       <use xlink:href="#mef10f08a33" x="72" y="164.08484" style="stroke: #000000; stroke-width: 0.8"/>
      </g>
     </g>
     <g id="text_9">
      <!-- 0.006 -->
      <g transform="translate(39.978125 167.671559) scale(0.1 -0.1)">
       <defs>
        <path id="Helvetica-36" d="M 1872 4494 
Q 2622 4494 2917 4105 
Q 3213 3716 3213 3303 
L 2656 3303 
Q 2606 3569 2497 3719 
Q 2294 4000 1881 4000 
Q 1409 4000 1131 3564 
Q 853 3128 822 2316 
Q 1016 2600 1309 2741 
Q 1578 2866 1909 2866 
Q 2472 2866 2890 2506 
Q 3309 2147 3309 1434 
Q 3309 825 2912 354 
Q 2516 -116 1781 -116 
Q 1153 -116 697 361 
Q 241 838 241 1966 
Q 241 2800 444 3381 
Q 834 4494 1872 4494 
z
M 1831 384 
Q 2275 384 2495 682 
Q 2716 981 2716 1388 
Q 2716 1731 2519 2042 
Q 2322 2353 1803 2353 
Q 1441 2353 1167 2112 
Q 894 1872 894 1388 
Q 894 963 1142 673 
Q 1391 384 1831 384 
z
" transform="scale(0.015625)"/>
       </defs>
       <use xlink:href="#Helvetica-30"/>
       <use xlink:href="#Helvetica-2e" x="55.615234"/>
       <use xlink:href="#Helvetica-30" x="83.398438"/>
       <use xlink:href="#Helvetica-30" x="139.013672"/>
       <use xlink:href="#Helvetica-36" x="194.628906"/>
      </g>
     </g>
    </g>
    <g id="ytick_5">
     <g id="line2d_9">
      <g>
       <use xlink:href="#mef10f08a33" x="72" y="90.619787" style="stroke: #000000; stroke-width: 0.8"/>
      </g>
     </g>
     <g id="text_10">
      <!-- 0.008 -->
      <g transform="translate(39.978125 94.206506) scale(0.1 -0.1)">
       <defs>
        <path id="Helvetica-38" d="M 1741 2600 
Q 2113 2600 2322 2808 
Q 2531 3016 2531 3303 
Q 2531 3553 2331 3762 
Q 2131 3972 1722 3972 
Q 1316 3972 1134 3762 
Q 953 3553 953 3272 
Q 953 2956 1187 2778 
Q 1422 2600 1741 2600 
z
M 1775 384 
Q 2166 384 2423 595 
Q 2681 806 2681 1225 
Q 2681 1659 2415 1884 
Q 2150 2109 1734 2109 
Q 1331 2109 1076 1879 
Q 822 1650 822 1244 
Q 822 894 1055 639 
Q 1288 384 1775 384 
z
M 975 2384 
Q 741 2484 609 2619 
Q 363 2869 363 3269 
Q 363 3769 725 4128 
Q 1088 4488 1753 4488 
Q 2397 4488 2762 4148 
Q 3128 3809 3128 3356 
Q 3128 2938 2916 2678 
Q 2797 2531 2547 2391 
Q 2825 2263 2984 2097 
Q 3281 1784 3281 1284 
Q 3281 694 2884 283 
Q 2488 -128 1763 -128 
Q 1109 -128 657 226 
Q 206 581 206 1256 
Q 206 1653 400 1942 
Q 594 2231 975 2384 
z
" transform="scale(0.015625)"/>
       </defs>
       <use xlink:href="#Helvetica-30"/>
       <use xlink:href="#Helvetica-2e" x="55.615234"/>
       <use xlink:href="#Helvetica-30" x="83.398438"/>
       <use xlink:href="#Helvetica-30" x="139.013672"/>
       <use xlink:href="#Helvetica-38" x="194.628906"/>
      </g>
     </g>
    </g>
    <g id="text_11">
     <!-- Density -->
     <g transform="translate(33.834375 234.831875) rotate(-90) scale(0.1 -0.1)">
      <defs>
       <path id="Helvetica-44" d="M 2250 531 
Q 2566 531 2769 597 
Q 3131 719 3363 1066 
Q 3547 1344 3628 1778 
Q 3675 2038 3675 2259 
Q 3675 3113 3336 3584 
Q 2997 4056 2244 4056 
L 1141 4056 
L 1141 531 
L 2250 531 
z
M 516 4591 
L 2375 4591 
Q 3322 4591 3844 3919 
Q 4309 3313 4309 2366 
Q 4309 1634 4034 1044 
Q 3550 0 2369 0 
L 516 0 
L 516 4591 
z
" transform="scale(0.015625)"/>
       <path id="Helvetica-65" d="M 1806 3422 
Q 2163 3422 2497 3255 
Q 2831 3088 3006 2822 
Q 3175 2569 3231 2231 
Q 3281 2000 3281 1494 
L 828 1494 
Q 844 984 1069 676 
Q 1294 369 1766 369 
Q 2206 369 2469 659 
Q 2619 828 2681 1050 
L 3234 1050 
Q 3213 866 3089 639 
Q 2966 413 2813 269 
Q 2556 19 2178 -69 
Q 1975 -119 1719 -119 
Q 1094 -119 659 336 
Q 225 791 225 1609 
Q 225 2416 662 2919 
Q 1100 3422 1806 3422 
z
M 2703 1941 
Q 2669 2306 2544 2525 
Q 2313 2931 1772 2931 
Q 1384 2931 1121 2651 
Q 859 2372 844 1941 
L 2703 1941 
z
M 1753 3428 
L 1753 3428 
z
" transform="scale(0.015625)"/>
       <path id="Helvetica-6e" d="M 413 3347 
L 947 3347 
L 947 2872 
Q 1184 3166 1450 3294 
Q 1716 3422 2041 3422 
Q 2753 3422 3003 2925 
Q 3141 2653 3141 2147 
L 3141 0 
L 2569 0 
L 2569 2109 
Q 2569 2416 2478 2603 
Q 2328 2916 1934 2916 
Q 1734 2916 1606 2875 
Q 1375 2806 1200 2600 
Q 1059 2434 1017 2257 
Q 975 2081 975 1753 
L 975 0 
L 413 0 
L 413 3347 
z
M 1734 3428 
L 1734 3428 
z
" transform="scale(0.015625)"/>
       <path id="Helvetica-73" d="M 747 1050 
Q 772 769 888 619 
Q 1100 347 1625 347 
Q 1938 347 2175 483 
Q 2413 619 2413 903 
Q 2413 1119 2222 1231 
Q 2100 1300 1741 1391 
L 1294 1503 
Q 866 1609 663 1741 
Q 300 1969 300 2372 
Q 300 2847 642 3140 
Q 984 3434 1563 3434 
Q 2319 3434 2653 2991 
Q 2863 2709 2856 2384 
L 2325 2384 
Q 2309 2575 2191 2731 
Q 1997 2953 1519 2953 
Q 1200 2953 1036 2831 
Q 872 2709 872 2509 
Q 872 2291 1088 2159 
Q 1213 2081 1456 2022 
L 1828 1931 
Q 2434 1784 2641 1647 
Q 2969 1431 2969 969 
Q 2969 522 2630 197 
Q 2291 -128 1597 -128 
Q 850 -128 539 211 
Q 228 550 206 1050 
L 747 1050 
z
M 1578 3428 
L 1578 3428 
z
" transform="scale(0.015625)"/>
       <path id="Helvetica-69" d="M 413 3331 
L 984 3331 
L 984 0 
L 413 0 
L 413 3331 
z
M 413 4591 
L 984 4591 
L 984 3953 
L 413 3953 
L 413 4591 
z
" transform="scale(0.015625)"/>
       <path id="Helvetica-74" d="M 525 4281 
L 1094 4281 
L 1094 3347 
L 1628 3347 
L 1628 2888 
L 1094 2888 
L 1094 703 
Q 1094 528 1213 469 
Q 1278 434 1431 434 
Q 1472 434 1519 436 
Q 1566 438 1628 444 
L 1628 0 
Q 1531 -28 1426 -40 
Q 1322 -53 1200 -53 
Q 806 -53 665 148 
Q 525 350 525 672 
L 525 2888 
L 72 2888 
L 72 3347 
L 525 3347 
L 525 4281 
z
" transform="scale(0.015625)"/>
       <path id="Helvetica-79" d="M 2503 3347 
L 3125 3347 
Q 3006 3025 2597 1878 
Q 2291 1016 2084 472 
Q 1597 -809 1397 -1090 
Q 1197 -1372 709 -1372 
Q 591 -1372 527 -1362 
Q 463 -1353 369 -1328 
L 369 -816 
Q 516 -856 581 -865 
Q 647 -875 697 -875 
Q 853 -875 926 -823 
Q 1000 -772 1050 -697 
Q 1066 -672 1162 -440 
Q 1259 -209 1303 -97 
L 66 3347 
L 703 3347 
L 1600 622 
L 2503 3347 
z
M 1597 3428 
L 1597 3428 
z
" transform="scale(0.015625)"/>
      </defs>
      <use xlink:href="#Helvetica-44"/>
      <use xlink:href="#Helvetica-65" x="72.216797"/>
      <use xlink:href="#Helvetica-6e" x="127.832031"/>
      <use xlink:href="#Helvetica-73" x="183.447266"/>
      <use xlink:href="#Helvetica-69" x="233.447266"/>
      <use xlink:href="#Helvetica-74" x="255.664062"/>
      <use xlink:href="#Helvetica-79" x="283.447266"/>
     </g>
    </g>
   </g>
   <g id="patch_3">
    <path d="M 72 384.48 
L 72 51.84 
" style="fill: none; stroke: #000000; stroke-width: 0.8; stroke-linejoin: miter; stroke-linecap: square"/>
   </g>
   <g id="patch_4">
    <path d="M 518.4 384.48 
L 518.4 51.84 
" style="fill: none; stroke: #000000; stroke-width: 0.8; stroke-linejoin: miter; stroke-linecap: square"/>
   </g>
   <g id="patch_5">
    <path d="M 72 384.48 
L 518.4 384.48 
" style="fill: none; stroke: #000000; stroke-width: 0.8; stroke-linejoin: miter; stroke-linecap: square"/>
   </g>
   <g id="patch_6">
    <path d="M 72 51.84 
L 518.4 51.84 
" style="fill: none; stroke: #000000; stroke-width: 0.8; stroke-linejoin: miter; stroke-linecap: square"/>
   </g>
   <g id="legend_1">
    <g id="patch_7">
     <path d="M 434.373437 88.355625 
L 511.4 88.355625 
Q 513.4 88.355625 513.4 86.355625 
L 513.4 58.84 
Q 513.4 56.84 511.4 56.84 
L 434.373437 56.84 
Q 432.373437 56.84 432.373437 58.84 
L 432.373437 86.355625 
Q 432.373437 88.355625 434.373437 88.355625 
z
" style="fill: #ffffff; opacity: 0.8; stroke: #cccccc; stroke-linejoin: miter"/>
    </g>
    <g id="patch_8">
     <path d="M 436.373437 68.013437 
L 456.373437 68.013437 
L 456.373437 61.013437 
L 436.373437 61.013437 
z
" style="fill: #87ceeb; fill-opacity: 0.25; stroke: #87ceeb; stroke-linejoin: miter"/>
    </g>
    <g id="text_12">
     <!-- Alive -->
     <g transform="translate(464.373437 68.013437) scale(0.1 -0.1)">
      <defs>
       <path id="Helvetica-41" d="M 2844 1881 
L 2147 3909 
L 1406 1881 
L 2844 1881 
z
M 1822 4591 
L 2525 4591 
L 4191 0 
L 3509 0 
L 3044 1375 
L 1228 1375 
L 731 0 
L 94 0 
L 1822 4591 
z
" transform="scale(0.015625)"/>
       <path id="Helvetica-6c" d="M 428 4591 
L 991 4591 
L 991 0 
L 428 0 
L 428 4591 
z
" transform="scale(0.015625)"/>
       <path id="Helvetica-76" d="M 688 3347 
L 1581 622 
L 2516 3347 
L 3131 3347 
L 1869 0 
L 1269 0 
L 34 3347 
L 688 3347 
z
" transform="scale(0.015625)"/>
      </defs>
      <use xlink:href="#Helvetica-41"/>
      <use xlink:href="#Helvetica-6c" x="66.699219"/>
      <use xlink:href="#Helvetica-69" x="88.916016"/>
      <use xlink:href="#Helvetica-76" x="111.132812"/>
      <use xlink:href="#Helvetica-65" x="161.132812"/>
     </g>
    </g>
    <g id="patch_9">
     <path d="M 436.373437 82.27125 
L 456.373437 82.27125 
L 456.373437 75.27125 
L 436.373437 75.27125 
z
" style="fill: #fa8072; fill-opacity: 0.25; stroke: #fa8072; stroke-linejoin: miter"/>
    </g>
    <g id="text_13">
     <!-- Deceased -->
     <g transform="translate(464.373437 82.27125) scale(0.1 -0.1)">
      <defs>
       <path id="Helvetica-63" d="M 1703 3444 
Q 2269 3444 2623 3169 
Q 2978 2894 3050 2222 
L 2503 2222 
Q 2453 2531 2275 2736 
Q 2097 2941 1703 2941 
Q 1166 2941 934 2416 
Q 784 2075 784 1575 
Q 784 1072 996 728 
Q 1209 384 1666 384 
Q 2016 384 2220 598 
Q 2425 813 2503 1184 
L 3050 1184 
Q 2956 519 2581 211 
Q 2206 -97 1622 -97 
Q 966 -97 575 383 
Q 184 863 184 1581 
Q 184 2463 612 2953 
Q 1041 3444 1703 3444 
z
M 1616 3428 
L 1616 3428 
z
" transform="scale(0.015625)"/>
       <path id="Helvetica-64" d="M 769 1634 
Q 769 1097 997 734 
Q 1225 372 1728 372 
Q 2119 372 2370 708 
Q 2622 1044 2622 1672 
Q 2622 2306 2362 2611 
Q 2103 2916 1722 2916 
Q 1297 2916 1033 2591 
Q 769 2266 769 1634 
z
M 1616 3406 
Q 2000 3406 2259 3244 
Q 2409 3150 2600 2916 
L 2600 4606 
L 3141 4606 
L 3141 0 
L 2634 0 
L 2634 466 
Q 2438 156 2169 18 
Q 1900 -119 1553 -119 
Q 994 -119 584 351 
Q 175 822 175 1603 
Q 175 2334 548 2870 
Q 922 3406 1616 3406 
z
" transform="scale(0.015625)"/>
      </defs>
      <use xlink:href="#Helvetica-44"/>
      <use xlink:href="#Helvetica-65" x="72.216797"/>
      <use xlink:href="#Helvetica-63" x="127.832031"/>
      <use xlink:href="#Helvetica-65" x="177.832031"/>
      <use xlink:href="#Helvetica-61" x="233.447266"/>
      <use xlink:href="#Helvetica-73" x="289.0625"/>
      <use xlink:href="#Helvetica-65" x="339.0625"/>
      <use xlink:href="#Helvetica-64" x="394.677734"/>
     </g>
    </g>
   </g>
  </g>
 </g>
 <defs>
  <clipPath id="p131387f0b9">
   <rect x="72" y="51.84" width="446.4" height="332.64"/>
  </clipPath>
 </defs>
</svg>
