<?xml version="1.0" encoding="utf-8" standalone="no"?>
<!DOCTYPE svg PUBLIC "-//W3C//DTD SVG 1.1//EN"
  "http://www.w3.org/Graphics/SVG/1.1/DTD/svg11.dtd">
<svg xmlns:xlink="http://www.w3.org/1999/xlink" width="576pt" height="432pt" viewBox="0 0 576 432" xmlns="http://www.w3.org/2000/svg" version="1.1">
 <metadata>
  <rdf:RDF xmlns:dc="http://purl.org/dc/elements/1.1/" xmlns:cc="http://creativecommons.org/ns#" xmlns:rdf="http://www.w3.org/1999/02/22-rdf-syntax-ns#">
   <cc:Work>
    <dc:type rdf:resource="http://purl.org/dc/dcmitype/StillImage"/>
    <dc:date>2023-11-06T21:01:34.325347</dc:date>
    <dc:format>image/svg+xml</dc:format>
    <dc:creator>
     <cc:Agent>
      <dc:title>Matplotlib v3.7.2, https://matplotlib.org/</dc:title>
     </cc:Agent>
    </dc:creator>
   </cc:Work>
  </rdf:RDF>
 </metadata>
 <defs>
  <style type="text/css">*{stroke-linejoin: round; stroke-linecap: butt}</style>
 </defs>
 <g id="figure_1">
  <g id="patch_1">
   <path d="M 0 432 
L 576 432 
L 576 0 
L 0 0 
z
" style="fill: #ffffff"/>
  </g>
  <g id="axes_1">
   <g id="patch_2">
    <path d="M 72 384.48 
L 518.4 384.48 
L 518.4 51.84 
L 72 51.84 
z
" style="fill: #ffffff"/>
   </g>
   <g id="PolyCollection_1">
    <defs>
     <path id="m93b93586cb" d="M 133.463391 -47.694436 
L 133.463391 -47.52 
L 135.295781 -47.52 
L 137.128172 -47.52 
L 138.960562 -47.52 
L 140.792953 -47.52 
L 142.625343 -47.52 
L 144.457734 -47.52 
L 146.290124 -47.52 
L 148.122515 -47.52 
L 149.954905 -47.52 
L 151.787295 -47.52 
L 153.619686 -47.52 
L 155.452076 -47.52 
L 157.284467 -47.52 
L 159.116857 -47.52 
L 160.949248 -47.52 
L 162.781638 -47.52 
L 164.614029 -47.52 
L 166.446419 -47.52 
L 168.27881 -47.52 
L 170.1112 -47.52 
L 171.94359 -47.52 
L 173.775981 -47.52 
L 175.608371 -47.52 
L 177.440762 -47.52 
L 179.273152 -47.52 
L 181.105543 -47.52 
L 182.937933 -47.52 
L 184.770324 -47.52 
L 186.602714 -47.52 
L 188.435105 -47.52 
L 190.267495 -47.52 
L 192.099885 -47.52 
L 193.932276 -47.52 
L 195.764666 -47.52 
L 197.597057 -47.52 
L 199.429447 -47.52 
L 201.261838 -47.52 
L 203.094228 -47.52 
L 204.926619 -47.52 
L 206.759009 -47.52 
L 208.591399 -47.52 
L 210.42379 -47.52 
L 212.25618 -47.52 
L 214.088571 -47.52 
L 215.920961 -47.52 
L 217.753352 -47.52 
L 219.585742 -47.52 
L 221.418133 -47.52 
L 223.250523 -47.52 
L 225.082914 -47.52 
L 226.915304 -47.52 
L 228.747694 -47.52 
L 230.580085 -47.52 
L 232.412475 -47.52 
L 234.244866 -47.52 
L 236.077256 -47.52 
L 237.909647 -47.52 
L 239.742037 -47.52 
L 241.574428 -47.52 
L 243.406818 -47.52 
L 245.239209 -47.52 
L 247.071599 -47.52 
L 248.903989 -47.52 
L 250.73638 -47.52 
L 252.56877 -47.52 
L 254.401161 -47.52 
L 256.233551 -47.52 
L 258.065942 -47.52 
L 259.898332 -47.52 
L 261.730723 -47.52 
L 263.563113 -47.52 
L 265.395503 -47.52 
L 267.227894 -47.52 
L 269.060284 -47.52 
L 270.892675 -47.52 
L 272.725065 -47.52 
L 274.557456 -47.52 
L 276.389846 -47.52 
L 278.222237 -47.52 
L 280.054627 -47.52 
L 281.887018 -47.52 
L 283.719408 -47.52 
L 285.551798 -47.52 
L 287.384189 -47.52 
L 289.216579 -47.52 
L 291.04897 -47.52 
L 292.88136 -47.52 
L 294.713751 -47.52 
L 296.546141 -47.52 
L 298.378532 -47.52 
L 300.210922 -47.52 
L 302.043313 -47.52 
L 303.875703 -47.52 
L 305.708093 -47.52 
L 307.540484 -47.52 
L 309.372874 -47.52 
L 311.205265 -47.52 
L 313.037655 -47.52 
L 314.870046 -47.52 
L 316.702436 -47.52 
L 318.534827 -47.52 
L 320.367217 -47.52 
L 322.199608 -47.52 
L 324.031998 -47.52 
L 325.864388 -47.52 
L 327.696779 -47.52 
L 329.529169 -47.52 
L 331.36156 -47.52 
L 333.19395 -47.52 
L 335.026341 -47.52 
L 336.858731 -47.52 
L 338.691122 -47.52 
L 340.523512 -47.52 
L 342.355902 -47.52 
L 344.188293 -47.52 
L 346.020683 -47.52 
L 347.853074 -47.52 
L 349.685464 -47.52 
L 351.517855 -47.52 
L 353.350245 -47.52 
L 355.182636 -47.52 
L 357.015026 -47.52 
L 358.847417 -47.52 
L 360.679807 -47.52 
L 362.512197 -47.52 
L 364.344588 -47.52 
L 366.176978 -47.52 
L 368.009369 -47.52 
L 369.841759 -47.52 
L 371.67415 -47.52 
L 373.50654 -47.52 
L 375.338931 -47.52 
L 377.171321 -47.52 
L 379.003712 -47.52 
L 380.836102 -47.52 
L 382.668492 -47.52 
L 384.500883 -47.52 
L 386.333273 -47.52 
L 388.165664 -47.52 
L 389.998054 -47.52 
L 391.830445 -47.52 
L 393.662835 -47.52 
L 395.495226 -47.52 
L 397.327616 -47.52 
L 399.160006 -47.52 
L 400.992397 -47.52 
L 402.824787 -47.52 
L 404.657178 -47.52 
L 406.489568 -47.52 
L 408.321959 -47.52 
L 410.154349 -47.52 
L 411.98674 -47.52 
L 413.81913 -47.52 
L 415.651521 -47.52 
L 417.483911 -47.52 
L 419.316301 -47.52 
L 421.148692 -47.52 
L 422.981082 -47.52 
L 424.813473 -47.52 
L 426.645863 -47.52 
L 428.478254 -47.52 
L 430.310644 -47.52 
L 432.143035 -47.52 
L 433.975425 -47.52 
L 435.807816 -47.52 
L 437.640206 -47.52 
L 439.472596 -47.52 
L 441.304987 -47.52 
L 443.137377 -47.52 
L 444.969768 -47.52 
L 446.802158 -47.52 
L 448.634549 -47.52 
L 450.466939 -47.52 
L 452.29933 -47.52 
L 454.13172 -47.52 
L 455.964111 -47.52 
L 457.796501 -47.52 
L 459.628891 -47.52 
L 461.461282 -47.52 
L 463.293672 -47.52 
L 465.126063 -47.52 
L 466.958453 -47.52 
L 468.790844 -47.52 
L 470.623234 -47.52 
L 472.455625 -47.52 
L 474.288015 -47.52 
L 476.120405 -47.52 
L 477.952796 -47.52 
L 479.785186 -47.52 
L 481.617577 -47.52 
L 483.449967 -47.52 
L 485.282358 -47.52 
L 487.114748 -47.52 
L 488.947139 -47.52 
L 490.779529 -47.52 
L 492.61192 -47.52 
L 494.44431 -47.52 
L 496.2767 -47.52 
L 498.109091 -47.52 
L 498.109091 -47.649984 
L 498.109091 -47.649984 
L 496.2767 -47.687111 
L 494.44431 -47.733302 
L 492.61192 -47.790308 
L 490.779529 -47.860094 
L 488.947139 -47.94483 
L 487.114748 -48.046878 
L 485.282358 -48.168764 
L 483.449967 -48.313133 
L 481.617577 -48.4827 
L 479.785186 -48.680181 
L 477.952796 -48.908205 
L 476.120405 -49.169224 
L 474.288015 -49.4654 
L 472.455625 -49.798494 
L 470.623234 -50.169748 
L 468.790844 -50.579762 
L 466.958453 -51.028389 
L 465.126063 -51.514637 
L 463.293672 -52.036593 
L 461.461282 -52.591378 
L 459.628891 -53.175129 
L 457.796501 -53.783026 
L 455.964111 -54.409362 
L 454.13172 -55.047648 
L 452.29933 -55.690771 
L 450.466939 -56.33119 
L 448.634549 -56.961157 
L 446.802158 -57.572978 
L 444.969768 -58.159275 
L 443.137377 -58.713255 
L 441.304987 -59.228974 
L 439.472596 -59.70156 
L 437.640206 -60.127415 
L 435.807816 -60.504351 
L 433.975425 -60.831673 
L 432.143035 -61.110198 
L 430.310644 -61.342197 
L 428.478254 -61.531275 
L 426.645863 -61.682189 
L 424.813473 -61.800614 
L 422.981082 -61.892865 
L 421.148692 -61.965608 
L 419.316301 -62.025558 
L 417.483911 -62.079193 
L 415.651521 -62.132503 
L 413.81913 -62.190789 
L 411.98674 -62.258519 
L 410.154349 -62.339257 
L 408.321959 -62.435672 
L 406.489568 -62.54961 
L 404.657178 -62.682249 
L 402.824787 -62.834292 
L 400.992397 -63.006218 
L 399.160006 -63.198545 
L 397.327616 -63.412094 
L 395.495226 -63.648237 
L 393.662835 -63.909099 
L 391.830445 -64.197701 
L 389.998054 -64.518029 
L 388.165664 -64.875017 
L 386.333273 -65.27444 
L 384.500883 -65.722721 
L 382.668492 -66.226656 
L 380.836102 -66.793075 
L 379.003712 -67.428451 
L 377.171321 -68.138489 
L 375.338931 -68.927706 
L 373.50654 -69.799042 
L 371.67415 -70.753517 
L 369.841759 -71.789966 
L 368.009369 -72.904857 
L 366.176978 -74.092224 
L 364.344588 -75.343713 
L 362.512197 -76.648743 
L 360.679807 -77.994797 
L 358.847417 -79.367802 
L 357.015026 -80.752621 
L 355.182636 -82.133606 
L 353.350245 -83.495223 
L 351.517855 -84.822693 
L 349.685464 -86.102652 
L 347.853074 -87.323792 
L 346.020683 -88.477462 
L 344.188293 -89.558219 
L 342.355902 -90.564298 
L 340.523512 -91.49799 
L 338.691122 -92.36593 
L 336.858731 -93.17927 
L 335.026341 -93.953738 
L 333.19395 -94.709586 
L 331.36156 -95.471423 
L 329.529169 -96.267938 
L 327.696779 -97.131517 
L 325.864388 -98.09776 
L 324.031998 -99.204913 
L 322.199608 -100.493218 
L 320.367217 -102.004202 
L 318.534827 -103.779914 
L 316.702436 -105.862124 
L 314.870046 -108.291504 
L 313.037655 -111.10681 
L 311.205265 -114.344074 
L 309.372874 -118.035829 
L 307.540484 -122.210379 
L 305.708093 -126.891129 
L 303.875703 -132.095978 
L 302.043313 -137.836802 
L 300.210922 -144.119007 
L 298.378532 -150.941177 
L 296.546141 -158.294805 
L 294.713751 -166.164115 
L 292.88136 -174.525965 
L 291.04897 -183.349835 
L 289.216579 -192.597896 
L 287.384189 -202.225163 
L 285.551798 -212.179723 
L 283.719408 -222.403057 
L 281.887018 -232.83044 
L 280.054627 -243.391439 
L 278.222237 -254.010508 
L 276.389846 -264.607676 
L 274.557456 -275.09934 
L 272.725065 -285.399159 
L 270.892675 -295.419038 
L 269.060284 -305.070192 
L 267.227894 -314.264287 
L 265.395503 -322.914626 
L 263.563113 -330.937361 
L 261.730723 -338.252707 
L 259.898332 -344.786131 
L 258.065942 -350.469488 
L 256.233551 -355.242066 
L 254.401161 -359.05154 
L 252.56877 -361.854785 
L 250.73638 -363.618555 
L 248.903989 -364.32 
L 247.071599 -363.947018 
L 245.239209 -362.498447 
L 243.406818 -359.984079 
L 241.574428 -356.42452 
L 239.742037 -351.850888 
L 237.909647 -346.304356 
L 236.077256 -339.835558 
L 234.244866 -332.503861 
L 232.412475 -324.376509 
L 230.580085 -315.527658 
L 228.747694 -306.037306 
L 226.915304 -295.990142 
L 225.082914 -285.474316 
L 223.250523 -274.580171 
L 221.418133 -263.398933 
L 219.585742 -252.021408 
L 217.753352 -240.536696 
L 215.920961 -229.030967 
L 214.088571 -217.586307 
L 212.25618 -206.279685 
L 210.42379 -195.182049 
L 208.591399 -184.357581 
L 206.759009 -173.863121 
L 204.926619 -163.74778 
L 203.094228 -154.052731 
L 201.261838 -144.811182 
L 199.429447 -136.048526 
L 197.597057 -127.782639 
L 195.764666 -120.024311 
L 193.932276 -112.77779 
L 192.099885 -106.041404 
L 190.267495 -99.808238 
L 188.435105 -94.066842 
L 186.602714 -88.80194 
L 184.770324 -83.995128 
L 182.937933 -79.625532 
L 181.105543 -75.670421 
L 179.273152 -72.105772 
L 177.440762 -68.90676 
L 175.608371 -66.048197 
L 173.775981 -63.504899 
L 171.94359 -61.252006 
L 170.1112 -59.265234 
L 168.27881 -57.521083 
L 166.446419 -55.99701 
L 164.614029 -54.671545 
L 162.781638 -53.524394 
L 160.949248 -52.5365 
L 159.116857 -51.690087 
L 157.284467 -50.968679 
L 155.452076 -50.357104 
L 153.619686 -49.841482 
L 151.787295 -49.409194 
L 149.954905 -49.048849 
L 148.122515 -48.75023 
L 146.290124 -48.504239 
L 144.457734 -48.302831 
L 142.625343 -48.138944 
L 140.792953 -48.006425 
L 138.960562 -47.89995 
L 137.128172 -47.814953 
L 135.295781 -47.747544 
L 133.463391 -47.694436 
z
" style="stroke: #87ceeb"/>
    </defs>
    <g clip-path="url(#p74f0f7f156)">
     <use xlink:href="#m93b93586cb" x="0" y="432" style="fill: #87ceeb; fill-opacity: 0.25; stroke: #87ceeb"/>
    </g>
   </g>
   <g id="PolyCollection_2">
    <defs>
     <path id="mb0b276902c" d="M 92.290909 -47.791904 
L 92.290909 -47.52 
L 94.246445 -47.52 
L 96.20198 -47.52 
L 98.157516 -47.52 
L 100.113051 -47.52 
L 102.068587 -47.52 
L 104.024122 -47.52 
L 105.979658 -47.52 
L 107.935194 -47.52 
L 109.890729 -47.52 
L 111.846265 -47.52 
L 113.8018 -47.52 
L 115.757336 -47.52 
L 117.712871 -47.52 
L 119.668407 -47.52 
L 121.623943 -47.52 
L 123.579478 -47.52 
L 125.535014 -47.52 
L 127.490549 -47.52 
L 129.446085 -47.52 
L 131.40162 -47.52 
L 133.357156 -47.52 
L 135.312691 -47.52 
L 137.268227 -47.52 
L 139.223763 -47.52 
L 141.179298 -47.52 
L 143.134834 -47.52 
L 145.090369 -47.52 
L 147.045905 -47.52 
L 149.00144 -47.52 
L 150.956976 -47.52 
L 152.912512 -47.52 
L 154.868047 -47.52 
L 156.823583 -47.52 
L 158.779118 -47.52 
L 160.734654 -47.52 
L 162.690189 -47.52 
L 164.645725 -47.52 
L 166.60126 -47.52 
L 168.556796 -47.52 
L 170.512332 -47.52 
L 172.467867 -47.52 
L 174.423403 -47.52 
L 176.378938 -47.52 
L 178.334474 -47.52 
L 180.290009 -47.52 
L 182.245545 -47.52 
L 184.201081 -47.52 
L 186.156616 -47.52 
L 188.112152 -47.52 
L 190.067687 -47.52 
L 192.023223 -47.52 
L 193.978758 -47.52 
L 195.934294 -47.52 
L 197.889829 -47.52 
L 199.845365 -47.52 
L 201.800901 -47.52 
L 203.756436 -47.52 
L 205.711972 -47.52 
L 207.667507 -47.52 
L 209.623043 -47.52 
L 211.578578 -47.52 
L 213.534114 -47.52 
L 215.48965 -47.52 
L 217.445185 -47.52 
L 219.400721 -47.52 
L 221.356256 -47.52 
L 223.311792 -47.52 
L 225.267327 -47.52 
L 227.222863 -47.52 
L 229.178398 -47.52 
L 231.133934 -47.52 
L 233.08947 -47.52 
L 235.045005 -47.52 
L 237.000541 -47.52 
L 238.956076 -47.52 
L 240.911612 -47.52 
L 242.867147 -47.52 
L 244.822683 -47.52 
L 246.778219 -47.52 
L 248.733754 -47.52 
L 250.68929 -47.52 
L 252.644825 -47.52 
L 254.600361 -47.52 
L 256.555896 -47.52 
L 258.511432 -47.52 
L 260.466967 -47.52 
L 262.422503 -47.52 
L 264.378039 -47.52 
L 266.333574 -47.52 
L 268.28911 -47.52 
L 270.244645 -47.52 
L 272.200181 -47.52 
L 274.155716 -47.52 
L 276.111252 -47.52 
L 278.066788 -47.52 
L 280.022323 -47.52 
L 281.977859 -47.52 
L 283.933394 -47.52 
L 285.88893 -47.52 
L 287.844465 -47.52 
L 289.800001 -47.52 
L 291.755537 -47.52 
L 293.711072 -47.52 
L 295.666608 -47.52 
L 297.622143 -47.52 
L 299.577679 -47.52 
L 301.533214 -47.52 
L 303.48875 -47.52 
L 305.444285 -47.52 
L 307.399821 -47.52 
L 309.355357 -47.52 
L 311.310892 -47.52 
L 313.266428 -47.52 
L 315.221963 -47.52 
L 317.177499 -47.52 
L 319.133034 -47.52 
L 321.08857 -47.52 
L 323.044106 -47.52 
L 324.999641 -47.52 
L 326.955177 -47.52 
L 328.910712 -47.52 
L 330.866248 -47.52 
L 332.821783 -47.52 
L 334.777319 -47.52 
L 336.732854 -47.52 
L 338.68839 -47.52 
L 340.643926 -47.52 
L 342.599461 -47.52 
L 344.554997 -47.52 
L 346.510532 -47.52 
L 348.466068 -47.52 
L 350.421603 -47.52 
L 352.377139 -47.52 
L 354.332675 -47.52 
L 356.28821 -47.52 
L 358.243746 -47.52 
L 360.199281 -47.52 
L 362.154817 -47.52 
L 364.110352 -47.52 
L 366.065888 -47.52 
L 368.021423 -47.52 
L 369.976959 -47.52 
L 371.932495 -47.52 
L 373.88803 -47.52 
L 375.843566 -47.52 
L 377.799101 -47.52 
L 379.754637 -47.52 
L 381.710172 -47.52 
L 383.665708 -47.52 
L 385.621244 -47.52 
L 387.576779 -47.52 
L 389.532315 -47.52 
L 391.48785 -47.52 
L 393.443386 -47.52 
L 395.398921 -47.52 
L 397.354457 -47.52 
L 399.309992 -47.52 
L 401.265528 -47.52 
L 403.221064 -47.52 
L 405.176599 -47.52 
L 407.132135 -47.52 
L 409.08767 -47.52 
L 411.043206 -47.52 
L 412.998741 -47.52 
L 414.954277 -47.52 
L 416.909813 -47.52 
L 418.865348 -47.52 
L 420.820884 -47.52 
L 422.776419 -47.52 
L 424.731955 -47.52 
L 426.68749 -47.52 
L 428.643026 -47.52 
L 430.598561 -47.52 
L 432.554097 -47.52 
L 434.509633 -47.52 
L 436.465168 -47.52 
L 438.420704 -47.52 
L 440.376239 -47.52 
L 442.331775 -47.52 
L 444.28731 -47.52 
L 446.242846 -47.52 
L 448.198382 -47.52 
L 450.153917 -47.52 
L 452.109453 -47.52 
L 454.064988 -47.52 
L 456.020524 -47.52 
L 457.976059 -47.52 
L 459.931595 -47.52 
L 461.88713 -47.52 
L 463.842666 -47.52 
L 465.798202 -47.52 
L 467.753737 -47.52 
L 469.709273 -47.52 
L 471.664808 -47.52 
L 473.620344 -47.52 
L 475.575879 -47.52 
L 477.531415 -47.52 
L 479.486951 -47.52 
L 481.442486 -47.52 
L 481.442486 -48.115436 
L 481.442486 -48.115436 
L 479.486951 -48.230782 
L 477.531415 -48.365796 
L 475.575879 -48.523282 
L 473.620344 -48.706345 
L 471.664808 -48.918398 
L 469.709273 -49.163176 
L 467.753737 -49.444742 
L 465.798202 -49.767489 
L 463.842666 -50.136141 
L 461.88713 -50.555742 
L 459.931595 -51.031645 
L 457.976059 -51.569489 
L 456.020524 -52.175173 
L 454.064988 -52.854813 
L 452.109453 -53.614703 
L 450.153917 -54.461252 
L 448.198382 -55.400928 
L 446.242846 -56.440173 
L 444.28731 -57.585331 
L 442.331775 -58.842544 
L 440.376239 -60.21766 
L 438.420704 -61.716121 
L 436.465168 -63.342849 
L 434.509633 -65.102129 
L 432.554097 -66.99749 
L 430.598561 -69.031578 
L 428.643026 -71.206043 
L 426.68749 -73.521418 
L 424.731955 -75.977013 
L 422.776419 -78.570818 
L 420.820884 -81.299411 
L 418.865348 -84.157894 
L 416.909813 -87.139831 
L 414.954277 -90.237224 
L 412.998741 -93.440497 
L 411.043206 -96.738512 
L 409.08767 -100.118611 
L 407.132135 -103.566682 
L 405.176599 -107.067259 
L 403.221064 -110.603642 
L 401.265528 -114.158051 
L 399.309992 -117.711808 
L 397.354457 -121.245531 
L 395.398921 -124.739369 
L 393.443386 -128.173237 
L 391.48785 -131.527084 
L 389.532315 -134.781156 
L 387.576779 -137.916279 
L 385.621244 -140.914138 
L 383.665708 -143.757554 
L 381.710172 -146.43075 
L 379.754637 -148.919612 
L 377.799101 -151.211922 
L 375.843566 -153.297575 
L 373.88803 -155.168764 
L 371.932495 -156.820134 
L 369.976959 -158.248906 
L 368.021423 -159.454955 
L 366.065888 -160.440853 
L 364.110352 -161.211871 
L 362.154817 -161.775937 
L 360.199281 -162.143552 
L 358.243746 -162.327668 
L 356.28821 -162.343526 
L 354.332675 -162.208454 
L 352.377139 -161.941639 
L 350.421603 -161.563863 
L 348.466068 -161.097218 
L 346.510532 -160.564801 
L 344.554997 -159.990386 
L 342.599461 -159.398099 
L 340.643926 -158.812079 
L 338.68839 -158.256136 
L 336.732854 -157.753428 
L 334.777319 -157.326135 
L 332.821783 -156.995156 
L 330.866248 -156.779822 
L 328.910712 -156.697634 
L 326.955177 -156.764028 
L 324.999641 -156.992168 
L 323.044106 -157.392775 
L 321.08857 -157.973987 
L 319.133034 -158.741253 
L 317.177499 -159.69727 
L 315.221963 -160.841951 
L 313.266428 -162.172434 
L 311.310892 -163.683119 
L 309.355357 -165.365756 
L 307.399821 -167.209548 
L 305.444285 -169.201301 
L 303.48875 -171.325596 
L 301.533214 -173.56499 
L 299.577679 -175.900243 
L 297.622143 -178.310566 
L 295.666608 -180.773886 
L 293.711072 -183.267125 
L 291.755537 -185.766495 
L 289.800001 -188.247792 
L 287.844465 -190.686699 
L 285.88893 -193.059087 
L 283.933394 -195.341305 
L 281.977859 -197.51047 
L 280.022323 -199.544733 
L 278.066788 -201.423536 
L 276.111252 -203.127841 
L 274.155716 -204.64034 
L 272.200181 -205.94563 
L 270.244645 -207.030366 
L 268.28911 -207.883374 
L 266.333574 -208.495735 
L 264.378039 -208.860832 
L 262.422503 -208.974357 
L 260.466967 -208.834294 
L 258.511432 -208.440857 
L 256.555896 -207.796402 
L 254.600361 -206.905308 
L 252.644825 -205.773826 
L 250.68929 -204.409919 
L 248.733754 -202.823064 
L 246.778219 -201.024052 
L 244.822683 -199.024777 
L 242.867147 -196.838011 
L 240.911612 -194.477187 
L 238.956076 -191.956183 
L 237.000541 -189.289113 
L 235.045005 -186.490128 
L 233.08947 -183.573241 
L 231.133934 -180.552161 
L 229.178398 -177.440156 
L 227.222863 -174.249935 
L 225.267327 -170.993552 
L 223.311792 -167.682344 
L 221.356256 -164.326881 
L 219.400721 -160.936947 
L 217.445185 -157.521543 
L 215.48965 -154.088907 
L 213.534114 -150.646548 
L 211.578578 -147.201304 
L 209.623043 -143.759402 
L 207.667507 -140.326531 
L 205.711972 -136.907916 
L 203.756436 -133.508401 
L 201.800901 -130.132523 
L 199.845365 -126.784583 
L 197.889829 -123.468716 
L 195.934294 -120.188949 
L 193.978758 -116.949248 
L 192.023223 -113.753556 
L 190.067687 -110.605817 
L 188.112152 -107.509992 
L 186.156616 -104.470063 
L 184.201081 -101.490018 
L 182.245545 -98.573838 
L 180.290009 -95.725468 
L 178.334474 -92.948781 
L 176.378938 -90.247537 
L 174.423403 -87.625342 
L 172.467867 -85.085599 
L 170.512332 -82.631461 
L 168.556796 -80.265789 
L 166.60126 -77.991105 
L 164.645725 -75.809559 
L 162.690189 -73.72289 
L 160.734654 -71.732408 
L 158.779118 -69.838965 
L 156.823583 -68.042951 
L 154.868047 -66.344284 
L 152.912512 -64.742416 
L 150.956976 -63.236345 
L 149.00144 -61.824626 
L 147.045905 -60.505401 
L 145.090369 -59.276426 
L 143.134834 -58.135103 
L 141.179298 -57.078518 
L 139.223763 -56.103482 
L 137.268227 -55.206576 
L 135.312691 -54.384187 
L 133.357156 -53.632558 
L 131.40162 -52.947826 
L 129.446085 -52.326068 
L 127.490549 -51.763334 
L 125.535014 -51.255689 
L 123.579478 -50.799243 
L 121.623943 -50.390181 
L 119.668407 -50.024793 
L 117.712871 -49.699493 
L 115.757336 -49.41084 
L 113.8018 -49.155552 
L 111.846265 -48.930521 
L 109.890729 -48.732818 
L 107.935194 -48.559701 
L 105.979658 -48.408614 
L 104.024122 -48.277192 
L 102.068587 -48.163256 
L 100.113051 -48.064806 
L 98.157516 -47.980021 
L 96.20198 -47.907246 
L 94.246445 -47.844988 
L 92.290909 -47.791904 
z
" style="stroke: #fa8072"/>
    </defs>
    <g clip-path="url(#p74f0f7f156)">
     <use xlink:href="#mb0b276902c" x="0" y="432" style="fill: #fa8072; fill-opacity: 0.25; stroke: #fa8072"/>
    </g>
   </g>
   <g id="matplotlib.axis_1">
    <g id="xtick_1">
     <g id="line2d_1">
      <defs>
       <path id="m07075bc8a2" d="M 0 0 
L 0 3.5 
" style="stroke: #000000; stroke-width: 0.8"/>
      </defs>
      <g>
       <use xlink:href="#m07075bc8a2" x="105.610738" y="384.48" style="stroke: #000000; stroke-width: 0.8"/>
      </g>
     </g>
     <g id="text_1">
      <!-- 0.0 -->
      <g transform="translate(98.660738 398.653437) scale(0.1 -0.1)">
       <defs>
        <path id="Helvetica-30" d="M 1731 4475 
Q 2600 4475 2988 3759 
Q 3288 3206 3288 2244 
Q 3288 1331 3016 734 
Q 2622 -122 1728 -122 
Q 922 -122 528 578 
Q 200 1163 200 2147 
Q 200 2909 397 3456 
Q 766 4475 1731 4475 
z
M 1725 391 
Q 2163 391 2422 778 
Q 2681 1166 2681 2222 
Q 2681 2984 2493 3476 
Q 2306 3969 1766 3969 
Q 1269 3969 1039 3501 
Q 809 3034 809 2125 
Q 809 1441 956 1025 
Q 1181 391 1725 391 
z
" transform="scale(0.015625)"/>
        <path id="Helvetica-2e" d="M 547 681 
L 1200 681 
L 1200 0 
L 547 0 
L 547 681 
z
" transform="scale(0.015625)"/>
       </defs>
       <use xlink:href="#Helvetica-30"/>
       <use xlink:href="#Helvetica-2e" x="55.615234"/>
       <use xlink:href="#Helvetica-30" x="83.398438"/>
      </g>
     </g>
    </g>
    <g id="xtick_2">
     <g id="line2d_2">
      <g>
       <use xlink:href="#m07075bc8a2" x="164.775107" y="384.48" style="stroke: #000000; stroke-width: 0.8"/>
      </g>
     </g>
     <g id="text_2">
      <!-- 2.5 -->
      <g transform="translate(157.825107 398.653437) scale(0.1 -0.1)">
       <defs>
        <path id="Helvetica-32" d="M 200 0 
Q 231 578 439 1006 
Q 647 1434 1250 1784 
L 1850 2131 
Q 2253 2366 2416 2531 
Q 2672 2791 2672 3125 
Q 2672 3516 2437 3745 
Q 2203 3975 1813 3975 
Q 1234 3975 1013 3538 
Q 894 3303 881 2888 
L 309 2888 
Q 319 3472 525 3841 
Q 891 4491 1816 4491 
Q 2584 4491 2939 4075 
Q 3294 3659 3294 3150 
Q 3294 2613 2916 2231 
Q 2697 2009 2131 1694 
L 1703 1456 
Q 1397 1288 1222 1134 
Q 909 863 828 531 
L 3272 531 
L 3272 0 
L 200 0 
z
" transform="scale(0.015625)"/>
        <path id="Helvetica-35" d="M 791 1141 
Q 847 659 1238 475 
Q 1438 381 1700 381 
Q 2200 381 2440 700 
Q 2681 1019 2681 1406 
Q 2681 1875 2395 2131 
Q 2109 2388 1709 2388 
Q 1419 2388 1211 2275 
Q 1003 2163 856 1963 
L 369 1991 
L 709 4400 
L 3034 4400 
L 3034 3856 
L 1131 3856 
L 941 2613 
Q 1097 2731 1238 2791 
Q 1488 2894 1816 2894 
Q 2431 2894 2859 2497 
Q 3288 2100 3288 1491 
Q 3288 856 2895 371 
Q 2503 -113 1644 -113 
Q 1097 -113 676 195 
Q 256 503 206 1141 
L 791 1141 
z
" transform="scale(0.015625)"/>
       </defs>
       <use xlink:href="#Helvetica-32"/>
       <use xlink:href="#Helvetica-2e" x="55.615234"/>
       <use xlink:href="#Helvetica-35" x="83.398438"/>
      </g>
     </g>
    </g>
    <g id="xtick_3">
     <g id="line2d_3">
      <g>
       <use xlink:href="#m07075bc8a2" x="223.939475" y="384.48" style="stroke: #000000; stroke-width: 0.8"/>
      </g>
     </g>
     <g id="text_3">
      <!-- 5.0 -->
      <g transform="translate(216.989475 398.653437) scale(0.1 -0.1)">
       <use xlink:href="#Helvetica-35"/>
       <use xlink:href="#Helvetica-2e" x="55.615234"/>
       <use xlink:href="#Helvetica-30" x="83.398438"/>
      </g>
     </g>
    </g>
    <g id="xtick_4">
     <g id="line2d_4">
      <g>
       <use xlink:href="#m07075bc8a2" x="283.103844" y="384.48" style="stroke: #000000; stroke-width: 0.8"/>
      </g>
     </g>
     <g id="text_4">
      <!-- 7.5 -->
      <g transform="translate(276.153844 398.653437) scale(0.1 -0.1)">
       <defs>
        <path id="Helvetica-37" d="M 3347 4400 
L 3347 3909 
Q 3131 3700 2773 3181 
Q 2416 2663 2141 2063 
Q 1869 1478 1728 997 
Q 1638 688 1494 0 
L 872 0 
Q 1084 1281 1809 2550 
Q 2238 3294 2709 3834 
L 234 3834 
L 234 4400 
L 3347 4400 
z
" transform="scale(0.015625)"/>
       </defs>
       <use xlink:href="#Helvetica-37"/>
       <use xlink:href="#Helvetica-2e" x="55.615234"/>
       <use xlink:href="#Helvetica-35" x="83.398438"/>
      </g>
     </g>
    </g>
    <g id="xtick_5">
     <g id="line2d_5">
      <g>
       <use xlink:href="#m07075bc8a2" x="342.268212" y="384.48" style="stroke: #000000; stroke-width: 0.8"/>
      </g>
     </g>
     <g id="text_5">
      <!-- 10.0 -->
      <g transform="translate(332.537744 398.653437) scale(0.1 -0.1)">
       <defs>
        <path id="Helvetica-31" d="M 613 3169 
L 613 3600 
Q 1222 3659 1462 3798 
Q 1703 3938 1822 4456 
L 2266 4456 
L 2266 0 
L 1666 0 
L 1666 3169 
L 613 3169 
z
" transform="scale(0.015625)"/>
       </defs>
       <use xlink:href="#Helvetica-31"/>
       <use xlink:href="#Helvetica-30" x="55.615234"/>
       <use xlink:href="#Helvetica-2e" x="111.230469"/>
       <use xlink:href="#Helvetica-30" x="139.013672"/>
      </g>
     </g>
    </g>
    <g id="xtick_6">
     <g id="line2d_6">
      <g>
       <use xlink:href="#m07075bc8a2" x="401.432581" y="384.48" style="stroke: #000000; stroke-width: 0.8"/>
      </g>
     </g>
     <g id="text_6">
      <!-- 12.5 -->
      <g transform="translate(391.702112 398.653437) scale(0.1 -0.1)">
       <use xlink:href="#Helvetica-31"/>
       <use xlink:href="#Helvetica-32" x="55.615234"/>
       <use xlink:href="#Helvetica-2e" x="111.230469"/>
       <use xlink:href="#Helvetica-35" x="139.013672"/>
      </g>
     </g>
    </g>
    <g id="xtick_7">
     <g id="line2d_7">
      <g>
       <use xlink:href="#m07075bc8a2" x="460.596949" y="384.48" style="stroke: #000000; stroke-width: 0.8"/>
      </g>
     </g>
     <g id="text_7">
      <!-- 15.0 -->
      <g transform="translate(450.866481 398.653437) scale(0.1 -0.1)">
       <use xlink:href="#Helvetica-31"/>
       <use xlink:href="#Helvetica-35" x="55.615234"/>
       <use xlink:href="#Helvetica-2e" x="111.230469"/>
       <use xlink:href="#Helvetica-30" x="139.013672"/>
      </g>
     </g>
    </g>
    <g id="text_8">
     <!-- Pore Diameter (um) -->
     <g transform="translate(251.303906 411.984688) scale(0.1 -0.1)">
      <defs>
       <path id="Helvetica-50" d="M 547 4591 
L 2613 4591 
Q 3225 4591 3600 4245 
Q 3975 3900 3975 3275 
Q 3975 2738 3640 2339 
Q 3306 1941 2613 1941 
L 1169 1941 
L 1169 0 
L 547 0 
L 547 4591 
z
M 3347 3272 
Q 3347 3778 2972 3959 
Q 2766 4056 2406 4056 
L 1169 4056 
L 1169 2466 
L 2406 2466 
Q 2825 2466 3086 2644 
Q 3347 2822 3347 3272 
z
" transform="scale(0.015625)"/>
       <path id="Helvetica-6f" d="M 1741 363 
Q 2300 363 2508 786 
Q 2716 1209 2716 1728 
Q 2716 2197 2566 2491 
Q 2328 2953 1747 2953 
Q 1231 2953 997 2559 
Q 763 2166 763 1609 
Q 763 1075 997 719 
Q 1231 363 1741 363 
z
M 1763 3444 
Q 2409 3444 2856 3012 
Q 3303 2581 3303 1744 
Q 3303 934 2909 406 
Q 2516 -122 1688 -122 
Q 997 -122 590 345 
Q 184 813 184 1600 
Q 184 2444 612 2944 
Q 1041 3444 1763 3444 
z
M 1744 3428 
L 1744 3428 
z
" transform="scale(0.015625)"/>
       <path id="Helvetica-72" d="M 428 3347 
L 963 3347 
L 963 2769 
Q 1028 2938 1284 3180 
Q 1541 3422 1875 3422 
Q 1891 3422 1928 3419 
Q 1966 3416 2056 3406 
L 2056 2813 
Q 2006 2822 1964 2825 
Q 1922 2828 1872 2828 
Q 1447 2828 1219 2554 
Q 991 2281 991 1925 
L 991 0 
L 428 0 
L 428 3347 
z
" transform="scale(0.015625)"/>
       <path id="Helvetica-65" d="M 1806 3422 
Q 2163 3422 2497 3255 
Q 2831 3088 3006 2822 
Q 3175 2569 3231 2231 
Q 3281 2000 3281 1494 
L 828 1494 
Q 844 984 1069 676 
Q 1294 369 1766 369 
Q 2206 369 2469 659 
Q 2619 828 2681 1050 
L 3234 1050 
Q 3213 866 3089 639 
Q 2966 413 2813 269 
Q 2556 19 2178 -69 
Q 1975 -119 1719 -119 
Q 1094 -119 659 336 
Q 225 791 225 1609 
Q 225 2416 662 2919 
Q 1100 3422 1806 3422 
z
M 2703 1941 
Q 2669 2306 2544 2525 
Q 2313 2931 1772 2931 
Q 1384 2931 1121 2651 
Q 859 2372 844 1941 
L 2703 1941 
z
M 1753 3428 
L 1753 3428 
z
" transform="scale(0.015625)"/>
       <path id="Helvetica-20" transform="scale(0.015625)"/>
       <path id="Helvetica-44" d="M 2250 531 
Q 2566 531 2769 597 
Q 3131 719 3363 1066 
Q 3547 1344 3628 1778 
Q 3675 2038 3675 2259 
Q 3675 3113 3336 3584 
Q 2997 4056 2244 4056 
L 1141 4056 
L 1141 531 
L 2250 531 
z
M 516 4591 
L 2375 4591 
Q 3322 4591 3844 3919 
Q 4309 3313 4309 2366 
Q 4309 1634 4034 1044 
Q 3550 0 2369 0 
L 516 0 
L 516 4591 
z
" transform="scale(0.015625)"/>
       <path id="Helvetica-69" d="M 413 3331 
L 984 3331 
L 984 0 
L 413 0 
L 413 3331 
z
M 413 4591 
L 984 4591 
L 984 3953 
L 413 3953 
L 413 4591 
z
" transform="scale(0.015625)"/>
       <path id="Helvetica-61" d="M 844 891 
Q 844 647 1022 506 
Q 1200 366 1444 366 
Q 1741 366 2019 503 
Q 2488 731 2488 1250 
L 2488 1703 
Q 2384 1638 2221 1594 
Q 2059 1550 1903 1531 
L 1563 1488 
Q 1256 1447 1103 1359 
Q 844 1213 844 891 
z
M 2206 2028 
Q 2400 2053 2466 2191 
Q 2503 2266 2503 2406 
Q 2503 2694 2298 2823 
Q 2094 2953 1713 2953 
Q 1272 2953 1088 2716 
Q 984 2584 953 2325 
L 428 2325 
Q 444 2944 830 3186 
Q 1216 3428 1725 3428 
Q 2316 3428 2684 3203 
Q 3050 2978 3050 2503 
L 3050 575 
Q 3050 488 3086 434 
Q 3122 381 3238 381 
Q 3275 381 3322 386 
Q 3369 391 3422 400 
L 3422 -16 
Q 3291 -53 3222 -62 
Q 3153 -72 3034 -72 
Q 2744 -72 2613 134 
Q 2544 244 2516 444 
Q 2344 219 2022 53 
Q 1700 -113 1313 -113 
Q 847 -113 551 170 
Q 256 453 256 878 
Q 256 1344 547 1600 
Q 838 1856 1309 1916 
L 2206 2028 
z
M 1741 3428 
L 1741 3428 
z
" transform="scale(0.015625)"/>
       <path id="Helvetica-6d" d="M 413 3347 
L 969 3347 
L 969 2872 
Q 1169 3119 1331 3231 
Q 1609 3422 1963 3422 
Q 2363 3422 2606 3225 
Q 2744 3113 2856 2894 
Q 3044 3163 3297 3292 
Q 3550 3422 3866 3422 
Q 4541 3422 4784 2934 
Q 4916 2672 4916 2228 
L 4916 0 
L 4331 0 
L 4331 2325 
Q 4331 2659 4164 2784 
Q 3997 2909 3756 2909 
Q 3425 2909 3186 2687 
Q 2947 2466 2947 1947 
L 2947 0 
L 2375 0 
L 2375 2184 
Q 2375 2525 2294 2681 
Q 2166 2916 1816 2916 
Q 1497 2916 1236 2669 
Q 975 2422 975 1775 
L 975 0 
L 413 0 
L 413 3347 
z
" transform="scale(0.015625)"/>
       <path id="Helvetica-74" d="M 525 4281 
L 1094 4281 
L 1094 3347 
L 1628 3347 
L 1628 2888 
L 1094 2888 
L 1094 703 
Q 1094 528 1213 469 
Q 1278 434 1431 434 
Q 1472 434 1519 436 
Q 1566 438 1628 444 
L 1628 0 
Q 1531 -28 1426 -40 
Q 1322 -53 1200 -53 
Q 806 -53 665 148 
Q 525 350 525 672 
L 525 2888 
L 72 2888 
L 72 3347 
L 525 3347 
L 525 4281 
z
" transform="scale(0.015625)"/>
       <path id="Helvetica-28" d="M 1894 4666 
Q 1403 3713 1256 3263 
Q 1034 2578 1034 1681 
Q 1034 775 1288 25 
Q 1444 -438 1903 -1306 
L 1525 -1306 
Q 1069 -594 959 -397 
Q 850 -200 722 138 
Q 547 600 478 1125 
Q 444 1397 444 1644 
Q 444 2569 734 3291 
Q 919 3750 1503 4666 
L 1894 4666 
z
" transform="scale(0.015625)"/>
       <path id="Helvetica-75" d="M 975 3347 
L 975 1125 
Q 975 869 1056 706 
Q 1206 406 1616 406 
Q 2203 406 2416 931 
Q 2531 1213 2531 1703 
L 2531 3347 
L 3094 3347 
L 3094 0 
L 2563 0 
L 2569 494 
Q 2459 303 2297 172 
Q 1975 -91 1516 -91 
Q 800 -91 541 388 
Q 400 644 400 1072 
L 400 3347 
L 975 3347 
z
M 1747 3428 
L 1747 3428 
z
" transform="scale(0.015625)"/>
       <path id="Helvetica-29" d="M 222 -1306 
Q 719 -338 863 106 
Q 1081 778 1081 1681 
Q 1081 2584 828 3334 
Q 672 3797 213 4666 
L 591 4666 
Q 1072 3897 1173 3717 
Q 1275 3538 1394 3222 
Q 1544 2831 1608 2450 
Q 1672 2069 1672 1716 
Q 1672 791 1378 66 
Q 1194 -400 613 -1306 
L 222 -1306 
z
" transform="scale(0.015625)"/>
      </defs>
      <use xlink:href="#Helvetica-50"/>
      <use xlink:href="#Helvetica-6f" x="66.699219"/>
      <use xlink:href="#Helvetica-72" x="122.314453"/>
      <use xlink:href="#Helvetica-65" x="155.615234"/>
      <use xlink:href="#Helvetica-20" x="211.230469"/>
      <use xlink:href="#Helvetica-44" x="239.013672"/>
      <use xlink:href="#Helvetica-69" x="311.230469"/>
      <use xlink:href="#Helvetica-61" x="333.447266"/>
      <use xlink:href="#Helvetica-6d" x="389.0625"/>
      <use xlink:href="#Helvetica-65" x="472.363281"/>
      <use xlink:href="#Helvetica-74" x="527.978516"/>
      <use xlink:href="#Helvetica-65" x="555.761719"/>
      <use xlink:href="#Helvetica-72" x="611.376953"/>
      <use xlink:href="#Helvetica-20" x="644.677734"/>
      <use xlink:href="#Helvetica-28" x="672.460938"/>
      <use xlink:href="#Helvetica-75" x="705.761719"/>
      <use xlink:href="#Helvetica-6d" x="761.376953"/>
      <use xlink:href="#Helvetica-29" x="844.677734"/>
     </g>
    </g>
   </g>
   <g id="matplotlib.axis_2">
    <g id="ytick_1">
     <g id="line2d_8">
      <defs>
       <path id="m08b2c0d7f0" d="M 0 0 
L -3.5 0 
" style="stroke: #000000; stroke-width: 0.8"/>
      </defs>
      <g>
       <use xlink:href="#m08b2c0d7f0" x="72" y="384.48" style="stroke: #000000; stroke-width: 0.8"/>
      </g>
     </g>
     <g id="text_9">
      <!-- 0.00 -->
      <g transform="translate(45.539062 388.066719) scale(0.1 -0.1)">
       <use xlink:href="#Helvetica-30"/>
       <use xlink:href="#Helvetica-2e" x="55.615234"/>
       <use xlink:href="#Helvetica-30" x="83.398438"/>
       <use xlink:href="#Helvetica-30" x="139.013672"/>
      </g>
     </g>
    </g>
    <g id="ytick_2">
     <g id="line2d_9">
      <g>
       <use xlink:href="#m08b2c0d7f0" x="72" y="324.340314" style="stroke: #000000; stroke-width: 0.8"/>
      </g>
     </g>
     <g id="text_10">
      <!-- 0.05 -->
      <g transform="translate(45.539062 327.927033) scale(0.1 -0.1)">
       <use xlink:href="#Helvetica-30"/>
       <use xlink:href="#Helvetica-2e" x="55.615234"/>
       <use xlink:href="#Helvetica-30" x="83.398438"/>
       <use xlink:href="#Helvetica-35" x="139.013672"/>
      </g>
     </g>
    </g>
    <g id="ytick_3">
     <g id="line2d_10">
      <g>
       <use xlink:href="#m08b2c0d7f0" x="72" y="264.200628" style="stroke: #000000; stroke-width: 0.8"/>
      </g>
     </g>
     <g id="text_11">
      <!-- 0.10 -->
      <g transform="translate(45.539062 267.787347) scale(0.1 -0.1)">
       <use xlink:href="#Helvetica-30"/>
       <use xlink:href="#Helvetica-2e" x="55.615234"/>
       <use xlink:href="#Helvetica-31" x="83.398438"/>
       <use xlink:href="#Helvetica-30" x="139.013672"/>
      </g>
     </g>
    </g>
    <g id="ytick_4">
     <g id="line2d_11">
      <g>
       <use xlink:href="#m08b2c0d7f0" x="72" y="204.060943" style="stroke: #000000; stroke-width: 0.8"/>
      </g>
     </g>
     <g id="text_12">
      <!-- 0.15 -->
      <g transform="translate(45.539062 207.647661) scale(0.1 -0.1)">
       <use xlink:href="#Helvetica-30"/>
       <use xlink:href="#Helvetica-2e" x="55.615234"/>
       <use xlink:href="#Helvetica-31" x="83.398438"/>
       <use xlink:href="#Helvetica-35" x="139.013672"/>
      </g>
     </g>
    </g>
    <g id="ytick_5">
     <g id="line2d_12">
      <g>
       <use xlink:href="#m08b2c0d7f0" x="72" y="143.921257" style="stroke: #000000; stroke-width: 0.8"/>
      </g>
     </g>
     <g id="text_13">
      <!-- 0.20 -->
      <g transform="translate(45.539062 147.507976) scale(0.1 -0.1)">
       <use xlink:href="#Helvetica-30"/>
       <use xlink:href="#Helvetica-2e" x="55.615234"/>
       <use xlink:href="#Helvetica-32" x="83.398438"/>
       <use xlink:href="#Helvetica-30" x="139.013672"/>
      </g>
     </g>
    </g>
    <g id="ytick_6">
     <g id="line2d_13">
      <g>
       <use xlink:href="#m08b2c0d7f0" x="72" y="83.781571" style="stroke: #000000; stroke-width: 0.8"/>
      </g>
     </g>
     <g id="text_14">
      <!-- 0.25 -->
      <g transform="translate(45.539062 87.36829) scale(0.1 -0.1)">
       <use xlink:href="#Helvetica-30"/>
       <use xlink:href="#Helvetica-2e" x="55.615234"/>
       <use xlink:href="#Helvetica-32" x="83.398438"/>
       <use xlink:href="#Helvetica-35" x="139.013672"/>
      </g>
     </g>
    </g>
    <g id="text_15">
     <!-- Density -->
     <g transform="translate(39.395312 234.831875) rotate(-90) scale(0.1 -0.1)">
      <defs>
       <path id="Helvetica-6e" d="M 413 3347 
L 947 3347 
L 947 2872 
Q 1184 3166 1450 3294 
Q 1716 3422 2041 3422 
Q 2753 3422 3003 2925 
Q 3141 2653 3141 2147 
L 3141 0 
L 2569 0 
L 2569 2109 
Q 2569 2416 2478 2603 
Q 2328 2916 1934 2916 
Q 1734 2916 1606 2875 
Q 1375 2806 1200 2600 
Q 1059 2434 1017 2257 
Q 975 2081 975 1753 
L 975 0 
L 413 0 
L 413 3347 
z
M 1734 3428 
L 1734 3428 
z
" transform="scale(0.015625)"/>
       <path id="Helvetica-73" d="M 747 1050 
Q 772 769 888 619 
Q 1100 347 1625 347 
Q 1938 347 2175 483 
Q 2413 619 2413 903 
Q 2413 1119 2222 1231 
Q 2100 1300 1741 1391 
L 1294 1503 
Q 866 1609 663 1741 
Q 300 1969 300 2372 
Q 300 2847 642 3140 
Q 984 3434 1563 3434 
Q 2319 3434 2653 2991 
Q 2863 2709 2856 2384 
L 2325 2384 
Q 2309 2575 2191 2731 
Q 1997 2953 1519 2953 
Q 1200 2953 1036 2831 
Q 872 2709 872 2509 
Q 872 2291 1088 2159 
Q 1213 2081 1456 2022 
L 1828 1931 
Q 2434 1784 2641 1647 
Q 2969 1431 2969 969 
Q 2969 522 2630 197 
Q 2291 -128 1597 -128 
Q 850 -128 539 211 
Q 228 550 206 1050 
L 747 1050 
z
M 1578 3428 
L 1578 3428 
z
" transform="scale(0.015625)"/>
       <path id="Helvetica-79" d="M 2503 3347 
L 3125 3347 
Q 3006 3025 2597 1878 
Q 2291 1016 2084 472 
Q 1597 -809 1397 -1090 
Q 1197 -1372 709 -1372 
Q 591 -1372 527 -1362 
Q 463 -1353 369 -1328 
L 369 -816 
Q 516 -856 581 -865 
Q 647 -875 697 -875 
Q 853 -875 926 -823 
Q 1000 -772 1050 -697 
Q 1066 -672 1162 -440 
Q 1259 -209 1303 -97 
L 66 3347 
L 703 3347 
L 1600 622 
L 2503 3347 
z
M 1597 3428 
L 1597 3428 
z
" transform="scale(0.015625)"/>
      </defs>
      <use xlink:href="#Helvetica-44"/>
      <use xlink:href="#Helvetica-65" x="72.216797"/>
      <use xlink:href="#Helvetica-6e" x="127.832031"/>
      <use xlink:href="#Helvetica-73" x="183.447266"/>
      <use xlink:href="#Helvetica-69" x="233.447266"/>
      <use xlink:href="#Helvetica-74" x="255.664062"/>
      <use xlink:href="#Helvetica-79" x="283.447266"/>
     </g>
    </g>
   </g>
   <g id="patch_3">
    <path d="M 72 384.48 
L 72 51.84 
" style="fill: none; stroke: #000000; stroke-width: 0.8; stroke-linejoin: miter; stroke-linecap: square"/>
   </g>
   <g id="patch_4">
    <path d="M 518.4 384.48 
L 518.4 51.84 
" style="fill: none; stroke: #000000; stroke-width: 0.8; stroke-linejoin: miter; stroke-linecap: square"/>
   </g>
   <g id="patch_5">
    <path d="M 72 384.48 
L 518.4 384.48 
" style="fill: none; stroke: #000000; stroke-width: 0.8; stroke-linejoin: miter; stroke-linecap: square"/>
   </g>
   <g id="patch_6">
    <path d="M 72 51.84 
L 518.4 51.84 
" style="fill: none; stroke: #000000; stroke-width: 0.8; stroke-linejoin: miter; stroke-linecap: square"/>
   </g>
   <g id="legend_1">
    <g id="patch_7">
     <path d="M 434.373437 88.355625 
L 511.4 88.355625 
Q 513.4 88.355625 513.4 86.355625 
L 513.4 58.84 
Q 513.4 56.84 511.4 56.84 
L 434.373437 56.84 
Q 432.373437 56.84 432.373437 58.84 
L 432.373437 86.355625 
Q 432.373437 88.355625 434.373437 88.355625 
z
" style="fill: #ffffff; opacity: 0.8; stroke: #cccccc; stroke-linejoin: miter"/>
    </g>
    <g id="patch_8">
     <path d="M 436.373437 68.013437 
L 456.373437 68.013437 
L 456.373437 61.013437 
L 436.373437 61.013437 
z
" style="fill: #87ceeb; fill-opacity: 0.25; stroke: #87ceeb; stroke-linejoin: miter"/>
    </g>
    <g id="text_16">
     <!-- Alive -->
     <g transform="translate(464.373437 68.013437) scale(0.1 -0.1)">
      <defs>
       <path id="Helvetica-41" d="M 2844 1881 
L 2147 3909 
L 1406 1881 
L 2844 1881 
z
M 1822 4591 
L 2525 4591 
L 4191 0 
L 3509 0 
L 3044 1375 
L 1228 1375 
L 731 0 
L 94 0 
L 1822 4591 
z
" transform="scale(0.015625)"/>
       <path id="Helvetica-6c" d="M 428 4591 
L 991 4591 
L 991 0 
L 428 0 
L 428 4591 
z
" transform="scale(0.015625)"/>
       <path id="Helvetica-76" d="M 688 3347 
L 1581 622 
L 2516 3347 
L 3131 3347 
L 1869 0 
L 1269 0 
L 34 3347 
L 688 3347 
z
" transform="scale(0.015625)"/>
      </defs>
      <use xlink:href="#Helvetica-41"/>
      <use xlink:href="#Helvetica-6c" x="66.699219"/>
      <use xlink:href="#Helvetica-69" x="88.916016"/>
      <use xlink:href="#Helvetica-76" x="111.132812"/>
      <use xlink:href="#Helvetica-65" x="161.132812"/>
     </g>
    </g>
    <g id="patch_9">
     <path d="M 436.373437 82.27125 
L 456.373437 82.27125 
L 456.373437 75.27125 
L 436.373437 75.27125 
z
" style="fill: #fa8072; fill-opacity: 0.25; stroke: #fa8072; stroke-linejoin: miter"/>
    </g>
    <g id="text_17">
     <!-- Deceased -->
     <g transform="translate(464.373437 82.27125) scale(0.1 -0.1)">
      <defs>
       <path id="Helvetica-63" d="M 1703 3444 
Q 2269 3444 2623 3169 
Q 2978 2894 3050 2222 
L 2503 2222 
Q 2453 2531 2275 2736 
Q 2097 2941 1703 2941 
Q 1166 2941 934 2416 
Q 784 2075 784 1575 
Q 784 1072 996 728 
Q 1209 384 1666 384 
Q 2016 384 2220 598 
Q 2425 813 2503 1184 
L 3050 1184 
Q 2956 519 2581 211 
Q 2206 -97 1622 -97 
Q 966 -97 575 383 
Q 184 863 184 1581 
Q 184 2463 612 2953 
Q 1041 3444 1703 3444 
z
M 1616 3428 
L 1616 3428 
z
" transform="scale(0.015625)"/>
       <path id="Helvetica-64" d="M 769 1634 
Q 769 1097 997 734 
Q 1225 372 1728 372 
Q 2119 372 2370 708 
Q 2622 1044 2622 1672 
Q 2622 2306 2362 2611 
Q 2103 2916 1722 2916 
Q 1297 2916 1033 2591 
Q 769 2266 769 1634 
z
M 1616 3406 
Q 2000 3406 2259 3244 
Q 2409 3150 2600 2916 
L 2600 4606 
L 3141 4606 
L 3141 0 
L 2634 0 
L 2634 466 
Q 2438 156 2169 18 
Q 1900 -119 1553 -119 
Q 994 -119 584 351 
Q 175 822 175 1603 
Q 175 2334 548 2870 
Q 922 3406 1616 3406 
z
" transform="scale(0.015625)"/>
      </defs>
      <use xlink:href="#Helvetica-44"/>
      <use xlink:href="#Helvetica-65" x="72.216797"/>
      <use xlink:href="#Helvetica-63" x="127.832031"/>
      <use xlink:href="#Helvetica-65" x="177.832031"/>
      <use xlink:href="#Helvetica-61" x="233.447266"/>
      <use xlink:href="#Helvetica-73" x="289.0625"/>
      <use xlink:href="#Helvetica-65" x="339.0625"/>
      <use xlink:href="#Helvetica-64" x="394.677734"/>
     </g>
    </g>
   </g>
  </g>
 </g>
 <defs>
  <clipPath id="p74f0f7f156">
   <rect x="72" y="51.84" width="446.4" height="332.64"/>
  </clipPath>
 </defs>
</svg>
