<?xml version="1.0" encoding="utf-8" standalone="no"?>
<!DOCTYPE svg PUBLIC "-//W3C//DTD SVG 1.1//EN"
  "http://www.w3.org/Graphics/SVG/1.1/DTD/svg11.dtd">
<svg xmlns:xlink="http://www.w3.org/1999/xlink" width="576pt" height="432pt" viewBox="0 0 576 432" xmlns="http://www.w3.org/2000/svg" version="1.1">
 <metadata>
  <rdf:RDF xmlns:dc="http://purl.org/dc/elements/1.1/" xmlns:cc="http://creativecommons.org/ns#" xmlns:rdf="http://www.w3.org/1999/02/22-rdf-syntax-ns#">
   <cc:Work>
    <dc:type rdf:resource="http://purl.org/dc/dcmitype/StillImage"/>
    <dc:date>2023-11-06T21:01:30.168927</dc:date>
    <dc:format>image/svg+xml</dc:format>
    <dc:creator>
     <cc:Agent>
      <dc:title>Matplotlib v3.7.2, https://matplotlib.org/</dc:title>
     </cc:Agent>
    </dc:creator>
   </cc:Work>
  </rdf:RDF>
 </metadata>
 <defs>
  <style type="text/css">*{stroke-linejoin: round; stroke-linecap: butt}</style>
 </defs>
 <g id="figure_1">
  <g id="patch_1">
   <path d="M 0 432 
L 576 432 
L 576 0 
L 0 0 
z
" style="fill: #ffffff"/>
  </g>
  <g id="axes_1">
   <g id="patch_2">
    <path d="M 72 384.48 
L 518.4 384.48 
L 518.4 51.84 
L 72 51.84 
z
" style="fill: #ffffff"/>
   </g>
   <g id="PolyCollection_1">
    <defs>
     <path id="m2ff86edffa" d="M 200.007858 -47.68191 
L 200.007858 -47.52 
L 201.023552 -47.52 
L 202.039245 -47.52 
L 203.054939 -47.52 
L 204.070632 -47.52 
L 205.086326 -47.52 
L 206.102019 -47.52 
L 207.117713 -47.52 
L 208.133406 -47.52 
L 209.1491 -47.52 
L 210.164793 -47.52 
L 211.180487 -47.52 
L 212.19618 -47.52 
L 213.211874 -47.52 
L 214.227568 -47.52 
L 215.243261 -47.52 
L 216.258955 -47.52 
L 217.274648 -47.52 
L 218.290342 -47.52 
L 219.306035 -47.52 
L 220.321729 -47.52 
L 221.337422 -47.52 
L 222.353116 -47.52 
L 223.368809 -47.52 
L 224.384503 -47.52 
L 225.400196 -47.52 
L 226.41589 -47.52 
L 227.431583 -47.52 
L 228.447277 -47.52 
L 229.46297 -47.52 
L 230.478664 -47.52 
L 231.494357 -47.52 
L 232.510051 -47.52 
L 233.525744 -47.52 
L 234.541438 -47.52 
L 235.557131 -47.52 
L 236.572825 -47.52 
L 237.588518 -47.52 
L 238.604212 -47.52 
L 239.619905 -47.52 
L 240.635599 -47.52 
L 241.651292 -47.52 
L 242.666986 -47.52 
L 243.682679 -47.52 
L 244.698373 -47.52 
L 245.714067 -47.52 
L 246.72976 -47.52 
L 247.745454 -47.52 
L 248.761147 -47.52 
L 249.776841 -47.52 
L 250.792534 -47.52 
L 251.808228 -47.52 
L 252.823921 -47.52 
L 253.839615 -47.52 
L 254.855308 -47.52 
L 255.871002 -47.52 
L 256.886695 -47.52 
L 257.902389 -47.52 
L 258.918082 -47.52 
L 259.933776 -47.52 
L 260.949469 -47.52 
L 261.965163 -47.52 
L 262.980856 -47.52 
L 263.99655 -47.52 
L 265.012243 -47.52 
L 266.027937 -47.52 
L 267.04363 -47.52 
L 268.059324 -47.52 
L 269.075017 -47.52 
L 270.090711 -47.52 
L 271.106404 -47.52 
L 272.122098 -47.52 
L 273.137791 -47.52 
L 274.153485 -47.52 
L 275.169179 -47.52 
L 276.184872 -47.52 
L 277.200566 -47.52 
L 278.216259 -47.52 
L 279.231953 -47.52 
L 280.247646 -47.52 
L 281.26334 -47.52 
L 282.279033 -47.52 
L 283.294727 -47.52 
L 284.31042 -47.52 
L 285.326114 -47.52 
L 286.341807 -47.52 
L 287.357501 -47.52 
L 288.373194 -47.52 
L 289.388888 -47.52 
L 290.404581 -47.52 
L 291.420275 -47.52 
L 292.435968 -47.52 
L 293.451662 -47.52 
L 294.467355 -47.52 
L 295.483049 -47.52 
L 296.498742 -47.52 
L 297.514436 -47.52 
L 298.530129 -47.52 
L 299.545823 -47.52 
L 300.561516 -47.52 
L 301.57721 -47.52 
L 302.592903 -47.52 
L 303.608597 -47.52 
L 304.62429 -47.52 
L 305.639984 -47.52 
L 306.655678 -47.52 
L 307.671371 -47.52 
L 308.687065 -47.52 
L 309.702758 -47.52 
L 310.718452 -47.52 
L 311.734145 -47.52 
L 312.749839 -47.52 
L 313.765532 -47.52 
L 314.781226 -47.52 
L 315.796919 -47.52 
L 316.812613 -47.52 
L 317.828306 -47.52 
L 318.844 -47.52 
L 319.859693 -47.52 
L 320.875387 -47.52 
L 321.89108 -47.52 
L 322.906774 -47.52 
L 323.922467 -47.52 
L 324.938161 -47.52 
L 325.953854 -47.52 
L 326.969548 -47.52 
L 327.985241 -47.52 
L 329.000935 -47.52 
L 330.016628 -47.52 
L 331.032322 -47.52 
L 332.048015 -47.52 
L 333.063709 -47.52 
L 334.079402 -47.52 
L 335.095096 -47.52 
L 336.11079 -47.52 
L 337.126483 -47.52 
L 338.142177 -47.52 
L 339.15787 -47.52 
L 340.173564 -47.52 
L 341.189257 -47.52 
L 342.204951 -47.52 
L 343.220644 -47.52 
L 344.236338 -47.52 
L 345.252031 -47.52 
L 346.267725 -47.52 
L 347.283418 -47.52 
L 348.299112 -47.52 
L 349.314805 -47.52 
L 350.330499 -47.52 
L 351.346192 -47.52 
L 352.361886 -47.52 
L 353.377579 -47.52 
L 354.393273 -47.52 
L 355.408966 -47.52 
L 356.42466 -47.52 
L 357.440353 -47.52 
L 358.456047 -47.52 
L 359.47174 -47.52 
L 360.487434 -47.52 
L 361.503127 -47.52 
L 362.518821 -47.52 
L 363.534514 -47.52 
L 364.550208 -47.52 
L 365.565901 -47.52 
L 366.581595 -47.52 
L 367.597289 -47.52 
L 368.612982 -47.52 
L 369.628676 -47.52 
L 370.644369 -47.52 
L 371.660063 -47.52 
L 372.675756 -47.52 
L 373.69145 -47.52 
L 374.707143 -47.52 
L 375.722837 -47.52 
L 376.73853 -47.52 
L 377.754224 -47.52 
L 378.769917 -47.52 
L 379.785611 -47.52 
L 380.801304 -47.52 
L 381.816998 -47.52 
L 382.832691 -47.52 
L 383.848385 -47.52 
L 384.864078 -47.52 
L 385.879772 -47.52 
L 386.895465 -47.52 
L 387.911159 -47.52 
L 388.926852 -47.52 
L 389.942546 -47.52 
L 390.958239 -47.52 
L 391.973933 -47.52 
L 392.989626 -47.52 
L 394.00532 -47.52 
L 395.021013 -47.52 
L 396.036707 -47.52 
L 397.052401 -47.52 
L 398.068094 -47.52 
L 399.083788 -47.52 
L 400.099481 -47.52 
L 401.115175 -47.52 
L 402.130868 -47.52 
L 402.130868 -47.980666 
L 402.130868 -47.980666 
L 401.115175 -48.104427 
L 400.099481 -48.257197 
L 399.083788 -48.444595 
L 398.068094 -48.673028 
L 397.052401 -48.949731 
L 396.036707 -49.282796 
L 395.021013 -49.681172 
L 394.00532 -50.154656 
L 392.989626 -50.713845 
L 391.973933 -51.370061 
L 390.958239 -52.135244 
L 389.942546 -53.021801 
L 388.926852 -54.042425 
L 387.911159 -55.209868 
L 386.895465 -56.536684 
L 385.879772 -58.034937 
L 384.864078 -59.715877 
L 383.848385 -61.589607 
L 382.832691 -63.664729 
L 381.816998 -65.948004 
L 380.801304 -68.444016 
L 379.785611 -71.154871 
L 378.769917 -74.079939 
L 377.754224 -77.215654 
L 376.73853 -80.555383 
L 375.722837 -84.089377 
L 374.707143 -87.804822 
L 373.69145 -91.685975 
L 372.675756 -95.714409 
L 371.660063 -99.869354 
L 370.644369 -104.12813 
L 369.628676 -108.466655 
L 368.612982 -112.860026 
L 367.597289 -117.283141 
L 366.581595 -121.711348 
L 365.565901 -126.121091 
L 364.550208 -130.490534 
L 363.534514 -134.800136 
L 362.518821 -139.033145 
L 361.503127 -143.17601 
L 360.487434 -147.218674 
L 359.47174 -151.154751 
L 358.456047 -154.981569 
L 357.440353 -158.700093 
L 356.42466 -162.314718 
L 355.408966 -165.832963 
L 354.393273 -169.265067 
L 353.377579 -172.623512 
L 352.361886 -175.922513 
L 351.346192 -179.177479 
L 350.330499 -182.40449 
L 349.314805 -185.619805 
L 348.299112 -188.83943 
L 347.283418 -192.078763 
L 346.267725 -195.352326 
L 345.252031 -198.673593 
L 344.236338 -202.054919 
L 343.220644 -205.507555 
L 342.204951 -209.041739 
L 341.189257 -212.666851 
L 340.173564 -216.391598 
L 339.15787 -220.224214 
L 338.142177 -224.17264 
L 337.126483 -228.24466 
L 336.11079 -232.447964 
L 335.095096 -236.790129 
L 334.079402 -241.27848 
L 333.063709 -245.91985 
L 332.048015 -250.720207 
L 331.032322 -255.684179 
L 330.016628 -260.814475 
L 329.000935 -266.111228 
L 327.985241 -271.571291 
L 326.969548 -277.187515 
L 325.953854 -282.94804 
L 324.938161 -288.83566 
L 323.922467 -294.827264 
L 322.906774 -300.893433 
L 321.89108 -306.998189 
L 320.875387 -313.098948 
L 319.859693 -319.14668 
L 318.844 -325.086307 
L 317.828306 -330.857321 
L 316.812613 -336.394635 
L 315.796919 -341.629636 
L 314.781226 -346.491427 
L 313.765532 -350.908219 
L 312.749839 -354.808837 
L 311.734145 -358.124297 
L 310.718452 -360.789405 
L 309.702758 -362.744331 
L 308.687065 -363.936105 
L 307.671371 -364.32 
L 306.655678 -363.860747 
L 305.639984 -362.533551 
L 304.62429 -360.324884 
L 303.608597 -357.233013 
L 302.592903 -353.268277 
L 301.57721 -348.453076 
L 300.561516 -342.82159 
L 299.545823 -336.419246 
L 298.530129 -329.301919 
L 297.514436 -321.534926 
L 296.498742 -313.191816 
L 295.483049 -304.352996 
L 294.467355 -295.104232 
L 293.451662 -285.535059 
L 292.435968 -275.737138 
L 291.420275 -265.802603 
L 290.404581 -255.822424 
L 289.388888 -245.884833 
L 288.373194 -236.073848 
L 287.357501 -226.467903 
L 286.341807 -217.138642 
L 285.326114 -208.149869 
L 284.31042 -199.556697 
L 283.294727 -191.404895 
L 282.279033 -183.730445 
L 281.26334 -176.559323 
L 280.247646 -169.907489 
L 279.231953 -163.781105 
L 278.216259 -158.176941 
L 277.200566 -153.082988 
L 276.184872 -148.479234 
L 275.169179 -144.3386 
L 274.153485 -140.627996 
L 273.137791 -137.309471 
L 272.122098 -134.341438 
L 271.106404 -131.679915 
L 270.090711 -129.279772 
L 269.075017 -127.095934 
L 268.059324 -125.084516 
L 267.04363 -123.20385 
L 266.027937 -121.415385 
L 265.012243 -119.684444 
L 263.99655 -117.980794 
L 262.980856 -116.279061 
L 261.965163 -114.558943 
L 260.949469 -112.805253 
L 259.933776 -111.007793 
L 258.918082 -109.161068 
L 257.902389 -107.263868 
L 256.886695 -105.318744 
L 255.871002 -103.331395 
L 254.855308 -101.310011 
L 253.839615 -99.264587 
L 252.823921 -97.206251 
L 251.808228 -95.146621 
L 250.792534 -93.097223 
L 249.776841 -91.068985 
L 248.761147 -89.071818 
L 247.745454 -87.114309 
L 246.72976 -85.203503 
L 245.714067 -83.3448 
L 244.698373 -81.541944 
L 243.682679 -79.797097 
L 242.666986 -78.110985 
L 241.651292 -76.483108 
L 240.635599 -74.911975 
L 239.619905 -73.395378 
L 238.604212 -71.930658 
L 237.588518 -70.514964 
L 236.572825 -69.145493 
L 235.557131 -67.819688 
L 234.541438 -66.5354 
L 233.525744 -65.291003 
L 232.510051 -64.085456 
L 231.494357 -62.918326 
L 230.478664 -61.789765 
L 229.46297 -60.700449 
L 228.447277 -59.651487 
L 227.431583 -58.644317 
L 226.41589 -57.680576 
L 225.400196 -56.761976 
L 224.384503 -55.890177 
L 223.368809 -55.066673 
L 222.353116 -54.292691 
L 221.337422 -53.569108 
L 220.321729 -52.896388 
L 219.306035 -52.274549 
L 218.290342 -51.703143 
L 217.274648 -51.181256 
L 216.258955 -50.707538 
L 215.243261 -50.280234 
L 214.227568 -49.89724 
L 213.211874 -49.556154 
L 212.19618 -49.254346 
L 211.180487 -48.989021 
L 210.164793 -48.757283 
L 209.1491 -48.556198 
L 208.133406 -48.382849 
L 207.117713 -48.234385 
L 206.102019 -48.108064 
L 205.086326 -48.001284 
L 204.070632 -47.911609 
L 203.054939 -47.836791 
L 202.039245 -47.774773 
L 201.023552 -47.723699 
L 200.007858 -47.68191 
z
" style="stroke: #87ceeb"/>
    </defs>
    <g clip-path="url(#p4b5dbbe85f)">
     <use xlink:href="#m2ff86edffa" x="0" y="432" style="fill: #87ceeb; fill-opacity: 0.25; stroke: #87ceeb"/>
    </g>
   </g>
   <g id="PolyCollection_2">
    <defs>
     <path id="mc26bd2c087" d="M 92.290909 -47.686654 
L 92.290909 -47.52 
L 94.330196 -47.52 
L 96.369484 -47.52 
L 98.408771 -47.52 
L 100.448058 -47.52 
L 102.487346 -47.52 
L 104.526633 -47.52 
L 106.565921 -47.52 
L 108.605208 -47.52 
L 110.644495 -47.52 
L 112.683783 -47.52 
L 114.72307 -47.52 
L 116.762357 -47.52 
L 118.801645 -47.52 
L 120.840932 -47.52 
L 122.880219 -47.52 
L 124.919507 -47.52 
L 126.958794 -47.52 
L 128.998081 -47.52 
L 131.037369 -47.52 
L 133.076656 -47.52 
L 135.115943 -47.52 
L 137.155231 -47.52 
L 139.194518 -47.52 
L 141.233805 -47.52 
L 143.273093 -47.52 
L 145.31238 -47.52 
L 147.351667 -47.52 
L 149.390955 -47.52 
L 151.430242 -47.52 
L 153.469529 -47.52 
L 155.508817 -47.52 
L 157.548104 -47.52 
L 159.587392 -47.52 
L 161.626679 -47.52 
L 163.665966 -47.52 
L 165.705254 -47.52 
L 167.744541 -47.52 
L 169.783828 -47.52 
L 171.823116 -47.52 
L 173.862403 -47.52 
L 175.90169 -47.52 
L 177.940978 -47.52 
L 179.980265 -47.52 
L 182.019552 -47.52 
L 184.05884 -47.52 
L 186.098127 -47.52 
L 188.137414 -47.52 
L 190.176702 -47.52 
L 192.215989 -47.52 
L 194.255276 -47.52 
L 196.294564 -47.52 
L 198.333851 -47.52 
L 200.373138 -47.52 
L 202.412426 -47.52 
L 204.451713 -47.52 
L 206.491 -47.52 
L 208.530288 -47.52 
L 210.569575 -47.52 
L 212.608862 -47.52 
L 214.64815 -47.52 
L 216.687437 -47.52 
L 218.726725 -47.52 
L 220.766012 -47.52 
L 222.805299 -47.52 
L 224.844587 -47.52 
L 226.883874 -47.52 
L 228.923161 -47.52 
L 230.962449 -47.52 
L 233.001736 -47.52 
L 235.041023 -47.52 
L 237.080311 -47.52 
L 239.119598 -47.52 
L 241.158885 -47.52 
L 243.198173 -47.52 
L 245.23746 -47.52 
L 247.276747 -47.52 
L 249.316035 -47.52 
L 251.355322 -47.52 
L 253.394609 -47.52 
L 255.433897 -47.52 
L 257.473184 -47.52 
L 259.512471 -47.52 
L 261.551759 -47.52 
L 263.591046 -47.52 
L 265.630333 -47.52 
L 267.669621 -47.52 
L 269.708908 -47.52 
L 271.748196 -47.52 
L 273.787483 -47.52 
L 275.82677 -47.52 
L 277.866058 -47.52 
L 279.905345 -47.52 
L 281.944632 -47.52 
L 283.98392 -47.52 
L 286.023207 -47.52 
L 288.062494 -47.52 
L 290.101782 -47.52 
L 292.141069 -47.52 
L 294.180356 -47.52 
L 296.219644 -47.52 
L 298.258931 -47.52 
L 300.298218 -47.52 
L 302.337506 -47.52 
L 304.376793 -47.52 
L 306.41608 -47.52 
L 308.455368 -47.52 
L 310.494655 -47.52 
L 312.533942 -47.52 
L 314.57323 -47.52 
L 316.612517 -47.52 
L 318.651804 -47.52 
L 320.691092 -47.52 
L 322.730379 -47.52 
L 324.769667 -47.52 
L 326.808954 -47.52 
L 328.848241 -47.52 
L 330.887529 -47.52 
L 332.926816 -47.52 
L 334.966103 -47.52 
L 337.005391 -47.52 
L 339.044678 -47.52 
L 341.083965 -47.52 
L 343.123253 -47.52 
L 345.16254 -47.52 
L 347.201827 -47.52 
L 349.241115 -47.52 
L 351.280402 -47.52 
L 353.319689 -47.52 
L 355.358977 -47.52 
L 357.398264 -47.52 
L 359.437551 -47.52 
L 361.476839 -47.52 
L 363.516126 -47.52 
L 365.555413 -47.52 
L 367.594701 -47.52 
L 369.633988 -47.52 
L 371.673275 -47.52 
L 373.712563 -47.52 
L 375.75185 -47.52 
L 377.791138 -47.52 
L 379.830425 -47.52 
L 381.869712 -47.52 
L 383.909 -47.52 
L 385.948287 -47.52 
L 387.987574 -47.52 
L 390.026862 -47.52 
L 392.066149 -47.52 
L 394.105436 -47.52 
L 396.144724 -47.52 
L 398.184011 -47.52 
L 400.223298 -47.52 
L 402.262586 -47.52 
L 404.301873 -47.52 
L 406.34116 -47.52 
L 408.380448 -47.52 
L 410.419735 -47.52 
L 412.459022 -47.52 
L 414.49831 -47.52 
L 416.537597 -47.52 
L 418.576884 -47.52 
L 420.616172 -47.52 
L 422.655459 -47.52 
L 424.694746 -47.52 
L 426.734034 -47.52 
L 428.773321 -47.52 
L 430.812608 -47.52 
L 432.851896 -47.52 
L 434.891183 -47.52 
L 436.930471 -47.52 
L 438.969758 -47.52 
L 441.009045 -47.52 
L 443.048333 -47.52 
L 445.08762 -47.52 
L 447.126907 -47.52 
L 449.166195 -47.52 
L 451.205482 -47.52 
L 453.244769 -47.52 
L 455.284057 -47.52 
L 457.323344 -47.52 
L 459.362631 -47.52 
L 461.401919 -47.52 
L 463.441206 -47.52 
L 465.480493 -47.52 
L 467.519781 -47.52 
L 469.559068 -47.52 
L 471.598355 -47.52 
L 473.637643 -47.52 
L 475.67693 -47.52 
L 477.716217 -47.52 
L 479.755505 -47.52 
L 481.794792 -47.52 
L 483.834079 -47.52 
L 485.873367 -47.52 
L 487.912654 -47.52 
L 489.951942 -47.52 
L 491.991229 -47.52 
L 494.030516 -47.52 
L 496.069804 -47.52 
L 498.109091 -47.52 
L 498.109091 -47.736763 
L 498.109091 -47.736763 
L 496.069804 -47.784043 
L 494.030516 -47.840386 
L 491.991229 -47.907244 
L 489.951942 -47.986243 
L 487.912654 -48.07919 
L 485.873367 -48.188082 
L 483.834079 -48.315112 
L 481.794792 -48.462668 
L 479.755505 -48.633335 
L 477.716217 -48.829888 
L 475.67693 -49.055285 
L 473.637643 -49.31265 
L 471.598355 -49.605257 
L 469.559068 -49.936502 
L 467.519781 -50.309875 
L 465.480493 -50.728922 
L 463.441206 -51.197204 
L 461.401919 -51.718248 
L 459.362631 -52.295498 
L 457.323344 -52.932255 
L 455.284057 -53.631618 
L 453.244769 -54.396424 
L 451.205482 -55.229186 
L 449.166195 -56.132024 
L 447.126907 -57.106616 
L 445.08762 -58.154132 
L 443.048333 -59.275191 
L 441.009045 -60.469817 
L 438.969758 -61.737405 
L 436.930471 -63.076701 
L 434.891183 -64.485792 
L 432.851896 -65.962112 
L 430.812608 -67.502462 
L 428.773321 -69.103043 
L 426.734034 -70.759511 
L 424.694746 -72.467036 
L 422.655459 -74.220388 
L 420.616172 -76.014026 
L 418.576884 -77.842203 
L 416.537597 -79.69908 
L 414.49831 -81.578842 
L 412.459022 -83.475825 
L 410.419735 -85.384633 
L 408.380448 -87.300259 
L 406.34116 -89.218196 
L 404.301873 -91.134538 
L 402.262586 -93.046066 
L 400.223298 -94.950317 
L 398.184011 -96.845635 
L 396.144724 -98.731193 
L 394.105436 -100.607006 
L 392.066149 -102.473897 
L 390.026862 -104.333462 
L 387.987574 -106.187989 
L 385.948287 -108.040369 
L 383.909 -109.893976 
L 381.869712 -111.75253 
L 379.830425 -113.619951 
L 377.791138 -115.500191 
L 375.75185 -117.397066 
L 373.712563 -119.314082 
L 371.673275 -121.254267 
L 369.633988 -123.22001 
L 367.594701 -125.212909 
L 365.555413 -127.23364 
L 363.516126 -129.281849 
L 361.476839 -131.35607 
L 359.437551 -133.45367 
L 357.398264 -135.570824 
L 355.358977 -137.702533 
L 353.319689 -139.842668 
L 351.280402 -141.984049 
L 349.241115 -144.118557 
L 347.201827 -146.237281 
L 345.16254 -148.330686 
L 343.123253 -150.388804 
L 341.083965 -152.401449 
L 339.044678 -154.358432 
L 337.005391 -156.249795 
L 334.966103 -158.066033 
L 332.926816 -159.798311 
L 330.887529 -161.43867 
L 328.848241 -162.980202 
L 326.808954 -164.417209 
L 324.769667 -165.745318 
L 322.730379 -166.961566 
L 320.691092 -168.064438 
L 318.651804 -169.053866 
L 316.612517 -169.931185 
L 314.57323 -170.699037 
L 312.533942 -171.361246 
L 310.494655 -171.922639 
L 308.455368 -172.388853 
L 306.41608 -172.766092 
L 304.376793 -173.060883 
L 302.337506 -173.279809 
L 300.298218 -173.429236 
L 298.258931 -173.515052 
L 296.219644 -173.542416 
L 294.180356 -173.515524 
L 292.141069 -173.437413 
L 290.101782 -173.309798 
L 288.062494 -173.132955 
L 286.023207 -172.905648 
L 283.98392 -172.625115 
L 281.944632 -172.287098 
L 279.905345 -171.885937 
L 277.866058 -171.414711 
L 275.82677 -170.865422 
L 273.787483 -170.229231 
L 271.748196 -169.496727 
L 269.708908 -168.658223 
L 267.669621 -167.704071 
L 265.630333 -166.624989 
L 263.591046 -165.412391 
L 261.551759 -164.058697 
L 259.512471 -162.55763 
L 257.473184 -160.904485 
L 255.433897 -159.09635 
L 253.394609 -157.132293 
L 251.355322 -155.01349 
L 249.316035 -152.743301 
L 247.276747 -150.327288 
L 245.23746 -147.773173 
L 243.198173 -145.090742 
L 241.158885 -142.291691 
L 239.119598 -139.389425 
L 237.080311 -136.398815 
L 235.041023 -133.335914 
L 233.001736 -130.217657 
L 230.962449 -127.061525 
L 228.923161 -123.885219 
L 226.883874 -120.706322 
L 224.844587 -117.54198 
L 222.805299 -114.408592 
L 220.766012 -111.321538 
L 218.726725 -108.294933 
L 216.687437 -105.341422 
L 214.64815 -102.472023 
L 212.608862 -99.696008 
L 210.569575 -97.02084 
L 208.530288 -94.45215 
L 206.491 -91.993763 
L 204.451713 -89.647763 
L 202.412426 -87.414604 
L 200.373138 -85.293238 
L 198.333851 -83.281289 
L 196.294564 -81.375229 
L 194.255276 -79.570584 
L 192.215989 -77.862132 
L 190.176702 -76.244115 
L 188.137414 -74.710436 
L 186.098127 -73.25485 
L 184.05884 -71.871138 
L 182.019552 -70.553264 
L 179.980265 -69.295504 
L 177.940978 -68.092559 
L 175.90169 -66.939636 
L 173.862403 -65.832509 
L 171.823116 -64.767547 
L 169.783828 -63.741733 
L 167.744541 -62.752648 
L 165.705254 -61.798442 
L 163.665966 -60.877795 
L 161.626679 -59.989852 
L 159.587392 -59.134167 
L 157.548104 -58.310621 
L 155.508817 -57.519358 
L 153.469529 -56.760701 
L 151.430242 -56.035088 
L 149.390955 -55.342997 
L 147.351667 -54.684892 
L 145.31238 -54.061169 
L 143.273093 -53.472106 
L 141.233805 -52.917834 
L 139.194518 -52.398312 
L 137.155231 -51.913302 
L 135.115943 -51.462371 
L 133.076656 -51.044885 
L 131.037369 -50.660015 
L 128.998081 -50.306754 
L 126.958794 -49.983928 
L 124.919507 -49.690224 
L 122.880219 -49.424207 
L 120.840932 -49.184349 
L 118.801645 -48.969053 
L 116.762357 -48.776677 
L 114.72307 -48.60556 
L 112.683783 -48.454043 
L 110.644495 -48.320489 
L 108.605208 -48.203303 
L 106.565921 -48.100945 
L 104.526633 -48.011944 
L 102.487346 -47.934907 
L 100.448058 -47.868527 
L 98.408771 -47.811587 
L 96.369484 -47.762965 
L 94.330196 -47.721633 
L 92.290909 -47.686654 
z
" style="stroke: #fa8072"/>
    </defs>
    <g clip-path="url(#p4b5dbbe85f)">
     <use xlink:href="#mc26bd2c087" x="0" y="432" style="fill: #fa8072; fill-opacity: 0.25; stroke: #fa8072"/>
    </g>
   </g>
   <g id="matplotlib.axis_1">
    <g id="xtick_1">
     <g id="line2d_1">
      <defs>
       <path id="md95ed83943" d="M 0 0 
L 0 3.5 
" style="stroke: #000000; stroke-width: 0.8"/>
      </defs>
      <g>
       <use xlink:href="#md95ed83943" x="98.576333" y="384.48" style="stroke: #000000; stroke-width: 0.8"/>
      </g>
     </g>
     <g id="text_1">
      <!-- −50 -->
      <g transform="translate(90.095083 398.653437) scale(0.1 -0.1)">
       <defs>
        <path id="Helvetica-2212" d="M 3547 1894 
L 3547 1369 
L 288 1369 
L 288 1894 
L 3547 1894 
z
" transform="scale(0.015625)"/>
        <path id="Helvetica-35" d="M 791 1141 
Q 847 659 1238 475 
Q 1438 381 1700 381 
Q 2200 381 2440 700 
Q 2681 1019 2681 1406 
Q 2681 1875 2395 2131 
Q 2109 2388 1709 2388 
Q 1419 2388 1211 2275 
Q 1003 2163 856 1963 
L 369 1991 
L 709 4400 
L 3034 4400 
L 3034 3856 
L 1131 3856 
L 941 2613 
Q 1097 2731 1238 2791 
Q 1488 2894 1816 2894 
Q 2431 2894 2859 2497 
Q 3288 2100 3288 1491 
Q 3288 856 2895 371 
Q 2503 -113 1644 -113 
Q 1097 -113 676 195 
Q 256 503 206 1141 
L 791 1141 
z
" transform="scale(0.015625)"/>
        <path id="Helvetica-30" d="M 1731 4475 
Q 2600 4475 2988 3759 
Q 3288 3206 3288 2244 
Q 3288 1331 3016 734 
Q 2622 -122 1728 -122 
Q 922 -122 528 578 
Q 200 1163 200 2147 
Q 200 2909 397 3456 
Q 766 4475 1731 4475 
z
M 1725 391 
Q 2163 391 2422 778 
Q 2681 1166 2681 2222 
Q 2681 2984 2493 3476 
Q 2306 3969 1766 3969 
Q 1269 3969 1039 3501 
Q 809 3034 809 2125 
Q 809 1441 956 1025 
Q 1181 391 1725 391 
z
" transform="scale(0.015625)"/>
       </defs>
       <use xlink:href="#Helvetica-2212"/>
       <use xlink:href="#Helvetica-35" x="58.398438"/>
       <use xlink:href="#Helvetica-30" x="114.013672"/>
      </g>
     </g>
    </g>
    <g id="xtick_2">
     <g id="line2d_2">
      <g>
       <use xlink:href="#md95ed83943" x="157.269965" y="384.48" style="stroke: #000000; stroke-width: 0.8"/>
      </g>
     </g>
     <g id="text_2">
      <!-- 0 -->
      <g transform="translate(154.489496 398.653437) scale(0.1 -0.1)">
       <use xlink:href="#Helvetica-30"/>
      </g>
     </g>
    </g>
    <g id="xtick_3">
     <g id="line2d_3">
      <g>
       <use xlink:href="#md95ed83943" x="215.963597" y="384.48" style="stroke: #000000; stroke-width: 0.8"/>
      </g>
     </g>
     <g id="text_3">
      <!-- 50 -->
      <g transform="translate(210.402659 398.653437) scale(0.1 -0.1)">
       <use xlink:href="#Helvetica-35"/>
       <use xlink:href="#Helvetica-30" x="55.615234"/>
      </g>
     </g>
    </g>
    <g id="xtick_4">
     <g id="line2d_4">
      <g>
       <use xlink:href="#md95ed83943" x="274.657229" y="384.48" style="stroke: #000000; stroke-width: 0.8"/>
      </g>
     </g>
     <g id="text_4">
      <!-- 100 -->
      <g transform="translate(266.315823 398.653437) scale(0.1 -0.1)">
       <defs>
        <path id="Helvetica-31" d="M 613 3169 
L 613 3600 
Q 1222 3659 1462 3798 
Q 1703 3938 1822 4456 
L 2266 4456 
L 2266 0 
L 1666 0 
L 1666 3169 
L 613 3169 
z
" transform="scale(0.015625)"/>
       </defs>
       <use xlink:href="#Helvetica-31"/>
       <use xlink:href="#Helvetica-30" x="55.615234"/>
       <use xlink:href="#Helvetica-30" x="111.230469"/>
      </g>
     </g>
    </g>
    <g id="xtick_5">
     <g id="line2d_5">
      <g>
       <use xlink:href="#md95ed83943" x="333.350861" y="384.48" style="stroke: #000000; stroke-width: 0.8"/>
      </g>
     </g>
     <g id="text_5">
      <!-- 150 -->
      <g transform="translate(325.009454 398.653437) scale(0.1 -0.1)">
       <use xlink:href="#Helvetica-31"/>
       <use xlink:href="#Helvetica-35" x="55.615234"/>
       <use xlink:href="#Helvetica-30" x="111.230469"/>
      </g>
     </g>
    </g>
    <g id="xtick_6">
     <g id="line2d_6">
      <g>
       <use xlink:href="#md95ed83943" x="392.044493" y="384.48" style="stroke: #000000; stroke-width: 0.8"/>
      </g>
     </g>
     <g id="text_6">
      <!-- 200 -->
      <g transform="translate(383.703086 398.653437) scale(0.1 -0.1)">
       <defs>
        <path id="Helvetica-32" d="M 200 0 
Q 231 578 439 1006 
Q 647 1434 1250 1784 
L 1850 2131 
Q 2253 2366 2416 2531 
Q 2672 2791 2672 3125 
Q 2672 3516 2437 3745 
Q 2203 3975 1813 3975 
Q 1234 3975 1013 3538 
Q 894 3303 881 2888 
L 309 2888 
Q 319 3472 525 3841 
Q 891 4491 1816 4491 
Q 2584 4491 2939 4075 
Q 3294 3659 3294 3150 
Q 3294 2613 2916 2231 
Q 2697 2009 2131 1694 
L 1703 1456 
Q 1397 1288 1222 1134 
Q 909 863 828 531 
L 3272 531 
L 3272 0 
L 200 0 
z
" transform="scale(0.015625)"/>
       </defs>
       <use xlink:href="#Helvetica-32"/>
       <use xlink:href="#Helvetica-30" x="55.615234"/>
       <use xlink:href="#Helvetica-30" x="111.230469"/>
      </g>
     </g>
    </g>
    <g id="xtick_7">
     <g id="line2d_7">
      <g>
       <use xlink:href="#md95ed83943" x="450.738124" y="384.48" style="stroke: #000000; stroke-width: 0.8"/>
      </g>
     </g>
     <g id="text_7">
      <!-- 250 -->
      <g transform="translate(442.396718 398.653437) scale(0.1 -0.1)">
       <use xlink:href="#Helvetica-32"/>
       <use xlink:href="#Helvetica-35" x="55.615234"/>
       <use xlink:href="#Helvetica-30" x="111.230469"/>
      </g>
     </g>
    </g>
    <g id="xtick_8">
     <g id="line2d_8">
      <g>
       <use xlink:href="#md95ed83943" x="509.431756" y="384.48" style="stroke: #000000; stroke-width: 0.8"/>
      </g>
     </g>
     <g id="text_8">
      <!-- 300 -->
      <g transform="translate(501.09035 398.653437) scale(0.1 -0.1)">
       <defs>
        <path id="Helvetica-33" d="M 1663 -122 
Q 869 -122 511 314 
Q 153 750 153 1375 
L 741 1375 
Q 778 941 903 744 
Q 1122 391 1694 391 
Q 2138 391 2406 628 
Q 2675 866 2675 1241 
Q 2675 1703 2392 1887 
Q 2109 2072 1606 2072 
Q 1550 2072 1492 2070 
Q 1434 2069 1375 2066 
L 1375 2563 
Q 1463 2553 1522 2550 
Q 1581 2547 1650 2547 
Q 1966 2547 2169 2647 
Q 2525 2822 2525 3272 
Q 2525 3606 2287 3787 
Q 2050 3969 1734 3969 
Q 1172 3969 956 3594 
Q 838 3388 822 3006 
L 266 3006 
Q 266 3506 466 3856 
Q 809 4481 1675 4481 
Q 2359 4481 2734 4176 
Q 3109 3872 3109 3294 
Q 3109 2881 2888 2625 
Q 2750 2466 2531 2375 
Q 2884 2278 3082 2001 
Q 3281 1725 3281 1325 
Q 3281 684 2859 281 
Q 2438 -122 1663 -122 
z
" transform="scale(0.015625)"/>
       </defs>
       <use xlink:href="#Helvetica-33"/>
       <use xlink:href="#Helvetica-30" x="55.615234"/>
       <use xlink:href="#Helvetica-30" x="111.230469"/>
      </g>
     </g>
    </g>
    <g id="text_9">
     <!-- Spontaneous Bacterial Peritonitis (SBP) -->
     <g transform="translate(206.825 412.106562) scale(0.1 -0.1)">
      <defs>
       <path id="Helvetica-53" d="M 894 1481 
Q 916 1091 1078 847 
Q 1388 391 2169 391 
Q 2519 391 2806 491 
Q 3363 684 3363 1184 
Q 3363 1559 3128 1719 
Q 2891 1875 2384 1991 
L 1763 2131 
Q 1153 2269 900 2434 
Q 463 2722 463 3294 
Q 463 3913 891 4309 
Q 1319 4706 2103 4706 
Q 2825 4706 3329 4357 
Q 3834 4009 3834 3244 
L 3250 3244 
Q 3203 3613 3050 3809 
Q 2766 4169 2084 4169 
Q 1534 4169 1293 3937 
Q 1053 3706 1053 3400 
Q 1053 3063 1334 2906 
Q 1519 2806 2169 2656 
L 2813 2509 
Q 3278 2403 3531 2219 
Q 3969 1897 3969 1284 
Q 3969 522 3414 194 
Q 2859 -134 2125 -134 
Q 1269 -134 784 303 
Q 300 738 309 1481 
L 894 1481 
z
M 2150 4716 
L 2150 4716 
z
" transform="scale(0.015625)"/>
       <path id="Helvetica-70" d="M 1825 378 
Q 2219 378 2480 708 
Q 2741 1038 2741 1694 
Q 2741 2094 2625 2381 
Q 2406 2934 1825 2934 
Q 1241 2934 1025 2350 
Q 909 2038 909 1556 
Q 909 1169 1025 897 
Q 1244 378 1825 378 
z
M 369 3331 
L 916 3331 
L 916 2888 
Q 1084 3116 1284 3241 
Q 1569 3428 1953 3428 
Q 2522 3428 2919 2992 
Q 3316 2556 3316 1747 
Q 3316 653 2744 184 
Q 2381 -113 1900 -113 
Q 1522 -113 1266 53 
Q 1116 147 931 375 
L 931 -1334 
L 369 -1334 
L 369 3331 
z
" transform="scale(0.015625)"/>
       <path id="Helvetica-6f" d="M 1741 363 
Q 2300 363 2508 786 
Q 2716 1209 2716 1728 
Q 2716 2197 2566 2491 
Q 2328 2953 1747 2953 
Q 1231 2953 997 2559 
Q 763 2166 763 1609 
Q 763 1075 997 719 
Q 1231 363 1741 363 
z
M 1763 3444 
Q 2409 3444 2856 3012 
Q 3303 2581 3303 1744 
Q 3303 934 2909 406 
Q 2516 -122 1688 -122 
Q 997 -122 590 345 
Q 184 813 184 1600 
Q 184 2444 612 2944 
Q 1041 3444 1763 3444 
z
M 1744 3428 
L 1744 3428 
z
" transform="scale(0.015625)"/>
       <path id="Helvetica-6e" d="M 413 3347 
L 947 3347 
L 947 2872 
Q 1184 3166 1450 3294 
Q 1716 3422 2041 3422 
Q 2753 3422 3003 2925 
Q 3141 2653 3141 2147 
L 3141 0 
L 2569 0 
L 2569 2109 
Q 2569 2416 2478 2603 
Q 2328 2916 1934 2916 
Q 1734 2916 1606 2875 
Q 1375 2806 1200 2600 
Q 1059 2434 1017 2257 
Q 975 2081 975 1753 
L 975 0 
L 413 0 
L 413 3347 
z
M 1734 3428 
L 1734 3428 
z
" transform="scale(0.015625)"/>
       <path id="Helvetica-74" d="M 525 4281 
L 1094 4281 
L 1094 3347 
L 1628 3347 
L 1628 2888 
L 1094 2888 
L 1094 703 
Q 1094 528 1213 469 
Q 1278 434 1431 434 
Q 1472 434 1519 436 
Q 1566 438 1628 444 
L 1628 0 
Q 1531 -28 1426 -40 
Q 1322 -53 1200 -53 
Q 806 -53 665 148 
Q 525 350 525 672 
L 525 2888 
L 72 2888 
L 72 3347 
L 525 3347 
L 525 4281 
z
" transform="scale(0.015625)"/>
       <path id="Helvetica-61" d="M 844 891 
Q 844 647 1022 506 
Q 1200 366 1444 366 
Q 1741 366 2019 503 
Q 2488 731 2488 1250 
L 2488 1703 
Q 2384 1638 2221 1594 
Q 2059 1550 1903 1531 
L 1563 1488 
Q 1256 1447 1103 1359 
Q 844 1213 844 891 
z
M 2206 2028 
Q 2400 2053 2466 2191 
Q 2503 2266 2503 2406 
Q 2503 2694 2298 2823 
Q 2094 2953 1713 2953 
Q 1272 2953 1088 2716 
Q 984 2584 953 2325 
L 428 2325 
Q 444 2944 830 3186 
Q 1216 3428 1725 3428 
Q 2316 3428 2684 3203 
Q 3050 2978 3050 2503 
L 3050 575 
Q 3050 488 3086 434 
Q 3122 381 3238 381 
Q 3275 381 3322 386 
Q 3369 391 3422 400 
L 3422 -16 
Q 3291 -53 3222 -62 
Q 3153 -72 3034 -72 
Q 2744 -72 2613 134 
Q 2544 244 2516 444 
Q 2344 219 2022 53 
Q 1700 -113 1313 -113 
Q 847 -113 551 170 
Q 256 453 256 878 
Q 256 1344 547 1600 
Q 838 1856 1309 1916 
L 2206 2028 
z
M 1741 3428 
L 1741 3428 
z
" transform="scale(0.015625)"/>
       <path id="Helvetica-65" d="M 1806 3422 
Q 2163 3422 2497 3255 
Q 2831 3088 3006 2822 
Q 3175 2569 3231 2231 
Q 3281 2000 3281 1494 
L 828 1494 
Q 844 984 1069 676 
Q 1294 369 1766 369 
Q 2206 369 2469 659 
Q 2619 828 2681 1050 
L 3234 1050 
Q 3213 866 3089 639 
Q 2966 413 2813 269 
Q 2556 19 2178 -69 
Q 1975 -119 1719 -119 
Q 1094 -119 659 336 
Q 225 791 225 1609 
Q 225 2416 662 2919 
Q 1100 3422 1806 3422 
z
M 2703 1941 
Q 2669 2306 2544 2525 
Q 2313 2931 1772 2931 
Q 1384 2931 1121 2651 
Q 859 2372 844 1941 
L 2703 1941 
z
M 1753 3428 
L 1753 3428 
z
" transform="scale(0.015625)"/>
       <path id="Helvetica-75" d="M 975 3347 
L 975 1125 
Q 975 869 1056 706 
Q 1206 406 1616 406 
Q 2203 406 2416 931 
Q 2531 1213 2531 1703 
L 2531 3347 
L 3094 3347 
L 3094 0 
L 2563 0 
L 2569 494 
Q 2459 303 2297 172 
Q 1975 -91 1516 -91 
Q 800 -91 541 388 
Q 400 644 400 1072 
L 400 3347 
L 975 3347 
z
M 1747 3428 
L 1747 3428 
z
" transform="scale(0.015625)"/>
       <path id="Helvetica-73" d="M 747 1050 
Q 772 769 888 619 
Q 1100 347 1625 347 
Q 1938 347 2175 483 
Q 2413 619 2413 903 
Q 2413 1119 2222 1231 
Q 2100 1300 1741 1391 
L 1294 1503 
Q 866 1609 663 1741 
Q 300 1969 300 2372 
Q 300 2847 642 3140 
Q 984 3434 1563 3434 
Q 2319 3434 2653 2991 
Q 2863 2709 2856 2384 
L 2325 2384 
Q 2309 2575 2191 2731 
Q 1997 2953 1519 2953 
Q 1200 2953 1036 2831 
Q 872 2709 872 2509 
Q 872 2291 1088 2159 
Q 1213 2081 1456 2022 
L 1828 1931 
Q 2434 1784 2641 1647 
Q 2969 1431 2969 969 
Q 2969 522 2630 197 
Q 2291 -128 1597 -128 
Q 850 -128 539 211 
Q 228 550 206 1050 
L 747 1050 
z
M 1578 3428 
L 1578 3428 
z
" transform="scale(0.015625)"/>
       <path id="Helvetica-20" transform="scale(0.015625)"/>
       <path id="Helvetica-42" d="M 2213 2650 
Q 2606 2650 2825 2759 
Q 3169 2931 3169 3378 
Q 3169 3828 2803 3984 
Q 2597 4072 2191 4072 
L 1081 4072 
L 1081 2650 
L 2213 2650 
z
M 2422 531 
Q 2994 531 3238 863 
Q 3391 1072 3391 1369 
Q 3391 1869 2944 2050 
Q 2706 2147 2316 2147 
L 1081 2147 
L 1081 531 
L 2422 531 
z
M 472 4591 
L 2444 4591 
Q 3250 4591 3591 4109 
Q 3791 3825 3791 3453 
Q 3791 3019 3544 2741 
Q 3416 2594 3175 2472 
Q 3528 2338 3703 2169 
Q 4013 1869 4013 1341 
Q 4013 897 3734 538 
Q 3319 0 2413 0 
L 472 0 
L 472 4591 
z
" transform="scale(0.015625)"/>
       <path id="Helvetica-63" d="M 1703 3444 
Q 2269 3444 2623 3169 
Q 2978 2894 3050 2222 
L 2503 2222 
Q 2453 2531 2275 2736 
Q 2097 2941 1703 2941 
Q 1166 2941 934 2416 
Q 784 2075 784 1575 
Q 784 1072 996 728 
Q 1209 384 1666 384 
Q 2016 384 2220 598 
Q 2425 813 2503 1184 
L 3050 1184 
Q 2956 519 2581 211 
Q 2206 -97 1622 -97 
Q 966 -97 575 383 
Q 184 863 184 1581 
Q 184 2463 612 2953 
Q 1041 3444 1703 3444 
z
M 1616 3428 
L 1616 3428 
z
" transform="scale(0.015625)"/>
       <path id="Helvetica-72" d="M 428 3347 
L 963 3347 
L 963 2769 
Q 1028 2938 1284 3180 
Q 1541 3422 1875 3422 
Q 1891 3422 1928 3419 
Q 1966 3416 2056 3406 
L 2056 2813 
Q 2006 2822 1964 2825 
Q 1922 2828 1872 2828 
Q 1447 2828 1219 2554 
Q 991 2281 991 1925 
L 991 0 
L 428 0 
L 428 3347 
z
" transform="scale(0.015625)"/>
       <path id="Helvetica-69" d="M 413 3331 
L 984 3331 
L 984 0 
L 413 0 
L 413 3331 
z
M 413 4591 
L 984 4591 
L 984 3953 
L 413 3953 
L 413 4591 
z
" transform="scale(0.015625)"/>
       <path id="Helvetica-6c" d="M 428 4591 
L 991 4591 
L 991 0 
L 428 0 
L 428 4591 
z
" transform="scale(0.015625)"/>
       <path id="Helvetica-50" d="M 547 4591 
L 2613 4591 
Q 3225 4591 3600 4245 
Q 3975 3900 3975 3275 
Q 3975 2738 3640 2339 
Q 3306 1941 2613 1941 
L 1169 1941 
L 1169 0 
L 547 0 
L 547 4591 
z
M 3347 3272 
Q 3347 3778 2972 3959 
Q 2766 4056 2406 4056 
L 1169 4056 
L 1169 2466 
L 2406 2466 
Q 2825 2466 3086 2644 
Q 3347 2822 3347 3272 
z
" transform="scale(0.015625)"/>
       <path id="Helvetica-28" d="M 1894 4666 
Q 1403 3713 1256 3263 
Q 1034 2578 1034 1681 
Q 1034 775 1288 25 
Q 1444 -438 1903 -1306 
L 1525 -1306 
Q 1069 -594 959 -397 
Q 850 -200 722 138 
Q 547 600 478 1125 
Q 444 1397 444 1644 
Q 444 2569 734 3291 
Q 919 3750 1503 4666 
L 1894 4666 
z
" transform="scale(0.015625)"/>
       <path id="Helvetica-29" d="M 222 -1306 
Q 719 -338 863 106 
Q 1081 778 1081 1681 
Q 1081 2584 828 3334 
Q 672 3797 213 4666 
L 591 4666 
Q 1072 3897 1173 3717 
Q 1275 3538 1394 3222 
Q 1544 2831 1608 2450 
Q 1672 2069 1672 1716 
Q 1672 791 1378 66 
Q 1194 -400 613 -1306 
L 222 -1306 
z
" transform="scale(0.015625)"/>
      </defs>
      <use xlink:href="#Helvetica-53"/>
      <use xlink:href="#Helvetica-70" x="66.699219"/>
      <use xlink:href="#Helvetica-6f" x="122.314453"/>
      <use xlink:href="#Helvetica-6e" x="177.929688"/>
      <use xlink:href="#Helvetica-74" x="233.544922"/>
      <use xlink:href="#Helvetica-61" x="261.328125"/>
      <use xlink:href="#Helvetica-6e" x="316.943359"/>
      <use xlink:href="#Helvetica-65" x="372.558594"/>
      <use xlink:href="#Helvetica-6f" x="428.173828"/>
      <use xlink:href="#Helvetica-75" x="483.789062"/>
      <use xlink:href="#Helvetica-73" x="539.404297"/>
      <use xlink:href="#Helvetica-20" x="589.404297"/>
      <use xlink:href="#Helvetica-42" x="617.1875"/>
      <use xlink:href="#Helvetica-61" x="683.886719"/>
      <use xlink:href="#Helvetica-63" x="739.501953"/>
      <use xlink:href="#Helvetica-74" x="789.501953"/>
      <use xlink:href="#Helvetica-65" x="817.285156"/>
      <use xlink:href="#Helvetica-72" x="872.900391"/>
      <use xlink:href="#Helvetica-69" x="906.201172"/>
      <use xlink:href="#Helvetica-61" x="928.417969"/>
      <use xlink:href="#Helvetica-6c" x="984.033203"/>
      <use xlink:href="#Helvetica-20" x="1006.25"/>
      <use xlink:href="#Helvetica-50" x="1034.033203"/>
      <use xlink:href="#Helvetica-65" x="1100.732422"/>
      <use xlink:href="#Helvetica-72" x="1156.347656"/>
      <use xlink:href="#Helvetica-69" x="1189.648438"/>
      <use xlink:href="#Helvetica-74" x="1211.865234"/>
      <use xlink:href="#Helvetica-6f" x="1239.648438"/>
      <use xlink:href="#Helvetica-6e" x="1295.263672"/>
      <use xlink:href="#Helvetica-69" x="1350.878906"/>
      <use xlink:href="#Helvetica-74" x="1373.095703"/>
      <use xlink:href="#Helvetica-69" x="1400.878906"/>
      <use xlink:href="#Helvetica-73" x="1423.095703"/>
      <use xlink:href="#Helvetica-20" x="1473.095703"/>
      <use xlink:href="#Helvetica-28" x="1500.878906"/>
      <use xlink:href="#Helvetica-53" x="1534.179688"/>
      <use xlink:href="#Helvetica-42" x="1600.878906"/>
      <use xlink:href="#Helvetica-50" x="1667.578125"/>
      <use xlink:href="#Helvetica-29" x="1734.277344"/>
     </g>
    </g>
   </g>
   <g id="matplotlib.axis_2">
    <g id="ytick_1">
     <g id="line2d_9">
      <defs>
       <path id="m03484f1840" d="M 0 0 
L -3.5 0 
" style="stroke: #000000; stroke-width: 0.8"/>
      </defs>
      <g>
       <use xlink:href="#m03484f1840" x="72" y="384.48" style="stroke: #000000; stroke-width: 0.8"/>
      </g>
     </g>
     <g id="text_10">
      <!-- 0.0000 -->
      <g transform="translate(34.417187 388.066719) scale(0.1 -0.1)">
       <defs>
        <path id="Helvetica-2e" d="M 547 681 
L 1200 681 
L 1200 0 
L 547 0 
L 547 681 
z
" transform="scale(0.015625)"/>
       </defs>
       <use xlink:href="#Helvetica-30"/>
       <use xlink:href="#Helvetica-2e" x="55.615234"/>
       <use xlink:href="#Helvetica-30" x="83.398438"/>
       <use xlink:href="#Helvetica-30" x="139.013672"/>
       <use xlink:href="#Helvetica-30" x="194.628906"/>
       <use xlink:href="#Helvetica-30" x="250.244141"/>
      </g>
     </g>
    </g>
    <g id="ytick_2">
     <g id="line2d_10">
      <g>
       <use xlink:href="#m03484f1840" x="72" y="338.743635" style="stroke: #000000; stroke-width: 0.8"/>
      </g>
     </g>
     <g id="text_11">
      <!-- 0.0025 -->
      <g transform="translate(34.417187 342.330354) scale(0.1 -0.1)">
       <use xlink:href="#Helvetica-30"/>
       <use xlink:href="#Helvetica-2e" x="55.615234"/>
       <use xlink:href="#Helvetica-30" x="83.398438"/>
       <use xlink:href="#Helvetica-30" x="139.013672"/>
       <use xlink:href="#Helvetica-32" x="194.628906"/>
       <use xlink:href="#Helvetica-35" x="250.244141"/>
      </g>
     </g>
    </g>
    <g id="ytick_3">
     <g id="line2d_11">
      <g>
       <use xlink:href="#m03484f1840" x="72" y="293.00727" style="stroke: #000000; stroke-width: 0.8"/>
      </g>
     </g>
     <g id="text_12">
      <!-- 0.0050 -->
      <g transform="translate(34.417187 296.593989) scale(0.1 -0.1)">
       <use xlink:href="#Helvetica-30"/>
       <use xlink:href="#Helvetica-2e" x="55.615234"/>
       <use xlink:href="#Helvetica-30" x="83.398438"/>
       <use xlink:href="#Helvetica-30" x="139.013672"/>
       <use xlink:href="#Helvetica-35" x="194.628906"/>
       <use xlink:href="#Helvetica-30" x="250.244141"/>
      </g>
     </g>
    </g>
    <g id="ytick_4">
     <g id="line2d_12">
      <g>
       <use xlink:href="#m03484f1840" x="72" y="247.270905" style="stroke: #000000; stroke-width: 0.8"/>
      </g>
     </g>
     <g id="text_13">
      <!-- 0.0075 -->
      <g transform="translate(34.417187 250.857624) scale(0.1 -0.1)">
       <defs>
        <path id="Helvetica-37" d="M 3347 4400 
L 3347 3909 
Q 3131 3700 2773 3181 
Q 2416 2663 2141 2063 
Q 1869 1478 1728 997 
Q 1638 688 1494 0 
L 872 0 
Q 1084 1281 1809 2550 
Q 2238 3294 2709 3834 
L 234 3834 
L 234 4400 
L 3347 4400 
z
" transform="scale(0.015625)"/>
       </defs>
       <use xlink:href="#Helvetica-30"/>
       <use xlink:href="#Helvetica-2e" x="55.615234"/>
       <use xlink:href="#Helvetica-30" x="83.398438"/>
       <use xlink:href="#Helvetica-30" x="139.013672"/>
       <use xlink:href="#Helvetica-37" x="194.628906"/>
       <use xlink:href="#Helvetica-35" x="250.244141"/>
      </g>
     </g>
    </g>
    <g id="ytick_5">
     <g id="line2d_13">
      <g>
       <use xlink:href="#m03484f1840" x="72" y="201.534541" style="stroke: #000000; stroke-width: 0.8"/>
      </g>
     </g>
     <g id="text_14">
      <!-- 0.0100 -->
      <g transform="translate(34.417187 205.121259) scale(0.1 -0.1)">
       <use xlink:href="#Helvetica-30"/>
       <use xlink:href="#Helvetica-2e" x="55.615234"/>
       <use xlink:href="#Helvetica-30" x="83.398438"/>
       <use xlink:href="#Helvetica-31" x="139.013672"/>
       <use xlink:href="#Helvetica-30" x="194.628906"/>
       <use xlink:href="#Helvetica-30" x="250.244141"/>
      </g>
     </g>
    </g>
    <g id="ytick_6">
     <g id="line2d_14">
      <g>
       <use xlink:href="#m03484f1840" x="72" y="155.798176" style="stroke: #000000; stroke-width: 0.8"/>
      </g>
     </g>
     <g id="text_15">
      <!-- 0.0125 -->
      <g transform="translate(34.417187 159.384894) scale(0.1 -0.1)">
       <use xlink:href="#Helvetica-30"/>
       <use xlink:href="#Helvetica-2e" x="55.615234"/>
       <use xlink:href="#Helvetica-30" x="83.398438"/>
       <use xlink:href="#Helvetica-31" x="139.013672"/>
       <use xlink:href="#Helvetica-32" x="194.628906"/>
       <use xlink:href="#Helvetica-35" x="250.244141"/>
      </g>
     </g>
    </g>
    <g id="ytick_7">
     <g id="line2d_15">
      <g>
       <use xlink:href="#m03484f1840" x="72" y="110.061811" style="stroke: #000000; stroke-width: 0.8"/>
      </g>
     </g>
     <g id="text_16">
      <!-- 0.0150 -->
      <g transform="translate(34.417187 113.64853) scale(0.1 -0.1)">
       <use xlink:href="#Helvetica-30"/>
       <use xlink:href="#Helvetica-2e" x="55.615234"/>
       <use xlink:href="#Helvetica-30" x="83.398438"/>
       <use xlink:href="#Helvetica-31" x="139.013672"/>
       <use xlink:href="#Helvetica-35" x="194.628906"/>
       <use xlink:href="#Helvetica-30" x="250.244141"/>
      </g>
     </g>
    </g>
    <g id="ytick_8">
     <g id="line2d_16">
      <g>
       <use xlink:href="#m03484f1840" x="72" y="64.325446" style="stroke: #000000; stroke-width: 0.8"/>
      </g>
     </g>
     <g id="text_17">
      <!-- 0.0175 -->
      <g transform="translate(34.417187 67.912165) scale(0.1 -0.1)">
       <use xlink:href="#Helvetica-30"/>
       <use xlink:href="#Helvetica-2e" x="55.615234"/>
       <use xlink:href="#Helvetica-30" x="83.398438"/>
       <use xlink:href="#Helvetica-31" x="139.013672"/>
       <use xlink:href="#Helvetica-37" x="194.628906"/>
       <use xlink:href="#Helvetica-35" x="250.244141"/>
      </g>
     </g>
    </g>
    <g id="text_18">
     <!-- Density -->
     <g transform="translate(28.273437 234.831875) rotate(-90) scale(0.1 -0.1)">
      <defs>
       <path id="Helvetica-44" d="M 2250 531 
Q 2566 531 2769 597 
Q 3131 719 3363 1066 
Q 3547 1344 3628 1778 
Q 3675 2038 3675 2259 
Q 3675 3113 3336 3584 
Q 2997 4056 2244 4056 
L 1141 4056 
L 1141 531 
L 2250 531 
z
M 516 4591 
L 2375 4591 
Q 3322 4591 3844 3919 
Q 4309 3313 4309 2366 
Q 4309 1634 4034 1044 
Q 3550 0 2369 0 
L 516 0 
L 516 4591 
z
" transform="scale(0.015625)"/>
       <path id="Helvetica-79" d="M 2503 3347 
L 3125 3347 
Q 3006 3025 2597 1878 
Q 2291 1016 2084 472 
Q 1597 -809 1397 -1090 
Q 1197 -1372 709 -1372 
Q 591 -1372 527 -1362 
Q 463 -1353 369 -1328 
L 369 -816 
Q 516 -856 581 -865 
Q 647 -875 697 -875 
Q 853 -875 926 -823 
Q 1000 -772 1050 -697 
Q 1066 -672 1162 -440 
Q 1259 -209 1303 -97 
L 66 3347 
L 703 3347 
L 1600 622 
L 2503 3347 
z
M 1597 3428 
L 1597 3428 
z
" transform="scale(0.015625)"/>
      </defs>
      <use xlink:href="#Helvetica-44"/>
      <use xlink:href="#Helvetica-65" x="72.216797"/>
      <use xlink:href="#Helvetica-6e" x="127.832031"/>
      <use xlink:href="#Helvetica-73" x="183.447266"/>
      <use xlink:href="#Helvetica-69" x="233.447266"/>
      <use xlink:href="#Helvetica-74" x="255.664062"/>
      <use xlink:href="#Helvetica-79" x="283.447266"/>
     </g>
    </g>
   </g>
   <g id="patch_3">
    <path d="M 72 384.48 
L 72 51.84 
" style="fill: none; stroke: #000000; stroke-width: 0.8; stroke-linejoin: miter; stroke-linecap: square"/>
   </g>
   <g id="patch_4">
    <path d="M 518.4 384.48 
L 518.4 51.84 
" style="fill: none; stroke: #000000; stroke-width: 0.8; stroke-linejoin: miter; stroke-linecap: square"/>
   </g>
   <g id="patch_5">
    <path d="M 72 384.48 
L 518.4 384.48 
" style="fill: none; stroke: #000000; stroke-width: 0.8; stroke-linejoin: miter; stroke-linecap: square"/>
   </g>
   <g id="patch_6">
    <path d="M 72 51.84 
L 518.4 51.84 
" style="fill: none; stroke: #000000; stroke-width: 0.8; stroke-linejoin: miter; stroke-linecap: square"/>
   </g>
   <g id="legend_1">
    <g id="patch_7">
     <path d="M 434.373437 88.355625 
L 511.4 88.355625 
Q 513.4 88.355625 513.4 86.355625 
L 513.4 58.84 
Q 513.4 56.84 511.4 56.84 
L 434.373437 56.84 
Q 432.373437 56.84 432.373437 58.84 
L 432.373437 86.355625 
Q 432.373437 88.355625 434.373437 88.355625 
z
" style="fill: #ffffff; opacity: 0.8; stroke: #cccccc; stroke-linejoin: miter"/>
    </g>
    <g id="patch_8">
     <path d="M 436.373437 68.013437 
L 456.373437 68.013437 
L 456.373437 61.013437 
L 436.373437 61.013437 
z
" style="fill: #87ceeb; fill-opacity: 0.25; stroke: #87ceeb; stroke-linejoin: miter"/>
    </g>
    <g id="text_19">
     <!-- Alive -->
     <g transform="translate(464.373437 68.013437) scale(0.1 -0.1)">
      <defs>
       <path id="Helvetica-41" d="M 2844 1881 
L 2147 3909 
L 1406 1881 
L 2844 1881 
z
M 1822 4591 
L 2525 4591 
L 4191 0 
L 3509 0 
L 3044 1375 
L 1228 1375 
L 731 0 
L 94 0 
L 1822 4591 
z
" transform="scale(0.015625)"/>
       <path id="Helvetica-76" d="M 688 3347 
L 1581 622 
L 2516 3347 
L 3131 3347 
L 1869 0 
L 1269 0 
L 34 3347 
L 688 3347 
z
" transform="scale(0.015625)"/>
      </defs>
      <use xlink:href="#Helvetica-41"/>
      <use xlink:href="#Helvetica-6c" x="66.699219"/>
      <use xlink:href="#Helvetica-69" x="88.916016"/>
      <use xlink:href="#Helvetica-76" x="111.132812"/>
      <use xlink:href="#Helvetica-65" x="161.132812"/>
     </g>
    </g>
    <g id="patch_9">
     <path d="M 436.373437 82.27125 
L 456.373437 82.27125 
L 456.373437 75.27125 
L 436.373437 75.27125 
z
" style="fill: #fa8072; fill-opacity: 0.25; stroke: #fa8072; stroke-linejoin: miter"/>
    </g>
    <g id="text_20">
     <!-- Deceased -->
     <g transform="translate(464.373437 82.27125) scale(0.1 -0.1)">
      <defs>
       <path id="Helvetica-64" d="M 769 1634 
Q 769 1097 997 734 
Q 1225 372 1728 372 
Q 2119 372 2370 708 
Q 2622 1044 2622 1672 
Q 2622 2306 2362 2611 
Q 2103 2916 1722 2916 
Q 1297 2916 1033 2591 
Q 769 2266 769 1634 
z
M 1616 3406 
Q 2000 3406 2259 3244 
Q 2409 3150 2600 2916 
L 2600 4606 
L 3141 4606 
L 3141 0 
L 2634 0 
L 2634 466 
Q 2438 156 2169 18 
Q 1900 -119 1553 -119 
Q 994 -119 584 351 
Q 175 822 175 1603 
Q 175 2334 548 2870 
Q 922 3406 1616 3406 
z
" transform="scale(0.015625)"/>
      </defs>
      <use xlink:href="#Helvetica-44"/>
      <use xlink:href="#Helvetica-65" x="72.216797"/>
      <use xlink:href="#Helvetica-63" x="127.832031"/>
      <use xlink:href="#Helvetica-65" x="177.832031"/>
      <use xlink:href="#Helvetica-61" x="233.447266"/>
      <use xlink:href="#Helvetica-73" x="289.0625"/>
      <use xlink:href="#Helvetica-65" x="339.0625"/>
      <use xlink:href="#Helvetica-64" x="394.677734"/>
     </g>
    </g>
   </g>
  </g>
 </g>
 <defs>
  <clipPath id="p4b5dbbe85f">
   <rect x="72" y="51.84" width="446.4" height="332.64"/>
  </clipPath>
 </defs>
</svg>
