<?xml version="1.0" encoding="utf-8" standalone="no"?>
<!DOCTYPE svg PUBLIC "-//W3C//DTD SVG 1.1//EN"
  "http://www.w3.org/Graphics/SVG/1.1/DTD/svg11.dtd">
<svg xmlns:xlink="http://www.w3.org/1999/xlink" width="576pt" height="432pt" viewBox="0 0 576 432" xmlns="http://www.w3.org/2000/svg" version="1.1">
 <metadata>
  <rdf:RDF xmlns:dc="http://purl.org/dc/elements/1.1/" xmlns:cc="http://creativecommons.org/ns#" xmlns:rdf="http://www.w3.org/1999/02/22-rdf-syntax-ns#">
   <cc:Work>
    <dc:type rdf:resource="http://purl.org/dc/dcmitype/StillImage"/>
    <dc:date>2023-11-06T21:01:32.632686</dc:date>
    <dc:format>image/svg+xml</dc:format>
    <dc:creator>
     <cc:Agent>
      <dc:title>Matplotlib v3.7.2, https://matplotlib.org/</dc:title>
     </cc:Agent>
    </dc:creator>
   </cc:Work>
  </rdf:RDF>
 </metadata>
 <defs>
  <style type="text/css">*{stroke-linejoin: round; stroke-linecap: butt}</style>
 </defs>
 <g id="figure_1">
  <g id="patch_1">
   <path d="M 0 432 
L 576 432 
L 576 0 
L 0 0 
z
" style="fill: #ffffff"/>
  </g>
  <g id="axes_1">
   <g id="patch_2">
    <path d="M 72 384.48 
L 518.4 384.48 
L 518.4 51.84 
L 72 51.84 
z
" style="fill: #ffffff"/>
   </g>
   <g id="PolyCollection_1">
    <defs>
     <path id="meb4cca3183" d="M 225.398478 -47.63275 
L 225.398478 -47.52 
L 226.557325 -47.52 
L 227.716172 -47.52 
L 228.875019 -47.52 
L 230.033866 -47.52 
L 231.192714 -47.52 
L 232.351561 -47.52 
L 233.510408 -47.52 
L 234.669255 -47.52 
L 235.828102 -47.52 
L 236.986949 -47.52 
L 238.145796 -47.52 
L 239.304643 -47.52 
L 240.46349 -47.52 
L 241.622337 -47.52 
L 242.781184 -47.52 
L 243.940031 -47.52 
L 245.098878 -47.52 
L 246.257725 -47.52 
L 247.416572 -47.52 
L 248.575419 -47.52 
L 249.734267 -47.52 
L 250.893114 -47.52 
L 252.051961 -47.52 
L 253.210808 -47.52 
L 254.369655 -47.52 
L 255.528502 -47.52 
L 256.687349 -47.52 
L 257.846196 -47.52 
L 259.005043 -47.52 
L 260.16389 -47.52 
L 261.322737 -47.52 
L 262.481584 -47.52 
L 263.640431 -47.52 
L 264.799278 -47.52 
L 265.958125 -47.52 
L 267.116973 -47.52 
L 268.27582 -47.52 
L 269.434667 -47.52 
L 270.593514 -47.52 
L 271.752361 -47.52 
L 272.911208 -47.52 
L 274.070055 -47.52 
L 275.228902 -47.52 
L 276.387749 -47.52 
L 277.546596 -47.52 
L 278.705443 -47.52 
L 279.86429 -47.52 
L 281.023137 -47.52 
L 282.181984 -47.52 
L 283.340831 -47.52 
L 284.499678 -47.52 
L 285.658526 -47.52 
L 286.817373 -47.52 
L 287.97622 -47.52 
L 289.135067 -47.52 
L 290.293914 -47.52 
L 291.452761 -47.52 
L 292.611608 -47.52 
L 293.770455 -47.52 
L 294.929302 -47.52 
L 296.088149 -47.52 
L 297.246996 -47.52 
L 298.405843 -47.52 
L 299.56469 -47.52 
L 300.723537 -47.52 
L 301.882384 -47.52 
L 303.041232 -47.52 
L 304.200079 -47.52 
L 305.358926 -47.52 
L 306.517773 -47.52 
L 307.67662 -47.52 
L 308.835467 -47.52 
L 309.994314 -47.52 
L 311.153161 -47.52 
L 312.312008 -47.52 
L 313.470855 -47.52 
L 314.629702 -47.52 
L 315.788549 -47.52 
L 316.947396 -47.52 
L 318.106243 -47.52 
L 319.26509 -47.52 
L 320.423937 -47.52 
L 321.582785 -47.52 
L 322.741632 -47.52 
L 323.900479 -47.52 
L 325.059326 -47.52 
L 326.218173 -47.52 
L 327.37702 -47.52 
L 328.535867 -47.52 
L 329.694714 -47.52 
L 330.853561 -47.52 
L 332.012408 -47.52 
L 333.171255 -47.52 
L 334.330102 -47.52 
L 335.488949 -47.52 
L 336.647796 -47.52 
L 337.806643 -47.52 
L 338.965491 -47.52 
L 340.124338 -47.52 
L 341.283185 -47.52 
L 342.442032 -47.52 
L 343.600879 -47.52 
L 344.759726 -47.52 
L 345.918573 -47.52 
L 347.07742 -47.52 
L 348.236267 -47.52 
L 349.395114 -47.52 
L 350.553961 -47.52 
L 351.712808 -47.52 
L 352.871655 -47.52 
L 354.030502 -47.52 
L 355.189349 -47.52 
L 356.348196 -47.52 
L 357.507044 -47.52 
L 358.665891 -47.52 
L 359.824738 -47.52 
L 360.983585 -47.52 
L 362.142432 -47.52 
L 363.301279 -47.52 
L 364.460126 -47.52 
L 365.618973 -47.52 
L 366.77782 -47.52 
L 367.936667 -47.52 
L 369.095514 -47.52 
L 370.254361 -47.52 
L 371.413208 -47.52 
L 372.572055 -47.52 
L 373.730902 -47.52 
L 374.88975 -47.52 
L 376.048597 -47.52 
L 377.207444 -47.52 
L 378.366291 -47.52 
L 379.525138 -47.52 
L 380.683985 -47.52 
L 381.842832 -47.52 
L 383.001679 -47.52 
L 384.160526 -47.52 
L 385.319373 -47.52 
L 386.47822 -47.52 
L 387.637067 -47.52 
L 388.795914 -47.52 
L 389.954761 -47.52 
L 391.113608 -47.52 
L 392.272455 -47.52 
L 393.431303 -47.52 
L 394.59015 -47.52 
L 395.748997 -47.52 
L 396.907844 -47.52 
L 398.066691 -47.52 
L 399.225538 -47.52 
L 400.384385 -47.52 
L 401.543232 -47.52 
L 402.702079 -47.52 
L 403.860926 -47.52 
L 405.019773 -47.52 
L 406.17862 -47.52 
L 407.337467 -47.52 
L 408.496314 -47.52 
L 409.655161 -47.52 
L 410.814009 -47.52 
L 411.972856 -47.52 
L 413.131703 -47.52 
L 414.29055 -47.52 
L 415.449397 -47.52 
L 416.608244 -47.52 
L 417.767091 -47.52 
L 418.925938 -47.52 
L 420.084785 -47.52 
L 421.243632 -47.52 
L 422.402479 -47.52 
L 423.561326 -47.52 
L 424.720173 -47.52 
L 425.87902 -47.52 
L 427.037867 -47.52 
L 428.196714 -47.52 
L 429.355562 -47.52 
L 430.514409 -47.52 
L 431.673256 -47.52 
L 432.832103 -47.52 
L 433.99095 -47.52 
L 435.149797 -47.52 
L 436.308644 -47.52 
L 437.467491 -47.52 
L 438.626338 -47.52 
L 439.785185 -47.52 
L 440.944032 -47.52 
L 442.102879 -47.52 
L 443.261726 -47.52 
L 444.420573 -47.52 
L 445.57942 -47.52 
L 446.738268 -47.52 
L 447.897115 -47.52 
L 449.055962 -47.52 
L 450.214809 -47.52 
L 451.373656 -47.52 
L 452.532503 -47.52 
L 453.69135 -47.52 
L 454.850197 -47.52 
L 456.009044 -47.52 
L 456.009044 -47.631023 
L 456.009044 -47.631023 
L 454.850197 -47.668893 
L 453.69135 -47.717714 
L 452.532503 -47.779957 
L 451.373656 -47.85843 
L 450.214809 -47.956253 
L 449.055962 -48.076815 
L 447.897115 -48.223698 
L 446.738268 -48.40057 
L 445.57942 -48.611048 
L 444.420573 -48.858528 
L 443.261726 -49.145976 
L 442.102879 -49.47571 
L 440.944032 -49.849159 
L 439.785185 -50.26662 
L 438.626338 -50.727036 
L 437.467491 -51.227798 
L 436.308644 -51.764604 
L 435.149797 -52.331376 
L 433.99095 -52.920269 
L 432.832103 -53.521774 
L 431.673256 -54.12492 
L 430.514409 -54.717582 
L 429.355562 -55.286884 
L 428.196714 -55.819684 
L 427.037867 -56.303124 
L 425.87902 -56.725207 
L 424.720173 -57.07538 
L 423.561326 -57.34508 
L 422.402479 -57.528224 
L 421.243632 -57.621587 
L 420.084785 -57.625072 
L 418.925938 -57.541827 
L 417.767091 -57.378216 
L 416.608244 -57.143644 
L 415.449397 -56.850229 
L 414.29055 -56.512356 
L 413.131703 -56.14613 
L 411.972856 -55.768759 
L 410.814009 -55.3979 
L 409.655161 -55.051006 
L 408.496314 -54.744703 
L 407.337467 -54.494234 
L 406.17862 -54.312997 
L 405.019773 -54.212204 
L 403.860926 -54.200669 
L 402.702079 -54.284756 
L 401.543232 -54.468485 
L 400.384385 -54.753795 
L 399.225538 -55.140971 
L 398.066691 -55.629216 
L 396.907844 -56.217352 
L 395.748997 -56.904627 
L 394.59015 -57.6916 
L 393.431303 -58.581054 
L 392.272455 -59.57891 
L 391.113608 -60.69508 
L 389.954761 -61.944222 
L 388.795914 -63.346343 
L 387.637067 -64.927213 
L 386.47822 -66.718546 
L 385.319373 -68.757939 
L 384.160526 -71.088535 
L 383.001679 -73.758434 
L 381.842832 -76.819842 
L 380.683985 -80.327993 
L 379.525138 -84.339874 
L 378.366291 -88.91278 
L 377.207444 -94.102741 
L 376.048597 -99.962843 
L 374.88975 -106.541473 
L 373.730902 -113.880497 
L 372.572055 -122.013383 
L 371.413208 -130.963265 
L 370.254361 -140.74097 
L 369.095514 -151.342992 
L 367.936667 -162.749466 
L 366.77782 -174.922182 
L 365.618973 -187.802713 
L 364.460126 -201.310769 
L 363.301279 -215.34293 
L 362.142432 -229.771896 
L 360.983585 -244.446453 
L 359.824738 -259.192321 
L 358.665891 -273.814033 
L 357.507044 -288.09796 
L 356.348196 -301.816534 
L 355.189349 -314.733624 
L 354.030502 -326.610964 
L 352.871655 -337.215404 
L 351.712808 -346.326693 
L 350.553961 -353.74541 
L 349.395114 -359.300632 
L 348.236267 -362.856891 
L 347.07742 -364.32 
L 345.918573 -363.641374 
L 344.759726 -360.820559 
L 343.600879 -355.905786 
L 342.442032 -348.992503 
L 341.283185 -340.219957 
L 340.124338 -329.766026 
L 338.965491 -317.84061 
L 337.806643 -304.677971 
L 336.647796 -290.528448 
L 335.488949 -275.650004 
L 334.330102 -260.300031 
L 333.171255 -244.727786 
L 332.012408 -229.167766 
L 330.853561 -213.83424 
L 329.694714 -198.917068 
L 328.535867 -184.578841 
L 327.37702 -170.953304 
L 326.218173 -158.144962 
L 325.059326 -146.229717 
L 323.900479 -135.256364 
L 322.741632 -125.248761 
L 321.582785 -116.208484 
L 320.423937 -108.117812 
L 319.26509 -100.942876 
L 318.106243 -94.636855 
L 316.947396 -89.143109 
L 315.788549 -84.398169 
L 314.629702 -80.334507 
L 313.470855 -76.883037 
L 312.312008 -73.975306 
L 311.153161 -71.545341 
L 309.994314 -69.53113 
L 308.835467 -67.875731 
L 307.67662 -66.528012 
L 306.517773 -65.443025 
L 305.358926 -64.58206 
L 304.200079 -63.912403 
L 303.041232 -63.406857 
L 301.882384 -63.043079 
L 300.723537 -62.802808 
L 299.56469 -62.671034 
L 298.405843 -62.635179 
L 297.246996 -62.684341 
L 296.088149 -62.808642 
L 294.929302 -62.998709 
L 293.770455 -63.245306 
L 292.611608 -63.539116 
L 291.452761 -63.870661 
L 290.293914 -64.230336 
L 289.135067 -64.608532 
L 287.97622 -64.995816 
L 286.817373 -65.383133 
L 285.658526 -65.761994 
L 284.499678 -66.12464 
L 283.340831 -66.464158 
L 282.181984 -66.774529 
L 281.023137 -67.050628 
L 279.86429 -67.28816 
L 278.705443 -67.483554 
L 277.546596 -67.633827 
L 276.387749 -67.736435 
L 275.228902 -67.789122 
L 274.070055 -67.789795 
L 272.911208 -67.736424 
L 271.752361 -67.626995 
L 270.593514 -67.4595 
L 269.434667 -67.231988 
L 268.27582 -66.942665 
L 267.116973 -66.59003 
L 265.958125 -66.173052 
L 264.799278 -65.691363 
L 263.640431 -65.145448 
L 262.481584 -64.536831 
L 261.322737 -63.86822 
L 260.16389 -63.143611 
L 259.005043 -62.368329 
L 257.846196 -61.549003 
L 256.687349 -60.69346 
L 255.528502 -59.810564 
L 254.369655 -58.909974 
L 253.210808 -58.001862 
L 252.051961 -57.096591 
L 250.893114 -56.204381 
L 249.734267 -55.334971 
L 248.575419 -54.497314 
L 247.416572 -53.699312 
L 246.257725 -52.947598 
L 245.098878 -52.247395 
L 243.940031 -51.602437 
L 242.781184 -51.014966 
L 241.622337 -50.485785 
L 240.46349 -50.014375 
L 239.304643 -49.599057 
L 238.145796 -49.237173 
L 236.986949 -48.925302 
L 235.828102 -48.659466 
L 234.669255 -48.435336 
L 233.510408 -48.248419 
L 232.351561 -48.094222 
L 231.192714 -47.968391 
L 230.033866 -47.866811 
L 228.875019 -47.785687 
L 227.716172 -47.721593 
L 226.557325 -47.671494 
L 225.398478 -47.63275 
z
" style="stroke: #87ceeb"/>
    </defs>
    <g clip-path="url(#pfaadc34630)">
     <use xlink:href="#meb4cca3183" x="0" y="432" style="fill: #87ceeb; fill-opacity: 0.25; stroke: #87ceeb"/>
    </g>
   </g>
   <g id="PolyCollection_2">
    <defs>
     <path id="ma22cae9237" d="M 92.290909 -47.654407 
L 92.290909 -47.52 
L 94.330196 -47.52 
L 96.369484 -47.52 
L 98.408771 -47.52 
L 100.448058 -47.52 
L 102.487346 -47.52 
L 104.526633 -47.52 
L 106.565921 -47.52 
L 108.605208 -47.52 
L 110.644495 -47.52 
L 112.683783 -47.52 
L 114.72307 -47.52 
L 116.762357 -47.52 
L 118.801645 -47.52 
L 120.840932 -47.52 
L 122.880219 -47.52 
L 124.919507 -47.52 
L 126.958794 -47.52 
L 128.998081 -47.52 
L 131.037369 -47.52 
L 133.076656 -47.52 
L 135.115943 -47.52 
L 137.155231 -47.52 
L 139.194518 -47.52 
L 141.233805 -47.52 
L 143.273093 -47.52 
L 145.31238 -47.52 
L 147.351667 -47.52 
L 149.390955 -47.52 
L 151.430242 -47.52 
L 153.469529 -47.52 
L 155.508817 -47.52 
L 157.548104 -47.52 
L 159.587392 -47.52 
L 161.626679 -47.52 
L 163.665966 -47.52 
L 165.705254 -47.52 
L 167.744541 -47.52 
L 169.783828 -47.52 
L 171.823116 -47.52 
L 173.862403 -47.52 
L 175.90169 -47.52 
L 177.940978 -47.52 
L 179.980265 -47.52 
L 182.019552 -47.52 
L 184.05884 -47.52 
L 186.098127 -47.52 
L 188.137414 -47.52 
L 190.176702 -47.52 
L 192.215989 -47.52 
L 194.255276 -47.52 
L 196.294564 -47.52 
L 198.333851 -47.52 
L 200.373138 -47.52 
L 202.412426 -47.52 
L 204.451713 -47.52 
L 206.491 -47.52 
L 208.530288 -47.52 
L 210.569575 -47.52 
L 212.608862 -47.52 
L 214.64815 -47.52 
L 216.687437 -47.52 
L 218.726725 -47.52 
L 220.766012 -47.52 
L 222.805299 -47.52 
L 224.844587 -47.52 
L 226.883874 -47.52 
L 228.923161 -47.52 
L 230.962449 -47.52 
L 233.001736 -47.52 
L 235.041023 -47.52 
L 237.080311 -47.52 
L 239.119598 -47.52 
L 241.158885 -47.52 
L 243.198173 -47.52 
L 245.23746 -47.52 
L 247.276747 -47.52 
L 249.316035 -47.52 
L 251.355322 -47.52 
L 253.394609 -47.52 
L 255.433897 -47.52 
L 257.473184 -47.52 
L 259.512471 -47.52 
L 261.551759 -47.52 
L 263.591046 -47.52 
L 265.630333 -47.52 
L 267.669621 -47.52 
L 269.708908 -47.52 
L 271.748196 -47.52 
L 273.787483 -47.52 
L 275.82677 -47.52 
L 277.866058 -47.52 
L 279.905345 -47.52 
L 281.944632 -47.52 
L 283.98392 -47.52 
L 286.023207 -47.52 
L 288.062494 -47.52 
L 290.101782 -47.52 
L 292.141069 -47.52 
L 294.180356 -47.52 
L 296.219644 -47.52 
L 298.258931 -47.52 
L 300.298218 -47.52 
L 302.337506 -47.52 
L 304.376793 -47.52 
L 306.41608 -47.52 
L 308.455368 -47.52 
L 310.494655 -47.52 
L 312.533942 -47.52 
L 314.57323 -47.52 
L 316.612517 -47.52 
L 318.651804 -47.52 
L 320.691092 -47.52 
L 322.730379 -47.52 
L 324.769667 -47.52 
L 326.808954 -47.52 
L 328.848241 -47.52 
L 330.887529 -47.52 
L 332.926816 -47.52 
L 334.966103 -47.52 
L 337.005391 -47.52 
L 339.044678 -47.52 
L 341.083965 -47.52 
L 343.123253 -47.52 
L 345.16254 -47.52 
L 347.201827 -47.52 
L 349.241115 -47.52 
L 351.280402 -47.52 
L 353.319689 -47.52 
L 355.358977 -47.52 
L 357.398264 -47.52 
L 359.437551 -47.52 
L 361.476839 -47.52 
L 363.516126 -47.52 
L 365.555413 -47.52 
L 367.594701 -47.52 
L 369.633988 -47.52 
L 371.673275 -47.52 
L 373.712563 -47.52 
L 375.75185 -47.52 
L 377.791138 -47.52 
L 379.830425 -47.52 
L 381.869712 -47.52 
L 383.909 -47.52 
L 385.948287 -47.52 
L 387.987574 -47.52 
L 390.026862 -47.52 
L 392.066149 -47.52 
L 394.105436 -47.52 
L 396.144724 -47.52 
L 398.184011 -47.52 
L 400.223298 -47.52 
L 402.262586 -47.52 
L 404.301873 -47.52 
L 406.34116 -47.52 
L 408.380448 -47.52 
L 410.419735 -47.52 
L 412.459022 -47.52 
L 414.49831 -47.52 
L 416.537597 -47.52 
L 418.576884 -47.52 
L 420.616172 -47.52 
L 422.655459 -47.52 
L 424.694746 -47.52 
L 426.734034 -47.52 
L 428.773321 -47.52 
L 430.812608 -47.52 
L 432.851896 -47.52 
L 434.891183 -47.52 
L 436.930471 -47.52 
L 438.969758 -47.52 
L 441.009045 -47.52 
L 443.048333 -47.52 
L 445.08762 -47.52 
L 447.126907 -47.52 
L 449.166195 -47.52 
L 451.205482 -47.52 
L 453.244769 -47.52 
L 455.284057 -47.52 
L 457.323344 -47.52 
L 459.362631 -47.52 
L 461.401919 -47.52 
L 463.441206 -47.52 
L 465.480493 -47.52 
L 467.519781 -47.52 
L 469.559068 -47.52 
L 471.598355 -47.52 
L 473.637643 -47.52 
L 475.67693 -47.52 
L 477.716217 -47.52 
L 479.755505 -47.52 
L 481.794792 -47.52 
L 483.834079 -47.52 
L 485.873367 -47.52 
L 487.912654 -47.52 
L 489.951942 -47.52 
L 491.991229 -47.52 
L 494.030516 -47.52 
L 496.069804 -47.52 
L 498.109091 -47.52 
L 498.109091 -47.624074 
L 498.109091 -47.624074 
L 496.069804 -47.646316 
L 494.030516 -47.672695 
L 491.991229 -47.703845 
L 489.951942 -47.74047 
L 487.912654 -47.783345 
L 485.873367 -47.833324 
L 483.834079 -47.891335 
L 481.794792 -47.958384 
L 479.755505 -48.035557 
L 477.716217 -48.124016 
L 475.67693 -48.224999 
L 473.637643 -48.339819 
L 471.598355 -48.469857 
L 469.559068 -48.616567 
L 467.519781 -48.781465 
L 465.480493 -48.966134 
L 463.441206 -49.172217 
L 461.401919 -49.401423 
L 459.362631 -49.655523 
L 457.323344 -49.936361 
L 455.284057 -50.245856 
L 453.244769 -50.586021 
L 451.205482 -50.95897 
L 449.166195 -51.366942 
L 447.126907 -51.812328 
L 445.08762 -52.297692 
L 443.048333 -52.825809 
L 441.009045 -53.399698 
L 438.969758 -54.022658 
L 436.930471 -54.698311 
L 434.891183 -55.430633 
L 432.851896 -56.223992 
L 430.812608 -57.083178 
L 428.773321 -58.013423 
L 426.734034 -59.020408 
L 424.694746 -60.110267 
L 422.655459 -61.28956 
L 420.616172 -62.565238 
L 418.576884 -63.944579 
L 416.537597 -65.435104 
L 414.49831 -67.044461 
L 412.459022 -68.780291 
L 410.419735 -70.650057 
L 408.380448 -72.660857 
L 406.34116 -74.819202 
L 404.301873 -77.130782 
L 402.262586 -79.600213 
L 400.223298 -82.230764 
L 398.184011 -85.024093 
L 396.144724 -87.979977 
L 394.105436 -91.096051 
L 392.066149 -94.367572 
L 390.026862 -97.787209 
L 387.987574 -101.344869 
L 385.948287 -105.027572 
L 383.909 -108.819381 
L 381.869712 -112.701388 
L 379.830425 -116.651776 
L 377.791138 -120.645943 
L 375.75185 -124.656707 
L 373.712563 -128.654581 
L 371.673275 -132.60812 
L 369.633988 -136.484333 
L 367.594701 -140.249158 
L 365.555413 -143.867984 
L 363.516126 -147.306215 
L 361.476839 -150.529863 
L 359.437551 -153.506146 
L 357.398264 -156.204095 
L 355.358977 -158.595132 
L 353.319689 -160.653624 
L 351.280402 -162.357385 
L 349.241115 -163.688119 
L 347.201827 -164.631782 
L 345.16254 -165.178875 
L 343.123253 -165.32463 
L 341.083965 -165.069106 
L 339.044678 -164.417188 
L 337.005391 -163.378485 
L 334.966103 -161.967126 
L 332.926816 -160.201477 
L 330.887529 -158.103765 
L 328.848241 -155.699641 
L 326.808954 -153.017677 
L 324.769667 -150.088816 
L 322.730379 -146.9458 
L 320.691092 -143.622574 
L 318.651804 -140.15369 
L 316.612517 -136.573725 
L 314.57323 -132.916727 
L 312.533942 -129.215696 
L 310.494655 -125.502114 
L 308.455368 -121.805538 
L 306.41608 -118.153246 
L 304.376793 -114.569963 
L 302.337506 -111.077646 
L 300.298218 -107.695348 
L 298.258931 -104.439152 
L 296.219644 -101.322159 
L 294.180356 -98.35455 
L 292.141069 -95.543699 
L 290.101782 -92.89433 
L 288.062494 -90.408715 
L 286.023207 -88.08691 
L 283.98392 -85.927008 
L 281.944632 -83.925409 
L 279.905345 -82.077103 
L 277.866058 -80.375943 
L 275.82677 -78.81492 
L 273.787483 -77.386427 
L 271.748196 -76.082495 
L 269.708908 -74.895016 
L 267.669621 -73.815943 
L 265.630333 -72.83745 
L 263.591046 -71.952075 
L 261.551759 -71.152828 
L 259.512471 -70.433267 
L 257.473184 -69.787548 
L 255.433897 -69.210446 
L 253.394609 -68.697348 
L 251.355322 -68.244226 
L 249.316035 -67.847583 
L 247.276747 -67.504393 
L 245.23746 -67.212012 
L 243.198173 -66.968092 
L 241.158885 -66.770483 
L 239.119598 -66.617126 
L 237.080311 -66.505961 
L 235.041023 -66.434829 
L 233.001736 -66.401383 
L 230.962449 -66.403015 
L 228.923161 -66.436791 
L 226.883874 -66.499404 
L 224.844587 -66.587145 
L 222.805299 -66.695893 
L 220.766012 -66.82112 
L 218.726725 -66.957919 
L 216.687437 -67.101049 
L 214.64815 -67.244995 
L 212.608862 -67.384046 
L 210.569575 -67.512381 
L 208.530288 -67.624171 
L 206.491 -67.713684 
L 204.451713 -67.775391 
L 202.412426 -67.804078 
L 200.373138 -67.794952 
L 198.333851 -67.743738 
L 196.294564 -67.64677 
L 194.255276 -67.501069 
L 192.215989 -67.304402 
L 190.176702 -67.055333 
L 188.137414 -66.753246 
L 186.098127 -66.398357 
L 184.05884 -65.991704 
L 182.019552 -65.53512 
L 179.980265 -65.031187 
L 177.940978 -64.483178 
L 175.90169 -63.894978 
L 173.862403 -63.271004 
L 171.823116 -62.616105 
L 169.783828 -61.935464 
L 167.744541 -61.234492 
L 165.705254 -60.518727 
L 163.665966 -59.793725 
L 161.626679 -59.064967 
L 159.587392 -58.337764 
L 157.548104 -57.617178 
L 155.508817 -56.907947 
L 153.469529 -56.214423 
L 151.430242 -55.540526 
L 149.390955 -54.889705 
L 147.351667 -54.264916 
L 145.31238 -53.668608 
L 143.273093 -53.102724 
L 141.233805 -52.568708 
L 139.194518 -52.067528 
L 137.155231 -51.599697 
L 135.115943 -51.165314 
L 133.076656 -50.764096 
L 131.037369 -50.395421 
L 128.998081 -50.058378 
L 126.958794 -49.751803 
L 124.919507 -49.474332 
L 122.880219 -49.224441 
L 120.840932 -49.000489 
L 118.801645 -48.800757 
L 116.762357 -48.623482 
L 114.72307 -48.466889 
L 112.683783 -48.329221 
L 110.644495 -48.208761 
L 108.605208 -48.103851 
L 106.565921 -48.01291 
L 104.526633 -47.934441 
L 102.487346 -47.867046 
L 100.448058 -47.809428 
L 98.408771 -47.760393 
L 96.369484 -47.718852 
L 94.330196 -47.683819 
L 92.290909 -47.654407 
z
" style="stroke: #fa8072"/>
    </defs>
    <g clip-path="url(#pfaadc34630)">
     <use xlink:href="#ma22cae9237" x="0" y="432" style="fill: #fa8072; fill-opacity: 0.25; stroke: #fa8072"/>
    </g>
   </g>
   <g id="matplotlib.axis_1">
    <g id="xtick_1">
     <g id="line2d_1">
      <defs>
       <path id="m94a95dd91e" d="M 0 0 
L 0 3.5 
" style="stroke: #000000; stroke-width: 0.8"/>
      </defs>
      <g>
       <use xlink:href="#m94a95dd91e" x="101.566974" y="384.48" style="stroke: #000000; stroke-width: 0.8"/>
      </g>
     </g>
     <g id="text_1">
      <!-- 85 -->
      <g transform="translate(96.006037 398.653437) scale(0.1 -0.1)">
       <defs>
        <path id="Helvetica-38" d="M 1741 2600 
Q 2113 2600 2322 2808 
Q 2531 3016 2531 3303 
Q 2531 3553 2331 3762 
Q 2131 3972 1722 3972 
Q 1316 3972 1134 3762 
Q 953 3553 953 3272 
Q 953 2956 1187 2778 
Q 1422 2600 1741 2600 
z
M 1775 384 
Q 2166 384 2423 595 
Q 2681 806 2681 1225 
Q 2681 1659 2415 1884 
Q 2150 2109 1734 2109 
Q 1331 2109 1076 1879 
Q 822 1650 822 1244 
Q 822 894 1055 639 
Q 1288 384 1775 384 
z
M 975 2384 
Q 741 2484 609 2619 
Q 363 2869 363 3269 
Q 363 3769 725 4128 
Q 1088 4488 1753 4488 
Q 2397 4488 2762 4148 
Q 3128 3809 3128 3356 
Q 3128 2938 2916 2678 
Q 2797 2531 2547 2391 
Q 2825 2263 2984 2097 
Q 3281 1784 3281 1284 
Q 3281 694 2884 283 
Q 2488 -128 1763 -128 
Q 1109 -128 657 226 
Q 206 581 206 1256 
Q 206 1653 400 1942 
Q 594 2231 975 2384 
z
" transform="scale(0.015625)"/>
        <path id="Helvetica-35" d="M 791 1141 
Q 847 659 1238 475 
Q 1438 381 1700 381 
Q 2200 381 2440 700 
Q 2681 1019 2681 1406 
Q 2681 1875 2395 2131 
Q 2109 2388 1709 2388 
Q 1419 2388 1211 2275 
Q 1003 2163 856 1963 
L 369 1991 
L 709 4400 
L 3034 4400 
L 3034 3856 
L 1131 3856 
L 941 2613 
Q 1097 2731 1238 2791 
Q 1488 2894 1816 2894 
Q 2431 2894 2859 2497 
Q 3288 2100 3288 1491 
Q 3288 856 2895 371 
Q 2503 -113 1644 -113 
Q 1097 -113 676 195 
Q 256 503 206 1141 
L 791 1141 
z
" transform="scale(0.015625)"/>
       </defs>
       <use xlink:href="#Helvetica-38"/>
       <use xlink:href="#Helvetica-35" x="55.615234"/>
      </g>
     </g>
    </g>
    <g id="xtick_2">
     <g id="line2d_2">
      <g>
       <use xlink:href="#m94a95dd91e" x="198.383487" y="384.48" style="stroke: #000000; stroke-width: 0.8"/>
      </g>
     </g>
     <g id="text_2">
      <!-- 90 -->
      <g transform="translate(192.82255 398.653437) scale(0.1 -0.1)">
       <defs>
        <path id="Helvetica-39" d="M 850 1081 
Q 875 616 1209 438 
Q 1381 344 1597 344 
Q 2000 344 2284 680 
Q 2569 1016 2688 2044 
Q 2500 1747 2223 1626 
Q 1947 1506 1628 1506 
Q 981 1506 604 1909 
Q 228 2313 228 2947 
Q 228 3556 600 4018 
Q 972 4481 1697 4481 
Q 2675 4481 3047 3600 
Q 3253 3116 3253 2388 
Q 3253 1566 3006 931 
Q 2597 -125 1619 -125 
Q 963 -125 622 219 
Q 281 563 281 1081 
L 850 1081 
z
M 1703 2000 
Q 2038 2000 2314 2220 
Q 2591 2441 2591 2991 
Q 2591 3484 2342 3726 
Q 2094 3969 1709 3969 
Q 1297 3969 1055 3692 
Q 813 3416 813 2953 
Q 813 2516 1025 2258 
Q 1238 2000 1703 2000 
z
" transform="scale(0.015625)"/>
        <path id="Helvetica-30" d="M 1731 4475 
Q 2600 4475 2988 3759 
Q 3288 3206 3288 2244 
Q 3288 1331 3016 734 
Q 2622 -122 1728 -122 
Q 922 -122 528 578 
Q 200 1163 200 2147 
Q 200 2909 397 3456 
Q 766 4475 1731 4475 
z
M 1725 391 
Q 2163 391 2422 778 
Q 2681 1166 2681 2222 
Q 2681 2984 2493 3476 
Q 2306 3969 1766 3969 
Q 1269 3969 1039 3501 
Q 809 3034 809 2125 
Q 809 1441 956 1025 
Q 1181 391 1725 391 
z
" transform="scale(0.015625)"/>
       </defs>
       <use xlink:href="#Helvetica-39"/>
       <use xlink:href="#Helvetica-30" x="55.615234"/>
      </g>
     </g>
    </g>
    <g id="xtick_3">
     <g id="line2d_3">
      <g>
       <use xlink:href="#m94a95dd91e" x="295.2" y="384.48" style="stroke: #000000; stroke-width: 0.8"/>
      </g>
     </g>
     <g id="text_3">
      <!-- 95 -->
      <g transform="translate(289.639062 398.653437) scale(0.1 -0.1)">
       <use xlink:href="#Helvetica-39"/>
       <use xlink:href="#Helvetica-35" x="55.615234"/>
      </g>
     </g>
    </g>
    <g id="xtick_4">
     <g id="line2d_4">
      <g>
       <use xlink:href="#m94a95dd91e" x="392.016513" y="384.48" style="stroke: #000000; stroke-width: 0.8"/>
      </g>
     </g>
     <g id="text_4">
      <!-- 100 -->
      <g transform="translate(383.675107 398.653437) scale(0.1 -0.1)">
       <defs>
        <path id="Helvetica-31" d="M 613 3169 
L 613 3600 
Q 1222 3659 1462 3798 
Q 1703 3938 1822 4456 
L 2266 4456 
L 2266 0 
L 1666 0 
L 1666 3169 
L 613 3169 
z
" transform="scale(0.015625)"/>
       </defs>
       <use xlink:href="#Helvetica-31"/>
       <use xlink:href="#Helvetica-30" x="55.615234"/>
       <use xlink:href="#Helvetica-30" x="111.230469"/>
      </g>
     </g>
    </g>
    <g id="xtick_5">
     <g id="line2d_5">
      <g>
       <use xlink:href="#m94a95dd91e" x="488.833026" y="384.48" style="stroke: #000000; stroke-width: 0.8"/>
      </g>
     </g>
     <g id="text_5">
      <!-- 105 -->
      <g transform="translate(480.49162 398.653437) scale(0.1 -0.1)">
       <use xlink:href="#Helvetica-31"/>
       <use xlink:href="#Helvetica-30" x="55.615234"/>
       <use xlink:href="#Helvetica-35" x="111.230469"/>
      </g>
     </g>
    </g>
    <g id="text_6">
     <!-- Temperature -->
     <g transform="translate(266.579687 411.91125) scale(0.1 -0.1)">
      <defs>
       <path id="Helvetica-54" d="M 3828 4591 
L 3828 4044 
L 2281 4044 
L 2281 0 
L 1650 0 
L 1650 4044 
L 103 4044 
L 103 4591 
L 3828 4591 
z
" transform="scale(0.015625)"/>
       <path id="Helvetica-65" d="M 1806 3422 
Q 2163 3422 2497 3255 
Q 2831 3088 3006 2822 
Q 3175 2569 3231 2231 
Q 3281 2000 3281 1494 
L 828 1494 
Q 844 984 1069 676 
Q 1294 369 1766 369 
Q 2206 369 2469 659 
Q 2619 828 2681 1050 
L 3234 1050 
Q 3213 866 3089 639 
Q 2966 413 2813 269 
Q 2556 19 2178 -69 
Q 1975 -119 1719 -119 
Q 1094 -119 659 336 
Q 225 791 225 1609 
Q 225 2416 662 2919 
Q 1100 3422 1806 3422 
z
M 2703 1941 
Q 2669 2306 2544 2525 
Q 2313 2931 1772 2931 
Q 1384 2931 1121 2651 
Q 859 2372 844 1941 
L 2703 1941 
z
M 1753 3428 
L 1753 3428 
z
" transform="scale(0.015625)"/>
       <path id="Helvetica-6d" d="M 413 3347 
L 969 3347 
L 969 2872 
Q 1169 3119 1331 3231 
Q 1609 3422 1963 3422 
Q 2363 3422 2606 3225 
Q 2744 3113 2856 2894 
Q 3044 3163 3297 3292 
Q 3550 3422 3866 3422 
Q 4541 3422 4784 2934 
Q 4916 2672 4916 2228 
L 4916 0 
L 4331 0 
L 4331 2325 
Q 4331 2659 4164 2784 
Q 3997 2909 3756 2909 
Q 3425 2909 3186 2687 
Q 2947 2466 2947 1947 
L 2947 0 
L 2375 0 
L 2375 2184 
Q 2375 2525 2294 2681 
Q 2166 2916 1816 2916 
Q 1497 2916 1236 2669 
Q 975 2422 975 1775 
L 975 0 
L 413 0 
L 413 3347 
z
" transform="scale(0.015625)"/>
       <path id="Helvetica-70" d="M 1825 378 
Q 2219 378 2480 708 
Q 2741 1038 2741 1694 
Q 2741 2094 2625 2381 
Q 2406 2934 1825 2934 
Q 1241 2934 1025 2350 
Q 909 2038 909 1556 
Q 909 1169 1025 897 
Q 1244 378 1825 378 
z
M 369 3331 
L 916 3331 
L 916 2888 
Q 1084 3116 1284 3241 
Q 1569 3428 1953 3428 
Q 2522 3428 2919 2992 
Q 3316 2556 3316 1747 
Q 3316 653 2744 184 
Q 2381 -113 1900 -113 
Q 1522 -113 1266 53 
Q 1116 147 931 375 
L 931 -1334 
L 369 -1334 
L 369 3331 
z
" transform="scale(0.015625)"/>
       <path id="Helvetica-72" d="M 428 3347 
L 963 3347 
L 963 2769 
Q 1028 2938 1284 3180 
Q 1541 3422 1875 3422 
Q 1891 3422 1928 3419 
Q 1966 3416 2056 3406 
L 2056 2813 
Q 2006 2822 1964 2825 
Q 1922 2828 1872 2828 
Q 1447 2828 1219 2554 
Q 991 2281 991 1925 
L 991 0 
L 428 0 
L 428 3347 
z
" transform="scale(0.015625)"/>
       <path id="Helvetica-61" d="M 844 891 
Q 844 647 1022 506 
Q 1200 366 1444 366 
Q 1741 366 2019 503 
Q 2488 731 2488 1250 
L 2488 1703 
Q 2384 1638 2221 1594 
Q 2059 1550 1903 1531 
L 1563 1488 
Q 1256 1447 1103 1359 
Q 844 1213 844 891 
z
M 2206 2028 
Q 2400 2053 2466 2191 
Q 2503 2266 2503 2406 
Q 2503 2694 2298 2823 
Q 2094 2953 1713 2953 
Q 1272 2953 1088 2716 
Q 984 2584 953 2325 
L 428 2325 
Q 444 2944 830 3186 
Q 1216 3428 1725 3428 
Q 2316 3428 2684 3203 
Q 3050 2978 3050 2503 
L 3050 575 
Q 3050 488 3086 434 
Q 3122 381 3238 381 
Q 3275 381 3322 386 
Q 3369 391 3422 400 
L 3422 -16 
Q 3291 -53 3222 -62 
Q 3153 -72 3034 -72 
Q 2744 -72 2613 134 
Q 2544 244 2516 444 
Q 2344 219 2022 53 
Q 1700 -113 1313 -113 
Q 847 -113 551 170 
Q 256 453 256 878 
Q 256 1344 547 1600 
Q 838 1856 1309 1916 
L 2206 2028 
z
M 1741 3428 
L 1741 3428 
z
" transform="scale(0.015625)"/>
       <path id="Helvetica-74" d="M 525 4281 
L 1094 4281 
L 1094 3347 
L 1628 3347 
L 1628 2888 
L 1094 2888 
L 1094 703 
Q 1094 528 1213 469 
Q 1278 434 1431 434 
Q 1472 434 1519 436 
Q 1566 438 1628 444 
L 1628 0 
Q 1531 -28 1426 -40 
Q 1322 -53 1200 -53 
Q 806 -53 665 148 
Q 525 350 525 672 
L 525 2888 
L 72 2888 
L 72 3347 
L 525 3347 
L 525 4281 
z
" transform="scale(0.015625)"/>
       <path id="Helvetica-75" d="M 975 3347 
L 975 1125 
Q 975 869 1056 706 
Q 1206 406 1616 406 
Q 2203 406 2416 931 
Q 2531 1213 2531 1703 
L 2531 3347 
L 3094 3347 
L 3094 0 
L 2563 0 
L 2569 494 
Q 2459 303 2297 172 
Q 1975 -91 1516 -91 
Q 800 -91 541 388 
Q 400 644 400 1072 
L 400 3347 
L 975 3347 
z
M 1747 3428 
L 1747 3428 
z
" transform="scale(0.015625)"/>
      </defs>
      <use xlink:href="#Helvetica-54"/>
      <use xlink:href="#Helvetica-65" x="61.083984"/>
      <use xlink:href="#Helvetica-6d" x="116.699219"/>
      <use xlink:href="#Helvetica-70" x="200"/>
      <use xlink:href="#Helvetica-65" x="255.615234"/>
      <use xlink:href="#Helvetica-72" x="311.230469"/>
      <use xlink:href="#Helvetica-61" x="344.53125"/>
      <use xlink:href="#Helvetica-74" x="400.146484"/>
      <use xlink:href="#Helvetica-75" x="427.929688"/>
      <use xlink:href="#Helvetica-72" x="483.544922"/>
      <use xlink:href="#Helvetica-65" x="516.845703"/>
     </g>
    </g>
   </g>
   <g id="matplotlib.axis_2">
    <g id="ytick_1">
     <g id="line2d_6">
      <defs>
       <path id="m06fb24db7e" d="M 0 0 
L -3.5 0 
" style="stroke: #000000; stroke-width: 0.8"/>
      </defs>
      <g>
       <use xlink:href="#m06fb24db7e" x="72" y="384.48" style="stroke: #000000; stroke-width: 0.8"/>
      </g>
     </g>
     <g id="text_7">
      <!-- 0.0 -->
      <g transform="translate(51.1 388.066719) scale(0.1 -0.1)">
       <defs>
        <path id="Helvetica-2e" d="M 547 681 
L 1200 681 
L 1200 0 
L 547 0 
L 547 681 
z
" transform="scale(0.015625)"/>
       </defs>
       <use xlink:href="#Helvetica-30"/>
       <use xlink:href="#Helvetica-2e" x="55.615234"/>
       <use xlink:href="#Helvetica-30" x="83.398438"/>
      </g>
     </g>
    </g>
    <g id="ytick_2">
     <g id="line2d_7">
      <g>
       <use xlink:href="#m06fb24db7e" x="72" y="316.660219" style="stroke: #000000; stroke-width: 0.8"/>
      </g>
     </g>
     <g id="text_8">
      <!-- 0.1 -->
      <g transform="translate(51.1 320.246938) scale(0.1 -0.1)">
       <use xlink:href="#Helvetica-30"/>
       <use xlink:href="#Helvetica-2e" x="55.615234"/>
       <use xlink:href="#Helvetica-31" x="83.398438"/>
      </g>
     </g>
    </g>
    <g id="ytick_3">
     <g id="line2d_8">
      <g>
       <use xlink:href="#m06fb24db7e" x="72" y="248.840439" style="stroke: #000000; stroke-width: 0.8"/>
      </g>
     </g>
     <g id="text_9">
      <!-- 0.2 -->
      <g transform="translate(51.1 252.427158) scale(0.1 -0.1)">
       <defs>
        <path id="Helvetica-32" d="M 200 0 
Q 231 578 439 1006 
Q 647 1434 1250 1784 
L 1850 2131 
Q 2253 2366 2416 2531 
Q 2672 2791 2672 3125 
Q 2672 3516 2437 3745 
Q 2203 3975 1813 3975 
Q 1234 3975 1013 3538 
Q 894 3303 881 2888 
L 309 2888 
Q 319 3472 525 3841 
Q 891 4491 1816 4491 
Q 2584 4491 2939 4075 
Q 3294 3659 3294 3150 
Q 3294 2613 2916 2231 
Q 2697 2009 2131 1694 
L 1703 1456 
Q 1397 1288 1222 1134 
Q 909 863 828 531 
L 3272 531 
L 3272 0 
L 200 0 
z
" transform="scale(0.015625)"/>
       </defs>
       <use xlink:href="#Helvetica-30"/>
       <use xlink:href="#Helvetica-2e" x="55.615234"/>
       <use xlink:href="#Helvetica-32" x="83.398438"/>
      </g>
     </g>
    </g>
    <g id="ytick_4">
     <g id="line2d_9">
      <g>
       <use xlink:href="#m06fb24db7e" x="72" y="181.020658" style="stroke: #000000; stroke-width: 0.8"/>
      </g>
     </g>
     <g id="text_10">
      <!-- 0.3 -->
      <g transform="translate(51.1 184.607377) scale(0.1 -0.1)">
       <defs>
        <path id="Helvetica-33" d="M 1663 -122 
Q 869 -122 511 314 
Q 153 750 153 1375 
L 741 1375 
Q 778 941 903 744 
Q 1122 391 1694 391 
Q 2138 391 2406 628 
Q 2675 866 2675 1241 
Q 2675 1703 2392 1887 
Q 2109 2072 1606 2072 
Q 1550 2072 1492 2070 
Q 1434 2069 1375 2066 
L 1375 2563 
Q 1463 2553 1522 2550 
Q 1581 2547 1650 2547 
Q 1966 2547 2169 2647 
Q 2525 2822 2525 3272 
Q 2525 3606 2287 3787 
Q 2050 3969 1734 3969 
Q 1172 3969 956 3594 
Q 838 3388 822 3006 
L 266 3006 
Q 266 3506 466 3856 
Q 809 4481 1675 4481 
Q 2359 4481 2734 4176 
Q 3109 3872 3109 3294 
Q 3109 2881 2888 2625 
Q 2750 2466 2531 2375 
Q 2884 2278 3082 2001 
Q 3281 1725 3281 1325 
Q 3281 684 2859 281 
Q 2438 -122 1663 -122 
z
" transform="scale(0.015625)"/>
       </defs>
       <use xlink:href="#Helvetica-30"/>
       <use xlink:href="#Helvetica-2e" x="55.615234"/>
       <use xlink:href="#Helvetica-33" x="83.398438"/>
      </g>
     </g>
    </g>
    <g id="ytick_5">
     <g id="line2d_10">
      <g>
       <use xlink:href="#m06fb24db7e" x="72" y="113.200878" style="stroke: #000000; stroke-width: 0.8"/>
      </g>
     </g>
     <g id="text_11">
      <!-- 0.4 -->
      <g transform="translate(51.1 116.787596) scale(0.1 -0.1)">
       <defs>
        <path id="Helvetica-34" d="M 2116 1584 
L 2116 3613 
L 681 1584 
L 2116 1584 
z
M 2125 0 
L 2125 1094 
L 163 1094 
L 163 1644 
L 2213 4488 
L 2688 4488 
L 2688 1584 
L 3347 1584 
L 3347 1094 
L 2688 1094 
L 2688 0 
L 2125 0 
z
" transform="scale(0.015625)"/>
       </defs>
       <use xlink:href="#Helvetica-30"/>
       <use xlink:href="#Helvetica-2e" x="55.615234"/>
       <use xlink:href="#Helvetica-34" x="83.398438"/>
      </g>
     </g>
    </g>
    <g id="text_12">
     <!-- Density -->
     <g transform="translate(44.95625 234.831875) rotate(-90) scale(0.1 -0.1)">
      <defs>
       <path id="Helvetica-44" d="M 2250 531 
Q 2566 531 2769 597 
Q 3131 719 3363 1066 
Q 3547 1344 3628 1778 
Q 3675 2038 3675 2259 
Q 3675 3113 3336 3584 
Q 2997 4056 2244 4056 
L 1141 4056 
L 1141 531 
L 2250 531 
z
M 516 4591 
L 2375 4591 
Q 3322 4591 3844 3919 
Q 4309 3313 4309 2366 
Q 4309 1634 4034 1044 
Q 3550 0 2369 0 
L 516 0 
L 516 4591 
z
" transform="scale(0.015625)"/>
       <path id="Helvetica-6e" d="M 413 3347 
L 947 3347 
L 947 2872 
Q 1184 3166 1450 3294 
Q 1716 3422 2041 3422 
Q 2753 3422 3003 2925 
Q 3141 2653 3141 2147 
L 3141 0 
L 2569 0 
L 2569 2109 
Q 2569 2416 2478 2603 
Q 2328 2916 1934 2916 
Q 1734 2916 1606 2875 
Q 1375 2806 1200 2600 
Q 1059 2434 1017 2257 
Q 975 2081 975 1753 
L 975 0 
L 413 0 
L 413 3347 
z
M 1734 3428 
L 1734 3428 
z
" transform="scale(0.015625)"/>
       <path id="Helvetica-73" d="M 747 1050 
Q 772 769 888 619 
Q 1100 347 1625 347 
Q 1938 347 2175 483 
Q 2413 619 2413 903 
Q 2413 1119 2222 1231 
Q 2100 1300 1741 1391 
L 1294 1503 
Q 866 1609 663 1741 
Q 300 1969 300 2372 
Q 300 2847 642 3140 
Q 984 3434 1563 3434 
Q 2319 3434 2653 2991 
Q 2863 2709 2856 2384 
L 2325 2384 
Q 2309 2575 2191 2731 
Q 1997 2953 1519 2953 
Q 1200 2953 1036 2831 
Q 872 2709 872 2509 
Q 872 2291 1088 2159 
Q 1213 2081 1456 2022 
L 1828 1931 
Q 2434 1784 2641 1647 
Q 2969 1431 2969 969 
Q 2969 522 2630 197 
Q 2291 -128 1597 -128 
Q 850 -128 539 211 
Q 228 550 206 1050 
L 747 1050 
z
M 1578 3428 
L 1578 3428 
z
" transform="scale(0.015625)"/>
       <path id="Helvetica-69" d="M 413 3331 
L 984 3331 
L 984 0 
L 413 0 
L 413 3331 
z
M 413 4591 
L 984 4591 
L 984 3953 
L 413 3953 
L 413 4591 
z
" transform="scale(0.015625)"/>
       <path id="Helvetica-79" d="M 2503 3347 
L 3125 3347 
Q 3006 3025 2597 1878 
Q 2291 1016 2084 472 
Q 1597 -809 1397 -1090 
Q 1197 -1372 709 -1372 
Q 591 -1372 527 -1362 
Q 463 -1353 369 -1328 
L 369 -816 
Q 516 -856 581 -865 
Q 647 -875 697 -875 
Q 853 -875 926 -823 
Q 1000 -772 1050 -697 
Q 1066 -672 1162 -440 
Q 1259 -209 1303 -97 
L 66 3347 
L 703 3347 
L 1600 622 
L 2503 3347 
z
M 1597 3428 
L 1597 3428 
z
" transform="scale(0.015625)"/>
      </defs>
      <use xlink:href="#Helvetica-44"/>
      <use xlink:href="#Helvetica-65" x="72.216797"/>
      <use xlink:href="#Helvetica-6e" x="127.832031"/>
      <use xlink:href="#Helvetica-73" x="183.447266"/>
      <use xlink:href="#Helvetica-69" x="233.447266"/>
      <use xlink:href="#Helvetica-74" x="255.664062"/>
      <use xlink:href="#Helvetica-79" x="283.447266"/>
     </g>
    </g>
   </g>
   <g id="patch_3">
    <path d="M 72 384.48 
L 72 51.84 
" style="fill: none; stroke: #000000; stroke-width: 0.8; stroke-linejoin: miter; stroke-linecap: square"/>
   </g>
   <g id="patch_4">
    <path d="M 518.4 384.48 
L 518.4 51.84 
" style="fill: none; stroke: #000000; stroke-width: 0.8; stroke-linejoin: miter; stroke-linecap: square"/>
   </g>
   <g id="patch_5">
    <path d="M 72 384.48 
L 518.4 384.48 
" style="fill: none; stroke: #000000; stroke-width: 0.8; stroke-linejoin: miter; stroke-linecap: square"/>
   </g>
   <g id="patch_6">
    <path d="M 72 51.84 
L 518.4 51.84 
" style="fill: none; stroke: #000000; stroke-width: 0.8; stroke-linejoin: miter; stroke-linecap: square"/>
   </g>
   <g id="legend_1">
    <g id="patch_7">
     <path d="M 434.373437 88.355625 
L 511.4 88.355625 
Q 513.4 88.355625 513.4 86.355625 
L 513.4 58.84 
Q 513.4 56.84 511.4 56.84 
L 434.373437 56.84 
Q 432.373437 56.84 432.373437 58.84 
L 432.373437 86.355625 
Q 432.373437 88.355625 434.373437 88.355625 
z
" style="fill: #ffffff; opacity: 0.8; stroke: #cccccc; stroke-linejoin: miter"/>
    </g>
    <g id="patch_8">
     <path d="M 436.373437 68.013437 
L 456.373437 68.013437 
L 456.373437 61.013437 
L 436.373437 61.013437 
z
" style="fill: #87ceeb; fill-opacity: 0.25; stroke: #87ceeb; stroke-linejoin: miter"/>
    </g>
    <g id="text_13">
     <!-- Alive -->
     <g transform="translate(464.373437 68.013437) scale(0.1 -0.1)">
      <defs>
       <path id="Helvetica-41" d="M 2844 1881 
L 2147 3909 
L 1406 1881 
L 2844 1881 
z
M 1822 4591 
L 2525 4591 
L 4191 0 
L 3509 0 
L 3044 1375 
L 1228 1375 
L 731 0 
L 94 0 
L 1822 4591 
z
" transform="scale(0.015625)"/>
       <path id="Helvetica-6c" d="M 428 4591 
L 991 4591 
L 991 0 
L 428 0 
L 428 4591 
z
" transform="scale(0.015625)"/>
       <path id="Helvetica-76" d="M 688 3347 
L 1581 622 
L 2516 3347 
L 3131 3347 
L 1869 0 
L 1269 0 
L 34 3347 
L 688 3347 
z
" transform="scale(0.015625)"/>
      </defs>
      <use xlink:href="#Helvetica-41"/>
      <use xlink:href="#Helvetica-6c" x="66.699219"/>
      <use xlink:href="#Helvetica-69" x="88.916016"/>
      <use xlink:href="#Helvetica-76" x="111.132812"/>
      <use xlink:href="#Helvetica-65" x="161.132812"/>
     </g>
    </g>
    <g id="patch_9">
     <path d="M 436.373437 82.27125 
L 456.373437 82.27125 
L 456.373437 75.27125 
L 436.373437 75.27125 
z
" style="fill: #fa8072; fill-opacity: 0.25; stroke: #fa8072; stroke-linejoin: miter"/>
    </g>
    <g id="text_14">
     <!-- Deceased -->
     <g transform="translate(464.373437 82.27125) scale(0.1 -0.1)">
      <defs>
       <path id="Helvetica-63" d="M 1703 3444 
Q 2269 3444 2623 3169 
Q 2978 2894 3050 2222 
L 2503 2222 
Q 2453 2531 2275 2736 
Q 2097 2941 1703 2941 
Q 1166 2941 934 2416 
Q 784 2075 784 1575 
Q 784 1072 996 728 
Q 1209 384 1666 384 
Q 2016 384 2220 598 
Q 2425 813 2503 1184 
L 3050 1184 
Q 2956 519 2581 211 
Q 2206 -97 1622 -97 
Q 966 -97 575 383 
Q 184 863 184 1581 
Q 184 2463 612 2953 
Q 1041 3444 1703 3444 
z
M 1616 3428 
L 1616 3428 
z
" transform="scale(0.015625)"/>
       <path id="Helvetica-64" d="M 769 1634 
Q 769 1097 997 734 
Q 1225 372 1728 372 
Q 2119 372 2370 708 
Q 2622 1044 2622 1672 
Q 2622 2306 2362 2611 
Q 2103 2916 1722 2916 
Q 1297 2916 1033 2591 
Q 769 2266 769 1634 
z
M 1616 3406 
Q 2000 3406 2259 3244 
Q 2409 3150 2600 2916 
L 2600 4606 
L 3141 4606 
L 3141 0 
L 2634 0 
L 2634 466 
Q 2438 156 2169 18 
Q 1900 -119 1553 -119 
Q 994 -119 584 351 
Q 175 822 175 1603 
Q 175 2334 548 2870 
Q 922 3406 1616 3406 
z
" transform="scale(0.015625)"/>
      </defs>
      <use xlink:href="#Helvetica-44"/>
      <use xlink:href="#Helvetica-65" x="72.216797"/>
      <use xlink:href="#Helvetica-63" x="127.832031"/>
      <use xlink:href="#Helvetica-65" x="177.832031"/>
      <use xlink:href="#Helvetica-61" x="233.447266"/>
      <use xlink:href="#Helvetica-73" x="289.0625"/>
      <use xlink:href="#Helvetica-65" x="339.0625"/>
      <use xlink:href="#Helvetica-64" x="394.677734"/>
     </g>
    </g>
   </g>
  </g>
 </g>
 <defs>
  <clipPath id="pfaadc34630">
   <rect x="72" y="51.84" width="446.4" height="332.64"/>
  </clipPath>
 </defs>
</svg>
